%TF.GenerationSoftware,KiCad,Pcbnew,9.0.6*%
%TF.CreationDate,2026-03-31T19:04:26+02:00*%
%TF.ProjectId,Z80DevBoard,5a383044-6576-4426-9f61-72642e6b6963,rev?*%
%TF.SameCoordinates,Original*%
%TF.FileFunction,Soldermask,Bot*%
%TF.FilePolarity,Negative*%
%FSLAX46Y46*%
G04 Gerber Fmt 4.6, Leading zero omitted, Abs format (unit mm)*
G04 Created by KiCad (PCBNEW 9.0.6) date 2026-03-31 19:04:26*
%MOMM*%
%LPD*%
G01*
G04 APERTURE LIST*
G04 Aperture macros list*
%AMRoundRect*
0 Rectangle with rounded corners*
0 $1 Rounding radius*
0 $2 $3 $4 $5 $6 $7 $8 $9 X,Y pos of 4 corners*
0 Add a 4 corners polygon primitive as box body*
4,1,4,$2,$3,$4,$5,$6,$7,$8,$9,$2,$3,0*
0 Add four circle primitives for the rounded corners*
1,1,$1+$1,$2,$3*
1,1,$1+$1,$4,$5*
1,1,$1+$1,$6,$7*
1,1,$1+$1,$8,$9*
0 Add four rect primitives between the rounded corners*
20,1,$1+$1,$2,$3,$4,$5,0*
20,1,$1+$1,$4,$5,$6,$7,0*
20,1,$1+$1,$6,$7,$8,$9,0*
20,1,$1+$1,$8,$9,$2,$3,0*%
G04 Aperture macros list end*
%ADD10C,1.600000*%
%ADD11RoundRect,0.250000X-0.550000X-0.550000X0.550000X-0.550000X0.550000X0.550000X-0.550000X0.550000X0*%
%ADD12RoundRect,0.250000X0.550000X-0.550000X0.550000X0.550000X-0.550000X0.550000X-0.550000X-0.550000X0*%
%ADD13RoundRect,0.250000X0.550000X0.550000X-0.550000X0.550000X-0.550000X-0.550000X0.550000X-0.550000X0*%
%ADD14C,2.000000*%
%ADD15C,0.650000*%
%ADD16O,1.000000X2.100000*%
%ADD17O,1.000000X1.600000*%
%ADD18R,1.000000X1.000000*%
%ADD19C,1.000000*%
%ADD20C,1.500000*%
%ADD21R,3.000000X3.000000*%
%ADD22C,3.000000*%
%ADD23R,0.850000X0.850000*%
%ADD24C,0.850000*%
G04 APERTURE END LIST*
D10*
%TO.C,R69*%
X149500000Y-95580000D03*
X149500000Y-85420000D03*
%TD*%
D11*
%TO.C,C8*%
X151500000Y-69250000D03*
D10*
X156500000Y-69250000D03*
%TD*%
%TO.C,R8*%
X113160000Y-136500000D03*
X103000000Y-136500000D03*
%TD*%
%TO.C,R11*%
X143349500Y-133783000D03*
X153509500Y-133783000D03*
%TD*%
%TO.C,R12*%
X52741500Y-53746000D03*
X52741500Y-43586000D03*
%TD*%
%TO.C,R27*%
X48000000Y-108000000D03*
X48000000Y-97840000D03*
%TD*%
%TO.C,R15*%
X197840000Y-62000000D03*
X208000000Y-62000000D03*
%TD*%
D12*
%TO.C,ShiftRegisterIn2*%
X221240500Y-131539000D03*
D10*
X223780500Y-131539000D03*
X226320500Y-131539000D03*
X228860500Y-131539000D03*
X231400500Y-131539000D03*
X233940500Y-131539000D03*
X236480500Y-131539000D03*
X239020500Y-131539000D03*
X239020500Y-123919000D03*
X236480500Y-123919000D03*
X233940500Y-123919000D03*
X231400500Y-123919000D03*
X228860500Y-123919000D03*
X226320500Y-123919000D03*
X223780500Y-123919000D03*
X221240500Y-123919000D03*
%TD*%
D13*
%TO.C,C6*%
X203000000Y-57750000D03*
D10*
X198000000Y-57750000D03*
%TD*%
D11*
%TO.C,C9*%
X85750000Y-93750000D03*
D10*
X90750000Y-93750000D03*
%TD*%
%TO.C,R65*%
X169500000Y-95660000D03*
X169500000Y-85500000D03*
%TD*%
%TO.C,R58*%
X204500000Y-95660000D03*
X204500000Y-85500000D03*
%TD*%
%TO.C,R62*%
X184500000Y-95580000D03*
X184500000Y-85420000D03*
%TD*%
%TO.C,R56*%
X214500000Y-95660000D03*
X214500000Y-85500000D03*
%TD*%
%TO.C,R63*%
X179500000Y-95660000D03*
X179500000Y-85500000D03*
%TD*%
%TO.C,R55*%
X219500000Y-95660000D03*
X219500000Y-85500000D03*
%TD*%
%TO.C,R6*%
X143429500Y-123283000D03*
X153589500Y-123283000D03*
%TD*%
%TO.C,R25*%
X63000000Y-95000000D03*
X63000000Y-84840000D03*
%TD*%
D12*
%TO.C,LedMatrixAddress2*%
X145460000Y-109000000D03*
D10*
X148000000Y-109000000D03*
X150540000Y-109000000D03*
X153080000Y-109000000D03*
X155620000Y-109000000D03*
X158160000Y-109000000D03*
X160700000Y-109000000D03*
X163240000Y-109000000D03*
X165780000Y-109000000D03*
X168320000Y-109000000D03*
X168320000Y-101380000D03*
X165780000Y-101380000D03*
X163240000Y-101380000D03*
X160700000Y-101380000D03*
X158160000Y-101380000D03*
X155620000Y-101380000D03*
X153080000Y-101380000D03*
X150540000Y-101380000D03*
X148000000Y-101380000D03*
X145460000Y-101380000D03*
%TD*%
%TO.C,R17*%
X179740000Y-52000000D03*
X169580000Y-52000000D03*
%TD*%
%TO.C,R26*%
X58000000Y-108000000D03*
X58000000Y-97840000D03*
%TD*%
%TO.C,R21*%
X143432500Y-137000000D03*
X153592500Y-137000000D03*
%TD*%
%TO.C,R70*%
X144500000Y-95580000D03*
X144500000Y-85420000D03*
%TD*%
%TO.C,R38*%
X175250000Y-66750000D03*
X175250000Y-56590000D03*
%TD*%
%TO.C,R64*%
X174500000Y-95660000D03*
X174500000Y-85500000D03*
%TD*%
%TO.C,R9*%
X143429500Y-119783000D03*
X153589500Y-119783000D03*
%TD*%
D11*
%TO.C,C1*%
X73750000Y-54250000D03*
D10*
X78750000Y-54250000D03*
%TD*%
%TO.C,R35*%
X78000000Y-108000000D03*
X78000000Y-97840000D03*
%TD*%
%TO.C,R66*%
X164500000Y-95660000D03*
X164500000Y-85500000D03*
%TD*%
D14*
%TO.C,SW1*%
X247750000Y-114900000D03*
X254250000Y-114900000D03*
X247750000Y-119400000D03*
X254250000Y-119400000D03*
%TD*%
D10*
%TO.C,R36*%
X83000000Y-108000000D03*
X83000000Y-97840000D03*
%TD*%
%TO.C,R10*%
X143429500Y-116283000D03*
X153589500Y-116283000D03*
%TD*%
D13*
%TO.C,C5*%
X214250000Y-51250000D03*
D10*
X209250000Y-51250000D03*
%TD*%
D12*
%TO.C,ShiftRegisterOut3*%
X179230500Y-108769500D03*
D10*
X181770500Y-108769500D03*
X184310500Y-108769500D03*
X186850500Y-108769500D03*
X189390500Y-108769500D03*
X191930500Y-108769500D03*
X194470500Y-108769500D03*
X197010500Y-108769500D03*
X197010500Y-101149500D03*
X194470500Y-101149500D03*
X191930500Y-101149500D03*
X189390500Y-101149500D03*
X186850500Y-101149500D03*
X184310500Y-101149500D03*
X181770500Y-101149500D03*
X179230500Y-101149500D03*
%TD*%
%TO.C,R2*%
X102920000Y-126000000D03*
X113080000Y-126000000D03*
%TD*%
%TO.C,R53*%
X71340000Y-135000000D03*
X81500000Y-135000000D03*
%TD*%
D11*
%TO.C,C2*%
X82250000Y-54250000D03*
D10*
X87250000Y-54250000D03*
%TD*%
%TO.C,R4*%
X113080000Y-133000000D03*
X102920000Y-133000000D03*
%TD*%
D14*
%TO.C,SW2*%
X247750000Y-106400000D03*
X254250000Y-106400000D03*
X247750000Y-110900000D03*
X254250000Y-110900000D03*
%TD*%
D10*
%TO.C,R37*%
X73000000Y-108000000D03*
X73000000Y-97840000D03*
%TD*%
%TO.C,R68*%
X154500000Y-95660000D03*
X154500000Y-85500000D03*
%TD*%
%TO.C,R16*%
X71420000Y-140000000D03*
X81580000Y-140000000D03*
%TD*%
D12*
%TO.C,RAM2*%
X131520000Y-63500000D03*
D10*
X134060000Y-63500000D03*
X136600000Y-63500000D03*
X139140000Y-63500000D03*
X141680000Y-63500000D03*
X144220000Y-63500000D03*
X146760000Y-63500000D03*
X149300000Y-63500000D03*
X151840000Y-63500000D03*
X154380000Y-63500000D03*
X156920000Y-63500000D03*
X159460000Y-63500000D03*
X162000000Y-63500000D03*
X164540000Y-63500000D03*
X164540000Y-48260000D03*
X162000000Y-48260000D03*
X159460000Y-48260000D03*
X156920000Y-48260000D03*
X154380000Y-48260000D03*
X151840000Y-48260000D03*
X149300000Y-48260000D03*
X146760000Y-48260000D03*
X144220000Y-48260000D03*
X141680000Y-48260000D03*
X139140000Y-48260000D03*
X136600000Y-48260000D03*
X134060000Y-48260000D03*
X131520000Y-48260000D03*
%TD*%
D11*
%TO.C,U3*%
X82380000Y-113760000D03*
D10*
X82380000Y-116300000D03*
X82380000Y-118840000D03*
X82380000Y-121380000D03*
X82380000Y-123920000D03*
X82380000Y-126460000D03*
X82380000Y-129000000D03*
X90000000Y-129000000D03*
X90000000Y-126460000D03*
X90000000Y-123920000D03*
X90000000Y-121380000D03*
X90000000Y-118840000D03*
X90000000Y-116300000D03*
X90000000Y-113760000D03*
%TD*%
%TO.C,R31*%
X58000000Y-95000000D03*
X58000000Y-84840000D03*
%TD*%
%TO.C,R30*%
X78000000Y-95000000D03*
X78000000Y-84840000D03*
%TD*%
%TO.C,R60*%
X194500000Y-95580000D03*
X194500000Y-85420000D03*
%TD*%
D13*
%TO.C,C4*%
X206750000Y-51250000D03*
D10*
X201750000Y-51250000D03*
%TD*%
%TO.C,R28*%
X53000000Y-108000000D03*
X53000000Y-97840000D03*
%TD*%
D11*
%TO.C,C11*%
X140500000Y-69250000D03*
D10*
X145500000Y-69250000D03*
%TD*%
%TO.C,R39*%
X103250000Y-87750000D03*
X93090000Y-87750000D03*
%TD*%
%TO.C,R24*%
X73000000Y-95000000D03*
X73000000Y-84840000D03*
%TD*%
D15*
%TO.C,USB_C1*%
X68890000Y-43600000D03*
X63110000Y-43600000D03*
D16*
X70320000Y-44130000D03*
D17*
X70320000Y-39950000D03*
D16*
X61680000Y-44130000D03*
D17*
X61680000Y-39950000D03*
%TD*%
D10*
%TO.C,R23*%
X83000000Y-95000000D03*
X83000000Y-84840000D03*
%TD*%
%TO.C,R5*%
X143340000Y-130283000D03*
X153500000Y-130283000D03*
%TD*%
D14*
%TO.C,SW3*%
X247750000Y-89400000D03*
X254250000Y-89400000D03*
X247750000Y-93900000D03*
X254250000Y-93900000D03*
%TD*%
D10*
%TO.C,R40*%
X103250000Y-84500000D03*
X93090000Y-84500000D03*
%TD*%
D12*
%TO.C,LedMatrixWrite1*%
X54000000Y-130000000D03*
D10*
X56540000Y-130000000D03*
X59080000Y-130000000D03*
X61620000Y-130000000D03*
X64160000Y-130000000D03*
X66700000Y-130000000D03*
X69240000Y-130000000D03*
X71780000Y-130000000D03*
X74320000Y-130000000D03*
X76860000Y-130000000D03*
X76860000Y-122380000D03*
X74320000Y-122380000D03*
X71780000Y-122380000D03*
X69240000Y-122380000D03*
X66700000Y-122380000D03*
X64160000Y-122380000D03*
X61620000Y-122380000D03*
X59080000Y-122380000D03*
X56540000Y-122380000D03*
X54000000Y-122380000D03*
%TD*%
D11*
%TO.C,C14*%
X108000000Y-104750000D03*
D10*
X113000000Y-104750000D03*
%TD*%
D12*
%TO.C,LedMatrixRead1*%
X54000000Y-119620000D03*
D10*
X56540000Y-119620000D03*
X59080000Y-119620000D03*
X61620000Y-119620000D03*
X64160000Y-119620000D03*
X66700000Y-119620000D03*
X69240000Y-119620000D03*
X71780000Y-119620000D03*
X74320000Y-119620000D03*
X76860000Y-119620000D03*
X76860000Y-112000000D03*
X74320000Y-112000000D03*
X71780000Y-112000000D03*
X69240000Y-112000000D03*
X66700000Y-112000000D03*
X64160000Y-112000000D03*
X61620000Y-112000000D03*
X59080000Y-112000000D03*
X56540000Y-112000000D03*
X54000000Y-112000000D03*
%TD*%
%TO.C,R7*%
X113080000Y-140000000D03*
X102920000Y-140000000D03*
%TD*%
D11*
%TO.C,C12*%
X100000000Y-104750000D03*
D10*
X105000000Y-104750000D03*
%TD*%
%TO.C,R13*%
X46741500Y-43586000D03*
X46741500Y-53746000D03*
%TD*%
%TO.C,R32*%
X48000000Y-95000000D03*
X48000000Y-84840000D03*
%TD*%
D11*
%TO.C,LedMatrixAddress1*%
X224000000Y-69640000D03*
D10*
X224000000Y-72180000D03*
X224000000Y-74720000D03*
X224000000Y-77260000D03*
X224000000Y-79800000D03*
X224000000Y-82340000D03*
X224000000Y-84880000D03*
X224000000Y-87420000D03*
X224000000Y-89960000D03*
X224000000Y-92500000D03*
X231620000Y-92500000D03*
X231620000Y-89960000D03*
X231620000Y-87420000D03*
X231620000Y-84880000D03*
X231620000Y-82340000D03*
X231620000Y-79800000D03*
X231620000Y-77260000D03*
X231620000Y-74720000D03*
X231620000Y-72180000D03*
X231620000Y-69640000D03*
%TD*%
%TO.C,R33*%
X53000000Y-95000000D03*
X53000000Y-84840000D03*
%TD*%
%TO.C,R22*%
X68000000Y-95000000D03*
X68000000Y-84840000D03*
%TD*%
%TO.C,R59*%
X199500000Y-95660000D03*
X199500000Y-85500000D03*
%TD*%
%TO.C,R14*%
X58391500Y-53786000D03*
X58391500Y-43626000D03*
%TD*%
%TO.C,R3*%
X113080000Y-129500000D03*
X102920000Y-129500000D03*
%TD*%
D12*
%TO.C,ShiftRegisterOut2*%
X179220000Y-131620000D03*
D10*
X181760000Y-131620000D03*
X184300000Y-131620000D03*
X186840000Y-131620000D03*
X189380000Y-131620000D03*
X191920000Y-131620000D03*
X194460000Y-131620000D03*
X197000000Y-131620000D03*
X197000000Y-124000000D03*
X194460000Y-124000000D03*
X191920000Y-124000000D03*
X189380000Y-124000000D03*
X186840000Y-124000000D03*
X184300000Y-124000000D03*
X181760000Y-124000000D03*
X179220000Y-124000000D03*
%TD*%
%TO.C,R29*%
X63000000Y-108000000D03*
X63000000Y-97840000D03*
%TD*%
D12*
%TO.C,ShiftRegisterOut1*%
X179231900Y-119944000D03*
D10*
X181771900Y-119944000D03*
X184311900Y-119944000D03*
X186851900Y-119944000D03*
X189391900Y-119944000D03*
X191931900Y-119944000D03*
X194471900Y-119944000D03*
X197011900Y-119944000D03*
X197011900Y-112324000D03*
X194471900Y-112324000D03*
X191931900Y-112324000D03*
X189391900Y-112324000D03*
X186851900Y-112324000D03*
X184311900Y-112324000D03*
X181771900Y-112324000D03*
X179231900Y-112324000D03*
%TD*%
D14*
%TO.C,SW4*%
X247750000Y-97900000D03*
X254250000Y-97900000D03*
X247750000Y-102400000D03*
X254250000Y-102400000D03*
%TD*%
D12*
%TO.C,RAM1*%
X91600000Y-63500000D03*
D10*
X94140000Y-63500000D03*
X96680000Y-63500000D03*
X99220000Y-63500000D03*
X101760000Y-63500000D03*
X104300000Y-63500000D03*
X106840000Y-63500000D03*
X109380000Y-63500000D03*
X111920000Y-63500000D03*
X114460000Y-63500000D03*
X117000000Y-63500000D03*
X119540000Y-63500000D03*
X122080000Y-63500000D03*
X124620000Y-63500000D03*
X124620000Y-48260000D03*
X122080000Y-48260000D03*
X119540000Y-48260000D03*
X117000000Y-48260000D03*
X114460000Y-48260000D03*
X111920000Y-48260000D03*
X109380000Y-48260000D03*
X106840000Y-48260000D03*
X104300000Y-48260000D03*
X101760000Y-48260000D03*
X99220000Y-48260000D03*
X96680000Y-48260000D03*
X94140000Y-48260000D03*
X91600000Y-48260000D03*
%TD*%
%TO.C,R61*%
X189500000Y-95580000D03*
X189500000Y-85420000D03*
%TD*%
D12*
%TO.C,U1*%
X96880000Y-118805000D03*
D10*
X99420000Y-118805000D03*
X101960000Y-118805000D03*
X104500000Y-118805000D03*
X107040000Y-118805000D03*
X109580000Y-118805000D03*
X112120000Y-118805000D03*
X112120000Y-111185000D03*
X109580000Y-111185000D03*
X107040000Y-111185000D03*
X104500000Y-111185000D03*
X101960000Y-111185000D03*
X99420000Y-111185000D03*
X96880000Y-111185000D03*
%TD*%
D18*
%TO.C,J3*%
X216580000Y-138500000D03*
D19*
X216580000Y-139770000D03*
X217850000Y-138500000D03*
X217850000Y-139770000D03*
X219120000Y-138500000D03*
X219120000Y-139770000D03*
X220390000Y-138500000D03*
X220390000Y-139770000D03*
X221660000Y-138500000D03*
X221660000Y-139770000D03*
X222930000Y-138500000D03*
X222930000Y-139770000D03*
X224200000Y-138500000D03*
X224200000Y-139770000D03*
X225470000Y-138500000D03*
X225470000Y-139770000D03*
X226740000Y-138500000D03*
X226740000Y-139770000D03*
X228010000Y-138500000D03*
X228010000Y-139770000D03*
%TD*%
D10*
%TO.C,R57*%
X209500000Y-95660000D03*
X209500000Y-85500000D03*
%TD*%
D13*
%TO.C,C3*%
X199250000Y-51250000D03*
D10*
X194250000Y-51250000D03*
%TD*%
D12*
%TO.C,U2*%
X91760000Y-76620000D03*
D10*
X94300000Y-76620000D03*
X96840000Y-76620000D03*
X99380000Y-76620000D03*
X101920000Y-76620000D03*
X104460000Y-76620000D03*
X107000000Y-76620000D03*
X107000000Y-69000000D03*
X104460000Y-69000000D03*
X101920000Y-69000000D03*
X99380000Y-69000000D03*
X96840000Y-69000000D03*
X94300000Y-69000000D03*
X91760000Y-69000000D03*
%TD*%
%TO.C,R67*%
X159500000Y-95660000D03*
X159500000Y-85500000D03*
%TD*%
%TO.C,R54*%
X89500000Y-110160000D03*
X89500000Y-100000000D03*
%TD*%
D11*
%TO.C,C13*%
X93250000Y-124500000D03*
D10*
X98250000Y-124500000D03*
%TD*%
%TO.C,R20*%
X143432500Y-140500000D03*
X153592500Y-140500000D03*
%TD*%
D20*
%TO.C,Y1*%
X161500000Y-69250000D03*
X166380000Y-69250000D03*
%TD*%
D13*
%TO.C,C10*%
X210500000Y-57750000D03*
D10*
X205500000Y-57750000D03*
%TD*%
%TO.C,R19*%
X171750000Y-66750000D03*
X171750000Y-56590000D03*
%TD*%
D11*
%TO.C,C7*%
X233750000Y-57750000D03*
D10*
X238750000Y-57750000D03*
%TD*%
D11*
%TO.C,Z80*%
X119389500Y-85658000D03*
D10*
X119389500Y-88198000D03*
X119389500Y-90738000D03*
X119389500Y-93278000D03*
X119389500Y-95818000D03*
X119389500Y-98358000D03*
X119389500Y-100898000D03*
X119389500Y-103438000D03*
X119389500Y-105978000D03*
X119389500Y-108518000D03*
X119389500Y-111058000D03*
X119389500Y-113598000D03*
X119389500Y-116138000D03*
X119389500Y-118678000D03*
X119389500Y-121218000D03*
X119389500Y-123758000D03*
X119389500Y-126298000D03*
X119389500Y-128838000D03*
X119389500Y-131378000D03*
X119389500Y-133918000D03*
X134629500Y-133918000D03*
X134629500Y-131378000D03*
X134629500Y-128838000D03*
X134629500Y-126298000D03*
X134629500Y-123758000D03*
X134629500Y-121218000D03*
X134629500Y-118678000D03*
X134629500Y-116138000D03*
X134629500Y-113598000D03*
X134629500Y-111058000D03*
X134629500Y-108518000D03*
X134629500Y-105978000D03*
X134629500Y-103438000D03*
X134629500Y-100898000D03*
X134629500Y-98358000D03*
X134629500Y-95818000D03*
X134629500Y-93278000D03*
X134629500Y-90738000D03*
X134629500Y-88198000D03*
X134629500Y-85658000D03*
%TD*%
%TO.C,R1*%
X153589500Y-126783000D03*
X143429500Y-126783000D03*
%TD*%
%TO.C,R18*%
X179660000Y-48436000D03*
X169500000Y-48436000D03*
%TD*%
D21*
%TO.C,SW5*%
X99500000Y-93797500D03*
D22*
X94750000Y-93797500D03*
X104250000Y-93797500D03*
%TD*%
D23*
%TO.C,J1*%
X254000000Y-66000000D03*
D24*
X254000000Y-67000000D03*
%TD*%
D10*
%TO.C,R34*%
X68000000Y-108000000D03*
X68000000Y-97840000D03*
%TD*%
D14*
%TO.C,SW6*%
X60000000Y-136000000D03*
X66500000Y-136000000D03*
X60000000Y-140500000D03*
X66500000Y-140500000D03*
%TD*%
D18*
%TO.C,J2*%
X185180000Y-138500000D03*
D19*
X185180000Y-139770000D03*
X186450000Y-138500000D03*
X186450000Y-139770000D03*
X187720000Y-138500000D03*
X187720000Y-139770000D03*
X188990000Y-138500000D03*
X188990000Y-139770000D03*
X190260000Y-138500000D03*
X190260000Y-139770000D03*
X191530000Y-138500000D03*
X191530000Y-139770000D03*
X192800000Y-138500000D03*
X192800000Y-139770000D03*
X194070000Y-138500000D03*
X194070000Y-139770000D03*
X195340000Y-138500000D03*
X195340000Y-139770000D03*
X196610000Y-138500000D03*
X196610000Y-139770000D03*
X197880000Y-138500000D03*
X197880000Y-139770000D03*
X199150000Y-138500000D03*
X199150000Y-139770000D03*
X200420000Y-138500000D03*
X200420000Y-139770000D03*
X201690000Y-138500000D03*
X201690000Y-139770000D03*
X202960000Y-138500000D03*
X202960000Y-139770000D03*
X204230000Y-138500000D03*
X204230000Y-139770000D03*
X205500000Y-138500000D03*
X205500000Y-139770000D03*
X206770000Y-138500000D03*
X206770000Y-139770000D03*
X208040000Y-138500000D03*
X208040000Y-139770000D03*
X209310000Y-138500000D03*
X209310000Y-139770000D03*
%TD*%
M02*
