%TF.GenerationSoftware,KiCad,Pcbnew,9.0.6*%
%TF.CreationDate,2026-03-04T11:30:58+01:00*%
%TF.ProjectId,Z80DevBoard,5a383044-6576-4426-9f61-72642e6b6963,rev?*%
%TF.SameCoordinates,Original*%
%TF.FileFunction,Copper,L4,Bot*%
%TF.FilePolarity,Positive*%
%FSLAX46Y46*%
G04 Gerber Fmt 4.6, Leading zero omitted, Abs format (unit mm)*
G04 Created by KiCad (PCBNEW 9.0.6) date 2026-03-04 11:30:58*
%MOMM*%
%LPD*%
G01*
G04 APERTURE LIST*
G04 Aperture macros list*
%AMRoundRect*
0 Rectangle with rounded corners*
0 $1 Rounding radius*
0 $2 $3 $4 $5 $6 $7 $8 $9 X,Y pos of 4 corners*
0 Add a 4 corners polygon primitive as box body*
4,1,4,$2,$3,$4,$5,$6,$7,$8,$9,$2,$3,0*
0 Add four circle primitives for the rounded corners*
1,1,$1+$1,$2,$3*
1,1,$1+$1,$4,$5*
1,1,$1+$1,$6,$7*
1,1,$1+$1,$8,$9*
0 Add four rect primitives between the rounded corners*
20,1,$1+$1,$2,$3,$4,$5,0*
20,1,$1+$1,$4,$5,$6,$7,0*
20,1,$1+$1,$6,$7,$8,$9,0*
20,1,$1+$1,$8,$9,$2,$3,0*%
G04 Aperture macros list end*
%TA.AperFunction,ComponentPad*%
%ADD10C,1.600000*%
%TD*%
%TA.AperFunction,ComponentPad*%
%ADD11RoundRect,0.250000X-0.350000X-0.350000X0.350000X-0.350000X0.350000X0.350000X-0.350000X0.350000X0*%
%TD*%
%TA.AperFunction,ComponentPad*%
%ADD12C,1.200000*%
%TD*%
%TA.AperFunction,ComponentPad*%
%ADD13RoundRect,0.250000X0.550000X-0.550000X0.550000X0.550000X-0.550000X0.550000X-0.550000X-0.550000X0*%
%TD*%
%TA.AperFunction,ComponentPad*%
%ADD14RoundRect,0.250000X0.350000X0.350000X-0.350000X0.350000X-0.350000X-0.350000X0.350000X-0.350000X0*%
%TD*%
%TA.AperFunction,ComponentPad*%
%ADD15C,2.000000*%
%TD*%
%TA.AperFunction,ComponentPad*%
%ADD16RoundRect,0.250000X-0.550000X-0.550000X0.550000X-0.550000X0.550000X0.550000X-0.550000X0.550000X0*%
%TD*%
%TA.AperFunction,ComponentPad*%
%ADD17C,0.700000*%
%TD*%
%TA.AperFunction,ComponentPad*%
%ADD18O,0.900000X2.400000*%
%TD*%
%TA.AperFunction,ComponentPad*%
%ADD19O,0.900000X1.700000*%
%TD*%
%TA.AperFunction,ComponentPad*%
%ADD20C,1.500000*%
%TD*%
%TA.AperFunction,ComponentPad*%
%ADD21O,2.200000X3.500000*%
%TD*%
%TA.AperFunction,ComponentPad*%
%ADD22R,1.500000X2.500000*%
%TD*%
%TA.AperFunction,ComponentPad*%
%ADD23O,1.500000X2.500000*%
%TD*%
%TA.AperFunction,ComponentPad*%
%ADD24R,0.850000X0.850000*%
%TD*%
%TA.AperFunction,ComponentPad*%
%ADD25C,0.850000*%
%TD*%
%TA.AperFunction,ViaPad*%
%ADD26C,0.600000*%
%TD*%
%TA.AperFunction,Conductor*%
%ADD27C,0.200000*%
%TD*%
G04 APERTURE END LIST*
D10*
%TO.P,R69,1*%
%TO.N,Net-(LedMatrixAddress2-Q6)*%
X149500000Y-95580000D03*
%TO.P,R69,2*%
%TO.N,Net-(D79-A)*%
X149500000Y-85420000D03*
%TD*%
D11*
%TO.P,C8,1*%
%TO.N,GND*%
X167000000Y-69000000D03*
D12*
%TO.P,C8,2*%
%TO.N,RP2040_XIN*%
X168500000Y-69000000D03*
%TD*%
D10*
%TO.P,R8,1*%
%TO.N,Z80-MREQ*%
X111160000Y-136500000D03*
%TO.P,R8,2*%
%TO.N,Net-(D51-A)*%
X101000000Y-136500000D03*
%TD*%
%TO.P,R11,1*%
%TO.N,Z80-BUSACK*%
X143349500Y-133783000D03*
%TO.P,R11,2*%
%TO.N,Net-(D1-A)*%
X153509500Y-133783000D03*
%TD*%
%TO.P,R12,1*%
%TO.N,GND*%
X52741500Y-53746000D03*
%TO.P,R12,2*%
%TO.N,USB-C-CC1*%
X52741500Y-43586000D03*
%TD*%
%TO.P,R27,1*%
%TO.N,Net-(LedMatrixWrite1-Q7)*%
X48000000Y-108000000D03*
%TO.P,R27,2*%
%TO.N,Net-(D34-A)*%
X48000000Y-97840000D03*
%TD*%
%TO.P,R15,1*%
%TO.N,Vcc-RP2040-RUN*%
X197840000Y-62000000D03*
%TO.P,R15,2*%
%TO.N,Vdd_3v3*%
X208000000Y-62000000D03*
%TD*%
D13*
%TO.P,ShiftRegisterIn2,1,~{PL}*%
%TO.N,RP2040-RWRAM-GPIO8-PL*%
X221240500Y-131539000D03*
D10*
%TO.P,ShiftRegisterIn2,2,CP*%
%TO.N,CLOCK_BUS*%
X223780500Y-131539000D03*
%TO.P,ShiftRegisterIn2,3,D4*%
%TO.N,Net-(D59-K)*%
X226320500Y-131539000D03*
%TO.P,ShiftRegisterIn2,4,D5*%
%TO.N,Net-(D63-K)*%
X228860500Y-131539000D03*
%TO.P,ShiftRegisterIn2,5,D6*%
%TO.N,Net-(D60-K)*%
X231400500Y-131539000D03*
%TO.P,ShiftRegisterIn2,6,D7*%
%TO.N,Net-(D64-K)*%
X233940500Y-131539000D03*
%TO.P,ShiftRegisterIn2,7,~{Q7}*%
%TO.N,unconnected-(ShiftRegisterIn2-~{Q7}-Pad7)*%
X236480500Y-131539000D03*
%TO.P,ShiftRegisterIn2,8,GND*%
%TO.N,GND*%
X239020500Y-131539000D03*
%TO.P,ShiftRegisterIn2,9,Q7*%
%TO.N,RP2040-RWRAM-GPIO7-Q7*%
X239020500Y-123919000D03*
%TO.P,ShiftRegisterIn2,10,DS*%
%TO.N,RP2040-RWRAM-GPIO6-DS*%
X236480500Y-123919000D03*
%TO.P,ShiftRegisterIn2,11,D0*%
%TO.N,Net-(D56-K)*%
X233940500Y-123919000D03*
%TO.P,ShiftRegisterIn2,12,D1*%
%TO.N,Net-(D61-K)*%
X231400500Y-123919000D03*
%TO.P,ShiftRegisterIn2,13,D2*%
%TO.N,Net-(D58-K)*%
X228860500Y-123919000D03*
%TO.P,ShiftRegisterIn2,14,D3*%
%TO.N,Net-(D62-K)*%
X226320500Y-123919000D03*
%TO.P,ShiftRegisterIn2,15,~{CE}*%
%TO.N,GND*%
X223780500Y-123919000D03*
%TO.P,ShiftRegisterIn2,16,VCC*%
%TO.N,Vdd_3v3*%
X221240500Y-123919000D03*
%TD*%
D14*
%TO.P,C6,1*%
%TO.N,RP2040-VREG_VOUT*%
X211500000Y-52000000D03*
D12*
%TO.P,C6,2*%
%TO.N,Vdd_3v3*%
X210000000Y-52000000D03*
%TD*%
D11*
%TO.P,C9,1*%
%TO.N,GND*%
X87000000Y-95000000D03*
D12*
%TO.P,C9,2*%
%TO.N,Net-(C9-Pad2)*%
X88500000Y-95000000D03*
%TD*%
D10*
%TO.P,R65,1*%
%TO.N,Net-(LedMatrixAddress2-Q2)*%
X169500000Y-95660000D03*
%TO.P,R65,2*%
%TO.N,Net-(D75-A)*%
X169500000Y-85500000D03*
%TD*%
%TO.P,R58,1*%
%TO.N,Net-(LedMatrixAddress1-Q3)*%
X204500000Y-95660000D03*
%TO.P,R58,2*%
%TO.N,Net-(D68-A)*%
X204500000Y-85500000D03*
%TD*%
%TO.P,R62,1*%
%TO.N,Net-(LedMatrixAddress1-Q7)*%
X184500000Y-95580000D03*
%TO.P,R62,2*%
%TO.N,Net-(D72-A)*%
X184500000Y-85420000D03*
%TD*%
%TO.P,R56,1*%
%TO.N,Net-(LedMatrixAddress1-Q1)*%
X214500000Y-95660000D03*
%TO.P,R56,2*%
%TO.N,Net-(D66-A)*%
X214500000Y-85500000D03*
%TD*%
%TO.P,R63,1*%
%TO.N,Net-(LedMatrixAddress2-Q0)*%
X179500000Y-95660000D03*
%TO.P,R63,2*%
%TO.N,Net-(D73-A)*%
X179500000Y-85500000D03*
%TD*%
%TO.P,R55,1*%
%TO.N,Net-(LedMatrixAddress1-Q0)*%
X219500000Y-95660000D03*
%TO.P,R55,2*%
%TO.N,Net-(D65-A)*%
X219500000Y-85500000D03*
%TD*%
%TO.P,R6,1*%
%TO.N,Z80-RESET*%
X143429500Y-123283000D03*
%TO.P,R6,2*%
%TO.N,Vcc*%
X153589500Y-123283000D03*
%TD*%
%TO.P,R25,1*%
%TO.N,Net-(LedMatrixRead1-Q4)*%
X63000000Y-95000000D03*
%TO.P,R25,2*%
%TO.N,Net-(D43-A)*%
X63000000Y-84840000D03*
%TD*%
D13*
%TO.P,LedMatrixAddress2,1,OE*%
%TO.N,GND*%
X145460000Y-109000000D03*
D10*
%TO.P,LedMatrixAddress2,2,D0*%
%TO.N,RAM-A8*%
X148000000Y-109000000D03*
%TO.P,LedMatrixAddress2,3,D1*%
%TO.N,RAM-A9*%
X150540000Y-109000000D03*
%TO.P,LedMatrixAddress2,4,D2*%
%TO.N,RAM-A10*%
X153080000Y-109000000D03*
%TO.P,LedMatrixAddress2,5,D3*%
%TO.N,RAM-A11*%
X155620000Y-109000000D03*
%TO.P,LedMatrixAddress2,6,D4*%
%TO.N,RAM-A12*%
X158160000Y-109000000D03*
%TO.P,LedMatrixAddress2,7,D5*%
%TO.N,RAM-A13*%
X160700000Y-109000000D03*
%TO.P,LedMatrixAddress2,8,D6*%
%TO.N,RAM-A14*%
X163240000Y-109000000D03*
%TO.P,LedMatrixAddress2,9,D7*%
%TO.N,RAM-CS*%
X165780000Y-109000000D03*
%TO.P,LedMatrixAddress2,10,GND*%
%TO.N,GND*%
X168320000Y-109000000D03*
%TO.P,LedMatrixAddress2,11,Cp*%
%TO.N,Z80-MREQ*%
X168320000Y-101380000D03*
%TO.P,LedMatrixAddress2,12,Q7*%
%TO.N,Net-(LedMatrixAddress2-Q7)*%
X165780000Y-101380000D03*
%TO.P,LedMatrixAddress2,13,Q6*%
%TO.N,Net-(LedMatrixAddress2-Q6)*%
X163240000Y-101380000D03*
%TO.P,LedMatrixAddress2,14,Q5*%
%TO.N,Net-(LedMatrixAddress2-Q5)*%
X160700000Y-101380000D03*
%TO.P,LedMatrixAddress2,15,Q4*%
%TO.N,Net-(LedMatrixAddress2-Q4)*%
X158160000Y-101380000D03*
%TO.P,LedMatrixAddress2,16,Q3*%
%TO.N,Net-(LedMatrixAddress2-Q3)*%
X155620000Y-101380000D03*
%TO.P,LedMatrixAddress2,17,Q2*%
%TO.N,Net-(LedMatrixAddress2-Q2)*%
X153080000Y-101380000D03*
%TO.P,LedMatrixAddress2,18,Q1*%
%TO.N,Net-(LedMatrixAddress2-Q1)*%
X150540000Y-101380000D03*
%TO.P,LedMatrixAddress2,19,Q0*%
%TO.N,Net-(LedMatrixAddress2-Q0)*%
X148000000Y-101380000D03*
%TO.P,LedMatrixAddress2,20,VCC*%
%TO.N,Vcc*%
X145460000Y-101380000D03*
%TD*%
%TO.P,R17,1*%
%TO.N,RP2040-Z80BOOTMODE*%
X179740000Y-52000000D03*
%TO.P,R17,2*%
%TO.N,Vdd_3v3*%
X169580000Y-52000000D03*
%TD*%
%TO.P,R26,1*%
%TO.N,Net-(LedMatrixWrite1-Q5)*%
X58000000Y-108000000D03*
%TO.P,R26,2*%
%TO.N,Net-(D36-A)*%
X58000000Y-97840000D03*
%TD*%
%TO.P,R21,1*%
%TO.N,Z80-WR*%
X143432500Y-137000000D03*
%TO.P,R21,2*%
%TO.N,Net-(D55-A)*%
X153592500Y-137000000D03*
%TD*%
%TO.P,R70,1*%
%TO.N,Net-(LedMatrixAddress2-Q7)*%
X144500000Y-95580000D03*
%TO.P,R70,2*%
%TO.N,Net-(D80-A)*%
X144500000Y-85420000D03*
%TD*%
%TO.P,R64,1*%
%TO.N,Net-(LedMatrixAddress2-Q1)*%
X174500000Y-95660000D03*
%TO.P,R64,2*%
%TO.N,Net-(D74-A)*%
X174500000Y-85500000D03*
%TD*%
%TO.P,R9,1*%
%TO.N,Z80-M1*%
X143429500Y-119783000D03*
%TO.P,R9,2*%
%TO.N,Net-(D52-A)*%
X153589500Y-119783000D03*
%TD*%
D11*
%TO.P,C1,1*%
%TO.N,GND*%
X74391500Y-54936000D03*
D12*
%TO.P,C1,2*%
%TO.N,Vcc*%
X75891500Y-54936000D03*
%TD*%
D10*
%TO.P,R35,1*%
%TO.N,Net-(LedMatrixWrite1-Q1)*%
X78000000Y-108000000D03*
%TO.P,R35,2*%
%TO.N,Net-(D44-A)*%
X78000000Y-97840000D03*
%TD*%
%TO.P,R66,1*%
%TO.N,Net-(LedMatrixAddress2-Q3)*%
X164500000Y-95660000D03*
%TO.P,R66,2*%
%TO.N,Net-(D76-A)*%
X164500000Y-85500000D03*
%TD*%
D15*
%TO.P,SW1,1,1*%
%TO.N,GND*%
X247750000Y-115000000D03*
X254250000Y-115000000D03*
%TO.P,SW1,2,2*%
%TO.N,Z80-WAIT*%
X247750000Y-119500000D03*
X254250000Y-119500000D03*
%TD*%
D10*
%TO.P,R36,1*%
%TO.N,Net-(LedMatrixWrite1-Q0)*%
X83000000Y-108000000D03*
%TO.P,R36,2*%
%TO.N,Net-(D40-A)*%
X83000000Y-97840000D03*
%TD*%
%TO.P,R10,1*%
%TO.N,Z80-RFSH*%
X143429500Y-116283000D03*
%TO.P,R10,2*%
%TO.N,Net-(D53-A)*%
X153589500Y-116283000D03*
%TD*%
D14*
%TO.P,C5,1*%
%TO.N,RP2040-USB_VDD*%
X206650000Y-52000000D03*
D12*
%TO.P,C5,2*%
%TO.N,Vdd_3v3*%
X205150000Y-52000000D03*
%TD*%
D13*
%TO.P,ShiftRegisterOut3,1,QB*%
%TO.N,Net-(D5-A)*%
X179230500Y-108769500D03*
D10*
%TO.P,ShiftRegisterOut3,2,QC*%
%TO.N,Net-(D7-A)*%
X181770500Y-108769500D03*
%TO.P,ShiftRegisterOut3,3,QD*%
%TO.N,Net-(D9-A)*%
X184310500Y-108769500D03*
%TO.P,ShiftRegisterOut3,4,QE*%
%TO.N,Net-(D11-A)*%
X186850500Y-108769500D03*
%TO.P,ShiftRegisterOut3,5,QF*%
%TO.N,Net-(D13-A)*%
X189390500Y-108769500D03*
%TO.P,ShiftRegisterOut3,6,QG*%
%TO.N,Net-(D15-A)*%
X191930500Y-108769500D03*
%TO.P,ShiftRegisterOut3,7,QH*%
%TO.N,Net-(D17-A)*%
X194470500Y-108769500D03*
%TO.P,ShiftRegisterOut3,8,GND*%
%TO.N,GND*%
X197010500Y-108769500D03*
%TO.P,ShiftRegisterOut3,9,QH'*%
%TO.N,Net-(ShiftRegisterOut1-SER)*%
X197010500Y-101149500D03*
%TO.P,ShiftRegisterOut3,10,~{SRCLR}*%
%TO.N,Vdd_3v3*%
X194470500Y-101149500D03*
%TO.P,ShiftRegisterOut3,11,SRCLK*%
%TO.N,CLOCK_BUS*%
X191930500Y-101149500D03*
%TO.P,ShiftRegisterOut3,12,RCLK*%
%TO.N,RP2040-SH-GPIO4-RCLK*%
X189390500Y-101149500D03*
%TO.P,ShiftRegisterOut3,13,~{OE}*%
%TO.N,GND*%
X186850500Y-101149500D03*
%TO.P,ShiftRegisterOut3,14,SER*%
%TO.N,RP2040-SH-GPIO2-SER*%
X184310500Y-101149500D03*
%TO.P,ShiftRegisterOut3,15,QA*%
%TO.N,Net-(D3-A)*%
X181770500Y-101149500D03*
%TO.P,ShiftRegisterOut3,16,VCC*%
%TO.N,Vdd_3v3*%
X179230500Y-101149500D03*
%TD*%
%TO.P,R2,1*%
%TO.N,Vcc*%
X100920000Y-126000000D03*
%TO.P,R2,2*%
%TO.N,Z80-INT*%
X111080000Y-126000000D03*
%TD*%
%TO.P,R53,1*%
%TO.N,Net-(R16-Pad1)*%
X71340000Y-135000000D03*
%TO.P,R53,2*%
%TO.N,Net-(C13-Pad2)*%
X81500000Y-135000000D03*
%TD*%
D11*
%TO.P,C2,1*%
%TO.N,GND*%
X80391500Y-54936000D03*
D12*
%TO.P,C2,2*%
%TO.N,Vdd_3v3*%
X81891500Y-54936000D03*
%TD*%
D10*
%TO.P,R4,1*%
%TO.N,Z80-HALT*%
X111080000Y-133000000D03*
%TO.P,R4,2*%
%TO.N,Net-(D45-A)*%
X100920000Y-133000000D03*
%TD*%
D15*
%TO.P,SW2,1,1*%
%TO.N,GND*%
X247750000Y-106750000D03*
X254250000Y-106750000D03*
%TO.P,SW2,2,2*%
%TO.N,Z80-RESET*%
X247750000Y-111250000D03*
X254250000Y-111250000D03*
%TD*%
D10*
%TO.P,R37,1*%
%TO.N,Net-(LedMatrixWrite1-Q2)*%
X73000000Y-108000000D03*
%TO.P,R37,2*%
%TO.N,Net-(D42-A)*%
X73000000Y-97840000D03*
%TD*%
%TO.P,R68,1*%
%TO.N,Net-(LedMatrixAddress2-Q5)*%
X154500000Y-95660000D03*
%TO.P,R68,2*%
%TO.N,Net-(D78-A)*%
X154500000Y-85500000D03*
%TD*%
%TO.P,R16,1*%
%TO.N,Net-(R16-Pad1)*%
X71420000Y-140000000D03*
%TO.P,R16,2*%
%TO.N,Vcc*%
X81580000Y-140000000D03*
%TD*%
D13*
%TO.P,RAM2,1,A14*%
%TO.N,RAM-A14*%
X131520000Y-63500000D03*
D10*
%TO.P,RAM2,2,A12*%
%TO.N,RAM-A12*%
X134060000Y-63500000D03*
%TO.P,RAM2,3,A7*%
%TO.N,RAM-A7*%
X136600000Y-63500000D03*
%TO.P,RAM2,4,A6*%
%TO.N,RAM-A6*%
X139140000Y-63500000D03*
%TO.P,RAM2,5,A5*%
%TO.N,RAM-A5*%
X141680000Y-63500000D03*
%TO.P,RAM2,6,A4*%
%TO.N,RAM-A4*%
X144220000Y-63500000D03*
%TO.P,RAM2,7,A3*%
%TO.N,RAM-A3*%
X146760000Y-63500000D03*
%TO.P,RAM2,8,A2*%
%TO.N,RAM-A2*%
X149300000Y-63500000D03*
%TO.P,RAM2,9,A1*%
%TO.N,RAM-A1*%
X151840000Y-63500000D03*
%TO.P,RAM2,10,A0*%
%TO.N,RAM-A0*%
X154380000Y-63500000D03*
%TO.P,RAM2,11,Q0*%
%TO.N,RAM-Q0*%
X156920000Y-63500000D03*
%TO.P,RAM2,12,Q1*%
%TO.N,RAM-Q1*%
X159460000Y-63500000D03*
%TO.P,RAM2,13,Q2*%
%TO.N,RAM-Q2*%
X162000000Y-63500000D03*
%TO.P,RAM2,14,GND*%
%TO.N,GND*%
X164540000Y-63500000D03*
%TO.P,RAM2,15,Q3*%
%TO.N,RAM-Q3*%
X164540000Y-48260000D03*
%TO.P,RAM2,16,Q4*%
%TO.N,RAM-Q4*%
X162000000Y-48260000D03*
%TO.P,RAM2,17,Q5*%
%TO.N,RAM-Q5*%
X159460000Y-48260000D03*
%TO.P,RAM2,18,Q6*%
%TO.N,RAM-Q6*%
X156920000Y-48260000D03*
%TO.P,RAM2,19,Q7*%
%TO.N,RAM-Q7*%
X154380000Y-48260000D03*
%TO.P,RAM2,20,~{CS}*%
%TO.N,RAM2-CS*%
X151840000Y-48260000D03*
%TO.P,RAM2,21,A10*%
%TO.N,RAM-A10*%
X149300000Y-48260000D03*
%TO.P,RAM2,22,~{OE}*%
%TO.N,RAM-OE*%
X146760000Y-48260000D03*
%TO.P,RAM2,23,A11*%
%TO.N,RAM-A11*%
X144220000Y-48260000D03*
%TO.P,RAM2,24,A9*%
%TO.N,RAM-A9*%
X141680000Y-48260000D03*
%TO.P,RAM2,25,A8*%
%TO.N,RAM-A8*%
X139140000Y-48260000D03*
%TO.P,RAM2,26,A13*%
%TO.N,RAM-A13*%
X136600000Y-48260000D03*
%TO.P,RAM2,27,~{WE}*%
%TO.N,RAM-WE*%
X134060000Y-48260000D03*
%TO.P,RAM2,28,VCC*%
%TO.N,Vcc*%
X131520000Y-48260000D03*
%TD*%
D16*
%TO.P,U3,1*%
%TO.N,Z80-MREQ*%
X82380000Y-113760000D03*
D10*
%TO.P,U3,2*%
%TO.N,Z80-RD*%
X82380000Y-116300000D03*
%TO.P,U3,3*%
%TO.N,Net-(LedMatrixRead1-Cp)*%
X82380000Y-118840000D03*
%TO.P,U3,4*%
%TO.N,Z80-MREQ*%
X82380000Y-121380000D03*
%TO.P,U3,5*%
%TO.N,Z80-WR*%
X82380000Y-123920000D03*
%TO.P,U3,6*%
%TO.N,Net-(LedMatrixWrite1-Cp)*%
X82380000Y-126460000D03*
%TO.P,U3,7,GND*%
%TO.N,GND*%
X82380000Y-129000000D03*
%TO.P,U3,8*%
%TO.N,N/C*%
X90000000Y-129000000D03*
%TO.P,U3,9*%
X90000000Y-126460000D03*
%TO.P,U3,10*%
X90000000Y-123920000D03*
%TO.P,U3,11*%
X90000000Y-121380000D03*
%TO.P,U3,12*%
X90000000Y-118840000D03*
%TO.P,U3,13*%
X90000000Y-116300000D03*
%TO.P,U3,14,VCC*%
%TO.N,Vcc*%
X90000000Y-113760000D03*
%TD*%
%TO.P,R31,1*%
%TO.N,Net-(LedMatrixRead1-Q5)*%
X58000000Y-95000000D03*
%TO.P,R31,2*%
%TO.N,Net-(D41-A)*%
X58000000Y-84840000D03*
%TD*%
%TO.P,R30,1*%
%TO.N,Net-(LedMatrixRead1-Q1)*%
X78000000Y-95000000D03*
%TO.P,R30,2*%
%TO.N,Net-(D47-A)*%
X78000000Y-84840000D03*
%TD*%
%TO.P,R60,1*%
%TO.N,Net-(LedMatrixAddress1-Q5)*%
X194500000Y-95580000D03*
%TO.P,R60,2*%
%TO.N,Net-(D70-A)*%
X194500000Y-85420000D03*
%TD*%
D14*
%TO.P,C4,1*%
%TO.N,RP2040-IOVDD*%
X201800000Y-52000000D03*
D12*
%TO.P,C4,2*%
%TO.N,Vdd_3v3*%
X200300000Y-52000000D03*
%TD*%
D10*
%TO.P,R28,1*%
%TO.N,Net-(LedMatrixWrite1-Q6)*%
X53000000Y-108000000D03*
%TO.P,R28,2*%
%TO.N,Net-(D48-A)*%
X53000000Y-97840000D03*
%TD*%
D11*
%TO.P,C11,1*%
%TO.N,GND*%
X160000000Y-69000000D03*
D12*
%TO.P,C11,2*%
%TO.N,RP2040_XOUT*%
X161500000Y-69000000D03*
%TD*%
D10*
%TO.P,R24,1*%
%TO.N,Net-(LedMatrixRead1-Q2)*%
X73000000Y-95000000D03*
%TO.P,R24,2*%
%TO.N,Net-(D37-A)*%
X73000000Y-84840000D03*
%TD*%
D17*
%TO.P,USB_C1,A1,GND*%
%TO.N,GND*%
X69475000Y-44360000D03*
%TO.P,USB_C1,A4,VBUS*%
%TO.N,USB-C-VBUS*%
X68625000Y-44360000D03*
%TO.P,USB_C1,A5,CC1*%
%TO.N,USB-C-CC1*%
X67775000Y-44360000D03*
%TO.P,USB_C1,A6,D+*%
%TO.N,USB-RP2040-DP*%
X66925000Y-44360000D03*
%TO.P,USB_C1,A7,D-*%
%TO.N,USB-RP2040-DM*%
X66075000Y-44360000D03*
%TO.P,USB_C1,A8*%
%TO.N,N/C*%
X65225000Y-44360000D03*
%TO.P,USB_C1,A9,VBUS*%
%TO.N,USB-C-VBUS*%
X64375000Y-44360000D03*
%TO.P,USB_C1,A12,GND*%
%TO.N,GND*%
X63525000Y-44360000D03*
%TO.P,USB_C1,B1,GND*%
X63525000Y-43010000D03*
%TO.P,USB_C1,B4,VBUS*%
%TO.N,USB-C-VBUS*%
X64375000Y-43010000D03*
%TO.P,USB_C1,B5,CC2*%
%TO.N,USB-C-CC2*%
X65225000Y-43010000D03*
%TO.P,USB_C1,B6,D+*%
%TO.N,USB-RP2040-DP*%
X66075000Y-43010000D03*
%TO.P,USB_C1,B7,D-*%
%TO.N,USB-RP2040-DM*%
X66925000Y-43010000D03*
%TO.P,USB_C1,B8*%
%TO.N,N/C*%
X67775000Y-43010000D03*
%TO.P,USB_C1,B9,VBUS*%
%TO.N,USB-C-VBUS*%
X68625000Y-43010000D03*
%TO.P,USB_C1,B12,GND*%
%TO.N,GND*%
X69475000Y-43010000D03*
D18*
%TO.P,USB_C1,S1,SHIELD*%
%TO.N,Net-(USB_C1-SHIELD)*%
X70825000Y-43380000D03*
D19*
X70825000Y-40000000D03*
D18*
X62175000Y-43380000D03*
D19*
X62175000Y-40000000D03*
%TD*%
D10*
%TO.P,R23,1*%
%TO.N,Net-(LedMatrixRead1-Q0)*%
X83000000Y-95000000D03*
%TO.P,R23,2*%
%TO.N,Net-(D31-A)*%
X83000000Y-84840000D03*
%TD*%
%TO.P,R5,1*%
%TO.N,Z80-WAIT*%
X143340000Y-130283000D03*
%TO.P,R5,2*%
%TO.N,Vcc*%
X153500000Y-130283000D03*
%TD*%
D15*
%TO.P,SW3,1,1*%
%TO.N,GND*%
X247750000Y-89750000D03*
X254250000Y-89750000D03*
%TO.P,SW3,2,2*%
%TO.N,RP2040-Z80BOOTMODE*%
X247750000Y-94250000D03*
X254250000Y-94250000D03*
%TD*%
D13*
%TO.P,LedMatrixWrite1,1,OE*%
%TO.N,GND*%
X54000000Y-130000000D03*
D10*
%TO.P,LedMatrixWrite1,2,D0*%
%TO.N,RAM-Q0*%
X56540000Y-130000000D03*
%TO.P,LedMatrixWrite1,3,D1*%
%TO.N,RAM-Q1*%
X59080000Y-130000000D03*
%TO.P,LedMatrixWrite1,4,D2*%
%TO.N,RAM-Q2*%
X61620000Y-130000000D03*
%TO.P,LedMatrixWrite1,5,D3*%
%TO.N,RAM-Q3*%
X64160000Y-130000000D03*
%TO.P,LedMatrixWrite1,6,D4*%
%TO.N,RAM-Q4*%
X66700000Y-130000000D03*
%TO.P,LedMatrixWrite1,7,D5*%
%TO.N,RAM-Q5*%
X69240000Y-130000000D03*
%TO.P,LedMatrixWrite1,8,D6*%
%TO.N,RAM-Q6*%
X71780000Y-130000000D03*
%TO.P,LedMatrixWrite1,9,D7*%
%TO.N,RAM-Q7*%
X74320000Y-130000000D03*
%TO.P,LedMatrixWrite1,10,GND*%
%TO.N,GND*%
X76860000Y-130000000D03*
%TO.P,LedMatrixWrite1,11,Cp*%
%TO.N,Net-(LedMatrixWrite1-Cp)*%
X76860000Y-122380000D03*
%TO.P,LedMatrixWrite1,12,Q7*%
%TO.N,Net-(LedMatrixWrite1-Q7)*%
X74320000Y-122380000D03*
%TO.P,LedMatrixWrite1,13,Q6*%
%TO.N,Net-(LedMatrixWrite1-Q6)*%
X71780000Y-122380000D03*
%TO.P,LedMatrixWrite1,14,Q5*%
%TO.N,Net-(LedMatrixWrite1-Q5)*%
X69240000Y-122380000D03*
%TO.P,LedMatrixWrite1,15,Q4*%
%TO.N,Net-(LedMatrixWrite1-Q4)*%
X66700000Y-122380000D03*
%TO.P,LedMatrixWrite1,16,Q3*%
%TO.N,Net-(LedMatrixWrite1-Q3)*%
X64160000Y-122380000D03*
%TO.P,LedMatrixWrite1,17,Q2*%
%TO.N,Net-(LedMatrixWrite1-Q2)*%
X61620000Y-122380000D03*
%TO.P,LedMatrixWrite1,18,Q1*%
%TO.N,Net-(LedMatrixWrite1-Q1)*%
X59080000Y-122380000D03*
%TO.P,LedMatrixWrite1,19,Q0*%
%TO.N,Net-(LedMatrixWrite1-Q0)*%
X56540000Y-122380000D03*
%TO.P,LedMatrixWrite1,20,VCC*%
%TO.N,Vcc*%
X54000000Y-122380000D03*
%TD*%
D13*
%TO.P,LedMatrixRead1,1,OE*%
%TO.N,GND*%
X54000000Y-119620000D03*
D10*
%TO.P,LedMatrixRead1,2,D0*%
%TO.N,RAM-Q0*%
X56540000Y-119620000D03*
%TO.P,LedMatrixRead1,3,D1*%
%TO.N,RAM-Q1*%
X59080000Y-119620000D03*
%TO.P,LedMatrixRead1,4,D2*%
%TO.N,RAM-Q2*%
X61620000Y-119620000D03*
%TO.P,LedMatrixRead1,5,D3*%
%TO.N,RAM-Q3*%
X64160000Y-119620000D03*
%TO.P,LedMatrixRead1,6,D4*%
%TO.N,RAM-Q4*%
X66700000Y-119620000D03*
%TO.P,LedMatrixRead1,7,D5*%
%TO.N,RAM-Q5*%
X69240000Y-119620000D03*
%TO.P,LedMatrixRead1,8,D6*%
%TO.N,RAM-Q6*%
X71780000Y-119620000D03*
%TO.P,LedMatrixRead1,9,D7*%
%TO.N,RAM-Q7*%
X74320000Y-119620000D03*
%TO.P,LedMatrixRead1,10,GND*%
%TO.N,GND*%
X76860000Y-119620000D03*
%TO.P,LedMatrixRead1,11,Cp*%
%TO.N,Net-(LedMatrixRead1-Cp)*%
X76860000Y-112000000D03*
%TO.P,LedMatrixRead1,12,Q7*%
%TO.N,Net-(LedMatrixRead1-Q7)*%
X74320000Y-112000000D03*
%TO.P,LedMatrixRead1,13,Q6*%
%TO.N,Net-(LedMatrixRead1-Q6)*%
X71780000Y-112000000D03*
%TO.P,LedMatrixRead1,14,Q5*%
%TO.N,Net-(LedMatrixRead1-Q5)*%
X69240000Y-112000000D03*
%TO.P,LedMatrixRead1,15,Q4*%
%TO.N,Net-(LedMatrixRead1-Q4)*%
X66700000Y-112000000D03*
%TO.P,LedMatrixRead1,16,Q3*%
%TO.N,Net-(LedMatrixRead1-Q3)*%
X64160000Y-112000000D03*
%TO.P,LedMatrixRead1,17,Q2*%
%TO.N,Net-(LedMatrixRead1-Q2)*%
X61620000Y-112000000D03*
%TO.P,LedMatrixRead1,18,Q1*%
%TO.N,Net-(LedMatrixRead1-Q1)*%
X59080000Y-112000000D03*
%TO.P,LedMatrixRead1,19,Q0*%
%TO.N,Net-(LedMatrixRead1-Q0)*%
X56540000Y-112000000D03*
%TO.P,LedMatrixRead1,20,VCC*%
%TO.N,Vcc*%
X54000000Y-112000000D03*
%TD*%
%TO.P,R7,1*%
%TO.N,Z80-IORQ*%
X111080000Y-140000000D03*
%TO.P,R7,2*%
%TO.N,Net-(D50-A)*%
X100920000Y-140000000D03*
%TD*%
%TO.P,R13,1*%
%TO.N,USB-C-CC2*%
X46741500Y-43586000D03*
%TO.P,R13,2*%
%TO.N,GND*%
X46741500Y-53746000D03*
%TD*%
%TO.P,R32,1*%
%TO.N,Net-(LedMatrixRead1-Q7)*%
X48000000Y-95000000D03*
%TO.P,R32,2*%
%TO.N,Net-(D33-A)*%
X48000000Y-84840000D03*
%TD*%
D16*
%TO.P,LedMatrixAddress1,1,OE*%
%TO.N,GND*%
X224000000Y-69640000D03*
D10*
%TO.P,LedMatrixAddress1,2,D0*%
%TO.N,RAM-A0*%
X224000000Y-72180000D03*
%TO.P,LedMatrixAddress1,3,D1*%
%TO.N,RAM-A1*%
X224000000Y-74720000D03*
%TO.P,LedMatrixAddress1,4,D2*%
%TO.N,RAM-A2*%
X224000000Y-77260000D03*
%TO.P,LedMatrixAddress1,5,D3*%
%TO.N,RAM-A3*%
X224000000Y-79800000D03*
%TO.P,LedMatrixAddress1,6,D4*%
%TO.N,RAM-A4*%
X224000000Y-82340000D03*
%TO.P,LedMatrixAddress1,7,D5*%
%TO.N,RAM-A5*%
X224000000Y-84880000D03*
%TO.P,LedMatrixAddress1,8,D6*%
%TO.N,RAM-A6*%
X224000000Y-87420000D03*
%TO.P,LedMatrixAddress1,9,D7*%
%TO.N,RAM-A7*%
X224000000Y-89960000D03*
%TO.P,LedMatrixAddress1,10,GND*%
%TO.N,GND*%
X224000000Y-92500000D03*
%TO.P,LedMatrixAddress1,11,Cp*%
%TO.N,Z80-MREQ*%
X231620000Y-92500000D03*
%TO.P,LedMatrixAddress1,12,Q7*%
%TO.N,Net-(LedMatrixAddress1-Q7)*%
X231620000Y-89960000D03*
%TO.P,LedMatrixAddress1,13,Q6*%
%TO.N,Net-(LedMatrixAddress1-Q6)*%
X231620000Y-87420000D03*
%TO.P,LedMatrixAddress1,14,Q5*%
%TO.N,Net-(LedMatrixAddress1-Q5)*%
X231620000Y-84880000D03*
%TO.P,LedMatrixAddress1,15,Q4*%
%TO.N,Net-(LedMatrixAddress1-Q4)*%
X231620000Y-82340000D03*
%TO.P,LedMatrixAddress1,16,Q3*%
%TO.N,Net-(LedMatrixAddress1-Q3)*%
X231620000Y-79800000D03*
%TO.P,LedMatrixAddress1,17,Q2*%
%TO.N,Net-(LedMatrixAddress1-Q2)*%
X231620000Y-77260000D03*
%TO.P,LedMatrixAddress1,18,Q1*%
%TO.N,Net-(LedMatrixAddress1-Q1)*%
X231620000Y-74720000D03*
%TO.P,LedMatrixAddress1,19,Q0*%
%TO.N,Net-(LedMatrixAddress1-Q0)*%
X231620000Y-72180000D03*
%TO.P,LedMatrixAddress1,20,VCC*%
%TO.N,Vcc*%
X231620000Y-69640000D03*
%TD*%
%TO.P,R33,1*%
%TO.N,Net-(LedMatrixRead1-Q6)*%
X53000000Y-95000000D03*
%TO.P,R33,2*%
%TO.N,Net-(D35-A)*%
X53000000Y-84840000D03*
%TD*%
%TO.P,R22,1*%
%TO.N,Net-(LedMatrixRead1-Q3)*%
X68000000Y-95000000D03*
%TO.P,R22,2*%
%TO.N,Net-(D39-A)*%
X68000000Y-84840000D03*
%TD*%
%TO.P,R59,1*%
%TO.N,Net-(LedMatrixAddress1-Q4)*%
X199500000Y-95660000D03*
%TO.P,R59,2*%
%TO.N,Net-(D69-A)*%
X199500000Y-85500000D03*
%TD*%
%TO.P,R14,1*%
%TO.N,GND*%
X58391500Y-53786000D03*
%TO.P,R14,2*%
%TO.N,Net-(USB_C1-SHIELD)*%
X58391500Y-43626000D03*
%TD*%
%TO.P,R3,1*%
%TO.N,Z80-NMI*%
X111080000Y-129500000D03*
%TO.P,R3,2*%
%TO.N,Vcc*%
X100920000Y-129500000D03*
%TD*%
D13*
%TO.P,ShiftRegisterOut2,1,QB*%
%TO.N,Net-(D61-A)*%
X179220000Y-131620000D03*
D10*
%TO.P,ShiftRegisterOut2,2,QC*%
%TO.N,Net-(D58-A)*%
X181760000Y-131620000D03*
%TO.P,ShiftRegisterOut2,3,QD*%
%TO.N,Net-(D62-A)*%
X184300000Y-131620000D03*
%TO.P,ShiftRegisterOut2,4,QE*%
%TO.N,Net-(D59-A)*%
X186840000Y-131620000D03*
%TO.P,ShiftRegisterOut2,5,QF*%
%TO.N,Net-(D63-A)*%
X189380000Y-131620000D03*
%TO.P,ShiftRegisterOut2,6,QG*%
%TO.N,Net-(D60-A)*%
X191920000Y-131620000D03*
%TO.P,ShiftRegisterOut2,7,QH*%
%TO.N,Net-(D64-A)*%
X194460000Y-131620000D03*
%TO.P,ShiftRegisterOut2,8,GND*%
%TO.N,GND*%
X197000000Y-131620000D03*
%TO.P,ShiftRegisterOut2,9,QH'*%
%TO.N,unconnected-(ShiftRegisterOut2-QH'-Pad9)*%
X197000000Y-124000000D03*
%TO.P,ShiftRegisterOut2,10,~{SRCLR}*%
%TO.N,Vdd_3v3*%
X194460000Y-124000000D03*
%TO.P,ShiftRegisterOut2,11,SRCLK*%
%TO.N,CLOCK_BUS*%
X191920000Y-124000000D03*
%TO.P,ShiftRegisterOut2,12,RCLK*%
%TO.N,RP2040-SH-GPIO4-RCLK*%
X189380000Y-124000000D03*
%TO.P,ShiftRegisterOut2,13,~{OE}*%
%TO.N,GND*%
X186840000Y-124000000D03*
%TO.P,ShiftRegisterOut2,14,SER*%
%TO.N,RP2040-SH-GPIO3-SER*%
X184300000Y-124000000D03*
%TO.P,ShiftRegisterOut2,15,QA*%
%TO.N,Net-(D56-A)*%
X181760000Y-124000000D03*
%TO.P,ShiftRegisterOut2,16,VCC*%
%TO.N,Vdd_3v3*%
X179220000Y-124000000D03*
%TD*%
%TO.P,R29,1*%
%TO.N,Net-(LedMatrixWrite1-Q4)*%
X63000000Y-108000000D03*
%TO.P,R29,2*%
%TO.N,Net-(D32-A)*%
X63000000Y-97840000D03*
%TD*%
D13*
%TO.P,ShiftRegisterOut1,1,QB*%
%TO.N,Net-(D27-A)*%
X179231900Y-119944000D03*
D10*
%TO.P,ShiftRegisterOut1,2,QC*%
%TO.N,Net-(D21-A)*%
X181771900Y-119944000D03*
%TO.P,ShiftRegisterOut1,3,QD*%
%TO.N,Net-(D29-A)*%
X184311900Y-119944000D03*
%TO.P,ShiftRegisterOut1,4,QE*%
%TO.N,Net-(D23-A)*%
X186851900Y-119944000D03*
%TO.P,ShiftRegisterOut1,5,QF*%
%TO.N,Net-(D46-A)*%
X189391900Y-119944000D03*
%TO.P,ShiftRegisterOut1,6,QG*%
%TO.N,Net-(D25-A)*%
X191931900Y-119944000D03*
%TO.P,ShiftRegisterOut1,7,QH*%
%TO.N,Net-(D54-A)*%
X194471900Y-119944000D03*
%TO.P,ShiftRegisterOut1,8,GND*%
%TO.N,GND*%
X197011900Y-119944000D03*
%TO.P,ShiftRegisterOut1,9,QH'*%
%TO.N,unconnected-(ShiftRegisterOut1-QH'-Pad9)*%
X197011900Y-112324000D03*
%TO.P,ShiftRegisterOut1,10,~{SRCLR}*%
%TO.N,Vdd_3v3*%
X194471900Y-112324000D03*
%TO.P,ShiftRegisterOut1,11,SRCLK*%
%TO.N,CLOCK_BUS*%
X191931900Y-112324000D03*
%TO.P,ShiftRegisterOut1,12,RCLK*%
%TO.N,RP2040-SH-GPIO4-RCLK*%
X189391900Y-112324000D03*
%TO.P,ShiftRegisterOut1,13,~{OE}*%
%TO.N,GND*%
X186851900Y-112324000D03*
%TO.P,ShiftRegisterOut1,14,SER*%
%TO.N,Net-(ShiftRegisterOut1-SER)*%
X184311900Y-112324000D03*
%TO.P,ShiftRegisterOut1,15,QA*%
%TO.N,Net-(D19-A)*%
X181771900Y-112324000D03*
%TO.P,ShiftRegisterOut1,16,VCC*%
%TO.N,Vdd_3v3*%
X179231900Y-112324000D03*
%TD*%
D15*
%TO.P,SW4,1,1*%
%TO.N,GND*%
X247750000Y-98300000D03*
X254250000Y-98300000D03*
%TO.P,SW4,2,2*%
%TO.N,RP2040-RPBOOTMODE*%
X247750000Y-102800000D03*
X254250000Y-102800000D03*
%TD*%
D13*
%TO.P,RAM1,1,A14*%
%TO.N,RAM-A14*%
X91600000Y-63500000D03*
D10*
%TO.P,RAM1,2,A12*%
%TO.N,RAM-A12*%
X94140000Y-63500000D03*
%TO.P,RAM1,3,A7*%
%TO.N,RAM-A7*%
X96680000Y-63500000D03*
%TO.P,RAM1,4,A6*%
%TO.N,RAM-A6*%
X99220000Y-63500000D03*
%TO.P,RAM1,5,A5*%
%TO.N,RAM-A5*%
X101760000Y-63500000D03*
%TO.P,RAM1,6,A4*%
%TO.N,RAM-A4*%
X104300000Y-63500000D03*
%TO.P,RAM1,7,A3*%
%TO.N,RAM-A3*%
X106840000Y-63500000D03*
%TO.P,RAM1,8,A2*%
%TO.N,RAM-A2*%
X109380000Y-63500000D03*
%TO.P,RAM1,9,A1*%
%TO.N,RAM-A1*%
X111920000Y-63500000D03*
%TO.P,RAM1,10,A0*%
%TO.N,RAM-A0*%
X114460000Y-63500000D03*
%TO.P,RAM1,11,Q0*%
%TO.N,RAM-Q0*%
X117000000Y-63500000D03*
%TO.P,RAM1,12,Q1*%
%TO.N,RAM-Q1*%
X119540000Y-63500000D03*
%TO.P,RAM1,13,Q2*%
%TO.N,RAM-Q2*%
X122080000Y-63500000D03*
%TO.P,RAM1,14,GND*%
%TO.N,GND*%
X124620000Y-63500000D03*
%TO.P,RAM1,15,Q3*%
%TO.N,RAM-Q3*%
X124620000Y-48260000D03*
%TO.P,RAM1,16,Q4*%
%TO.N,RAM-Q4*%
X122080000Y-48260000D03*
%TO.P,RAM1,17,Q5*%
%TO.N,RAM-Q5*%
X119540000Y-48260000D03*
%TO.P,RAM1,18,Q6*%
%TO.N,RAM-Q6*%
X117000000Y-48260000D03*
%TO.P,RAM1,19,Q7*%
%TO.N,RAM-Q7*%
X114460000Y-48260000D03*
%TO.P,RAM1,20,~{CS}*%
%TO.N,RAM-CS*%
X111920000Y-48260000D03*
%TO.P,RAM1,21,A10*%
%TO.N,RAM-A10*%
X109380000Y-48260000D03*
%TO.P,RAM1,22,~{OE}*%
%TO.N,RAM-OE*%
X106840000Y-48260000D03*
%TO.P,RAM1,23,A11*%
%TO.N,RAM-A11*%
X104300000Y-48260000D03*
%TO.P,RAM1,24,A9*%
%TO.N,RAM-A9*%
X101760000Y-48260000D03*
%TO.P,RAM1,25,A8*%
%TO.N,RAM-A8*%
X99220000Y-48260000D03*
%TO.P,RAM1,26,A13*%
%TO.N,RAM-A13*%
X96680000Y-48260000D03*
%TO.P,RAM1,27,~{WE}*%
%TO.N,RAM-WE*%
X94140000Y-48260000D03*
%TO.P,RAM1,28,VCC*%
%TO.N,Vcc*%
X91600000Y-48260000D03*
%TD*%
%TO.P,R61,1*%
%TO.N,Net-(LedMatrixAddress1-Q6)*%
X189500000Y-95580000D03*
%TO.P,R61,2*%
%TO.N,Net-(D71-A)*%
X189500000Y-85420000D03*
%TD*%
D13*
%TO.P,U1,1*%
%TO.N,Net-(C13-Pad2)*%
X98880000Y-122805000D03*
D10*
%TO.P,U1,2*%
%TO.N,Z80_MANUAL_CLOCK*%
X101420000Y-122805000D03*
%TO.P,U1,3*%
%TO.N,Net-(C9-Pad2)*%
X103960000Y-122805000D03*
%TO.P,U1,4*%
%TO.N,Net-(SW5-C)*%
X106500000Y-122805000D03*
%TO.P,U1,5*%
%TO.N,N/C*%
X109040000Y-122805000D03*
%TO.P,U1,6*%
X111580000Y-122805000D03*
%TO.P,U1,7,GND*%
%TO.N,GND*%
X114120000Y-122805000D03*
%TO.P,U1,8*%
%TO.N,N/C*%
X114120000Y-115185000D03*
%TO.P,U1,9*%
X111580000Y-115185000D03*
%TO.P,U1,10*%
X109040000Y-115185000D03*
%TO.P,U1,11*%
X106500000Y-115185000D03*
%TO.P,U1,12*%
X103960000Y-115185000D03*
%TO.P,U1,13*%
X101420000Y-115185000D03*
%TO.P,U1,14,VCC*%
%TO.N,Vcc*%
X98880000Y-115185000D03*
%TD*%
%TO.P,R57,1*%
%TO.N,Net-(LedMatrixAddress1-Q2)*%
X209500000Y-95660000D03*
%TO.P,R57,2*%
%TO.N,Net-(D67-A)*%
X209500000Y-85500000D03*
%TD*%
D14*
%TO.P,C3,1*%
%TO.N,RP2040-DVDD*%
X196950000Y-52000000D03*
D12*
%TO.P,C3,2*%
%TO.N,Vdd_3v3*%
X195450000Y-52000000D03*
%TD*%
D13*
%TO.P,U2,1*%
%TO.N,RAM-CS*%
X91760000Y-76620000D03*
D10*
%TO.P,U2,2*%
%TO.N,RAM2-CS*%
X94300000Y-76620000D03*
%TO.P,U2,3*%
%TO.N,N/C*%
X96840000Y-76620000D03*
%TO.P,U2,4*%
X99380000Y-76620000D03*
%TO.P,U2,5*%
X101920000Y-76620000D03*
%TO.P,U2,6*%
X104460000Y-76620000D03*
%TO.P,U2,7,GND*%
%TO.N,GND*%
X107000000Y-76620000D03*
%TO.P,U2,8*%
%TO.N,N/C*%
X107000000Y-69000000D03*
%TO.P,U2,9*%
X104460000Y-69000000D03*
%TO.P,U2,10*%
X101920000Y-69000000D03*
%TO.P,U2,11*%
X99380000Y-69000000D03*
%TO.P,U2,12*%
X96840000Y-69000000D03*
%TO.P,U2,13*%
X94300000Y-69000000D03*
%TO.P,U2,14,VCC*%
%TO.N,Vcc*%
X91760000Y-69000000D03*
%TD*%
%TO.P,R67,1*%
%TO.N,Net-(LedMatrixAddress2-Q4)*%
X159500000Y-95660000D03*
%TO.P,R67,2*%
%TO.N,Net-(D77-A)*%
X159500000Y-85500000D03*
%TD*%
%TO.P,R54,1*%
%TO.N,Vcc*%
X89500000Y-110160000D03*
%TO.P,R54,2*%
%TO.N,Net-(C9-Pad2)*%
X89500000Y-100000000D03*
%TD*%
D11*
%TO.P,C13,1*%
%TO.N,GND*%
X93500000Y-126000000D03*
D12*
%TO.P,C13,2*%
%TO.N,Net-(C13-Pad2)*%
X95000000Y-126000000D03*
%TD*%
D10*
%TO.P,R20,1*%
%TO.N,Z80-RD*%
X143432500Y-140500000D03*
%TO.P,R20,2*%
%TO.N,Net-(D49-A)*%
X153592500Y-140500000D03*
%TD*%
D20*
%TO.P,Y1,1,1*%
%TO.N,RP2040_XIN*%
X173500000Y-63120000D03*
%TO.P,Y1,2,2*%
%TO.N,RP2040_XOUT*%
X173500000Y-68000000D03*
%TD*%
D14*
%TO.P,C10,1*%
%TO.N,RP2040-VREG_IN*%
X216366050Y-52066000D03*
D12*
%TO.P,C10,2*%
%TO.N,Vdd_3v3*%
X214866050Y-52066000D03*
%TD*%
D11*
%TO.P,C7,1*%
%TO.N,Net-(Flash1-VCC)*%
X234500000Y-59000000D03*
D12*
%TO.P,C7,2*%
%TO.N,Vcc*%
X236000000Y-59000000D03*
%TD*%
D16*
%TO.P,Z80,1,A_{11}*%
%TO.N,RAM-A11*%
X119389500Y-85658000D03*
D10*
%TO.P,Z80,2,A_{12}*%
%TO.N,RAM-A12*%
X119389500Y-88198000D03*
%TO.P,Z80,3,A_{13}*%
%TO.N,RAM-A13*%
X119389500Y-90738000D03*
%TO.P,Z80,4,A_{14}*%
%TO.N,RAM-A14*%
X119389500Y-93278000D03*
%TO.P,Z80,5,A_{15}*%
%TO.N,RAM-CS*%
X119389500Y-95818000D03*
%TO.P,Z80,6,CLK*%
%TO.N,CLOCK_Z80*%
X119389500Y-98358000D03*
%TO.P,Z80,7,D_{4}*%
%TO.N,RAM-Q4*%
X119389500Y-100898000D03*
%TO.P,Z80,8,D_{3}*%
%TO.N,RAM-Q3*%
X119389500Y-103438000D03*
%TO.P,Z80,9,D_{5}*%
%TO.N,RAM-Q5*%
X119389500Y-105978000D03*
%TO.P,Z80,10,D_{6}*%
%TO.N,RAM-Q6*%
X119389500Y-108518000D03*
%TO.P,Z80,11,V_{CC}*%
%TO.N,Vcc*%
X119389500Y-111058000D03*
%TO.P,Z80,12,D_{2}*%
%TO.N,RAM-Q2*%
X119389500Y-113598000D03*
%TO.P,Z80,13,D_{7}*%
%TO.N,RAM-Q7*%
X119389500Y-116138000D03*
%TO.P,Z80,14,D_{0}*%
%TO.N,RAM-Q0*%
X119389500Y-118678000D03*
%TO.P,Z80,15,D_{1}*%
%TO.N,RAM-Q1*%
X119389500Y-121218000D03*
%TO.P,Z80,16,~{INT}*%
%TO.N,Z80-INT*%
X119389500Y-123758000D03*
%TO.P,Z80,17,~{NMI}*%
%TO.N,Z80-NMI*%
X119389500Y-126298000D03*
%TO.P,Z80,18,~{HALT}*%
%TO.N,Z80-HALT*%
X119389500Y-128838000D03*
%TO.P,Z80,19,~{MREQ}*%
%TO.N,Z80-MREQ*%
X119389500Y-131378000D03*
%TO.P,Z80,20,~{IORQ}*%
%TO.N,Z80-IORQ*%
X119389500Y-133918000D03*
%TO.P,Z80,21,~{RD}*%
%TO.N,Z80-RD*%
X134629500Y-133918000D03*
%TO.P,Z80,22,~{WR}*%
%TO.N,Z80-WR*%
X134629500Y-131378000D03*
%TO.P,Z80,23,~{BUSACK}*%
%TO.N,Z80-BUSACK*%
X134629500Y-128838000D03*
%TO.P,Z80,24,~{WAIT}*%
%TO.N,Z80-WAIT*%
X134629500Y-126298000D03*
%TO.P,Z80,25,~{BUSREQ}*%
%TO.N,Z80-BUSREQ*%
X134629500Y-123758000D03*
%TO.P,Z80,26,~{RESET}*%
%TO.N,Z80-RESET*%
X134629500Y-121218000D03*
%TO.P,Z80,27,~{M1}*%
%TO.N,Z80-M1*%
X134629500Y-118678000D03*
%TO.P,Z80,28,~{RFSH}*%
%TO.N,Z80-RFSH*%
X134629500Y-116138000D03*
%TO.P,Z80,29,GND*%
%TO.N,GND*%
X134629500Y-113598000D03*
%TO.P,Z80,30,A_{0}*%
%TO.N,RAM-A0*%
X134629500Y-111058000D03*
%TO.P,Z80,31,A_{1}*%
%TO.N,RAM-A1*%
X134629500Y-108518000D03*
%TO.P,Z80,32,A_{2}*%
%TO.N,RAM-A2*%
X134629500Y-105978000D03*
%TO.P,Z80,33,A_{3}*%
%TO.N,RAM-A3*%
X134629500Y-103438000D03*
%TO.P,Z80,34,A_{4}*%
%TO.N,RAM-A4*%
X134629500Y-100898000D03*
%TO.P,Z80,35,A_{5}*%
%TO.N,RAM-A5*%
X134629500Y-98358000D03*
%TO.P,Z80,36,A_{6}*%
%TO.N,RAM-A6*%
X134629500Y-95818000D03*
%TO.P,Z80,37,A_{7}*%
%TO.N,RAM-A7*%
X134629500Y-93278000D03*
%TO.P,Z80,38,A_{8}*%
%TO.N,RAM-A8*%
X134629500Y-90738000D03*
%TO.P,Z80,39,A_{9}*%
%TO.N,RAM-A9*%
X134629500Y-88198000D03*
%TO.P,Z80,40,A_{10}*%
%TO.N,RAM-A10*%
X134629500Y-85658000D03*
%TD*%
%TO.P,R1,1*%
%TO.N,Vcc*%
X153589500Y-126783000D03*
%TO.P,R1,2*%
%TO.N,Z80-BUSREQ*%
X143429500Y-126783000D03*
%TD*%
%TO.P,R18,1*%
%TO.N,RP2040-RPBOOTMODE*%
X179660000Y-48436000D03*
%TO.P,R18,2*%
%TO.N,Vdd_3v3*%
X169500000Y-48436000D03*
%TD*%
D21*
%TO.P,SW5,*%
%TO.N,*%
X97400000Y-93797500D03*
X105600000Y-93797500D03*
D22*
%TO.P,SW5,1,C*%
%TO.N,Net-(SW5-C)*%
X99500000Y-93797500D03*
D23*
%TO.P,SW5,2,B*%
%TO.N,CLOCK_Z80*%
X101500000Y-93797500D03*
%TO.P,SW5,3,A*%
%TO.N,Z80_MANUAL_CLOCK*%
X103500000Y-93797500D03*
%TD*%
D24*
%TO.P,J1,1,Pin_1*%
%TO.N,RP2040-SWCLK-PIN*%
X254000000Y-66000000D03*
D25*
%TO.P,J1,2,Pin_2*%
%TO.N,RP2040-SWD-PIN*%
X254000000Y-67000000D03*
%TD*%
D10*
%TO.P,R34,1*%
%TO.N,Net-(LedMatrixWrite1-Q3)*%
X68000000Y-108000000D03*
%TO.P,R34,2*%
%TO.N,Net-(D38-A)*%
X68000000Y-97840000D03*
%TD*%
D15*
%TO.P,SW6,1,1*%
%TO.N,GND*%
X60000000Y-136000000D03*
X66500000Y-136000000D03*
%TO.P,SW6,2,2*%
%TO.N,Net-(R16-Pad1)*%
X60000000Y-140500000D03*
X66500000Y-140500000D03*
%TD*%
D26*
%TO.N,RAM-A14*%
X159896155Y-40627683D03*
X132000000Y-60999000D03*
X124000000Y-96000000D03*
X90000000Y-81000000D03*
X97000000Y-67000000D03*
X159000000Y-54000000D03*
X233533912Y-118379186D03*
%TO.N,RAM-A9*%
X138000000Y-43932900D03*
X127859285Y-47489772D03*
X232468600Y-115036000D03*
X139500000Y-88000000D03*
%TO.N,RAM-Q6*%
X111630000Y-53630000D03*
X48000000Y-130400000D03*
X125475735Y-51475735D03*
X116121978Y-69177893D03*
%TO.N,RAM-Q5*%
X124500000Y-51500000D03*
X115669569Y-68518098D03*
X47000000Y-129999000D03*
X111900000Y-55900000D03*
%TO.N,RAM-A10*%
X233034287Y-115601687D03*
X139137500Y-85500000D03*
X127000000Y-47199000D03*
%TO.N,RAM-A7*%
X232687200Y-107666500D03*
X119837404Y-79384161D03*
X141000000Y-46000000D03*
%TO.N,RAM-A5*%
X232203739Y-106256652D03*
X119695129Y-77543658D03*
X150000000Y-45000000D03*
%TO.N,RAM-A12*%
X135000000Y-60999000D03*
X124000000Y-90000000D03*
X161000000Y-54000000D03*
X118004714Y-78400000D03*
X159000000Y-41430000D03*
X233707127Y-116730027D03*
X112000000Y-79000000D03*
%TO.N,RAM-Q4*%
X46000000Y-129584000D03*
X112170000Y-58170000D03*
X123707499Y-51390698D03*
X113000000Y-68000000D03*
%TO.N,Vcc*%
X74726500Y-39586000D03*
X228295700Y-101683500D03*
X251000000Y-124564000D03*
X228577100Y-113053000D03*
X225577100Y-113053000D03*
X225295700Y-101733500D03*
X77091500Y-47386000D03*
%TO.N,RAM-OE*%
X128494431Y-48682136D03*
X106500000Y-45900000D03*
%TO.N,RAM-A11*%
X233815761Y-115772864D03*
X144000000Y-41830999D03*
X93000000Y-79500000D03*
X124000000Y-88000000D03*
X144000000Y-50362000D03*
X144000000Y-46000000D03*
X97333950Y-61843000D03*
%TO.N,RAM-Q7*%
X122000000Y-69600000D03*
X126400000Y-51400000D03*
X49000000Y-131000000D03*
%TO.N,RAM-A6*%
X147738685Y-44875735D03*
X119924265Y-78575735D03*
X232813973Y-106773971D03*
%TO.N,RAM-WE*%
X165909500Y-129783000D03*
X168100000Y-131009441D03*
%TO.N,RAM-Q0*%
X123224265Y-69600000D03*
X130000000Y-65000000D03*
X124000000Y-66001000D03*
X41938715Y-127732085D03*
X117000000Y-66001000D03*
%TO.N,RAM-A0*%
X230845137Y-103008567D03*
X130500000Y-92500000D03*
X158000000Y-47000000D03*
%TO.N,RAM-A13*%
X94333950Y-61843000D03*
X233468600Y-117536000D03*
X89400000Y-79500000D03*
X124000000Y-94000000D03*
X127000000Y-44199000D03*
%TO.N,RAM-A1*%
X130944612Y-93165265D03*
X157000000Y-46239000D03*
X231214168Y-103718370D03*
%TO.N,GND*%
X214500000Y-77500000D03*
X68000000Y-67625000D03*
X169500000Y-77500000D03*
X73000000Y-77000000D03*
X48000000Y-67625000D03*
X73000000Y-67625000D03*
X63000000Y-77000000D03*
X199500000Y-77500000D03*
X245219500Y-130500000D03*
X165909500Y-122500000D03*
X77091500Y-42786000D03*
X154500000Y-77500000D03*
X83000000Y-77000000D03*
X68000000Y-77000000D03*
X184500000Y-77420000D03*
X58000000Y-67625000D03*
X189500000Y-77420000D03*
X219500000Y-77500000D03*
X53000000Y-67625000D03*
X78000000Y-77000000D03*
X172000000Y-124000000D03*
X204500000Y-77500000D03*
X78000000Y-67625000D03*
X58000000Y-77000000D03*
X194500000Y-77420000D03*
X174540000Y-124000000D03*
X91100000Y-136500000D03*
X185454000Y-58736000D03*
X223687200Y-108230500D03*
X253736000Y-125264000D03*
X231968600Y-113703000D03*
X63000000Y-67625000D03*
X144500000Y-77420000D03*
X159500000Y-77500000D03*
X224000000Y-61270000D03*
X149500000Y-77420000D03*
X209500000Y-77500000D03*
X53000000Y-77000000D03*
X223968600Y-119600000D03*
X179500000Y-77500000D03*
X83000000Y-67625000D03*
X164500000Y-77500000D03*
X174500000Y-77500000D03*
X228295700Y-102730500D03*
X48000000Y-77000000D03*
%TO.N,RAM-Q3*%
X113940000Y-58940000D03*
X115060000Y-68000000D03*
X45000000Y-129183000D03*
%TO.N,RAM-A3*%
X231585872Y-105040766D03*
X154358685Y-45875735D03*
X121236250Y-75999000D03*
X132098000Y-94500000D03*
%TO.N,RAM-Q2*%
X122080000Y-67920000D03*
X117000000Y-70000000D03*
X44000000Y-128782000D03*
X130058465Y-66941535D03*
%TO.N,RAM-Q1*%
X43000000Y-128381000D03*
X126000000Y-67000000D03*
X125000000Y-70000000D03*
X130000000Y-66000000D03*
X119540000Y-67000000D03*
%TO.N,RAM-CS*%
X124000000Y-100500000D03*
X106000000Y-42000000D03*
X234577100Y-118600000D03*
X95500000Y-79000000D03*
X98833950Y-61843000D03*
X95500000Y-81600000D03*
X103000000Y-45000000D03*
%TO.N,RAM-A2*%
X121975356Y-75598000D03*
X156000000Y-46000000D03*
X131484263Y-93986842D03*
X231794936Y-104268564D03*
%TO.N,RAM-A4*%
X232487839Y-105274134D03*
X154000000Y-45036000D03*
X119838215Y-76556785D03*
X132897935Y-95502065D03*
%TO.N,RAM-A8*%
X128632325Y-47695712D03*
X232968600Y-114036000D03*
X139500000Y-91000000D03*
%TO.N,Z80-WAIT*%
X132951057Y-137383893D03*
%TO.N,Z80-WR*%
X131000000Y-138000000D03*
X131900000Y-132000000D03*
%TO.N,Z80-RESET*%
X132351057Y-136765787D03*
%TO.N,Vdd_3v3*%
X171960000Y-121800000D03*
X83391500Y-45086000D03*
X89000000Y-43000000D03*
X77091500Y-45086000D03*
X174500000Y-119200000D03*
X174500000Y-118000000D03*
%TO.N,RP2040-DVDD*%
X185054000Y-50272084D03*
X189000000Y-50000000D03*
%TO.N,Net-(D59-K)*%
X211000000Y-125000000D03*
%TO.N,Net-(D60-K)*%
X216000000Y-125000000D03*
%TO.N,Net-(D63-K)*%
X213500000Y-125000000D03*
%TO.N,Net-(D64-K)*%
X218500000Y-125000000D03*
%TO.N,RAM2-CS*%
X116884372Y-77800000D03*
X151840000Y-55840000D03*
%TO.N,RP2040-RWRAM-GPIO5-DIR*%
X187000010Y-68000000D03*
X184742710Y-70257290D03*
%TO.N,FLASH-DO-RP2040-QSPI_SD1*%
X224000000Y-58730000D03*
X219000000Y-58000000D03*
X182600000Y-53043762D03*
X192891500Y-56436000D03*
%TO.N,FLASH-CS-RP2040-QSPI_SS*%
X190500000Y-51000000D03*
X182000000Y-52500000D03*
X217000000Y-56000000D03*
X224000000Y-57460000D03*
%TO.N,USB-C-CC2*%
X64000000Y-41924000D03*
%TO.N,RP2040-Z80BOOTMODE*%
X251000000Y-60000000D03*
X178500000Y-54999000D03*
%TO.N,RP2040-RPBOOTMODE*%
X250400000Y-59434313D03*
%TO.N,RP2040_XIN*%
X184250000Y-63859743D03*
%TO.N,RP2040_XOUT*%
X185000000Y-64500000D03*
%TO.N,CLOCK_FLASH*%
X220000000Y-59000000D03*
X184350000Y-53536000D03*
X195000000Y-57496000D03*
X231175000Y-60000000D03*
%TO.N,USB-RP2040-DP*%
X167000000Y-47184000D03*
X186655000Y-54166726D03*
X162227397Y-40227000D03*
%TO.N,RP2040-SH-GPIO3-SER*%
X185469500Y-99000000D03*
%TO.N,USB-RP2040-DM*%
X161427394Y-40227000D03*
X186854000Y-56184000D03*
X166000000Y-47041000D03*
%TO.N,FLASH-HOLD-RESRT-RP2040-QSPI_SD3*%
X184854000Y-56600000D03*
X194000000Y-59000000D03*
%TO.N,RP2040-SWD-PIN*%
X187500000Y-64400000D03*
X186500000Y-67000000D03*
%TO.N,RP2040-RWRAM-GPIO8-PL*%
X239600000Y-114051473D03*
%TO.N,Net-(ShiftRegisterOut1-SER)*%
X200318600Y-109730500D03*
%TO.N,RP2040-SWCLK-PIN*%
X186727044Y-65772956D03*
X186693784Y-64398000D03*
%TO.N,Vcc-RP2040-RUN*%
X187454000Y-63259743D03*
%TO.N,CLOCK_BUS*%
X223500000Y-133500000D03*
X174500000Y-121800000D03*
%TO.N,Net-(SW5-C)*%
X96000000Y-118000000D03*
%TD*%
D27*
%TO.N,RAM-A14*%
X159000000Y-54000000D02*
X138999000Y-54000000D01*
X131520000Y-66480000D02*
X131520000Y-63500000D01*
X244500000Y-107413098D02*
X233533912Y-118379186D01*
X233174725Y-40825275D02*
X246599000Y-54249550D01*
X246599000Y-87913943D02*
X244500000Y-90012943D01*
X133528500Y-108974050D02*
X133528500Y-108061950D01*
X97000000Y-67000000D02*
X115000000Y-67000000D01*
X115000000Y-67000000D02*
X117000000Y-69000000D01*
X246599000Y-54249550D02*
X246599000Y-87913943D01*
X136770550Y-111304000D02*
X135085550Y-109619000D01*
X134173450Y-109619000D02*
X133528500Y-108974050D01*
X135085550Y-109619000D02*
X134173450Y-109619000D01*
X232173000Y-40827000D02*
X232174725Y-40825275D01*
X244500000Y-90012943D02*
X244500000Y-107413098D01*
X160095472Y-40827000D02*
X232173000Y-40827000D01*
X124000000Y-98533450D02*
X124000000Y-96000000D01*
X129000000Y-69000000D02*
X131520000Y-66480000D01*
X90000000Y-81000000D02*
X90000000Y-65100000D01*
X133528500Y-108061950D02*
X124000000Y-98533450D01*
X159896155Y-40627683D02*
X160095472Y-40827000D01*
X90000000Y-65100000D02*
X91600000Y-63500000D01*
X232174725Y-40825275D02*
X233174725Y-40825275D01*
X138999000Y-54000000D02*
X132000000Y-60999000D01*
X160936000Y-111304000D02*
X136770550Y-111304000D01*
X163240000Y-109000000D02*
X160936000Y-111304000D01*
X117000000Y-69000000D02*
X129000000Y-69000000D01*
%TO.N,RAM-A9*%
X140101000Y-98561000D02*
X140101000Y-88601000D01*
X232750031Y-115036000D02*
X232468600Y-115036000D01*
X232785344Y-115000687D02*
X232750031Y-115036000D01*
X161088791Y-42832000D02*
X232345950Y-42832000D01*
X138000000Y-43932900D02*
X139100900Y-42832000D01*
X139500000Y-88000000D02*
X139302000Y-88198000D01*
X242495000Y-89182443D02*
X242495000Y-106582598D01*
X158418857Y-42833000D02*
X161087791Y-42833000D01*
X140101000Y-88601000D02*
X139500000Y-88000000D01*
X144415043Y-42832999D02*
X144416042Y-42832000D01*
X143583958Y-42832000D02*
X143584957Y-42832999D01*
X130547057Y-44802000D02*
X137130900Y-44802000D01*
X139100900Y-42832000D02*
X143583958Y-42832000D01*
X127859285Y-47489772D02*
X130547057Y-44802000D01*
X158417857Y-42832000D02*
X158418857Y-42833000D01*
X139302000Y-88198000D02*
X134629500Y-88198000D01*
X143584957Y-42832999D02*
X144415043Y-42832999D01*
X150540000Y-109000000D02*
X140101000Y-98561000D01*
X232345950Y-42832000D02*
X244594000Y-55080050D01*
X234378598Y-114699000D02*
X233369874Y-114699000D01*
X244594000Y-55080050D02*
X244594000Y-87083443D01*
X144416042Y-42832000D02*
X158417857Y-42832000D01*
X242495000Y-106582598D02*
X234378598Y-114699000D01*
X161087791Y-42833000D02*
X161088791Y-42832000D01*
X233068187Y-115000687D02*
X232785344Y-115000687D01*
X244594000Y-87083443D02*
X242495000Y-89182443D01*
X233369874Y-114699000D02*
X233068187Y-115000687D01*
X137130900Y-44802000D02*
X138000000Y-43932900D01*
%TO.N,RAM-Q6*%
X114203000Y-78501700D02*
X114203000Y-71000000D01*
X41121600Y-130599000D02*
X39292500Y-128769900D01*
X106423000Y-58837000D02*
X111630000Y-53630000D01*
X118000000Y-82298700D02*
X114203000Y-78501700D01*
X125475735Y-51475735D02*
X126000000Y-52000000D01*
X114203000Y-71000000D02*
X116025107Y-69177893D01*
X39292500Y-70102100D02*
X50557600Y-58837000D01*
X119389500Y-108518000D02*
X121693500Y-106214000D01*
X39292500Y-128769900D02*
X39292500Y-70102100D01*
X111630000Y-53630000D02*
X117000000Y-48260000D01*
X47801000Y-130599000D02*
X41121600Y-130599000D01*
X119055300Y-83354000D02*
X118000000Y-82298700D01*
X126000000Y-52000000D02*
X153180000Y-52000000D01*
X48000000Y-130400000D02*
X47801000Y-130599000D01*
X116025107Y-69177893D02*
X116121978Y-69177893D01*
X153180000Y-52000000D02*
X156920000Y-48260000D01*
X120672960Y-83354000D02*
X119055300Y-83354000D01*
X121693500Y-106214000D02*
X121693500Y-84374540D01*
X121693500Y-84374540D02*
X120672960Y-83354000D01*
X50557600Y-58837000D02*
X106423000Y-58837000D01*
%TO.N,RAM-Q5*%
X46815000Y-130184000D02*
X41273700Y-130184000D01*
X47000000Y-129999000D02*
X46815000Y-130184000D01*
X121292500Y-104075000D02*
X121292500Y-84540640D01*
X125401000Y-52401000D02*
X155319000Y-52401000D01*
X113802000Y-78667800D02*
X113802000Y-71000000D01*
X41273700Y-130184000D02*
X39693500Y-128603800D01*
X118889200Y-83755000D02*
X117067100Y-81932900D01*
X111900000Y-55900000D02*
X119540000Y-48260000D01*
X108562000Y-59238000D02*
X111900000Y-55900000D01*
X120506860Y-83755000D02*
X118889200Y-83755000D01*
X39693500Y-128603800D02*
X39693500Y-70268200D01*
X155319000Y-52401000D02*
X159460000Y-48260000D01*
X119389500Y-105978000D02*
X121292500Y-104075000D01*
X50723700Y-59238000D02*
X108562000Y-59238000D01*
X117067100Y-81932900D02*
X113802000Y-78667800D01*
X121292500Y-84540640D02*
X120506860Y-83755000D01*
X113802000Y-70385667D02*
X115669569Y-68518098D01*
X39693500Y-70268200D02*
X50723700Y-59238000D01*
X124500000Y-51500000D02*
X125401000Y-52401000D01*
X113802000Y-71000000D02*
X113802000Y-70385667D01*
%TO.N,RAM-A10*%
X234544698Y-115100000D02*
X233535974Y-115100000D01*
X140500000Y-88137050D02*
X139137500Y-86774550D01*
X160921691Y-42432000D02*
X160922691Y-42431000D01*
X135446557Y-42431000D02*
X143750058Y-42431000D01*
X159426888Y-42431683D02*
X159427205Y-42432000D01*
X159415043Y-42432000D02*
X159415360Y-42431683D01*
X139137500Y-85500000D02*
X138979500Y-85658000D01*
X133476557Y-44401000D02*
X135446557Y-42431000D01*
X140502000Y-98394900D02*
X140502000Y-88434900D01*
X143750058Y-42431000D02*
X143751057Y-42431999D01*
X144249942Y-42431000D02*
X158583957Y-42431000D01*
X149300000Y-48260000D02*
X147798000Y-49762000D01*
X242896000Y-106748698D02*
X234544698Y-115100000D01*
X140500000Y-88432900D02*
X140500000Y-88137050D01*
X129798000Y-44401000D02*
X133476557Y-44401000D01*
X159415360Y-42431683D02*
X159426888Y-42431683D01*
X158583957Y-42431000D02*
X158584957Y-42432000D01*
X149607100Y-107500000D02*
X140502000Y-98394900D01*
X158584957Y-42432000D02*
X159415043Y-42432000D01*
X153080000Y-109000000D02*
X151580000Y-107500000D01*
X242896000Y-89348543D02*
X242896000Y-106748698D01*
X244995000Y-54913950D02*
X244995000Y-87249543D01*
X143751057Y-42431999D02*
X144248943Y-42431999D01*
X138979500Y-85658000D02*
X134629500Y-85658000D01*
X144248943Y-42431999D02*
X144249942Y-42431000D01*
X232512050Y-42431000D02*
X244995000Y-54913950D01*
X127000000Y-47199000D02*
X129798000Y-44401000D01*
X139137500Y-86774550D02*
X139137500Y-85500000D01*
X233535974Y-115100000D02*
X233034287Y-115601687D01*
X244995000Y-87249543D02*
X242896000Y-89348543D01*
X151580000Y-107500000D02*
X149607100Y-107500000D01*
X127000000Y-48037648D02*
X127000000Y-47199000D01*
X159427205Y-42432000D02*
X160921691Y-42432000D01*
X147798000Y-49762000D02*
X128724352Y-49762000D01*
X140502000Y-88434900D02*
X140500000Y-88432900D01*
X128724352Y-49762000D02*
X127000000Y-48037648D01*
X160922691Y-42431000D02*
X232512050Y-42431000D01*
%TO.N,RAM-A7*%
X139044443Y-84557000D02*
X134173450Y-84557000D01*
X140000000Y-87069950D02*
X140000000Y-85512557D01*
X158085657Y-43634000D02*
X158086657Y-43635000D01*
X232687200Y-107666500D02*
X232771387Y-107666500D01*
X133528500Y-92177000D02*
X134629500Y-93278000D01*
X236026500Y-107666500D02*
X232687200Y-107666500D01*
X161420991Y-43634000D02*
X232013750Y-43634000D01*
X146000000Y-93500000D02*
X140903000Y-88403000D01*
X158086657Y-43635000D02*
X161419991Y-43635000D01*
X140901000Y-87970950D02*
X140000000Y-87069950D01*
X141000000Y-46000000D02*
X143000000Y-44000000D01*
X126507000Y-73593000D02*
X136600000Y-63500000D01*
X243792000Y-86751243D02*
X241693000Y-88850243D01*
X161419991Y-43635000D02*
X161420991Y-43634000D01*
X121017857Y-73393000D02*
X122888699Y-73393000D01*
X134173450Y-84557000D02*
X133528500Y-85201950D01*
X122888699Y-73393000D02*
X123088699Y-73593000D01*
X147366000Y-43634000D02*
X158085657Y-43634000D01*
X241693000Y-88850243D02*
X241693000Y-102000000D01*
X224000000Y-89960000D02*
X220460000Y-93500000D01*
X119837404Y-79384161D02*
X118435215Y-77981972D01*
X140000000Y-85512557D02*
X139044443Y-84557000D01*
X140903000Y-88403000D02*
X140903000Y-88268800D01*
X232013750Y-43634000D02*
X243792000Y-55412250D01*
X133528500Y-85201950D02*
X133528500Y-92177000D01*
X118435215Y-77981972D02*
X118435215Y-75975642D01*
X140903000Y-88268800D02*
X140901000Y-88266800D01*
X143000000Y-44000000D02*
X147000000Y-44000000D01*
X241693000Y-102000000D02*
X236026500Y-107666500D01*
X118435215Y-75975642D02*
X121017857Y-73393000D01*
X220460000Y-93500000D02*
X146000000Y-93500000D01*
X123088699Y-73593000D02*
X126507000Y-73593000D01*
X140901000Y-88266800D02*
X140901000Y-87970950D01*
X243792000Y-55412250D02*
X243792000Y-86751243D01*
X147000000Y-44000000D02*
X147366000Y-43634000D01*
%TO.N,RAM-A5*%
X119695129Y-77543658D02*
X119846600Y-77543658D01*
X157754457Y-44437000D02*
X157753457Y-44436000D01*
X232203739Y-106256652D02*
X232481349Y-106256652D01*
X133841250Y-83755000D02*
X132726500Y-84869750D01*
X130785000Y-74395000D02*
X122756499Y-74395000D01*
X236302148Y-106256652D02*
X240891000Y-101667800D01*
X133099000Y-92881700D02*
X133099000Y-94854600D01*
X232481349Y-106256652D02*
X232565030Y-106172971D01*
X133099000Y-94854600D02*
X133500000Y-95255600D01*
X140802000Y-86737750D02*
X140802000Y-85180357D01*
X242990000Y-55744450D02*
X231681550Y-44436000D01*
X224000000Y-84880000D02*
X216182000Y-92698000D01*
X141703000Y-87934600D02*
X141703000Y-87638750D01*
X233062916Y-106172971D02*
X233146597Y-106256652D01*
X242990000Y-86419043D02*
X242990000Y-55744450D01*
X231681550Y-44436000D02*
X161753191Y-44436000D01*
X141680000Y-63500000D02*
X130785000Y-74395000D01*
X122756499Y-74395000D02*
X122556499Y-74195000D01*
X122556499Y-74195000D02*
X121350057Y-74195000D01*
X157753457Y-44436000D02*
X150564000Y-44436000D01*
X139376643Y-83755000D02*
X133841250Y-83755000D01*
X161752191Y-44437000D02*
X157754457Y-44437000D01*
X240891000Y-88518043D02*
X242990000Y-86419043D01*
X121350057Y-74195000D02*
X119237215Y-76307842D01*
X232565030Y-106172971D02*
X233062916Y-106172971D01*
X134629500Y-98062400D02*
X134629500Y-98358000D01*
X119237215Y-76307842D02*
X119237215Y-77085744D01*
X161753191Y-44436000D02*
X161752191Y-44437000D01*
X141705000Y-88070800D02*
X141705000Y-87936600D01*
X216182000Y-92698000D02*
X146332200Y-92698000D01*
X119237215Y-77085744D02*
X119695129Y-77543658D01*
X133500000Y-95255600D02*
X133500000Y-96932900D01*
X150564000Y-44436000D02*
X150000000Y-45000000D01*
X240891000Y-101667800D02*
X240891000Y-88518043D01*
X146332200Y-92698000D02*
X141705000Y-88070800D01*
X233146597Y-106256652D02*
X236302148Y-106256652D01*
X140802000Y-85180357D02*
X139376643Y-83755000D01*
X133500000Y-96932900D02*
X134629500Y-98062400D01*
X141703000Y-87638750D02*
X140802000Y-86737750D01*
X132726500Y-92509200D02*
X133099000Y-92881700D01*
X141705000Y-87936600D02*
X141703000Y-87934600D01*
X132726500Y-84869750D02*
X132726500Y-92509200D01*
%TO.N,RAM-A12*%
X118000000Y-78599000D02*
X118000000Y-78404714D01*
X159480429Y-41629000D02*
X159481112Y-41629683D01*
X143502000Y-110502000D02*
X134999000Y-101999000D01*
X120851757Y-72992000D02*
X125699370Y-72992000D01*
X243698000Y-89680743D02*
X243698000Y-107080898D01*
X245797000Y-54581750D02*
X245797000Y-87581743D01*
X160000000Y-55000000D02*
X140999000Y-55000000D01*
X161000000Y-54000000D02*
X160000000Y-55000000D01*
X245797000Y-87581743D02*
X243698000Y-89680743D01*
X112000000Y-80808500D02*
X112000000Y-79000000D01*
X160590491Y-41629000D02*
X232844250Y-41629000D01*
X134173450Y-101999000D02*
X124000000Y-91825550D01*
X134999000Y-101999000D02*
X134173450Y-101999000D01*
X124000000Y-91825550D02*
X124000000Y-90000000D01*
X243698000Y-107080898D02*
X234048871Y-116730027D01*
X156658000Y-110502000D02*
X143502000Y-110502000D01*
X134060000Y-64631370D02*
X134060000Y-63500000D01*
X159000000Y-41430000D02*
X159199000Y-41629000D01*
X232844250Y-41629000D02*
X245797000Y-54581750D01*
X118004714Y-78400000D02*
X118000000Y-78395286D01*
X159481112Y-41629683D02*
X159759088Y-41629683D01*
X158160000Y-109000000D02*
X156658000Y-110502000D01*
X160589491Y-41630000D02*
X160590491Y-41629000D01*
X118000000Y-78395286D02*
X118000000Y-75843757D01*
X119389500Y-88198000D02*
X112000000Y-80808500D01*
X125699370Y-72992000D02*
X134060000Y-64631370D01*
X118000000Y-78404714D02*
X118004714Y-78400000D01*
X118000000Y-75843757D02*
X120851757Y-72992000D01*
X140999000Y-55000000D02*
X135000000Y-60999000D01*
X159199000Y-41629000D02*
X159480429Y-41629000D01*
X159759088Y-41629683D02*
X159759405Y-41630000D01*
X159759405Y-41630000D02*
X160589491Y-41630000D01*
X234048871Y-116730027D02*
X233707127Y-116730027D01*
%TO.N,RAM-Q4*%
X40094500Y-128437700D02*
X40094500Y-70434300D01*
X123707499Y-51557442D02*
X124952057Y-52802000D01*
X110706000Y-59634000D02*
X112170000Y-58170000D01*
X46000000Y-129584000D02*
X45801000Y-129783000D01*
X120490500Y-86443160D02*
X120490500Y-84872840D01*
X110360600Y-59639000D02*
X110365600Y-59634000D01*
X119389500Y-100898000D02*
X120490500Y-99797000D01*
X113000000Y-79000000D02*
X113000000Y-68000000D01*
X123707499Y-51390698D02*
X123707499Y-51557442D01*
X157458000Y-52802000D02*
X162000000Y-48260000D01*
X120490500Y-86490500D02*
X120466830Y-86466830D01*
X112170000Y-58170000D02*
X122080000Y-48260000D01*
X40094500Y-70434300D02*
X50889800Y-59639000D01*
X124952057Y-52802000D02*
X157458000Y-52802000D01*
X45801000Y-129783000D02*
X41439800Y-129783000D01*
X120174660Y-84557000D02*
X118557000Y-84557000D01*
X110365600Y-59634000D02*
X110706000Y-59634000D01*
X41439800Y-129783000D02*
X40094500Y-128437700D01*
X50889800Y-59639000D02*
X110360600Y-59639000D01*
X118557000Y-84557000D02*
X113000000Y-79000000D01*
X120466830Y-86466830D02*
X120490500Y-86443160D01*
X120490500Y-84872840D02*
X120174660Y-84557000D01*
X120490500Y-99797000D02*
X120490500Y-86490500D01*
%TO.N,RAM-OE*%
X129173295Y-49361000D02*
X145659000Y-49361000D01*
X106840000Y-48260000D02*
X106840000Y-46240000D01*
X106840000Y-46240000D02*
X106500000Y-45900000D01*
X128494431Y-48682136D02*
X129173295Y-49361000D01*
X145659000Y-49361000D02*
X146760000Y-48260000D01*
%TO.N,RAM-A11*%
X232678150Y-42030000D02*
X245396000Y-54747850D01*
X158751057Y-42031000D02*
X159248943Y-42031000D01*
X243297000Y-89514643D02*
X243297000Y-106914798D01*
X245396000Y-54747850D02*
X245396000Y-87415643D01*
X123701000Y-45299000D02*
X105701000Y-45299000D01*
X105701000Y-45299000D02*
X104300000Y-46700000D01*
X93000000Y-67241000D02*
X95241000Y-65000000D01*
X134000000Y-99500000D02*
X133500000Y-99000000D01*
X144199001Y-42030000D02*
X158750057Y-42030000D01*
X144000000Y-50362000D02*
X143801000Y-50163000D01*
X135730500Y-101156660D02*
X135730500Y-100230500D01*
X133500000Y-97500000D02*
X124000000Y-88000000D01*
X135730500Y-100230500D02*
X135000000Y-99500000D01*
X135000000Y-99500000D02*
X134000000Y-99500000D01*
X96631450Y-61843000D02*
X97333950Y-61843000D01*
X159593305Y-42031000D02*
X160755591Y-42031000D01*
X95241000Y-63233450D02*
X96631450Y-61843000D01*
X95241000Y-65000000D02*
X95241000Y-63233450D01*
X159248943Y-42031000D02*
X159249943Y-42030000D01*
X245396000Y-87415643D02*
X243297000Y-89514643D01*
X159314329Y-42030000D02*
X159315012Y-42030683D01*
X144674840Y-110101000D02*
X135730500Y-101156660D01*
X144000000Y-46000000D02*
X144000000Y-48040000D01*
X160755591Y-42031000D02*
X160756591Y-42030000D01*
X144000000Y-41830999D02*
X144199001Y-42030000D01*
X233635287Y-115772864D02*
X233635287Y-115850630D01*
X159592988Y-42030683D02*
X159593305Y-42031000D01*
X158750057Y-42030000D02*
X158751057Y-42031000D01*
X155620000Y-109000000D02*
X154519000Y-110101000D01*
X124000000Y-45598000D02*
X123701000Y-45299000D01*
X159249943Y-42030000D02*
X159314329Y-42030000D01*
X234438934Y-115772864D02*
X233815761Y-115772864D01*
X128558252Y-50163000D02*
X124000000Y-45604748D01*
X160756591Y-42030000D02*
X232678150Y-42030000D01*
X154519000Y-110101000D02*
X144674840Y-110101000D01*
X144000000Y-48040000D02*
X144220000Y-48260000D01*
X133500000Y-99000000D02*
X133500000Y-97500000D01*
X104300000Y-46700000D02*
X104300000Y-48260000D01*
X243297000Y-106914798D02*
X234438934Y-115772864D01*
X159315012Y-42030683D02*
X159592988Y-42030683D01*
X124000000Y-45604748D02*
X124000000Y-45598000D01*
X93000000Y-79500000D02*
X93000000Y-67241000D01*
X143801000Y-50163000D02*
X128558252Y-50163000D01*
X233815761Y-115772864D02*
X233635287Y-115772864D01*
%TO.N,RAM-Q7*%
X119387500Y-82552000D02*
X115005000Y-78169500D01*
X115005000Y-78169500D02*
X115005000Y-72995000D01*
X50391500Y-58436000D02*
X104284000Y-58436000D01*
X126599000Y-51599000D02*
X151041000Y-51599000D01*
X121005160Y-82552000D02*
X119387500Y-82552000D01*
X115005000Y-72995000D02*
X117000000Y-71000000D01*
X38891500Y-69936000D02*
X50391500Y-58436000D01*
X122495500Y-84042340D02*
X121005160Y-82552000D01*
X117000000Y-71000000D02*
X120600000Y-71000000D01*
X38891500Y-128936000D02*
X38891500Y-69936000D01*
X122495500Y-113032000D02*
X122495500Y-84042340D01*
X126400000Y-51400000D02*
X126599000Y-51599000D01*
X151041000Y-51599000D02*
X154380000Y-48260000D01*
X104284000Y-58436000D02*
X114460000Y-48260000D01*
X119389500Y-116138000D02*
X122495500Y-113032000D01*
X120600000Y-71000000D02*
X122000000Y-69600000D01*
X40955500Y-131000000D02*
X38891500Y-128936000D01*
X49000000Y-131000000D02*
X40955500Y-131000000D01*
%TO.N,RAM-A6*%
X141304000Y-88102700D02*
X141302000Y-88100700D01*
X122722599Y-73794000D02*
X121183957Y-73794000D01*
X235860400Y-107265500D02*
X241292000Y-101833900D01*
X218321000Y-93099000D02*
X146166100Y-93099000D01*
X243391000Y-86585143D02*
X243391000Y-55578350D01*
X139140000Y-63500000D02*
X128646000Y-73994000D01*
X157919557Y-44035000D02*
X148579420Y-44035000D01*
X140401000Y-86903850D02*
X140401000Y-85346457D01*
X134007350Y-84156000D02*
X133127500Y-85035850D01*
X119877263Y-78575735D02*
X119924265Y-78575735D01*
X161586091Y-44036000D02*
X157920557Y-44036000D01*
X232813973Y-106773971D02*
X233305502Y-107265500D01*
X122922599Y-73994000D02*
X122722599Y-73794000D01*
X141302000Y-88100700D02*
X141302000Y-87804850D01*
X141302000Y-87804850D02*
X140401000Y-86903850D01*
X133127500Y-92343100D02*
X133500000Y-92715600D01*
X231847650Y-44035000D02*
X161587091Y-44035000D01*
X146166100Y-93099000D02*
X141304000Y-88236900D01*
X148579420Y-44035000D02*
X147738685Y-44875735D01*
X161587091Y-44035000D02*
X161586091Y-44036000D01*
X233013973Y-106773971D02*
X232813973Y-106773971D01*
X133500000Y-92715600D02*
X133500000Y-94688500D01*
X233305502Y-107265500D02*
X235860400Y-107265500D01*
X133500000Y-94688500D02*
X134629500Y-95818000D01*
X243391000Y-55578350D02*
X231847650Y-44035000D01*
X157920557Y-44036000D02*
X157919557Y-44035000D01*
X224000000Y-87420000D02*
X218321000Y-93099000D01*
X139210543Y-84156000D02*
X134007350Y-84156000D01*
X121183957Y-73794000D02*
X118836215Y-76141742D01*
X241292000Y-88684143D02*
X243391000Y-86585143D01*
X118836215Y-77534687D02*
X119877263Y-78575735D01*
X140401000Y-85346457D02*
X139210543Y-84156000D01*
X241292000Y-101833900D02*
X241292000Y-88684143D01*
X133127500Y-85035850D02*
X133127500Y-92343100D01*
X128646000Y-73994000D02*
X122922599Y-73994000D01*
X118836215Y-76141742D02*
X118836215Y-77534687D01*
X141304000Y-88236900D02*
X141304000Y-88102700D01*
%TO.N,RAM-WE*%
X167135941Y-131009441D02*
X165909500Y-129783000D01*
X168100000Y-131009441D02*
X167135941Y-131009441D01*
%TO.N,RAM-Q0*%
X41698500Y-71098700D02*
X51554200Y-61243000D01*
X41698500Y-127491870D02*
X41698500Y-71098700D01*
X41938715Y-127732085D02*
X41698500Y-127491870D01*
X51554200Y-61243000D02*
X114743000Y-61243000D01*
X114743000Y-61243000D02*
X117000000Y-63500000D01*
X122896500Y-83876240D02*
X121171260Y-82151000D01*
X117406000Y-72000000D02*
X120000000Y-72000000D01*
X120000000Y-72000000D02*
X120824265Y-72000000D01*
X119553600Y-82151000D02*
X115701300Y-78298700D01*
X119389500Y-118678000D02*
X122896500Y-115171000D01*
X119849000Y-82151000D02*
X119553600Y-82151000D01*
X120824265Y-72000000D02*
X123224265Y-69600000D01*
X124000000Y-66001000D02*
X128999000Y-66001000D01*
X115406000Y-78003400D02*
X115406000Y-74000000D01*
X117000000Y-66001000D02*
X124000000Y-66001000D01*
X115701300Y-78298700D02*
X115406000Y-78003400D01*
X128999000Y-66001000D02*
X130000000Y-65000000D01*
X122896500Y-115171000D02*
X122896500Y-83876240D01*
X115406000Y-74000000D02*
X117406000Y-72000000D01*
X121171260Y-82151000D02*
X119849000Y-82151000D01*
%TO.N,RAM-A0*%
X130721500Y-92278500D02*
X130500000Y-92500000D01*
X133010750Y-81750000D02*
X130721500Y-84039250D01*
X143708000Y-86808250D02*
X142807000Y-85907250D01*
X240985000Y-56574950D02*
X240985000Y-85588543D01*
X238886000Y-87687543D02*
X238886000Y-100837300D01*
X147162700Y-90693000D02*
X143710000Y-87240300D01*
X221262950Y-72180000D02*
X202749950Y-90693000D01*
X143710000Y-87106100D02*
X143708000Y-87104100D01*
X143708000Y-87104100D02*
X143708000Y-86808250D01*
X130161400Y-61599000D02*
X152479000Y-61599000D01*
X115960000Y-65000000D02*
X126760400Y-65000000D01*
X162582691Y-46442000D02*
X162583691Y-46441000D01*
X240985000Y-85588543D02*
X238886000Y-87687543D01*
X158000000Y-47000000D02*
X158558000Y-46442000D01*
X114460000Y-63500000D02*
X115960000Y-65000000D01*
X142807000Y-85907250D02*
X142807000Y-84349857D01*
X224000000Y-72180000D02*
X221262950Y-72180000D01*
X140207143Y-81750000D02*
X133010750Y-81750000D01*
X238886000Y-100837300D02*
X236714733Y-103008567D01*
X152479000Y-61599000D02*
X154380000Y-63500000D01*
X236714733Y-103008567D02*
X230845137Y-103008567D01*
X230851050Y-46441000D02*
X240985000Y-56574950D01*
X158558000Y-46442000D02*
X162582691Y-46442000D01*
X162583691Y-46441000D02*
X230851050Y-46441000D01*
X142807000Y-84349857D02*
X140207143Y-81750000D01*
X202749950Y-90693000D02*
X147162700Y-90693000D01*
X126760400Y-65000000D02*
X130161400Y-61599000D01*
X130721500Y-84039250D02*
X130721500Y-92278500D01*
X143710000Y-87240300D02*
X143710000Y-87106100D01*
%TO.N,RAM-A13*%
X159248943Y-40829000D02*
X159295155Y-40875212D01*
X89599000Y-79301000D02*
X89599000Y-63401000D01*
X246198000Y-87747843D02*
X244099000Y-89846843D01*
X138909550Y-110903000D02*
X136000000Y-107993450D01*
X96680000Y-46820000D02*
X99500000Y-44000000D01*
X157951057Y-41629000D02*
X158751057Y-40829000D01*
X233010350Y-41228000D02*
X246198000Y-54415650D01*
X159295155Y-40875212D02*
X159295155Y-40876626D01*
X124000000Y-95000000D02*
X124000000Y-94000000D01*
X144248943Y-41229999D02*
X144647944Y-41629000D01*
X135377000Y-104877000D02*
X133877000Y-104877000D01*
X127000000Y-44000000D02*
X133310457Y-44000000D01*
X89400000Y-79500000D02*
X89599000Y-79301000D01*
X142951056Y-42030000D02*
X143751057Y-41229999D01*
X233809998Y-117536000D02*
X233468600Y-117536000D01*
X89599000Y-63401000D02*
X91157000Y-61843000D01*
X136000000Y-107993450D02*
X136000000Y-105500000D01*
X143751057Y-41229999D02*
X144248943Y-41229999D01*
X159925188Y-41228683D02*
X159925505Y-41229000D01*
X159647212Y-41228683D02*
X159925188Y-41228683D01*
X244099000Y-107246998D02*
X233809998Y-117536000D01*
X233532600Y-117600000D02*
X233468600Y-117536000D01*
X144647944Y-41629000D02*
X157951057Y-41629000D01*
X159295155Y-40876626D02*
X159647212Y-41228683D01*
X158751057Y-40829000D02*
X159248943Y-40829000D01*
X96680000Y-48260000D02*
X96680000Y-46820000D01*
X244099000Y-89846843D02*
X244099000Y-107246998D01*
X160424391Y-41228000D02*
X233010350Y-41228000D01*
X133877000Y-104877000D02*
X124000000Y-95000000D01*
X158797000Y-110903000D02*
X138909550Y-110903000D01*
X127000000Y-44199000D02*
X127000000Y-44000000D01*
X133310457Y-44000000D02*
X135280457Y-42030000D01*
X135280457Y-42030000D02*
X142951056Y-42030000D01*
X246198000Y-54415650D02*
X246198000Y-87747843D01*
X91157000Y-61843000D02*
X94333950Y-61843000D01*
X136000000Y-105500000D02*
X135377000Y-104877000D01*
X160700000Y-109000000D02*
X158797000Y-110903000D01*
X159925505Y-41229000D02*
X160423391Y-41229000D01*
X99500000Y-44000000D02*
X127000000Y-44000000D01*
X160423391Y-41229000D02*
X160424391Y-41228000D01*
%TO.N,RAM-A1*%
X157198000Y-46041000D02*
X162416591Y-46041000D01*
X241386000Y-56408850D02*
X241386000Y-85754643D01*
X239287000Y-87853643D02*
X239287000Y-101003400D01*
X146996600Y-91094000D02*
X143309000Y-87406400D01*
X143309000Y-87406400D02*
X143309000Y-87272200D01*
X231495187Y-103718370D02*
X231214168Y-103718370D01*
X157000000Y-46239000D02*
X157198000Y-46041000D01*
X142406000Y-86073350D02*
X142406000Y-84515957D01*
X239287000Y-101003400D02*
X236572030Y-103718370D01*
X126926500Y-65401000D02*
X130327500Y-62000000D01*
X231017150Y-46040000D02*
X241386000Y-56408850D01*
X241386000Y-85754643D02*
X239287000Y-87853643D01*
X131122500Y-84205350D02*
X131122500Y-92987377D01*
X142406000Y-84515957D02*
X140041043Y-82151000D01*
X232043879Y-103667564D02*
X231545993Y-103667564D01*
X162417591Y-46040000D02*
X231017150Y-46040000D01*
X231545993Y-103667564D02*
X231495187Y-103718370D01*
X130327500Y-62000000D02*
X150340000Y-62000000D01*
X236572030Y-103718370D02*
X232094685Y-103718370D01*
X143307000Y-86974350D02*
X142406000Y-86073350D01*
X140041043Y-82151000D02*
X133176850Y-82151000D01*
X223280000Y-74720000D02*
X206906000Y-91094000D01*
X131122500Y-92987377D02*
X130944612Y-93165265D01*
X111920000Y-63500000D02*
X113821000Y-65401000D01*
X224000000Y-74720000D02*
X223280000Y-74720000D01*
X232094685Y-103718370D02*
X232043879Y-103667564D01*
X143307000Y-87270200D02*
X143307000Y-86974350D01*
X113821000Y-65401000D02*
X126926500Y-65401000D01*
X133176850Y-82151000D02*
X131122500Y-84205350D01*
X162416591Y-46041000D02*
X162417591Y-46040000D01*
X150340000Y-62000000D02*
X151840000Y-63500000D01*
X206906000Y-91094000D02*
X146996600Y-91094000D01*
X143309000Y-87272200D02*
X143307000Y-87270200D01*
%TO.N,RAM-Q3*%
X44801000Y-129382000D02*
X41605900Y-129382000D01*
X124203000Y-53203000D02*
X121940000Y-50940000D01*
X112845000Y-60035000D02*
X113940000Y-58940000D01*
X113401000Y-69659000D02*
X115060000Y-68000000D01*
X110526700Y-60040000D02*
X110531700Y-60035000D01*
X113940000Y-58940000D02*
X121940000Y-50940000D01*
X164540000Y-48260000D02*
X159597000Y-53203000D01*
X113401000Y-78833900D02*
X113401000Y-69659000D01*
X119389500Y-103438000D02*
X120891500Y-101936000D01*
X45000000Y-129183000D02*
X44801000Y-129382000D01*
X41605900Y-129382000D02*
X40495500Y-128271600D01*
X110531700Y-60035000D02*
X112845000Y-60035000D01*
X118723100Y-84156000D02*
X113401000Y-78833900D01*
X40495500Y-70600400D02*
X51055900Y-60040000D01*
X120891500Y-84706740D02*
X120340760Y-84156000D01*
X120340760Y-84156000D02*
X118723100Y-84156000D01*
X121940000Y-50940000D02*
X124620000Y-48260000D01*
X159597000Y-53203000D02*
X124203000Y-53203000D01*
X51055900Y-60040000D02*
X110526700Y-60040000D01*
X120891500Y-101936000D02*
X120891500Y-84706740D01*
X40495500Y-128271600D02*
X40495500Y-70600400D01*
%TO.N,RAM-A3*%
X154996420Y-45238000D02*
X157421257Y-45238000D01*
X121726413Y-74997000D02*
X122224299Y-74997000D01*
X231349350Y-45238000D02*
X242188000Y-56076650D01*
X223200000Y-79800000D02*
X211104000Y-91896000D01*
X142507000Y-87738600D02*
X142507000Y-87604400D01*
X121236250Y-75999000D02*
X121236250Y-75487163D01*
X154358685Y-45875735D02*
X154996420Y-45238000D01*
X240089000Y-101335600D02*
X236399409Y-105025191D01*
X242188000Y-56076650D02*
X242188000Y-86086843D01*
X157421257Y-45238000D02*
X157422257Y-45239000D01*
X146664400Y-91896000D02*
X142507000Y-87738600D01*
X142505000Y-87306550D02*
X141604000Y-86405550D01*
X224000000Y-79800000D02*
X223200000Y-79800000D01*
X132297000Y-94301000D02*
X132098000Y-94500000D01*
X157422257Y-45239000D02*
X162084391Y-45239000D01*
X142507000Y-87604400D02*
X142505000Y-87602400D01*
X162085391Y-45238000D02*
X231349350Y-45238000D01*
X122224299Y-74997000D02*
X122424299Y-75197000D01*
X240089000Y-88185843D02*
X240089000Y-101335600D01*
X242188000Y-86086843D02*
X240089000Y-88185843D01*
X131924500Y-92841400D02*
X132297000Y-93213900D01*
X131924500Y-84537550D02*
X131924500Y-92841400D01*
X211104000Y-91896000D02*
X146664400Y-91896000D01*
X236399409Y-105025191D02*
X233088839Y-105025191D01*
X122424299Y-75197000D02*
X135063000Y-75197000D01*
X141604000Y-84848157D02*
X139708843Y-82953000D01*
X135063000Y-75197000D02*
X146760000Y-63500000D01*
X162084391Y-45239000D02*
X162085391Y-45238000D01*
X139708843Y-82953000D02*
X133509050Y-82953000D01*
X142505000Y-87602400D02*
X142505000Y-87306550D01*
X141604000Y-86405550D02*
X141604000Y-84848157D01*
X121236250Y-75487163D02*
X121726413Y-74997000D01*
X232238896Y-104673134D02*
X231871264Y-105040766D01*
X133509050Y-82953000D02*
X131924500Y-84537550D01*
X232736782Y-104673134D02*
X232238896Y-104673134D01*
X132297000Y-93213900D02*
X132297000Y-94301000D01*
X231871264Y-105040766D02*
X231585872Y-105040766D01*
X233088839Y-105025191D02*
X232736782Y-104673134D01*
%TO.N,RAM-Q2*%
X120987500Y-112000000D02*
X121000000Y-112000000D01*
X121000000Y-112000000D02*
X122094500Y-110905500D01*
X40896500Y-128105500D02*
X40896500Y-70766500D01*
X41772000Y-128981000D02*
X40896500Y-128105500D01*
X44000000Y-128782000D02*
X43801000Y-128981000D01*
X116208000Y-70000000D02*
X117000000Y-70000000D01*
X114604000Y-78335600D02*
X114604000Y-71604000D01*
X118166100Y-81897700D02*
X114604000Y-78335600D01*
X122160000Y-68000000D02*
X129000000Y-68000000D01*
X122094500Y-84208440D02*
X120839060Y-82953000D01*
X43801000Y-128981000D02*
X41772000Y-128981000D01*
X119389500Y-113598000D02*
X120987500Y-112000000D01*
X40896500Y-70766500D02*
X51222000Y-60441000D01*
X129000000Y-68000000D02*
X130058465Y-66941535D01*
X122080000Y-67920000D02*
X122160000Y-68000000D01*
X120839060Y-82953000D02*
X119221400Y-82953000D01*
X110697800Y-60436000D02*
X119016000Y-60436000D01*
X119221400Y-82953000D02*
X118166100Y-81897700D01*
X119016000Y-60436000D02*
X122080000Y-63500000D01*
X51222000Y-60441000D02*
X110692800Y-60441000D01*
X114604000Y-71604000D02*
X116208000Y-70000000D01*
X110692800Y-60441000D02*
X110697800Y-60436000D01*
X122094500Y-110905500D02*
X122094500Y-84208440D01*
%TO.N,RAM-Q1*%
X123297500Y-117310000D02*
X123297500Y-83710140D01*
X118406000Y-72401000D02*
X122599000Y-72401000D01*
X41297500Y-70932600D02*
X51388100Y-60842000D01*
X129000000Y-67000000D02*
X130000000Y-66000000D01*
X51388100Y-60842000D02*
X116882000Y-60842000D01*
X123297500Y-83710140D02*
X122000000Y-82412640D01*
X126000000Y-67000000D02*
X129000000Y-67000000D01*
X122599000Y-72401000D02*
X125000000Y-70000000D01*
X116882000Y-60842000D02*
X119540000Y-63500000D01*
X43000000Y-128381000D02*
X42801000Y-128580000D01*
X115807000Y-75000000D02*
X118406000Y-72401000D01*
X42801000Y-128580000D02*
X41938100Y-128580000D01*
X121337360Y-81750000D02*
X120000000Y-81750000D01*
X120000000Y-81750000D02*
X119750000Y-81750000D01*
X41938100Y-128580000D02*
X41297500Y-127939400D01*
X41297500Y-127939400D02*
X41297500Y-70932600D01*
X115807000Y-77807000D02*
X115807000Y-75000000D01*
X119750000Y-81750000D02*
X115807000Y-77807000D01*
X122000000Y-82412640D02*
X121337360Y-81750000D01*
X119540000Y-67000000D02*
X126000000Y-67000000D01*
X119389500Y-121218000D02*
X123297500Y-117310000D01*
%TO.N,RAM-CS*%
X162621000Y-112159000D02*
X134173450Y-112159000D01*
X232006900Y-40426000D02*
X162828397Y-40426000D01*
X133514050Y-111514050D02*
X133500000Y-111500000D01*
X247000000Y-88080043D02*
X247000000Y-54083450D01*
X134782157Y-40827000D02*
X132812157Y-42797000D01*
X103000000Y-49000000D02*
X103000000Y-45000000D01*
X98412450Y-61843000D02*
X98833950Y-61843000D01*
X133528500Y-111514050D02*
X133514050Y-111514050D01*
X106797000Y-42797000D02*
X106000000Y-42000000D01*
X95500000Y-81600000D02*
X95500000Y-79000000D01*
X234577100Y-118600000D02*
X234577100Y-117903098D01*
X133500000Y-110500000D02*
X124000000Y-101000000D01*
X103361000Y-49361000D02*
X103000000Y-49000000D01*
X161718437Y-39101000D02*
X158777757Y-39101000D01*
X142452756Y-40827000D02*
X134782157Y-40827000D01*
X162828397Y-40426000D02*
X162828397Y-39978057D01*
X111920000Y-48260000D02*
X110819000Y-49361000D01*
X162476340Y-39626000D02*
X162243437Y-39626000D01*
X158039800Y-39826000D02*
X157439800Y-40426000D01*
X157439800Y-40426000D02*
X145146244Y-40426000D01*
X162828397Y-39978057D02*
X162476340Y-39626000D01*
X132812157Y-42797000D02*
X106797000Y-42797000D01*
X143252757Y-40026999D02*
X142452756Y-40827000D01*
X247000000Y-54083450D02*
X233340825Y-40424275D01*
X233340825Y-40424275D02*
X232008625Y-40424275D01*
X165780000Y-109000000D02*
X162621000Y-112159000D01*
X144747243Y-40026999D02*
X143252757Y-40026999D01*
X110819000Y-49361000D02*
X103361000Y-49361000D01*
X232008625Y-40424275D02*
X232006900Y-40426000D01*
X145146244Y-40426000D02*
X144747243Y-40026999D01*
X95500000Y-67500000D02*
X98000000Y-65000000D01*
X244901000Y-107579198D02*
X244901000Y-90179043D01*
X162243437Y-39626000D02*
X161718437Y-39101000D01*
X234577100Y-117903098D02*
X244901000Y-107579198D01*
X98000000Y-62255450D02*
X98412450Y-61843000D01*
X244901000Y-90179043D02*
X247000000Y-88080043D01*
X98000000Y-65000000D02*
X98000000Y-62255450D01*
X124000000Y-101000000D02*
X124000000Y-100500000D01*
X134173450Y-112159000D02*
X133528500Y-111514050D01*
X158052757Y-39826000D02*
X158039800Y-39826000D01*
X133500000Y-111500000D02*
X133500000Y-110500000D01*
X158777757Y-39101000D02*
X158052757Y-39826000D01*
X95500000Y-79000000D02*
X95500000Y-67500000D01*
%TO.N,RAM-A2*%
X236588936Y-104268564D02*
X231794936Y-104268564D01*
X224000000Y-78000000D02*
X210505000Y-91495000D01*
X142005000Y-86239450D02*
X142005000Y-84682057D01*
X156000000Y-46000000D02*
X156361000Y-45639000D01*
X239688000Y-101169500D02*
X236588936Y-104268564D01*
X131896000Y-93575105D02*
X131484263Y-93986842D01*
X162251491Y-45639000D02*
X231183250Y-45639000D01*
X239688000Y-88019743D02*
X239688000Y-101169500D01*
X142908000Y-87438300D02*
X142906000Y-87436300D01*
X131896000Y-93380000D02*
X131896000Y-93575105D01*
X142005000Y-84682057D02*
X139874943Y-82552000D01*
X241787000Y-85920743D02*
X239688000Y-88019743D01*
X162250491Y-45640000D02*
X162251491Y-45639000D01*
X121975356Y-75598000D02*
X137202000Y-75598000D01*
X146830500Y-91495000D02*
X142908000Y-87572500D01*
X131523500Y-84371450D02*
X131523500Y-93007500D01*
X133342950Y-82552000D02*
X131523500Y-84371450D01*
X139874943Y-82552000D02*
X133342950Y-82552000D01*
X142908000Y-87572500D02*
X142908000Y-87438300D01*
X142906000Y-87436300D02*
X142906000Y-87140450D01*
X241787000Y-56242750D02*
X241787000Y-85920743D01*
X156361000Y-45639000D02*
X157255157Y-45639000D01*
X157255157Y-45639000D02*
X157256157Y-45640000D01*
X131523500Y-93007500D02*
X131896000Y-93380000D01*
X142906000Y-87140450D02*
X142005000Y-86239450D01*
X137202000Y-75598000D02*
X149300000Y-63500000D01*
X210505000Y-91495000D02*
X146830500Y-91495000D01*
X157256157Y-45640000D02*
X162250491Y-45640000D01*
X224000000Y-77260000D02*
X224000000Y-78000000D01*
X231183250Y-45639000D02*
X241787000Y-56242750D01*
%TO.N,RAM-A4*%
X157587357Y-44837000D02*
X154163000Y-44837000D01*
X122390399Y-74596000D02*
X122590399Y-74796000D01*
X161918291Y-44838000D02*
X157588357Y-44838000D01*
X242589000Y-55910550D02*
X231515450Y-44837000D01*
X214260050Y-92297000D02*
X224000000Y-82557050D01*
X132698000Y-93047800D02*
X132325500Y-92675300D01*
X132897935Y-95220635D02*
X132698000Y-95020700D01*
X224000000Y-82557050D02*
X224000000Y-82340000D01*
X232487839Y-105274134D02*
X232713705Y-105500000D01*
X231515450Y-44837000D02*
X161919291Y-44837000D01*
X132325500Y-84703650D02*
X133675150Y-83354000D01*
X154163000Y-44837000D02*
X154000000Y-45000000D01*
X132897935Y-95502065D02*
X132897935Y-95220635D01*
X133675150Y-83354000D02*
X139542743Y-83354000D01*
X232713705Y-105500000D02*
X236491700Y-105500000D01*
X146498300Y-92297000D02*
X214260050Y-92297000D01*
X236491700Y-105500000D02*
X240490000Y-101501700D01*
X142104000Y-87472650D02*
X142104000Y-87768500D01*
X119838215Y-76318098D02*
X121560313Y-74596000D01*
X157588357Y-44838000D02*
X157587357Y-44837000D01*
X242589000Y-86252943D02*
X242589000Y-55910550D01*
X119838215Y-76556785D02*
X119838215Y-76318098D01*
X142104000Y-87768500D02*
X142106000Y-87770500D01*
X132924000Y-74796000D02*
X144220000Y-63500000D01*
X240490000Y-101501700D02*
X240490000Y-88351943D01*
X240490000Y-88351943D02*
X242589000Y-86252943D01*
X122590399Y-74796000D02*
X132924000Y-74796000D01*
X121560313Y-74596000D02*
X122390399Y-74596000D01*
X161919291Y-44837000D02*
X161918291Y-44838000D01*
X139542743Y-83354000D02*
X141203000Y-85014257D01*
X132325500Y-92675300D02*
X132325500Y-84703650D01*
X119838215Y-76556785D02*
X119880430Y-76599000D01*
X142106000Y-87770500D02*
X142106000Y-87904700D01*
X154000000Y-45000000D02*
X154000000Y-45036000D01*
X141203000Y-86571650D02*
X142104000Y-87472650D01*
X142106000Y-87904700D02*
X146498300Y-92297000D01*
X141203000Y-85014257D02*
X141203000Y-86571650D01*
X132698000Y-95020700D02*
X132698000Y-93047800D01*
%TO.N,RAM-A8*%
X139140000Y-43360000D02*
X139267000Y-43233000D01*
X242094000Y-89016343D02*
X242094000Y-106416498D01*
X137926757Y-47046757D02*
X139140000Y-48260000D01*
X128632325Y-47695712D02*
X129281280Y-47046757D01*
X144581143Y-43233999D02*
X144582142Y-43233000D01*
X148000000Y-107027100D02*
X139700000Y-98727100D01*
X144582142Y-43233000D02*
X158251757Y-43233000D01*
X143418857Y-43233999D02*
X144581143Y-43233999D01*
X161253891Y-43234000D02*
X161254891Y-43233000D01*
X139500000Y-91000000D02*
X139238000Y-90738000D01*
X244193000Y-86917343D02*
X242094000Y-89016343D01*
X242094000Y-106416498D02*
X234474498Y-114036000D01*
X158251757Y-43233000D02*
X158252757Y-43234000D01*
X234474498Y-114036000D02*
X232968600Y-114036000D01*
X161254891Y-43233000D02*
X232179850Y-43233000D01*
X129281280Y-47046757D02*
X137926757Y-47046757D01*
X139140000Y-48260000D02*
X139140000Y-43360000D01*
X139267000Y-43233000D02*
X143417858Y-43233000D01*
X148000000Y-109000000D02*
X148000000Y-107027100D01*
X244193000Y-55246150D02*
X244193000Y-86917343D01*
X139238000Y-90738000D02*
X134629500Y-90738000D01*
X143417858Y-43233000D02*
X143418857Y-43233999D01*
X139700000Y-91200000D02*
X139500000Y-91000000D01*
X158252757Y-43234000D02*
X161253891Y-43234000D01*
X232179850Y-43233000D02*
X244193000Y-55246150D01*
X139700000Y-98727100D02*
X139700000Y-91200000D01*
%TO.N,Z80-MREQ*%
X133190500Y-117577000D02*
X119389500Y-131378000D01*
X158760050Y-117577000D02*
X133190500Y-117577000D01*
X171700000Y-98000000D02*
X168320000Y-101380000D01*
X82380000Y-113760000D02*
X88401000Y-119781000D01*
X119000000Y-142599000D02*
X121000000Y-140599000D01*
X88401000Y-141401000D02*
X89599000Y-142599000D01*
X121000000Y-132988500D02*
X119389500Y-131378000D01*
X168320000Y-101380000D02*
X167219000Y-102481000D01*
X186352900Y-98000000D02*
X171700000Y-98000000D01*
X167219000Y-109118050D02*
X158760050Y-117577000D01*
X186753900Y-98401000D02*
X186352900Y-98000000D01*
X167219000Y-102481000D02*
X167219000Y-109118050D01*
X231620000Y-92500000D02*
X225719000Y-98401000D01*
X88401000Y-119781000D02*
X88401000Y-141401000D01*
X225719000Y-98401000D02*
X186753900Y-98401000D01*
X121000000Y-140599000D02*
X121000000Y-132988500D01*
X89599000Y-142599000D02*
X119000000Y-142599000D01*
%TO.N,Z80-RD*%
X89432900Y-143000000D02*
X125000000Y-143000000D01*
X82380000Y-116300000D02*
X88000000Y-121920000D01*
X125000000Y-143000000D02*
X134082000Y-133918000D01*
X134082000Y-133918000D02*
X134629500Y-133918000D01*
X88000000Y-121920000D02*
X88000000Y-141567100D01*
X88000000Y-141567100D02*
X89432900Y-143000000D01*
%TO.N,Z80-WAIT*%
X132951057Y-137383893D02*
X132951057Y-137416107D01*
X133534950Y-138000000D02*
X142875450Y-138000000D01*
X142976450Y-138101000D02*
X143888550Y-138101000D01*
X153136450Y-138101000D02*
X154048550Y-138101000D01*
X154149550Y-138000000D02*
X235932900Y-138000000D01*
X247750000Y-126182900D02*
X247750000Y-119500000D01*
X235932900Y-138000000D02*
X247750000Y-126182900D01*
X154048550Y-138101000D02*
X154149550Y-138000000D01*
X132951057Y-137416107D02*
X133534950Y-138000000D01*
X143989550Y-138000000D02*
X153035450Y-138000000D01*
X142875450Y-138000000D02*
X142976450Y-138101000D01*
X153035450Y-138000000D02*
X153136450Y-138101000D01*
X143888550Y-138101000D02*
X143989550Y-138000000D01*
%TO.N,Z80-WR*%
X132522000Y-131378000D02*
X134629500Y-131378000D01*
X131900000Y-132000000D02*
X132522000Y-131378000D01*
X89266800Y-143401000D02*
X125599000Y-143401000D01*
X87599000Y-129139000D02*
X87599000Y-141733200D01*
X82380000Y-123920000D02*
X87599000Y-129139000D01*
X125599000Y-143401000D02*
X131000000Y-138000000D01*
X87599000Y-141733200D02*
X89266800Y-143401000D01*
%TO.N,Z80-RESET*%
X132350057Y-137134950D02*
X132350057Y-137632836D01*
X132351057Y-137948057D02*
X132403000Y-138000000D01*
X236099000Y-138401000D02*
X248151000Y-126349000D01*
X132351057Y-136765787D02*
X132351057Y-137133950D01*
X142810350Y-138502000D02*
X144054650Y-138502000D01*
X154214650Y-138502000D02*
X154315650Y-138401000D01*
X249166050Y-112666050D02*
X247750000Y-111250000D01*
X132350057Y-137632836D02*
X132351057Y-137633836D01*
X144054650Y-138502000D02*
X144155650Y-138401000D01*
X142709350Y-138401000D02*
X142810350Y-138502000D01*
X249166050Y-121833950D02*
X249166050Y-112666050D01*
X132403000Y-138000000D02*
X132967850Y-138000000D01*
X132351057Y-137633836D02*
X132351057Y-137948057D01*
X248151000Y-122849000D02*
X249166050Y-121833950D01*
X132351057Y-137133950D02*
X132350057Y-137134950D01*
X154315650Y-138401000D02*
X236099000Y-138401000D01*
X144155650Y-138401000D02*
X152869350Y-138401000D01*
X152869350Y-138401000D02*
X152970350Y-138502000D01*
X132967850Y-138000000D02*
X133368850Y-138401000D01*
X133368850Y-138401000D02*
X142709350Y-138401000D01*
X152970350Y-138502000D02*
X154214650Y-138502000D01*
X248151000Y-126349000D02*
X248151000Y-122849000D01*
%TO.N,RP2040-DVDD*%
X185054000Y-50227916D02*
X185054000Y-50272084D01*
X189000000Y-50000000D02*
X185281916Y-50000000D01*
X185281916Y-50000000D02*
X185054000Y-50227916D01*
%TO.N,Net-(LedMatrixAddress1-Q7)*%
X223580000Y-98000000D02*
X186920000Y-98000000D01*
X231620000Y-89960000D02*
X223580000Y-98000000D01*
X186920000Y-98000000D02*
X184500000Y-95580000D01*
%TO.N,Net-(LedMatrixAddress1-Q4)*%
X225101000Y-88859000D02*
X225101000Y-92956050D01*
X221296050Y-96761000D02*
X200601000Y-96761000D01*
X225101000Y-92956050D02*
X221296050Y-96761000D01*
X231620000Y-82340000D02*
X225101000Y-88859000D01*
X200601000Y-96761000D02*
X199500000Y-95660000D01*
%TO.N,Net-(LedMatrixAddress1-Q6)*%
X191483000Y-97563000D02*
X189500000Y-95580000D01*
X221628250Y-97563000D02*
X191483000Y-97563000D01*
X231620000Y-87420000D02*
X231620000Y-87571250D01*
X231620000Y-87571250D02*
X221628250Y-97563000D01*
%TO.N,Net-(LedMatrixAddress1-Q5)*%
X196082000Y-97162000D02*
X194500000Y-95580000D01*
X225502000Y-93122150D02*
X221462150Y-97162000D01*
X225502000Y-90998000D02*
X225502000Y-93122150D01*
X221462150Y-97162000D02*
X196082000Y-97162000D01*
X231620000Y-84880000D02*
X225502000Y-90998000D01*
%TO.N,Net-(D59-K)*%
X216438000Y-130438000D02*
X225219500Y-130438000D01*
X211000000Y-125000000D02*
X216438000Y-130438000D01*
X225219500Y-130438000D02*
X226320500Y-131539000D01*
%TO.N,Net-(D60-K)*%
X220636000Y-129636000D02*
X229497500Y-129636000D01*
X229497500Y-129636000D02*
X231400500Y-131539000D01*
X216000000Y-125000000D02*
X220636000Y-129636000D01*
%TO.N,Net-(D63-K)*%
X227358500Y-130037000D02*
X228860500Y-131539000D01*
X213500000Y-125000000D02*
X218537000Y-130037000D01*
X218537000Y-130037000D02*
X227358500Y-130037000D01*
%TO.N,Net-(D64-K)*%
X218500000Y-125000000D02*
X222735000Y-129235000D01*
X231636500Y-129235000D02*
X233940500Y-131539000D01*
X222735000Y-129235000D02*
X231636500Y-129235000D01*
%TO.N,RAM2-CS*%
X134000000Y-80000000D02*
X147841950Y-66158050D01*
X153841950Y-66158050D02*
X155819000Y-64181000D01*
X116884372Y-78129601D02*
X118754771Y-80000000D01*
X116884372Y-77800000D02*
X116884372Y-78129601D01*
X147841950Y-66158050D02*
X153841950Y-66158050D01*
X155819000Y-64181000D02*
X155819000Y-59819000D01*
X118754771Y-80000000D02*
X134000000Y-80000000D01*
X155819000Y-59819000D02*
X151840000Y-55840000D01*
%TO.N,RP2040-RWRAM-GPIO5-DIR*%
X184742720Y-70257290D02*
X187000010Y-68000000D01*
X184742710Y-70257290D02*
X184742720Y-70257290D01*
%TO.N,FLASH-DO-RP2040-QSPI_SD1*%
X219000000Y-58000000D02*
X223270000Y-58000000D01*
X189390500Y-52935000D02*
X192891500Y-56436000D01*
X182600000Y-53043762D02*
X182708762Y-52935000D01*
X182708762Y-52935000D02*
X189390500Y-52935000D01*
X223270000Y-58000000D02*
X224000000Y-58730000D01*
%TO.N,FLASH-CS-RP2040-QSPI_SS*%
X182000000Y-52500000D02*
X182064000Y-52436000D01*
X222540000Y-56000000D02*
X224000000Y-57460000D01*
X182064000Y-52436000D02*
X184891500Y-52436000D01*
X190436000Y-50936000D02*
X190500000Y-51000000D01*
X217000000Y-56000000D02*
X222540000Y-56000000D01*
X184891500Y-52436000D02*
X186391500Y-50936000D01*
X186391500Y-50936000D02*
X190436000Y-50936000D01*
%TO.N,USB-C-CC2*%
X65026000Y-42811000D02*
X65225000Y-43010000D01*
X64000000Y-41924000D02*
X64435000Y-42359000D01*
X65026000Y-42740346D02*
X65026000Y-42811000D01*
X64644654Y-42359000D02*
X65026000Y-42740346D01*
X64435000Y-42359000D02*
X64644654Y-42359000D01*
%TO.N,Net-(USB_C1-SHIELD)*%
X62175000Y-43380000D02*
X61620000Y-43380000D01*
X70825000Y-40000000D02*
X62175000Y-40000000D01*
X70825000Y-43380000D02*
X70825000Y-40000000D01*
X61620000Y-43380000D02*
X61374000Y-43626000D01*
X62175000Y-40000000D02*
X62175000Y-43380000D01*
X61374000Y-43626000D02*
X58391500Y-43626000D01*
%TO.N,RP2040-Z80BOOTMODE*%
X178500000Y-53240000D02*
X179740000Y-52000000D01*
X251000000Y-60000000D02*
X251000000Y-91000000D01*
X251000000Y-91000000D02*
X254250000Y-94250000D01*
X178500000Y-54999000D02*
X178500000Y-53240000D01*
%TO.N,RP2040-RPBOOTMODE*%
X251000000Y-91567100D02*
X251000000Y-99550000D01*
X250400000Y-59434313D02*
X250400000Y-60400000D01*
X250599000Y-91166100D02*
X251000000Y-91567100D01*
X250400000Y-60400000D02*
X250599000Y-60599000D01*
X251000000Y-99550000D02*
X254250000Y-102800000D01*
X250599000Y-60599000D02*
X250599000Y-91166100D01*
%TO.N,RP2040_XIN*%
X184250000Y-63859743D02*
X182510743Y-65599000D01*
X182510743Y-65599000D02*
X175979000Y-65599000D01*
X175979000Y-65599000D02*
X173500000Y-63120000D01*
%TO.N,RP2040_XOUT*%
X175500000Y-66000000D02*
X173500000Y-68000000D01*
X185000000Y-64500000D02*
X183500000Y-66000000D01*
X183500000Y-66000000D02*
X175500000Y-66000000D01*
%TO.N,CLOCK_FLASH*%
X184697758Y-53702242D02*
X184659714Y-53702242D01*
X189171283Y-53565726D02*
X184834274Y-53565726D01*
X184493472Y-53536000D02*
X184350000Y-53536000D01*
X220000000Y-59000000D02*
X221000000Y-60000000D01*
X221000000Y-60000000D02*
X231175000Y-60000000D01*
X193109557Y-57496000D02*
X195000000Y-57496000D01*
X184834274Y-53565726D02*
X184697758Y-53702242D01*
X184659714Y-53702242D02*
X184493472Y-53536000D01*
X193105557Y-57500000D02*
X193109557Y-57496000D01*
X193105557Y-57500000D02*
X189171283Y-53565726D01*
%TO.N,USB-RP2040-DP*%
X66925000Y-45775050D02*
X66925000Y-44360000D01*
X168371775Y-55599000D02*
X180901000Y-55599000D01*
X182000000Y-54500000D02*
X186082523Y-54500000D01*
X144581143Y-40427999D02*
X143418857Y-40427999D01*
X162227397Y-40177060D02*
X161552337Y-39502000D01*
X143418857Y-40427999D02*
X142618856Y-41228000D01*
X144980144Y-40827000D02*
X144581143Y-40427999D01*
X99167800Y-43198000D02*
X96766800Y-45599000D01*
X87333950Y-49184000D02*
X70333950Y-49184000D01*
X186082523Y-54500000D02*
X186415797Y-54166726D01*
X161552337Y-39502000D02*
X158943857Y-39502000D01*
X157605900Y-40827000D02*
X144980144Y-40827000D01*
X158943857Y-39502000D02*
X158218857Y-40227000D01*
X66075000Y-43439346D02*
X66925000Y-44289346D01*
X167000000Y-54227225D02*
X168371775Y-55599000D01*
X162227397Y-40227000D02*
X162227397Y-40177060D01*
X142618856Y-41228000D02*
X134948257Y-41228000D01*
X158218857Y-40227000D02*
X158205900Y-40227000D01*
X134948257Y-41228000D02*
X132978257Y-43198000D01*
X186415797Y-54166726D02*
X186655000Y-54166726D01*
X180901000Y-55599000D02*
X182000000Y-54500000D01*
X90918950Y-45599000D02*
X87333950Y-49184000D01*
X66075000Y-43010000D02*
X66075000Y-43439346D01*
X132978257Y-43198000D02*
X99167800Y-43198000D01*
X70333950Y-49184000D02*
X66925000Y-45775050D01*
X158205900Y-40227000D02*
X157605900Y-40827000D01*
X66925000Y-44289346D02*
X66925000Y-44360000D01*
X167000000Y-47184000D02*
X167000000Y-54227225D01*
X96766800Y-45599000D02*
X90918950Y-45599000D01*
%TO.N,RP2040-SH-GPIO3-SER*%
X185469500Y-122830500D02*
X184300000Y-124000000D01*
X185469500Y-99000000D02*
X185469500Y-122830500D01*
%TO.N,USB-RP2040-DM*%
X186670000Y-56000000D02*
X186854000Y-56184000D01*
X157772000Y-41228000D02*
X144814044Y-41228000D01*
X66075000Y-45492150D02*
X66075000Y-44360000D01*
X161103394Y-39903000D02*
X159109957Y-39903000D01*
X87500050Y-49585000D02*
X70167850Y-49585000D01*
X158372000Y-40628000D02*
X157772000Y-41228000D01*
X166000000Y-47041000D02*
X166007057Y-47041000D01*
X135114357Y-41629000D02*
X133144357Y-43599000D01*
X143584957Y-40828999D02*
X142784956Y-41629000D01*
X158384957Y-40628000D02*
X158372000Y-40628000D01*
X161427394Y-40227000D02*
X161103394Y-39903000D01*
X142784956Y-41629000D02*
X135114357Y-41629000D01*
X166007057Y-47041000D02*
X166599000Y-47632943D01*
X168205675Y-56000000D02*
X186670000Y-56000000D01*
X144814044Y-41228000D02*
X144415043Y-40828999D01*
X96932900Y-46000000D02*
X91085050Y-46000000D01*
X133144357Y-43599000D02*
X99333900Y-43599000D01*
X70167850Y-49585000D02*
X66075000Y-45492150D01*
X166599000Y-54393325D02*
X168205675Y-56000000D01*
X99333900Y-43599000D02*
X96932900Y-46000000D01*
X91085050Y-46000000D02*
X87500050Y-49585000D01*
X166599000Y-47632943D02*
X166599000Y-54393325D01*
X144415043Y-40828999D02*
X143584957Y-40828999D01*
X159109957Y-39903000D02*
X158384957Y-40628000D01*
%TO.N,FLASH-HOLD-RESRT-RP2040-QSPI_SD3*%
X193873457Y-58835000D02*
X191437457Y-56399000D01*
X191437457Y-56399000D02*
X190351057Y-56399000D01*
X190351057Y-56399000D02*
X189965057Y-56785000D01*
X193873457Y-58835000D02*
X193873457Y-58873457D01*
X185039000Y-56785000D02*
X184854000Y-56600000D01*
X189965057Y-56785000D02*
X185039000Y-56785000D01*
X193873457Y-58873457D02*
X194000000Y-59000000D01*
%TO.N,RP2040-SH-GPIO4-RCLK*%
X188290900Y-122910900D02*
X188290900Y-113425000D01*
X189380000Y-124000000D02*
X188290900Y-122910900D01*
X189390500Y-101149500D02*
X188289500Y-102250500D01*
X188290900Y-113425000D02*
X189391900Y-112324000D01*
X188289500Y-102250500D02*
X188289500Y-111221600D01*
X188289500Y-111221600D02*
X189391900Y-112324000D01*
%TO.N,RP2040-SWD-PIN*%
X187500000Y-66000000D02*
X187500000Y-64400000D01*
X186500000Y-67000000D02*
X187500000Y-66000000D01*
%TO.N,RP2040-RWRAM-GPIO8-PL*%
X239860000Y-132640000D02*
X240500000Y-132000000D01*
X222341500Y-132640000D02*
X239860000Y-132640000D01*
X240500000Y-114951473D02*
X239600000Y-114051473D01*
X221240500Y-131539000D02*
X222341500Y-132640000D01*
X240500000Y-132000000D02*
X240500000Y-114951473D01*
%TO.N,Net-(ShiftRegisterOut1-SER)*%
X200318600Y-109730500D02*
X200318600Y-107230500D01*
X197010500Y-103922400D02*
X197010500Y-101149500D01*
X200318600Y-107230500D02*
X197010500Y-103922400D01*
%TO.N,RP2040-SWCLK-PIN*%
X186727044Y-64431260D02*
X186693784Y-64398000D01*
X186727044Y-65772956D02*
X186727044Y-64431260D01*
%TO.N,CLOCK_Z80*%
X119389500Y-98358000D02*
X119358000Y-98358000D01*
X103000000Y-89500000D02*
X101500000Y-91000000D01*
X110500000Y-89500000D02*
X103000000Y-89500000D01*
X101500000Y-91000000D02*
X101500000Y-93797500D01*
X119358000Y-98358000D02*
X110500000Y-89500000D01*
%TO.N,CLOCK_BUS*%
X191920000Y-124000000D02*
X201420000Y-133500000D01*
X190829500Y-111221600D02*
X190829500Y-102250500D01*
X190500000Y-113755900D02*
X191931900Y-112324000D01*
X174500000Y-121800000D02*
X174500000Y-122000000D01*
X190829500Y-102250500D02*
X191930500Y-101149500D01*
X191920000Y-124000000D02*
X190500000Y-122580000D01*
X190500000Y-122580000D02*
X190500000Y-113755900D01*
X191931900Y-112324000D02*
X190829500Y-111221600D01*
X201420000Y-133500000D02*
X223500000Y-133500000D01*
X177601000Y-125101000D02*
X190819000Y-125101000D01*
X174500000Y-122000000D02*
X177601000Y-125101000D01*
X190819000Y-125101000D02*
X191920000Y-124000000D01*
%TO.N,Z80_MANUAL_CLOCK*%
X103500000Y-94000000D02*
X103500000Y-93797500D01*
X101420000Y-122805000D02*
X97500000Y-118885000D01*
X99901000Y-97599000D02*
X103500000Y-94000000D01*
X97500000Y-113951438D02*
X99901000Y-111550438D01*
X99901000Y-111550438D02*
X99901000Y-97599000D01*
X97500000Y-118885000D02*
X97500000Y-113951438D01*
%TO.N,Net-(SW5-C)*%
X99500000Y-111384338D02*
X96000000Y-114884338D01*
X96000000Y-114884338D02*
X96000000Y-118000000D01*
X99500000Y-93797500D02*
X99500000Y-111384338D01*
%TO.N,Net-(LedMatrixWrite1-Q2)*%
X52498000Y-123002150D02*
X52498000Y-118668740D01*
X67620050Y-117717000D02*
X73000000Y-112337050D01*
X61620000Y-122380000D02*
X60118000Y-123882000D01*
X73000000Y-112337050D02*
X73000000Y-108000000D01*
X60118000Y-123882000D02*
X53377850Y-123882000D01*
X53377850Y-123882000D02*
X52498000Y-123002150D01*
X53449740Y-117717000D02*
X67620050Y-117717000D01*
X52498000Y-118668740D02*
X53449740Y-117717000D01*
%TO.N,Net-(LedMatrixWrite1-Q5)*%
X56000000Y-116514000D02*
X57979000Y-114535000D01*
X51295000Y-118170440D02*
X52951440Y-116514000D01*
X57979000Y-108021000D02*
X58000000Y-108000000D01*
X52879550Y-125085000D02*
X51295000Y-123500450D01*
X51295000Y-123500450D02*
X51295000Y-118170440D01*
X66535000Y-125085000D02*
X52879550Y-125085000D01*
X57979000Y-114535000D02*
X57979000Y-108021000D01*
X69240000Y-122380000D02*
X66535000Y-125085000D01*
X52951440Y-116514000D02*
X56000000Y-116514000D01*
%TO.N,Net-(LedMatrixWrite1-Q6)*%
X52449170Y-116449170D02*
X52449170Y-108550830D01*
X52713450Y-125486000D02*
X50894000Y-123666550D01*
X50894000Y-118004340D02*
X52449170Y-116449170D01*
X71780000Y-122380000D02*
X68674000Y-125486000D01*
X50894000Y-123666550D02*
X50894000Y-118004340D01*
X52449170Y-108550830D02*
X53000000Y-108000000D01*
X68674000Y-125486000D02*
X52713450Y-125486000D01*
%TO.N,Net-(LedMatrixWrite1-Q1)*%
X52899000Y-118834840D02*
X53615840Y-118118000D01*
X75000000Y-118118000D02*
X78000000Y-115118000D01*
X52899000Y-122836050D02*
X52899000Y-118834840D01*
X59080000Y-122380000D02*
X57979000Y-123481000D01*
X53543950Y-123481000D02*
X52899000Y-122836050D01*
X78000000Y-115118000D02*
X78000000Y-108000000D01*
X53615840Y-118118000D02*
X75000000Y-118118000D01*
X57979000Y-123481000D02*
X53543950Y-123481000D01*
%TO.N,Net-(LedMatrixWrite1-Q7)*%
X50493000Y-117838240D02*
X52000000Y-116331240D01*
X52547350Y-125887000D02*
X50493000Y-123832650D01*
X70813000Y-125887000D02*
X52547350Y-125887000D01*
X50493000Y-123832650D02*
X50493000Y-117838240D01*
X52000000Y-116331240D02*
X52000000Y-112000000D01*
X52000000Y-112000000D02*
X48000000Y-108000000D01*
X74320000Y-122380000D02*
X70813000Y-125887000D01*
%TO.N,Net-(LedMatrixWrite1-Q0)*%
X57641000Y-119501950D02*
X58623950Y-118519000D01*
X80000000Y-116038000D02*
X80000000Y-111000000D01*
X77519000Y-118519000D02*
X80000000Y-116038000D01*
X58623950Y-118519000D02*
X77519000Y-118519000D01*
X80000000Y-111000000D02*
X83000000Y-108000000D01*
X57641000Y-121279000D02*
X57641000Y-119501950D01*
X56540000Y-122380000D02*
X57641000Y-121279000D01*
%TO.N,Net-(LedMatrixWrite1-Q3)*%
X53283640Y-117316000D02*
X63279050Y-117316000D01*
X52097000Y-123168250D02*
X52097000Y-118502640D01*
X68000000Y-112595050D02*
X68000000Y-108000000D01*
X64160000Y-122380000D02*
X62257000Y-124283000D01*
X52097000Y-118502640D02*
X53283640Y-117316000D01*
X53211750Y-124283000D02*
X52097000Y-123168250D01*
X62257000Y-124283000D02*
X53211750Y-124283000D01*
X63279050Y-117316000D02*
X68000000Y-112595050D01*
%TO.N,Net-(LedMatrixWrite1-Q4)*%
X58262050Y-116915000D02*
X63000000Y-112177050D01*
X53045650Y-124684000D02*
X51696000Y-123334350D01*
X66700000Y-122380000D02*
X64396000Y-124684000D01*
X53117540Y-116915000D02*
X58262050Y-116915000D01*
X51696000Y-123334350D02*
X51696000Y-118336540D01*
X63000000Y-112177050D02*
X63000000Y-108000000D01*
X51696000Y-118336540D02*
X53117540Y-116915000D01*
X64396000Y-124684000D02*
X53045650Y-124684000D01*
%TD*%
M02*
