M48
; DRILL file {KiCad 9.0.6} date 2025-12-23T15:44:09+0100
; FORMAT={-:-/ absolute / metric / decimal}
; #@! TF.CreationDate,2025-12-23T15:44:09+01:00
; #@! TF.GenerationSoftware,Kicad,Pcbnew,9.0.6
; #@! TF.FileFunction,Plated,1,4,PTH
FMAT,2
METRIC
; #@! TA.AperFunction,Plated,PTH,ViaDrill
T1C0.300
; #@! TA.AperFunction,Plated,PTH,ComponentDrill
T2C0.400
; #@! TA.AperFunction,Plated,PTH,ComponentDrill
T3C0.500
; #@! TA.AperFunction,Plated,PTH,ComponentDrill
T4C0.600
; #@! TA.AperFunction,Plated,PTH,ComponentDrill
T5C0.800
; #@! TA.AperFunction,Plated,PTH,ComponentDrill
T6C1.100
; #@! TA.AperFunction,Plated,PTH,ComponentDrill
T7C1.500
%
G90
G05
T1
X45.598Y-128.332
X46.198Y-127.58
X46.334Y-128.782
X47.334Y-129.183
X48.334Y-129.584
X49.334Y-129.999
X50.334Y-130.184
X51.334Y-131.684
X64.0Y-41.924
X74.727Y-39.586
X77.091Y-42.786
X77.091Y-45.086
X77.091Y-47.386
X81.6Y-105.184
X83.391Y-45.086
X83.834Y-86.184
X86.0Y-94.0
X89.0Y-43.0
X90.0Y-102.5
X90.334Y-82.4
X91.1Y-136.5
X91.7Y-102.5
X94.334Y-61.843
X95.192Y-98.5
X97.334Y-61.843
X98.834Y-61.843
X106.5Y-45.9
X117.807Y-104.877
X119.695Y-77.544
X119.837Y-79.384
X119.838Y-76.557
X119.924Y-78.576
X121.236Y-75.999
X122.694Y-105.0
X123.256Y-75.598
X131.334Y-139.201
X132.334Y-139.201
X133.093Y-47.1
X134.932Y-47.0
X136.281Y-46.541
X147.0Y-45.436
X147.5Y-46.436
X148.0Y-47.436
X148.5Y-48.436
X149.0Y-49.5
X149.0Y-51.936
X149.48Y-50.456
X150.5Y-44.0
X151.0Y-45.0
X151.478Y-53.022
X151.5Y-46.0
X152.112Y-46.888
X152.5Y-48.0
X153.0Y-49.0
X153.5Y-50.0
X154.0Y-51.0
X160.976Y-41.43
X161.825Y-41.43
X161.834Y-47.184
X162.834Y-47.184
X165.909Y-122.5
X165.909Y-129.783
X168.1Y-131.009
X182.0Y-52.5
X182.6Y-53.044
X182.948Y-47.948
X184.25Y-63.86
X184.291Y-51.436
X184.35Y-53.536
X184.743Y-70.257
X184.854Y-56.6
X185.0Y-64.5
X185.054Y-50.272
X185.454Y-58.736
X186.5Y-67.0
X186.651Y-77.349
X186.655Y-54.167
X186.694Y-64.398
X186.727Y-65.773
X186.854Y-56.184
X187.0Y-68.0
X187.454Y-63.26
X187.5Y-64.4
X189.0Y-50.0
X190.0Y-48.936
X190.191Y-47.184
X190.5Y-51.0
X192.891Y-56.436
X193.0Y-94.0
X195.25Y-117.75
X196.5Y-55.0
X198.0Y-127.5
X199.0Y-77.0
X201.5Y-82.038
X216.216Y-59.436
X217.982Y-56.768
X219.5Y-120.0
X221.25Y-58.25
X221.391Y-82.0
X221.391Y-106.0
X221.75Y-57.0
X223.0Y-75.503
X223.0Y-99.453
X226.0Y-75.453
X226.0Y-76.5
X226.0Y-99.453
X228.549Y-76.778
X228.918Y-77.488
X229.0Y-102.703
X229.29Y-78.81
X229.391Y-100.103
X229.499Y-78.038
X229.5Y-103.436
X229.891Y-101.436
X229.908Y-80.026
X230.192Y-79.044
X230.391Y-81.436
X230.391Y-100.436
X230.457Y-102.002
X230.518Y-80.543
X230.891Y-103.936
X230.957Y-104.779
X237.999Y-103.399
X239.6Y-103.399
X245.219Y-130.5
X251.0Y-124.564
X253.736Y-125.264
T2
X63.525Y-43.01
X63.525Y-44.36
X64.375Y-43.01
X64.375Y-44.36
X65.225Y-43.01
X65.225Y-44.36
X66.075Y-43.01
X66.075Y-44.36
X66.925Y-43.01
X66.925Y-44.36
X67.775Y-43.01
X67.775Y-44.36
X68.625Y-43.01
X68.625Y-44.36
X69.475Y-43.01
X69.475Y-44.36
T3
X254.0Y-62.0
X254.0Y-63.0
T4
X74.391Y-54.936
X75.891Y-54.936
X80.391Y-54.936
X81.891Y-54.936
X86.0Y-125.5
X87.5Y-125.5
X88.777Y-108.0
X90.277Y-108.0
X167.0Y-66.5
X168.5Y-66.5
X173.5Y-77.5
X173.5Y-79.0
X174.5Y-117.5
X176.0Y-117.5
X178.834Y-40.684
X178.834Y-42.184
X183.684Y-40.684
X183.684Y-42.184
X188.534Y-40.684
X188.534Y-42.184
X193.384Y-40.684
X193.384Y-42.184
X198.25Y-40.75
X198.25Y-42.25
X223.391Y-48.936
X223.391Y-50.436
T5
X42.432Y-71.5
X42.432Y-80.0
X42.432Y-88.5
X42.432Y-97.0
X42.432Y-105.5
X42.432Y-114.0
X42.432Y-122.5
X42.432Y-131.0
X46.741Y-43.586
X46.741Y-53.746
X52.593Y-71.5
X52.593Y-80.0
X52.593Y-88.5
X52.593Y-97.0
X52.593Y-105.5
X52.593Y-114.0
X52.593Y-122.5
X52.593Y-131.0
X52.741Y-43.586
X52.741Y-53.746
X58.392Y-43.626
X58.392Y-53.786
X69.432Y-110.5
X69.593Y-68.0
X69.593Y-76.5
X69.593Y-85.0
X69.593Y-93.5
X69.593Y-102.0
X69.593Y-119.0
X69.593Y-127.5
X71.34Y-135.0
X71.42Y-140.0
X79.593Y-110.5
X79.752Y-68.0
X79.752Y-76.5
X79.752Y-85.0
X79.752Y-93.5
X79.752Y-102.0
X79.752Y-119.0
X79.752Y-127.5
X81.5Y-135.0
X81.58Y-140.0
X93.233Y-48.26
X93.233Y-63.5
X95.772Y-48.26
X95.772Y-63.5
X98.312Y-48.26
X98.312Y-63.5
X98.88Y-115.185
X98.88Y-122.805
X100.0Y-109.0
X100.852Y-48.26
X100.852Y-63.5
X100.92Y-126.0
X100.92Y-129.5
X100.92Y-133.0
X100.92Y-140.0
X101.0Y-136.5
X101.42Y-115.185
X101.42Y-122.805
X102.0Y-109.0
X102.093Y-83.5
X102.093Y-87.0
X102.093Y-90.5
X102.093Y-94.0
X102.093Y-98.5
X103.392Y-48.26
X103.392Y-63.5
X103.96Y-115.185
X103.96Y-122.805
X104.0Y-109.0
X105.932Y-48.26
X105.932Y-63.5
X106.5Y-115.185
X106.5Y-122.805
X108.472Y-48.26
X108.472Y-63.5
X109.04Y-115.185
X109.04Y-122.805
X111.012Y-48.26
X111.012Y-63.5
X111.08Y-126.0
X111.08Y-129.5
X111.08Y-133.0
X111.08Y-140.0
X111.16Y-136.5
X111.58Y-115.185
X111.58Y-122.805
X112.252Y-83.5
X112.252Y-87.0
X112.252Y-90.5
X112.252Y-94.0
X112.252Y-98.5
X113.552Y-48.26
X113.552Y-63.5
X114.12Y-115.185
X114.12Y-122.805
X116.093Y-48.26
X116.093Y-63.5
X118.632Y-48.26
X118.632Y-63.5
X119.389Y-85.658
X119.389Y-88.198
X119.389Y-90.738
X119.389Y-93.278
X119.389Y-95.818
X119.389Y-98.358
X119.389Y-100.898
X119.389Y-103.438
X119.389Y-105.978
X119.389Y-108.518
X119.389Y-111.058
X119.389Y-113.598
X119.389Y-116.138
X119.389Y-118.678
X119.389Y-121.218
X119.389Y-123.758
X119.389Y-126.298
X119.389Y-128.838
X119.389Y-131.378
X119.389Y-133.918
X121.172Y-48.26
X121.172Y-63.5
X123.712Y-48.26
X123.712Y-63.5
X126.252Y-48.26
X126.252Y-63.5
X134.63Y-85.658
X134.63Y-88.198
X134.63Y-90.738
X134.63Y-93.278
X134.63Y-95.818
X134.63Y-98.358
X134.63Y-100.898
X134.63Y-103.438
X134.63Y-105.978
X134.63Y-108.518
X134.63Y-111.058
X134.63Y-113.598
X134.63Y-116.138
X134.63Y-118.678
X134.63Y-121.218
X134.63Y-123.758
X134.63Y-126.298
X134.63Y-128.838
X134.63Y-131.378
X134.63Y-133.918
X141.433Y-75.0
X141.433Y-78.5
X141.433Y-82.0
X141.433Y-85.5
X141.433Y-89.0
X141.433Y-92.5
X141.433Y-96.0
X141.433Y-99.5
X141.433Y-103.0
X141.433Y-106.5
X141.512Y-110.0
X143.35Y-130.283
X143.35Y-133.783
X143.429Y-116.283
X143.429Y-119.783
X143.429Y-123.283
X143.429Y-126.783
X143.433Y-137.5
X143.433Y-141.0
X151.593Y-75.0
X151.593Y-78.5
X151.593Y-82.0
X151.593Y-85.5
X151.593Y-89.0
X151.593Y-92.5
X151.593Y-96.0
X151.593Y-99.5
X151.593Y-103.0
X151.593Y-106.5
X151.672Y-110.0
X153.51Y-130.283
X153.51Y-133.783
X153.589Y-116.283
X153.589Y-119.783
X153.589Y-123.283
X153.589Y-126.783
X153.593Y-137.5
X153.593Y-141.0
X158.311Y-53.936
X158.391Y-59.436
X168.471Y-53.936
X168.552Y-59.436
X173.5Y-66.87
X173.5Y-71.75
X180.132Y-98.724
X180.132Y-106.344
X180.412Y-74.919
X180.412Y-82.539
X180.74Y-123.419
X180.74Y-131.039
X182.672Y-98.724
X182.672Y-106.344
X182.952Y-74.919
X182.952Y-82.539
X183.28Y-123.419
X183.28Y-131.039
X185.212Y-98.724
X185.212Y-106.344
X185.492Y-74.919
X185.492Y-82.539
X185.82Y-123.419
X185.82Y-131.039
X187.752Y-98.724
X187.752Y-106.344
X188.032Y-74.919
X188.032Y-82.539
X188.361Y-123.419
X188.361Y-131.039
X190.292Y-98.724
X190.292Y-106.344
X190.572Y-74.919
X190.572Y-82.539
X190.9Y-123.419
X190.9Y-131.039
X192.832Y-98.724
X192.832Y-106.344
X193.112Y-74.919
X193.112Y-82.539
X193.44Y-123.419
X193.44Y-131.039
X195.372Y-98.724
X195.372Y-106.344
X195.652Y-74.919
X195.652Y-82.539
X195.98Y-123.419
X195.98Y-131.039
X197.912Y-98.724
X197.912Y-106.344
X198.192Y-74.919
X198.192Y-82.539
X198.52Y-123.419
X198.52Y-131.039
X200.0Y-53.0
X210.16Y-53.0
X221.24Y-123.919
X221.24Y-131.539
X223.78Y-123.919
X223.78Y-131.539
X226.32Y-123.919
X226.32Y-131.539
X228.861Y-123.919
X228.861Y-131.539
X231.4Y-123.919
X231.4Y-131.539
X233.94Y-123.919
X233.94Y-131.539
X236.48Y-123.919
X236.48Y-131.539
X239.02Y-123.919
X239.02Y-131.539
T6
X61.0Y-135.5
X61.0Y-140.0
X67.5Y-135.5
X67.5Y-140.0
X245.584Y-94.184
X245.584Y-98.684
X245.584Y-102.434
X245.584Y-106.934
X247.834Y-42.75
X247.834Y-47.25
X247.834Y-51.3
X247.834Y-55.8
X252.084Y-94.184
X252.084Y-98.684
X252.084Y-102.434
X252.084Y-106.934
X254.334Y-42.75
X254.334Y-47.25
X254.334Y-51.3
X254.334Y-55.8
T7
X97.9Y-109.0
X106.1Y-109.0
T4
G00X62.175Y-40.4
M15
G01X62.175Y-39.6
M16
G05
G00X62.175Y-44.13
M15
G01X62.175Y-42.63
M16
G05
G00X70.825Y-40.4
M15
G01X70.825Y-39.6
M16
G05
G00X70.825Y-44.13
M15
G01X70.825Y-42.63
M16
G05
M30
