M48
; DRILL file {KiCad 9.0.6} date 2026-03-04T11:31:04+0100
; FORMAT={-:-/ absolute / metric / decimal}
; #@! TF.CreationDate,2026-03-04T11:31:04+01:00
; #@! TF.GenerationSoftware,Kicad,Pcbnew,9.0.6
; #@! TF.FileFunction,Plated,1,4,PTH
FMAT,2
METRIC
; #@! TA.AperFunction,Plated,PTH,ViaDrill
T1C0.300
; #@! TA.AperFunction,Plated,PTH,ComponentDrill
T2C0.400
; #@! TA.AperFunction,Plated,PTH,ComponentDrill
T3C0.500
; #@! TA.AperFunction,Plated,PTH,ComponentDrill
T4C0.600
; #@! TA.AperFunction,Plated,PTH,ComponentDrill
T5C0.800
; #@! TA.AperFunction,Plated,PTH,ComponentDrill
T6C1.100
; #@! TA.AperFunction,Plated,PTH,ComponentDrill
T7C1.500
%
G90
G05
T1
X41.939Y-127.732
X43.0Y-128.381
X44.0Y-128.782
X45.0Y-129.183
X46.0Y-129.584
X47.0Y-129.999
X48.0Y-67.625
X48.0Y-77.0
X48.0Y-130.4
X49.0Y-131.0
X53.0Y-67.625
X53.0Y-77.0
X58.0Y-67.625
X58.0Y-77.0
X63.0Y-67.625
X63.0Y-77.0
X64.0Y-41.924
X68.0Y-67.625
X68.0Y-77.0
X73.0Y-67.625
X73.0Y-77.0
X74.727Y-39.586
X77.091Y-42.786
X77.091Y-45.086
X77.091Y-47.386
X78.0Y-67.625
X78.0Y-77.0
X83.0Y-67.625
X83.0Y-77.0
X83.391Y-45.086
X89.0Y-43.0
X89.4Y-79.5
X90.0Y-81.0
X91.1Y-136.5
X93.0Y-79.5
X94.334Y-61.843
X95.5Y-79.0
X95.5Y-81.6
X96.0Y-118.0
X97.0Y-67.0
X97.334Y-61.843
X98.834Y-61.843
X103.0Y-45.0
X106.0Y-42.0
X106.5Y-45.9
X111.63Y-53.63
X111.9Y-55.9
X112.0Y-79.0
X112.17Y-58.17
X113.0Y-68.0
X113.94Y-58.94
X115.06Y-68.0
X115.67Y-68.518
X116.122Y-69.178
X116.884Y-77.8
X117.0Y-66.001
X117.0Y-70.0
X118.005Y-78.4
X119.54Y-67.0
X119.695Y-77.544
X119.837Y-79.384
X119.838Y-76.557
X119.924Y-78.576
X121.236Y-75.999
X121.975Y-75.598
X122.0Y-69.6
X122.08Y-67.92
X123.224Y-69.6
X123.707Y-51.391
X124.0Y-66.001
X124.0Y-88.0
X124.0Y-90.0
X124.0Y-94.0
X124.0Y-96.0
X124.0Y-100.5
X124.5Y-51.5
X125.0Y-70.0
X125.476Y-51.476
X126.0Y-67.0
X126.4Y-51.4
X127.0Y-44.199
X127.0Y-47.199
X127.859Y-47.49
X128.494Y-48.682
X128.632Y-47.696
X130.0Y-65.0
X130.0Y-66.0
X130.058Y-66.942
X130.5Y-92.5
X130.945Y-93.165
X131.0Y-138.0
X131.484Y-93.987
X131.9Y-132.0
X132.0Y-60.999
X132.098Y-94.5
X132.351Y-136.766
X132.898Y-95.502
X132.951Y-137.384
X135.0Y-60.999
X138.0Y-43.933
X139.137Y-85.5
X139.5Y-88.0
X139.5Y-91.0
X141.0Y-46.0
X144.0Y-41.831
X144.0Y-46.0
X144.0Y-50.362
X144.5Y-77.42
X147.739Y-44.876
X149.5Y-77.42
X150.0Y-45.0
X151.84Y-55.84
X154.0Y-45.036
X154.359Y-45.876
X154.5Y-77.5
X156.0Y-46.0
X157.0Y-46.239
X158.0Y-47.0
X159.0Y-41.43
X159.0Y-54.0
X159.5Y-77.5
X159.896Y-40.628
X161.0Y-54.0
X161.427Y-40.227
X162.227Y-40.227
X164.5Y-77.5
X165.909Y-122.5
X165.909Y-129.783
X166.0Y-47.041
X167.0Y-47.184
X168.1Y-131.009
X169.5Y-77.5
X171.96Y-121.8
X172.0Y-124.0
X174.5Y-77.5
X174.5Y-118.0
X174.5Y-119.2
X174.5Y-121.8
X174.54Y-124.0
X178.5Y-54.999
X179.5Y-77.5
X182.0Y-52.5
X182.6Y-53.044
X184.25Y-63.86
X184.35Y-53.536
X184.5Y-77.42
X184.743Y-70.257
X184.854Y-56.6
X185.0Y-64.5
X185.054Y-50.272
X185.454Y-58.736
X185.469Y-99.0
X186.5Y-67.0
X186.655Y-54.167
X186.694Y-64.398
X186.727Y-65.773
X186.854Y-56.184
X187.0Y-68.0
X187.454Y-63.26
X187.5Y-64.4
X189.0Y-50.0
X189.5Y-77.42
X190.5Y-51.0
X192.891Y-56.436
X194.0Y-59.0
X194.5Y-77.42
X195.0Y-57.496
X199.5Y-77.5
X200.319Y-109.73
X204.5Y-77.5
X209.5Y-77.5
X211.0Y-125.0
X213.5Y-125.0
X214.5Y-77.5
X216.0Y-125.0
X217.0Y-56.0
X218.5Y-125.0
X219.0Y-58.0
X219.5Y-77.5
X220.0Y-59.0
X223.5Y-133.5
X223.687Y-108.23
X223.969Y-119.6
X224.0Y-57.46
X224.0Y-58.73
X224.0Y-61.27
X225.296Y-101.733
X225.577Y-113.053
X228.296Y-101.683
X228.296Y-102.73
X228.577Y-113.053
X230.845Y-103.009
X231.175Y-60.0
X231.214Y-103.718
X231.586Y-105.041
X231.795Y-104.269
X231.969Y-113.703
X232.204Y-106.257
X232.469Y-115.036
X232.488Y-105.274
X232.687Y-107.666
X232.814Y-106.774
X232.969Y-114.036
X233.034Y-115.602
X233.469Y-117.536
X233.534Y-118.379
X233.707Y-116.73
X233.816Y-115.773
X234.577Y-118.6
X239.6Y-114.051
X245.219Y-130.5
X250.4Y-59.434
X251.0Y-60.0
X251.0Y-124.564
X253.736Y-125.264
T2
X63.525Y-43.01
X63.525Y-44.36
X64.375Y-43.01
X64.375Y-44.36
X65.225Y-43.01
X65.225Y-44.36
X66.075Y-43.01
X66.075Y-44.36
X66.925Y-43.01
X66.925Y-44.36
X67.775Y-43.01
X67.775Y-44.36
X68.625Y-43.01
X68.625Y-44.36
X69.475Y-43.01
X69.475Y-44.36
T3
X254.0Y-66.0
X254.0Y-67.0
T4
X74.391Y-54.936
X75.891Y-54.936
X80.391Y-54.936
X81.891Y-54.936
X87.0Y-95.0
X88.5Y-95.0
X93.5Y-126.0
X95.0Y-126.0
X160.0Y-69.0
X161.5Y-69.0
X167.0Y-69.0
X168.5Y-69.0
X195.45Y-52.0
X196.95Y-52.0
X200.3Y-52.0
X201.8Y-52.0
X205.15Y-52.0
X206.65Y-52.0
X210.0Y-52.0
X211.5Y-52.0
X214.866Y-52.066
X216.366Y-52.066
X234.5Y-59.0
X236.0Y-59.0
T5
X46.741Y-43.586
X46.741Y-53.746
X48.0Y-84.84
X48.0Y-95.0
X48.0Y-97.84
X48.0Y-108.0
X52.741Y-43.586
X52.741Y-53.746
X53.0Y-84.84
X53.0Y-95.0
X53.0Y-97.84
X53.0Y-108.0
X54.0Y-112.0
X54.0Y-119.62
X54.0Y-122.38
X54.0Y-130.0
X56.54Y-112.0
X56.54Y-119.62
X56.54Y-122.38
X56.54Y-130.0
X58.0Y-84.84
X58.0Y-95.0
X58.0Y-97.84
X58.0Y-108.0
X58.392Y-43.626
X58.392Y-53.786
X59.08Y-112.0
X59.08Y-119.62
X59.08Y-122.38
X59.08Y-130.0
X61.62Y-112.0
X61.62Y-119.62
X61.62Y-122.38
X61.62Y-130.0
X63.0Y-84.84
X63.0Y-95.0
X63.0Y-97.84
X63.0Y-108.0
X64.16Y-112.0
X64.16Y-119.62
X64.16Y-122.38
X64.16Y-130.0
X66.7Y-112.0
X66.7Y-119.62
X66.7Y-122.38
X66.7Y-130.0
X68.0Y-84.84
X68.0Y-95.0
X68.0Y-97.84
X68.0Y-108.0
X69.24Y-112.0
X69.24Y-119.62
X69.24Y-122.38
X69.24Y-130.0
X71.34Y-135.0
X71.42Y-140.0
X71.78Y-112.0
X71.78Y-119.62
X71.78Y-122.38
X71.78Y-130.0
X73.0Y-84.84
X73.0Y-95.0
X73.0Y-97.84
X73.0Y-108.0
X74.32Y-112.0
X74.32Y-119.62
X74.32Y-122.38
X74.32Y-130.0
X76.86Y-112.0
X76.86Y-119.62
X76.86Y-122.38
X76.86Y-130.0
X78.0Y-84.84
X78.0Y-95.0
X78.0Y-97.84
X78.0Y-108.0
X81.5Y-135.0
X81.58Y-140.0
X82.38Y-113.76
X82.38Y-116.3
X82.38Y-118.84
X82.38Y-121.38
X82.38Y-123.92
X82.38Y-126.46
X82.38Y-129.0
X83.0Y-84.84
X83.0Y-95.0
X83.0Y-97.84
X83.0Y-108.0
X89.5Y-100.0
X89.5Y-110.16
X90.0Y-113.76
X90.0Y-116.3
X90.0Y-118.84
X90.0Y-121.38
X90.0Y-123.92
X90.0Y-126.46
X90.0Y-129.0
X91.6Y-48.26
X91.6Y-63.5
X91.76Y-69.0
X91.76Y-76.62
X94.14Y-48.26
X94.14Y-63.5
X94.3Y-69.0
X94.3Y-76.62
X96.68Y-48.26
X96.68Y-63.5
X96.84Y-69.0
X96.84Y-76.62
X98.88Y-115.185
X98.88Y-122.805
X99.22Y-48.26
X99.22Y-63.5
X99.38Y-69.0
X99.38Y-76.62
X99.5Y-93.797
X100.92Y-126.0
X100.92Y-129.5
X100.92Y-133.0
X100.92Y-140.0
X101.0Y-136.5
X101.42Y-115.185
X101.42Y-122.805
X101.5Y-93.797
X101.76Y-48.26
X101.76Y-63.5
X101.92Y-69.0
X101.92Y-76.62
X103.5Y-93.797
X103.96Y-115.185
X103.96Y-122.805
X104.3Y-48.26
X104.3Y-63.5
X104.46Y-69.0
X104.46Y-76.62
X106.5Y-115.185
X106.5Y-122.805
X106.84Y-48.26
X106.84Y-63.5
X107.0Y-69.0
X107.0Y-76.62
X109.04Y-115.185
X109.04Y-122.805
X109.38Y-48.26
X109.38Y-63.5
X111.08Y-126.0
X111.08Y-129.5
X111.08Y-133.0
X111.08Y-140.0
X111.16Y-136.5
X111.58Y-115.185
X111.58Y-122.805
X111.92Y-48.26
X111.92Y-63.5
X114.12Y-115.185
X114.12Y-122.805
X114.46Y-48.26
X114.46Y-63.5
X117.0Y-48.26
X117.0Y-63.5
X119.389Y-85.658
X119.389Y-88.198
X119.389Y-90.738
X119.389Y-93.278
X119.389Y-95.818
X119.389Y-98.358
X119.389Y-100.898
X119.389Y-103.438
X119.389Y-105.978
X119.389Y-108.518
X119.389Y-111.058
X119.389Y-113.598
X119.389Y-116.138
X119.389Y-118.678
X119.389Y-121.218
X119.389Y-123.758
X119.389Y-126.298
X119.389Y-128.838
X119.389Y-131.378
X119.389Y-133.918
X119.54Y-48.26
X119.54Y-63.5
X122.08Y-48.26
X122.08Y-63.5
X124.62Y-48.26
X124.62Y-63.5
X131.52Y-48.26
X131.52Y-63.5
X134.06Y-48.26
X134.06Y-63.5
X134.63Y-85.658
X134.63Y-88.198
X134.63Y-90.738
X134.63Y-93.278
X134.63Y-95.818
X134.63Y-98.358
X134.63Y-100.898
X134.63Y-103.438
X134.63Y-105.978
X134.63Y-108.518
X134.63Y-111.058
X134.63Y-113.598
X134.63Y-116.138
X134.63Y-118.678
X134.63Y-121.218
X134.63Y-123.758
X134.63Y-126.298
X134.63Y-128.838
X134.63Y-131.378
X134.63Y-133.918
X136.6Y-48.26
X136.6Y-63.5
X139.14Y-48.26
X139.14Y-63.5
X141.68Y-48.26
X141.68Y-63.5
X143.34Y-130.283
X143.35Y-133.783
X143.429Y-116.283
X143.429Y-119.783
X143.429Y-123.283
X143.429Y-126.783
X143.433Y-137.0
X143.433Y-140.5
X144.22Y-48.26
X144.22Y-63.5
X144.5Y-85.42
X144.5Y-95.58
X145.46Y-101.38
X145.46Y-109.0
X146.76Y-48.26
X146.76Y-63.5
X148.0Y-101.38
X148.0Y-109.0
X149.3Y-48.26
X149.3Y-63.5
X149.5Y-85.42
X149.5Y-95.58
X150.54Y-101.38
X150.54Y-109.0
X151.84Y-48.26
X151.84Y-63.5
X153.08Y-101.38
X153.08Y-109.0
X153.5Y-130.283
X153.51Y-133.783
X153.589Y-116.283
X153.589Y-119.783
X153.589Y-123.283
X153.589Y-126.783
X153.593Y-137.0
X153.593Y-140.5
X154.38Y-48.26
X154.38Y-63.5
X154.5Y-85.5
X154.5Y-95.66
X155.62Y-101.38
X155.62Y-109.0
X156.92Y-48.26
X156.92Y-63.5
X158.16Y-101.38
X158.16Y-109.0
X159.46Y-48.26
X159.46Y-63.5
X159.5Y-85.5
X159.5Y-95.66
X160.7Y-101.38
X160.7Y-109.0
X162.0Y-48.26
X162.0Y-63.5
X163.24Y-101.38
X163.24Y-109.0
X164.5Y-85.5
X164.5Y-95.66
X164.54Y-48.26
X164.54Y-63.5
X165.78Y-101.38
X165.78Y-109.0
X168.32Y-101.38
X168.32Y-109.0
X169.5Y-48.436
X169.5Y-85.5
X169.5Y-95.66
X169.58Y-52.0
X173.5Y-63.12
X173.5Y-68.0
X174.5Y-85.5
X174.5Y-95.66
X179.22Y-124.0
X179.22Y-131.62
X179.23Y-101.149
X179.23Y-108.769
X179.232Y-112.324
X179.232Y-119.944
X179.5Y-85.5
X179.5Y-95.66
X179.66Y-48.436
X179.74Y-52.0
X181.76Y-124.0
X181.76Y-131.62
X181.77Y-101.149
X181.77Y-108.769
X181.772Y-112.324
X181.772Y-119.944
X184.3Y-124.0
X184.3Y-131.62
X184.31Y-101.149
X184.31Y-108.769
X184.312Y-112.324
X184.312Y-119.944
X184.5Y-85.42
X184.5Y-95.58
X186.84Y-124.0
X186.84Y-131.62
X186.85Y-101.149
X186.85Y-108.769
X186.852Y-112.324
X186.852Y-119.944
X189.38Y-124.0
X189.38Y-131.62
X189.391Y-101.149
X189.391Y-108.769
X189.392Y-112.324
X189.392Y-119.944
X189.5Y-85.42
X189.5Y-95.58
X191.92Y-124.0
X191.92Y-131.62
X191.93Y-101.149
X191.93Y-108.769
X191.932Y-112.324
X191.932Y-119.944
X194.46Y-124.0
X194.46Y-131.62
X194.47Y-101.149
X194.47Y-108.769
X194.472Y-112.324
X194.472Y-119.944
X194.5Y-85.42
X194.5Y-95.58
X197.0Y-124.0
X197.0Y-131.62
X197.01Y-101.149
X197.01Y-108.769
X197.012Y-112.324
X197.012Y-119.944
X197.84Y-62.0
X199.5Y-85.5
X199.5Y-95.66
X204.5Y-85.5
X204.5Y-95.66
X208.0Y-62.0
X209.5Y-85.5
X209.5Y-95.66
X214.5Y-85.5
X214.5Y-95.66
X219.5Y-85.5
X219.5Y-95.66
X221.24Y-123.919
X221.24Y-131.539
X223.78Y-123.919
X223.78Y-131.539
X224.0Y-69.64
X224.0Y-72.18
X224.0Y-74.72
X224.0Y-77.26
X224.0Y-79.8
X224.0Y-82.34
X224.0Y-84.88
X224.0Y-87.42
X224.0Y-89.96
X224.0Y-92.5
X226.32Y-123.919
X226.32Y-131.539
X228.861Y-123.919
X228.861Y-131.539
X231.4Y-123.919
X231.4Y-131.539
X231.62Y-69.64
X231.62Y-72.18
X231.62Y-74.72
X231.62Y-77.26
X231.62Y-79.8
X231.62Y-82.34
X231.62Y-84.88
X231.62Y-87.42
X231.62Y-89.96
X231.62Y-92.5
X233.94Y-123.919
X233.94Y-131.539
X236.48Y-123.919
X236.48Y-131.539
X239.02Y-123.919
X239.02Y-131.539
T6
X60.0Y-136.0
X60.0Y-140.5
X66.5Y-136.0
X66.5Y-140.5
X247.75Y-89.75
X247.75Y-94.25
X247.75Y-98.3
X247.75Y-102.8
X247.75Y-106.75
X247.75Y-111.25
X247.75Y-115.0
X247.75Y-119.5
X254.25Y-89.75
X254.25Y-94.25
X254.25Y-98.3
X254.25Y-102.8
X254.25Y-106.75
X254.25Y-111.25
X254.25Y-115.0
X254.25Y-119.5
T7
X97.4Y-93.797
X105.6Y-93.797
T4
G00X62.175Y-40.4
M15
G01X62.175Y-39.6
M16
G05
G00X62.175Y-44.13
M15
G01X62.175Y-42.63
M16
G05
G00X70.825Y-40.4
M15
G01X70.825Y-39.6
M16
G05
G00X70.825Y-44.13
M15
G01X70.825Y-42.63
M16
G05
M30
