%TF.GenerationSoftware,KiCad,Pcbnew,9.0.6*%
%TF.CreationDate,2026-03-04T11:30:58+01:00*%
%TF.ProjectId,Z80DevBoard,5a383044-6576-4426-9f61-72642e6b6963,rev?*%
%TF.SameCoordinates,Original*%
%TF.FileFunction,Paste,Top*%
%TF.FilePolarity,Positive*%
%FSLAX46Y46*%
G04 Gerber Fmt 4.6, Leading zero omitted, Abs format (unit mm)*
G04 Created by KiCad (PCBNEW 9.0.6) date 2026-03-04 11:30:58*
%MOMM*%
%LPD*%
G01*
G04 APERTURE LIST*
G04 Aperture macros list*
%AMRoundRect*
0 Rectangle with rounded corners*
0 $1 Rounding radius*
0 $2 $3 $4 $5 $6 $7 $8 $9 X,Y pos of 4 corners*
0 Add a 4 corners polygon primitive as box body*
4,1,4,$2,$3,$4,$5,$6,$7,$8,$9,$2,$3,0*
0 Add four circle primitives for the rounded corners*
1,1,$1+$1,$2,$3*
1,1,$1+$1,$4,$5*
1,1,$1+$1,$6,$7*
1,1,$1+$1,$8,$9*
0 Add four rect primitives between the rounded corners*
20,1,$1+$1,$2,$3,$4,$5,0*
20,1,$1+$1,$4,$5,$6,$7,0*
20,1,$1+$1,$6,$7,$8,$9,0*
20,1,$1+$1,$8,$9,$2,$3,0*%
G04 Aperture macros list end*
%ADD10RoundRect,0.100000X-0.637500X-0.100000X0.637500X-0.100000X0.637500X0.100000X-0.637500X0.100000X0*%
%ADD11RoundRect,0.150000X0.200000X-0.150000X0.200000X0.150000X-0.200000X0.150000X-0.200000X-0.150000X0*%
%ADD12R,2.200000X2.200000*%
%ADD13R,1.250000X2.200000*%
%ADD14R,2.200000X1.250000*%
%ADD15RoundRect,0.375000X-0.625000X-0.375000X0.625000X-0.375000X0.625000X0.375000X-0.625000X0.375000X0*%
%ADD16RoundRect,0.500000X-0.500000X-1.400000X0.500000X-1.400000X0.500000X1.400000X-0.500000X1.400000X0*%
%ADD17RoundRect,0.147500X0.147500X0.172500X-0.147500X0.172500X-0.147500X-0.172500X0.147500X-0.172500X0*%
%ADD18RoundRect,0.249999X-0.395001X-0.395001X0.395001X-0.395001X0.395001X0.395001X-0.395001X0.395001X0*%
%ADD19RoundRect,0.050000X-0.387500X-0.050000X0.387500X-0.050000X0.387500X0.050000X-0.387500X0.050000X0*%
%ADD20RoundRect,0.050000X-0.050000X-0.387500X0.050000X-0.387500X0.050000X0.387500X-0.050000X0.387500X0*%
%ADD21RoundRect,0.250001X-0.499999X-0.549999X0.499999X-0.549999X0.499999X0.549999X-0.499999X0.549999X0*%
%ADD22RoundRect,0.162500X-0.650000X-0.162500X0.650000X-0.162500X0.650000X0.162500X-0.650000X0.162500X0*%
G04 APERTURE END LIST*
D10*
%TO.C,DataBus2*%
X246637500Y-124614000D03*
X246637500Y-125264000D03*
X246637500Y-125914000D03*
X246637500Y-126564000D03*
X246637500Y-127214000D03*
X246637500Y-127864000D03*
X246637500Y-128514000D03*
X246637500Y-129164000D03*
X246637500Y-129814000D03*
X246637500Y-130464000D03*
X252362500Y-130464000D03*
X252362500Y-129814000D03*
X252362500Y-129164000D03*
X252362500Y-128514000D03*
X252362500Y-127864000D03*
X252362500Y-127214000D03*
X252362500Y-126564000D03*
X252362500Y-125914000D03*
X252362500Y-125264000D03*
X252362500Y-124614000D03*
%TD*%
D11*
%TO.C,D60*%
X216000000Y-125600000D03*
X216000000Y-127000000D03*
%TD*%
%TO.C,D62*%
X208500000Y-125600000D03*
X208500000Y-127000000D03*
%TD*%
D12*
%TO.C,D52*%
X165909500Y-119000000D03*
D13*
X163634500Y-119000000D03*
%TD*%
D12*
%TO.C,D45*%
X91100000Y-132500000D03*
D13*
X93375000Y-132500000D03*
%TD*%
D12*
%TO.C,D66*%
X214500000Y-77500000D03*
D14*
X214500000Y-79775000D03*
%TD*%
D15*
%TO.C,LDO1*%
X77091500Y-42786000D03*
X77091500Y-45086000D03*
D16*
X83391500Y-45086000D03*
D15*
X77091500Y-47386000D03*
%TD*%
D11*
%TO.C,D5*%
X203418600Y-103030500D03*
X203418600Y-104430500D03*
%TD*%
%TO.C,D23*%
X211000000Y-114100000D03*
X211000000Y-115500000D03*
%TD*%
%TO.C,D59*%
X211000000Y-125600000D03*
X211000000Y-127000000D03*
%TD*%
D17*
%TO.C,F1*%
X74726500Y-39586000D03*
X73756500Y-39586000D03*
%TD*%
D12*
%TO.C,D73*%
X179500000Y-77500000D03*
D14*
X179500000Y-79775000D03*
%TD*%
D12*
%TO.C,D67*%
X209500000Y-77500000D03*
D14*
X209500000Y-79775000D03*
%TD*%
D11*
%TO.C,D29*%
X208500000Y-114100000D03*
X208500000Y-115500000D03*
%TD*%
D12*
%TO.C,D55*%
X165909500Y-129783000D03*
D13*
X163634500Y-129783000D03*
%TD*%
D12*
%TO.C,D69*%
X199500000Y-77500000D03*
D14*
X199500000Y-79775000D03*
%TD*%
D12*
%TO.C,D36*%
X58000000Y-67625000D03*
D14*
X58000000Y-69900000D03*
%TD*%
D12*
%TO.C,D74*%
X174500000Y-77500000D03*
D14*
X174500000Y-79775000D03*
%TD*%
D12*
%TO.C,D1*%
X165909500Y-126283000D03*
D13*
X163634500Y-126283000D03*
%TD*%
D10*
%TO.C,DataBus3*%
X223956100Y-101733500D03*
X223956100Y-102383500D03*
X223956100Y-103033500D03*
X223956100Y-103683500D03*
X223956100Y-104333500D03*
X223956100Y-104983500D03*
X223956100Y-105633500D03*
X223956100Y-106283500D03*
X223956100Y-106933500D03*
X223956100Y-107583500D03*
X229681100Y-107583500D03*
X229681100Y-106933500D03*
X229681100Y-106283500D03*
X229681100Y-105633500D03*
X229681100Y-104983500D03*
X229681100Y-104333500D03*
X229681100Y-103683500D03*
X229681100Y-103033500D03*
X229681100Y-102383500D03*
X229681100Y-101733500D03*
%TD*%
D12*
%TO.C,D72*%
X184500000Y-77420000D03*
D14*
X184500000Y-79695000D03*
%TD*%
D11*
%TO.C,D15*%
X215668600Y-103030500D03*
X215668600Y-104430500D03*
%TD*%
D12*
%TO.C,D51*%
X91100000Y-136500000D03*
D13*
X93375000Y-136500000D03*
%TD*%
D12*
%TO.C,D70*%
X194500000Y-77420000D03*
D14*
X194500000Y-79695000D03*
%TD*%
D10*
%TO.C,DataBus1*%
X224237500Y-113103000D03*
X224237500Y-113753000D03*
X224237500Y-114403000D03*
X224237500Y-115053000D03*
X224237500Y-115703000D03*
X224237500Y-116353000D03*
X224237500Y-117003000D03*
X224237500Y-117653000D03*
X224237500Y-118303000D03*
X224237500Y-118953000D03*
X229962500Y-118953000D03*
X229962500Y-118303000D03*
X229962500Y-117653000D03*
X229962500Y-117003000D03*
X229962500Y-116353000D03*
X229962500Y-115703000D03*
X229962500Y-115053000D03*
X229962500Y-114403000D03*
X229962500Y-113753000D03*
X229962500Y-113103000D03*
%TD*%
D11*
%TO.C,D61*%
X203500000Y-125600000D03*
X203500000Y-127000000D03*
%TD*%
D12*
%TO.C,D77*%
X159500000Y-77500000D03*
D14*
X159500000Y-79775000D03*
%TD*%
D12*
%TO.C,D33*%
X48000000Y-77000000D03*
D14*
X48000000Y-79275000D03*
%TD*%
D11*
%TO.C,D3*%
X200968600Y-103030500D03*
X200968600Y-104430500D03*
%TD*%
%TO.C,D56*%
X201000000Y-125600000D03*
X201000000Y-127000000D03*
%TD*%
D12*
%TO.C,D38*%
X68000000Y-67625000D03*
D14*
X68000000Y-69900000D03*
%TD*%
D12*
%TO.C,D41*%
X58000000Y-77000000D03*
D14*
X58000000Y-79275000D03*
%TD*%
D12*
%TO.C,D50*%
X91100000Y-140500000D03*
D13*
X93375000Y-140500000D03*
%TD*%
D12*
%TO.C,D40*%
X83000000Y-67625000D03*
D14*
X83000000Y-69900000D03*
%TD*%
D12*
%TO.C,D43*%
X63000000Y-77000000D03*
D14*
X63000000Y-79275000D03*
%TD*%
D12*
%TO.C,D39*%
X68000000Y-77000000D03*
D14*
X68000000Y-79275000D03*
%TD*%
D11*
%TO.C,D25*%
X216000000Y-114100000D03*
X216000000Y-115500000D03*
%TD*%
%TO.C,D19*%
X201100000Y-114100000D03*
X201100000Y-115500000D03*
%TD*%
D12*
%TO.C,D76*%
X164500000Y-77500000D03*
D14*
X164500000Y-79775000D03*
%TD*%
D11*
%TO.C,D21*%
X206000000Y-114100000D03*
X206000000Y-115500000D03*
%TD*%
D12*
%TO.C,D49*%
X165909500Y-133283000D03*
D13*
X163634500Y-133283000D03*
%TD*%
D12*
%TO.C,D78*%
X154500000Y-77500000D03*
D14*
X154500000Y-79775000D03*
%TD*%
D11*
%TO.C,D17*%
X218168600Y-103030500D03*
X218168600Y-104430500D03*
%TD*%
D12*
%TO.C,D35*%
X53000000Y-77000000D03*
D14*
X53000000Y-79275000D03*
%TD*%
D12*
%TO.C,D53*%
X165909500Y-115500000D03*
D13*
X163634500Y-115500000D03*
%TD*%
D11*
%TO.C,D9*%
X208318600Y-103030500D03*
X208318600Y-104430500D03*
%TD*%
D12*
%TO.C,D37*%
X73000000Y-77000000D03*
D14*
X73000000Y-79275000D03*
%TD*%
D11*
%TO.C,D63*%
X213500000Y-125600000D03*
X213500000Y-127000000D03*
%TD*%
%TO.C,D58*%
X206000000Y-125600000D03*
X206000000Y-127000000D03*
%TD*%
%TO.C,D27*%
X203500000Y-114100000D03*
X203500000Y-115500000D03*
%TD*%
D12*
%TO.C,D80*%
X144500000Y-77420000D03*
D14*
X144500000Y-79695000D03*
%TD*%
D12*
%TO.C,D47*%
X78000000Y-77000000D03*
D14*
X78000000Y-79275000D03*
%TD*%
D18*
%TO.C,RP2040_1*%
X184654000Y-57936000D03*
X184654000Y-59536000D03*
X186254000Y-57936000D03*
X186254000Y-59536000D03*
D19*
X182016500Y-56136000D03*
X182016500Y-56536000D03*
X182016500Y-56936000D03*
X182016500Y-57336000D03*
X182016500Y-57736000D03*
X182016500Y-58136000D03*
X182016500Y-58536000D03*
X182016500Y-58936000D03*
X182016500Y-59336000D03*
X182016500Y-59736000D03*
X182016500Y-60136000D03*
X182016500Y-60536000D03*
X182016500Y-60936000D03*
X182016500Y-61336000D03*
D20*
X182854000Y-62173500D03*
X183254000Y-62173500D03*
X183654000Y-62173500D03*
X184054000Y-62173500D03*
X184454000Y-62173500D03*
X184854000Y-62173500D03*
X185254000Y-62173500D03*
X185654000Y-62173500D03*
X186054000Y-62173500D03*
X186454000Y-62173500D03*
X186854000Y-62173500D03*
X187254000Y-62173500D03*
X187654000Y-62173500D03*
X188054000Y-62173500D03*
D19*
X188891500Y-61336000D03*
X188891500Y-60936000D03*
X188891500Y-60536000D03*
X188891500Y-60136000D03*
X188891500Y-59736000D03*
X188891500Y-59336000D03*
X188891500Y-58936000D03*
X188891500Y-58536000D03*
X188891500Y-58136000D03*
X188891500Y-57736000D03*
X188891500Y-57336000D03*
X188891500Y-56936000D03*
X188891500Y-56536000D03*
X188891500Y-56136000D03*
D20*
X188054000Y-55298500D03*
X187654000Y-55298500D03*
X187254000Y-55298500D03*
X186854000Y-55298500D03*
X186454000Y-55298500D03*
X186054000Y-55298500D03*
X185654000Y-55298500D03*
X185254000Y-55298500D03*
X184854000Y-55298500D03*
X184454000Y-55298500D03*
X184054000Y-55298500D03*
X183654000Y-55298500D03*
X183254000Y-55298500D03*
X182854000Y-55298500D03*
%TD*%
D12*
%TO.C,D31*%
X83000000Y-77000000D03*
D14*
X83000000Y-79275000D03*
%TD*%
D12*
%TO.C,D44*%
X78000000Y-67625000D03*
D14*
X78000000Y-69900000D03*
%TD*%
D11*
%TO.C,D13*%
X213218600Y-103030500D03*
X213218600Y-104430500D03*
%TD*%
D12*
%TO.C,D42*%
X73000000Y-67625000D03*
D14*
X73000000Y-69900000D03*
%TD*%
D12*
%TO.C,D71*%
X189500000Y-77420000D03*
D14*
X189500000Y-79695000D03*
%TD*%
D12*
%TO.C,D34*%
X48000000Y-67625000D03*
D14*
X48000000Y-69900000D03*
%TD*%
D11*
%TO.C,D64*%
X218500000Y-125600000D03*
X218500000Y-127000000D03*
%TD*%
%TO.C,D54*%
X218500000Y-114100000D03*
X218500000Y-115500000D03*
%TD*%
D12*
%TO.C,D48*%
X53000000Y-67625000D03*
D14*
X53000000Y-69900000D03*
%TD*%
D12*
%TO.C,D75*%
X169500000Y-77500000D03*
D14*
X169500000Y-79775000D03*
%TD*%
D21*
%TO.C,Y2*%
X171960000Y-124000000D03*
X174500000Y-124000000D03*
X174500000Y-121800000D03*
X171960000Y-121800000D03*
%TD*%
D11*
%TO.C,D11*%
X210768600Y-103030500D03*
X210768600Y-104430500D03*
%TD*%
%TO.C,D46*%
X213500000Y-114100000D03*
X213500000Y-115500000D03*
%TD*%
D22*
%TO.C,Flash1*%
X224000000Y-57460000D03*
X224000000Y-58730000D03*
X224000000Y-60000000D03*
X224000000Y-61270000D03*
X231175000Y-61270000D03*
X231175000Y-60000000D03*
X231175000Y-58730000D03*
X231175000Y-57460000D03*
%TD*%
D12*
%TO.C,D32*%
X63000000Y-67625000D03*
D14*
X63000000Y-69900000D03*
%TD*%
D12*
%TO.C,D68*%
X204500000Y-77500000D03*
D14*
X204500000Y-79775000D03*
%TD*%
D11*
%TO.C,D7*%
X205868600Y-103030500D03*
X205868600Y-104430500D03*
%TD*%
D12*
%TO.C,D79*%
X149500000Y-77420000D03*
D14*
X149500000Y-79695000D03*
%TD*%
D12*
%TO.C,D65*%
X219500000Y-77500000D03*
D14*
X219500000Y-79775000D03*
%TD*%
M02*
