%TF.GenerationSoftware,KiCad,Pcbnew,9.0.6*%
%TF.CreationDate,2026-03-04T11:30:58+01:00*%
%TF.ProjectId,Z80DevBoard,5a383044-6576-4426-9f61-72642e6b6963,rev?*%
%TF.SameCoordinates,Original*%
%TF.FileFunction,Copper,L1,Top*%
%TF.FilePolarity,Positive*%
%FSLAX46Y46*%
G04 Gerber Fmt 4.6, Leading zero omitted, Abs format (unit mm)*
G04 Created by KiCad (PCBNEW 9.0.6) date 2026-03-04 11:30:58*
%MOMM*%
%LPD*%
G01*
G04 APERTURE LIST*
G04 Aperture macros list*
%AMRoundRect*
0 Rectangle with rounded corners*
0 $1 Rounding radius*
0 $2 $3 $4 $5 $6 $7 $8 $9 X,Y pos of 4 corners*
0 Add a 4 corners polygon primitive as box body*
4,1,4,$2,$3,$4,$5,$6,$7,$8,$9,$2,$3,0*
0 Add four circle primitives for the rounded corners*
1,1,$1+$1,$2,$3*
1,1,$1+$1,$4,$5*
1,1,$1+$1,$6,$7*
1,1,$1+$1,$8,$9*
0 Add four rect primitives between the rounded corners*
20,1,$1+$1,$2,$3,$4,$5,0*
20,1,$1+$1,$4,$5,$6,$7,0*
20,1,$1+$1,$6,$7,$8,$9,0*
20,1,$1+$1,$8,$9,$2,$3,0*%
G04 Aperture macros list end*
%TA.AperFunction,ComponentPad*%
%ADD10C,1.600000*%
%TD*%
%TA.AperFunction,ComponentPad*%
%ADD11RoundRect,0.250000X-0.350000X-0.350000X0.350000X-0.350000X0.350000X0.350000X-0.350000X0.350000X0*%
%TD*%
%TA.AperFunction,ComponentPad*%
%ADD12C,1.200000*%
%TD*%
%TA.AperFunction,SMDPad,CuDef*%
%ADD13RoundRect,0.100000X-0.637500X-0.100000X0.637500X-0.100000X0.637500X0.100000X-0.637500X0.100000X0*%
%TD*%
%TA.AperFunction,ComponentPad*%
%ADD14RoundRect,0.250000X0.550000X-0.550000X0.550000X0.550000X-0.550000X0.550000X-0.550000X-0.550000X0*%
%TD*%
%TA.AperFunction,ComponentPad*%
%ADD15RoundRect,0.250000X0.350000X0.350000X-0.350000X0.350000X-0.350000X-0.350000X0.350000X-0.350000X0*%
%TD*%
%TA.AperFunction,SMDPad,CuDef*%
%ADD16RoundRect,0.150000X0.200000X-0.150000X0.200000X0.150000X-0.200000X0.150000X-0.200000X-0.150000X0*%
%TD*%
%TA.AperFunction,SMDPad,CuDef*%
%ADD17R,2.200000X2.200000*%
%TD*%
%TA.AperFunction,SMDPad,CuDef*%
%ADD18R,1.250000X2.200000*%
%TD*%
%TA.AperFunction,SMDPad,CuDef*%
%ADD19R,2.200000X1.250000*%
%TD*%
%TA.AperFunction,SMDPad,CuDef*%
%ADD20RoundRect,0.375000X-0.625000X-0.375000X0.625000X-0.375000X0.625000X0.375000X-0.625000X0.375000X0*%
%TD*%
%TA.AperFunction,SMDPad,CuDef*%
%ADD21RoundRect,0.500000X-0.500000X-1.400000X0.500000X-1.400000X0.500000X1.400000X-0.500000X1.400000X0*%
%TD*%
%TA.AperFunction,SMDPad,CuDef*%
%ADD22RoundRect,0.147500X0.147500X0.172500X-0.147500X0.172500X-0.147500X-0.172500X0.147500X-0.172500X0*%
%TD*%
%TA.AperFunction,ComponentPad*%
%ADD23C,2.000000*%
%TD*%
%TA.AperFunction,ComponentPad*%
%ADD24RoundRect,0.250000X-0.550000X-0.550000X0.550000X-0.550000X0.550000X0.550000X-0.550000X0.550000X0*%
%TD*%
%TA.AperFunction,ComponentPad*%
%ADD25C,0.700000*%
%TD*%
%TA.AperFunction,ComponentPad*%
%ADD26O,0.900000X2.400000*%
%TD*%
%TA.AperFunction,ComponentPad*%
%ADD27O,0.900000X1.700000*%
%TD*%
%TA.AperFunction,SMDPad,CuDef*%
%ADD28RoundRect,0.050000X-0.387500X-0.050000X0.387500X-0.050000X0.387500X0.050000X-0.387500X0.050000X0*%
%TD*%
%TA.AperFunction,SMDPad,CuDef*%
%ADD29RoundRect,0.050000X-0.050000X-0.387500X0.050000X-0.387500X0.050000X0.387500X-0.050000X0.387500X0*%
%TD*%
%TA.AperFunction,HeatsinkPad*%
%ADD30R,3.200000X3.200000*%
%TD*%
%TA.AperFunction,ComponentPad*%
%ADD31C,1.500000*%
%TD*%
%TA.AperFunction,SMDPad,CuDef*%
%ADD32RoundRect,0.250001X-0.499999X-0.549999X0.499999X-0.549999X0.499999X0.549999X-0.499999X0.549999X0*%
%TD*%
%TA.AperFunction,SMDPad,CuDef*%
%ADD33RoundRect,0.162500X-0.650000X-0.162500X0.650000X-0.162500X0.650000X0.162500X-0.650000X0.162500X0*%
%TD*%
%TA.AperFunction,ComponentPad*%
%ADD34O,2.200000X3.500000*%
%TD*%
%TA.AperFunction,ComponentPad*%
%ADD35R,1.500000X2.500000*%
%TD*%
%TA.AperFunction,ComponentPad*%
%ADD36O,1.500000X2.500000*%
%TD*%
%TA.AperFunction,ComponentPad*%
%ADD37R,0.850000X0.850000*%
%TD*%
%TA.AperFunction,ComponentPad*%
%ADD38C,0.850000*%
%TD*%
%TA.AperFunction,ViaPad*%
%ADD39C,0.600000*%
%TD*%
%TA.AperFunction,Conductor*%
%ADD40C,0.200000*%
%TD*%
G04 APERTURE END LIST*
D10*
%TO.P,R69,1*%
%TO.N,Net-(LedMatrixAddress2-Q6)*%
X149500000Y-95580000D03*
%TO.P,R69,2*%
%TO.N,Net-(D79-A)*%
X149500000Y-85420000D03*
%TD*%
D11*
%TO.P,C8,1*%
%TO.N,GND*%
X167000000Y-69000000D03*
D12*
%TO.P,C8,2*%
%TO.N,RP2040_XIN*%
X168500000Y-69000000D03*
%TD*%
D10*
%TO.P,R8,1*%
%TO.N,Z80-MREQ*%
X111160000Y-136500000D03*
%TO.P,R8,2*%
%TO.N,Net-(D51-A)*%
X101000000Y-136500000D03*
%TD*%
D13*
%TO.P,DataBus2,1,DIR*%
%TO.N,RP2040-RWRAM-GPIO5-DIR*%
X246637500Y-124614000D03*
%TO.P,DataBus2,2,A1*%
%TO.N,Net-(D56-K)*%
X246637500Y-125264000D03*
%TO.P,DataBus2,3,A2*%
%TO.N,Net-(D61-K)*%
X246637500Y-125914000D03*
%TO.P,DataBus2,4,A3*%
%TO.N,Net-(D58-K)*%
X246637500Y-126564000D03*
%TO.P,DataBus2,5,A4*%
%TO.N,Net-(D62-K)*%
X246637500Y-127214000D03*
%TO.P,DataBus2,6,A5*%
%TO.N,Net-(D59-K)*%
X246637500Y-127864000D03*
%TO.P,DataBus2,7,A6*%
%TO.N,Net-(D63-K)*%
X246637500Y-128514000D03*
%TO.P,DataBus2,8,A7*%
%TO.N,Net-(D60-K)*%
X246637500Y-129164000D03*
%TO.P,DataBus2,9,A8*%
%TO.N,Net-(D64-K)*%
X246637500Y-129814000D03*
%TO.P,DataBus2,10,GND*%
%TO.N,GND*%
X246637500Y-130464000D03*
%TO.P,DataBus2,11,B8*%
%TO.N,RAM-Q7*%
X252362500Y-130464000D03*
%TO.P,DataBus2,12,B7*%
%TO.N,RAM-Q6*%
X252362500Y-129814000D03*
%TO.P,DataBus2,13,B6*%
%TO.N,RAM-Q5*%
X252362500Y-129164000D03*
%TO.P,DataBus2,14,B5*%
%TO.N,RAM-Q4*%
X252362500Y-128514000D03*
%TO.P,DataBus2,15,B4*%
%TO.N,RAM-Q3*%
X252362500Y-127864000D03*
%TO.P,DataBus2,16,B3*%
%TO.N,RAM-Q2*%
X252362500Y-127214000D03*
%TO.P,DataBus2,17,B2*%
%TO.N,RAM-Q1*%
X252362500Y-126564000D03*
%TO.P,DataBus2,18,B1*%
%TO.N,RAM-Q0*%
X252362500Y-125914000D03*
%TO.P,DataBus2,19,~{OE}*%
%TO.N,GND*%
X252362500Y-125264000D03*
%TO.P,DataBus2,20,VCC*%
%TO.N,Vcc*%
X252362500Y-124614000D03*
%TD*%
D10*
%TO.P,R11,1*%
%TO.N,Z80-BUSACK*%
X143349500Y-133783000D03*
%TO.P,R11,2*%
%TO.N,Net-(D1-A)*%
X153509500Y-133783000D03*
%TD*%
%TO.P,R12,1*%
%TO.N,GND*%
X52741500Y-53746000D03*
%TO.P,R12,2*%
%TO.N,USB-C-CC1*%
X52741500Y-43586000D03*
%TD*%
%TO.P,R27,1*%
%TO.N,Net-(LedMatrixWrite1-Q7)*%
X48000000Y-108000000D03*
%TO.P,R27,2*%
%TO.N,Net-(D34-A)*%
X48000000Y-97840000D03*
%TD*%
%TO.P,R15,1*%
%TO.N,Vcc-RP2040-RUN*%
X197840000Y-62000000D03*
%TO.P,R15,2*%
%TO.N,Vdd_3v3*%
X208000000Y-62000000D03*
%TD*%
D14*
%TO.P,ShiftRegisterIn2,1,~{PL}*%
%TO.N,RP2040-RWRAM-GPIO8-PL*%
X221240500Y-131539000D03*
D10*
%TO.P,ShiftRegisterIn2,2,CP*%
%TO.N,CLOCK_BUS*%
X223780500Y-131539000D03*
%TO.P,ShiftRegisterIn2,3,D4*%
%TO.N,Net-(D59-K)*%
X226320500Y-131539000D03*
%TO.P,ShiftRegisterIn2,4,D5*%
%TO.N,Net-(D63-K)*%
X228860500Y-131539000D03*
%TO.P,ShiftRegisterIn2,5,D6*%
%TO.N,Net-(D60-K)*%
X231400500Y-131539000D03*
%TO.P,ShiftRegisterIn2,6,D7*%
%TO.N,Net-(D64-K)*%
X233940500Y-131539000D03*
%TO.P,ShiftRegisterIn2,7,~{Q7}*%
%TO.N,unconnected-(ShiftRegisterIn2-~{Q7}-Pad7)*%
X236480500Y-131539000D03*
%TO.P,ShiftRegisterIn2,8,GND*%
%TO.N,GND*%
X239020500Y-131539000D03*
%TO.P,ShiftRegisterIn2,9,Q7*%
%TO.N,RP2040-RWRAM-GPIO7-Q7*%
X239020500Y-123919000D03*
%TO.P,ShiftRegisterIn2,10,DS*%
%TO.N,RP2040-RWRAM-GPIO6-DS*%
X236480500Y-123919000D03*
%TO.P,ShiftRegisterIn2,11,D0*%
%TO.N,Net-(D56-K)*%
X233940500Y-123919000D03*
%TO.P,ShiftRegisterIn2,12,D1*%
%TO.N,Net-(D61-K)*%
X231400500Y-123919000D03*
%TO.P,ShiftRegisterIn2,13,D2*%
%TO.N,Net-(D58-K)*%
X228860500Y-123919000D03*
%TO.P,ShiftRegisterIn2,14,D3*%
%TO.N,Net-(D62-K)*%
X226320500Y-123919000D03*
%TO.P,ShiftRegisterIn2,15,~{CE}*%
%TO.N,GND*%
X223780500Y-123919000D03*
%TO.P,ShiftRegisterIn2,16,VCC*%
%TO.N,Vdd_3v3*%
X221240500Y-123919000D03*
%TD*%
D15*
%TO.P,C6,1*%
%TO.N,RP2040-VREG_VOUT*%
X211500000Y-52000000D03*
D12*
%TO.P,C6,2*%
%TO.N,Vdd_3v3*%
X210000000Y-52000000D03*
%TD*%
D11*
%TO.P,C9,1*%
%TO.N,GND*%
X87000000Y-95000000D03*
D12*
%TO.P,C9,2*%
%TO.N,Net-(C9-Pad2)*%
X88500000Y-95000000D03*
%TD*%
D10*
%TO.P,R65,1*%
%TO.N,Net-(LedMatrixAddress2-Q2)*%
X169500000Y-95660000D03*
%TO.P,R65,2*%
%TO.N,Net-(D75-A)*%
X169500000Y-85500000D03*
%TD*%
D16*
%TO.P,D60,1,K*%
%TO.N,Net-(D60-K)*%
X216000000Y-125600000D03*
%TO.P,D60,2,A*%
%TO.N,Net-(D60-A)*%
X216000000Y-127000000D03*
%TD*%
%TO.P,D62,1,K*%
%TO.N,Net-(D62-K)*%
X208500000Y-125600000D03*
%TO.P,D62,2,A*%
%TO.N,Net-(D62-A)*%
X208500000Y-127000000D03*
%TD*%
D17*
%TO.P,D52,1,K*%
%TO.N,GND*%
X165909500Y-119000000D03*
D18*
%TO.P,D52,2,A*%
%TO.N,Net-(D52-A)*%
X163634500Y-119000000D03*
%TD*%
D17*
%TO.P,D45,1,K*%
%TO.N,GND*%
X91100000Y-132500000D03*
D18*
%TO.P,D45,2,A*%
%TO.N,Net-(D45-A)*%
X93375000Y-132500000D03*
%TD*%
D17*
%TO.P,D66,1,K*%
%TO.N,GND*%
X214500000Y-77500000D03*
D19*
%TO.P,D66,2,A*%
%TO.N,Net-(D66-A)*%
X214500000Y-79775000D03*
%TD*%
D10*
%TO.P,R58,1*%
%TO.N,Net-(LedMatrixAddress1-Q3)*%
X204500000Y-95660000D03*
%TO.P,R58,2*%
%TO.N,Net-(D68-A)*%
X204500000Y-85500000D03*
%TD*%
%TO.P,R62,1*%
%TO.N,Net-(LedMatrixAddress1-Q7)*%
X184500000Y-95580000D03*
%TO.P,R62,2*%
%TO.N,Net-(D72-A)*%
X184500000Y-85420000D03*
%TD*%
D20*
%TO.P,LDO1,1,GND*%
%TO.N,GND*%
X77091500Y-42786000D03*
%TO.P,LDO1,2,VO*%
%TO.N,Vdd_3v3*%
X77091500Y-45086000D03*
D21*
X83391500Y-45086000D03*
D20*
%TO.P,LDO1,3,VI*%
%TO.N,Vcc*%
X77091500Y-47386000D03*
%TD*%
D10*
%TO.P,R56,1*%
%TO.N,Net-(LedMatrixAddress1-Q1)*%
X214500000Y-95660000D03*
%TO.P,R56,2*%
%TO.N,Net-(D66-A)*%
X214500000Y-85500000D03*
%TD*%
D16*
%TO.P,D5,1,K*%
%TO.N,Net-(D5-K)*%
X203418600Y-103030500D03*
%TO.P,D5,2,A*%
%TO.N,Net-(D5-A)*%
X203418600Y-104430500D03*
%TD*%
%TO.P,D23,1,K*%
%TO.N,Net-(D23-K)*%
X211000000Y-114100000D03*
%TO.P,D23,2,A*%
%TO.N,Net-(D23-A)*%
X211000000Y-115500000D03*
%TD*%
%TO.P,D59,1,K*%
%TO.N,Net-(D59-K)*%
X211000000Y-125600000D03*
%TO.P,D59,2,A*%
%TO.N,Net-(D59-A)*%
X211000000Y-127000000D03*
%TD*%
D22*
%TO.P,F1,1*%
%TO.N,Vcc*%
X74726500Y-39586000D03*
%TO.P,F1,2*%
%TO.N,USB-C-VBUS*%
X73756500Y-39586000D03*
%TD*%
D17*
%TO.P,D73,1,K*%
%TO.N,GND*%
X179500000Y-77500000D03*
D19*
%TO.P,D73,2,A*%
%TO.N,Net-(D73-A)*%
X179500000Y-79775000D03*
%TD*%
D10*
%TO.P,R63,1*%
%TO.N,Net-(LedMatrixAddress2-Q0)*%
X179500000Y-95660000D03*
%TO.P,R63,2*%
%TO.N,Net-(D73-A)*%
X179500000Y-85500000D03*
%TD*%
D17*
%TO.P,D67,1,K*%
%TO.N,GND*%
X209500000Y-77500000D03*
D19*
%TO.P,D67,2,A*%
%TO.N,Net-(D67-A)*%
X209500000Y-79775000D03*
%TD*%
D10*
%TO.P,R55,1*%
%TO.N,Net-(LedMatrixAddress1-Q0)*%
X219500000Y-95660000D03*
%TO.P,R55,2*%
%TO.N,Net-(D65-A)*%
X219500000Y-85500000D03*
%TD*%
%TO.P,R6,1*%
%TO.N,Z80-RESET*%
X143429500Y-123283000D03*
%TO.P,R6,2*%
%TO.N,Vcc*%
X153589500Y-123283000D03*
%TD*%
%TO.P,R25,1*%
%TO.N,Net-(LedMatrixRead1-Q4)*%
X63000000Y-95000000D03*
%TO.P,R25,2*%
%TO.N,Net-(D43-A)*%
X63000000Y-84840000D03*
%TD*%
D16*
%TO.P,D29,1,K*%
%TO.N,Net-(D29-K)*%
X208500000Y-114100000D03*
%TO.P,D29,2,A*%
%TO.N,Net-(D29-A)*%
X208500000Y-115500000D03*
%TD*%
D17*
%TO.P,D55,1,K*%
%TO.N,RAM-WE*%
X165909500Y-129783000D03*
D18*
%TO.P,D55,2,A*%
%TO.N,Net-(D55-A)*%
X163634500Y-129783000D03*
%TD*%
D14*
%TO.P,LedMatrixAddress2,1,OE*%
%TO.N,GND*%
X145460000Y-109000000D03*
D10*
%TO.P,LedMatrixAddress2,2,D0*%
%TO.N,RAM-A8*%
X148000000Y-109000000D03*
%TO.P,LedMatrixAddress2,3,D1*%
%TO.N,RAM-A9*%
X150540000Y-109000000D03*
%TO.P,LedMatrixAddress2,4,D2*%
%TO.N,RAM-A10*%
X153080000Y-109000000D03*
%TO.P,LedMatrixAddress2,5,D3*%
%TO.N,RAM-A11*%
X155620000Y-109000000D03*
%TO.P,LedMatrixAddress2,6,D4*%
%TO.N,RAM-A12*%
X158160000Y-109000000D03*
%TO.P,LedMatrixAddress2,7,D5*%
%TO.N,RAM-A13*%
X160700000Y-109000000D03*
%TO.P,LedMatrixAddress2,8,D6*%
%TO.N,RAM-A14*%
X163240000Y-109000000D03*
%TO.P,LedMatrixAddress2,9,D7*%
%TO.N,RAM-CS*%
X165780000Y-109000000D03*
%TO.P,LedMatrixAddress2,10,GND*%
%TO.N,GND*%
X168320000Y-109000000D03*
%TO.P,LedMatrixAddress2,11,Cp*%
%TO.N,Z80-MREQ*%
X168320000Y-101380000D03*
%TO.P,LedMatrixAddress2,12,Q7*%
%TO.N,Net-(LedMatrixAddress2-Q7)*%
X165780000Y-101380000D03*
%TO.P,LedMatrixAddress2,13,Q6*%
%TO.N,Net-(LedMatrixAddress2-Q6)*%
X163240000Y-101380000D03*
%TO.P,LedMatrixAddress2,14,Q5*%
%TO.N,Net-(LedMatrixAddress2-Q5)*%
X160700000Y-101380000D03*
%TO.P,LedMatrixAddress2,15,Q4*%
%TO.N,Net-(LedMatrixAddress2-Q4)*%
X158160000Y-101380000D03*
%TO.P,LedMatrixAddress2,16,Q3*%
%TO.N,Net-(LedMatrixAddress2-Q3)*%
X155620000Y-101380000D03*
%TO.P,LedMatrixAddress2,17,Q2*%
%TO.N,Net-(LedMatrixAddress2-Q2)*%
X153080000Y-101380000D03*
%TO.P,LedMatrixAddress2,18,Q1*%
%TO.N,Net-(LedMatrixAddress2-Q1)*%
X150540000Y-101380000D03*
%TO.P,LedMatrixAddress2,19,Q0*%
%TO.N,Net-(LedMatrixAddress2-Q0)*%
X148000000Y-101380000D03*
%TO.P,LedMatrixAddress2,20,VCC*%
%TO.N,Vcc*%
X145460000Y-101380000D03*
%TD*%
D17*
%TO.P,D69,1,K*%
%TO.N,GND*%
X199500000Y-77500000D03*
D19*
%TO.P,D69,2,A*%
%TO.N,Net-(D69-A)*%
X199500000Y-79775000D03*
%TD*%
D10*
%TO.P,R17,1*%
%TO.N,RP2040-Z80BOOTMODE*%
X179740000Y-52000000D03*
%TO.P,R17,2*%
%TO.N,Vdd_3v3*%
X169580000Y-52000000D03*
%TD*%
%TO.P,R26,1*%
%TO.N,Net-(LedMatrixWrite1-Q5)*%
X58000000Y-108000000D03*
%TO.P,R26,2*%
%TO.N,Net-(D36-A)*%
X58000000Y-97840000D03*
%TD*%
%TO.P,R21,1*%
%TO.N,Z80-WR*%
X143432500Y-137000000D03*
%TO.P,R21,2*%
%TO.N,Net-(D55-A)*%
X153592500Y-137000000D03*
%TD*%
%TO.P,R70,1*%
%TO.N,Net-(LedMatrixAddress2-Q7)*%
X144500000Y-95580000D03*
%TO.P,R70,2*%
%TO.N,Net-(D80-A)*%
X144500000Y-85420000D03*
%TD*%
D17*
%TO.P,D36,1,K*%
%TO.N,GND*%
X58000000Y-67625000D03*
D19*
%TO.P,D36,2,A*%
%TO.N,Net-(D36-A)*%
X58000000Y-69900000D03*
%TD*%
D17*
%TO.P,D74,1,K*%
%TO.N,GND*%
X174500000Y-77500000D03*
D19*
%TO.P,D74,2,A*%
%TO.N,Net-(D74-A)*%
X174500000Y-79775000D03*
%TD*%
D17*
%TO.P,D1,1,K*%
%TO.N,GND*%
X165909500Y-126283000D03*
D18*
%TO.P,D1,2,A*%
%TO.N,Net-(D1-A)*%
X163634500Y-126283000D03*
%TD*%
D13*
%TO.P,DataBus3,1,DIR*%
%TO.N,Vcc*%
X223956100Y-101733500D03*
%TO.P,DataBus3,2,A1*%
%TO.N,Net-(D3-K)*%
X223956100Y-102383500D03*
%TO.P,DataBus3,3,A2*%
%TO.N,Net-(D5-K)*%
X223956100Y-103033500D03*
%TO.P,DataBus3,4,A3*%
%TO.N,Net-(D7-K)*%
X223956100Y-103683500D03*
%TO.P,DataBus3,5,A4*%
%TO.N,Net-(D9-K)*%
X223956100Y-104333500D03*
%TO.P,DataBus3,6,A5*%
%TO.N,Net-(D11-K)*%
X223956100Y-104983500D03*
%TO.P,DataBus3,7,A6*%
%TO.N,Net-(D13-K)*%
X223956100Y-105633500D03*
%TO.P,DataBus3,8,A7*%
%TO.N,Net-(D15-K)*%
X223956100Y-106283500D03*
%TO.P,DataBus3,9,A8*%
%TO.N,Net-(D17-K)*%
X223956100Y-106933500D03*
%TO.P,DataBus3,10,GND*%
%TO.N,GND*%
X223956100Y-107583500D03*
%TO.P,DataBus3,11,B8*%
%TO.N,RAM-A7*%
X229681100Y-107583500D03*
%TO.P,DataBus3,12,B7*%
%TO.N,RAM-A6*%
X229681100Y-106933500D03*
%TO.P,DataBus3,13,B6*%
%TO.N,RAM-A5*%
X229681100Y-106283500D03*
%TO.P,DataBus3,14,B5*%
%TO.N,RAM-A4*%
X229681100Y-105633500D03*
%TO.P,DataBus3,15,B4*%
%TO.N,RAM-A3*%
X229681100Y-104983500D03*
%TO.P,DataBus3,16,B3*%
%TO.N,RAM-A2*%
X229681100Y-104333500D03*
%TO.P,DataBus3,17,B2*%
%TO.N,RAM-A1*%
X229681100Y-103683500D03*
%TO.P,DataBus3,18,B1*%
%TO.N,RAM-A0*%
X229681100Y-103033500D03*
%TO.P,DataBus3,19,~{OE}*%
%TO.N,GND*%
X229681100Y-102383500D03*
%TO.P,DataBus3,20,VCC*%
%TO.N,Vcc*%
X229681100Y-101733500D03*
%TD*%
D10*
%TO.P,R64,1*%
%TO.N,Net-(LedMatrixAddress2-Q1)*%
X174500000Y-95660000D03*
%TO.P,R64,2*%
%TO.N,Net-(D74-A)*%
X174500000Y-85500000D03*
%TD*%
D17*
%TO.P,D72,1,K*%
%TO.N,GND*%
X184500000Y-77420000D03*
D19*
%TO.P,D72,2,A*%
%TO.N,Net-(D72-A)*%
X184500000Y-79695000D03*
%TD*%
D16*
%TO.P,D15,1,K*%
%TO.N,Net-(D15-K)*%
X215668600Y-103030500D03*
%TO.P,D15,2,A*%
%TO.N,Net-(D15-A)*%
X215668600Y-104430500D03*
%TD*%
D17*
%TO.P,D51,1,K*%
%TO.N,GND*%
X91100000Y-136500000D03*
D18*
%TO.P,D51,2,A*%
%TO.N,Net-(D51-A)*%
X93375000Y-136500000D03*
%TD*%
D10*
%TO.P,R9,1*%
%TO.N,Z80-M1*%
X143429500Y-119783000D03*
%TO.P,R9,2*%
%TO.N,Net-(D52-A)*%
X153589500Y-119783000D03*
%TD*%
D11*
%TO.P,C1,1*%
%TO.N,GND*%
X74391500Y-54936000D03*
D12*
%TO.P,C1,2*%
%TO.N,Vcc*%
X75891500Y-54936000D03*
%TD*%
D10*
%TO.P,R35,1*%
%TO.N,Net-(LedMatrixWrite1-Q1)*%
X78000000Y-108000000D03*
%TO.P,R35,2*%
%TO.N,Net-(D44-A)*%
X78000000Y-97840000D03*
%TD*%
%TO.P,R66,1*%
%TO.N,Net-(LedMatrixAddress2-Q3)*%
X164500000Y-95660000D03*
%TO.P,R66,2*%
%TO.N,Net-(D76-A)*%
X164500000Y-85500000D03*
%TD*%
D17*
%TO.P,D70,1,K*%
%TO.N,GND*%
X194500000Y-77420000D03*
D19*
%TO.P,D70,2,A*%
%TO.N,Net-(D70-A)*%
X194500000Y-79695000D03*
%TD*%
D13*
%TO.P,DataBus1,1,DIR*%
%TO.N,Vcc*%
X224237500Y-113103000D03*
%TO.P,DataBus1,2,A1*%
%TO.N,Net-(D19-K)*%
X224237500Y-113753000D03*
%TO.P,DataBus1,3,A2*%
%TO.N,Net-(D27-K)*%
X224237500Y-114403000D03*
%TO.P,DataBus1,4,A3*%
%TO.N,Net-(D21-K)*%
X224237500Y-115053000D03*
%TO.P,DataBus1,5,A4*%
%TO.N,Net-(D29-K)*%
X224237500Y-115703000D03*
%TO.P,DataBus1,6,A5*%
%TO.N,Net-(D23-K)*%
X224237500Y-116353000D03*
%TO.P,DataBus1,7,A6*%
%TO.N,Net-(D46-K)*%
X224237500Y-117003000D03*
%TO.P,DataBus1,8,A7*%
%TO.N,Net-(D25-K)*%
X224237500Y-117653000D03*
%TO.P,DataBus1,9,A8*%
%TO.N,Net-(D54-K)*%
X224237500Y-118303000D03*
%TO.P,DataBus1,10,GND*%
%TO.N,GND*%
X224237500Y-118953000D03*
%TO.P,DataBus1,11,B8*%
%TO.N,RAM-CS*%
X229962500Y-118953000D03*
%TO.P,DataBus1,12,B7*%
%TO.N,RAM-A14*%
X229962500Y-118303000D03*
%TO.P,DataBus1,13,B6*%
%TO.N,RAM-A13*%
X229962500Y-117653000D03*
%TO.P,DataBus1,14,B5*%
%TO.N,RAM-A12*%
X229962500Y-117003000D03*
%TO.P,DataBus1,15,B4*%
%TO.N,RAM-A11*%
X229962500Y-116353000D03*
%TO.P,DataBus1,16,B3*%
%TO.N,RAM-A10*%
X229962500Y-115703000D03*
%TO.P,DataBus1,17,B2*%
%TO.N,RAM-A9*%
X229962500Y-115053000D03*
%TO.P,DataBus1,18,B1*%
%TO.N,RAM-A8*%
X229962500Y-114403000D03*
%TO.P,DataBus1,19,~{OE}*%
%TO.N,GND*%
X229962500Y-113753000D03*
%TO.P,DataBus1,20,VCC*%
%TO.N,Vcc*%
X229962500Y-113103000D03*
%TD*%
D23*
%TO.P,SW1,1,1*%
%TO.N,GND*%
X247750000Y-115000000D03*
X254250000Y-115000000D03*
%TO.P,SW1,2,2*%
%TO.N,Z80-WAIT*%
X247750000Y-119500000D03*
X254250000Y-119500000D03*
%TD*%
D10*
%TO.P,R36,1*%
%TO.N,Net-(LedMatrixWrite1-Q0)*%
X83000000Y-108000000D03*
%TO.P,R36,2*%
%TO.N,Net-(D40-A)*%
X83000000Y-97840000D03*
%TD*%
D16*
%TO.P,D61,1,K*%
%TO.N,Net-(D61-K)*%
X203500000Y-125600000D03*
%TO.P,D61,2,A*%
%TO.N,Net-(D61-A)*%
X203500000Y-127000000D03*
%TD*%
D17*
%TO.P,D77,1,K*%
%TO.N,GND*%
X159500000Y-77500000D03*
D19*
%TO.P,D77,2,A*%
%TO.N,Net-(D77-A)*%
X159500000Y-79775000D03*
%TD*%
D17*
%TO.P,D33,1,K*%
%TO.N,GND*%
X48000000Y-77000000D03*
D19*
%TO.P,D33,2,A*%
%TO.N,Net-(D33-A)*%
X48000000Y-79275000D03*
%TD*%
D10*
%TO.P,R10,1*%
%TO.N,Z80-RFSH*%
X143429500Y-116283000D03*
%TO.P,R10,2*%
%TO.N,Net-(D53-A)*%
X153589500Y-116283000D03*
%TD*%
D15*
%TO.P,C5,1*%
%TO.N,RP2040-USB_VDD*%
X206650000Y-52000000D03*
D12*
%TO.P,C5,2*%
%TO.N,Vdd_3v3*%
X205150000Y-52000000D03*
%TD*%
D16*
%TO.P,D3,1,K*%
%TO.N,Net-(D3-K)*%
X200968600Y-103030500D03*
%TO.P,D3,2,A*%
%TO.N,Net-(D3-A)*%
X200968600Y-104430500D03*
%TD*%
D14*
%TO.P,ShiftRegisterOut3,1,QB*%
%TO.N,Net-(D5-A)*%
X179230500Y-108769500D03*
D10*
%TO.P,ShiftRegisterOut3,2,QC*%
%TO.N,Net-(D7-A)*%
X181770500Y-108769500D03*
%TO.P,ShiftRegisterOut3,3,QD*%
%TO.N,Net-(D9-A)*%
X184310500Y-108769500D03*
%TO.P,ShiftRegisterOut3,4,QE*%
%TO.N,Net-(D11-A)*%
X186850500Y-108769500D03*
%TO.P,ShiftRegisterOut3,5,QF*%
%TO.N,Net-(D13-A)*%
X189390500Y-108769500D03*
%TO.P,ShiftRegisterOut3,6,QG*%
%TO.N,Net-(D15-A)*%
X191930500Y-108769500D03*
%TO.P,ShiftRegisterOut3,7,QH*%
%TO.N,Net-(D17-A)*%
X194470500Y-108769500D03*
%TO.P,ShiftRegisterOut3,8,GND*%
%TO.N,GND*%
X197010500Y-108769500D03*
%TO.P,ShiftRegisterOut3,9,QH'*%
%TO.N,Net-(ShiftRegisterOut1-SER)*%
X197010500Y-101149500D03*
%TO.P,ShiftRegisterOut3,10,~{SRCLR}*%
%TO.N,Vdd_3v3*%
X194470500Y-101149500D03*
%TO.P,ShiftRegisterOut3,11,SRCLK*%
%TO.N,CLOCK_BUS*%
X191930500Y-101149500D03*
%TO.P,ShiftRegisterOut3,12,RCLK*%
%TO.N,RP2040-SH-GPIO4-RCLK*%
X189390500Y-101149500D03*
%TO.P,ShiftRegisterOut3,13,~{OE}*%
%TO.N,GND*%
X186850500Y-101149500D03*
%TO.P,ShiftRegisterOut3,14,SER*%
%TO.N,RP2040-SH-GPIO2-SER*%
X184310500Y-101149500D03*
%TO.P,ShiftRegisterOut3,15,QA*%
%TO.N,Net-(D3-A)*%
X181770500Y-101149500D03*
%TO.P,ShiftRegisterOut3,16,VCC*%
%TO.N,Vdd_3v3*%
X179230500Y-101149500D03*
%TD*%
D16*
%TO.P,D56,1,K*%
%TO.N,Net-(D56-K)*%
X201000000Y-125600000D03*
%TO.P,D56,2,A*%
%TO.N,Net-(D56-A)*%
X201000000Y-127000000D03*
%TD*%
D10*
%TO.P,R2,1*%
%TO.N,Vcc*%
X100920000Y-126000000D03*
%TO.P,R2,2*%
%TO.N,Z80-INT*%
X111080000Y-126000000D03*
%TD*%
%TO.P,R53,1*%
%TO.N,Net-(R16-Pad1)*%
X71340000Y-135000000D03*
%TO.P,R53,2*%
%TO.N,Net-(C13-Pad2)*%
X81500000Y-135000000D03*
%TD*%
D11*
%TO.P,C2,1*%
%TO.N,GND*%
X80391500Y-54936000D03*
D12*
%TO.P,C2,2*%
%TO.N,Vdd_3v3*%
X81891500Y-54936000D03*
%TD*%
D10*
%TO.P,R4,1*%
%TO.N,Z80-HALT*%
X111080000Y-133000000D03*
%TO.P,R4,2*%
%TO.N,Net-(D45-A)*%
X100920000Y-133000000D03*
%TD*%
D17*
%TO.P,D38,1,K*%
%TO.N,GND*%
X68000000Y-67625000D03*
D19*
%TO.P,D38,2,A*%
%TO.N,Net-(D38-A)*%
X68000000Y-69900000D03*
%TD*%
D23*
%TO.P,SW2,1,1*%
%TO.N,GND*%
X247750000Y-106750000D03*
X254250000Y-106750000D03*
%TO.P,SW2,2,2*%
%TO.N,Z80-RESET*%
X247750000Y-111250000D03*
X254250000Y-111250000D03*
%TD*%
D17*
%TO.P,D41,1,K*%
%TO.N,GND*%
X58000000Y-77000000D03*
D19*
%TO.P,D41,2,A*%
%TO.N,Net-(D41-A)*%
X58000000Y-79275000D03*
%TD*%
D10*
%TO.P,R37,1*%
%TO.N,Net-(LedMatrixWrite1-Q2)*%
X73000000Y-108000000D03*
%TO.P,R37,2*%
%TO.N,Net-(D42-A)*%
X73000000Y-97840000D03*
%TD*%
%TO.P,R68,1*%
%TO.N,Net-(LedMatrixAddress2-Q5)*%
X154500000Y-95660000D03*
%TO.P,R68,2*%
%TO.N,Net-(D78-A)*%
X154500000Y-85500000D03*
%TD*%
D17*
%TO.P,D50,1,K*%
%TO.N,GND*%
X91100000Y-140500000D03*
D18*
%TO.P,D50,2,A*%
%TO.N,Net-(D50-A)*%
X93375000Y-140500000D03*
%TD*%
D10*
%TO.P,R16,1*%
%TO.N,Net-(R16-Pad1)*%
X71420000Y-140000000D03*
%TO.P,R16,2*%
%TO.N,Vcc*%
X81580000Y-140000000D03*
%TD*%
D14*
%TO.P,RAM2,1,A14*%
%TO.N,RAM-A14*%
X131520000Y-63500000D03*
D10*
%TO.P,RAM2,2,A12*%
%TO.N,RAM-A12*%
X134060000Y-63500000D03*
%TO.P,RAM2,3,A7*%
%TO.N,RAM-A7*%
X136600000Y-63500000D03*
%TO.P,RAM2,4,A6*%
%TO.N,RAM-A6*%
X139140000Y-63500000D03*
%TO.P,RAM2,5,A5*%
%TO.N,RAM-A5*%
X141680000Y-63500000D03*
%TO.P,RAM2,6,A4*%
%TO.N,RAM-A4*%
X144220000Y-63500000D03*
%TO.P,RAM2,7,A3*%
%TO.N,RAM-A3*%
X146760000Y-63500000D03*
%TO.P,RAM2,8,A2*%
%TO.N,RAM-A2*%
X149300000Y-63500000D03*
%TO.P,RAM2,9,A1*%
%TO.N,RAM-A1*%
X151840000Y-63500000D03*
%TO.P,RAM2,10,A0*%
%TO.N,RAM-A0*%
X154380000Y-63500000D03*
%TO.P,RAM2,11,Q0*%
%TO.N,RAM-Q0*%
X156920000Y-63500000D03*
%TO.P,RAM2,12,Q1*%
%TO.N,RAM-Q1*%
X159460000Y-63500000D03*
%TO.P,RAM2,13,Q2*%
%TO.N,RAM-Q2*%
X162000000Y-63500000D03*
%TO.P,RAM2,14,GND*%
%TO.N,GND*%
X164540000Y-63500000D03*
%TO.P,RAM2,15,Q3*%
%TO.N,RAM-Q3*%
X164540000Y-48260000D03*
%TO.P,RAM2,16,Q4*%
%TO.N,RAM-Q4*%
X162000000Y-48260000D03*
%TO.P,RAM2,17,Q5*%
%TO.N,RAM-Q5*%
X159460000Y-48260000D03*
%TO.P,RAM2,18,Q6*%
%TO.N,RAM-Q6*%
X156920000Y-48260000D03*
%TO.P,RAM2,19,Q7*%
%TO.N,RAM-Q7*%
X154380000Y-48260000D03*
%TO.P,RAM2,20,~{CS}*%
%TO.N,RAM2-CS*%
X151840000Y-48260000D03*
%TO.P,RAM2,21,A10*%
%TO.N,RAM-A10*%
X149300000Y-48260000D03*
%TO.P,RAM2,22,~{OE}*%
%TO.N,RAM-OE*%
X146760000Y-48260000D03*
%TO.P,RAM2,23,A11*%
%TO.N,RAM-A11*%
X144220000Y-48260000D03*
%TO.P,RAM2,24,A9*%
%TO.N,RAM-A9*%
X141680000Y-48260000D03*
%TO.P,RAM2,25,A8*%
%TO.N,RAM-A8*%
X139140000Y-48260000D03*
%TO.P,RAM2,26,A13*%
%TO.N,RAM-A13*%
X136600000Y-48260000D03*
%TO.P,RAM2,27,~{WE}*%
%TO.N,RAM-WE*%
X134060000Y-48260000D03*
%TO.P,RAM2,28,VCC*%
%TO.N,Vcc*%
X131520000Y-48260000D03*
%TD*%
D24*
%TO.P,U3,1*%
%TO.N,Z80-MREQ*%
X82380000Y-113760000D03*
D10*
%TO.P,U3,2*%
%TO.N,Z80-RD*%
X82380000Y-116300000D03*
%TO.P,U3,3*%
%TO.N,Net-(LedMatrixRead1-Cp)*%
X82380000Y-118840000D03*
%TO.P,U3,4*%
%TO.N,Z80-MREQ*%
X82380000Y-121380000D03*
%TO.P,U3,5*%
%TO.N,Z80-WR*%
X82380000Y-123920000D03*
%TO.P,U3,6*%
%TO.N,Net-(LedMatrixWrite1-Cp)*%
X82380000Y-126460000D03*
%TO.P,U3,7,GND*%
%TO.N,GND*%
X82380000Y-129000000D03*
%TO.P,U3,8*%
%TO.N,N/C*%
X90000000Y-129000000D03*
%TO.P,U3,9*%
X90000000Y-126460000D03*
%TO.P,U3,10*%
X90000000Y-123920000D03*
%TO.P,U3,11*%
X90000000Y-121380000D03*
%TO.P,U3,12*%
X90000000Y-118840000D03*
%TO.P,U3,13*%
X90000000Y-116300000D03*
%TO.P,U3,14,VCC*%
%TO.N,Vcc*%
X90000000Y-113760000D03*
%TD*%
%TO.P,R31,1*%
%TO.N,Net-(LedMatrixRead1-Q5)*%
X58000000Y-95000000D03*
%TO.P,R31,2*%
%TO.N,Net-(D41-A)*%
X58000000Y-84840000D03*
%TD*%
D17*
%TO.P,D40,1,K*%
%TO.N,GND*%
X83000000Y-67625000D03*
D19*
%TO.P,D40,2,A*%
%TO.N,Net-(D40-A)*%
X83000000Y-69900000D03*
%TD*%
D17*
%TO.P,D43,1,K*%
%TO.N,GND*%
X63000000Y-77000000D03*
D19*
%TO.P,D43,2,A*%
%TO.N,Net-(D43-A)*%
X63000000Y-79275000D03*
%TD*%
D17*
%TO.P,D39,1,K*%
%TO.N,GND*%
X68000000Y-77000000D03*
D19*
%TO.P,D39,2,A*%
%TO.N,Net-(D39-A)*%
X68000000Y-79275000D03*
%TD*%
D16*
%TO.P,D25,1,K*%
%TO.N,Net-(D25-K)*%
X216000000Y-114100000D03*
%TO.P,D25,2,A*%
%TO.N,Net-(D25-A)*%
X216000000Y-115500000D03*
%TD*%
D10*
%TO.P,R30,1*%
%TO.N,Net-(LedMatrixRead1-Q1)*%
X78000000Y-95000000D03*
%TO.P,R30,2*%
%TO.N,Net-(D47-A)*%
X78000000Y-84840000D03*
%TD*%
%TO.P,R60,1*%
%TO.N,Net-(LedMatrixAddress1-Q5)*%
X194500000Y-95580000D03*
%TO.P,R60,2*%
%TO.N,Net-(D70-A)*%
X194500000Y-85420000D03*
%TD*%
D15*
%TO.P,C4,1*%
%TO.N,RP2040-IOVDD*%
X201800000Y-52000000D03*
D12*
%TO.P,C4,2*%
%TO.N,Vdd_3v3*%
X200300000Y-52000000D03*
%TD*%
D10*
%TO.P,R28,1*%
%TO.N,Net-(LedMatrixWrite1-Q6)*%
X53000000Y-108000000D03*
%TO.P,R28,2*%
%TO.N,Net-(D48-A)*%
X53000000Y-97840000D03*
%TD*%
D11*
%TO.P,C11,1*%
%TO.N,GND*%
X160000000Y-69000000D03*
D12*
%TO.P,C11,2*%
%TO.N,RP2040_XOUT*%
X161500000Y-69000000D03*
%TD*%
D10*
%TO.P,R24,1*%
%TO.N,Net-(LedMatrixRead1-Q2)*%
X73000000Y-95000000D03*
%TO.P,R24,2*%
%TO.N,Net-(D37-A)*%
X73000000Y-84840000D03*
%TD*%
D25*
%TO.P,USB_C1,A1,GND*%
%TO.N,GND*%
X69475000Y-44360000D03*
%TO.P,USB_C1,A4,VBUS*%
%TO.N,USB-C-VBUS*%
X68625000Y-44360000D03*
%TO.P,USB_C1,A5,CC1*%
%TO.N,USB-C-CC1*%
X67775000Y-44360000D03*
%TO.P,USB_C1,A6,D+*%
%TO.N,USB-RP2040-DP*%
X66925000Y-44360000D03*
%TO.P,USB_C1,A7,D-*%
%TO.N,USB-RP2040-DM*%
X66075000Y-44360000D03*
%TO.P,USB_C1,A8*%
%TO.N,N/C*%
X65225000Y-44360000D03*
%TO.P,USB_C1,A9,VBUS*%
%TO.N,USB-C-VBUS*%
X64375000Y-44360000D03*
%TO.P,USB_C1,A12,GND*%
%TO.N,GND*%
X63525000Y-44360000D03*
%TO.P,USB_C1,B1,GND*%
X63525000Y-43010000D03*
%TO.P,USB_C1,B4,VBUS*%
%TO.N,USB-C-VBUS*%
X64375000Y-43010000D03*
%TO.P,USB_C1,B5,CC2*%
%TO.N,USB-C-CC2*%
X65225000Y-43010000D03*
%TO.P,USB_C1,B6,D+*%
%TO.N,USB-RP2040-DP*%
X66075000Y-43010000D03*
%TO.P,USB_C1,B7,D-*%
%TO.N,USB-RP2040-DM*%
X66925000Y-43010000D03*
%TO.P,USB_C1,B8*%
%TO.N,N/C*%
X67775000Y-43010000D03*
%TO.P,USB_C1,B9,VBUS*%
%TO.N,USB-C-VBUS*%
X68625000Y-43010000D03*
%TO.P,USB_C1,B12,GND*%
%TO.N,GND*%
X69475000Y-43010000D03*
D26*
%TO.P,USB_C1,S1,SHIELD*%
%TO.N,Net-(USB_C1-SHIELD)*%
X70825000Y-43380000D03*
D27*
X70825000Y-40000000D03*
D26*
X62175000Y-43380000D03*
D27*
X62175000Y-40000000D03*
%TD*%
D10*
%TO.P,R23,1*%
%TO.N,Net-(LedMatrixRead1-Q0)*%
X83000000Y-95000000D03*
%TO.P,R23,2*%
%TO.N,Net-(D31-A)*%
X83000000Y-84840000D03*
%TD*%
%TO.P,R5,1*%
%TO.N,Z80-WAIT*%
X143340000Y-130283000D03*
%TO.P,R5,2*%
%TO.N,Vcc*%
X153500000Y-130283000D03*
%TD*%
D16*
%TO.P,D19,1,K*%
%TO.N,Net-(D19-K)*%
X201100000Y-114100000D03*
%TO.P,D19,2,A*%
%TO.N,Net-(D19-A)*%
X201100000Y-115500000D03*
%TD*%
D17*
%TO.P,D76,1,K*%
%TO.N,GND*%
X164500000Y-77500000D03*
D19*
%TO.P,D76,2,A*%
%TO.N,Net-(D76-A)*%
X164500000Y-79775000D03*
%TD*%
D16*
%TO.P,D21,1,K*%
%TO.N,Net-(D21-K)*%
X206000000Y-114100000D03*
%TO.P,D21,2,A*%
%TO.N,Net-(D21-A)*%
X206000000Y-115500000D03*
%TD*%
D17*
%TO.P,D49,1,K*%
%TO.N,RAM-OE*%
X165909500Y-133283000D03*
D18*
%TO.P,D49,2,A*%
%TO.N,Net-(D49-A)*%
X163634500Y-133283000D03*
%TD*%
D23*
%TO.P,SW3,1,1*%
%TO.N,GND*%
X247750000Y-89750000D03*
X254250000Y-89750000D03*
%TO.P,SW3,2,2*%
%TO.N,RP2040-Z80BOOTMODE*%
X247750000Y-94250000D03*
X254250000Y-94250000D03*
%TD*%
D17*
%TO.P,D78,1,K*%
%TO.N,GND*%
X154500000Y-77500000D03*
D19*
%TO.P,D78,2,A*%
%TO.N,Net-(D78-A)*%
X154500000Y-79775000D03*
%TD*%
D14*
%TO.P,LedMatrixWrite1,1,OE*%
%TO.N,GND*%
X54000000Y-130000000D03*
D10*
%TO.P,LedMatrixWrite1,2,D0*%
%TO.N,RAM-Q0*%
X56540000Y-130000000D03*
%TO.P,LedMatrixWrite1,3,D1*%
%TO.N,RAM-Q1*%
X59080000Y-130000000D03*
%TO.P,LedMatrixWrite1,4,D2*%
%TO.N,RAM-Q2*%
X61620000Y-130000000D03*
%TO.P,LedMatrixWrite1,5,D3*%
%TO.N,RAM-Q3*%
X64160000Y-130000000D03*
%TO.P,LedMatrixWrite1,6,D4*%
%TO.N,RAM-Q4*%
X66700000Y-130000000D03*
%TO.P,LedMatrixWrite1,7,D5*%
%TO.N,RAM-Q5*%
X69240000Y-130000000D03*
%TO.P,LedMatrixWrite1,8,D6*%
%TO.N,RAM-Q6*%
X71780000Y-130000000D03*
%TO.P,LedMatrixWrite1,9,D7*%
%TO.N,RAM-Q7*%
X74320000Y-130000000D03*
%TO.P,LedMatrixWrite1,10,GND*%
%TO.N,GND*%
X76860000Y-130000000D03*
%TO.P,LedMatrixWrite1,11,Cp*%
%TO.N,Net-(LedMatrixWrite1-Cp)*%
X76860000Y-122380000D03*
%TO.P,LedMatrixWrite1,12,Q7*%
%TO.N,Net-(LedMatrixWrite1-Q7)*%
X74320000Y-122380000D03*
%TO.P,LedMatrixWrite1,13,Q6*%
%TO.N,Net-(LedMatrixWrite1-Q6)*%
X71780000Y-122380000D03*
%TO.P,LedMatrixWrite1,14,Q5*%
%TO.N,Net-(LedMatrixWrite1-Q5)*%
X69240000Y-122380000D03*
%TO.P,LedMatrixWrite1,15,Q4*%
%TO.N,Net-(LedMatrixWrite1-Q4)*%
X66700000Y-122380000D03*
%TO.P,LedMatrixWrite1,16,Q3*%
%TO.N,Net-(LedMatrixWrite1-Q3)*%
X64160000Y-122380000D03*
%TO.P,LedMatrixWrite1,17,Q2*%
%TO.N,Net-(LedMatrixWrite1-Q2)*%
X61620000Y-122380000D03*
%TO.P,LedMatrixWrite1,18,Q1*%
%TO.N,Net-(LedMatrixWrite1-Q1)*%
X59080000Y-122380000D03*
%TO.P,LedMatrixWrite1,19,Q0*%
%TO.N,Net-(LedMatrixWrite1-Q0)*%
X56540000Y-122380000D03*
%TO.P,LedMatrixWrite1,20,VCC*%
%TO.N,Vcc*%
X54000000Y-122380000D03*
%TD*%
D16*
%TO.P,D17,1,K*%
%TO.N,Net-(D17-K)*%
X218168600Y-103030500D03*
%TO.P,D17,2,A*%
%TO.N,Net-(D17-A)*%
X218168600Y-104430500D03*
%TD*%
D17*
%TO.P,D35,1,K*%
%TO.N,GND*%
X53000000Y-77000000D03*
D19*
%TO.P,D35,2,A*%
%TO.N,Net-(D35-A)*%
X53000000Y-79275000D03*
%TD*%
D14*
%TO.P,LedMatrixRead1,1,OE*%
%TO.N,GND*%
X54000000Y-119620000D03*
D10*
%TO.P,LedMatrixRead1,2,D0*%
%TO.N,RAM-Q0*%
X56540000Y-119620000D03*
%TO.P,LedMatrixRead1,3,D1*%
%TO.N,RAM-Q1*%
X59080000Y-119620000D03*
%TO.P,LedMatrixRead1,4,D2*%
%TO.N,RAM-Q2*%
X61620000Y-119620000D03*
%TO.P,LedMatrixRead1,5,D3*%
%TO.N,RAM-Q3*%
X64160000Y-119620000D03*
%TO.P,LedMatrixRead1,6,D4*%
%TO.N,RAM-Q4*%
X66700000Y-119620000D03*
%TO.P,LedMatrixRead1,7,D5*%
%TO.N,RAM-Q5*%
X69240000Y-119620000D03*
%TO.P,LedMatrixRead1,8,D6*%
%TO.N,RAM-Q6*%
X71780000Y-119620000D03*
%TO.P,LedMatrixRead1,9,D7*%
%TO.N,RAM-Q7*%
X74320000Y-119620000D03*
%TO.P,LedMatrixRead1,10,GND*%
%TO.N,GND*%
X76860000Y-119620000D03*
%TO.P,LedMatrixRead1,11,Cp*%
%TO.N,Net-(LedMatrixRead1-Cp)*%
X76860000Y-112000000D03*
%TO.P,LedMatrixRead1,12,Q7*%
%TO.N,Net-(LedMatrixRead1-Q7)*%
X74320000Y-112000000D03*
%TO.P,LedMatrixRead1,13,Q6*%
%TO.N,Net-(LedMatrixRead1-Q6)*%
X71780000Y-112000000D03*
%TO.P,LedMatrixRead1,14,Q5*%
%TO.N,Net-(LedMatrixRead1-Q5)*%
X69240000Y-112000000D03*
%TO.P,LedMatrixRead1,15,Q4*%
%TO.N,Net-(LedMatrixRead1-Q4)*%
X66700000Y-112000000D03*
%TO.P,LedMatrixRead1,16,Q3*%
%TO.N,Net-(LedMatrixRead1-Q3)*%
X64160000Y-112000000D03*
%TO.P,LedMatrixRead1,17,Q2*%
%TO.N,Net-(LedMatrixRead1-Q2)*%
X61620000Y-112000000D03*
%TO.P,LedMatrixRead1,18,Q1*%
%TO.N,Net-(LedMatrixRead1-Q1)*%
X59080000Y-112000000D03*
%TO.P,LedMatrixRead1,19,Q0*%
%TO.N,Net-(LedMatrixRead1-Q0)*%
X56540000Y-112000000D03*
%TO.P,LedMatrixRead1,20,VCC*%
%TO.N,Vcc*%
X54000000Y-112000000D03*
%TD*%
%TO.P,R7,1*%
%TO.N,Z80-IORQ*%
X111080000Y-140000000D03*
%TO.P,R7,2*%
%TO.N,Net-(D50-A)*%
X100920000Y-140000000D03*
%TD*%
D17*
%TO.P,D53,1,K*%
%TO.N,GND*%
X165909500Y-115500000D03*
D18*
%TO.P,D53,2,A*%
%TO.N,Net-(D53-A)*%
X163634500Y-115500000D03*
%TD*%
D10*
%TO.P,R13,1*%
%TO.N,USB-C-CC2*%
X46741500Y-43586000D03*
%TO.P,R13,2*%
%TO.N,GND*%
X46741500Y-53746000D03*
%TD*%
%TO.P,R32,1*%
%TO.N,Net-(LedMatrixRead1-Q7)*%
X48000000Y-95000000D03*
%TO.P,R32,2*%
%TO.N,Net-(D33-A)*%
X48000000Y-84840000D03*
%TD*%
D16*
%TO.P,D9,1,K*%
%TO.N,Net-(D9-K)*%
X208318600Y-103030500D03*
%TO.P,D9,2,A*%
%TO.N,Net-(D9-A)*%
X208318600Y-104430500D03*
%TD*%
D24*
%TO.P,LedMatrixAddress1,1,OE*%
%TO.N,GND*%
X224000000Y-69640000D03*
D10*
%TO.P,LedMatrixAddress1,2,D0*%
%TO.N,RAM-A0*%
X224000000Y-72180000D03*
%TO.P,LedMatrixAddress1,3,D1*%
%TO.N,RAM-A1*%
X224000000Y-74720000D03*
%TO.P,LedMatrixAddress1,4,D2*%
%TO.N,RAM-A2*%
X224000000Y-77260000D03*
%TO.P,LedMatrixAddress1,5,D3*%
%TO.N,RAM-A3*%
X224000000Y-79800000D03*
%TO.P,LedMatrixAddress1,6,D4*%
%TO.N,RAM-A4*%
X224000000Y-82340000D03*
%TO.P,LedMatrixAddress1,7,D5*%
%TO.N,RAM-A5*%
X224000000Y-84880000D03*
%TO.P,LedMatrixAddress1,8,D6*%
%TO.N,RAM-A6*%
X224000000Y-87420000D03*
%TO.P,LedMatrixAddress1,9,D7*%
%TO.N,RAM-A7*%
X224000000Y-89960000D03*
%TO.P,LedMatrixAddress1,10,GND*%
%TO.N,GND*%
X224000000Y-92500000D03*
%TO.P,LedMatrixAddress1,11,Cp*%
%TO.N,Z80-MREQ*%
X231620000Y-92500000D03*
%TO.P,LedMatrixAddress1,12,Q7*%
%TO.N,Net-(LedMatrixAddress1-Q7)*%
X231620000Y-89960000D03*
%TO.P,LedMatrixAddress1,13,Q6*%
%TO.N,Net-(LedMatrixAddress1-Q6)*%
X231620000Y-87420000D03*
%TO.P,LedMatrixAddress1,14,Q5*%
%TO.N,Net-(LedMatrixAddress1-Q5)*%
X231620000Y-84880000D03*
%TO.P,LedMatrixAddress1,15,Q4*%
%TO.N,Net-(LedMatrixAddress1-Q4)*%
X231620000Y-82340000D03*
%TO.P,LedMatrixAddress1,16,Q3*%
%TO.N,Net-(LedMatrixAddress1-Q3)*%
X231620000Y-79800000D03*
%TO.P,LedMatrixAddress1,17,Q2*%
%TO.N,Net-(LedMatrixAddress1-Q2)*%
X231620000Y-77260000D03*
%TO.P,LedMatrixAddress1,18,Q1*%
%TO.N,Net-(LedMatrixAddress1-Q1)*%
X231620000Y-74720000D03*
%TO.P,LedMatrixAddress1,19,Q0*%
%TO.N,Net-(LedMatrixAddress1-Q0)*%
X231620000Y-72180000D03*
%TO.P,LedMatrixAddress1,20,VCC*%
%TO.N,Vcc*%
X231620000Y-69640000D03*
%TD*%
D17*
%TO.P,D37,1,K*%
%TO.N,GND*%
X73000000Y-77000000D03*
D19*
%TO.P,D37,2,A*%
%TO.N,Net-(D37-A)*%
X73000000Y-79275000D03*
%TD*%
D16*
%TO.P,D63,1,K*%
%TO.N,Net-(D63-K)*%
X213500000Y-125600000D03*
%TO.P,D63,2,A*%
%TO.N,Net-(D63-A)*%
X213500000Y-127000000D03*
%TD*%
D10*
%TO.P,R33,1*%
%TO.N,Net-(LedMatrixRead1-Q6)*%
X53000000Y-95000000D03*
%TO.P,R33,2*%
%TO.N,Net-(D35-A)*%
X53000000Y-84840000D03*
%TD*%
%TO.P,R22,1*%
%TO.N,Net-(LedMatrixRead1-Q3)*%
X68000000Y-95000000D03*
%TO.P,R22,2*%
%TO.N,Net-(D39-A)*%
X68000000Y-84840000D03*
%TD*%
%TO.P,R59,1*%
%TO.N,Net-(LedMatrixAddress1-Q4)*%
X199500000Y-95660000D03*
%TO.P,R59,2*%
%TO.N,Net-(D69-A)*%
X199500000Y-85500000D03*
%TD*%
%TO.P,R14,1*%
%TO.N,GND*%
X58391500Y-53786000D03*
%TO.P,R14,2*%
%TO.N,Net-(USB_C1-SHIELD)*%
X58391500Y-43626000D03*
%TD*%
D16*
%TO.P,D58,1,K*%
%TO.N,Net-(D58-K)*%
X206000000Y-125600000D03*
%TO.P,D58,2,A*%
%TO.N,Net-(D58-A)*%
X206000000Y-127000000D03*
%TD*%
D10*
%TO.P,R3,1*%
%TO.N,Z80-NMI*%
X111080000Y-129500000D03*
%TO.P,R3,2*%
%TO.N,Vcc*%
X100920000Y-129500000D03*
%TD*%
D16*
%TO.P,D27,1,K*%
%TO.N,Net-(D27-K)*%
X203500000Y-114100000D03*
%TO.P,D27,2,A*%
%TO.N,Net-(D27-A)*%
X203500000Y-115500000D03*
%TD*%
D17*
%TO.P,D80,1,K*%
%TO.N,GND*%
X144500000Y-77420000D03*
D19*
%TO.P,D80,2,A*%
%TO.N,Net-(D80-A)*%
X144500000Y-79695000D03*
%TD*%
D14*
%TO.P,ShiftRegisterOut2,1,QB*%
%TO.N,Net-(D61-A)*%
X179220000Y-131620000D03*
D10*
%TO.P,ShiftRegisterOut2,2,QC*%
%TO.N,Net-(D58-A)*%
X181760000Y-131620000D03*
%TO.P,ShiftRegisterOut2,3,QD*%
%TO.N,Net-(D62-A)*%
X184300000Y-131620000D03*
%TO.P,ShiftRegisterOut2,4,QE*%
%TO.N,Net-(D59-A)*%
X186840000Y-131620000D03*
%TO.P,ShiftRegisterOut2,5,QF*%
%TO.N,Net-(D63-A)*%
X189380000Y-131620000D03*
%TO.P,ShiftRegisterOut2,6,QG*%
%TO.N,Net-(D60-A)*%
X191920000Y-131620000D03*
%TO.P,ShiftRegisterOut2,7,QH*%
%TO.N,Net-(D64-A)*%
X194460000Y-131620000D03*
%TO.P,ShiftRegisterOut2,8,GND*%
%TO.N,GND*%
X197000000Y-131620000D03*
%TO.P,ShiftRegisterOut2,9,QH'*%
%TO.N,unconnected-(ShiftRegisterOut2-QH'-Pad9)*%
X197000000Y-124000000D03*
%TO.P,ShiftRegisterOut2,10,~{SRCLR}*%
%TO.N,Vdd_3v3*%
X194460000Y-124000000D03*
%TO.P,ShiftRegisterOut2,11,SRCLK*%
%TO.N,CLOCK_BUS*%
X191920000Y-124000000D03*
%TO.P,ShiftRegisterOut2,12,RCLK*%
%TO.N,RP2040-SH-GPIO4-RCLK*%
X189380000Y-124000000D03*
%TO.P,ShiftRegisterOut2,13,~{OE}*%
%TO.N,GND*%
X186840000Y-124000000D03*
%TO.P,ShiftRegisterOut2,14,SER*%
%TO.N,RP2040-SH-GPIO3-SER*%
X184300000Y-124000000D03*
%TO.P,ShiftRegisterOut2,15,QA*%
%TO.N,Net-(D56-A)*%
X181760000Y-124000000D03*
%TO.P,ShiftRegisterOut2,16,VCC*%
%TO.N,Vdd_3v3*%
X179220000Y-124000000D03*
%TD*%
%TO.P,R29,1*%
%TO.N,Net-(LedMatrixWrite1-Q4)*%
X63000000Y-108000000D03*
%TO.P,R29,2*%
%TO.N,Net-(D32-A)*%
X63000000Y-97840000D03*
%TD*%
D17*
%TO.P,D47,1,K*%
%TO.N,GND*%
X78000000Y-77000000D03*
D19*
%TO.P,D47,2,A*%
%TO.N,Net-(D47-A)*%
X78000000Y-79275000D03*
%TD*%
D14*
%TO.P,ShiftRegisterOut1,1,QB*%
%TO.N,Net-(D27-A)*%
X179231900Y-119944000D03*
D10*
%TO.P,ShiftRegisterOut1,2,QC*%
%TO.N,Net-(D21-A)*%
X181771900Y-119944000D03*
%TO.P,ShiftRegisterOut1,3,QD*%
%TO.N,Net-(D29-A)*%
X184311900Y-119944000D03*
%TO.P,ShiftRegisterOut1,4,QE*%
%TO.N,Net-(D23-A)*%
X186851900Y-119944000D03*
%TO.P,ShiftRegisterOut1,5,QF*%
%TO.N,Net-(D46-A)*%
X189391900Y-119944000D03*
%TO.P,ShiftRegisterOut1,6,QG*%
%TO.N,Net-(D25-A)*%
X191931900Y-119944000D03*
%TO.P,ShiftRegisterOut1,7,QH*%
%TO.N,Net-(D54-A)*%
X194471900Y-119944000D03*
%TO.P,ShiftRegisterOut1,8,GND*%
%TO.N,GND*%
X197011900Y-119944000D03*
%TO.P,ShiftRegisterOut1,9,QH'*%
%TO.N,unconnected-(ShiftRegisterOut1-QH'-Pad9)*%
X197011900Y-112324000D03*
%TO.P,ShiftRegisterOut1,10,~{SRCLR}*%
%TO.N,Vdd_3v3*%
X194471900Y-112324000D03*
%TO.P,ShiftRegisterOut1,11,SRCLK*%
%TO.N,CLOCK_BUS*%
X191931900Y-112324000D03*
%TO.P,ShiftRegisterOut1,12,RCLK*%
%TO.N,RP2040-SH-GPIO4-RCLK*%
X189391900Y-112324000D03*
%TO.P,ShiftRegisterOut1,13,~{OE}*%
%TO.N,GND*%
X186851900Y-112324000D03*
%TO.P,ShiftRegisterOut1,14,SER*%
%TO.N,Net-(ShiftRegisterOut1-SER)*%
X184311900Y-112324000D03*
%TO.P,ShiftRegisterOut1,15,QA*%
%TO.N,Net-(D19-A)*%
X181771900Y-112324000D03*
%TO.P,ShiftRegisterOut1,16,VCC*%
%TO.N,Vdd_3v3*%
X179231900Y-112324000D03*
%TD*%
D23*
%TO.P,SW4,1,1*%
%TO.N,GND*%
X247750000Y-98300000D03*
X254250000Y-98300000D03*
%TO.P,SW4,2,2*%
%TO.N,RP2040-RPBOOTMODE*%
X247750000Y-102800000D03*
X254250000Y-102800000D03*
%TD*%
D14*
%TO.P,RAM1,1,A14*%
%TO.N,RAM-A14*%
X91600000Y-63500000D03*
D10*
%TO.P,RAM1,2,A12*%
%TO.N,RAM-A12*%
X94140000Y-63500000D03*
%TO.P,RAM1,3,A7*%
%TO.N,RAM-A7*%
X96680000Y-63500000D03*
%TO.P,RAM1,4,A6*%
%TO.N,RAM-A6*%
X99220000Y-63500000D03*
%TO.P,RAM1,5,A5*%
%TO.N,RAM-A5*%
X101760000Y-63500000D03*
%TO.P,RAM1,6,A4*%
%TO.N,RAM-A4*%
X104300000Y-63500000D03*
%TO.P,RAM1,7,A3*%
%TO.N,RAM-A3*%
X106840000Y-63500000D03*
%TO.P,RAM1,8,A2*%
%TO.N,RAM-A2*%
X109380000Y-63500000D03*
%TO.P,RAM1,9,A1*%
%TO.N,RAM-A1*%
X111920000Y-63500000D03*
%TO.P,RAM1,10,A0*%
%TO.N,RAM-A0*%
X114460000Y-63500000D03*
%TO.P,RAM1,11,Q0*%
%TO.N,RAM-Q0*%
X117000000Y-63500000D03*
%TO.P,RAM1,12,Q1*%
%TO.N,RAM-Q1*%
X119540000Y-63500000D03*
%TO.P,RAM1,13,Q2*%
%TO.N,RAM-Q2*%
X122080000Y-63500000D03*
%TO.P,RAM1,14,GND*%
%TO.N,GND*%
X124620000Y-63500000D03*
%TO.P,RAM1,15,Q3*%
%TO.N,RAM-Q3*%
X124620000Y-48260000D03*
%TO.P,RAM1,16,Q4*%
%TO.N,RAM-Q4*%
X122080000Y-48260000D03*
%TO.P,RAM1,17,Q5*%
%TO.N,RAM-Q5*%
X119540000Y-48260000D03*
%TO.P,RAM1,18,Q6*%
%TO.N,RAM-Q6*%
X117000000Y-48260000D03*
%TO.P,RAM1,19,Q7*%
%TO.N,RAM-Q7*%
X114460000Y-48260000D03*
%TO.P,RAM1,20,~{CS}*%
%TO.N,RAM-CS*%
X111920000Y-48260000D03*
%TO.P,RAM1,21,A10*%
%TO.N,RAM-A10*%
X109380000Y-48260000D03*
%TO.P,RAM1,22,~{OE}*%
%TO.N,RAM-OE*%
X106840000Y-48260000D03*
%TO.P,RAM1,23,A11*%
%TO.N,RAM-A11*%
X104300000Y-48260000D03*
%TO.P,RAM1,24,A9*%
%TO.N,RAM-A9*%
X101760000Y-48260000D03*
%TO.P,RAM1,25,A8*%
%TO.N,RAM-A8*%
X99220000Y-48260000D03*
%TO.P,RAM1,26,A13*%
%TO.N,RAM-A13*%
X96680000Y-48260000D03*
%TO.P,RAM1,27,~{WE}*%
%TO.N,RAM-WE*%
X94140000Y-48260000D03*
%TO.P,RAM1,28,VCC*%
%TO.N,Vcc*%
X91600000Y-48260000D03*
%TD*%
D28*
%TO.P,RP2040_1,1,IOVDD*%
%TO.N,RP2040-IOVDD*%
X182016500Y-56136000D03*
%TO.P,RP2040_1,2,GPIO0*%
%TO.N,RP2040-RPBOOTMODE*%
X182016500Y-56536000D03*
%TO.P,RP2040_1,3,GPIO1*%
%TO.N,RP2040-Z80BOOTMODE*%
X182016500Y-56936000D03*
%TO.P,RP2040_1,4,GPIO2*%
%TO.N,RP2040-SH-GPIO2-SER*%
X182016500Y-57336000D03*
%TO.P,RP2040_1,5,GPIO3*%
%TO.N,RP2040-SH-GPIO3-SER*%
X182016500Y-57736000D03*
%TO.P,RP2040_1,6,GPIO4*%
%TO.N,RP2040-SH-GPIO4-RCLK*%
X182016500Y-58136000D03*
%TO.P,RP2040_1,7,GPIO5*%
%TO.N,RP2040-RWRAM-GPIO5-DIR*%
X182016500Y-58536000D03*
%TO.P,RP2040_1,8,GPIO6*%
%TO.N,RP2040-RWRAM-GPIO6-DS*%
X182016500Y-58936000D03*
%TO.P,RP2040_1,9,GPIO7*%
%TO.N,RP2040-RWRAM-GPIO7-Q7*%
X182016500Y-59336000D03*
%TO.P,RP2040_1,10,IOVDD*%
%TO.N,RP2040-IOVDD*%
X182016500Y-59736000D03*
%TO.P,RP2040_1,11,GPIO8*%
%TO.N,RP2040-RWRAM-GPIO8-PL*%
X182016500Y-60136000D03*
%TO.P,RP2040_1,12,GPIO9*%
%TO.N,unconnected-(RP2040_1-GPIO9-Pad12)*%
X182016500Y-60536000D03*
%TO.P,RP2040_1,13,GPIO10*%
%TO.N,unconnected-(RP2040_1-GPIO10-Pad13)*%
X182016500Y-60936000D03*
%TO.P,RP2040_1,14,GPIO11*%
%TO.N,unconnected-(RP2040_1-GPIO11-Pad14)*%
X182016500Y-61336000D03*
D29*
%TO.P,RP2040_1,15,GPIO12*%
%TO.N,unconnected-(RP2040_1-GPIO12-Pad15)*%
X182854000Y-62173500D03*
%TO.P,RP2040_1,16,GPIO13*%
%TO.N,unconnected-(RP2040_1-GPIO13-Pad16)*%
X183254000Y-62173500D03*
%TO.P,RP2040_1,17,GPIO14*%
%TO.N,unconnected-(RP2040_1-GPIO14-Pad17)*%
X183654000Y-62173500D03*
%TO.P,RP2040_1,18,GPIO15*%
%TO.N,unconnected-(RP2040_1-GPIO15-Pad18)*%
X184054000Y-62173500D03*
%TO.P,RP2040_1,19,TESTEN*%
%TO.N,unconnected-(RP2040_1-TESTEN-Pad19)*%
X184454000Y-62173500D03*
%TO.P,RP2040_1,20,XIN*%
%TO.N,RP2040_XIN*%
X184854000Y-62173500D03*
%TO.P,RP2040_1,21,XOUT*%
%TO.N,RP2040_XOUT*%
X185254000Y-62173500D03*
%TO.P,RP2040_1,22,IOVDD*%
%TO.N,RP2040-IOVDD*%
X185654000Y-62173500D03*
%TO.P,RP2040_1,23,DVDD*%
%TO.N,RP2040-DVDD*%
X186054000Y-62173500D03*
%TO.P,RP2040_1,24,SWCLK*%
%TO.N,RP2040-SWCLK-PIN*%
X186454000Y-62173500D03*
%TO.P,RP2040_1,25,SWD*%
%TO.N,RP2040-SWD-PIN*%
X186854000Y-62173500D03*
%TO.P,RP2040_1,26,RUN*%
%TO.N,Vcc-RP2040-RUN*%
X187254000Y-62173500D03*
%TO.P,RP2040_1,27,GPIO16*%
%TO.N,unconnected-(RP2040_1-GPIO16-Pad27)*%
X187654000Y-62173500D03*
%TO.P,RP2040_1,28,GPIO17*%
%TO.N,unconnected-(RP2040_1-GPIO17-Pad28)*%
X188054000Y-62173500D03*
D28*
%TO.P,RP2040_1,29,GPIO18*%
%TO.N,unconnected-(RP2040_1-GPIO18-Pad29)*%
X188891500Y-61336000D03*
%TO.P,RP2040_1,30,GPIO19*%
%TO.N,unconnected-(RP2040_1-GPIO19-Pad30)*%
X188891500Y-60936000D03*
%TO.P,RP2040_1,31,GPIO20*%
%TO.N,unconnected-(RP2040_1-GPIO20-Pad31)*%
X188891500Y-60536000D03*
%TO.P,RP2040_1,32,GPIO21*%
%TO.N,unconnected-(RP2040_1-GPIO21-Pad32)*%
X188891500Y-60136000D03*
%TO.P,RP2040_1,33,IOVDD*%
%TO.N,RP2040-IOVDD*%
X188891500Y-59736000D03*
%TO.P,RP2040_1,34,GPIO22*%
%TO.N,unconnected-(RP2040_1-GPIO22-Pad34)*%
X188891500Y-59336000D03*
%TO.P,RP2040_1,35,GPIO23*%
%TO.N,unconnected-(RP2040_1-GPIO23-Pad35)*%
X188891500Y-58936000D03*
%TO.P,RP2040_1,36,GPIO24*%
%TO.N,unconnected-(RP2040_1-GPIO24-Pad36)*%
X188891500Y-58536000D03*
%TO.P,RP2040_1,37,GPIO25*%
%TO.N,unconnected-(RP2040_1-GPIO25-Pad37)*%
X188891500Y-58136000D03*
%TO.P,RP2040_1,38,GPIO26_ADC0*%
%TO.N,unconnected-(RP2040_1-GPIO26_ADC0-Pad38)*%
X188891500Y-57736000D03*
%TO.P,RP2040_1,39,GPIO27_ADC1*%
%TO.N,unconnected-(RP2040_1-GPIO27_ADC1-Pad39)*%
X188891500Y-57336000D03*
%TO.P,RP2040_1,40,GPIO28_ADC2*%
%TO.N,unconnected-(RP2040_1-GPIO28_ADC2-Pad40)*%
X188891500Y-56936000D03*
%TO.P,RP2040_1,41,GPIO29_ADC3*%
%TO.N,unconnected-(RP2040_1-GPIO29_ADC3-Pad41)*%
X188891500Y-56536000D03*
%TO.P,RP2040_1,42,IOVDD*%
%TO.N,RP2040-IOVDD*%
X188891500Y-56136000D03*
D29*
%TO.P,RP2040_1,43,ADC_AVDD*%
%TO.N,unconnected-(RP2040_1-ADC_AVDD-Pad43)*%
X188054000Y-55298500D03*
%TO.P,RP2040_1,44,VREG_IN*%
%TO.N,RP2040-VREG_IN*%
X187654000Y-55298500D03*
%TO.P,RP2040_1,45,VREG_VOUT*%
%TO.N,RP2040-VREG_VOUT*%
X187254000Y-55298500D03*
%TO.P,RP2040_1,46,USB_DM*%
%TO.N,USB-RP2040-DM*%
X186854000Y-55298500D03*
%TO.P,RP2040_1,47,USB_DP*%
%TO.N,USB-RP2040-DP*%
X186454000Y-55298500D03*
%TO.P,RP2040_1,48,USB_VDD*%
%TO.N,RP2040-USB_VDD*%
X186054000Y-55298500D03*
%TO.P,RP2040_1,49,IOVDD*%
%TO.N,RP2040-IOVDD*%
X185654000Y-55298500D03*
%TO.P,RP2040_1,50,DVDD*%
%TO.N,RP2040-DVDD*%
X185254000Y-55298500D03*
%TO.P,RP2040_1,51,QSPI_SD3*%
%TO.N,FLASH-HOLD-RESRT-RP2040-QSPI_SD3*%
X184854000Y-55298500D03*
%TO.P,RP2040_1,52,QSPI_SCLK*%
%TO.N,CLOCK_FLASH*%
X184454000Y-55298500D03*
%TO.P,RP2040_1,53,QSPI_SD0*%
%TO.N,FLASH-DI-RP2040-QSPI_SD0*%
X184054000Y-55298500D03*
%TO.P,RP2040_1,54,QSPI_SD2*%
%TO.N,FLASH-WP-RP2040-QSPI_SD2*%
X183654000Y-55298500D03*
%TO.P,RP2040_1,55,QSPI_SD1*%
%TO.N,FLASH-DO-RP2040-QSPI_SD1*%
X183254000Y-55298500D03*
%TO.P,RP2040_1,56,QSPI_SS*%
%TO.N,FLASH-CS-RP2040-QSPI_SS*%
X182854000Y-55298500D03*
D30*
%TO.P,RP2040_1,57,GND*%
%TO.N,GND*%
X185454000Y-58736000D03*
%TD*%
D17*
%TO.P,D31,1,K*%
%TO.N,GND*%
X83000000Y-77000000D03*
D19*
%TO.P,D31,2,A*%
%TO.N,Net-(D31-A)*%
X83000000Y-79275000D03*
%TD*%
D17*
%TO.P,D44,1,K*%
%TO.N,GND*%
X78000000Y-67625000D03*
D19*
%TO.P,D44,2,A*%
%TO.N,Net-(D44-A)*%
X78000000Y-69900000D03*
%TD*%
D10*
%TO.P,R61,1*%
%TO.N,Net-(LedMatrixAddress1-Q6)*%
X189500000Y-95580000D03*
%TO.P,R61,2*%
%TO.N,Net-(D71-A)*%
X189500000Y-85420000D03*
%TD*%
D14*
%TO.P,U1,1*%
%TO.N,Net-(C13-Pad2)*%
X98880000Y-122805000D03*
D10*
%TO.P,U1,2*%
%TO.N,Z80_MANUAL_CLOCK*%
X101420000Y-122805000D03*
%TO.P,U1,3*%
%TO.N,Net-(C9-Pad2)*%
X103960000Y-122805000D03*
%TO.P,U1,4*%
%TO.N,Net-(SW5-C)*%
X106500000Y-122805000D03*
%TO.P,U1,5*%
%TO.N,N/C*%
X109040000Y-122805000D03*
%TO.P,U1,6*%
X111580000Y-122805000D03*
%TO.P,U1,7,GND*%
%TO.N,GND*%
X114120000Y-122805000D03*
%TO.P,U1,8*%
%TO.N,N/C*%
X114120000Y-115185000D03*
%TO.P,U1,9*%
X111580000Y-115185000D03*
%TO.P,U1,10*%
X109040000Y-115185000D03*
%TO.P,U1,11*%
X106500000Y-115185000D03*
%TO.P,U1,12*%
X103960000Y-115185000D03*
%TO.P,U1,13*%
X101420000Y-115185000D03*
%TO.P,U1,14,VCC*%
%TO.N,Vcc*%
X98880000Y-115185000D03*
%TD*%
D16*
%TO.P,D13,1,K*%
%TO.N,Net-(D13-K)*%
X213218600Y-103030500D03*
%TO.P,D13,2,A*%
%TO.N,Net-(D13-A)*%
X213218600Y-104430500D03*
%TD*%
D17*
%TO.P,D42,1,K*%
%TO.N,GND*%
X73000000Y-67625000D03*
D19*
%TO.P,D42,2,A*%
%TO.N,Net-(D42-A)*%
X73000000Y-69900000D03*
%TD*%
D17*
%TO.P,D71,1,K*%
%TO.N,GND*%
X189500000Y-77420000D03*
D19*
%TO.P,D71,2,A*%
%TO.N,Net-(D71-A)*%
X189500000Y-79695000D03*
%TD*%
D17*
%TO.P,D34,1,K*%
%TO.N,GND*%
X48000000Y-67625000D03*
D19*
%TO.P,D34,2,A*%
%TO.N,Net-(D34-A)*%
X48000000Y-69900000D03*
%TD*%
D10*
%TO.P,R57,1*%
%TO.N,Net-(LedMatrixAddress1-Q2)*%
X209500000Y-95660000D03*
%TO.P,R57,2*%
%TO.N,Net-(D67-A)*%
X209500000Y-85500000D03*
%TD*%
D15*
%TO.P,C3,1*%
%TO.N,RP2040-DVDD*%
X196950000Y-52000000D03*
D12*
%TO.P,C3,2*%
%TO.N,Vdd_3v3*%
X195450000Y-52000000D03*
%TD*%
D14*
%TO.P,U2,1*%
%TO.N,RAM-CS*%
X91760000Y-76620000D03*
D10*
%TO.P,U2,2*%
%TO.N,RAM2-CS*%
X94300000Y-76620000D03*
%TO.P,U2,3*%
%TO.N,N/C*%
X96840000Y-76620000D03*
%TO.P,U2,4*%
X99380000Y-76620000D03*
%TO.P,U2,5*%
X101920000Y-76620000D03*
%TO.P,U2,6*%
X104460000Y-76620000D03*
%TO.P,U2,7,GND*%
%TO.N,GND*%
X107000000Y-76620000D03*
%TO.P,U2,8*%
%TO.N,N/C*%
X107000000Y-69000000D03*
%TO.P,U2,9*%
X104460000Y-69000000D03*
%TO.P,U2,10*%
X101920000Y-69000000D03*
%TO.P,U2,11*%
X99380000Y-69000000D03*
%TO.P,U2,12*%
X96840000Y-69000000D03*
%TO.P,U2,13*%
X94300000Y-69000000D03*
%TO.P,U2,14,VCC*%
%TO.N,Vcc*%
X91760000Y-69000000D03*
%TD*%
D16*
%TO.P,D64,1,K*%
%TO.N,Net-(D64-K)*%
X218500000Y-125600000D03*
%TO.P,D64,2,A*%
%TO.N,Net-(D64-A)*%
X218500000Y-127000000D03*
%TD*%
D10*
%TO.P,R67,1*%
%TO.N,Net-(LedMatrixAddress2-Q4)*%
X159500000Y-95660000D03*
%TO.P,R67,2*%
%TO.N,Net-(D77-A)*%
X159500000Y-85500000D03*
%TD*%
%TO.P,R54,1*%
%TO.N,Vcc*%
X89500000Y-110160000D03*
%TO.P,R54,2*%
%TO.N,Net-(C9-Pad2)*%
X89500000Y-100000000D03*
%TD*%
D16*
%TO.P,D54,1,K*%
%TO.N,Net-(D54-K)*%
X218500000Y-114100000D03*
%TO.P,D54,2,A*%
%TO.N,Net-(D54-A)*%
X218500000Y-115500000D03*
%TD*%
D17*
%TO.P,D48,1,K*%
%TO.N,GND*%
X53000000Y-67625000D03*
D19*
%TO.P,D48,2,A*%
%TO.N,Net-(D48-A)*%
X53000000Y-69900000D03*
%TD*%
D11*
%TO.P,C13,1*%
%TO.N,GND*%
X93500000Y-126000000D03*
D12*
%TO.P,C13,2*%
%TO.N,Net-(C13-Pad2)*%
X95000000Y-126000000D03*
%TD*%
D10*
%TO.P,R20,1*%
%TO.N,Z80-RD*%
X143432500Y-140500000D03*
%TO.P,R20,2*%
%TO.N,Net-(D49-A)*%
X153592500Y-140500000D03*
%TD*%
D17*
%TO.P,D75,1,K*%
%TO.N,GND*%
X169500000Y-77500000D03*
D19*
%TO.P,D75,2,A*%
%TO.N,Net-(D75-A)*%
X169500000Y-79775000D03*
%TD*%
D31*
%TO.P,Y1,1,1*%
%TO.N,RP2040_XIN*%
X173500000Y-63120000D03*
%TO.P,Y1,2,2*%
%TO.N,RP2040_XOUT*%
X173500000Y-68000000D03*
%TD*%
D32*
%TO.P,Y2,1,Tri-State*%
%TO.N,GND*%
X171960000Y-124000000D03*
%TO.P,Y2,2,GND*%
X174500000Y-124000000D03*
%TO.P,Y2,3,OUT*%
%TO.N,CLOCK_BUS*%
X174500000Y-121800000D03*
%TO.P,Y2,4,VDD*%
%TO.N,Vdd_3v3*%
X171960000Y-121800000D03*
%TD*%
D15*
%TO.P,C10,1*%
%TO.N,RP2040-VREG_IN*%
X216366050Y-52066000D03*
D12*
%TO.P,C10,2*%
%TO.N,Vdd_3v3*%
X214866050Y-52066000D03*
%TD*%
D11*
%TO.P,C7,1*%
%TO.N,Net-(Flash1-VCC)*%
X234500000Y-59000000D03*
D12*
%TO.P,C7,2*%
%TO.N,Vcc*%
X236000000Y-59000000D03*
%TD*%
D24*
%TO.P,Z80,1,A_{11}*%
%TO.N,RAM-A11*%
X119389500Y-85658000D03*
D10*
%TO.P,Z80,2,A_{12}*%
%TO.N,RAM-A12*%
X119389500Y-88198000D03*
%TO.P,Z80,3,A_{13}*%
%TO.N,RAM-A13*%
X119389500Y-90738000D03*
%TO.P,Z80,4,A_{14}*%
%TO.N,RAM-A14*%
X119389500Y-93278000D03*
%TO.P,Z80,5,A_{15}*%
%TO.N,RAM-CS*%
X119389500Y-95818000D03*
%TO.P,Z80,6,CLK*%
%TO.N,CLOCK_Z80*%
X119389500Y-98358000D03*
%TO.P,Z80,7,D_{4}*%
%TO.N,RAM-Q4*%
X119389500Y-100898000D03*
%TO.P,Z80,8,D_{3}*%
%TO.N,RAM-Q3*%
X119389500Y-103438000D03*
%TO.P,Z80,9,D_{5}*%
%TO.N,RAM-Q5*%
X119389500Y-105978000D03*
%TO.P,Z80,10,D_{6}*%
%TO.N,RAM-Q6*%
X119389500Y-108518000D03*
%TO.P,Z80,11,V_{CC}*%
%TO.N,Vcc*%
X119389500Y-111058000D03*
%TO.P,Z80,12,D_{2}*%
%TO.N,RAM-Q2*%
X119389500Y-113598000D03*
%TO.P,Z80,13,D_{7}*%
%TO.N,RAM-Q7*%
X119389500Y-116138000D03*
%TO.P,Z80,14,D_{0}*%
%TO.N,RAM-Q0*%
X119389500Y-118678000D03*
%TO.P,Z80,15,D_{1}*%
%TO.N,RAM-Q1*%
X119389500Y-121218000D03*
%TO.P,Z80,16,~{INT}*%
%TO.N,Z80-INT*%
X119389500Y-123758000D03*
%TO.P,Z80,17,~{NMI}*%
%TO.N,Z80-NMI*%
X119389500Y-126298000D03*
%TO.P,Z80,18,~{HALT}*%
%TO.N,Z80-HALT*%
X119389500Y-128838000D03*
%TO.P,Z80,19,~{MREQ}*%
%TO.N,Z80-MREQ*%
X119389500Y-131378000D03*
%TO.P,Z80,20,~{IORQ}*%
%TO.N,Z80-IORQ*%
X119389500Y-133918000D03*
%TO.P,Z80,21,~{RD}*%
%TO.N,Z80-RD*%
X134629500Y-133918000D03*
%TO.P,Z80,22,~{WR}*%
%TO.N,Z80-WR*%
X134629500Y-131378000D03*
%TO.P,Z80,23,~{BUSACK}*%
%TO.N,Z80-BUSACK*%
X134629500Y-128838000D03*
%TO.P,Z80,24,~{WAIT}*%
%TO.N,Z80-WAIT*%
X134629500Y-126298000D03*
%TO.P,Z80,25,~{BUSREQ}*%
%TO.N,Z80-BUSREQ*%
X134629500Y-123758000D03*
%TO.P,Z80,26,~{RESET}*%
%TO.N,Z80-RESET*%
X134629500Y-121218000D03*
%TO.P,Z80,27,~{M1}*%
%TO.N,Z80-M1*%
X134629500Y-118678000D03*
%TO.P,Z80,28,~{RFSH}*%
%TO.N,Z80-RFSH*%
X134629500Y-116138000D03*
%TO.P,Z80,29,GND*%
%TO.N,GND*%
X134629500Y-113598000D03*
%TO.P,Z80,30,A_{0}*%
%TO.N,RAM-A0*%
X134629500Y-111058000D03*
%TO.P,Z80,31,A_{1}*%
%TO.N,RAM-A1*%
X134629500Y-108518000D03*
%TO.P,Z80,32,A_{2}*%
%TO.N,RAM-A2*%
X134629500Y-105978000D03*
%TO.P,Z80,33,A_{3}*%
%TO.N,RAM-A3*%
X134629500Y-103438000D03*
%TO.P,Z80,34,A_{4}*%
%TO.N,RAM-A4*%
X134629500Y-100898000D03*
%TO.P,Z80,35,A_{5}*%
%TO.N,RAM-A5*%
X134629500Y-98358000D03*
%TO.P,Z80,36,A_{6}*%
%TO.N,RAM-A6*%
X134629500Y-95818000D03*
%TO.P,Z80,37,A_{7}*%
%TO.N,RAM-A7*%
X134629500Y-93278000D03*
%TO.P,Z80,38,A_{8}*%
%TO.N,RAM-A8*%
X134629500Y-90738000D03*
%TO.P,Z80,39,A_{9}*%
%TO.N,RAM-A9*%
X134629500Y-88198000D03*
%TO.P,Z80,40,A_{10}*%
%TO.N,RAM-A10*%
X134629500Y-85658000D03*
%TD*%
D16*
%TO.P,D11,1,K*%
%TO.N,Net-(D11-K)*%
X210768600Y-103030500D03*
%TO.P,D11,2,A*%
%TO.N,Net-(D11-A)*%
X210768600Y-104430500D03*
%TD*%
D10*
%TO.P,R1,1*%
%TO.N,Vcc*%
X153589500Y-126783000D03*
%TO.P,R1,2*%
%TO.N,Z80-BUSREQ*%
X143429500Y-126783000D03*
%TD*%
%TO.P,R18,1*%
%TO.N,RP2040-RPBOOTMODE*%
X179660000Y-48436000D03*
%TO.P,R18,2*%
%TO.N,Vdd_3v3*%
X169500000Y-48436000D03*
%TD*%
D16*
%TO.P,D46,1,K*%
%TO.N,Net-(D46-K)*%
X213500000Y-114100000D03*
%TO.P,D46,2,A*%
%TO.N,Net-(D46-A)*%
X213500000Y-115500000D03*
%TD*%
D33*
%TO.P,Flash1,1,~{CS}*%
%TO.N,FLASH-CS-RP2040-QSPI_SS*%
X224000000Y-57460000D03*
%TO.P,Flash1,2,DO/IO_{1}*%
%TO.N,FLASH-DO-RP2040-QSPI_SD1*%
X224000000Y-58730000D03*
%TO.P,Flash1,3,~{WP}/IO_{2}*%
%TO.N,FLASH-WP-RP2040-QSPI_SD2*%
X224000000Y-60000000D03*
%TO.P,Flash1,4,GND*%
%TO.N,GND*%
X224000000Y-61270000D03*
%TO.P,Flash1,5,DI/IO_{0}*%
%TO.N,FLASH-DI-RP2040-QSPI_SD0*%
X231175000Y-61270000D03*
%TO.P,Flash1,6,CLK*%
%TO.N,CLOCK_FLASH*%
X231175000Y-60000000D03*
%TO.P,Flash1,7,~{HOLD}/~{RESET}/IO_{3}*%
%TO.N,FLASH-HOLD-RESRT-RP2040-QSPI_SD3*%
X231175000Y-58730000D03*
%TO.P,Flash1,8,VCC*%
%TO.N,Net-(Flash1-VCC)*%
X231175000Y-57460000D03*
%TD*%
D17*
%TO.P,D32,1,K*%
%TO.N,GND*%
X63000000Y-67625000D03*
D19*
%TO.P,D32,2,A*%
%TO.N,Net-(D32-A)*%
X63000000Y-69900000D03*
%TD*%
D34*
%TO.P,SW5,*%
%TO.N,*%
X97400000Y-93797500D03*
X105600000Y-93797500D03*
D35*
%TO.P,SW5,1,C*%
%TO.N,Net-(SW5-C)*%
X99500000Y-93797500D03*
D36*
%TO.P,SW5,2,B*%
%TO.N,CLOCK_Z80*%
X101500000Y-93797500D03*
%TO.P,SW5,3,A*%
%TO.N,Z80_MANUAL_CLOCK*%
X103500000Y-93797500D03*
%TD*%
D37*
%TO.P,J1,1,Pin_1*%
%TO.N,RP2040-SWCLK-PIN*%
X254000000Y-66000000D03*
D38*
%TO.P,J1,2,Pin_2*%
%TO.N,RP2040-SWD-PIN*%
X254000000Y-67000000D03*
%TD*%
D17*
%TO.P,D68,1,K*%
%TO.N,GND*%
X204500000Y-77500000D03*
D19*
%TO.P,D68,2,A*%
%TO.N,Net-(D68-A)*%
X204500000Y-79775000D03*
%TD*%
D16*
%TO.P,D7,1,K*%
%TO.N,Net-(D7-K)*%
X205868600Y-103030500D03*
%TO.P,D7,2,A*%
%TO.N,Net-(D7-A)*%
X205868600Y-104430500D03*
%TD*%
D10*
%TO.P,R34,1*%
%TO.N,Net-(LedMatrixWrite1-Q3)*%
X68000000Y-108000000D03*
%TO.P,R34,2*%
%TO.N,Net-(D38-A)*%
X68000000Y-97840000D03*
%TD*%
D17*
%TO.P,D79,1,K*%
%TO.N,GND*%
X149500000Y-77420000D03*
D19*
%TO.P,D79,2,A*%
%TO.N,Net-(D79-A)*%
X149500000Y-79695000D03*
%TD*%
D23*
%TO.P,SW6,1,1*%
%TO.N,GND*%
X60000000Y-136000000D03*
X66500000Y-136000000D03*
%TO.P,SW6,2,2*%
%TO.N,Net-(R16-Pad1)*%
X60000000Y-140500000D03*
X66500000Y-140500000D03*
%TD*%
D17*
%TO.P,D65,1,K*%
%TO.N,GND*%
X219500000Y-77500000D03*
D19*
%TO.P,D65,2,A*%
%TO.N,Net-(D65-A)*%
X219500000Y-79775000D03*
%TD*%
D39*
%TO.N,RAM-A14*%
X159896155Y-40627683D03*
X132000000Y-60999000D03*
X124000000Y-96000000D03*
X90000000Y-81000000D03*
X97000000Y-67000000D03*
X159000000Y-54000000D03*
X233533912Y-118379186D03*
%TO.N,RAM-A9*%
X138000000Y-43932900D03*
X127859285Y-47489772D03*
X232468600Y-115036000D03*
X139500000Y-88000000D03*
%TO.N,RAM-Q6*%
X111630000Y-53630000D03*
X48000000Y-130400000D03*
X125475735Y-51475735D03*
X116121978Y-69177893D03*
%TO.N,RAM-Q5*%
X124500000Y-51500000D03*
X115669569Y-68518098D03*
X47000000Y-129999000D03*
X111900000Y-55900000D03*
%TO.N,RAM-A10*%
X233034287Y-115601687D03*
X139137500Y-85500000D03*
X127000000Y-47199000D03*
%TO.N,RAM-A7*%
X232687200Y-107666500D03*
X119837404Y-79384161D03*
X141000000Y-46000000D03*
%TO.N,RAM-A5*%
X232203739Y-106256652D03*
X119695129Y-77543658D03*
X150000000Y-45000000D03*
%TO.N,RAM-A12*%
X135000000Y-60999000D03*
X124000000Y-90000000D03*
X161000000Y-54000000D03*
X118004714Y-78400000D03*
X159000000Y-41430000D03*
X233707127Y-116730027D03*
X112000000Y-79000000D03*
%TO.N,RAM-Q4*%
X46000000Y-129584000D03*
X112170000Y-58170000D03*
X123707499Y-51390698D03*
X113000000Y-68000000D03*
%TO.N,Vcc*%
X74726500Y-39586000D03*
X228295700Y-101683500D03*
X251000000Y-124564000D03*
X228577100Y-113053000D03*
X225577100Y-113053000D03*
X225295700Y-101733500D03*
X77091500Y-47386000D03*
%TO.N,RAM-OE*%
X128494431Y-48682136D03*
X106500000Y-45900000D03*
%TO.N,RAM-A11*%
X233815761Y-115772864D03*
X144000000Y-41830999D03*
X93000000Y-79500000D03*
X124000000Y-88000000D03*
X144000000Y-50362000D03*
X144000000Y-46000000D03*
X97333950Y-61843000D03*
%TO.N,RAM-Q7*%
X122000000Y-69600000D03*
X126400000Y-51400000D03*
X49000000Y-131000000D03*
%TO.N,RAM-A6*%
X147738685Y-44875735D03*
X119924265Y-78575735D03*
X232813973Y-106773971D03*
%TO.N,RAM-WE*%
X165909500Y-129783000D03*
X168100000Y-131009441D03*
%TO.N,RAM-Q0*%
X123224265Y-69600000D03*
X130000000Y-65000000D03*
X124000000Y-66001000D03*
X41938715Y-127732085D03*
X117000000Y-66001000D03*
%TO.N,RAM-A0*%
X230845137Y-103008567D03*
X130500000Y-92500000D03*
X158000000Y-47000000D03*
%TO.N,RAM-A13*%
X94333950Y-61843000D03*
X233468600Y-117536000D03*
X89400000Y-79500000D03*
X124000000Y-94000000D03*
X127000000Y-44199000D03*
%TO.N,RAM-A1*%
X130944612Y-93165265D03*
X157000000Y-46239000D03*
X231214168Y-103718370D03*
%TO.N,GND*%
X214500000Y-77500000D03*
X68000000Y-67625000D03*
X169500000Y-77500000D03*
X73000000Y-77000000D03*
X48000000Y-67625000D03*
X73000000Y-67625000D03*
X63000000Y-77000000D03*
X199500000Y-77500000D03*
X245219500Y-130500000D03*
X165909500Y-122500000D03*
X77091500Y-42786000D03*
X154500000Y-77500000D03*
X83000000Y-77000000D03*
X68000000Y-77000000D03*
X184500000Y-77420000D03*
X58000000Y-67625000D03*
X189500000Y-77420000D03*
X219500000Y-77500000D03*
X53000000Y-67625000D03*
X78000000Y-77000000D03*
X172000000Y-124000000D03*
X204500000Y-77500000D03*
X78000000Y-67625000D03*
X58000000Y-77000000D03*
X194500000Y-77420000D03*
X174540000Y-124000000D03*
X91100000Y-136500000D03*
X185454000Y-58736000D03*
X223687200Y-108230500D03*
X253736000Y-125264000D03*
X231968600Y-113703000D03*
X63000000Y-67625000D03*
X144500000Y-77420000D03*
X159500000Y-77500000D03*
X224000000Y-61270000D03*
X149500000Y-77420000D03*
X209500000Y-77500000D03*
X53000000Y-77000000D03*
X223968600Y-119600000D03*
X179500000Y-77500000D03*
X83000000Y-67625000D03*
X164500000Y-77500000D03*
X174500000Y-77500000D03*
X228295700Y-102730500D03*
X48000000Y-77000000D03*
%TO.N,RAM-Q3*%
X113940000Y-58940000D03*
X115060000Y-68000000D03*
X45000000Y-129183000D03*
%TO.N,RAM-A3*%
X231585872Y-105040766D03*
X154358685Y-45875735D03*
X121236250Y-75999000D03*
X132098000Y-94500000D03*
%TO.N,RAM-Q2*%
X122080000Y-67920000D03*
X117000000Y-70000000D03*
X44000000Y-128782000D03*
X130058465Y-66941535D03*
%TO.N,RAM-Q1*%
X43000000Y-128381000D03*
X126000000Y-67000000D03*
X125000000Y-70000000D03*
X130000000Y-66000000D03*
X119540000Y-67000000D03*
%TO.N,RAM-CS*%
X124000000Y-100500000D03*
X106000000Y-42000000D03*
X234577100Y-118600000D03*
X95500000Y-79000000D03*
X98833950Y-61843000D03*
X95500000Y-81600000D03*
X103000000Y-45000000D03*
%TO.N,RAM-A2*%
X121975356Y-75598000D03*
X156000000Y-46000000D03*
X131484263Y-93986842D03*
X231794936Y-104268564D03*
%TO.N,RAM-A4*%
X232487839Y-105274134D03*
X154000000Y-45036000D03*
X119838215Y-76556785D03*
X132897935Y-95502065D03*
%TO.N,RAM-A8*%
X128632325Y-47695712D03*
X232968600Y-114036000D03*
X139500000Y-91000000D03*
%TO.N,Z80-WAIT*%
X132951057Y-137383893D03*
%TO.N,Z80-WR*%
X131000000Y-138000000D03*
X131900000Y-132000000D03*
%TO.N,Z80-RESET*%
X132351057Y-136765787D03*
%TO.N,Vdd_3v3*%
X171960000Y-121800000D03*
X83391500Y-45086000D03*
X89000000Y-43000000D03*
X77091500Y-45086000D03*
X174500000Y-119200000D03*
X174500000Y-118000000D03*
%TO.N,RP2040-DVDD*%
X185054000Y-50272084D03*
X189000000Y-50000000D03*
%TO.N,Net-(D59-K)*%
X211000000Y-125000000D03*
%TO.N,Net-(D60-K)*%
X216000000Y-125000000D03*
%TO.N,Net-(D63-K)*%
X213500000Y-125000000D03*
%TO.N,Net-(D64-K)*%
X218500000Y-125000000D03*
%TO.N,RAM2-CS*%
X116884372Y-77800000D03*
X151840000Y-55840000D03*
%TO.N,RP2040-RWRAM-GPIO5-DIR*%
X187000010Y-68000000D03*
X184742710Y-70257290D03*
%TO.N,FLASH-DO-RP2040-QSPI_SD1*%
X224000000Y-58730000D03*
X219000000Y-58000000D03*
X182600000Y-53043762D03*
X192891500Y-56436000D03*
%TO.N,FLASH-CS-RP2040-QSPI_SS*%
X190500000Y-51000000D03*
X182000000Y-52500000D03*
X217000000Y-56000000D03*
X224000000Y-57460000D03*
%TO.N,USB-C-CC2*%
X64000000Y-41924000D03*
%TO.N,RP2040-Z80BOOTMODE*%
X251000000Y-60000000D03*
X178500000Y-54999000D03*
%TO.N,RP2040-RPBOOTMODE*%
X250400000Y-59434313D03*
%TO.N,RP2040_XIN*%
X184250000Y-63859743D03*
%TO.N,RP2040_XOUT*%
X185000000Y-64500000D03*
%TO.N,CLOCK_FLASH*%
X220000000Y-59000000D03*
X184350000Y-53536000D03*
X195000000Y-57496000D03*
X231175000Y-60000000D03*
%TO.N,USB-RP2040-DP*%
X167000000Y-47184000D03*
X186655000Y-54166726D03*
X162227397Y-40227000D03*
%TO.N,RP2040-SH-GPIO3-SER*%
X185469500Y-99000000D03*
%TO.N,USB-RP2040-DM*%
X161427394Y-40227000D03*
X186854000Y-56184000D03*
X166000000Y-47041000D03*
%TO.N,FLASH-HOLD-RESRT-RP2040-QSPI_SD3*%
X184854000Y-56600000D03*
X194000000Y-59000000D03*
%TO.N,RP2040-SWD-PIN*%
X187500000Y-64400000D03*
X186500000Y-67000000D03*
%TO.N,RP2040-RWRAM-GPIO8-PL*%
X239600000Y-114051473D03*
%TO.N,Net-(ShiftRegisterOut1-SER)*%
X200318600Y-109730500D03*
%TO.N,RP2040-SWCLK-PIN*%
X186727044Y-65772956D03*
X186693784Y-64398000D03*
%TO.N,Vcc-RP2040-RUN*%
X187454000Y-63259743D03*
%TO.N,CLOCK_BUS*%
X223500000Y-133500000D03*
X174500000Y-121800000D03*
%TO.N,Net-(SW5-C)*%
X96000000Y-118000000D03*
%TD*%
D40*
%TO.N,RAM-A14*%
X233533912Y-118379186D02*
X233522837Y-118390261D01*
X121278000Y-93278000D02*
X119389500Y-93278000D01*
X131520000Y-61479000D02*
X131520000Y-63500000D01*
X158399000Y-41181057D02*
X158399000Y-42399000D01*
X95100000Y-67000000D02*
X91600000Y-63500000D01*
X160561000Y-52439000D02*
X159000000Y-54000000D01*
X132000000Y-60999000D02*
X131520000Y-61479000D01*
X233521434Y-118390261D02*
X233467176Y-118336003D01*
X233467176Y-118336003D02*
X229995503Y-118336003D01*
X90000000Y-81000000D02*
X107111500Y-81000000D01*
X158399000Y-42399000D02*
X160561000Y-44561000D01*
X107111500Y-81000000D02*
X119389500Y-93278000D01*
X160561000Y-44561000D02*
X160561000Y-52439000D01*
X158952374Y-40627683D02*
X158399000Y-41181057D01*
X233522837Y-118390261D02*
X233521434Y-118390261D01*
X229995503Y-118336003D02*
X229962500Y-118303000D01*
X124000000Y-96000000D02*
X121278000Y-93278000D01*
X97000000Y-67000000D02*
X95100000Y-67000000D01*
X159896155Y-40627683D02*
X158952374Y-40627683D01*
%TO.N,RAM-A9*%
X139500000Y-87717157D02*
X139500000Y-88000000D01*
X139347943Y-86139500D02*
X139347943Y-87565100D01*
X141680000Y-45680000D02*
X141680000Y-48260000D01*
X139738500Y-85251057D02*
X139738500Y-85748943D01*
X127401000Y-66833900D02*
X133401000Y-72833900D01*
X229962500Y-115053000D02*
X232451600Y-115053000D01*
X232451600Y-115053000D02*
X232468600Y-115036000D01*
X139347943Y-87565100D02*
X139500000Y-87717157D01*
X107599000Y-47000000D02*
X103020000Y-47000000D01*
X127248943Y-46598000D02*
X126751057Y-46598000D01*
X139738500Y-85748943D02*
X139347943Y-86139500D01*
X139932900Y-43932900D02*
X141680000Y-45680000D01*
X133401000Y-72833900D02*
X133401000Y-77297100D01*
X108000000Y-46599000D02*
X107599000Y-47000000D01*
X138000000Y-43932900D02*
X139932900Y-43932900D01*
X127401000Y-47948057D02*
X127401000Y-66833900D01*
X139339500Y-83235600D02*
X139339500Y-84852057D01*
X103020000Y-47000000D02*
X101760000Y-48260000D01*
X127859285Y-47208342D02*
X127248943Y-46598000D01*
X127859285Y-47489772D02*
X127401000Y-47948057D01*
X139339500Y-84852057D02*
X139738500Y-85251057D01*
X133401000Y-77297100D02*
X139339500Y-83235600D01*
X126750057Y-46599000D02*
X108000000Y-46599000D01*
X127859285Y-47489772D02*
X127859285Y-47208342D01*
X126751057Y-46598000D02*
X126750057Y-46599000D01*
%TO.N,RAM-Q6*%
X48000000Y-130400000D02*
X48000000Y-138000000D01*
X71780000Y-130000000D02*
X68674000Y-133106000D01*
X49400000Y-130400000D02*
X48000000Y-130400000D01*
X120641000Y-62641000D02*
X111630000Y-53630000D01*
X116121978Y-69177893D02*
X118212050Y-69177893D01*
X124401000Y-52599000D02*
X121339000Y-52599000D01*
X68674000Y-133106000D02*
X52106000Y-133106000D01*
X73000000Y-120840000D02*
X71780000Y-119620000D01*
X119389500Y-108518000D02*
X119371500Y-108500000D01*
X52401000Y-142401000D02*
X242513370Y-142401000D01*
X52106000Y-133106000D02*
X49400000Y-130400000D01*
X253698000Y-130312370D02*
X253199630Y-129814000D01*
X118212050Y-69177893D02*
X120641000Y-66748943D01*
X120641000Y-66748943D02*
X120641000Y-62641000D01*
X71780000Y-130000000D02*
X73000000Y-128780000D01*
X125475735Y-51475735D02*
X125475735Y-51524265D01*
X253698000Y-131216370D02*
X253698000Y-130312370D01*
X125475735Y-51524265D02*
X124401000Y-52599000D01*
X48000000Y-138000000D02*
X52401000Y-142401000D01*
X121339000Y-52599000D02*
X117000000Y-48260000D01*
X253199630Y-129814000D02*
X252362500Y-129814000D01*
X242513370Y-142401000D02*
X253698000Y-131216370D01*
X73000000Y-128780000D02*
X73000000Y-120840000D01*
%TO.N,RAM-Q5*%
X47000000Y-138000000D02*
X47000000Y-129999000D01*
X124500000Y-51500000D02*
X124000000Y-52000000D01*
X69240000Y-130000000D02*
X70341000Y-128899000D01*
X254099000Y-130099000D02*
X254099000Y-131382470D01*
X252362500Y-129164000D02*
X253164000Y-129164000D01*
X124000000Y-52000000D02*
X123280000Y-52000000D01*
X48664800Y-129799000D02*
X47200000Y-129799000D01*
X118101000Y-66086667D02*
X118101000Y-62101000D01*
X70341000Y-128899000D02*
X70341000Y-120721000D01*
X47200000Y-129799000D02*
X47000000Y-129999000D01*
X254099000Y-131382470D02*
X242679470Y-142802000D01*
X118101000Y-62101000D02*
X111900000Y-55900000D01*
X115669569Y-68518098D02*
X118101000Y-66086667D01*
X253164000Y-129164000D02*
X254099000Y-130099000D01*
X49566100Y-129999000D02*
X48864800Y-129999000D01*
X70341000Y-120721000D02*
X69240000Y-119620000D01*
X69240000Y-130000000D02*
X66535000Y-132705000D01*
X242679470Y-142802000D02*
X51802000Y-142802000D01*
X66535000Y-132705000D02*
X52272100Y-132705000D01*
X51802000Y-142802000D02*
X47000000Y-138000000D01*
X48864800Y-129999000D02*
X48664800Y-129799000D01*
X123280000Y-52000000D02*
X119540000Y-48260000D01*
X52272100Y-132705000D02*
X49566100Y-129999000D01*
%TO.N,RAM-A10*%
X127000000Y-47000000D02*
X110640000Y-47000000D01*
X127000000Y-47199000D02*
X127000000Y-67000000D01*
X229962500Y-115703000D02*
X232932974Y-115703000D01*
X232932974Y-115703000D02*
X233034287Y-115601687D01*
X138938500Y-85301000D02*
X139137500Y-85500000D01*
X138938500Y-83401700D02*
X138938500Y-85301000D01*
X110640000Y-47000000D02*
X109380000Y-48260000D01*
X127000000Y-47000000D02*
X127000000Y-47199000D01*
X133000000Y-77463200D02*
X138938500Y-83401700D01*
X133000000Y-73000000D02*
X133000000Y-77463200D01*
X127000000Y-67000000D02*
X133000000Y-73000000D01*
%TO.N,RAM-A7*%
X96680000Y-63500000D02*
X98680000Y-65500000D01*
X140579000Y-59521000D02*
X136600000Y-63500000D01*
X119323265Y-78823265D02*
X119323265Y-78824678D01*
X140579000Y-46421000D02*
X140579000Y-59521000D01*
X141000000Y-46000000D02*
X140579000Y-46421000D01*
X105000000Y-67000000D02*
X107500000Y-67000000D01*
X98680000Y-65500000D02*
X103500000Y-65500000D01*
X107500000Y-67000000D02*
X119323265Y-78823265D01*
X135730500Y-92177000D02*
X134629500Y-93278000D01*
X119850850Y-79350850D02*
X130350850Y-79350850D01*
X130350850Y-79350850D02*
X135730500Y-84730500D01*
X119676735Y-79176735D02*
X119850850Y-79350850D01*
X119675322Y-79176735D02*
X119676735Y-79176735D01*
X135730500Y-84730500D02*
X135730500Y-92177000D01*
X229681100Y-107583500D02*
X232604200Y-107583500D01*
X232604200Y-107583500D02*
X232687200Y-107666500D01*
X119323265Y-78824678D02*
X119675322Y-79176735D01*
X103500000Y-65500000D02*
X105000000Y-67000000D01*
%TO.N,RAM-A5*%
X120043658Y-77543658D02*
X121048850Y-78548850D01*
X107832200Y-66198000D02*
X118932700Y-77298500D01*
X119695129Y-77543658D02*
X120043658Y-77543658D01*
X101760000Y-63500000D02*
X102958000Y-64698000D01*
X105332200Y-66198000D02*
X107832200Y-66198000D01*
X136532500Y-96455000D02*
X134629500Y-98358000D01*
X145659000Y-47803950D02*
X145659000Y-59521000D01*
X102958000Y-64698000D02*
X103832200Y-64698000D01*
X229681100Y-106283500D02*
X232176891Y-106283500D01*
X150000000Y-45000000D02*
X148462950Y-45000000D01*
X148462950Y-45000000D02*
X145659000Y-47803950D01*
X232176891Y-106283500D02*
X232203739Y-106256652D01*
X119449971Y-77298500D02*
X119695129Y-77543658D01*
X130683050Y-78548850D02*
X136532500Y-84398300D01*
X103832200Y-64698000D02*
X105332200Y-66198000D01*
X136532500Y-84398300D02*
X136532500Y-96455000D01*
X145659000Y-59521000D02*
X141680000Y-63500000D01*
X121048850Y-78548850D02*
X130683050Y-78548850D01*
X118932700Y-77298500D02*
X119449971Y-77298500D01*
%TO.N,RAM-A12*%
X118004714Y-78400000D02*
X118004714Y-78071814D01*
X112600000Y-78400000D02*
X112000000Y-79000000D01*
X163101000Y-51899000D02*
X161000000Y-54000000D01*
X135000000Y-60999000D02*
X134060000Y-61939000D01*
X104833900Y-67401000D02*
X103432900Y-66000000D01*
X134060000Y-61939000D02*
X134060000Y-63500000D01*
X233219657Y-116935000D02*
X233151657Y-117003000D01*
X96640000Y-66000000D02*
X94140000Y-63500000D01*
X118004714Y-78400000D02*
X112600000Y-78400000D01*
X118004714Y-78071814D02*
X107333900Y-67401000D01*
X163101000Y-45531000D02*
X163101000Y-51899000D01*
X233502154Y-116935000D02*
X233219657Y-116935000D01*
X103432900Y-66000000D02*
X96640000Y-66000000D01*
X233707127Y-116730027D02*
X233502154Y-116935000D01*
X233151657Y-117003000D02*
X229962500Y-117003000D01*
X159000000Y-41430000D02*
X163101000Y-45531000D01*
X122198000Y-88198000D02*
X119389500Y-88198000D01*
X124000000Y-90000000D02*
X122198000Y-88198000D01*
X107333900Y-67401000D02*
X104833900Y-67401000D01*
%TO.N,RAM-Q4*%
X46200000Y-129384000D02*
X46000000Y-129584000D01*
X48816900Y-129384000D02*
X46200000Y-129384000D01*
X52438200Y-132304000D02*
X49732200Y-129598000D01*
X66700000Y-130000000D02*
X67801000Y-128899000D01*
X242845570Y-143203000D02*
X51203000Y-143203000D01*
X67801000Y-128899000D02*
X67801000Y-120721000D01*
X64396000Y-132304000D02*
X52438200Y-132304000D01*
X49030900Y-129598000D02*
X48816900Y-129384000D01*
X49732200Y-129598000D02*
X49030900Y-129598000D01*
X113021000Y-59021000D02*
X112170000Y-58170000D01*
X123707499Y-51390698D02*
X122080000Y-49763199D01*
X254500000Y-129914001D02*
X254500000Y-131548570D01*
X67801000Y-120721000D02*
X66700000Y-119620000D01*
X252362500Y-128514000D02*
X253099999Y-128514000D01*
X113000000Y-68000000D02*
X113021000Y-67979000D01*
X113021000Y-67979000D02*
X113021000Y-59021000D01*
X51203000Y-143203000D02*
X46000000Y-138000000D01*
X253099999Y-128514000D02*
X254500000Y-129914001D01*
X254500000Y-131548570D02*
X242845570Y-143203000D01*
X46000000Y-138000000D02*
X46000000Y-129584000D01*
X122080000Y-49763199D02*
X122080000Y-48260000D01*
X66700000Y-130000000D02*
X64396000Y-132304000D01*
%TO.N,Vcc*%
X228345700Y-101733500D02*
X228295700Y-101683500D01*
X228627100Y-113103000D02*
X228577100Y-113053000D01*
X229681100Y-101733500D02*
X228345700Y-101733500D01*
X224237500Y-113103000D02*
X225527100Y-113103000D01*
X252362500Y-124614000D02*
X251050000Y-124614000D01*
X229962500Y-113103000D02*
X228627100Y-113103000D01*
X251050000Y-124614000D02*
X251000000Y-124564000D01*
X225295700Y-101733500D02*
X223956100Y-101733500D01*
X225527100Y-113103000D02*
X225577100Y-113053000D01*
%TO.N,RAM-OE*%
X129233325Y-47446769D02*
X128881268Y-47094712D01*
X128879855Y-47094712D02*
X127581143Y-45796000D01*
X140149943Y-86471700D02*
X140149943Y-87232900D01*
X139000000Y-109500000D02*
X143500000Y-114000000D01*
X167499000Y-130760498D02*
X167499000Y-131258384D01*
X129000000Y-48177980D02*
X129233325Y-47944655D01*
X140502000Y-88415043D02*
X139901000Y-89016043D01*
X139000000Y-92349943D02*
X139000000Y-109500000D01*
X167500000Y-130759498D02*
X167499000Y-130760498D01*
X128881268Y-47094712D02*
X128879855Y-47094712D01*
X128998587Y-48177980D02*
X129000000Y-48177980D01*
X134203000Y-72501700D02*
X134203000Y-76964900D01*
X139901000Y-90551057D02*
X140101000Y-90751057D01*
X128203000Y-66501700D02*
X134203000Y-72501700D01*
X127581143Y-45796000D02*
X126418857Y-45796000D01*
X167500000Y-131692500D02*
X165909500Y-133283000D01*
X139901000Y-89016043D02*
X139901000Y-90551057D01*
X167500000Y-114000000D02*
X167500000Y-130759498D01*
X126418857Y-45796000D02*
X126417857Y-45797000D01*
X140502000Y-87584957D02*
X140502000Y-88415043D01*
X140101000Y-91248943D02*
X139000000Y-92349943D01*
X140540500Y-84918857D02*
X140540500Y-86081143D01*
X140141500Y-82903400D02*
X140141500Y-84519857D01*
X129233325Y-47944655D02*
X129233325Y-47446769D01*
X167500000Y-131259384D02*
X167500000Y-131692500D01*
X140101000Y-90751057D02*
X140101000Y-91248943D01*
X128203000Y-48973567D02*
X128203000Y-66501700D01*
X128494431Y-48682136D02*
X128203000Y-48973567D01*
X140540500Y-86081143D02*
X140149943Y-86471700D01*
X167499000Y-131258384D02*
X167500000Y-131259384D01*
X143500000Y-114000000D02*
X167500000Y-114000000D01*
X106603000Y-45797000D02*
X106500000Y-45900000D01*
X140141500Y-84519857D02*
X140540500Y-84918857D01*
X128494431Y-48682136D02*
X128998587Y-48177980D01*
X140149943Y-87232900D02*
X140502000Y-87584957D01*
X134203000Y-76964900D02*
X140141500Y-82903400D01*
X126417857Y-45797000D02*
X106603000Y-45797000D01*
%TO.N,RAM-A11*%
X144000000Y-50362000D02*
X144220000Y-50142000D01*
X121658000Y-85658000D02*
X119389500Y-85658000D01*
X93000000Y-79500000D02*
X93500000Y-80000000D01*
X233235625Y-116353000D02*
X229962500Y-116353000D01*
X93500000Y-80000000D02*
X113731500Y-80000000D01*
X104300000Y-54876950D02*
X104300000Y-48260000D01*
X144220000Y-50142000D02*
X144220000Y-48260000D01*
X124000000Y-88000000D02*
X121658000Y-85658000D01*
X97333950Y-61843000D02*
X104300000Y-54876950D01*
X144000000Y-41830999D02*
X144000000Y-46000000D01*
X113731500Y-80000000D02*
X119389500Y-85658000D01*
X233815761Y-115772864D02*
X233235625Y-116353000D01*
%TO.N,RAM-Q7*%
X74320000Y-130000000D02*
X75421000Y-128899000D01*
X123181000Y-68419000D02*
X123181000Y-56981000D01*
X242347270Y-142000000D02*
X252362500Y-131984770D01*
X75421000Y-128899000D02*
X75421000Y-120721000D01*
X70813000Y-133507000D02*
X51939900Y-133507000D01*
X119389500Y-116138000D02*
X119027500Y-116500000D01*
X119200000Y-53000000D02*
X114460000Y-48260000D01*
X53000000Y-142000000D02*
X242347270Y-142000000D01*
X49000000Y-131000000D02*
X49000000Y-138000000D01*
X252362500Y-131984770D02*
X252362500Y-130464000D01*
X126400000Y-51400000D02*
X124800000Y-53000000D01*
X124800000Y-53000000D02*
X119200000Y-53000000D01*
X75421000Y-120721000D02*
X74320000Y-119620000D01*
X122000000Y-69600000D02*
X123181000Y-68419000D01*
X49432900Y-131000000D02*
X49000000Y-131000000D01*
X49000000Y-138000000D02*
X53000000Y-142000000D01*
X51939900Y-133507000D02*
X49432900Y-131000000D01*
X74320000Y-130000000D02*
X70813000Y-133507000D01*
X123181000Y-56981000D02*
X119200000Y-53000000D01*
%TO.N,RAM-A6*%
X119642835Y-78575735D02*
X119924265Y-78575735D01*
X136131500Y-84564400D02*
X136131500Y-94316000D01*
X134629500Y-95803000D02*
X134629500Y-95818000D01*
X107666100Y-66599000D02*
X119642835Y-78575735D01*
X119924265Y-78621079D02*
X120253036Y-78949850D01*
X229681100Y-106933500D02*
X232654444Y-106933500D01*
X142781000Y-59859000D02*
X139140000Y-63500000D01*
X99220000Y-63500000D02*
X100819000Y-65099000D01*
X142781000Y-48141950D02*
X142781000Y-59859000D01*
X130516950Y-78949850D02*
X136131500Y-84564400D01*
X147738685Y-44875735D02*
X146047215Y-44875735D01*
X120253036Y-78949850D02*
X130516950Y-78949850D01*
X146047215Y-44875735D02*
X142781000Y-48141950D01*
X232654444Y-106933500D02*
X232813973Y-106773971D01*
X119924265Y-78575735D02*
X119924265Y-78621079D01*
X100819000Y-65099000D02*
X103666100Y-65099000D01*
X103666100Y-65099000D02*
X105166100Y-66599000D01*
X136131500Y-94316000D02*
X134629500Y-95818000D01*
X105166100Y-66599000D02*
X107666100Y-66599000D01*
%TO.N,RAM-WE*%
X130000000Y-47647757D02*
X130000000Y-48073122D01*
X167901000Y-113833900D02*
X167901000Y-129681089D01*
X127747243Y-45395000D02*
X126252757Y-45395000D01*
X126252757Y-45395000D02*
X126251757Y-45396000D01*
X167666100Y-113599000D02*
X167901000Y-113833900D01*
X130488757Y-47159000D02*
X130000000Y-47647757D01*
X96400000Y-46000000D02*
X94140000Y-48260000D01*
X106845943Y-45396000D02*
X106748943Y-45299000D01*
X128604000Y-66335600D02*
X134604000Y-72335600D01*
X140302000Y-90384957D02*
X140502000Y-90584957D01*
X140941500Y-84752757D02*
X140941500Y-86247243D01*
X106748943Y-45299000D02*
X106251057Y-45299000D01*
X140542500Y-82737300D02*
X140542500Y-84353757D01*
X106251057Y-45299000D02*
X105550057Y-46000000D01*
X140542500Y-84353757D02*
X140941500Y-84752757D01*
X134604000Y-76798800D02*
X140542500Y-82737300D01*
X134060000Y-48260000D02*
X132959000Y-47159000D01*
X140502000Y-91415043D02*
X139401000Y-92516043D01*
X134604000Y-72335600D02*
X134604000Y-76798800D01*
X140903000Y-87418857D02*
X140903000Y-88581143D01*
X168100000Y-129880089D02*
X168100000Y-131009441D01*
X140903000Y-88581143D02*
X140302000Y-89182143D01*
X130000000Y-47647757D02*
X127747243Y-45395000D01*
X140941500Y-86247243D02*
X140550943Y-86637800D01*
X139401000Y-92516043D02*
X139401000Y-109333900D01*
X132959000Y-47159000D02*
X130488757Y-47159000D01*
X140502000Y-90584957D02*
X140502000Y-91415043D01*
X126251757Y-45396000D02*
X106845943Y-45396000D01*
X140302000Y-89182143D02*
X140302000Y-90384957D01*
X143666100Y-113599000D02*
X167666100Y-113599000D01*
X140550943Y-86637800D02*
X140550943Y-87066800D01*
X105550057Y-46000000D02*
X96400000Y-46000000D01*
X130000000Y-48073122D02*
X128604000Y-49469122D01*
X139401000Y-109333900D02*
X143666100Y-113599000D01*
X140550943Y-87066800D02*
X140903000Y-87418857D01*
X167901000Y-129681089D02*
X168100000Y-129880089D01*
X128604000Y-49469122D02*
X128604000Y-66335600D01*
%TO.N,RAM-Q0*%
X243509970Y-144807000D02*
X256104000Y-132212970D01*
X123224265Y-69600000D02*
X124000000Y-68824265D01*
X56540000Y-130000000D02*
X57979000Y-128561000D01*
X54272085Y-127732085D02*
X41938715Y-127732085D01*
X155420000Y-65000000D02*
X130000000Y-65000000D01*
X57979000Y-121059000D02*
X56540000Y-119620000D01*
X256104000Y-132212970D02*
X256104000Y-128918001D01*
X253099999Y-125914000D02*
X252362500Y-125914000D01*
X42000000Y-138000000D02*
X48807000Y-144807000D01*
X41938715Y-127732085D02*
X42000000Y-127793370D01*
X42000000Y-127793370D02*
X42000000Y-138000000D01*
X124000000Y-68824265D02*
X124000000Y-66001000D01*
X117000000Y-66001000D02*
X117000000Y-63500000D01*
X48807000Y-144807000D02*
X243509970Y-144807000D01*
X56540000Y-130000000D02*
X54272085Y-127732085D01*
X256104000Y-128918001D02*
X253099999Y-125914000D01*
X156920000Y-63500000D02*
X155420000Y-65000000D01*
X57979000Y-128561000D02*
X57979000Y-121059000D01*
%TO.N,RAM-A0*%
X130695000Y-94614622D02*
X130695000Y-95081143D01*
X130482263Y-92482263D02*
X130343612Y-92620914D01*
X158021000Y-59859000D02*
X154380000Y-63500000D01*
X130895000Y-95281143D02*
X130895000Y-96096300D01*
X133099000Y-107554600D02*
X133500000Y-107955600D01*
X131896000Y-97097300D02*
X131896000Y-100432900D01*
X132297000Y-100833900D02*
X132297000Y-102806800D01*
X130895000Y-96096300D02*
X131896000Y-97097300D01*
X130500000Y-92500000D02*
X130482263Y-92482263D01*
X132698000Y-105180700D02*
X133099000Y-105581700D01*
X130482263Y-93552859D02*
X130482263Y-94401885D01*
X132297000Y-102806800D02*
X132698000Y-103207800D01*
X132698000Y-103207800D02*
X132698000Y-105180700D01*
X131896000Y-100432900D02*
X132297000Y-100833900D01*
X158021000Y-47021000D02*
X158021000Y-59859000D01*
X133500000Y-107955600D02*
X133500000Y-109928500D01*
X229681100Y-103033500D02*
X230820204Y-103033500D01*
X138537500Y-107150000D02*
X134629500Y-111058000D01*
X131513550Y-76543850D02*
X138537500Y-83567800D01*
X124338249Y-76543850D02*
X131513550Y-76543850D01*
X130482263Y-94401885D02*
X130695000Y-94614622D01*
X130343612Y-92620914D02*
X130343612Y-93414208D01*
X130695000Y-95081143D02*
X130895000Y-95281143D01*
X122390399Y-74596000D02*
X124338249Y-76543850D01*
X133099000Y-105581700D02*
X133099000Y-107554600D01*
X230820204Y-103033500D02*
X230845137Y-103008567D01*
X119163100Y-74596000D02*
X122390399Y-74596000D01*
X114460000Y-69892900D02*
X119163100Y-74596000D01*
X158000000Y-47000000D02*
X158021000Y-47021000D01*
X133500000Y-109928500D02*
X134629500Y-111058000D01*
X138537500Y-83567800D02*
X138537500Y-107150000D01*
X114460000Y-63500000D02*
X114460000Y-69892900D01*
X130343612Y-93414208D02*
X130482263Y-93552859D01*
%TO.N,RAM-A13*%
X134340000Y-46000000D02*
X136600000Y-48260000D01*
X94333950Y-61843000D02*
X94333950Y-61684000D01*
X94333950Y-61684000D02*
X98312500Y-57705450D01*
X229962500Y-117653000D02*
X233351600Y-117653000D01*
X89400000Y-79500000D02*
X90400000Y-80500000D01*
X128919343Y-46000000D02*
X134340000Y-46000000D01*
X109151500Y-80500000D02*
X119389500Y-90738000D01*
X98312500Y-57705450D02*
X98312500Y-49892500D01*
X233351600Y-117653000D02*
X233468600Y-117536000D01*
X90400000Y-80500000D02*
X109151500Y-80500000D01*
X120738000Y-90738000D02*
X119389500Y-90738000D01*
X127118343Y-44199000D02*
X128919343Y-46000000D01*
X98312500Y-49892500D02*
X96680000Y-48260000D01*
X127000000Y-44199000D02*
X127118343Y-44199000D01*
X124000000Y-94000000D02*
X120738000Y-90738000D01*
%TO.N,RAM-A1*%
X132297000Y-100266800D02*
X132698000Y-100667800D01*
X118997000Y-74997000D02*
X122224299Y-74997000D01*
X133500000Y-107388500D02*
X134629500Y-108518000D01*
X124172149Y-76944850D02*
X131347450Y-76944850D01*
X138136500Y-105011000D02*
X134629500Y-108518000D01*
X130944612Y-93165265D02*
X130883263Y-93226614D01*
X132698000Y-102640700D02*
X133099000Y-103041700D01*
X111920000Y-67920000D02*
X118997000Y-74997000D01*
X138136500Y-83733900D02*
X138136500Y-105011000D01*
X132698000Y-100667800D02*
X132698000Y-102640700D01*
X231179298Y-103683500D02*
X231214168Y-103718370D01*
X122224299Y-74997000D02*
X124172149Y-76944850D01*
X131096000Y-94448522D02*
X131096000Y-94915043D01*
X133099000Y-103041700D02*
X133099000Y-105014600D01*
X133099000Y-105014600D02*
X133500000Y-105415600D01*
X229681100Y-103683500D02*
X231179298Y-103683500D01*
X131296000Y-95115043D02*
X131296000Y-95930200D01*
X130883263Y-93226614D02*
X130883263Y-94235785D01*
X155819000Y-59521000D02*
X151840000Y-63500000D01*
X132297000Y-96931200D02*
X132297000Y-100266800D01*
X133500000Y-105415600D02*
X133500000Y-107388500D01*
X157000000Y-46239000D02*
X155819000Y-47420000D01*
X130883263Y-94235785D02*
X131096000Y-94448522D01*
X131296000Y-95930200D02*
X132297000Y-96931200D01*
X131096000Y-94915043D02*
X131296000Y-95115043D01*
X111920000Y-63500000D02*
X111920000Y-67920000D01*
X155819000Y-47420000D02*
X155819000Y-59521000D01*
X131347450Y-76944850D02*
X138136500Y-83733900D01*
%TO.N,GND*%
X91100000Y-132500000D02*
X91100000Y-136500000D01*
X223968600Y-119221900D02*
X224237500Y-118953000D01*
X223687200Y-108230500D02*
X223687200Y-107852400D01*
X223687200Y-107852400D02*
X223956100Y-107583500D01*
X165909500Y-122500000D02*
X165909500Y-126283000D01*
X165909500Y-119000000D02*
X165909500Y-114500000D01*
X91100000Y-136500000D02*
X91100000Y-140500000D01*
X231918600Y-113753000D02*
X231968600Y-113703000D01*
X253736000Y-125264000D02*
X252362500Y-125264000D01*
X229962500Y-113753000D02*
X231918600Y-113753000D01*
X229681100Y-102383500D02*
X228642700Y-102383500D01*
X223968600Y-119600000D02*
X223968600Y-119221900D01*
X246637500Y-130464000D02*
X245255500Y-130464000D01*
X165909500Y-119000000D02*
X165909500Y-122500000D01*
X228642700Y-102383500D02*
X228295700Y-102730500D01*
%TO.N,RAM-Q3*%
X64160000Y-130000000D02*
X65261000Y-128899000D01*
X64160000Y-130000000D02*
X62257000Y-131903000D01*
X62257000Y-131903000D02*
X52604300Y-131903000D01*
X115561000Y-67499000D02*
X115561000Y-60561000D01*
X52604300Y-131903000D02*
X49898300Y-129197000D01*
X254901000Y-131714670D02*
X254901000Y-129734900D01*
X45551057Y-129183000D02*
X45000000Y-129183000D01*
X45751057Y-128983000D02*
X45551057Y-129183000D01*
X115060000Y-68000000D02*
X115561000Y-67499000D01*
X45000000Y-138000000D02*
X50604000Y-143604000D01*
X253030100Y-127864000D02*
X252362500Y-127864000D01*
X45000000Y-129183000D02*
X45000000Y-138000000D01*
X254901000Y-129734900D02*
X253030100Y-127864000D01*
X50604000Y-143604000D02*
X243011670Y-143604000D01*
X65261000Y-128899000D02*
X65261000Y-120721000D01*
X115561000Y-60561000D02*
X113940000Y-58940000D01*
X49197000Y-129197000D02*
X48983000Y-128983000D01*
X48983000Y-128983000D02*
X45751057Y-128983000D01*
X243011670Y-143604000D02*
X254901000Y-131714670D01*
X49898300Y-129197000D02*
X49197000Y-129197000D01*
X65261000Y-120721000D02*
X64160000Y-119620000D01*
%TO.N,RAM-A3*%
X121236250Y-75999000D02*
X122984100Y-77746850D01*
X132098000Y-94500000D02*
X132098000Y-95598000D01*
X108164400Y-65396000D02*
X107396000Y-65396000D01*
X107396000Y-65396000D02*
X106840000Y-64840000D01*
X137334500Y-84066100D02*
X137334500Y-100733000D01*
X150739000Y-47803950D02*
X150739000Y-59521000D01*
X137334500Y-100733000D02*
X134629500Y-103438000D01*
X231528606Y-104983500D02*
X231585872Y-105040766D01*
X122984100Y-77746850D02*
X131015250Y-77746850D01*
X118724185Y-75955785D02*
X108164400Y-65396000D01*
X121193035Y-75955785D02*
X118724185Y-75955785D01*
X229681100Y-104983500D02*
X231528606Y-104983500D01*
X133500000Y-100335600D02*
X133500000Y-102308500D01*
X150739000Y-59521000D02*
X146760000Y-63500000D01*
X154358685Y-45875735D02*
X152667215Y-45875735D01*
X133099000Y-96599000D02*
X133099000Y-99934600D01*
X121236250Y-75999000D02*
X121193035Y-75955785D01*
X133500000Y-102308500D02*
X134629500Y-103438000D01*
X106840000Y-64840000D02*
X106840000Y-63500000D01*
X133099000Y-99934600D02*
X133500000Y-100335600D01*
X131015250Y-77746850D02*
X137334500Y-84066100D01*
X132098000Y-95598000D02*
X133099000Y-96599000D01*
X152667215Y-45875735D02*
X150739000Y-47803950D01*
%TO.N,RAM-Q2*%
X61620000Y-130000000D02*
X63000000Y-128620000D01*
X122080000Y-67920000D02*
X122080000Y-63500000D01*
X63000000Y-121000000D02*
X61620000Y-119620000D01*
X49363100Y-128796000D02*
X49149100Y-128582000D01*
X44200000Y-128582000D02*
X44000000Y-128782000D01*
X162000000Y-63500000D02*
X158558465Y-66941535D01*
X44000000Y-138000000D02*
X50005000Y-144005000D01*
X117000000Y-70000000D02*
X120000000Y-70000000D01*
X253099999Y-127214000D02*
X252362500Y-127214000D01*
X255302000Y-131880770D02*
X255302000Y-129416001D01*
X243177770Y-144005000D02*
X255302000Y-131880770D01*
X60118000Y-131502000D02*
X52770400Y-131502000D01*
X255302000Y-129416001D02*
X253099999Y-127214000D01*
X63000000Y-128620000D02*
X63000000Y-121000000D01*
X49149100Y-128582000D02*
X44200000Y-128582000D01*
X158558465Y-66941535D02*
X130058465Y-66941535D01*
X50064400Y-128796000D02*
X49363100Y-128796000D01*
X44000000Y-128782000D02*
X44000000Y-138000000D01*
X61620000Y-130000000D02*
X60118000Y-131502000D01*
X50005000Y-144005000D02*
X243177770Y-144005000D01*
X120000000Y-70000000D02*
X122080000Y-67920000D01*
X52770400Y-131502000D02*
X50064400Y-128796000D01*
%TO.N,RAM-Q1*%
X59080000Y-130000000D02*
X57979000Y-131101000D01*
X59080000Y-130000000D02*
X60181000Y-128899000D01*
X49529200Y-128395000D02*
X49315200Y-128181000D01*
X253017099Y-126564000D02*
X252362500Y-126564000D01*
X50230500Y-128395000D02*
X49529200Y-128395000D01*
X43000000Y-138000000D02*
X49406000Y-144406000D01*
X253401000Y-126945130D02*
X253168870Y-126713000D01*
X43000000Y-128381000D02*
X43000000Y-138000000D01*
X60181000Y-128899000D02*
X60181000Y-120721000D01*
X243343870Y-144406000D02*
X255703000Y-132046870D01*
X253401000Y-126947901D02*
X253401000Y-126945130D01*
X125000000Y-70000000D02*
X126000000Y-69000000D01*
X49406000Y-144406000D02*
X243343870Y-144406000D01*
X253166099Y-126713000D02*
X253017099Y-126564000D01*
X253168870Y-126713000D02*
X253166099Y-126713000D01*
X159460000Y-63500000D02*
X156960000Y-66000000D01*
X43200000Y-128181000D02*
X43000000Y-128381000D01*
X255703000Y-129249901D02*
X253401000Y-126947901D01*
X156960000Y-66000000D02*
X130000000Y-66000000D01*
X119540000Y-67000000D02*
X119540000Y-63500000D01*
X255703000Y-132046870D02*
X255703000Y-129249901D01*
X126000000Y-69000000D02*
X126000000Y-67000000D01*
X52936500Y-131101000D02*
X50230500Y-128395000D01*
X57979000Y-131101000D02*
X52936500Y-131101000D01*
X49315200Y-128181000D02*
X43200000Y-128181000D01*
X60181000Y-120721000D02*
X59080000Y-119620000D01*
%TO.N,RAM-CS*%
X124000000Y-100428500D02*
X119389500Y-95818000D01*
X98833950Y-61843000D02*
X98833950Y-61346050D01*
X98833950Y-61346050D02*
X111920000Y-48260000D01*
X94140000Y-79000000D02*
X95500000Y-79000000D01*
X233257783Y-118953000D02*
X229962500Y-118953000D01*
X104505500Y-81500000D02*
X118823500Y-95818000D01*
X233782855Y-118980186D02*
X233284969Y-118980186D01*
X118823500Y-95818000D02*
X119389500Y-95818000D01*
X124000000Y-100500000D02*
X124000000Y-100428500D01*
X233284969Y-118980186D02*
X233257783Y-118953000D01*
X95500000Y-81600000D02*
X95600000Y-81500000D01*
X103000000Y-45000000D02*
X106000000Y-42000000D01*
X91760000Y-76620000D02*
X94140000Y-79000000D01*
X233810041Y-118953000D02*
X233782855Y-118980186D01*
X234224100Y-118953000D02*
X233810041Y-118953000D01*
X95600000Y-81500000D02*
X104505500Y-81500000D01*
X234577100Y-118600000D02*
X234224100Y-118953000D01*
%TO.N,RAM-A2*%
X121975356Y-75598000D02*
X123723206Y-77345850D01*
X231730000Y-104333500D02*
X231794936Y-104268564D01*
X133099000Y-100501700D02*
X133099000Y-102474600D01*
X109380000Y-63500000D02*
X109380000Y-66044500D01*
X123723206Y-77345850D02*
X131181350Y-77345850D01*
X133500000Y-102875600D02*
X133500000Y-104848500D01*
X137735500Y-102872000D02*
X134629500Y-105978000D01*
X131497000Y-94748943D02*
X131697000Y-94948943D01*
X137735500Y-83900000D02*
X137735500Y-102872000D01*
X132698000Y-100100700D02*
X133099000Y-100501700D01*
X152941000Y-48141950D02*
X152941000Y-59859000D01*
X109380000Y-66044500D02*
X118733500Y-75398000D01*
X131181350Y-77345850D02*
X137735500Y-83900000D01*
X131622739Y-94125318D02*
X131497000Y-94251057D01*
X131497000Y-94251057D02*
X131497000Y-94748943D01*
X131484263Y-93986842D02*
X131622739Y-94125318D01*
X131697000Y-94948943D02*
X131697000Y-95764100D01*
X118733500Y-75398000D02*
X121775356Y-75398000D01*
X152941000Y-59859000D02*
X149300000Y-63500000D01*
X131697000Y-95764100D02*
X132698000Y-96765100D01*
X121775356Y-75398000D02*
X121975356Y-75598000D01*
X155082950Y-46000000D02*
X152941000Y-48141950D01*
X132698000Y-96765100D02*
X132698000Y-100100700D01*
X133500000Y-104848500D02*
X134629500Y-105978000D01*
X156000000Y-46000000D02*
X155082950Y-46000000D01*
X229681100Y-104333500D02*
X231730000Y-104333500D01*
X133099000Y-102474600D02*
X133500000Y-102875600D01*
%TO.N,RAM-A4*%
X150966950Y-45036000D02*
X148000000Y-48002950D01*
X148000000Y-48002950D02*
X148000000Y-59720000D01*
X136933500Y-84232200D02*
X136933500Y-98594000D01*
X119838215Y-76556785D02*
X118758085Y-76556785D01*
X104300000Y-64598700D02*
X104300000Y-63500000D01*
X130849150Y-78147850D02*
X136933500Y-84232200D01*
X229681100Y-105633500D02*
X229714100Y-105666500D01*
X229714100Y-105666500D02*
X232095473Y-105666500D01*
X105498300Y-65797000D02*
X104300000Y-64598700D01*
X121429280Y-78147850D02*
X130849150Y-78147850D01*
X154000000Y-45036000D02*
X150966950Y-45036000D01*
X232095473Y-105666500D02*
X232487839Y-105274134D01*
X119838215Y-76556785D02*
X119697500Y-76697500D01*
X148000000Y-59720000D02*
X144220000Y-63500000D01*
X133500000Y-96104130D02*
X133500000Y-99768500D01*
X132897935Y-95502065D02*
X133500000Y-96104130D01*
X136933500Y-98594000D02*
X134629500Y-100898000D01*
X119838215Y-76556785D02*
X121429280Y-78147850D01*
X118758085Y-76556785D02*
X107998300Y-65797000D01*
X133500000Y-99768500D02*
X134629500Y-100898000D01*
X107998300Y-65797000D02*
X105498300Y-65797000D01*
%TO.N,RAM-A8*%
X126583957Y-46198000D02*
X107051943Y-46198000D01*
X128632325Y-47695712D02*
X128632325Y-47414282D01*
X140139500Y-85084957D02*
X139740500Y-84685957D01*
X127802000Y-48526037D02*
X128632325Y-47695712D01*
X140139500Y-85915043D02*
X140139500Y-85084957D01*
X139500000Y-88849943D02*
X140101000Y-88248943D01*
X100980000Y-46500000D02*
X99220000Y-48260000D01*
X107051943Y-46198000D02*
X106748943Y-46501000D01*
X128632325Y-47414282D02*
X127415043Y-46197000D01*
X139748943Y-86305600D02*
X140139500Y-85915043D01*
X126584957Y-46197000D02*
X126583957Y-46198000D01*
X139500000Y-91000000D02*
X139500000Y-88849943D01*
X106250057Y-46500000D02*
X100980000Y-46500000D01*
X133802000Y-77131000D02*
X133802000Y-72667800D01*
X232601600Y-114403000D02*
X232968600Y-114036000D01*
X133802000Y-72667800D02*
X127802000Y-66667800D01*
X139748943Y-87399000D02*
X139748943Y-86305600D01*
X106251057Y-46501000D02*
X106250057Y-46500000D01*
X139740500Y-83069500D02*
X133802000Y-77131000D01*
X106748943Y-46501000D02*
X106251057Y-46501000D01*
X139740500Y-84685957D02*
X139740500Y-83069500D01*
X140101000Y-87751057D02*
X139748943Y-87399000D01*
X229962500Y-114403000D02*
X232601600Y-114403000D01*
X127415043Y-46197000D02*
X126584957Y-46197000D01*
X127802000Y-66667800D02*
X127802000Y-48526037D01*
X140101000Y-88248943D02*
X140101000Y-87751057D01*
%TO.N,Net-(D32-A)*%
X63000000Y-97840000D02*
X64401000Y-96439000D01*
X64401000Y-96439000D02*
X64401000Y-71301000D01*
X64401000Y-71301000D02*
X63000000Y-69900000D01*
%TO.N,Net-(D34-A)*%
X49401000Y-71301000D02*
X48000000Y-69900000D01*
X49401000Y-96439000D02*
X49401000Y-71301000D01*
X48000000Y-97840000D02*
X49401000Y-96439000D01*
%TO.N,Net-(D65-A)*%
X219500000Y-85500000D02*
X219500000Y-79775000D01*
%TO.N,Net-(D66-A)*%
X214500000Y-85500000D02*
X214500000Y-79775000D01*
%TO.N,Net-(D36-A)*%
X59401000Y-71301000D02*
X58000000Y-69900000D01*
X58000000Y-97840000D02*
X59401000Y-96439000D01*
X59401000Y-96439000D02*
X59401000Y-71301000D01*
%TO.N,Z80-NMI*%
X116187500Y-129500000D02*
X119389500Y-126298000D01*
X111080000Y-129500000D02*
X116187500Y-129500000D01*
%TO.N,Z80-MREQ*%
X114267500Y-136500000D02*
X119389500Y-131378000D01*
X83481000Y-120279000D02*
X82380000Y-121380000D01*
X119294500Y-131283000D02*
X119389500Y-131378000D01*
X82380000Y-113760000D02*
X83481000Y-114861000D01*
X111160000Y-136500000D02*
X114267500Y-136500000D01*
X83481000Y-114861000D02*
X83481000Y-120279000D01*
%TO.N,Z80-RD*%
X134629500Y-133918000D02*
X141211500Y-140500000D01*
X141211500Y-140500000D02*
X143432500Y-140500000D01*
%TO.N,Z80-WAIT*%
X143340000Y-130283000D02*
X138614500Y-130283000D01*
X138614500Y-130283000D02*
X134629500Y-126298000D01*
X132951057Y-137383893D02*
X132951057Y-127976443D01*
X254250000Y-119500000D02*
X247750000Y-119500000D01*
X132951057Y-127976443D02*
X134629500Y-126298000D01*
%TO.N,Z80-BUSREQ*%
X143429500Y-126783000D02*
X137654500Y-126783000D01*
X137654500Y-126783000D02*
X134629500Y-123758000D01*
%TO.N,Z80-HALT*%
X111080000Y-133000000D02*
X115227500Y-133000000D01*
X115227500Y-133000000D02*
X119389500Y-128838000D01*
%TO.N,Net-(D67-A)*%
X209500000Y-85500000D02*
X209500000Y-79775000D01*
%TO.N,Z80-WR*%
X141000000Y-137500000D02*
X143432500Y-137500000D01*
X131000000Y-132900000D02*
X131900000Y-132000000D01*
X134878000Y-131378000D02*
X141000000Y-137500000D01*
X131000000Y-138000000D02*
X131000000Y-132900000D01*
X134629500Y-131378000D02*
X134878000Y-131378000D01*
%TO.N,Z80-BUSACK*%
X139574500Y-133783000D02*
X134629500Y-128838000D01*
X143349500Y-133783000D02*
X139574500Y-133783000D01*
%TO.N,Net-(D68-A)*%
X204500000Y-85500000D02*
X204500000Y-79775000D01*
%TO.N,Net-(D69-A)*%
X199500000Y-85500000D02*
X199500000Y-79775000D01*
%TO.N,Net-(D70-A)*%
X194500000Y-85420000D02*
X194500000Y-79695000D01*
%TO.N,Net-(D71-A)*%
X189500000Y-85420000D02*
X189500000Y-79695000D01*
%TO.N,Net-(D72-A)*%
X184500000Y-85420000D02*
X184500000Y-79695000D01*
%TO.N,Z80-M1*%
X143429500Y-119783000D02*
X135734500Y-119783000D01*
X135734500Y-119783000D02*
X134629500Y-118678000D01*
%TO.N,Z80-IORQ*%
X113307500Y-140000000D02*
X119389500Y-133918000D01*
X111080000Y-140000000D02*
X113307500Y-140000000D01*
%TO.N,Net-(D38-A)*%
X69401000Y-96439000D02*
X69401000Y-71301000D01*
X68000000Y-97840000D02*
X69401000Y-96439000D01*
X69401000Y-71301000D02*
X68000000Y-69900000D01*
%TO.N,Net-(D73-A)*%
X179500000Y-85500000D02*
X179500000Y-79775000D01*
%TO.N,Net-(D74-A)*%
X174500000Y-85500000D02*
X174500000Y-79775000D01*
%TO.N,Z80-RESET*%
X254250000Y-111250000D02*
X247750000Y-111250000D01*
X132500000Y-136616844D02*
X132500000Y-123347500D01*
X143429500Y-123283000D02*
X136694500Y-123283000D01*
X132500000Y-123347500D02*
X134629500Y-121218000D01*
X132351057Y-136765787D02*
X132500000Y-136616844D01*
X136694500Y-123283000D02*
X134629500Y-121218000D01*
%TO.N,Z80-INT*%
X117147500Y-126000000D02*
X119389500Y-123758000D01*
X111080000Y-126000000D02*
X117147500Y-126000000D01*
%TO.N,Net-(D75-A)*%
X169500000Y-85500000D02*
X169500000Y-79775000D01*
%TO.N,Net-(D76-A)*%
X164500000Y-85500000D02*
X164500000Y-79775000D01*
%TO.N,Net-(D40-A)*%
X84401000Y-96439000D02*
X84401000Y-71301000D01*
X84401000Y-71301000D02*
X83000000Y-69900000D01*
X83000000Y-97840000D02*
X84401000Y-96439000D01*
%TO.N,Net-(D42-A)*%
X74401000Y-96439000D02*
X74401000Y-71301000D01*
X74401000Y-71301000D02*
X73000000Y-69900000D01*
X73000000Y-97840000D02*
X74401000Y-96439000D01*
%TO.N,Net-(D77-A)*%
X159500000Y-85500000D02*
X159500000Y-79775000D01*
%TO.N,Net-(D44-A)*%
X79401000Y-71301000D02*
X78000000Y-69900000D01*
X79401000Y-96439000D02*
X79401000Y-71301000D01*
X78000000Y-97840000D02*
X79401000Y-96439000D01*
%TO.N,Net-(D48-A)*%
X54401000Y-96439000D02*
X54401000Y-71301000D01*
X53000000Y-97840000D02*
X54401000Y-96439000D01*
X54401000Y-71301000D02*
X53000000Y-69900000D01*
%TO.N,Net-(D78-A)*%
X154500000Y-85500000D02*
X154500000Y-79775000D01*
%TO.N,Net-(D79-A)*%
X149500000Y-85420000D02*
X149500000Y-79695000D01*
%TO.N,Z80-RFSH*%
X134774500Y-116283000D02*
X134629500Y-116138000D01*
X143429500Y-116283000D02*
X134774500Y-116283000D01*
%TO.N,Net-(D1-A)*%
X161509500Y-126283000D02*
X163634500Y-126283000D01*
X154009500Y-133783000D02*
X161509500Y-126283000D01*
X153509500Y-133783000D02*
X154009500Y-133783000D01*
%TO.N,Net-(D45-A)*%
X93375000Y-132500000D02*
X100420000Y-132500000D01*
X100420000Y-132500000D02*
X100920000Y-133000000D01*
%TO.N,Net-(D50-A)*%
X93375000Y-140500000D02*
X100420000Y-140500000D01*
X100420000Y-140500000D02*
X100920000Y-140000000D01*
%TO.N,Net-(D51-A)*%
X93375000Y-136500000D02*
X101000000Y-136500000D01*
%TO.N,Net-(D52-A)*%
X154372500Y-119000000D02*
X153589500Y-119783000D01*
X163634500Y-119000000D02*
X154372500Y-119000000D01*
%TO.N,Net-(D53-A)*%
X154372500Y-115500000D02*
X153589500Y-116283000D01*
X154372500Y-115500000D02*
X163634500Y-115500000D01*
%TO.N,Vdd_3v3*%
X85477500Y-43000000D02*
X83391500Y-45086000D01*
X89000000Y-43000000D02*
X85477500Y-43000000D01*
X174500000Y-119200000D02*
X174500000Y-118000000D01*
%TO.N,RP2040-DVDD*%
X185254000Y-54298500D02*
X185054000Y-54098500D01*
X185254000Y-55298500D02*
X185254000Y-54298500D01*
X185054000Y-54098500D02*
X185054000Y-50272084D01*
X196950000Y-52000000D02*
X194955000Y-53995000D01*
X190500000Y-53611600D02*
X190500000Y-62542185D01*
X189500000Y-52611600D02*
X190500000Y-53611600D01*
X190097300Y-47396000D02*
X188236650Y-47396000D01*
X194696300Y-53995000D02*
X192850650Y-52149350D01*
X188236650Y-47396000D02*
X185360566Y-50272084D01*
X187000000Y-65000000D02*
X186998000Y-64998000D01*
X189000000Y-50000000D02*
X189183099Y-50000000D01*
X186057000Y-64998000D02*
X186054000Y-64995000D01*
X194955000Y-53995000D02*
X194696300Y-53995000D01*
X185360566Y-50272084D02*
X185054000Y-50272084D01*
X192850650Y-52149350D02*
X192850650Y-50149350D01*
X186054000Y-64995000D02*
X186054000Y-62173500D01*
X189500000Y-50316901D02*
X189500000Y-52611600D01*
X192850650Y-50149350D02*
X190097300Y-47396000D01*
X186998000Y-64998000D02*
X186057000Y-64998000D01*
X190500000Y-62542185D02*
X188042185Y-65000000D01*
X189183099Y-50000000D02*
X189500000Y-50316901D01*
X188042185Y-65000000D02*
X187000000Y-65000000D01*
%TO.N,RP2040-IOVDD*%
X185654000Y-55846000D02*
X185654000Y-55833774D01*
X185654000Y-55846000D02*
X186593000Y-56785000D01*
X199404000Y-54396000D02*
X194530200Y-54396000D01*
X185654000Y-55298500D02*
X185654000Y-50545750D01*
X192304000Y-50169800D02*
X189931200Y-47797000D01*
X185654000Y-62173500D02*
X185654000Y-61000000D01*
X185654000Y-55298500D02*
X185654000Y-55846000D01*
X187102943Y-56785000D02*
X187751943Y-56136000D01*
X184028000Y-61000000D02*
X187000000Y-61000000D01*
X187000000Y-61000000D02*
X188264000Y-59736000D01*
X183000000Y-56584226D02*
X182550774Y-56135000D01*
X182764000Y-59736000D02*
X184028000Y-61000000D01*
X187751943Y-56136000D02*
X188891500Y-56136000D01*
X188264000Y-59736000D02*
X188891500Y-59736000D01*
X188402750Y-47797000D02*
X185654000Y-50545750D01*
X186593000Y-56785000D02*
X187102943Y-56785000D01*
X182550774Y-56135000D02*
X182182600Y-56135000D01*
X188000000Y-59472000D02*
X188000000Y-56136000D01*
X189931200Y-47797000D02*
X188402750Y-47797000D01*
X192304000Y-52169800D02*
X192304000Y-50169800D01*
X188264000Y-59736000D02*
X188000000Y-59472000D01*
X183000000Y-59500000D02*
X183000000Y-56584226D01*
X182016500Y-59736000D02*
X182764000Y-59736000D01*
X182764000Y-59736000D02*
X183000000Y-59500000D01*
X201800000Y-52000000D02*
X199404000Y-54396000D01*
X194530200Y-54396000D02*
X192304000Y-52169800D01*
%TO.N,RP2040-USB_VDD*%
X188568850Y-48198000D02*
X186055000Y-50711850D01*
X191903000Y-52335900D02*
X191903000Y-50335900D01*
X194364100Y-54797000D02*
X191903000Y-52335900D01*
X203853000Y-54797000D02*
X194364100Y-54797000D01*
X189765100Y-48198000D02*
X188568850Y-48198000D01*
X206650000Y-52000000D02*
X203853000Y-54797000D01*
X191903000Y-50335900D02*
X189765100Y-48198000D01*
X186055000Y-54206326D02*
X186055000Y-50711850D01*
X186054000Y-55298500D02*
X186054000Y-54207326D01*
X186054000Y-54207326D02*
X186055000Y-54206326D01*
%TO.N,RP2040-VREG_VOUT*%
X188734950Y-48599000D02*
X189599000Y-48599000D01*
X187333950Y-50000000D02*
X188734950Y-48599000D01*
X189599000Y-48599000D02*
X191502000Y-50502000D01*
X208302000Y-55198000D02*
X211500000Y-52000000D01*
X191502000Y-52502000D02*
X194198000Y-55198000D01*
X187254000Y-54763950D02*
X187250000Y-54759950D01*
X191502000Y-50502000D02*
X191502000Y-52502000D01*
X187254000Y-55298500D02*
X187254000Y-54763950D01*
X187333950Y-54166050D02*
X187333950Y-50000000D01*
X187250000Y-54759950D02*
X187250000Y-54250000D01*
X194198000Y-55198000D02*
X208302000Y-55198000D01*
X187250000Y-54250000D02*
X187333950Y-54166050D01*
%TO.N,Net-(Flash1-VCC)*%
X232960000Y-57460000D02*
X231175000Y-57460000D01*
X234500000Y-59000000D02*
X232960000Y-57460000D01*
%TO.N,Net-(D80-A)*%
X144500000Y-85420000D02*
X144500000Y-79695000D01*
%TO.N,Net-(D3-K)*%
X223956100Y-102383500D02*
X222804101Y-102383500D01*
X222804101Y-102383500D02*
X218646101Y-98225500D01*
X218646101Y-98225500D02*
X205773600Y-98225500D01*
X205773600Y-98225500D02*
X200968600Y-103030500D01*
%TO.N,Net-(D3-A)*%
X185450500Y-104829500D02*
X200569600Y-104829500D01*
X200569600Y-104829500D02*
X200968600Y-104430500D01*
X181770500Y-101149500D02*
X185450500Y-104829500D01*
%TO.N,Net-(LedMatrixAddress1-Q0)*%
X231620000Y-72180000D02*
X225101000Y-78699000D01*
X225101000Y-92956050D02*
X222397050Y-95660000D01*
X225101000Y-78699000D02*
X225101000Y-92956050D01*
X222397050Y-95660000D02*
X219500000Y-95660000D01*
%TO.N,Net-(D5-A)*%
X182769500Y-105230500D02*
X202618600Y-105230500D01*
X202618600Y-105230500D02*
X203418600Y-104430500D01*
X179230500Y-108769500D02*
X182769500Y-105230500D01*
%TO.N,Net-(D5-K)*%
X223956100Y-103033500D02*
X222887001Y-103033500D01*
X207822600Y-98626500D02*
X203418600Y-103030500D01*
X222887001Y-103033500D02*
X218480001Y-98626500D01*
X218480001Y-98626500D02*
X207822600Y-98626500D01*
%TO.N,Net-(LedMatrixAddress1-Q3)*%
X206403000Y-97563000D02*
X204500000Y-95660000D01*
X231620000Y-79800000D02*
X226304000Y-85116000D01*
X226304000Y-85116000D02*
X226304000Y-93454350D01*
X222195350Y-97563000D02*
X206403000Y-97563000D01*
X226304000Y-93454350D02*
X222195350Y-97563000D01*
%TO.N,Net-(D7-A)*%
X204635600Y-105663500D02*
X205868600Y-104430500D01*
X181770500Y-108769500D02*
X184876500Y-105663500D01*
X184876500Y-105663500D02*
X204635600Y-105663500D01*
%TO.N,Net-(D7-K)*%
X209871600Y-99027500D02*
X205868600Y-103030500D01*
X222969901Y-103683500D02*
X218313901Y-99027500D01*
X223956100Y-103683500D02*
X222969901Y-103683500D01*
X223909100Y-103730500D02*
X223956100Y-103683500D01*
X218313901Y-99027500D02*
X209871600Y-99027500D01*
%TO.N,Net-(LedMatrixAddress1-Q2)*%
X225903000Y-82977000D02*
X225903000Y-93288250D01*
X231620000Y-77260000D02*
X225903000Y-82977000D01*
X211002000Y-97162000D02*
X209500000Y-95660000D01*
X222029250Y-97162000D02*
X211002000Y-97162000D01*
X225903000Y-93288250D02*
X222029250Y-97162000D01*
%TO.N,Net-(D9-A)*%
X184310500Y-108769500D02*
X187015500Y-106064500D01*
X206684600Y-106064500D02*
X208318600Y-104430500D01*
X187015500Y-106064500D02*
X206684600Y-106064500D01*
%TO.N,Net-(D9-K)*%
X211920600Y-99428500D02*
X208318600Y-103030500D01*
X223052801Y-104333500D02*
X218147801Y-99428500D01*
X218147801Y-99428500D02*
X211920600Y-99428500D01*
X223956100Y-104333500D02*
X223052801Y-104333500D01*
%TO.N,Net-(D11-K)*%
X223135701Y-104983500D02*
X217981701Y-99829500D01*
X223956100Y-104983500D02*
X223135701Y-104983500D01*
X213969600Y-99829500D02*
X210768600Y-103030500D01*
X217981701Y-99829500D02*
X213969600Y-99829500D01*
%TO.N,Net-(D11-A)*%
X189154500Y-106465500D02*
X208733600Y-106465500D01*
X208733600Y-106465500D02*
X210768600Y-104430500D01*
X186850500Y-108769500D02*
X189154500Y-106465500D01*
%TO.N,Net-(LedMatrixAddress1-Q1)*%
X225502000Y-80838000D02*
X225502000Y-93122150D01*
X225502000Y-93122150D02*
X221863150Y-96761000D01*
X221863150Y-96761000D02*
X215601000Y-96761000D01*
X215601000Y-96761000D02*
X214500000Y-95660000D01*
X231620000Y-74720000D02*
X225502000Y-80838000D01*
%TO.N,Net-(D13-A)*%
X189390500Y-108769500D02*
X191293500Y-106866500D01*
X210782600Y-106866500D02*
X213218600Y-104430500D01*
X191293500Y-106866500D02*
X210782600Y-106866500D01*
%TO.N,Net-(D13-K)*%
X223956100Y-105633500D02*
X223218601Y-105633500D01*
X223218601Y-105633500D02*
X217815601Y-100230500D01*
X216018600Y-100230500D02*
X213218600Y-103030500D01*
X217815601Y-100230500D02*
X216018600Y-100230500D01*
%TO.N,Net-(D15-K)*%
X223215830Y-106283500D02*
X217563830Y-100631500D01*
X215668600Y-101147600D02*
X215668600Y-103030500D01*
X223956100Y-106283500D02*
X223215830Y-106283500D01*
X217563830Y-100631500D02*
X216184700Y-100631500D01*
X216184700Y-100631500D02*
X215668600Y-101147600D01*
%TO.N,Net-(D15-A)*%
X193432500Y-107267500D02*
X212831600Y-107267500D01*
X212831600Y-107267500D02*
X215668600Y-104430500D01*
X191930500Y-108769500D02*
X193432500Y-107267500D01*
%TO.N,Net-(D17-K)*%
X223298730Y-106933500D02*
X219395730Y-103030500D01*
X219395730Y-103030500D02*
X218168600Y-103030500D01*
X223956100Y-106933500D02*
X223298730Y-106933500D01*
%TO.N,Net-(D17-A)*%
X194470500Y-108769500D02*
X195571500Y-107668500D01*
X214930600Y-107668500D02*
X218168600Y-104430500D01*
X195571500Y-107668500D02*
X214930600Y-107668500D01*
%TO.N,Net-(D19-A)*%
X185443900Y-115996000D02*
X200604000Y-115996000D01*
X181771900Y-112324000D02*
X185443900Y-115996000D01*
X200604000Y-115996000D02*
X201100000Y-115500000D01*
%TO.N,Net-(D19-K)*%
X224237500Y-113753000D02*
X222999830Y-113753000D01*
X218440830Y-109194000D02*
X206006000Y-109194000D01*
X206006000Y-109194000D02*
X201100000Y-114100000D01*
X222999830Y-113753000D02*
X218440830Y-109194000D01*
%TO.N,Net-(LedMatrixAddress2-Q3)*%
X168309200Y-98675000D02*
X167515000Y-98675000D01*
X170223000Y-102168250D02*
X170223000Y-100588800D01*
X155620000Y-101380000D02*
X157924000Y-103684000D01*
X170223000Y-100588800D02*
X168309200Y-98675000D01*
X167515000Y-98675000D02*
X164500000Y-95660000D01*
X157924000Y-103684000D02*
X168707250Y-103684000D01*
X168707250Y-103684000D02*
X170223000Y-102168250D01*
%TO.N,Net-(D21-A)*%
X184917900Y-116798000D02*
X204702000Y-116798000D01*
X181771900Y-119944000D02*
X184917900Y-116798000D01*
X204702000Y-116798000D02*
X206000000Y-115500000D01*
%TO.N,Net-(D21-K)*%
X224237500Y-115053000D02*
X223165630Y-115053000D01*
X218108630Y-109996000D02*
X210104000Y-109996000D01*
X223165630Y-115053000D02*
X218108630Y-109996000D01*
X210104000Y-109996000D02*
X206000000Y-114100000D01*
%TO.N,Net-(LedMatrixAddress2-Q1)*%
X169039450Y-104486000D02*
X171025000Y-102500450D01*
X171025000Y-102500450D02*
X171025000Y-102475000D01*
X153646000Y-104486000D02*
X169039450Y-104486000D01*
X174500000Y-99000000D02*
X174500000Y-95660000D01*
X171025000Y-102475000D02*
X174500000Y-99000000D01*
X150540000Y-101380000D02*
X153646000Y-104486000D01*
%TO.N,Net-(D23-A)*%
X186851900Y-119944000D02*
X189195900Y-117600000D01*
X189195900Y-117600000D02*
X208900000Y-117600000D01*
X208900000Y-117600000D02*
X211000000Y-115500000D01*
%TO.N,Net-(D23-K)*%
X217776430Y-110798000D02*
X214302000Y-110798000D01*
X224237500Y-116353000D02*
X223331430Y-116353000D01*
X214302000Y-110798000D02*
X211000000Y-114100000D01*
X223331430Y-116353000D02*
X217776430Y-110798000D01*
%TO.N,Net-(LedMatrixAddress2-Q5)*%
X168375050Y-102882000D02*
X169421000Y-101836050D01*
X169421000Y-101836050D02*
X169421000Y-100923950D01*
X169000000Y-100500000D02*
X167977000Y-99477000D01*
X169000000Y-100502950D02*
X169000000Y-100500000D01*
X169421000Y-100923950D02*
X169000000Y-100502950D01*
X160700000Y-101380000D02*
X162202000Y-102882000D01*
X158317000Y-99477000D02*
X154500000Y-95660000D01*
X162202000Y-102882000D02*
X168375050Y-102882000D01*
X167977000Y-99477000D02*
X158317000Y-99477000D01*
%TO.N,Net-(D25-K)*%
X217444230Y-111600000D02*
X216567100Y-111600000D01*
X224237500Y-117653000D02*
X223497230Y-117653000D01*
X216567100Y-111600000D02*
X216000000Y-112167100D01*
X216000000Y-112167100D02*
X216000000Y-114100000D01*
X223497230Y-117653000D02*
X217444230Y-111600000D01*
%TO.N,Net-(D25-A)*%
X213058000Y-118442000D02*
X216000000Y-115500000D01*
X191931900Y-119944000D02*
X193433900Y-118442000D01*
X193433900Y-118442000D02*
X213058000Y-118442000D01*
%TO.N,Net-(LedMatrixAddress2-Q4)*%
X162916000Y-99076000D02*
X159500000Y-95660000D01*
X169822000Y-100754900D02*
X168143100Y-99076000D01*
X168143100Y-99076000D02*
X162916000Y-99076000D01*
X169822000Y-102002150D02*
X169822000Y-100754900D01*
X160063000Y-103283000D02*
X168541150Y-103283000D01*
X168541150Y-103283000D02*
X169822000Y-102002150D01*
X158160000Y-101380000D02*
X160063000Y-103283000D01*
%TO.N,Net-(D27-A)*%
X179231900Y-119944000D02*
X182778900Y-116397000D01*
X182778900Y-116397000D02*
X202603000Y-116397000D01*
X202603000Y-116397000D02*
X203500000Y-115500000D01*
%TO.N,Net-(D27-K)*%
X224237500Y-114403000D02*
X223082730Y-114403000D01*
X218274730Y-109595000D02*
X208005000Y-109595000D01*
X223082730Y-114403000D02*
X218274730Y-109595000D01*
X208005000Y-109595000D02*
X203500000Y-114100000D01*
%TO.N,Net-(LedMatrixAddress2-Q7)*%
X149199000Y-100279000D02*
X144500000Y-95580000D01*
X164679000Y-100279000D02*
X149199000Y-100279000D01*
X165780000Y-101380000D02*
X164679000Y-100279000D01*
%TO.N,Net-(D29-A)*%
X184311900Y-119944000D02*
X187056900Y-117199000D01*
X187056900Y-117199000D02*
X206801000Y-117199000D01*
X206801000Y-117199000D02*
X208500000Y-115500000D01*
%TO.N,Net-(D29-K)*%
X212203000Y-110397000D02*
X208500000Y-114100000D01*
X223248530Y-115703000D02*
X217942530Y-110397000D01*
X224237500Y-115703000D02*
X223248530Y-115703000D01*
X217942530Y-110397000D02*
X212203000Y-110397000D01*
%TO.N,Net-(LedMatrixAddress2-Q6)*%
X163240000Y-101380000D02*
X164341000Y-102481000D01*
X166881000Y-101836050D02*
X166881000Y-100923950D01*
X165835050Y-99878000D02*
X153798000Y-99878000D01*
X164341000Y-102481000D02*
X166236050Y-102481000D01*
X166236050Y-102481000D02*
X166881000Y-101836050D01*
X166881000Y-100923950D02*
X165835050Y-99878000D01*
X153798000Y-99878000D02*
X149500000Y-95580000D01*
%TO.N,Net-(LedMatrixRead1-Q7)*%
X70813000Y-115507000D02*
X52104400Y-115507000D01*
X50493000Y-113895600D02*
X50493000Y-101890050D01*
X74320000Y-112000000D02*
X70813000Y-115507000D01*
X46602950Y-98000000D02*
X46602950Y-96397050D01*
X52104400Y-115507000D02*
X50493000Y-113895600D01*
X50493000Y-101890050D02*
X46602950Y-98000000D01*
X46602950Y-96397050D02*
X48000000Y-95000000D01*
%TO.N,Net-(D31-A)*%
X83000000Y-84840000D02*
X83000000Y-79275000D01*
%TO.N,Net-(D33-A)*%
X48000000Y-84840000D02*
X48000000Y-79275000D01*
%TO.N,Net-(LedMatrixRead1-Q3)*%
X53778850Y-110097000D02*
X58000000Y-105875850D01*
X52097000Y-113231200D02*
X52097000Y-110768800D01*
X58000000Y-105000000D02*
X68000000Y-95000000D01*
X52768800Y-110097000D02*
X53778850Y-110097000D01*
X62257000Y-113903000D02*
X52768800Y-113903000D01*
X64160000Y-112000000D02*
X62257000Y-113903000D01*
X52097000Y-110768800D02*
X52768800Y-110097000D01*
X58000000Y-105875850D02*
X58000000Y-105000000D01*
X52768800Y-113903000D02*
X52097000Y-113231200D01*
%TO.N,Net-(LedMatrixRead1-Q4)*%
X53654375Y-109654375D02*
X55154375Y-108154375D01*
X51696000Y-110304000D02*
X52345625Y-109654375D01*
X52345625Y-109654375D02*
X53654375Y-109654375D01*
X52602700Y-114304000D02*
X51696000Y-113397300D01*
X51696000Y-113397300D02*
X51696000Y-110304000D01*
X64396000Y-114304000D02*
X52602700Y-114304000D01*
X55154375Y-102845625D02*
X63000000Y-95000000D01*
X66700000Y-112000000D02*
X64396000Y-114304000D01*
X55154375Y-108154375D02*
X55154375Y-102845625D01*
%TO.N,Net-(D35-A)*%
X53000000Y-84840000D02*
X53000000Y-79275000D01*
%TO.N,Net-(LedMatrixRead1-Cp)*%
X76860000Y-113320000D02*
X76860000Y-112000000D01*
X82380000Y-118840000D02*
X76860000Y-113320000D01*
%TO.N,Net-(D37-A)*%
X73000000Y-84840000D02*
X73000000Y-79275000D01*
%TO.N,Net-(D39-A)*%
X68000000Y-84840000D02*
X68000000Y-79275000D01*
%TO.N,Net-(LedMatrixRead1-Q0)*%
X56540000Y-112000000D02*
X61641000Y-106899000D01*
X71101000Y-106899000D02*
X83000000Y-95000000D01*
X61641000Y-106899000D02*
X71101000Y-106899000D01*
%TO.N,Net-(D41-A)*%
X58000000Y-84840000D02*
X58000000Y-79275000D01*
%TO.N,Net-(LedMatrixRead1-Q2)*%
X53944950Y-110498000D02*
X58345950Y-106097000D01*
X60118000Y-113502000D02*
X52934900Y-113502000D01*
X52934900Y-113502000D02*
X52498000Y-113065100D01*
X58345950Y-106097000D02*
X61903000Y-106097000D01*
X52934900Y-110498000D02*
X53944950Y-110498000D01*
X52498000Y-113065100D02*
X52498000Y-110934900D01*
X61620000Y-112000000D02*
X60118000Y-113502000D01*
X52498000Y-110934900D02*
X52934900Y-110498000D01*
X61903000Y-106097000D02*
X73000000Y-95000000D01*
%TO.N,Net-(D43-A)*%
X63000000Y-84840000D02*
X63000000Y-79275000D01*
%TO.N,Net-(LedMatrixRead1-Q1)*%
X59080000Y-112000000D02*
X57979000Y-113101000D01*
X52899000Y-111101000D02*
X53101000Y-110899000D01*
X56996050Y-110899000D02*
X61397050Y-106498000D01*
X53101000Y-110899000D02*
X56996050Y-110899000D01*
X57979000Y-113101000D02*
X53101000Y-113101000D01*
X52899000Y-112899000D02*
X52899000Y-111101000D01*
X66502000Y-106498000D02*
X78000000Y-95000000D01*
X61397050Y-106498000D02*
X66502000Y-106498000D01*
X53101000Y-113101000D02*
X52899000Y-112899000D01*
%TO.N,Net-(D46-K)*%
X224237500Y-117003000D02*
X223414330Y-117003000D01*
X223414330Y-117003000D02*
X217610330Y-111199000D01*
X217610330Y-111199000D02*
X216401000Y-111199000D01*
X216401000Y-111199000D02*
X213500000Y-114100000D01*
%TO.N,Net-(D46-A)*%
X191294900Y-118041000D02*
X210959000Y-118041000D01*
X189391900Y-119944000D02*
X191294900Y-118041000D01*
X210959000Y-118041000D02*
X213500000Y-115500000D01*
%TO.N,Net-(LedMatrixRead1-Q5)*%
X66535000Y-114705000D02*
X52436600Y-114705000D01*
X52436600Y-114705000D02*
X51295000Y-113563400D01*
X51295000Y-101705000D02*
X58000000Y-95000000D01*
X51295000Y-113563400D02*
X51295000Y-101705000D01*
X69240000Y-112000000D02*
X66535000Y-114705000D01*
%TO.N,Net-(D47-A)*%
X78000000Y-84840000D02*
X78000000Y-79275000D01*
%TO.N,Net-(D49-A)*%
X158000000Y-140000000D02*
X154092500Y-140000000D01*
X154092500Y-140000000D02*
X153592500Y-140500000D01*
X163634500Y-134365500D02*
X158000000Y-140000000D01*
X163634500Y-133283000D02*
X163634500Y-134365500D01*
%TO.N,Net-(D54-A)*%
X194471900Y-119944000D02*
X195572900Y-118843000D01*
X195572900Y-118843000D02*
X215157000Y-118843000D01*
X215157000Y-118843000D02*
X218500000Y-115500000D01*
%TO.N,Net-(D54-K)*%
X223580130Y-118303000D02*
X219377130Y-114100000D01*
X219377130Y-114100000D02*
X218500000Y-114100000D01*
X224237500Y-118303000D02*
X223580130Y-118303000D01*
%TO.N,Net-(D55-A)*%
X163634500Y-129958000D02*
X156092500Y-137500000D01*
X156092500Y-137500000D02*
X153592500Y-137500000D01*
X163634500Y-129783000D02*
X163634500Y-129958000D01*
%TO.N,Net-(D56-A)*%
X185472000Y-127712000D02*
X200288000Y-127712000D01*
X200288000Y-127712000D02*
X201000000Y-127000000D01*
X181760000Y-124000000D02*
X185472000Y-127712000D01*
%TO.N,Net-(D56-K)*%
X230548600Y-122500000D02*
X232521500Y-122500000D01*
X230186600Y-122138000D02*
X230548600Y-122500000D01*
X235285500Y-125264000D02*
X246637500Y-125264000D01*
X227690700Y-121615000D02*
X228213700Y-122138000D01*
X233940500Y-123919000D02*
X235285500Y-125264000D01*
X228213700Y-122138000D02*
X230186600Y-122138000D01*
X204985000Y-121615000D02*
X227690700Y-121615000D01*
X232521500Y-122500000D02*
X233940500Y-123919000D01*
X201000000Y-125600000D02*
X204985000Y-121615000D01*
%TO.N,Net-(D58-K)*%
X206000000Y-125600000D02*
X209183000Y-122417000D01*
X231505500Y-126564000D02*
X246637500Y-126564000D01*
X227358500Y-122417000D02*
X228860500Y-123919000D01*
X228860500Y-123919000D02*
X231505500Y-126564000D01*
X209183000Y-122417000D02*
X227358500Y-122417000D01*
%TO.N,Net-(D58-A)*%
X204486000Y-128514000D02*
X206000000Y-127000000D01*
X181760000Y-131620000D02*
X184866000Y-128514000D01*
X184866000Y-128514000D02*
X204486000Y-128514000D01*
%TO.N,Net-(D59-K)*%
X211000000Y-125600000D02*
X211000000Y-125000000D01*
X226320500Y-131539000D02*
X229995500Y-127864000D01*
X229995500Y-127864000D02*
X246637500Y-127864000D01*
%TO.N,Net-(D59-A)*%
X189144000Y-129316000D02*
X208684000Y-129316000D01*
X208684000Y-129316000D02*
X211000000Y-127000000D01*
X186840000Y-131620000D02*
X189144000Y-129316000D01*
%TO.N,Net-(D60-K)*%
X233775500Y-129164000D02*
X246637500Y-129164000D01*
X216000000Y-125600000D02*
X216000000Y-125000000D01*
X231400500Y-131539000D02*
X233775500Y-129164000D01*
%TO.N,Net-(D60-A)*%
X191920000Y-131620000D02*
X193422000Y-130118000D01*
X193422000Y-130118000D02*
X212882000Y-130118000D01*
X212882000Y-130118000D02*
X216000000Y-127000000D01*
%TO.N,Net-(D61-A)*%
X182727000Y-128113000D02*
X202387000Y-128113000D01*
X179220000Y-131620000D02*
X182727000Y-128113000D01*
X202387000Y-128113000D02*
X203500000Y-127000000D01*
%TO.N,Net-(D61-K)*%
X207084000Y-122016000D02*
X227524600Y-122016000D01*
X203500000Y-125600000D02*
X207084000Y-122016000D01*
X231400500Y-123919000D02*
X233395500Y-125914000D01*
X228047600Y-122539000D02*
X230020500Y-122539000D01*
X227524600Y-122016000D02*
X228047600Y-122539000D01*
X246637500Y-125914000D02*
X233395500Y-125914000D01*
X230020500Y-122539000D02*
X231400500Y-123919000D01*
%TO.N,Net-(D62-K)*%
X225219500Y-122818000D02*
X226320500Y-123919000D01*
X226320500Y-123919000D02*
X229615500Y-127214000D01*
X208500000Y-125600000D02*
X211282000Y-122818000D01*
X211282000Y-122818000D02*
X225219500Y-122818000D01*
X229615500Y-127214000D02*
X246637500Y-127214000D01*
%TO.N,Net-(D62-A)*%
X187005000Y-128915000D02*
X206585000Y-128915000D01*
X184300000Y-131620000D02*
X187005000Y-128915000D01*
X206585000Y-128915000D02*
X208500000Y-127000000D01*
%TO.N,Net-(D63-A)*%
X210783000Y-129717000D02*
X213500000Y-127000000D01*
X189380000Y-131620000D02*
X191283000Y-129717000D01*
X191283000Y-129717000D02*
X210783000Y-129717000D01*
%TO.N,Net-(D63-K)*%
X213500000Y-125600000D02*
X213500000Y-125000000D01*
X231885500Y-128514000D02*
X246637500Y-128514000D01*
X228860500Y-131539000D02*
X231885500Y-128514000D01*
%TO.N,Net-(D64-A)*%
X195561000Y-130519000D02*
X214981000Y-130519000D01*
X214981000Y-130519000D02*
X218500000Y-127000000D01*
X194460000Y-131620000D02*
X195561000Y-130519000D01*
%TO.N,Net-(D64-K)*%
X218500000Y-125600000D02*
X218500000Y-125000000D01*
X233940500Y-131539000D02*
X235665500Y-129814000D01*
X235665500Y-129814000D02*
X246637500Y-129814000D01*
%TO.N,RAM2-CS*%
X116884372Y-77800000D02*
X116685372Y-77999000D01*
X151840000Y-55840000D02*
X151840000Y-48260000D01*
X107582450Y-79000000D02*
X96680000Y-79000000D01*
X108583450Y-77999000D02*
X107582450Y-79000000D01*
X116685372Y-77999000D02*
X108583450Y-77999000D01*
X96680000Y-79000000D02*
X94300000Y-76620000D01*
%TO.N,RP2040-RWRAM-GPIO5-DIR*%
X184742710Y-70257290D02*
X179485421Y-65000000D01*
X239802000Y-74100700D02*
X239802000Y-113403530D01*
X187500000Y-68500000D02*
X188698000Y-69698000D01*
X187000010Y-68000000D02*
X187500000Y-68499990D01*
X239401000Y-121401000D02*
X242614000Y-124614000D01*
X239401000Y-115099000D02*
X239401000Y-121401000D01*
X191667800Y-69698000D02*
X196167800Y-65198000D01*
X179485421Y-65000000D02*
X179485421Y-59014579D01*
X188698000Y-69698000D02*
X191667800Y-69698000D01*
X230899300Y-65198000D02*
X239802000Y-74100700D01*
X179485421Y-59014579D02*
X179964000Y-58536000D01*
X239802000Y-113403530D02*
X240201000Y-113802530D01*
X240201000Y-113802530D02*
X240201000Y-114300416D01*
X187500000Y-68499990D02*
X187500000Y-68500000D01*
X196167800Y-65198000D02*
X230899300Y-65198000D01*
X242614000Y-124614000D02*
X246637500Y-124614000D01*
X179964000Y-58536000D02*
X182016500Y-58536000D01*
X240201000Y-114300416D02*
X239501416Y-115000000D01*
X239501416Y-115000000D02*
X239500000Y-115000000D01*
X239500000Y-115000000D02*
X239401000Y-115099000D01*
%TO.N,USB-C-VBUS*%
X68625000Y-42515026D02*
X68468974Y-42359000D01*
X69824026Y-41316000D02*
X68625000Y-42515026D01*
X64375000Y-44360000D02*
X64375000Y-43010000D01*
X68625000Y-43010000D02*
X68625000Y-42515026D01*
X64531026Y-42359000D02*
X64375000Y-42515026D01*
X68468974Y-42359000D02*
X64531026Y-42359000D01*
X72026500Y-41316000D02*
X69824026Y-41316000D01*
X73756500Y-39586000D02*
X72026500Y-41316000D01*
X68625000Y-44360000D02*
X68625000Y-43010000D01*
X64375000Y-42515026D02*
X64375000Y-43010000D01*
%TO.N,FLASH-DO-RP2040-QSPI_SD1*%
X216216500Y-56896000D02*
X217420500Y-58100000D01*
X182500000Y-53286000D02*
X182500000Y-54000000D01*
X182600000Y-53186000D02*
X182500000Y-53286000D01*
X219000000Y-58100000D02*
X219000000Y-58000000D01*
X182600000Y-53043762D02*
X182600000Y-53186000D01*
X183254000Y-54754000D02*
X183254000Y-55298500D01*
X216216500Y-56896000D02*
X193351500Y-56896000D01*
X193351500Y-56896000D02*
X192891500Y-56436000D01*
X182500000Y-54000000D02*
X183254000Y-54754000D01*
X217420500Y-58100000D02*
X219000000Y-58100000D01*
%TO.N,FLASH-DI-RP2040-QSPI_SD0*%
X222644000Y-60644000D02*
X220000000Y-58000000D01*
X183372693Y-48372693D02*
X183372693Y-51600193D01*
X183679000Y-53821000D02*
X183679000Y-51906500D01*
X183679000Y-53821000D02*
X184054000Y-54196000D01*
X185344386Y-46401000D02*
X183372693Y-48372693D01*
X184054000Y-54196000D02*
X184054000Y-55298500D01*
X230549000Y-60644000D02*
X222644000Y-60644000D01*
X220000000Y-58000000D02*
X220000000Y-57567100D01*
X231175000Y-61270000D02*
X230549000Y-60644000D01*
X219599000Y-52166100D02*
X213833900Y-46401000D01*
X213833900Y-46401000D02*
X185344386Y-46401000D01*
X220000000Y-57567100D02*
X219599000Y-57166100D01*
X183372693Y-51600193D02*
X183679000Y-51906500D01*
X219599000Y-57166100D02*
X219599000Y-52166100D01*
%TO.N,FLASH-CS-RP2040-QSPI_SS*%
X193455500Y-56000000D02*
X217000000Y-56000000D01*
X182000000Y-54250000D02*
X182853000Y-55103000D01*
X182000000Y-52500000D02*
X182000000Y-54250000D01*
X190500000Y-51000000D02*
X190500000Y-53044500D01*
X190500000Y-53044500D02*
X193455500Y-56000000D01*
X182853000Y-55103000D02*
X182853000Y-55298500D01*
%TO.N,USB-C-CC1*%
X67775000Y-44360000D02*
X67775000Y-45112500D01*
X66887500Y-46000000D02*
X55155500Y-46000000D01*
X55155500Y-46000000D02*
X52741500Y-43586000D01*
X67775000Y-45112500D02*
X66887500Y-46000000D01*
%TO.N,USB-C-CC2*%
X63955000Y-41879000D02*
X48448500Y-41879000D01*
X64000000Y-41924000D02*
X63955000Y-41879000D01*
X48448500Y-41879000D02*
X46741500Y-43586000D01*
%TO.N,RP2040-Z80BOOTMODE*%
X180437000Y-56936000D02*
X182016500Y-56936000D01*
X180000000Y-42000000D02*
X238000000Y-42000000D01*
X179740000Y-52000000D02*
X178500000Y-50760000D01*
X178500000Y-50760000D02*
X178500000Y-43500000D01*
X251000000Y-55000000D02*
X251000000Y-60000000D01*
X254250000Y-94250000D02*
X247750000Y-94250000D01*
X238000000Y-42000000D02*
X251000000Y-55000000D01*
X178500000Y-54999000D02*
X180437000Y-56936000D01*
X178500000Y-43500000D02*
X180000000Y-42000000D01*
%TO.N,RP2040-RPBOOTMODE*%
X181000000Y-49776000D02*
X181000000Y-56502000D01*
X181034000Y-56536000D02*
X182016500Y-56536000D01*
X250565687Y-59434313D02*
X250599000Y-59401000D01*
X250400000Y-59434313D02*
X250565687Y-59434313D01*
X180166100Y-42401000D02*
X179660000Y-42907100D01*
X179660000Y-42907100D02*
X179660000Y-48436000D01*
X179660000Y-48436000D02*
X181000000Y-49776000D01*
X237833900Y-42401000D02*
X180166100Y-42401000D01*
X181000000Y-56502000D02*
X181034000Y-56536000D01*
X254250000Y-102800000D02*
X247750000Y-102800000D01*
X250599000Y-59401000D02*
X250599000Y-55166100D01*
X250599000Y-55166100D02*
X237833900Y-42401000D01*
%TO.N,RP2040_XIN*%
X173500000Y-64000000D02*
X173500000Y-63120000D01*
X184854000Y-62173500D02*
X184854000Y-63255743D01*
X184854000Y-63255743D02*
X184250000Y-63859743D01*
X168500000Y-69000000D02*
X173500000Y-64000000D01*
%TO.N,RP2040-SH-GPIO2-SER*%
X178164000Y-57336000D02*
X182016500Y-57336000D01*
X184310500Y-101149500D02*
X183693100Y-101149500D01*
X177500000Y-70000000D02*
X177500000Y-58000000D01*
X184310500Y-98913450D02*
X181500000Y-96102950D01*
X181500000Y-96102950D02*
X181500000Y-74000000D01*
X177500000Y-58000000D02*
X178164000Y-57336000D01*
X181500000Y-74000000D02*
X177500000Y-70000000D01*
X184310500Y-101149500D02*
X184310500Y-98913450D01*
%TO.N,RP2040-RWRAM-GPIO7-Q7*%
X187270668Y-70500000D02*
X192000000Y-70500000D01*
X196500000Y-66000000D02*
X230567100Y-66000000D01*
X230567100Y-66000000D02*
X239000000Y-74432900D01*
X192000000Y-70500000D02*
X196500000Y-66000000D01*
X181067100Y-59336000D02*
X182016500Y-59336000D01*
X239000000Y-123898500D02*
X239020500Y-123919000D01*
X180600000Y-63829332D02*
X180600000Y-59803100D01*
X239000000Y-74432900D02*
X239000000Y-123898500D01*
X180600000Y-63829332D02*
X187270668Y-70500000D01*
X180600000Y-59803100D02*
X181067100Y-59336000D01*
%TO.N,RP2040-VREG_IN*%
X193621600Y-55599000D02*
X191000000Y-52977400D01*
X191101000Y-51248943D02*
X191101000Y-50751057D01*
X212833050Y-55599000D02*
X193621600Y-55599000D01*
X189000000Y-49000000D02*
X187734950Y-50265050D01*
X187734950Y-50265050D02*
X187734950Y-54332150D01*
X187734950Y-54332150D02*
X187654000Y-54413100D01*
X216366050Y-52066000D02*
X212833050Y-55599000D01*
X191000000Y-51349943D02*
X191101000Y-51248943D01*
X189349943Y-49000000D02*
X189000000Y-49000000D01*
X187654000Y-54413100D02*
X187654000Y-55298500D01*
X191101000Y-50751057D02*
X189349943Y-49000000D01*
X191000000Y-52977400D02*
X191000000Y-51349943D01*
%TO.N,RP2040_XOUT*%
X163000000Y-70500000D02*
X161500000Y-69000000D01*
X171000000Y-70500000D02*
X163000000Y-70500000D01*
X185254000Y-64246000D02*
X185000000Y-64500000D01*
X173500000Y-68000000D02*
X171000000Y-70500000D01*
X185254000Y-62173500D02*
X185254000Y-64246000D01*
%TO.N,CLOCK_FLASH*%
X184350000Y-53536000D02*
X184350000Y-53903000D01*
X216000000Y-59000000D02*
X220000000Y-59000000D01*
X184454000Y-55298500D02*
X184454000Y-54007000D01*
X184350000Y-53903000D02*
X184454000Y-54007000D01*
X195000000Y-57496000D02*
X214496000Y-57496000D01*
X214496000Y-57496000D02*
X215000000Y-58000000D01*
X215000000Y-58000000D02*
X216000000Y-59000000D01*
%TO.N,USB-RP2040-DP*%
X186454000Y-54563950D02*
X186454000Y-55298500D01*
X186655000Y-54166726D02*
X186655000Y-54362950D01*
X162227397Y-40473603D02*
X162000000Y-40701000D01*
X166816000Y-46421025D02*
X166816000Y-47000000D01*
X162227397Y-40227000D02*
X162227397Y-40473603D01*
X162000000Y-41605025D02*
X166816000Y-46421025D01*
X186655000Y-54362950D02*
X186454000Y-54563950D01*
X166816000Y-47000000D02*
X167000000Y-47184000D01*
X162000000Y-40701000D02*
X162000000Y-41605025D01*
%TO.N,RP2040-SH-GPIO3-SER*%
X178000000Y-68151470D02*
X183000000Y-73151470D01*
X178764000Y-57736000D02*
X178000000Y-58500000D01*
X183000000Y-96530500D02*
X185469500Y-99000000D01*
X178000000Y-58500000D02*
X178000000Y-68151470D01*
X183000000Y-73151470D02*
X183000000Y-96530500D01*
X182016500Y-57736000D02*
X178764000Y-57736000D01*
%TO.N,USB-RP2040-DM*%
X66925000Y-43245654D02*
X66925000Y-43010000D01*
X161572527Y-40227000D02*
X161599000Y-40253473D01*
X161599000Y-41771125D02*
X166000000Y-46172125D01*
X166000000Y-46172125D02*
X166000000Y-47041000D01*
X66075000Y-44360000D02*
X66075000Y-44095654D01*
X66075000Y-44095654D02*
X66925000Y-43245654D01*
X161599000Y-40253473D02*
X161599000Y-41771125D01*
X186854000Y-56184000D02*
X186854000Y-55298500D01*
X161427394Y-40227000D02*
X161572527Y-40227000D01*
%TO.N,FLASH-HOLD-RESRT-RP2040-QSPI_SD3*%
X184850000Y-56600000D02*
X184854000Y-56600000D01*
X231730000Y-58730000D02*
X231175000Y-58730000D01*
X217896000Y-61896000D02*
X232021490Y-61896000D01*
X194000000Y-59000000D02*
X215000000Y-59000000D01*
X184750000Y-56500000D02*
X184850000Y-56600000D01*
X232021490Y-61896000D02*
X232288500Y-61628990D01*
X232288500Y-59288500D02*
X231730000Y-58730000D01*
X215000000Y-59000000D02*
X217896000Y-61896000D01*
X184854000Y-55298500D02*
X184854000Y-56396000D01*
X232288500Y-61628990D02*
X232288500Y-59288500D01*
X184854000Y-56396000D02*
X184750000Y-56500000D01*
%TO.N,RP2040-SH-GPIO4-RCLK*%
X179364000Y-58136000D02*
X178500000Y-59000000D01*
X185901000Y-97660000D02*
X189390500Y-101149500D01*
X178500000Y-59000000D02*
X178500000Y-67272250D01*
X178500000Y-67272250D02*
X185901000Y-74673250D01*
X185901000Y-74673250D02*
X185901000Y-97660000D01*
X182016500Y-58136000D02*
X179364000Y-58136000D01*
%TO.N,FLASH-WP-RP2040-QSPI_SD2*%
X220000000Y-57000000D02*
X223000000Y-60000000D01*
X182750000Y-51750000D02*
X182750000Y-48146856D01*
X183654000Y-55298500D02*
X183654000Y-54404000D01*
X183250000Y-52250000D02*
X182750000Y-51750000D01*
X182750000Y-48146856D02*
X184896856Y-46000000D01*
X183654000Y-54404000D02*
X183250000Y-54000000D01*
X184896856Y-46000000D02*
X214000000Y-46000000D01*
X220000000Y-52000000D02*
X220000000Y-57000000D01*
X214000000Y-46000000D02*
X220000000Y-52000000D01*
X183250000Y-54000000D02*
X183250000Y-52250000D01*
X223000000Y-60000000D02*
X224000000Y-60000000D01*
%TO.N,RP2040-SWD-PIN*%
X245953000Y-67000000D02*
X243750000Y-64797000D01*
X186854000Y-63708273D02*
X187500000Y-64354273D01*
X196001700Y-64797000D02*
X191501700Y-69297000D01*
X186854000Y-62173500D02*
X186854000Y-63708273D01*
X243750000Y-64797000D02*
X196001700Y-64797000D01*
X187147943Y-67000000D02*
X186500000Y-67000000D01*
X254000000Y-67000000D02*
X245953000Y-67000000D01*
X189444943Y-69297000D02*
X187147943Y-67000000D01*
X187500000Y-64354273D02*
X187500000Y-64400000D01*
X191501700Y-69297000D02*
X189444943Y-69297000D01*
%TO.N,RP2040-RWRAM-GPIO8-PL*%
X239401000Y-74266800D02*
X230733200Y-65599000D01*
X181001000Y-60499000D02*
X181364000Y-60136000D01*
X239401000Y-113852473D02*
X239401000Y-74266800D01*
X191833900Y-70099000D02*
X188024165Y-70099000D01*
X181364000Y-60136000D02*
X182016500Y-60136000D01*
X181001000Y-63075835D02*
X181001000Y-60499000D01*
X239600000Y-114051473D02*
X239401000Y-113852473D01*
X230733200Y-65599000D02*
X196333900Y-65599000D01*
X196333900Y-65599000D02*
X191833900Y-70099000D01*
X188024165Y-70099000D02*
X181001000Y-63075835D01*
%TO.N,RP2040-RWRAM-GPIO6-DS*%
X180000000Y-64357078D02*
X186543922Y-70901000D01*
X238599000Y-74599000D02*
X230401000Y-66401000D01*
X238599000Y-120401000D02*
X238599000Y-74599000D01*
X180000000Y-59500000D02*
X180564000Y-58936000D01*
X180564000Y-58936000D02*
X182016500Y-58936000D01*
X236480500Y-123919000D02*
X236480500Y-122519500D01*
X192166100Y-70901000D02*
X186543922Y-70901000D01*
X230401000Y-66401000D02*
X196666100Y-66401000D01*
X180000000Y-64357078D02*
X180000000Y-59500000D01*
X236480500Y-122519500D02*
X238599000Y-120401000D01*
X196666100Y-66401000D02*
X192166100Y-70901000D01*
%TO.N,Net-(ShiftRegisterOut1-SER)*%
X185987900Y-114000000D02*
X184311900Y-112324000D01*
X200178600Y-109870500D02*
X195368350Y-109870500D01*
X193370900Y-112629100D02*
X192000000Y-114000000D01*
X195368350Y-109870500D02*
X193370900Y-111867950D01*
X192000000Y-114000000D02*
X185987900Y-114000000D01*
X193370900Y-111867950D02*
X193370900Y-112629100D01*
X200318600Y-109730500D02*
X200178600Y-109870500D01*
%TO.N,RP2040-SWCLK-PIN*%
X186454000Y-62173500D02*
X186454000Y-64158216D01*
X246140900Y-66000000D02*
X244536900Y-64396000D01*
X195835600Y-64396000D02*
X191335600Y-68896000D01*
X191335600Y-68896000D02*
X189611043Y-68896000D01*
X189611043Y-68896000D02*
X186727044Y-66012001D01*
X254000000Y-66000000D02*
X246140900Y-66000000D01*
X244536900Y-64396000D02*
X195835600Y-64396000D01*
X186454000Y-64158216D02*
X186693784Y-64398000D01*
X186727044Y-66012001D02*
X186727044Y-65772956D01*
%TO.N,Vcc-RP2040-RUN*%
X187254000Y-63059743D02*
X187254000Y-62173500D01*
X187454000Y-63259743D02*
X187254000Y-63059743D01*
%TO.N,CLOCK_BUS*%
X223500000Y-133500000D02*
X223780500Y-133219500D01*
X223780500Y-133219500D02*
X223780500Y-131539000D01*
%TO.N,Net-(C9-Pad2)*%
X96000000Y-119000000D02*
X100155000Y-119000000D01*
X88500000Y-95000000D02*
X88500000Y-99000000D01*
X95080000Y-118080000D02*
X96000000Y-119000000D01*
X92500000Y-109420000D02*
X95080000Y-112000000D01*
X89500000Y-100000000D02*
X92500000Y-103000000D01*
X100155000Y-119000000D02*
X103960000Y-122805000D01*
X92500000Y-103000000D02*
X92500000Y-109420000D01*
X95080000Y-112000000D02*
X95080000Y-118080000D01*
X88500000Y-99000000D02*
X89500000Y-100000000D01*
%TO.N,Net-(C13-Pad2)*%
X97000000Y-129000000D02*
X98880000Y-127120000D01*
X98880000Y-127120000D02*
X98880000Y-122805000D01*
X92000000Y-129000000D02*
X97000000Y-129000000D01*
X95000000Y-126000000D02*
X98195000Y-122805000D01*
X85000000Y-135000000D02*
X89000000Y-131000000D01*
X89000000Y-131000000D02*
X90000000Y-131000000D01*
X90000000Y-131000000D02*
X92000000Y-129000000D01*
X81500000Y-135000000D02*
X85000000Y-135000000D01*
X98195000Y-122805000D02*
X98880000Y-122805000D01*
%TO.N,Net-(R16-Pad1)*%
X71340000Y-135660000D02*
X66500000Y-140500000D01*
X67000000Y-140000000D02*
X71420000Y-140000000D01*
X71340000Y-135000000D02*
X71340000Y-135660000D01*
X66500000Y-140500000D02*
X67000000Y-140000000D01*
X60000000Y-140500000D02*
X66500000Y-140500000D01*
%TO.N,Net-(SW5-C)*%
X96000000Y-118000000D02*
X101695000Y-118000000D01*
X101695000Y-118000000D02*
X106500000Y-122805000D01*
%TO.N,Net-(LedMatrixRead1-Q6)*%
X50894000Y-113729500D02*
X50894000Y-97106000D01*
X68674000Y-115106000D02*
X52270500Y-115106000D01*
X71780000Y-112000000D02*
X68674000Y-115106000D01*
X52270500Y-115106000D02*
X50894000Y-113729500D01*
X50894000Y-97106000D02*
X53000000Y-95000000D01*
%TO.N,Net-(LedMatrixWrite1-Cp)*%
X82380000Y-126460000D02*
X80940000Y-126460000D01*
X80940000Y-126460000D02*
X76860000Y-122380000D01*
%TO.N,Net-(LedMatrixAddress2-Q0)*%
X148000000Y-101380000D02*
X151507000Y-104887000D01*
X170273000Y-104887000D02*
X179500000Y-95660000D01*
X151507000Y-104887000D02*
X170273000Y-104887000D01*
%TO.N,Net-(LedMatrixAddress2-Q2)*%
X155785000Y-104085000D02*
X168873350Y-104085000D01*
X168873350Y-104085000D02*
X170624000Y-102334350D01*
X153080000Y-101380000D02*
X155785000Y-104085000D01*
X170624000Y-96784000D02*
X169500000Y-95660000D01*
X170624000Y-102334350D02*
X170624000Y-96784000D01*
%TD*%
M02*
