%TF.GenerationSoftware,KiCad,Pcbnew,9.0.6*%
%TF.CreationDate,2025-12-23T12:43:52+01:00*%
%TF.ProjectId,Z80DevBoard,5a383044-6576-4426-9f61-72642e6b6963,rev?*%
%TF.SameCoordinates,Original*%
%TF.FileFunction,Legend,Bot*%
%TF.FilePolarity,Positive*%
%FSLAX46Y46*%
G04 Gerber Fmt 4.6, Leading zero omitted, Abs format (unit mm)*
G04 Created by KiCad (PCBNEW 9.0.6) date 2025-12-23 12:43:52*
%MOMM*%
%LPD*%
G01*
G04 APERTURE LIST*
%ADD10C,0.200000*%
%ADD11C,0.000000*%
G04 APERTURE END LIST*
D10*
X254725564Y-135927443D02*
X254058898Y-135927443D01*
X254058898Y-135927443D02*
X254725564Y-136927443D01*
X254725564Y-136927443D02*
X254058898Y-136927443D01*
X253535088Y-136356014D02*
X253630326Y-136308395D01*
X253630326Y-136308395D02*
X253677945Y-136260776D01*
X253677945Y-136260776D02*
X253725564Y-136165538D01*
X253725564Y-136165538D02*
X253725564Y-136117919D01*
X253725564Y-136117919D02*
X253677945Y-136022681D01*
X253677945Y-136022681D02*
X253630326Y-135975062D01*
X253630326Y-135975062D02*
X253535088Y-135927443D01*
X253535088Y-135927443D02*
X253344612Y-135927443D01*
X253344612Y-135927443D02*
X253249374Y-135975062D01*
X253249374Y-135975062D02*
X253201755Y-136022681D01*
X253201755Y-136022681D02*
X253154136Y-136117919D01*
X253154136Y-136117919D02*
X253154136Y-136165538D01*
X253154136Y-136165538D02*
X253201755Y-136260776D01*
X253201755Y-136260776D02*
X253249374Y-136308395D01*
X253249374Y-136308395D02*
X253344612Y-136356014D01*
X253344612Y-136356014D02*
X253535088Y-136356014D01*
X253535088Y-136356014D02*
X253630326Y-136403633D01*
X253630326Y-136403633D02*
X253677945Y-136451252D01*
X253677945Y-136451252D02*
X253725564Y-136546490D01*
X253725564Y-136546490D02*
X253725564Y-136736966D01*
X253725564Y-136736966D02*
X253677945Y-136832204D01*
X253677945Y-136832204D02*
X253630326Y-136879824D01*
X253630326Y-136879824D02*
X253535088Y-136927443D01*
X253535088Y-136927443D02*
X253344612Y-136927443D01*
X253344612Y-136927443D02*
X253249374Y-136879824D01*
X253249374Y-136879824D02*
X253201755Y-136832204D01*
X253201755Y-136832204D02*
X253154136Y-136736966D01*
X253154136Y-136736966D02*
X253154136Y-136546490D01*
X253154136Y-136546490D02*
X253201755Y-136451252D01*
X253201755Y-136451252D02*
X253249374Y-136403633D01*
X253249374Y-136403633D02*
X253344612Y-136356014D01*
X252535088Y-135927443D02*
X252439850Y-135927443D01*
X252439850Y-135927443D02*
X252344612Y-135975062D01*
X252344612Y-135975062D02*
X252296993Y-136022681D01*
X252296993Y-136022681D02*
X252249374Y-136117919D01*
X252249374Y-136117919D02*
X252201755Y-136308395D01*
X252201755Y-136308395D02*
X252201755Y-136546490D01*
X252201755Y-136546490D02*
X252249374Y-136736966D01*
X252249374Y-136736966D02*
X252296993Y-136832204D01*
X252296993Y-136832204D02*
X252344612Y-136879824D01*
X252344612Y-136879824D02*
X252439850Y-136927443D01*
X252439850Y-136927443D02*
X252535088Y-136927443D01*
X252535088Y-136927443D02*
X252630326Y-136879824D01*
X252630326Y-136879824D02*
X252677945Y-136832204D01*
X252677945Y-136832204D02*
X252725564Y-136736966D01*
X252725564Y-136736966D02*
X252773183Y-136546490D01*
X252773183Y-136546490D02*
X252773183Y-136308395D01*
X252773183Y-136308395D02*
X252725564Y-136117919D01*
X252725564Y-136117919D02*
X252677945Y-136022681D01*
X252677945Y-136022681D02*
X252630326Y-135975062D01*
X252630326Y-135975062D02*
X252535088Y-135927443D01*
X251773183Y-136927443D02*
X251773183Y-135927443D01*
X251773183Y-135927443D02*
X251535088Y-135927443D01*
X251535088Y-135927443D02*
X251392231Y-135975062D01*
X251392231Y-135975062D02*
X251296993Y-136070300D01*
X251296993Y-136070300D02*
X251249374Y-136165538D01*
X251249374Y-136165538D02*
X251201755Y-136356014D01*
X251201755Y-136356014D02*
X251201755Y-136498871D01*
X251201755Y-136498871D02*
X251249374Y-136689347D01*
X251249374Y-136689347D02*
X251296993Y-136784585D01*
X251296993Y-136784585D02*
X251392231Y-136879824D01*
X251392231Y-136879824D02*
X251535088Y-136927443D01*
X251535088Y-136927443D02*
X251773183Y-136927443D01*
X250392231Y-136879824D02*
X250487469Y-136927443D01*
X250487469Y-136927443D02*
X250677945Y-136927443D01*
X250677945Y-136927443D02*
X250773183Y-136879824D01*
X250773183Y-136879824D02*
X250820802Y-136784585D01*
X250820802Y-136784585D02*
X250820802Y-136403633D01*
X250820802Y-136403633D02*
X250773183Y-136308395D01*
X250773183Y-136308395D02*
X250677945Y-136260776D01*
X250677945Y-136260776D02*
X250487469Y-136260776D01*
X250487469Y-136260776D02*
X250392231Y-136308395D01*
X250392231Y-136308395D02*
X250344612Y-136403633D01*
X250344612Y-136403633D02*
X250344612Y-136498871D01*
X250344612Y-136498871D02*
X250820802Y-136594109D01*
X250011278Y-136260776D02*
X249773183Y-136927443D01*
X249773183Y-136927443D02*
X249535088Y-136260776D01*
X248820802Y-136403633D02*
X248677945Y-136451252D01*
X248677945Y-136451252D02*
X248630326Y-136498871D01*
X248630326Y-136498871D02*
X248582707Y-136594109D01*
X248582707Y-136594109D02*
X248582707Y-136736966D01*
X248582707Y-136736966D02*
X248630326Y-136832204D01*
X248630326Y-136832204D02*
X248677945Y-136879824D01*
X248677945Y-136879824D02*
X248773183Y-136927443D01*
X248773183Y-136927443D02*
X249154135Y-136927443D01*
X249154135Y-136927443D02*
X249154135Y-135927443D01*
X249154135Y-135927443D02*
X248820802Y-135927443D01*
X248820802Y-135927443D02*
X248725564Y-135975062D01*
X248725564Y-135975062D02*
X248677945Y-136022681D01*
X248677945Y-136022681D02*
X248630326Y-136117919D01*
X248630326Y-136117919D02*
X248630326Y-136213157D01*
X248630326Y-136213157D02*
X248677945Y-136308395D01*
X248677945Y-136308395D02*
X248725564Y-136356014D01*
X248725564Y-136356014D02*
X248820802Y-136403633D01*
X248820802Y-136403633D02*
X249154135Y-136403633D01*
X248011278Y-136927443D02*
X248106516Y-136879824D01*
X248106516Y-136879824D02*
X248154135Y-136832204D01*
X248154135Y-136832204D02*
X248201754Y-136736966D01*
X248201754Y-136736966D02*
X248201754Y-136451252D01*
X248201754Y-136451252D02*
X248154135Y-136356014D01*
X248154135Y-136356014D02*
X248106516Y-136308395D01*
X248106516Y-136308395D02*
X248011278Y-136260776D01*
X248011278Y-136260776D02*
X247868421Y-136260776D01*
X247868421Y-136260776D02*
X247773183Y-136308395D01*
X247773183Y-136308395D02*
X247725564Y-136356014D01*
X247725564Y-136356014D02*
X247677945Y-136451252D01*
X247677945Y-136451252D02*
X247677945Y-136736966D01*
X247677945Y-136736966D02*
X247725564Y-136832204D01*
X247725564Y-136832204D02*
X247773183Y-136879824D01*
X247773183Y-136879824D02*
X247868421Y-136927443D01*
X247868421Y-136927443D02*
X248011278Y-136927443D01*
X246820802Y-136927443D02*
X246820802Y-136403633D01*
X246820802Y-136403633D02*
X246868421Y-136308395D01*
X246868421Y-136308395D02*
X246963659Y-136260776D01*
X246963659Y-136260776D02*
X247154135Y-136260776D01*
X247154135Y-136260776D02*
X247249373Y-136308395D01*
X246820802Y-136879824D02*
X246916040Y-136927443D01*
X246916040Y-136927443D02*
X247154135Y-136927443D01*
X247154135Y-136927443D02*
X247249373Y-136879824D01*
X247249373Y-136879824D02*
X247296992Y-136784585D01*
X247296992Y-136784585D02*
X247296992Y-136689347D01*
X247296992Y-136689347D02*
X247249373Y-136594109D01*
X247249373Y-136594109D02*
X247154135Y-136546490D01*
X247154135Y-136546490D02*
X246916040Y-136546490D01*
X246916040Y-136546490D02*
X246820802Y-136498871D01*
X246344611Y-136927443D02*
X246344611Y-136260776D01*
X246344611Y-136451252D02*
X246296992Y-136356014D01*
X246296992Y-136356014D02*
X246249373Y-136308395D01*
X246249373Y-136308395D02*
X246154135Y-136260776D01*
X246154135Y-136260776D02*
X246058897Y-136260776D01*
X245296992Y-136927443D02*
X245296992Y-135927443D01*
X245296992Y-136879824D02*
X245392230Y-136927443D01*
X245392230Y-136927443D02*
X245582706Y-136927443D01*
X245582706Y-136927443D02*
X245677944Y-136879824D01*
X245677944Y-136879824D02*
X245725563Y-136832204D01*
X245725563Y-136832204D02*
X245773182Y-136736966D01*
X245773182Y-136736966D02*
X245773182Y-136451252D01*
X245773182Y-136451252D02*
X245725563Y-136356014D01*
X245725563Y-136356014D02*
X245677944Y-136308395D01*
X245677944Y-136308395D02*
X245582706Y-136260776D01*
X245582706Y-136260776D02*
X245392230Y-136260776D01*
X245392230Y-136260776D02*
X245296992Y-136308395D01*
X254677945Y-139861616D02*
X254201755Y-139861616D01*
X254773183Y-140147331D02*
X254439850Y-139147331D01*
X254439850Y-139147331D02*
X254106517Y-140147331D01*
X253344612Y-139480664D02*
X253344612Y-140147331D01*
X253773183Y-139480664D02*
X253773183Y-140004473D01*
X253773183Y-140004473D02*
X253725564Y-140099712D01*
X253725564Y-140099712D02*
X253630326Y-140147331D01*
X253630326Y-140147331D02*
X253487469Y-140147331D01*
X253487469Y-140147331D02*
X253392231Y-140099712D01*
X253392231Y-140099712D02*
X253344612Y-140052092D01*
X253011278Y-139480664D02*
X252630326Y-139480664D01*
X252868421Y-139147331D02*
X252868421Y-140004473D01*
X252868421Y-140004473D02*
X252820802Y-140099712D01*
X252820802Y-140099712D02*
X252725564Y-140147331D01*
X252725564Y-140147331D02*
X252630326Y-140147331D01*
X252296992Y-140147331D02*
X252296992Y-139147331D01*
X251868421Y-140147331D02*
X251868421Y-139623521D01*
X251868421Y-139623521D02*
X251916040Y-139528283D01*
X251916040Y-139528283D02*
X252011278Y-139480664D01*
X252011278Y-139480664D02*
X252154135Y-139480664D01*
X252154135Y-139480664D02*
X252249373Y-139528283D01*
X252249373Y-139528283D02*
X252296992Y-139575902D01*
X251249373Y-140147331D02*
X251344611Y-140099712D01*
X251344611Y-140099712D02*
X251392230Y-140052092D01*
X251392230Y-140052092D02*
X251439849Y-139956854D01*
X251439849Y-139956854D02*
X251439849Y-139671140D01*
X251439849Y-139671140D02*
X251392230Y-139575902D01*
X251392230Y-139575902D02*
X251344611Y-139528283D01*
X251344611Y-139528283D02*
X251249373Y-139480664D01*
X251249373Y-139480664D02*
X251106516Y-139480664D01*
X251106516Y-139480664D02*
X251011278Y-139528283D01*
X251011278Y-139528283D02*
X250963659Y-139575902D01*
X250963659Y-139575902D02*
X250916040Y-139671140D01*
X250916040Y-139671140D02*
X250916040Y-139956854D01*
X250916040Y-139956854D02*
X250963659Y-140052092D01*
X250963659Y-140052092D02*
X251011278Y-140099712D01*
X251011278Y-140099712D02*
X251106516Y-140147331D01*
X251106516Y-140147331D02*
X251249373Y-140147331D01*
X250487468Y-140147331D02*
X250487468Y-139480664D01*
X250487468Y-139671140D02*
X250439849Y-139575902D01*
X250439849Y-139575902D02*
X250392230Y-139528283D01*
X250392230Y-139528283D02*
X250296992Y-139480664D01*
X250296992Y-139480664D02*
X250201754Y-139480664D01*
X249868420Y-140052092D02*
X249820801Y-140099712D01*
X249820801Y-140099712D02*
X249868420Y-140147331D01*
X249868420Y-140147331D02*
X249916039Y-140099712D01*
X249916039Y-140099712D02*
X249868420Y-140052092D01*
X249868420Y-140052092D02*
X249868420Y-140147331D01*
X249868420Y-139528283D02*
X249820801Y-139575902D01*
X249820801Y-139575902D02*
X249868420Y-139623521D01*
X249868420Y-139623521D02*
X249916039Y-139575902D01*
X249916039Y-139575902D02*
X249868420Y-139528283D01*
X249868420Y-139528283D02*
X249868420Y-139623521D01*
X248106516Y-139194950D02*
X248201754Y-139147331D01*
X248201754Y-139147331D02*
X248344611Y-139147331D01*
X248344611Y-139147331D02*
X248487468Y-139194950D01*
X248487468Y-139194950D02*
X248582706Y-139290188D01*
X248582706Y-139290188D02*
X248630325Y-139385426D01*
X248630325Y-139385426D02*
X248677944Y-139575902D01*
X248677944Y-139575902D02*
X248677944Y-139718759D01*
X248677944Y-139718759D02*
X248630325Y-139909235D01*
X248630325Y-139909235D02*
X248582706Y-140004473D01*
X248582706Y-140004473D02*
X248487468Y-140099712D01*
X248487468Y-140099712D02*
X248344611Y-140147331D01*
X248344611Y-140147331D02*
X248249373Y-140147331D01*
X248249373Y-140147331D02*
X248106516Y-140099712D01*
X248106516Y-140099712D02*
X248058897Y-140052092D01*
X248058897Y-140052092D02*
X248058897Y-139718759D01*
X248058897Y-139718759D02*
X248249373Y-139718759D01*
X247630325Y-140147331D02*
X247630325Y-139480664D01*
X247630325Y-139147331D02*
X247677944Y-139194950D01*
X247677944Y-139194950D02*
X247630325Y-139242569D01*
X247630325Y-139242569D02*
X247582706Y-139194950D01*
X247582706Y-139194950D02*
X247630325Y-139147331D01*
X247630325Y-139147331D02*
X247630325Y-139242569D01*
X246725564Y-140147331D02*
X246725564Y-139623521D01*
X246725564Y-139623521D02*
X246773183Y-139528283D01*
X246773183Y-139528283D02*
X246868421Y-139480664D01*
X246868421Y-139480664D02*
X247058897Y-139480664D01*
X247058897Y-139480664D02*
X247154135Y-139528283D01*
X246725564Y-140099712D02*
X246820802Y-140147331D01*
X246820802Y-140147331D02*
X247058897Y-140147331D01*
X247058897Y-140147331D02*
X247154135Y-140099712D01*
X247154135Y-140099712D02*
X247201754Y-140004473D01*
X247201754Y-140004473D02*
X247201754Y-139909235D01*
X247201754Y-139909235D02*
X247154135Y-139813997D01*
X247154135Y-139813997D02*
X247058897Y-139766378D01*
X247058897Y-139766378D02*
X246820802Y-139766378D01*
X246820802Y-139766378D02*
X246725564Y-139718759D01*
X246249373Y-139480664D02*
X246249373Y-140147331D01*
X246249373Y-139575902D02*
X246201754Y-139528283D01*
X246201754Y-139528283D02*
X246106516Y-139480664D01*
X246106516Y-139480664D02*
X245963659Y-139480664D01*
X245963659Y-139480664D02*
X245868421Y-139528283D01*
X245868421Y-139528283D02*
X245820802Y-139623521D01*
X245820802Y-139623521D02*
X245820802Y-140147331D01*
X245201754Y-140147331D02*
X245296992Y-140099712D01*
X245296992Y-140099712D02*
X245344611Y-140004473D01*
X245344611Y-140004473D02*
X245344611Y-139147331D01*
X244392230Y-139480664D02*
X244392230Y-140147331D01*
X244820801Y-139480664D02*
X244820801Y-140004473D01*
X244820801Y-140004473D02*
X244773182Y-140099712D01*
X244773182Y-140099712D02*
X244677944Y-140147331D01*
X244677944Y-140147331D02*
X244535087Y-140147331D01*
X244535087Y-140147331D02*
X244439849Y-140099712D01*
X244439849Y-140099712D02*
X244392230Y-140052092D01*
X243487468Y-140099712D02*
X243582706Y-140147331D01*
X243582706Y-140147331D02*
X243773182Y-140147331D01*
X243773182Y-140147331D02*
X243868420Y-140099712D01*
X243868420Y-140099712D02*
X243916039Y-140052092D01*
X243916039Y-140052092D02*
X243963658Y-139956854D01*
X243963658Y-139956854D02*
X243963658Y-139671140D01*
X243963658Y-139671140D02*
X243916039Y-139575902D01*
X243916039Y-139575902D02*
X243868420Y-139528283D01*
X243868420Y-139528283D02*
X243773182Y-139480664D01*
X243773182Y-139480664D02*
X243582706Y-139480664D01*
X243582706Y-139480664D02*
X243487468Y-139528283D01*
X242630325Y-140147331D02*
X242630325Y-139623521D01*
X242630325Y-139623521D02*
X242677944Y-139528283D01*
X242677944Y-139528283D02*
X242773182Y-139480664D01*
X242773182Y-139480664D02*
X242963658Y-139480664D01*
X242963658Y-139480664D02*
X243058896Y-139528283D01*
X242630325Y-140099712D02*
X242725563Y-140147331D01*
X242725563Y-140147331D02*
X242963658Y-140147331D01*
X242963658Y-140147331D02*
X243058896Y-140099712D01*
X243058896Y-140099712D02*
X243106515Y-140004473D01*
X243106515Y-140004473D02*
X243106515Y-139909235D01*
X243106515Y-139909235D02*
X243058896Y-139813997D01*
X243058896Y-139813997D02*
X242963658Y-139766378D01*
X242963658Y-139766378D02*
X242725563Y-139766378D01*
X242725563Y-139766378D02*
X242630325Y-139718759D01*
X240820801Y-140147331D02*
X241154134Y-139671140D01*
X241392229Y-140147331D02*
X241392229Y-139147331D01*
X241392229Y-139147331D02*
X241011277Y-139147331D01*
X241011277Y-139147331D02*
X240916039Y-139194950D01*
X240916039Y-139194950D02*
X240868420Y-139242569D01*
X240868420Y-139242569D02*
X240820801Y-139337807D01*
X240820801Y-139337807D02*
X240820801Y-139480664D01*
X240820801Y-139480664D02*
X240868420Y-139575902D01*
X240868420Y-139575902D02*
X240916039Y-139623521D01*
X240916039Y-139623521D02*
X241011277Y-139671140D01*
X241011277Y-139671140D02*
X241392229Y-139671140D01*
X239963658Y-140147331D02*
X239963658Y-139623521D01*
X239963658Y-139623521D02*
X240011277Y-139528283D01*
X240011277Y-139528283D02*
X240106515Y-139480664D01*
X240106515Y-139480664D02*
X240296991Y-139480664D01*
X240296991Y-139480664D02*
X240392229Y-139528283D01*
X239963658Y-140099712D02*
X240058896Y-140147331D01*
X240058896Y-140147331D02*
X240296991Y-140147331D01*
X240296991Y-140147331D02*
X240392229Y-140099712D01*
X240392229Y-140099712D02*
X240439848Y-140004473D01*
X240439848Y-140004473D02*
X240439848Y-139909235D01*
X240439848Y-139909235D02*
X240392229Y-139813997D01*
X240392229Y-139813997D02*
X240296991Y-139766378D01*
X240296991Y-139766378D02*
X240058896Y-139766378D01*
X240058896Y-139766378D02*
X239963658Y-139718759D01*
X239487467Y-140147331D02*
X239487467Y-139480664D01*
X239487467Y-139147331D02*
X239535086Y-139194950D01*
X239535086Y-139194950D02*
X239487467Y-139242569D01*
X239487467Y-139242569D02*
X239439848Y-139194950D01*
X239439848Y-139194950D02*
X239487467Y-139147331D01*
X239487467Y-139147331D02*
X239487467Y-139242569D01*
X239011277Y-139480664D02*
X239011277Y-140147331D01*
X239011277Y-139575902D02*
X238963658Y-139528283D01*
X238963658Y-139528283D02*
X238868420Y-139480664D01*
X238868420Y-139480664D02*
X238725563Y-139480664D01*
X238725563Y-139480664D02*
X238630325Y-139528283D01*
X238630325Y-139528283D02*
X238582706Y-139623521D01*
X238582706Y-139623521D02*
X238582706Y-140147331D01*
X238106515Y-140147331D02*
X238106515Y-139480664D01*
X238106515Y-139147331D02*
X238154134Y-139194950D01*
X238154134Y-139194950D02*
X238106515Y-139242569D01*
X238106515Y-139242569D02*
X238058896Y-139194950D01*
X238058896Y-139194950D02*
X238106515Y-139147331D01*
X238106515Y-139147331D02*
X238106515Y-139242569D01*
X237677944Y-140099712D02*
X237582706Y-140147331D01*
X237582706Y-140147331D02*
X237392230Y-140147331D01*
X237392230Y-140147331D02*
X237296992Y-140099712D01*
X237296992Y-140099712D02*
X237249373Y-140004473D01*
X237249373Y-140004473D02*
X237249373Y-139956854D01*
X237249373Y-139956854D02*
X237296992Y-139861616D01*
X237296992Y-139861616D02*
X237392230Y-139813997D01*
X237392230Y-139813997D02*
X237535087Y-139813997D01*
X237535087Y-139813997D02*
X237630325Y-139766378D01*
X237630325Y-139766378D02*
X237677944Y-139671140D01*
X237677944Y-139671140D02*
X237677944Y-139623521D01*
X237677944Y-139623521D02*
X237630325Y-139528283D01*
X237630325Y-139528283D02*
X237535087Y-139480664D01*
X237535087Y-139480664D02*
X237392230Y-139480664D01*
X237392230Y-139480664D02*
X237296992Y-139528283D01*
X254106517Y-140804894D02*
X254201755Y-140757275D01*
X254201755Y-140757275D02*
X254344612Y-140757275D01*
X254344612Y-140757275D02*
X254487469Y-140804894D01*
X254487469Y-140804894D02*
X254582707Y-140900132D01*
X254582707Y-140900132D02*
X254630326Y-140995370D01*
X254630326Y-140995370D02*
X254677945Y-141185846D01*
X254677945Y-141185846D02*
X254677945Y-141328703D01*
X254677945Y-141328703D02*
X254630326Y-141519179D01*
X254630326Y-141519179D02*
X254582707Y-141614417D01*
X254582707Y-141614417D02*
X254487469Y-141709656D01*
X254487469Y-141709656D02*
X254344612Y-141757275D01*
X254344612Y-141757275D02*
X254249374Y-141757275D01*
X254249374Y-141757275D02*
X254106517Y-141709656D01*
X254106517Y-141709656D02*
X254058898Y-141662036D01*
X254058898Y-141662036D02*
X254058898Y-141328703D01*
X254058898Y-141328703D02*
X254249374Y-141328703D01*
X253630326Y-141757275D02*
X253630326Y-141090608D01*
X253630326Y-140757275D02*
X253677945Y-140804894D01*
X253677945Y-140804894D02*
X253630326Y-140852513D01*
X253630326Y-140852513D02*
X253582707Y-140804894D01*
X253582707Y-140804894D02*
X253630326Y-140757275D01*
X253630326Y-140757275D02*
X253630326Y-140852513D01*
X253296993Y-141090608D02*
X252916041Y-141090608D01*
X253154136Y-140757275D02*
X253154136Y-141614417D01*
X253154136Y-141614417D02*
X253106517Y-141709656D01*
X253106517Y-141709656D02*
X253011279Y-141757275D01*
X253011279Y-141757275D02*
X252916041Y-141757275D01*
X252582707Y-141757275D02*
X252582707Y-140757275D01*
X252582707Y-141233465D02*
X252011279Y-141233465D01*
X252011279Y-141757275D02*
X252011279Y-140757275D01*
X251106517Y-141090608D02*
X251106517Y-141757275D01*
X251535088Y-141090608D02*
X251535088Y-141614417D01*
X251535088Y-141614417D02*
X251487469Y-141709656D01*
X251487469Y-141709656D02*
X251392231Y-141757275D01*
X251392231Y-141757275D02*
X251249374Y-141757275D01*
X251249374Y-141757275D02*
X251154136Y-141709656D01*
X251154136Y-141709656D02*
X251106517Y-141662036D01*
X250630326Y-141757275D02*
X250630326Y-140757275D01*
X250630326Y-141138227D02*
X250535088Y-141090608D01*
X250535088Y-141090608D02*
X250344612Y-141090608D01*
X250344612Y-141090608D02*
X250249374Y-141138227D01*
X250249374Y-141138227D02*
X250201755Y-141185846D01*
X250201755Y-141185846D02*
X250154136Y-141281084D01*
X250154136Y-141281084D02*
X250154136Y-141566798D01*
X250154136Y-141566798D02*
X250201755Y-141662036D01*
X250201755Y-141662036D02*
X250249374Y-141709656D01*
X250249374Y-141709656D02*
X250344612Y-141757275D01*
X250344612Y-141757275D02*
X250535088Y-141757275D01*
X250535088Y-141757275D02*
X250630326Y-141709656D01*
X249725564Y-141662036D02*
X249677945Y-141709656D01*
X249677945Y-141709656D02*
X249725564Y-141757275D01*
X249725564Y-141757275D02*
X249773183Y-141709656D01*
X249773183Y-141709656D02*
X249725564Y-141662036D01*
X249725564Y-141662036D02*
X249725564Y-141757275D01*
X249725564Y-141138227D02*
X249677945Y-141185846D01*
X249677945Y-141185846D02*
X249725564Y-141233465D01*
X249725564Y-141233465D02*
X249773183Y-141185846D01*
X249773183Y-141185846D02*
X249725564Y-141138227D01*
X249725564Y-141138227D02*
X249725564Y-141233465D01*
X248058898Y-141090608D02*
X248058898Y-141900132D01*
X248058898Y-141900132D02*
X248106517Y-141995370D01*
X248106517Y-141995370D02*
X248154136Y-142042989D01*
X248154136Y-142042989D02*
X248249374Y-142090608D01*
X248249374Y-142090608D02*
X248392231Y-142090608D01*
X248392231Y-142090608D02*
X248487469Y-142042989D01*
X248058898Y-141709656D02*
X248154136Y-141757275D01*
X248154136Y-141757275D02*
X248344612Y-141757275D01*
X248344612Y-141757275D02*
X248439850Y-141709656D01*
X248439850Y-141709656D02*
X248487469Y-141662036D01*
X248487469Y-141662036D02*
X248535088Y-141566798D01*
X248535088Y-141566798D02*
X248535088Y-141281084D01*
X248535088Y-141281084D02*
X248487469Y-141185846D01*
X248487469Y-141185846D02*
X248439850Y-141138227D01*
X248439850Y-141138227D02*
X248344612Y-141090608D01*
X248344612Y-141090608D02*
X248154136Y-141090608D01*
X248154136Y-141090608D02*
X248058898Y-141138227D01*
X247582707Y-141757275D02*
X247582707Y-141090608D01*
X247582707Y-140757275D02*
X247630326Y-140804894D01*
X247630326Y-140804894D02*
X247582707Y-140852513D01*
X247582707Y-140852513D02*
X247535088Y-140804894D01*
X247535088Y-140804894D02*
X247582707Y-140757275D01*
X247582707Y-140757275D02*
X247582707Y-140852513D01*
X246677946Y-141757275D02*
X246677946Y-141233465D01*
X246677946Y-141233465D02*
X246725565Y-141138227D01*
X246725565Y-141138227D02*
X246820803Y-141090608D01*
X246820803Y-141090608D02*
X247011279Y-141090608D01*
X247011279Y-141090608D02*
X247106517Y-141138227D01*
X246677946Y-141709656D02*
X246773184Y-141757275D01*
X246773184Y-141757275D02*
X247011279Y-141757275D01*
X247011279Y-141757275D02*
X247106517Y-141709656D01*
X247106517Y-141709656D02*
X247154136Y-141614417D01*
X247154136Y-141614417D02*
X247154136Y-141519179D01*
X247154136Y-141519179D02*
X247106517Y-141423941D01*
X247106517Y-141423941D02*
X247011279Y-141376322D01*
X247011279Y-141376322D02*
X246773184Y-141376322D01*
X246773184Y-141376322D02*
X246677946Y-141328703D01*
X246201755Y-141090608D02*
X246201755Y-141757275D01*
X246201755Y-141185846D02*
X246154136Y-141138227D01*
X246154136Y-141138227D02*
X246058898Y-141090608D01*
X246058898Y-141090608D02*
X245916041Y-141090608D01*
X245916041Y-141090608D02*
X245820803Y-141138227D01*
X245820803Y-141138227D02*
X245773184Y-141233465D01*
X245773184Y-141233465D02*
X245773184Y-141757275D01*
X245154136Y-141757275D02*
X245249374Y-141709656D01*
X245249374Y-141709656D02*
X245296993Y-141614417D01*
X245296993Y-141614417D02*
X245296993Y-140757275D01*
X244344612Y-141090608D02*
X244344612Y-141757275D01*
X244773183Y-141090608D02*
X244773183Y-141614417D01*
X244773183Y-141614417D02*
X244725564Y-141709656D01*
X244725564Y-141709656D02*
X244630326Y-141757275D01*
X244630326Y-141757275D02*
X244487469Y-141757275D01*
X244487469Y-141757275D02*
X244392231Y-141709656D01*
X244392231Y-141709656D02*
X244344612Y-141662036D01*
X243439850Y-141709656D02*
X243535088Y-141757275D01*
X243535088Y-141757275D02*
X243725564Y-141757275D01*
X243725564Y-141757275D02*
X243820802Y-141709656D01*
X243820802Y-141709656D02*
X243868421Y-141662036D01*
X243868421Y-141662036D02*
X243916040Y-141566798D01*
X243916040Y-141566798D02*
X243916040Y-141281084D01*
X243916040Y-141281084D02*
X243868421Y-141185846D01*
X243868421Y-141185846D02*
X243820802Y-141138227D01*
X243820802Y-141138227D02*
X243725564Y-141090608D01*
X243725564Y-141090608D02*
X243535088Y-141090608D01*
X243535088Y-141090608D02*
X243439850Y-141138227D01*
X242582707Y-141757275D02*
X242582707Y-141233465D01*
X242582707Y-141233465D02*
X242630326Y-141138227D01*
X242630326Y-141138227D02*
X242725564Y-141090608D01*
X242725564Y-141090608D02*
X242916040Y-141090608D01*
X242916040Y-141090608D02*
X243011278Y-141138227D01*
X242582707Y-141709656D02*
X242677945Y-141757275D01*
X242677945Y-141757275D02*
X242916040Y-141757275D01*
X242916040Y-141757275D02*
X243011278Y-141709656D01*
X243011278Y-141709656D02*
X243058897Y-141614417D01*
X243058897Y-141614417D02*
X243058897Y-141519179D01*
X243058897Y-141519179D02*
X243011278Y-141423941D01*
X243011278Y-141423941D02*
X242916040Y-141376322D01*
X242916040Y-141376322D02*
X242677945Y-141376322D01*
X242677945Y-141376322D02*
X242582707Y-141328703D01*
X242106516Y-141376322D02*
X241344612Y-141376322D01*
X240868421Y-141757275D02*
X240868421Y-141090608D01*
X240868421Y-141281084D02*
X240820802Y-141185846D01*
X240820802Y-141185846D02*
X240773183Y-141138227D01*
X240773183Y-141138227D02*
X240677945Y-141090608D01*
X240677945Y-141090608D02*
X240582707Y-141090608D01*
X239820802Y-141757275D02*
X239820802Y-141233465D01*
X239820802Y-141233465D02*
X239868421Y-141138227D01*
X239868421Y-141138227D02*
X239963659Y-141090608D01*
X239963659Y-141090608D02*
X240154135Y-141090608D01*
X240154135Y-141090608D02*
X240249373Y-141138227D01*
X239820802Y-141709656D02*
X239916040Y-141757275D01*
X239916040Y-141757275D02*
X240154135Y-141757275D01*
X240154135Y-141757275D02*
X240249373Y-141709656D01*
X240249373Y-141709656D02*
X240296992Y-141614417D01*
X240296992Y-141614417D02*
X240296992Y-141519179D01*
X240296992Y-141519179D02*
X240249373Y-141423941D01*
X240249373Y-141423941D02*
X240154135Y-141376322D01*
X240154135Y-141376322D02*
X239916040Y-141376322D01*
X239916040Y-141376322D02*
X239820802Y-141328703D01*
X239344611Y-141757275D02*
X239344611Y-141090608D01*
X239344611Y-140757275D02*
X239392230Y-140804894D01*
X239392230Y-140804894D02*
X239344611Y-140852513D01*
X239344611Y-140852513D02*
X239296992Y-140804894D01*
X239296992Y-140804894D02*
X239344611Y-140757275D01*
X239344611Y-140757275D02*
X239344611Y-140852513D01*
X238868421Y-141090608D02*
X238868421Y-141757275D01*
X238868421Y-141185846D02*
X238820802Y-141138227D01*
X238820802Y-141138227D02*
X238725564Y-141090608D01*
X238725564Y-141090608D02*
X238582707Y-141090608D01*
X238582707Y-141090608D02*
X238487469Y-141138227D01*
X238487469Y-141138227D02*
X238439850Y-141233465D01*
X238439850Y-141233465D02*
X238439850Y-141757275D01*
X237963659Y-141757275D02*
X237963659Y-141090608D01*
X237963659Y-140757275D02*
X238011278Y-140804894D01*
X238011278Y-140804894D02*
X237963659Y-140852513D01*
X237963659Y-140852513D02*
X237916040Y-140804894D01*
X237916040Y-140804894D02*
X237963659Y-140757275D01*
X237963659Y-140757275D02*
X237963659Y-140852513D01*
X237535088Y-141709656D02*
X237439850Y-141757275D01*
X237439850Y-141757275D02*
X237249374Y-141757275D01*
X237249374Y-141757275D02*
X237154136Y-141709656D01*
X237154136Y-141709656D02*
X237106517Y-141614417D01*
X237106517Y-141614417D02*
X237106517Y-141566798D01*
X237106517Y-141566798D02*
X237154136Y-141471560D01*
X237154136Y-141471560D02*
X237249374Y-141423941D01*
X237249374Y-141423941D02*
X237392231Y-141423941D01*
X237392231Y-141423941D02*
X237487469Y-141376322D01*
X237487469Y-141376322D02*
X237535088Y-141281084D01*
X237535088Y-141281084D02*
X237535088Y-141233465D01*
X237535088Y-141233465D02*
X237487469Y-141138227D01*
X237487469Y-141138227D02*
X237392231Y-141090608D01*
X237392231Y-141090608D02*
X237249374Y-141090608D01*
X237249374Y-141090608D02*
X237154136Y-141138227D01*
X254058898Y-143367219D02*
X254392231Y-142891028D01*
X254630326Y-143367219D02*
X254630326Y-142367219D01*
X254630326Y-142367219D02*
X254249374Y-142367219D01*
X254249374Y-142367219D02*
X254154136Y-142414838D01*
X254154136Y-142414838D02*
X254106517Y-142462457D01*
X254106517Y-142462457D02*
X254058898Y-142557695D01*
X254058898Y-142557695D02*
X254058898Y-142700552D01*
X254058898Y-142700552D02*
X254106517Y-142795790D01*
X254106517Y-142795790D02*
X254154136Y-142843409D01*
X254154136Y-142843409D02*
X254249374Y-142891028D01*
X254249374Y-142891028D02*
X254630326Y-142891028D01*
X253249374Y-143319600D02*
X253344612Y-143367219D01*
X253344612Y-143367219D02*
X253535088Y-143367219D01*
X253535088Y-143367219D02*
X253630326Y-143319600D01*
X253630326Y-143319600D02*
X253677945Y-143224361D01*
X253677945Y-143224361D02*
X253677945Y-142843409D01*
X253677945Y-142843409D02*
X253630326Y-142748171D01*
X253630326Y-142748171D02*
X253535088Y-142700552D01*
X253535088Y-142700552D02*
X253344612Y-142700552D01*
X253344612Y-142700552D02*
X253249374Y-142748171D01*
X253249374Y-142748171D02*
X253201755Y-142843409D01*
X253201755Y-142843409D02*
X253201755Y-142938647D01*
X253201755Y-142938647D02*
X253677945Y-143033885D01*
X252773183Y-142700552D02*
X252773183Y-143700552D01*
X252773183Y-142748171D02*
X252677945Y-142700552D01*
X252677945Y-142700552D02*
X252487469Y-142700552D01*
X252487469Y-142700552D02*
X252392231Y-142748171D01*
X252392231Y-142748171D02*
X252344612Y-142795790D01*
X252344612Y-142795790D02*
X252296993Y-142891028D01*
X252296993Y-142891028D02*
X252296993Y-143176742D01*
X252296993Y-143176742D02*
X252344612Y-143271980D01*
X252344612Y-143271980D02*
X252392231Y-143319600D01*
X252392231Y-143319600D02*
X252487469Y-143367219D01*
X252487469Y-143367219D02*
X252677945Y-143367219D01*
X252677945Y-143367219D02*
X252773183Y-143319600D01*
X251725564Y-143367219D02*
X251820802Y-143319600D01*
X251820802Y-143319600D02*
X251868421Y-143271980D01*
X251868421Y-143271980D02*
X251916040Y-143176742D01*
X251916040Y-143176742D02*
X251916040Y-142891028D01*
X251916040Y-142891028D02*
X251868421Y-142795790D01*
X251868421Y-142795790D02*
X251820802Y-142748171D01*
X251820802Y-142748171D02*
X251725564Y-142700552D01*
X251725564Y-142700552D02*
X251582707Y-142700552D01*
X251582707Y-142700552D02*
X251487469Y-142748171D01*
X251487469Y-142748171D02*
X251439850Y-142795790D01*
X251439850Y-142795790D02*
X251392231Y-142891028D01*
X251392231Y-142891028D02*
X251392231Y-143176742D01*
X251392231Y-143176742D02*
X251439850Y-143271980D01*
X251439850Y-143271980D02*
X251487469Y-143319600D01*
X251487469Y-143319600D02*
X251582707Y-143367219D01*
X251582707Y-143367219D02*
X251725564Y-143367219D01*
X250963659Y-143271980D02*
X250916040Y-143319600D01*
X250916040Y-143319600D02*
X250963659Y-143367219D01*
X250963659Y-143367219D02*
X251011278Y-143319600D01*
X251011278Y-143319600D02*
X250963659Y-143271980D01*
X250963659Y-143271980D02*
X250963659Y-143367219D01*
X250963659Y-142748171D02*
X250916040Y-142795790D01*
X250916040Y-142795790D02*
X250963659Y-142843409D01*
X250963659Y-142843409D02*
X251011278Y-142795790D01*
X251011278Y-142795790D02*
X250963659Y-142748171D01*
X250963659Y-142748171D02*
X250963659Y-142843409D01*
X249725564Y-143367219D02*
X249725564Y-142367219D01*
X249296993Y-143367219D02*
X249296993Y-142843409D01*
X249296993Y-142843409D02*
X249344612Y-142748171D01*
X249344612Y-142748171D02*
X249439850Y-142700552D01*
X249439850Y-142700552D02*
X249582707Y-142700552D01*
X249582707Y-142700552D02*
X249677945Y-142748171D01*
X249677945Y-142748171D02*
X249725564Y-142795790D01*
X248963659Y-142700552D02*
X248582707Y-142700552D01*
X248820802Y-142367219D02*
X248820802Y-143224361D01*
X248820802Y-143224361D02*
X248773183Y-143319600D01*
X248773183Y-143319600D02*
X248677945Y-143367219D01*
X248677945Y-143367219D02*
X248582707Y-143367219D01*
X248392230Y-142700552D02*
X248011278Y-142700552D01*
X248249373Y-142367219D02*
X248249373Y-143224361D01*
X248249373Y-143224361D02*
X248201754Y-143319600D01*
X248201754Y-143319600D02*
X248106516Y-143367219D01*
X248106516Y-143367219D02*
X248011278Y-143367219D01*
X247677944Y-142700552D02*
X247677944Y-143700552D01*
X247677944Y-142748171D02*
X247582706Y-142700552D01*
X247582706Y-142700552D02*
X247392230Y-142700552D01*
X247392230Y-142700552D02*
X247296992Y-142748171D01*
X247296992Y-142748171D02*
X247249373Y-142795790D01*
X247249373Y-142795790D02*
X247201754Y-142891028D01*
X247201754Y-142891028D02*
X247201754Y-143176742D01*
X247201754Y-143176742D02*
X247249373Y-143271980D01*
X247249373Y-143271980D02*
X247296992Y-143319600D01*
X247296992Y-143319600D02*
X247392230Y-143367219D01*
X247392230Y-143367219D02*
X247582706Y-143367219D01*
X247582706Y-143367219D02*
X247677944Y-143319600D01*
X246820801Y-143319600D02*
X246725563Y-143367219D01*
X246725563Y-143367219D02*
X246535087Y-143367219D01*
X246535087Y-143367219D02*
X246439849Y-143319600D01*
X246439849Y-143319600D02*
X246392230Y-143224361D01*
X246392230Y-143224361D02*
X246392230Y-143176742D01*
X246392230Y-143176742D02*
X246439849Y-143081504D01*
X246439849Y-143081504D02*
X246535087Y-143033885D01*
X246535087Y-143033885D02*
X246677944Y-143033885D01*
X246677944Y-143033885D02*
X246773182Y-142986266D01*
X246773182Y-142986266D02*
X246820801Y-142891028D01*
X246820801Y-142891028D02*
X246820801Y-142843409D01*
X246820801Y-142843409D02*
X246773182Y-142748171D01*
X246773182Y-142748171D02*
X246677944Y-142700552D01*
X246677944Y-142700552D02*
X246535087Y-142700552D01*
X246535087Y-142700552D02*
X246439849Y-142748171D01*
X245963658Y-143271980D02*
X245916039Y-143319600D01*
X245916039Y-143319600D02*
X245963658Y-143367219D01*
X245963658Y-143367219D02*
X246011277Y-143319600D01*
X246011277Y-143319600D02*
X245963658Y-143271980D01*
X245963658Y-143271980D02*
X245963658Y-143367219D01*
X245963658Y-142748171D02*
X245916039Y-142795790D01*
X245916039Y-142795790D02*
X245963658Y-142843409D01*
X245963658Y-142843409D02*
X246011277Y-142795790D01*
X246011277Y-142795790D02*
X245963658Y-142748171D01*
X245963658Y-142748171D02*
X245963658Y-142843409D01*
X244773183Y-142319600D02*
X245630325Y-143605314D01*
X243725564Y-142319600D02*
X244582706Y-143605314D01*
X242963659Y-142700552D02*
X242963659Y-143510076D01*
X242963659Y-143510076D02*
X243011278Y-143605314D01*
X243011278Y-143605314D02*
X243058897Y-143652933D01*
X243058897Y-143652933D02*
X243154135Y-143700552D01*
X243154135Y-143700552D02*
X243296992Y-143700552D01*
X243296992Y-143700552D02*
X243392230Y-143652933D01*
X242963659Y-143319600D02*
X243058897Y-143367219D01*
X243058897Y-143367219D02*
X243249373Y-143367219D01*
X243249373Y-143367219D02*
X243344611Y-143319600D01*
X243344611Y-143319600D02*
X243392230Y-143271980D01*
X243392230Y-143271980D02*
X243439849Y-143176742D01*
X243439849Y-143176742D02*
X243439849Y-142891028D01*
X243439849Y-142891028D02*
X243392230Y-142795790D01*
X243392230Y-142795790D02*
X243344611Y-142748171D01*
X243344611Y-142748171D02*
X243249373Y-142700552D01*
X243249373Y-142700552D02*
X243058897Y-142700552D01*
X243058897Y-142700552D02*
X242963659Y-142748171D01*
X242487468Y-143367219D02*
X242487468Y-142700552D01*
X242487468Y-142367219D02*
X242535087Y-142414838D01*
X242535087Y-142414838D02*
X242487468Y-142462457D01*
X242487468Y-142462457D02*
X242439849Y-142414838D01*
X242439849Y-142414838D02*
X242487468Y-142367219D01*
X242487468Y-142367219D02*
X242487468Y-142462457D01*
X242154135Y-142700552D02*
X241773183Y-142700552D01*
X242011278Y-142367219D02*
X242011278Y-143224361D01*
X242011278Y-143224361D02*
X241963659Y-143319600D01*
X241963659Y-143319600D02*
X241868421Y-143367219D01*
X241868421Y-143367219D02*
X241773183Y-143367219D01*
X241439849Y-143367219D02*
X241439849Y-142367219D01*
X241011278Y-143367219D02*
X241011278Y-142843409D01*
X241011278Y-142843409D02*
X241058897Y-142748171D01*
X241058897Y-142748171D02*
X241154135Y-142700552D01*
X241154135Y-142700552D02*
X241296992Y-142700552D01*
X241296992Y-142700552D02*
X241392230Y-142748171D01*
X241392230Y-142748171D02*
X241439849Y-142795790D01*
X240106516Y-142700552D02*
X240106516Y-143367219D01*
X240535087Y-142700552D02*
X240535087Y-143224361D01*
X240535087Y-143224361D02*
X240487468Y-143319600D01*
X240487468Y-143319600D02*
X240392230Y-143367219D01*
X240392230Y-143367219D02*
X240249373Y-143367219D01*
X240249373Y-143367219D02*
X240154135Y-143319600D01*
X240154135Y-143319600D02*
X240106516Y-143271980D01*
X239630325Y-143367219D02*
X239630325Y-142367219D01*
X239630325Y-142748171D02*
X239535087Y-142700552D01*
X239535087Y-142700552D02*
X239344611Y-142700552D01*
X239344611Y-142700552D02*
X239249373Y-142748171D01*
X239249373Y-142748171D02*
X239201754Y-142795790D01*
X239201754Y-142795790D02*
X239154135Y-142891028D01*
X239154135Y-142891028D02*
X239154135Y-143176742D01*
X239154135Y-143176742D02*
X239201754Y-143271980D01*
X239201754Y-143271980D02*
X239249373Y-143319600D01*
X239249373Y-143319600D02*
X239344611Y-143367219D01*
X239344611Y-143367219D02*
X239535087Y-143367219D01*
X239535087Y-143367219D02*
X239630325Y-143319600D01*
X238725563Y-143271980D02*
X238677944Y-143319600D01*
X238677944Y-143319600D02*
X238725563Y-143367219D01*
X238725563Y-143367219D02*
X238773182Y-143319600D01*
X238773182Y-143319600D02*
X238725563Y-143271980D01*
X238725563Y-143271980D02*
X238725563Y-143367219D01*
X237820802Y-143319600D02*
X237916040Y-143367219D01*
X237916040Y-143367219D02*
X238106516Y-143367219D01*
X238106516Y-143367219D02*
X238201754Y-143319600D01*
X238201754Y-143319600D02*
X238249373Y-143271980D01*
X238249373Y-143271980D02*
X238296992Y-143176742D01*
X238296992Y-143176742D02*
X238296992Y-142891028D01*
X238296992Y-142891028D02*
X238249373Y-142795790D01*
X238249373Y-142795790D02*
X238201754Y-142748171D01*
X238201754Y-142748171D02*
X238106516Y-142700552D01*
X238106516Y-142700552D02*
X237916040Y-142700552D01*
X237916040Y-142700552D02*
X237820802Y-142748171D01*
X237249373Y-143367219D02*
X237344611Y-143319600D01*
X237344611Y-143319600D02*
X237392230Y-143271980D01*
X237392230Y-143271980D02*
X237439849Y-143176742D01*
X237439849Y-143176742D02*
X237439849Y-142891028D01*
X237439849Y-142891028D02*
X237392230Y-142795790D01*
X237392230Y-142795790D02*
X237344611Y-142748171D01*
X237344611Y-142748171D02*
X237249373Y-142700552D01*
X237249373Y-142700552D02*
X237106516Y-142700552D01*
X237106516Y-142700552D02*
X237011278Y-142748171D01*
X237011278Y-142748171D02*
X236963659Y-142795790D01*
X236963659Y-142795790D02*
X236916040Y-142891028D01*
X236916040Y-142891028D02*
X236916040Y-143176742D01*
X236916040Y-143176742D02*
X236963659Y-143271980D01*
X236963659Y-143271980D02*
X237011278Y-143319600D01*
X237011278Y-143319600D02*
X237106516Y-143367219D01*
X237106516Y-143367219D02*
X237249373Y-143367219D01*
X236487468Y-143367219D02*
X236487468Y-142700552D01*
X236487468Y-142795790D02*
X236439849Y-142748171D01*
X236439849Y-142748171D02*
X236344611Y-142700552D01*
X236344611Y-142700552D02*
X236201754Y-142700552D01*
X236201754Y-142700552D02*
X236106516Y-142748171D01*
X236106516Y-142748171D02*
X236058897Y-142843409D01*
X236058897Y-142843409D02*
X236058897Y-143367219D01*
X236058897Y-142843409D02*
X236011278Y-142748171D01*
X236011278Y-142748171D02*
X235916040Y-142700552D01*
X235916040Y-142700552D02*
X235773183Y-142700552D01*
X235773183Y-142700552D02*
X235677944Y-142748171D01*
X235677944Y-142748171D02*
X235630325Y-142843409D01*
X235630325Y-142843409D02*
X235630325Y-143367219D01*
X234439850Y-142319600D02*
X235296992Y-143605314D01*
X233677945Y-142700552D02*
X233677945Y-143510076D01*
X233677945Y-143510076D02*
X233725564Y-143605314D01*
X233725564Y-143605314D02*
X233773183Y-143652933D01*
X233773183Y-143652933D02*
X233868421Y-143700552D01*
X233868421Y-143700552D02*
X234011278Y-143700552D01*
X234011278Y-143700552D02*
X234106516Y-143652933D01*
X233677945Y-143319600D02*
X233773183Y-143367219D01*
X233773183Y-143367219D02*
X233963659Y-143367219D01*
X233963659Y-143367219D02*
X234058897Y-143319600D01*
X234058897Y-143319600D02*
X234106516Y-143271980D01*
X234106516Y-143271980D02*
X234154135Y-143176742D01*
X234154135Y-143176742D02*
X234154135Y-142891028D01*
X234154135Y-142891028D02*
X234106516Y-142795790D01*
X234106516Y-142795790D02*
X234058897Y-142748171D01*
X234058897Y-142748171D02*
X233963659Y-142700552D01*
X233963659Y-142700552D02*
X233773183Y-142700552D01*
X233773183Y-142700552D02*
X233677945Y-142748171D01*
X233201754Y-143367219D02*
X233201754Y-142700552D01*
X233201754Y-142367219D02*
X233249373Y-142414838D01*
X233249373Y-142414838D02*
X233201754Y-142462457D01*
X233201754Y-142462457D02*
X233154135Y-142414838D01*
X233154135Y-142414838D02*
X233201754Y-142367219D01*
X233201754Y-142367219D02*
X233201754Y-142462457D01*
X232296993Y-143367219D02*
X232296993Y-142843409D01*
X232296993Y-142843409D02*
X232344612Y-142748171D01*
X232344612Y-142748171D02*
X232439850Y-142700552D01*
X232439850Y-142700552D02*
X232630326Y-142700552D01*
X232630326Y-142700552D02*
X232725564Y-142748171D01*
X232296993Y-143319600D02*
X232392231Y-143367219D01*
X232392231Y-143367219D02*
X232630326Y-143367219D01*
X232630326Y-143367219D02*
X232725564Y-143319600D01*
X232725564Y-143319600D02*
X232773183Y-143224361D01*
X232773183Y-143224361D02*
X232773183Y-143129123D01*
X232773183Y-143129123D02*
X232725564Y-143033885D01*
X232725564Y-143033885D02*
X232630326Y-142986266D01*
X232630326Y-142986266D02*
X232392231Y-142986266D01*
X232392231Y-142986266D02*
X232296993Y-142938647D01*
X231820802Y-142700552D02*
X231820802Y-143367219D01*
X231820802Y-142795790D02*
X231773183Y-142748171D01*
X231773183Y-142748171D02*
X231677945Y-142700552D01*
X231677945Y-142700552D02*
X231535088Y-142700552D01*
X231535088Y-142700552D02*
X231439850Y-142748171D01*
X231439850Y-142748171D02*
X231392231Y-142843409D01*
X231392231Y-142843409D02*
X231392231Y-143367219D01*
X230773183Y-143367219D02*
X230868421Y-143319600D01*
X230868421Y-143319600D02*
X230916040Y-143224361D01*
X230916040Y-143224361D02*
X230916040Y-142367219D01*
X229963659Y-142700552D02*
X229963659Y-143367219D01*
X230392230Y-142700552D02*
X230392230Y-143224361D01*
X230392230Y-143224361D02*
X230344611Y-143319600D01*
X230344611Y-143319600D02*
X230249373Y-143367219D01*
X230249373Y-143367219D02*
X230106516Y-143367219D01*
X230106516Y-143367219D02*
X230011278Y-143319600D01*
X230011278Y-143319600D02*
X229963659Y-143271980D01*
X229058897Y-143319600D02*
X229154135Y-143367219D01*
X229154135Y-143367219D02*
X229344611Y-143367219D01*
X229344611Y-143367219D02*
X229439849Y-143319600D01*
X229439849Y-143319600D02*
X229487468Y-143271980D01*
X229487468Y-143271980D02*
X229535087Y-143176742D01*
X229535087Y-143176742D02*
X229535087Y-142891028D01*
X229535087Y-142891028D02*
X229487468Y-142795790D01*
X229487468Y-142795790D02*
X229439849Y-142748171D01*
X229439849Y-142748171D02*
X229344611Y-142700552D01*
X229344611Y-142700552D02*
X229154135Y-142700552D01*
X229154135Y-142700552D02*
X229058897Y-142748171D01*
X228201754Y-143367219D02*
X228201754Y-142843409D01*
X228201754Y-142843409D02*
X228249373Y-142748171D01*
X228249373Y-142748171D02*
X228344611Y-142700552D01*
X228344611Y-142700552D02*
X228535087Y-142700552D01*
X228535087Y-142700552D02*
X228630325Y-142748171D01*
X228201754Y-143319600D02*
X228296992Y-143367219D01*
X228296992Y-143367219D02*
X228535087Y-143367219D01*
X228535087Y-143367219D02*
X228630325Y-143319600D01*
X228630325Y-143319600D02*
X228677944Y-143224361D01*
X228677944Y-143224361D02*
X228677944Y-143129123D01*
X228677944Y-143129123D02*
X228630325Y-143033885D01*
X228630325Y-143033885D02*
X228535087Y-142986266D01*
X228535087Y-142986266D02*
X228296992Y-142986266D01*
X228296992Y-142986266D02*
X228201754Y-142938647D01*
X227725563Y-142986266D02*
X226963659Y-142986266D01*
X226487468Y-143367219D02*
X226487468Y-142700552D01*
X226487468Y-142891028D02*
X226439849Y-142795790D01*
X226439849Y-142795790D02*
X226392230Y-142748171D01*
X226392230Y-142748171D02*
X226296992Y-142700552D01*
X226296992Y-142700552D02*
X226201754Y-142700552D01*
X225439849Y-143367219D02*
X225439849Y-142843409D01*
X225439849Y-142843409D02*
X225487468Y-142748171D01*
X225487468Y-142748171D02*
X225582706Y-142700552D01*
X225582706Y-142700552D02*
X225773182Y-142700552D01*
X225773182Y-142700552D02*
X225868420Y-142748171D01*
X225439849Y-143319600D02*
X225535087Y-143367219D01*
X225535087Y-143367219D02*
X225773182Y-143367219D01*
X225773182Y-143367219D02*
X225868420Y-143319600D01*
X225868420Y-143319600D02*
X225916039Y-143224361D01*
X225916039Y-143224361D02*
X225916039Y-143129123D01*
X225916039Y-143129123D02*
X225868420Y-143033885D01*
X225868420Y-143033885D02*
X225773182Y-142986266D01*
X225773182Y-142986266D02*
X225535087Y-142986266D01*
X225535087Y-142986266D02*
X225439849Y-142938647D01*
X224963658Y-143367219D02*
X224963658Y-142700552D01*
X224963658Y-142367219D02*
X225011277Y-142414838D01*
X225011277Y-142414838D02*
X224963658Y-142462457D01*
X224963658Y-142462457D02*
X224916039Y-142414838D01*
X224916039Y-142414838D02*
X224963658Y-142367219D01*
X224963658Y-142367219D02*
X224963658Y-142462457D01*
X224487468Y-142700552D02*
X224487468Y-143367219D01*
X224487468Y-142795790D02*
X224439849Y-142748171D01*
X224439849Y-142748171D02*
X224344611Y-142700552D01*
X224344611Y-142700552D02*
X224201754Y-142700552D01*
X224201754Y-142700552D02*
X224106516Y-142748171D01*
X224106516Y-142748171D02*
X224058897Y-142843409D01*
X224058897Y-142843409D02*
X224058897Y-143367219D01*
X223582706Y-143367219D02*
X223582706Y-142700552D01*
X223582706Y-142367219D02*
X223630325Y-142414838D01*
X223630325Y-142414838D02*
X223582706Y-142462457D01*
X223582706Y-142462457D02*
X223535087Y-142414838D01*
X223535087Y-142414838D02*
X223582706Y-142367219D01*
X223582706Y-142367219D02*
X223582706Y-142462457D01*
X223154135Y-143319600D02*
X223058897Y-143367219D01*
X223058897Y-143367219D02*
X222868421Y-143367219D01*
X222868421Y-143367219D02*
X222773183Y-143319600D01*
X222773183Y-143319600D02*
X222725564Y-143224361D01*
X222725564Y-143224361D02*
X222725564Y-143176742D01*
X222725564Y-143176742D02*
X222773183Y-143081504D01*
X222773183Y-143081504D02*
X222868421Y-143033885D01*
X222868421Y-143033885D02*
X223011278Y-143033885D01*
X223011278Y-143033885D02*
X223106516Y-142986266D01*
X223106516Y-142986266D02*
X223154135Y-142891028D01*
X223154135Y-142891028D02*
X223154135Y-142843409D01*
X223154135Y-142843409D02*
X223106516Y-142748171D01*
X223106516Y-142748171D02*
X223011278Y-142700552D01*
X223011278Y-142700552D02*
X222868421Y-142700552D01*
X222868421Y-142700552D02*
X222773183Y-142748171D01*
X221582707Y-142319600D02*
X222439849Y-143605314D01*
X221344611Y-142367219D02*
X220677945Y-142367219D01*
X220677945Y-142367219D02*
X221344611Y-143367219D01*
X221344611Y-143367219D02*
X220677945Y-143367219D01*
X220154135Y-142795790D02*
X220249373Y-142748171D01*
X220249373Y-142748171D02*
X220296992Y-142700552D01*
X220296992Y-142700552D02*
X220344611Y-142605314D01*
X220344611Y-142605314D02*
X220344611Y-142557695D01*
X220344611Y-142557695D02*
X220296992Y-142462457D01*
X220296992Y-142462457D02*
X220249373Y-142414838D01*
X220249373Y-142414838D02*
X220154135Y-142367219D01*
X220154135Y-142367219D02*
X219963659Y-142367219D01*
X219963659Y-142367219D02*
X219868421Y-142414838D01*
X219868421Y-142414838D02*
X219820802Y-142462457D01*
X219820802Y-142462457D02*
X219773183Y-142557695D01*
X219773183Y-142557695D02*
X219773183Y-142605314D01*
X219773183Y-142605314D02*
X219820802Y-142700552D01*
X219820802Y-142700552D02*
X219868421Y-142748171D01*
X219868421Y-142748171D02*
X219963659Y-142795790D01*
X219963659Y-142795790D02*
X220154135Y-142795790D01*
X220154135Y-142795790D02*
X220249373Y-142843409D01*
X220249373Y-142843409D02*
X220296992Y-142891028D01*
X220296992Y-142891028D02*
X220344611Y-142986266D01*
X220344611Y-142986266D02*
X220344611Y-143176742D01*
X220344611Y-143176742D02*
X220296992Y-143271980D01*
X220296992Y-143271980D02*
X220249373Y-143319600D01*
X220249373Y-143319600D02*
X220154135Y-143367219D01*
X220154135Y-143367219D02*
X219963659Y-143367219D01*
X219963659Y-143367219D02*
X219868421Y-143319600D01*
X219868421Y-143319600D02*
X219820802Y-143271980D01*
X219820802Y-143271980D02*
X219773183Y-143176742D01*
X219773183Y-143176742D02*
X219773183Y-142986266D01*
X219773183Y-142986266D02*
X219820802Y-142891028D01*
X219820802Y-142891028D02*
X219868421Y-142843409D01*
X219868421Y-142843409D02*
X219963659Y-142795790D01*
X219154135Y-142367219D02*
X219058897Y-142367219D01*
X219058897Y-142367219D02*
X218963659Y-142414838D01*
X218963659Y-142414838D02*
X218916040Y-142462457D01*
X218916040Y-142462457D02*
X218868421Y-142557695D01*
X218868421Y-142557695D02*
X218820802Y-142748171D01*
X218820802Y-142748171D02*
X218820802Y-142986266D01*
X218820802Y-142986266D02*
X218868421Y-143176742D01*
X218868421Y-143176742D02*
X218916040Y-143271980D01*
X218916040Y-143271980D02*
X218963659Y-143319600D01*
X218963659Y-143319600D02*
X219058897Y-143367219D01*
X219058897Y-143367219D02*
X219154135Y-143367219D01*
X219154135Y-143367219D02*
X219249373Y-143319600D01*
X219249373Y-143319600D02*
X219296992Y-143271980D01*
X219296992Y-143271980D02*
X219344611Y-143176742D01*
X219344611Y-143176742D02*
X219392230Y-142986266D01*
X219392230Y-142986266D02*
X219392230Y-142748171D01*
X219392230Y-142748171D02*
X219344611Y-142557695D01*
X219344611Y-142557695D02*
X219296992Y-142462457D01*
X219296992Y-142462457D02*
X219249373Y-142414838D01*
X219249373Y-142414838D02*
X219154135Y-142367219D01*
X218392230Y-143367219D02*
X218392230Y-142367219D01*
X218392230Y-142367219D02*
X218154135Y-142367219D01*
X218154135Y-142367219D02*
X218011278Y-142414838D01*
X218011278Y-142414838D02*
X217916040Y-142510076D01*
X217916040Y-142510076D02*
X217868421Y-142605314D01*
X217868421Y-142605314D02*
X217820802Y-142795790D01*
X217820802Y-142795790D02*
X217820802Y-142938647D01*
X217820802Y-142938647D02*
X217868421Y-143129123D01*
X217868421Y-143129123D02*
X217916040Y-143224361D01*
X217916040Y-143224361D02*
X218011278Y-143319600D01*
X218011278Y-143319600D02*
X218154135Y-143367219D01*
X218154135Y-143367219D02*
X218392230Y-143367219D01*
X217011278Y-143319600D02*
X217106516Y-143367219D01*
X217106516Y-143367219D02*
X217296992Y-143367219D01*
X217296992Y-143367219D02*
X217392230Y-143319600D01*
X217392230Y-143319600D02*
X217439849Y-143224361D01*
X217439849Y-143224361D02*
X217439849Y-142843409D01*
X217439849Y-142843409D02*
X217392230Y-142748171D01*
X217392230Y-142748171D02*
X217296992Y-142700552D01*
X217296992Y-142700552D02*
X217106516Y-142700552D01*
X217106516Y-142700552D02*
X217011278Y-142748171D01*
X217011278Y-142748171D02*
X216963659Y-142843409D01*
X216963659Y-142843409D02*
X216963659Y-142938647D01*
X216963659Y-142938647D02*
X217439849Y-143033885D01*
X216630325Y-142700552D02*
X216392230Y-143367219D01*
X216392230Y-143367219D02*
X216154135Y-142700552D01*
X215439849Y-142843409D02*
X215296992Y-142891028D01*
X215296992Y-142891028D02*
X215249373Y-142938647D01*
X215249373Y-142938647D02*
X215201754Y-143033885D01*
X215201754Y-143033885D02*
X215201754Y-143176742D01*
X215201754Y-143176742D02*
X215249373Y-143271980D01*
X215249373Y-143271980D02*
X215296992Y-143319600D01*
X215296992Y-143319600D02*
X215392230Y-143367219D01*
X215392230Y-143367219D02*
X215773182Y-143367219D01*
X215773182Y-143367219D02*
X215773182Y-142367219D01*
X215773182Y-142367219D02*
X215439849Y-142367219D01*
X215439849Y-142367219D02*
X215344611Y-142414838D01*
X215344611Y-142414838D02*
X215296992Y-142462457D01*
X215296992Y-142462457D02*
X215249373Y-142557695D01*
X215249373Y-142557695D02*
X215249373Y-142652933D01*
X215249373Y-142652933D02*
X215296992Y-142748171D01*
X215296992Y-142748171D02*
X215344611Y-142795790D01*
X215344611Y-142795790D02*
X215439849Y-142843409D01*
X215439849Y-142843409D02*
X215773182Y-142843409D01*
X214630325Y-143367219D02*
X214725563Y-143319600D01*
X214725563Y-143319600D02*
X214773182Y-143271980D01*
X214773182Y-143271980D02*
X214820801Y-143176742D01*
X214820801Y-143176742D02*
X214820801Y-142891028D01*
X214820801Y-142891028D02*
X214773182Y-142795790D01*
X214773182Y-142795790D02*
X214725563Y-142748171D01*
X214725563Y-142748171D02*
X214630325Y-142700552D01*
X214630325Y-142700552D02*
X214487468Y-142700552D01*
X214487468Y-142700552D02*
X214392230Y-142748171D01*
X214392230Y-142748171D02*
X214344611Y-142795790D01*
X214344611Y-142795790D02*
X214296992Y-142891028D01*
X214296992Y-142891028D02*
X214296992Y-143176742D01*
X214296992Y-143176742D02*
X214344611Y-143271980D01*
X214344611Y-143271980D02*
X214392230Y-143319600D01*
X214392230Y-143319600D02*
X214487468Y-143367219D01*
X214487468Y-143367219D02*
X214630325Y-143367219D01*
X213439849Y-143367219D02*
X213439849Y-142843409D01*
X213439849Y-142843409D02*
X213487468Y-142748171D01*
X213487468Y-142748171D02*
X213582706Y-142700552D01*
X213582706Y-142700552D02*
X213773182Y-142700552D01*
X213773182Y-142700552D02*
X213868420Y-142748171D01*
X213439849Y-143319600D02*
X213535087Y-143367219D01*
X213535087Y-143367219D02*
X213773182Y-143367219D01*
X213773182Y-143367219D02*
X213868420Y-143319600D01*
X213868420Y-143319600D02*
X213916039Y-143224361D01*
X213916039Y-143224361D02*
X213916039Y-143129123D01*
X213916039Y-143129123D02*
X213868420Y-143033885D01*
X213868420Y-143033885D02*
X213773182Y-142986266D01*
X213773182Y-142986266D02*
X213535087Y-142986266D01*
X213535087Y-142986266D02*
X213439849Y-142938647D01*
X212963658Y-143367219D02*
X212963658Y-142700552D01*
X212963658Y-142891028D02*
X212916039Y-142795790D01*
X212916039Y-142795790D02*
X212868420Y-142748171D01*
X212868420Y-142748171D02*
X212773182Y-142700552D01*
X212773182Y-142700552D02*
X212677944Y-142700552D01*
X211916039Y-143367219D02*
X211916039Y-142367219D01*
X211916039Y-143319600D02*
X212011277Y-143367219D01*
X212011277Y-143367219D02*
X212201753Y-143367219D01*
X212201753Y-143367219D02*
X212296991Y-143319600D01*
X212296991Y-143319600D02*
X212344610Y-143271980D01*
X212344610Y-143271980D02*
X212392229Y-143176742D01*
X212392229Y-143176742D02*
X212392229Y-142891028D01*
X212392229Y-142891028D02*
X212344610Y-142795790D01*
X212344610Y-142795790D02*
X212296991Y-142748171D01*
X212296991Y-142748171D02*
X212201753Y-142700552D01*
X212201753Y-142700552D02*
X212011277Y-142700552D01*
X212011277Y-142700552D02*
X211916039Y-142748171D01*
D11*
%TO.C,G\u002A\u002A\u002A*%
G36*
X42245632Y-141949302D02*
G01*
X42279255Y-141961159D01*
X42281885Y-141984208D01*
X42255671Y-142020780D01*
X42224188Y-142044335D01*
X42172480Y-142050551D01*
X42121414Y-142023883D01*
X42092763Y-141991451D01*
X42090850Y-141965783D01*
X42122019Y-141951008D01*
X42186991Y-141946272D01*
X42245632Y-141949302D01*
G37*
G36*
X45928440Y-141940497D02*
G01*
X45942986Y-141971569D01*
X45928926Y-142009017D01*
X45914755Y-142023461D01*
X45893390Y-142035583D01*
X45893321Y-142035583D01*
X45867261Y-142020700D01*
X45848062Y-141988067D01*
X45846176Y-141955431D01*
X45858762Y-141939984D01*
X45893390Y-141928410D01*
X45928440Y-141940497D01*
G37*
G36*
X46155752Y-143232404D02*
G01*
X46204181Y-143235424D01*
X46227034Y-143245287D01*
X46232771Y-143265095D01*
X46231663Y-143283340D01*
X46225323Y-143305285D01*
X46219408Y-143307551D01*
X46186386Y-143311746D01*
X46136012Y-143313971D01*
X46115335Y-143314131D01*
X46075070Y-143311077D01*
X46057812Y-143299167D01*
X46054150Y-143273782D01*
X46054874Y-143259157D01*
X46063825Y-143241460D01*
X46090333Y-143233925D01*
X46143460Y-143232348D01*
X46155752Y-143232404D01*
G37*
G36*
X41624332Y-143222231D02*
G01*
X41624332Y-143428832D01*
X41481435Y-143428832D01*
X41421213Y-143428561D01*
X41374109Y-143426238D01*
X41349488Y-143419585D01*
X41340061Y-143406324D01*
X41338538Y-143384177D01*
X41339334Y-143366651D01*
X41348191Y-143348499D01*
X41374408Y-143340996D01*
X41427153Y-143339521D01*
X41515769Y-143339521D01*
X41520930Y-143183227D01*
X41521248Y-143173607D01*
X41524123Y-143102162D01*
X41528537Y-143058428D01*
X41536910Y-143035183D01*
X41551661Y-143025208D01*
X41575212Y-143021281D01*
X41624332Y-143015629D01*
X41624332Y-143222231D01*
G37*
G36*
X42773964Y-141981756D02*
G01*
X42731900Y-142026532D01*
X42712872Y-142045836D01*
X42680206Y-142067392D01*
X42650394Y-142060217D01*
X42611725Y-142024070D01*
X42567947Y-141976832D01*
X42572768Y-141972011D01*
X42642476Y-141972011D01*
X42643772Y-141982983D01*
X42658314Y-142007539D01*
X42663428Y-142009400D01*
X42685868Y-142000780D01*
X42703085Y-141978645D01*
X42701862Y-141958025D01*
X42683951Y-141947643D01*
X42655796Y-141950371D01*
X42642476Y-141972011D01*
X42572768Y-141972011D01*
X42619350Y-141925430D01*
X42670753Y-141874027D01*
X42722359Y-141927891D01*
X42770984Y-141978645D01*
X42773964Y-141981756D01*
G37*
G36*
X41777240Y-141990773D02*
G01*
X41746254Y-142029966D01*
X41728342Y-142048493D01*
X41701340Y-142067480D01*
X41676910Y-142060302D01*
X41642082Y-142026532D01*
X41600017Y-141981756D01*
X41610263Y-141971061D01*
X41665939Y-141971061D01*
X41668026Y-141998302D01*
X41672872Y-142004709D01*
X41695781Y-142017721D01*
X41712632Y-142012070D01*
X41725660Y-141987172D01*
X41715659Y-141959006D01*
X41710760Y-141954992D01*
X41684838Y-141952785D01*
X41665939Y-141971061D01*
X41610263Y-141971061D01*
X41650572Y-141928988D01*
X41701127Y-141876219D01*
X41742801Y-141915711D01*
X41753403Y-141926000D01*
X41779754Y-141960473D01*
X41777539Y-141987172D01*
X41777240Y-141990773D01*
G37*
G36*
X46457118Y-142027526D02*
G01*
X46435663Y-142051037D01*
X46387493Y-142071357D01*
X46336828Y-142064667D01*
X46296310Y-142030717D01*
X46279725Y-141984979D01*
X46282112Y-141971061D01*
X46345827Y-141971061D01*
X46347913Y-141998302D01*
X46352760Y-142004709D01*
X46375669Y-142017721D01*
X46392519Y-142012070D01*
X46405548Y-141987172D01*
X46395547Y-141959006D01*
X46390647Y-141954992D01*
X46364725Y-141952785D01*
X46345827Y-141971061D01*
X46282112Y-141971061D01*
X46288116Y-141936044D01*
X46318755Y-141898231D01*
X46364602Y-141879712D01*
X46418622Y-141888660D01*
X46461838Y-141923451D01*
X46475992Y-141972633D01*
X46470993Y-141987172D01*
X46457118Y-142027526D01*
G37*
G36*
X45498984Y-142008121D02*
G01*
X45478988Y-142049873D01*
X45470926Y-142056380D01*
X45426136Y-142070030D01*
X45373841Y-142065379D01*
X45332008Y-142043238D01*
X45316520Y-142022169D01*
X45307155Y-141973697D01*
X45307836Y-141971607D01*
X45366678Y-141971607D01*
X45381191Y-141997263D01*
X45404106Y-142008320D01*
X45428616Y-141991359D01*
X45429420Y-141990384D01*
X45440665Y-141967269D01*
X45420854Y-141953043D01*
X45403023Y-141949620D01*
X45373430Y-141958947D01*
X45366678Y-141971607D01*
X45307836Y-141971607D01*
X45322740Y-141925875D01*
X45358389Y-141889363D01*
X45409214Y-141874823D01*
X45435822Y-141880639D01*
X45472568Y-141911377D01*
X45495233Y-141957913D01*
X45495932Y-141967269D01*
X45498984Y-142008121D01*
G37*
G36*
X44091376Y-143045589D02*
G01*
X44142993Y-143095633D01*
X44171394Y-143169270D01*
X44173738Y-143263314D01*
X44171490Y-143280346D01*
X44153004Y-143343151D01*
X44116866Y-143388053D01*
X44113215Y-143391071D01*
X44065265Y-143416226D01*
X44009606Y-143426989D01*
X43954747Y-143424653D01*
X43909197Y-143410514D01*
X43881465Y-143385866D01*
X43880061Y-143352007D01*
X43885534Y-143342049D01*
X43909485Y-143330800D01*
X43957090Y-143334333D01*
X43981502Y-143337495D01*
X44021408Y-143333892D01*
X44047334Y-143312086D01*
X44066625Y-143264541D01*
X44069529Y-143200449D01*
X44052959Y-143141863D01*
X44051578Y-143139446D01*
X44018055Y-143113436D01*
X43972801Y-143108919D01*
X43932979Y-143127892D01*
X43928188Y-143132088D01*
X43910074Y-143132158D01*
X43890781Y-143101024D01*
X43879576Y-143072797D01*
X43880194Y-143047532D01*
X43905062Y-143033226D01*
X43959894Y-143023469D01*
X44019383Y-143022324D01*
X44091376Y-143045589D01*
G37*
G36*
X40530112Y-143021281D02*
G01*
X40536279Y-143022075D01*
X40560550Y-143029466D01*
X40577607Y-143048348D01*
X40592189Y-143086566D01*
X40609034Y-143151968D01*
X40610503Y-143158096D01*
X40625304Y-143219597D01*
X40636422Y-143265382D01*
X40641548Y-143285935D01*
X40642235Y-143285933D01*
X40650160Y-143266578D01*
X40664649Y-143222393D01*
X40683195Y-143160899D01*
X40692813Y-143128424D01*
X40711314Y-143073036D01*
X40727779Y-143041642D01*
X40747041Y-143026792D01*
X40773933Y-143021038D01*
X40808289Y-143019617D01*
X40819533Y-143033071D01*
X40814326Y-143071374D01*
X40812008Y-143081992D01*
X40798879Y-143133374D01*
X40779389Y-143203091D01*
X40756836Y-143279214D01*
X40710593Y-143430823D01*
X40646406Y-143425362D01*
X40582219Y-143419901D01*
X40532262Y-143241279D01*
X40525792Y-143218127D01*
X40502534Y-143133144D01*
X40488935Y-143076078D01*
X40484946Y-143041644D01*
X40490513Y-143024558D01*
X40505586Y-143019532D01*
X40530112Y-143021281D01*
G37*
G36*
X46439460Y-143018009D02*
G01*
X46462661Y-143021028D01*
X46475823Y-143035176D01*
X46482553Y-143068649D01*
X46486455Y-143129641D01*
X46491773Y-143241279D01*
X46550623Y-143128568D01*
X46562069Y-143106795D01*
X46590468Y-143056843D01*
X46612623Y-143030347D01*
X46635666Y-143020725D01*
X46666727Y-143021395D01*
X46723981Y-143026933D01*
X46727890Y-143205555D01*
X46728660Y-143255235D01*
X46728550Y-143326584D01*
X46726934Y-143379963D01*
X46723985Y-143406504D01*
X46707981Y-143421018D01*
X46670955Y-143428832D01*
X46660858Y-143428694D01*
X46641016Y-143424428D01*
X46630467Y-143408218D01*
X46626204Y-143372139D01*
X46625221Y-143308262D01*
X46624703Y-143187693D01*
X46560393Y-143308262D01*
X46555889Y-143316678D01*
X46522431Y-143375666D01*
X46496991Y-143409611D01*
X46473229Y-143425129D01*
X46444807Y-143428832D01*
X46393531Y-143428832D01*
X46393531Y-143223417D01*
X46393531Y-143018002D01*
X46437334Y-143018002D01*
X46439460Y-143018009D01*
G37*
G36*
X47550791Y-143204283D02*
G01*
X47551820Y-143252530D01*
X47551857Y-143324426D01*
X47549995Y-143378745D01*
X47546427Y-143406429D01*
X47529673Y-143421597D01*
X47487690Y-143425563D01*
X47459371Y-143419937D01*
X47443886Y-143402316D01*
X47444279Y-143361849D01*
X47445131Y-143353015D01*
X47444629Y-143319242D01*
X47427984Y-143306051D01*
X47385415Y-143303797D01*
X47335620Y-143296857D01*
X47278383Y-143265046D01*
X47244301Y-143213137D01*
X47242243Y-143186308D01*
X47346154Y-143186308D01*
X47363927Y-143204521D01*
X47402183Y-143214486D01*
X47411835Y-143214233D01*
X47440267Y-143203509D01*
X47447399Y-143169270D01*
X47446997Y-143160565D01*
X47431168Y-143123088D01*
X47399789Y-143111397D01*
X47363191Y-143130279D01*
X47348781Y-143152356D01*
X47346154Y-143186308D01*
X47242243Y-143186308D01*
X47239260Y-143147428D01*
X47242299Y-143130659D01*
X47260002Y-143078517D01*
X47291820Y-143046854D01*
X47344729Y-143031162D01*
X47425702Y-143026933D01*
X47545641Y-143026933D01*
X47549774Y-143169270D01*
X47550791Y-143204283D01*
G37*
G36*
X45461177Y-143261476D02*
G01*
X45441100Y-143337719D01*
X45399108Y-143392334D01*
X45381459Y-143404642D01*
X45312231Y-143428304D01*
X45241652Y-143418778D01*
X45177530Y-143376619D01*
X45166408Y-143365139D01*
X45140135Y-143329501D01*
X45128160Y-143288138D01*
X45126931Y-143261340D01*
X45233285Y-143261340D01*
X45243332Y-143311267D01*
X45259638Y-143328983D01*
X45296919Y-143339521D01*
X45297220Y-143339521D01*
X45320757Y-143336944D01*
X45333468Y-143323694D01*
X45338666Y-143291424D01*
X45339663Y-143231787D01*
X45336290Y-143171736D01*
X45321782Y-143122640D01*
X45295982Y-143107110D01*
X45259056Y-143125364D01*
X45243585Y-143152669D01*
X45233788Y-143203517D01*
X45233285Y-143261340D01*
X45126931Y-143261340D01*
X45125317Y-143226162D01*
X45128641Y-143163244D01*
X45142476Y-143115670D01*
X45171560Y-143072959D01*
X45198035Y-143047324D01*
X45258686Y-143018542D01*
X45322418Y-143018716D01*
X45381678Y-143045333D01*
X45428914Y-143095877D01*
X45456571Y-143167835D01*
X45457272Y-143171680D01*
X45459886Y-143231787D01*
X45461177Y-143261476D01*
G37*
G36*
X41237609Y-143283742D02*
G01*
X41214222Y-143352776D01*
X41172437Y-143401983D01*
X41157786Y-143410991D01*
X41092722Y-143429421D01*
X41025343Y-143422028D01*
X40966813Y-143391602D01*
X40928293Y-143340934D01*
X40916920Y-143302551D01*
X40910314Y-143230609D01*
X40910934Y-143223417D01*
X41025950Y-143223417D01*
X41026767Y-143275608D01*
X41031652Y-143312473D01*
X41043758Y-143329778D01*
X41066220Y-143336308D01*
X41092754Y-143335691D01*
X41113532Y-143317585D01*
X41122154Y-143275216D01*
X41120795Y-143203285D01*
X41118668Y-143174584D01*
X41111896Y-143136042D01*
X41097643Y-143119661D01*
X41070605Y-143116244D01*
X41069040Y-143116246D01*
X41044945Y-143118824D01*
X41032062Y-143131952D01*
X41026895Y-143164020D01*
X41025950Y-143223417D01*
X40910934Y-143223417D01*
X40916705Y-143156472D01*
X40934640Y-143092426D01*
X40962661Y-143050759D01*
X40994649Y-143031774D01*
X41061590Y-143017648D01*
X41130083Y-143027185D01*
X41185467Y-143059791D01*
X41193169Y-143068134D01*
X41227502Y-143130376D01*
X41242176Y-143205927D01*
X41238109Y-143275216D01*
X41237609Y-143283742D01*
G37*
G36*
X44977954Y-143021281D02*
G01*
X44990946Y-143022994D01*
X45011578Y-143030148D01*
X45023098Y-143048526D01*
X45028917Y-143086288D01*
X45032450Y-143151595D01*
X45033541Y-143180701D01*
X45033301Y-143261535D01*
X45025375Y-143318082D01*
X45007855Y-143358917D01*
X44978835Y-143392613D01*
X44955645Y-143409256D01*
X44892593Y-143427647D01*
X44823336Y-143421815D01*
X44761551Y-143391811D01*
X44759899Y-143390507D01*
X44738534Y-143371337D01*
X44725191Y-143349481D01*
X44717990Y-143316680D01*
X44715049Y-143264676D01*
X44714487Y-143185210D01*
X44714487Y-143015629D01*
X44763608Y-143021281D01*
X44766632Y-143021631D01*
X44789121Y-143025861D01*
X44803072Y-143036915D01*
X44810903Y-143062014D01*
X44815036Y-143108378D01*
X44817890Y-143183227D01*
X44820662Y-143254446D01*
X44824779Y-143302099D01*
X44832157Y-143327526D01*
X44844897Y-143337681D01*
X44865100Y-143339521D01*
X44887700Y-143336987D01*
X44908678Y-143322760D01*
X44921201Y-143290696D01*
X44927256Y-143234861D01*
X44928833Y-143149321D01*
X44928833Y-143015629D01*
X44977954Y-143021281D01*
G37*
G36*
X42367445Y-143024492D02*
G01*
X42424387Y-143050975D01*
X42465748Y-143091296D01*
X42481716Y-143141565D01*
X42470725Y-143189065D01*
X42431846Y-143231021D01*
X42361147Y-143267298D01*
X42354933Y-143269897D01*
X42318126Y-143292457D01*
X42303095Y-143314895D01*
X42303102Y-143315364D01*
X42318307Y-143332904D01*
X42353146Y-143339269D01*
X42393513Y-143334176D01*
X42425301Y-143317343D01*
X42445270Y-143304925D01*
X42464325Y-143321808D01*
X42478714Y-143355321D01*
X42476486Y-143394547D01*
X42450458Y-143416519D01*
X42379577Y-143428270D01*
X42302758Y-143423442D01*
X42242440Y-143400963D01*
X42201622Y-143365325D01*
X42183301Y-143321020D01*
X42190476Y-143272543D01*
X42226146Y-143224385D01*
X42293309Y-143181039D01*
X42305315Y-143175155D01*
X42349843Y-143145873D01*
X42362843Y-143123355D01*
X42347788Y-143111244D01*
X42308147Y-143113184D01*
X42247390Y-143132819D01*
X42243385Y-143134248D01*
X42218598Y-143128449D01*
X42205579Y-143102371D01*
X42207220Y-143068753D01*
X42226408Y-143040330D01*
X42246073Y-143028608D01*
X42304736Y-143015739D01*
X42367445Y-143024492D01*
G37*
G36*
X45735956Y-143021784D02*
G01*
X45797972Y-143046445D01*
X45841342Y-143088538D01*
X45857666Y-143141565D01*
X45856172Y-143161131D01*
X45838894Y-143201009D01*
X45797773Y-143236549D01*
X45727213Y-143273409D01*
X45710102Y-143281911D01*
X45677874Y-143304477D01*
X45670215Y-143321824D01*
X45684068Y-143332074D01*
X45722755Y-143338923D01*
X45766838Y-143334681D01*
X45798951Y-143319643D01*
X45825995Y-143308022D01*
X45848464Y-143325189D01*
X45857666Y-143366059D01*
X45852010Y-143393390D01*
X45826407Y-143416519D01*
X45777346Y-143424889D01*
X45695081Y-143422754D01*
X45625836Y-143402235D01*
X45584149Y-143371553D01*
X45560800Y-143325116D01*
X45568758Y-143274502D01*
X45606943Y-143224657D01*
X45674273Y-143180532D01*
X45718027Y-143156956D01*
X45739565Y-143136968D01*
X45734942Y-143120341D01*
X45731693Y-143117357D01*
X45704522Y-143108653D01*
X45659924Y-143120182D01*
X45626969Y-143130790D01*
X45604628Y-143127185D01*
X45590365Y-143101677D01*
X45586474Y-143088569D01*
X45593961Y-143050762D01*
X45632004Y-143026541D01*
X45697911Y-143018002D01*
X45735956Y-143021784D01*
G37*
G36*
X47980138Y-143320127D02*
G01*
X47938236Y-143386172D01*
X47898958Y-143414111D01*
X47831785Y-143430851D01*
X47763236Y-143419923D01*
X47705547Y-143381568D01*
X47692037Y-143365847D01*
X47672972Y-143332182D01*
X47663993Y-143287687D01*
X47661859Y-143223417D01*
X47777849Y-143223417D01*
X47778666Y-143275608D01*
X47783551Y-143312473D01*
X47795657Y-143329778D01*
X47818118Y-143336308D01*
X47844653Y-143335691D01*
X47865430Y-143317585D01*
X47874053Y-143275216D01*
X47872693Y-143203285D01*
X47870567Y-143174584D01*
X47863795Y-143136042D01*
X47849542Y-143119661D01*
X47822504Y-143116244D01*
X47820939Y-143116246D01*
X47796844Y-143118824D01*
X47783961Y-143131952D01*
X47778794Y-143164020D01*
X47777849Y-143223417D01*
X47661859Y-143223417D01*
X47661745Y-143219997D01*
X47662415Y-143175734D01*
X47667886Y-143125182D01*
X47681835Y-143090559D01*
X47707758Y-143059676D01*
X47741201Y-143031706D01*
X47778134Y-143020123D01*
X47832783Y-143022568D01*
X47869437Y-143027940D01*
X47925712Y-143047568D01*
X47960900Y-143084935D01*
X47984590Y-143147962D01*
X47995734Y-143236545D01*
X47988518Y-143275216D01*
X47980138Y-143320127D01*
G37*
G36*
X40373981Y-143223417D02*
G01*
X40373981Y-143428832D01*
X40231084Y-143428832D01*
X40170861Y-143428561D01*
X40123758Y-143426238D01*
X40099137Y-143419585D01*
X40089709Y-143406324D01*
X40088186Y-143384177D01*
X40089032Y-143366255D01*
X40098049Y-143348358D01*
X40124492Y-143340969D01*
X40177497Y-143339521D01*
X40198155Y-143339368D01*
X40242147Y-143335911D01*
X40262106Y-143325224D01*
X40266808Y-143303797D01*
X40266777Y-143301230D01*
X40260412Y-143280116D01*
X40236659Y-143270410D01*
X40186428Y-143268072D01*
X40164748Y-143267902D01*
X40125756Y-143264029D01*
X40109380Y-143250973D01*
X40106048Y-143223417D01*
X40106355Y-143211372D01*
X40113327Y-143189710D01*
X40136827Y-143180612D01*
X40186428Y-143178762D01*
X40192202Y-143178748D01*
X40239710Y-143175919D01*
X40261549Y-143165362D01*
X40266808Y-143143037D01*
X40266426Y-143134774D01*
X40257783Y-143117177D01*
X40231066Y-143109194D01*
X40177497Y-143107313D01*
X40141655Y-143106890D01*
X40105859Y-143102382D01*
X40091082Y-143089160D01*
X40088186Y-143062658D01*
X40089053Y-143043838D01*
X40096486Y-143029118D01*
X40117776Y-143021424D01*
X40160212Y-143018478D01*
X40231084Y-143018002D01*
X40373981Y-143018002D01*
X40373981Y-143223417D01*
G37*
G36*
X47125880Y-143223417D02*
G01*
X47125880Y-143428832D01*
X46982982Y-143428832D01*
X46922760Y-143428561D01*
X46875656Y-143426238D01*
X46851035Y-143419585D01*
X46841608Y-143406324D01*
X46840085Y-143384177D01*
X46840931Y-143366255D01*
X46849948Y-143348358D01*
X46876391Y-143340969D01*
X46929396Y-143339521D01*
X46950053Y-143339368D01*
X46994046Y-143335911D01*
X47014004Y-143325224D01*
X47018707Y-143303797D01*
X47018676Y-143301230D01*
X47012311Y-143280116D01*
X46988558Y-143270410D01*
X46938327Y-143268072D01*
X46916647Y-143267902D01*
X46877655Y-143264029D01*
X46861279Y-143250973D01*
X46857947Y-143223417D01*
X46858254Y-143211372D01*
X46865226Y-143189710D01*
X46888726Y-143180612D01*
X46938327Y-143178762D01*
X46944101Y-143178748D01*
X46991609Y-143175919D01*
X47013447Y-143165362D01*
X47018707Y-143143037D01*
X47018324Y-143134774D01*
X47009682Y-143117177D01*
X46982965Y-143109194D01*
X46929396Y-143107313D01*
X46893553Y-143106890D01*
X46857758Y-143102382D01*
X46842981Y-143089160D01*
X46840085Y-143062658D01*
X46840952Y-143043838D01*
X46848385Y-143029118D01*
X46869675Y-143021424D01*
X46912111Y-143018478D01*
X46982982Y-143018002D01*
X47125880Y-143018002D01*
X47125880Y-143223417D01*
G37*
G36*
X43749930Y-143223417D02*
G01*
X43749930Y-143428832D01*
X43607033Y-143428832D01*
X43546810Y-143428561D01*
X43499707Y-143426238D01*
X43475086Y-143419585D01*
X43465658Y-143406324D01*
X43464136Y-143384177D01*
X43464982Y-143366255D01*
X43473998Y-143348358D01*
X43500441Y-143340969D01*
X43553446Y-143339521D01*
X43571625Y-143339401D01*
X43616939Y-143336079D01*
X43637751Y-143325665D01*
X43642757Y-143304775D01*
X43642740Y-143303105D01*
X43635801Y-143281933D01*
X43610396Y-143270453D01*
X43557912Y-143264586D01*
X43550833Y-143264110D01*
X43501799Y-143257957D01*
X43478792Y-143245807D01*
X43473067Y-143223417D01*
X43473116Y-143220433D01*
X43480258Y-143199329D01*
X43505608Y-143188015D01*
X43557912Y-143182248D01*
X43561989Y-143181980D01*
X43612602Y-143175891D01*
X43636654Y-143163943D01*
X43642757Y-143142059D01*
X43642552Y-143136167D01*
X43634547Y-143117810D01*
X43608460Y-143109356D01*
X43555530Y-143107313D01*
X43554385Y-143107312D01*
X43500074Y-143104559D01*
X43471539Y-143094143D01*
X43459231Y-143072623D01*
X43455862Y-143051309D01*
X43460124Y-143027967D01*
X43462174Y-143026830D01*
X43490351Y-143022341D01*
X43542754Y-143019191D01*
X43610010Y-143018002D01*
X43749930Y-143018002D01*
X43749930Y-143223417D01*
G37*
G36*
X42831994Y-143018419D02*
G01*
X42876869Y-143021037D01*
X42900199Y-143027912D01*
X42909030Y-143041100D01*
X42910408Y-143062658D01*
X42907567Y-143084045D01*
X42883992Y-143108333D01*
X42834494Y-143109428D01*
X42827872Y-143123660D01*
X42822970Y-143164688D01*
X42821098Y-143223417D01*
X42821123Y-143242380D01*
X42822538Y-143296985D01*
X42828378Y-143325997D01*
X42841748Y-143337485D01*
X42865753Y-143339521D01*
X42873982Y-143339710D01*
X42903031Y-143350185D01*
X42910408Y-143384177D01*
X42909054Y-143405630D01*
X42900266Y-143418901D01*
X42876974Y-143425805D01*
X42832102Y-143428422D01*
X42758580Y-143428832D01*
X42687825Y-143428448D01*
X42641750Y-143425934D01*
X42617593Y-143419264D01*
X42608284Y-143406415D01*
X42606752Y-143385363D01*
X42607015Y-143376794D01*
X42618952Y-143347759D01*
X42655873Y-143336242D01*
X42659162Y-143335856D01*
X42685007Y-143330277D01*
X42698685Y-143315591D01*
X42704060Y-143282928D01*
X42704994Y-143223417D01*
X42704993Y-143219661D01*
X42703919Y-143161833D01*
X42698448Y-143130913D01*
X42685087Y-143118513D01*
X42660338Y-143116244D01*
X42650391Y-143115918D01*
X42621404Y-143103917D01*
X42610031Y-143067123D01*
X42604379Y-143018002D01*
X42757394Y-143018002D01*
X42758530Y-143018002D01*
X42831994Y-143018419D01*
G37*
G36*
X44603534Y-143204283D02*
G01*
X44604582Y-143252663D01*
X44604707Y-143324240D01*
X44602998Y-143378092D01*
X44599629Y-143405233D01*
X44582902Y-143420531D01*
X44545357Y-143428832D01*
X44518458Y-143425867D01*
X44503450Y-143408566D01*
X44500141Y-143366314D01*
X44494041Y-143320265D01*
X44476656Y-143303797D01*
X44471907Y-143304832D01*
X44448041Y-143326142D01*
X44423359Y-143366314D01*
X44407278Y-143395987D01*
X44379734Y-143422200D01*
X44339671Y-143428832D01*
X44317468Y-143427488D01*
X44290751Y-143414285D01*
X44291745Y-143384033D01*
X44319696Y-143333114D01*
X44323769Y-143326919D01*
X44342545Y-143293992D01*
X44341155Y-143272951D01*
X44319578Y-143248269D01*
X44314551Y-143242847D01*
X44289641Y-143189497D01*
X44289759Y-143185429D01*
X44403502Y-143185429D01*
X44419986Y-143203638D01*
X44457397Y-143214486D01*
X44474790Y-143213324D01*
X44495213Y-143199321D01*
X44500141Y-143160899D01*
X44499945Y-143150831D01*
X44491430Y-143116830D01*
X44466604Y-143107313D01*
X44431646Y-143116847D01*
X44404700Y-143146785D01*
X44403502Y-143185429D01*
X44289759Y-143185429D01*
X44291446Y-143127214D01*
X44319941Y-143069102D01*
X44338913Y-143049300D01*
X44366366Y-143035003D01*
X44408672Y-143028483D01*
X44476235Y-143026933D01*
X44598383Y-143026933D01*
X44602274Y-143160899D01*
X44603534Y-143204283D01*
G37*
G36*
X44691304Y-140918230D02*
G01*
X44662700Y-141043407D01*
X44652425Y-141070311D01*
X44593920Y-141184617D01*
X44510835Y-141307025D01*
X44408733Y-141430643D01*
X44293181Y-141548580D01*
X44169742Y-141653943D01*
X44098345Y-141708989D01*
X44196536Y-141760331D01*
X44241229Y-141783210D01*
X44398245Y-141854284D01*
X44538724Y-141901727D01*
X44621963Y-141924329D01*
X44640792Y-141849553D01*
X44647923Y-141825575D01*
X44692639Y-141733517D01*
X44758343Y-141647630D01*
X44834919Y-141581862D01*
X44838355Y-141579637D01*
X44884148Y-141551838D01*
X44927479Y-141531242D01*
X44973765Y-141517434D01*
X45028424Y-141510003D01*
X45096874Y-141508534D01*
X45184534Y-141512615D01*
X45296821Y-141521831D01*
X45439153Y-141535770D01*
X45477135Y-141539593D01*
X45611252Y-141552178D01*
X45726804Y-141560791D01*
X45831505Y-141565343D01*
X45933068Y-141565747D01*
X46039207Y-141561914D01*
X46157634Y-141553758D01*
X46296064Y-141541190D01*
X46462209Y-141524123D01*
X46536405Y-141516606D01*
X46643960Y-141508208D01*
X46727294Y-141506887D01*
X46793479Y-141513602D01*
X46849582Y-141529309D01*
X46902675Y-141554966D01*
X46959825Y-141591531D01*
X46995575Y-141620147D01*
X47062454Y-141696153D01*
X47114489Y-141784929D01*
X47142789Y-141872808D01*
X47146657Y-141894131D01*
X47158523Y-141924095D01*
X47184117Y-141939233D01*
X47234364Y-141948585D01*
X47346397Y-141975228D01*
X47398104Y-141997367D01*
X47484490Y-142034354D01*
X47615020Y-142117632D01*
X47728019Y-142219591D01*
X47780280Y-142284260D01*
X47845998Y-142390650D01*
X47898891Y-142505937D01*
X47934241Y-142619351D01*
X47947327Y-142720121D01*
X47947262Y-142726949D01*
X47940005Y-142759390D01*
X47917836Y-142764776D01*
X47901893Y-142754208D01*
X47882714Y-142715072D01*
X47864675Y-142643947D01*
X47851192Y-142586923D01*
X47792161Y-142430415D01*
X47706092Y-142295340D01*
X47594624Y-142183905D01*
X47459395Y-142098314D01*
X47442335Y-142090121D01*
X47360321Y-142055396D01*
X47283735Y-142029830D01*
X47219251Y-142015038D01*
X47173545Y-142012637D01*
X47153293Y-142024240D01*
X47151163Y-142031817D01*
X47098649Y-142169415D01*
X47028001Y-142276633D01*
X46938578Y-142354224D01*
X46829738Y-142402937D01*
X46814216Y-142407369D01*
X46775137Y-142416976D01*
X46737042Y-142422342D01*
X46692647Y-142423422D01*
X46634665Y-142420167D01*
X46555812Y-142412531D01*
X46448801Y-142400465D01*
X46384758Y-142393539D01*
X46036145Y-142371361D01*
X45680844Y-142373261D01*
X45335378Y-142399259D01*
X45297105Y-142403580D01*
X45199165Y-142414072D01*
X45127137Y-142420194D01*
X45073809Y-142421998D01*
X45031969Y-142419536D01*
X44994404Y-142412861D01*
X44953904Y-142402025D01*
X44872076Y-142368134D01*
X44775286Y-142297431D01*
X44698715Y-142203679D01*
X44648910Y-142093500D01*
X44618712Y-141991038D01*
X44701778Y-141991038D01*
X44714986Y-142064468D01*
X44760701Y-142172106D01*
X44835217Y-142258825D01*
X44937764Y-142323542D01*
X44956101Y-142331648D01*
X45002419Y-142349431D01*
X45031541Y-142356710D01*
X45039023Y-142349103D01*
X45044888Y-142322949D01*
X45049110Y-142274806D01*
X45051883Y-142201244D01*
X45053405Y-142098830D01*
X45053861Y-141966190D01*
X45125317Y-141966190D01*
X45125791Y-142099985D01*
X45127303Y-142201583D01*
X45130049Y-142274420D01*
X45134224Y-142321930D01*
X45140024Y-142347548D01*
X45147645Y-142354710D01*
X45166684Y-142352483D01*
X45215577Y-142346571D01*
X45284918Y-142338095D01*
X45366456Y-142328059D01*
X45382468Y-142326157D01*
X45480799Y-142316505D01*
X45598753Y-142307429D01*
X45722899Y-142299874D01*
X45839804Y-142294784D01*
X46116667Y-142285769D01*
X46121439Y-141964134D01*
X46179185Y-141964134D01*
X46179185Y-142300677D01*
X46228306Y-142310093D01*
X46233743Y-142311059D01*
X46280210Y-142317278D01*
X46347355Y-142324391D01*
X46422602Y-142331040D01*
X46567776Y-142342571D01*
X46567930Y-141964134D01*
X46625739Y-141964134D01*
X46625739Y-142357102D01*
X46670394Y-142357102D01*
X46715050Y-142357102D01*
X46715050Y-141964134D01*
X46786498Y-141964134D01*
X46786823Y-142073870D01*
X46788219Y-142178705D01*
X46790909Y-142254163D01*
X46795102Y-142303735D01*
X46801005Y-142330908D01*
X46808826Y-142339173D01*
X46837601Y-142331986D01*
X46888838Y-142303015D01*
X46945025Y-142258395D01*
X46996225Y-142205230D01*
X47001572Y-142198594D01*
X47056593Y-142102184D01*
X47080710Y-141997367D01*
X47075113Y-141890752D01*
X47040993Y-141788950D01*
X46979539Y-141698570D01*
X46891944Y-141626223D01*
X46877972Y-141617691D01*
X46847187Y-141600145D01*
X46824219Y-141592650D01*
X46807925Y-141598874D01*
X46797159Y-141622483D01*
X46790779Y-141667147D01*
X46787638Y-141736531D01*
X46786593Y-141834305D01*
X46786498Y-141964134D01*
X46715050Y-141964134D01*
X46715050Y-141571167D01*
X46670394Y-141571167D01*
X46625739Y-141571167D01*
X46625739Y-141585671D01*
X46625739Y-141964134D01*
X46567930Y-141964134D01*
X46567930Y-141964121D01*
X46568084Y-141585671D01*
X46422756Y-141597215D01*
X46408320Y-141598388D01*
X46333621Y-141605233D01*
X46269427Y-141612280D01*
X46228306Y-141618176D01*
X46179185Y-141627592D01*
X46179185Y-141633684D01*
X46179185Y-141964134D01*
X46121439Y-141964134D01*
X46121504Y-141959727D01*
X46126340Y-141633684D01*
X45880364Y-141631369D01*
X45771478Y-141628950D01*
X45571363Y-141618455D01*
X45372620Y-141601111D01*
X45192300Y-141578233D01*
X45125317Y-141568027D01*
X45125317Y-141962564D01*
X45125317Y-141964134D01*
X45125317Y-141966190D01*
X45053861Y-141966190D01*
X45053868Y-141964134D01*
X45053732Y-141911492D01*
X45052516Y-141802570D01*
X45050206Y-141708978D01*
X45046997Y-141635815D01*
X45043086Y-141588178D01*
X45038672Y-141571167D01*
X45036642Y-141571289D01*
X45007284Y-141577901D01*
X44962757Y-141591496D01*
X44894934Y-141622087D01*
X44808420Y-141690196D01*
X44744464Y-141778870D01*
X44707454Y-141881390D01*
X44701778Y-141991038D01*
X44618712Y-141991038D01*
X44617699Y-141987600D01*
X44516150Y-141966625D01*
X44472719Y-141954536D01*
X44397972Y-141927235D01*
X44311975Y-141890817D01*
X44225976Y-141849810D01*
X44037353Y-141753969D01*
X43844520Y-141850419D01*
X43773301Y-141884552D01*
X43686717Y-141922603D01*
X43632862Y-141943824D01*
X43609870Y-141952884D01*
X43553658Y-141970882D01*
X43505294Y-141983799D01*
X43469409Y-142000030D01*
X43449505Y-142024580D01*
X43435081Y-142065858D01*
X43413009Y-142131384D01*
X43366141Y-142221284D01*
X43300435Y-142297050D01*
X43264651Y-142328867D01*
X43206749Y-142370107D01*
X43145134Y-142398046D01*
X43073570Y-142413815D01*
X42985819Y-142418549D01*
X42875644Y-142413381D01*
X42736807Y-142399443D01*
X42627546Y-142388440D01*
X42376401Y-142373427D01*
X42116184Y-142370367D01*
X41861143Y-142379251D01*
X41625526Y-142400072D01*
X41519206Y-142412018D01*
X41420788Y-142419734D01*
X41344381Y-142420220D01*
X41282894Y-142413068D01*
X41229237Y-142397871D01*
X41176319Y-142374220D01*
X41110564Y-142330236D01*
X41040800Y-142261005D01*
X40982658Y-142180314D01*
X40942780Y-142097572D01*
X40927808Y-142022186D01*
X40925903Y-142010660D01*
X40914777Y-142002794D01*
X40887988Y-142002651D01*
X40839166Y-142010383D01*
X40761940Y-142026143D01*
X40737818Y-142031575D01*
X40600097Y-142078084D01*
X40478643Y-142149897D01*
X40364340Y-142252197D01*
X40279450Y-142356208D01*
X40202072Y-142499450D01*
X40155552Y-142659930D01*
X40145260Y-142705746D01*
X40128906Y-142751259D01*
X40112881Y-142767932D01*
X40110099Y-142767885D01*
X40089311Y-142761033D01*
X40080612Y-142738294D01*
X40083332Y-142693537D01*
X40096804Y-142620637D01*
X40117732Y-142539178D01*
X40184343Y-142379867D01*
X40279661Y-142240308D01*
X40401692Y-142123106D01*
X40548440Y-142030865D01*
X40571161Y-142019739D01*
X40639826Y-141989725D01*
X40706115Y-141968505D01*
X40782715Y-141952566D01*
X40847819Y-141943302D01*
X40993220Y-141943302D01*
X41003008Y-142045946D01*
X41039798Y-142144743D01*
X41103904Y-142234077D01*
X41195641Y-142308329D01*
X41241747Y-142330275D01*
X41298348Y-142347837D01*
X41356400Y-142359940D01*
X41356400Y-141965554D01*
X41356402Y-141962146D01*
X41409986Y-141962146D01*
X41409987Y-141966100D01*
X41410463Y-142099914D01*
X41411976Y-142201537D01*
X41414723Y-142274402D01*
X41418898Y-142321943D01*
X41424697Y-142347592D01*
X41432314Y-142354785D01*
X41450490Y-142352838D01*
X41499748Y-142347510D01*
X41573103Y-142339552D01*
X41664336Y-142329640D01*
X41767230Y-142318448D01*
X41905301Y-142305263D01*
X42038237Y-142296098D01*
X42154598Y-142291688D01*
X42245043Y-142292540D01*
X42410268Y-142300652D01*
X42410268Y-141960890D01*
X42410268Y-141627592D01*
X42481716Y-141627592D01*
X42481716Y-141963984D01*
X42481716Y-142300375D01*
X42548700Y-142310323D01*
X42591807Y-142316043D01*
X42662123Y-142324187D01*
X42736252Y-142331836D01*
X42856822Y-142343402D01*
X42856822Y-141964117D01*
X42856822Y-141962892D01*
X42928271Y-141962892D01*
X42928272Y-141964117D01*
X42928358Y-142078360D01*
X42928901Y-142178614D01*
X42930298Y-142251418D01*
X42932946Y-142301154D01*
X42937243Y-142332207D01*
X42943585Y-142348960D01*
X42952370Y-142355797D01*
X42963995Y-142357102D01*
X42984735Y-142355444D01*
X43000099Y-142348171D01*
X43000142Y-142345173D01*
X43000287Y-142314453D01*
X43000456Y-142255191D01*
X43000635Y-142172739D01*
X43000812Y-142072447D01*
X43000970Y-141964134D01*
X43071168Y-141964134D01*
X43071493Y-142073961D01*
X43072889Y-142178762D01*
X43075580Y-142254189D01*
X43079772Y-142303734D01*
X43085675Y-142330884D01*
X43093496Y-142339130D01*
X43113692Y-142335311D01*
X43162010Y-142314584D01*
X43216247Y-142282285D01*
X43263028Y-142245777D01*
X43273483Y-142235472D01*
X43331834Y-142151364D01*
X43365634Y-142051043D01*
X43373992Y-141943824D01*
X43356018Y-141839023D01*
X43310820Y-141745954D01*
X43269520Y-141695146D01*
X43210778Y-141640764D01*
X43152679Y-141603106D01*
X43104251Y-141589029D01*
X43098818Y-141589351D01*
X43089115Y-141593862D01*
X43081988Y-141607262D01*
X43077041Y-141634024D01*
X43073880Y-141678620D01*
X43072110Y-141745522D01*
X43071338Y-141839202D01*
X43071308Y-141861458D01*
X43071168Y-141964134D01*
X43000970Y-141964134D01*
X43000977Y-141959669D01*
X43001045Y-141861458D01*
X43000692Y-141759904D01*
X42999442Y-141686096D01*
X42996872Y-141635495D01*
X42992555Y-141603563D01*
X42986066Y-141585761D01*
X42976981Y-141577549D01*
X42964872Y-141574390D01*
X42953028Y-141573581D01*
X42944016Y-141578224D01*
X42937508Y-141592652D01*
X42933096Y-141621190D01*
X42930374Y-141668160D01*
X42928934Y-141737884D01*
X42928369Y-141834688D01*
X42928271Y-141962892D01*
X42856822Y-141962892D01*
X42856822Y-141584832D01*
X42718390Y-141596636D01*
X42710362Y-141597330D01*
X42636745Y-141604438D01*
X42572534Y-141611832D01*
X42530837Y-141618016D01*
X42514879Y-141621127D01*
X42481716Y-141627592D01*
X42410268Y-141627592D01*
X42410268Y-141621127D01*
X42289698Y-141632833D01*
X42254013Y-141634479D01*
X42179576Y-141633857D01*
X42082915Y-141630348D01*
X41971741Y-141624472D01*
X41853764Y-141616746D01*
X41736694Y-141607686D01*
X41628243Y-141597812D01*
X41536121Y-141587639D01*
X41468039Y-141577686D01*
X41409986Y-141567191D01*
X41409986Y-141861766D01*
X41409986Y-141962146D01*
X41356402Y-141962146D01*
X41356446Y-141861766D01*
X41356008Y-141753452D01*
X41353858Y-141674234D01*
X41348749Y-141620344D01*
X41339437Y-141588013D01*
X41324678Y-141573472D01*
X41303224Y-141572954D01*
X41273832Y-141582688D01*
X41235257Y-141598907D01*
X41217818Y-141606639D01*
X41122733Y-141668482D01*
X41053396Y-141748952D01*
X41010121Y-141842432D01*
X40993220Y-141943302D01*
X40847819Y-141943302D01*
X40882311Y-141938394D01*
X40896089Y-141934041D01*
X40919295Y-141906943D01*
X40938642Y-141850320D01*
X40942971Y-141834441D01*
X40994224Y-141719422D01*
X41075443Y-141623793D01*
X41186475Y-141547742D01*
X41221186Y-141532542D01*
X41272216Y-141519206D01*
X41336296Y-141511907D01*
X41417864Y-141510607D01*
X41521360Y-141515267D01*
X41651220Y-141525850D01*
X41811885Y-141542317D01*
X41913273Y-141552555D01*
X42041022Y-141562079D01*
X42162331Y-141566130D01*
X42285521Y-141564549D01*
X42418915Y-141557178D01*
X42570836Y-141543859D01*
X42749604Y-141524431D01*
X42763949Y-141522806D01*
X42859079Y-141513603D01*
X42946140Y-141507669D01*
X43016018Y-141505497D01*
X43059602Y-141507584D01*
X43092618Y-141514137D01*
X43206433Y-141558752D01*
X43303606Y-141632950D01*
X43380847Y-141733662D01*
X43434870Y-141857819D01*
X43455204Y-141924190D01*
X43553446Y-141899057D01*
X43582004Y-141890576D01*
X43653200Y-141864534D01*
X43736547Y-141829656D01*
X43819372Y-141791086D01*
X43831831Y-141784923D01*
X43901811Y-141749515D01*
X43944521Y-141725246D01*
X43964392Y-141708570D01*
X43965854Y-141695937D01*
X43953338Y-141683798D01*
X43889364Y-141635515D01*
X43744914Y-141510442D01*
X43621590Y-141379857D01*
X43521357Y-141246995D01*
X43446180Y-141115089D01*
X43398022Y-140987373D01*
X43382064Y-140887259D01*
X43450736Y-140887259D01*
X43470685Y-140985775D01*
X43520169Y-141105037D01*
X43594974Y-141230018D01*
X43691512Y-141355536D01*
X43806198Y-141476409D01*
X43935444Y-141587456D01*
X43984048Y-141623849D01*
X44022251Y-141650357D01*
X44040781Y-141660477D01*
X44048186Y-141656756D01*
X44078957Y-141635275D01*
X44126916Y-141598945D01*
X44185473Y-141552676D01*
X44316787Y-141435443D01*
X44427199Y-141312981D01*
X44514602Y-141189098D01*
X44577660Y-141066981D01*
X44615034Y-140949819D01*
X44625390Y-140840799D01*
X44607391Y-140743110D01*
X44559701Y-140659939D01*
X44549148Y-140647904D01*
X44465393Y-140580058D01*
X44370117Y-140544079D01*
X44268669Y-140541156D01*
X44166400Y-140572479D01*
X44121890Y-140595761D01*
X44095788Y-140619513D01*
X44094801Y-140648537D01*
X44114573Y-140692959D01*
X44115342Y-140694464D01*
X44136391Y-140747806D01*
X44152100Y-140807186D01*
X44156582Y-140840895D01*
X44156682Y-140841650D01*
X44149201Y-140880367D01*
X44118719Y-140918207D01*
X44068841Y-140954671D01*
X44017176Y-140959802D01*
X43962651Y-140930404D01*
X43944870Y-140911413D01*
X43924355Y-140854043D01*
X43925600Y-140836720D01*
X43992331Y-140836720D01*
X43994347Y-140867711D01*
X43997585Y-140873995D01*
X44025009Y-140890639D01*
X44059578Y-140887166D01*
X44083367Y-140864270D01*
X44085886Y-140840895D01*
X44080189Y-140797016D01*
X44067789Y-140749540D01*
X44052261Y-140711497D01*
X44037181Y-140695921D01*
X44025434Y-140707920D01*
X44011105Y-140743869D01*
X43998994Y-140791121D01*
X43992331Y-140836720D01*
X43925600Y-140836720D01*
X43929682Y-140779900D01*
X43960891Y-140694459D01*
X43996755Y-140621973D01*
X43940326Y-140587550D01*
X43912054Y-140572012D01*
X43815440Y-140541704D01*
X43719865Y-140542143D01*
X43630846Y-140569947D01*
X43553905Y-140621740D01*
X43494559Y-140694143D01*
X43458330Y-140783775D01*
X43450736Y-140887259D01*
X43382064Y-140887259D01*
X43378848Y-140867081D01*
X43390622Y-140757447D01*
X43408511Y-140706664D01*
X43465730Y-140615672D01*
X43545020Y-140545112D01*
X43639869Y-140497715D01*
X43743764Y-140476212D01*
X43850190Y-140483335D01*
X43952635Y-140521812D01*
X44039237Y-140570333D01*
X44113395Y-140527950D01*
X44211459Y-140484715D01*
X44310730Y-140471320D01*
X44416254Y-140489097D01*
X44514855Y-140532634D01*
X44598749Y-140603109D01*
X44657404Y-140693753D01*
X44688897Y-140800236D01*
X44689724Y-140840799D01*
X44691304Y-140918230D01*
G37*
G36*
X136271654Y-93509549D02*
G01*
X137077192Y-93663717D01*
X137686805Y-93959707D01*
X137928278Y-94322141D01*
X137837122Y-94416041D01*
X137347942Y-94535949D01*
X136577214Y-94582846D01*
X136264715Y-94580534D01*
X135599207Y-94528236D01*
X135297283Y-94366570D01*
X135226151Y-94042421D01*
X135236872Y-93886337D01*
X135453281Y-93582935D01*
X136054553Y-93501995D01*
X136271654Y-93509549D01*
G37*
G36*
X149863916Y-96651322D02*
G01*
X150039537Y-96843351D01*
X150336999Y-97597460D01*
X150239745Y-98397496D01*
X149757516Y-99026035D01*
X149458967Y-99194982D01*
X148463343Y-99428291D01*
X147405633Y-99332158D01*
X146537469Y-98915240D01*
X145899555Y-98383805D01*
X147115512Y-98370677D01*
X147942758Y-98325674D01*
X148639887Y-98128627D01*
X148949788Y-97721182D01*
X148953757Y-97044697D01*
X148933889Y-96885793D01*
X148984262Y-96333698D01*
X149294335Y-96255514D01*
X149863916Y-96651322D01*
G37*
G36*
X171093965Y-93558182D02*
G01*
X172094983Y-93611549D01*
X172784987Y-93705326D01*
X173142161Y-93862279D01*
X173275480Y-94109974D01*
X173287680Y-94200915D01*
X173218288Y-94402293D01*
X172911971Y-94517837D01*
X172267653Y-94570403D01*
X171184262Y-94582846D01*
X170546037Y-94580410D01*
X169708052Y-94551981D01*
X169243862Y-94469247D01*
X169044937Y-94304755D01*
X169002746Y-94031054D01*
X169009862Y-93879757D01*
X169109831Y-93664530D01*
X169416559Y-93555913D01*
X170040964Y-93528824D01*
X171093965Y-93558182D01*
G37*
G36*
X139841680Y-98367743D02*
G01*
X140911171Y-98393768D01*
X141565041Y-98460788D01*
X141892177Y-98582135D01*
X141981470Y-98771144D01*
X141968682Y-98855495D01*
X141795182Y-99015919D01*
X141348384Y-99113999D01*
X140539400Y-99163069D01*
X139279342Y-99176463D01*
X138717004Y-99174545D01*
X137647513Y-99148520D01*
X136993643Y-99081500D01*
X136666507Y-98960153D01*
X136577214Y-98771144D01*
X136590002Y-98686793D01*
X136763503Y-98526370D01*
X137210300Y-98428289D01*
X138019284Y-98379219D01*
X139279342Y-98365825D01*
X139841680Y-98367743D01*
G37*
G36*
X154776148Y-69425294D02*
G01*
X156127011Y-69479502D01*
X157287050Y-69573270D01*
X158142665Y-69706147D01*
X158580254Y-69877679D01*
X158849637Y-70282445D01*
X159010348Y-71103591D01*
X158856721Y-71936513D01*
X158404324Y-72545184D01*
X158063388Y-72712412D01*
X157515702Y-72835211D01*
X156686877Y-72913077D01*
X155490621Y-72953964D01*
X153840643Y-72965825D01*
X152804381Y-72963062D01*
X151507247Y-72942435D01*
X150598571Y-72892958D01*
X149984501Y-72804454D01*
X149571185Y-72666746D01*
X149264770Y-72469658D01*
X149066568Y-72266180D01*
X148722521Y-71488800D01*
X148700154Y-70596421D01*
X149022548Y-69839646D01*
X149135514Y-69763476D01*
X149736481Y-69613103D01*
X150714628Y-69504550D01*
X151956356Y-69437366D01*
X153348063Y-69411098D01*
X154776148Y-69425294D01*
G37*
G36*
X212924471Y-69463214D02*
G01*
X214250954Y-69512104D01*
X215175808Y-69624770D01*
X215770586Y-69826224D01*
X216106840Y-70141476D01*
X216256120Y-70595538D01*
X216289980Y-71213421D01*
X216175968Y-71937341D01*
X215689431Y-72545184D01*
X215358984Y-72708907D01*
X214815081Y-72833363D01*
X213991014Y-72912311D01*
X212800170Y-72953786D01*
X211155938Y-72965825D01*
X209726820Y-72956573D01*
X208303127Y-72903579D01*
X207295239Y-72780400D01*
X206633163Y-72561171D01*
X206246909Y-72220025D01*
X206066483Y-71731097D01*
X206021895Y-71068521D01*
X206024798Y-70888557D01*
X206162093Y-70138426D01*
X206544557Y-69732779D01*
X206669951Y-69689975D01*
X207315945Y-69595218D01*
X208361833Y-69520194D01*
X209707787Y-69470831D01*
X211253979Y-69453059D01*
X212924471Y-69463214D01*
G37*
G36*
X155050059Y-53787380D02*
G01*
X156545945Y-53835085D01*
X157615140Y-53948876D01*
X158326638Y-54152163D01*
X158749431Y-54468359D01*
X158952512Y-54920875D01*
X159004874Y-55533123D01*
X159004774Y-55553019D01*
X158877079Y-56310905D01*
X158580254Y-56868865D01*
X158453741Y-56945988D01*
X157825766Y-57101251D01*
X156827738Y-57217668D01*
X155573258Y-57294785D01*
X154175928Y-57332152D01*
X152749348Y-57329315D01*
X151407119Y-57285823D01*
X150262842Y-57201225D01*
X149430118Y-57075067D01*
X149022548Y-56906897D01*
X148865289Y-56665810D01*
X148669693Y-55831336D01*
X148810547Y-54951492D01*
X149264770Y-54276885D01*
X149446530Y-54147577D01*
X149807898Y-53988371D01*
X150334141Y-53882258D01*
X151119111Y-53819063D01*
X152256661Y-53788609D01*
X153840643Y-53780719D01*
X155050059Y-53787380D01*
G37*
G36*
X189328689Y-69453065D02*
G01*
X191100496Y-69465037D01*
X192405092Y-69516305D01*
X193313415Y-69631194D01*
X193896405Y-69834027D01*
X194224998Y-70149127D01*
X194370132Y-70600817D01*
X194402746Y-71213421D01*
X194288734Y-71937341D01*
X193802197Y-72545184D01*
X193471750Y-72708907D01*
X192927847Y-72833363D01*
X192103780Y-72912311D01*
X190912936Y-72953786D01*
X189268704Y-72965825D01*
X188114192Y-72959703D01*
X186610175Y-72912880D01*
X185534639Y-72799830D01*
X184818451Y-72596955D01*
X184392480Y-72280660D01*
X184187594Y-71827348D01*
X184134661Y-71213421D01*
X184134679Y-71192853D01*
X184169593Y-70585335D01*
X184319117Y-70138015D01*
X184654187Y-69826569D01*
X185245743Y-69626674D01*
X186164723Y-69514006D01*
X187482064Y-69464242D01*
X189268704Y-69453059D01*
X189328689Y-69453065D01*
G37*
G36*
X208871412Y-59578011D02*
G01*
X209360914Y-60215781D01*
X209494024Y-60987561D01*
X209114020Y-61826978D01*
X209028844Y-61943996D01*
X208885682Y-62087552D01*
X208669830Y-62199447D01*
X208322821Y-62283625D01*
X207786188Y-62344030D01*
X207001464Y-62384608D01*
X205910182Y-62409302D01*
X204453876Y-62422057D01*
X202574077Y-62426817D01*
X200212321Y-62427527D01*
X198559603Y-62427300D01*
X196530171Y-62424282D01*
X194943158Y-62414547D01*
X193740099Y-62394150D01*
X192862527Y-62359147D01*
X192251974Y-62305593D01*
X191849974Y-62229543D01*
X191598060Y-62127054D01*
X191437765Y-61994180D01*
X191310622Y-61826978D01*
X190963994Y-61140305D01*
X190998022Y-60362729D01*
X191553230Y-59578011D01*
X192216479Y-58914761D01*
X200212321Y-58914761D01*
X208208162Y-58914761D01*
X208871412Y-59578011D01*
G37*
G36*
X208994274Y-53789021D02*
G01*
X210440866Y-53840196D01*
X211467996Y-53960296D01*
X212145429Y-54174497D01*
X212542932Y-54507978D01*
X212730271Y-54985916D01*
X212777214Y-55633488D01*
X212774593Y-55764561D01*
X212667779Y-56498987D01*
X212452959Y-56969229D01*
X212402753Y-57006445D01*
X211934464Y-57135348D01*
X211023283Y-57224678D01*
X209637032Y-57276652D01*
X207743537Y-57293485D01*
X207493368Y-57293377D01*
X205749093Y-57279552D01*
X204466100Y-57225929D01*
X203574068Y-57108859D01*
X203002676Y-56904693D01*
X202681603Y-56589781D01*
X202540527Y-56140474D01*
X202509129Y-55533123D01*
X202527065Y-55139053D01*
X202664243Y-54625687D01*
X202995448Y-54258573D01*
X203589811Y-54014117D01*
X204516465Y-53868720D01*
X205844542Y-53798786D01*
X207643172Y-53780719D01*
X208994274Y-53789021D01*
G37*
G36*
X238304651Y-64321687D02*
G01*
X239724988Y-64341467D01*
X240732213Y-64386514D01*
X241406403Y-64463865D01*
X241827639Y-64580560D01*
X242075999Y-64743637D01*
X242114840Y-64784203D01*
X242468612Y-65519316D01*
X242441136Y-66373717D01*
X242076744Y-67150798D01*
X241419768Y-67653953D01*
X241314398Y-67676447D01*
X240721231Y-67721830D01*
X239739058Y-67751261D01*
X238475381Y-67762321D01*
X237037702Y-67752590D01*
X235873701Y-67730505D01*
X234431280Y-67666570D01*
X233413506Y-67543905D01*
X232749607Y-67336107D01*
X232368807Y-67016772D01*
X232200332Y-66559498D01*
X232173408Y-65937879D01*
X232177282Y-65817983D01*
X232227483Y-65280738D01*
X232380828Y-64889961D01*
X232710189Y-64622394D01*
X233288439Y-64454777D01*
X234188451Y-64363848D01*
X235483099Y-64326348D01*
X237245255Y-64319017D01*
X238304651Y-64321687D01*
G37*
G36*
X164623647Y-43512719D02*
G01*
X166483155Y-43515712D01*
X167893907Y-43527428D01*
X168923926Y-43553799D01*
X169641234Y-43600760D01*
X170113855Y-43674245D01*
X170409808Y-43780188D01*
X170597119Y-43924523D01*
X170743807Y-44113183D01*
X171064614Y-44758840D01*
X171095494Y-45675515D01*
X170624023Y-46484974D01*
X170483464Y-46612698D01*
X170244693Y-46757204D01*
X169895575Y-46863468D01*
X169364432Y-46937325D01*
X168579585Y-46984611D01*
X167469358Y-47011162D01*
X165962071Y-47022813D01*
X163986046Y-47025400D01*
X163440661Y-47024478D01*
X161587708Y-47006505D01*
X159982890Y-46967847D01*
X158699263Y-46911472D01*
X157809880Y-46840345D01*
X157387797Y-46757434D01*
X157103830Y-46531568D01*
X156744465Y-45830987D01*
X156684811Y-44974198D01*
X156960626Y-44177184D01*
X157396056Y-43512634D01*
X163859611Y-43512634D01*
X164623647Y-43512719D01*
G37*
G36*
X165428278Y-79722282D02*
G01*
X167067075Y-79730636D01*
X168287559Y-79752161D01*
X169161408Y-79792690D01*
X169760301Y-79858060D01*
X170155915Y-79954106D01*
X170419930Y-80086664D01*
X170624023Y-80261570D01*
X171005075Y-80808804D01*
X171127460Y-81703986D01*
X170743807Y-82633361D01*
X170693170Y-82704344D01*
X170540073Y-82876922D01*
X170322706Y-83007237D01*
X169973049Y-83101223D01*
X169423078Y-83164815D01*
X168604771Y-83203945D01*
X167450105Y-83224548D01*
X165891059Y-83232559D01*
X163859611Y-83233910D01*
X157396056Y-83233910D01*
X156960626Y-82569360D01*
X156777209Y-82187871D01*
X156675242Y-81333681D01*
X156890690Y-80528766D01*
X157387797Y-79989110D01*
X157453414Y-79965218D01*
X158011779Y-79885263D01*
X159017280Y-79817911D01*
X160396861Y-79766130D01*
X162077468Y-79732885D01*
X163986046Y-79721144D01*
X165428278Y-79722282D01*
G37*
G36*
X175968000Y-58964058D02*
G01*
X176065435Y-58966080D01*
X177641079Y-59005125D01*
X178767378Y-59053604D01*
X179530833Y-59123144D01*
X180017943Y-59225371D01*
X180315211Y-59371909D01*
X180509135Y-59574386D01*
X180540705Y-59619276D01*
X180847621Y-60433811D01*
X180821801Y-61310825D01*
X180467488Y-62002907D01*
X180349047Y-62078187D01*
X179724776Y-62240262D01*
X178727761Y-62359999D01*
X177471937Y-62437341D01*
X176071237Y-62472228D01*
X174639595Y-62464603D01*
X173290945Y-62414407D01*
X172139221Y-62321581D01*
X171298357Y-62186068D01*
X170882286Y-62007810D01*
X170749652Y-61815199D01*
X170530224Y-60982967D01*
X170679787Y-60096642D01*
X171171894Y-59394822D01*
X171191536Y-59379047D01*
X171484283Y-59185650D01*
X171855180Y-59053009D01*
X172396614Y-58972827D01*
X173200971Y-58936807D01*
X174360638Y-58936649D01*
X175968000Y-58964058D01*
G37*
G36*
X235266639Y-58926187D02*
G01*
X236808953Y-58966382D01*
X237917937Y-59071390D01*
X238666470Y-59265667D01*
X239127432Y-59573668D01*
X239373702Y-60019848D01*
X239478161Y-60628662D01*
X239486715Y-60771048D01*
X239432701Y-61529856D01*
X239242415Y-62041066D01*
X239174351Y-62104453D01*
X238863942Y-62235921D01*
X238300038Y-62328277D01*
X237410970Y-62387206D01*
X236125067Y-62418394D01*
X234370657Y-62427527D01*
X233139440Y-62426005D01*
X231801478Y-62414159D01*
X230865685Y-62382616D01*
X230251037Y-62322133D01*
X229876509Y-62223467D01*
X229661079Y-62077376D01*
X229523724Y-61874616D01*
X229343114Y-61256172D01*
X229311557Y-60462161D01*
X229327554Y-60326770D01*
X229479022Y-59807541D01*
X229812365Y-59431270D01*
X230399071Y-59176305D01*
X231310627Y-59020994D01*
X232618519Y-58943686D01*
X234394236Y-58922728D01*
X235266639Y-58926187D01*
G37*
G36*
X174553772Y-53784293D02*
G01*
X175958058Y-53815822D01*
X177149251Y-53874659D01*
X178018260Y-53954411D01*
X178455994Y-54048684D01*
X178739960Y-54274550D01*
X179099326Y-54975131D01*
X179158980Y-55831920D01*
X178883165Y-56628934D01*
X178721546Y-56858291D01*
X178516285Y-57040582D01*
X178197934Y-57163188D01*
X177681025Y-57237946D01*
X176880091Y-57276691D01*
X175709666Y-57291259D01*
X174084283Y-57293485D01*
X172861212Y-57289920D01*
X171505174Y-57268619D01*
X170547423Y-57221313D01*
X169904239Y-57140294D01*
X169491899Y-57017854D01*
X169226683Y-56846286D01*
X169088460Y-56699130D01*
X168772718Y-55939860D01*
X168835558Y-55074062D01*
X169272959Y-54321144D01*
X169286504Y-54307692D01*
X169540800Y-54101984D01*
X169877876Y-53957728D01*
X170389250Y-53864198D01*
X171166441Y-53810670D01*
X172300965Y-53786419D01*
X173884340Y-53780719D01*
X174553772Y-53784293D01*
G37*
G36*
X175613976Y-69454969D02*
G01*
X176811118Y-69468477D01*
X177634123Y-69505231D01*
X178167910Y-69576875D01*
X178497400Y-69695056D01*
X178707512Y-69871419D01*
X178883165Y-70117609D01*
X179056223Y-70472961D01*
X179169388Y-71322152D01*
X178975291Y-72134100D01*
X178506630Y-72685786D01*
X178365723Y-72731649D01*
X177724663Y-72818727D01*
X176701273Y-72889640D01*
X175402210Y-72938047D01*
X173934129Y-72957608D01*
X173727581Y-72957969D01*
X172189951Y-72954025D01*
X171091517Y-72929983D01*
X170341441Y-72875472D01*
X169848882Y-72780119D01*
X169523001Y-72633552D01*
X169272959Y-72425400D01*
X168822820Y-71642265D01*
X168788194Y-70742814D01*
X169179732Y-69947208D01*
X169208062Y-69916825D01*
X169437108Y-69739281D01*
X169783750Y-69613304D01*
X170332542Y-69530295D01*
X171168035Y-69481652D01*
X172374781Y-69458774D01*
X174037333Y-69453059D01*
X175613976Y-69454969D01*
G37*
G36*
X194399557Y-53786708D02*
G01*
X195520157Y-53811773D01*
X196285814Y-53866832D01*
X196788725Y-53962801D01*
X197121083Y-54110599D01*
X197375087Y-54321144D01*
X197825226Y-55104278D01*
X197859851Y-56003730D01*
X197468313Y-56799336D01*
X197444458Y-56825045D01*
X197216368Y-57004346D01*
X196872194Y-57131583D01*
X196327081Y-57215435D01*
X195496176Y-57264582D01*
X194294624Y-57287706D01*
X192637570Y-57293485D01*
X192344314Y-57293371D01*
X190644348Y-57281405D01*
X189402519Y-57232982D01*
X188547169Y-57124436D01*
X188006637Y-56932102D01*
X187709263Y-56632312D01*
X187583390Y-56201401D01*
X187557356Y-55615702D01*
X187648394Y-55032027D01*
X188172752Y-54279036D01*
X188374792Y-54137265D01*
X188740122Y-53982238D01*
X189273348Y-53879071D01*
X190067571Y-53817763D01*
X191215890Y-53788313D01*
X192811405Y-53780719D01*
X192831818Y-53780719D01*
X194399557Y-53786708D01*
G37*
G36*
X241828701Y-69455076D02*
G01*
X243021192Y-69468832D01*
X243840974Y-69505866D01*
X244372660Y-69577721D01*
X244700866Y-69695936D01*
X244910205Y-69872052D01*
X245085292Y-70117609D01*
X245258350Y-70472961D01*
X245371515Y-71322152D01*
X245177418Y-72134100D01*
X244708758Y-72685786D01*
X244567851Y-72731649D01*
X243926790Y-72818727D01*
X242903401Y-72889640D01*
X241604338Y-72938047D01*
X240136257Y-72957608D01*
X239929709Y-72957969D01*
X238392078Y-72954025D01*
X237293645Y-72929983D01*
X236543568Y-72875472D01*
X236051009Y-72780119D01*
X235725129Y-72633552D01*
X235475087Y-72425400D01*
X235094034Y-71878165D01*
X234971649Y-70982983D01*
X235355302Y-70053609D01*
X235488078Y-69880237D01*
X235699790Y-69706142D01*
X236029037Y-69587149D01*
X236560395Y-69512800D01*
X237378440Y-69472640D01*
X238567751Y-69456212D01*
X240212903Y-69453059D01*
X241828701Y-69455076D01*
G37*
G36*
X153369447Y-64320423D02*
G01*
X154670738Y-64332265D01*
X155577769Y-64365201D01*
X156175522Y-64429814D01*
X156548982Y-64536690D01*
X156783132Y-64696413D01*
X156962956Y-64919566D01*
X157315933Y-65629209D01*
X157267212Y-66400090D01*
X156701424Y-67187457D01*
X156480577Y-67400616D01*
X156210466Y-67595888D01*
X155860042Y-67723599D01*
X155337305Y-67794965D01*
X154550260Y-67821202D01*
X153406906Y-67813526D01*
X151815247Y-67783154D01*
X151642968Y-67779573D01*
X150077645Y-67740420D01*
X148958744Y-67691700D01*
X148200312Y-67621963D01*
X147716393Y-67519760D01*
X147421032Y-67373642D01*
X147228272Y-67172158D01*
X146928074Y-66531934D01*
X146901908Y-65610546D01*
X147292498Y-64813166D01*
X147319316Y-64784356D01*
X147548035Y-64606220D01*
X147893839Y-64479819D01*
X148441385Y-64396527D01*
X149275325Y-64347714D01*
X150480314Y-64324753D01*
X152141006Y-64319017D01*
X153369447Y-64320423D01*
G37*
G36*
X214248062Y-75187651D02*
G01*
X214568870Y-75833308D01*
X214599749Y-76749983D01*
X214128278Y-77559442D01*
X214013202Y-77664515D01*
X213844955Y-77769952D01*
X213597925Y-77856839D01*
X213225947Y-77926968D01*
X212682858Y-77982132D01*
X211922494Y-78024125D01*
X210898689Y-78054738D01*
X209565281Y-78075766D01*
X207876104Y-78088999D01*
X205784994Y-78096232D01*
X203245788Y-78099258D01*
X200212321Y-78099868D01*
X197611357Y-78099463D01*
X194999259Y-78096926D01*
X192842346Y-78090455D01*
X191094454Y-78078259D01*
X189709418Y-78058545D01*
X188641075Y-78029520D01*
X187843261Y-77989391D01*
X187269810Y-77936366D01*
X186874559Y-77868651D01*
X186611344Y-77784454D01*
X186434000Y-77681982D01*
X186296363Y-77559442D01*
X185915311Y-77012208D01*
X185792926Y-76117026D01*
X186176579Y-75187651D01*
X186597220Y-74587102D01*
X200212321Y-74587102D01*
X213827421Y-74587102D01*
X214248062Y-75187651D01*
G37*
G36*
X231854293Y-53780824D02*
G01*
X233382611Y-53788384D01*
X234475151Y-53815241D01*
X235221824Y-53871671D01*
X235712538Y-53967947D01*
X236037202Y-54114347D01*
X236285725Y-54321144D01*
X236666778Y-54868379D01*
X236789163Y-55763561D01*
X236405509Y-56692935D01*
X236274045Y-56864817D01*
X236062683Y-57039502D01*
X235734303Y-57158906D01*
X235204225Y-57233517D01*
X234387769Y-57273825D01*
X233200254Y-57290318D01*
X231557002Y-57293485D01*
X230288657Y-57291983D01*
X228992248Y-57279911D01*
X228088632Y-57246716D01*
X227493128Y-57181910D01*
X227121057Y-57075003D01*
X226887739Y-56915508D01*
X226708494Y-56692935D01*
X226387687Y-56047278D01*
X226356807Y-55130603D01*
X226828278Y-54321144D01*
X226867442Y-54282798D01*
X227122261Y-54086571D01*
X227467910Y-53949063D01*
X227994301Y-53860000D01*
X228791340Y-53809104D01*
X229948937Y-53786103D01*
X231557002Y-53780719D01*
X231854293Y-53780824D01*
G37*
G36*
X165111759Y-59592827D02*
G01*
X165329388Y-59824764D01*
X165659558Y-60396633D01*
X165629244Y-61020996D01*
X165442129Y-61576927D01*
X165164958Y-62088250D01*
X165163708Y-62089729D01*
X164947145Y-62189657D01*
X164457792Y-62269497D01*
X163651059Y-62330969D01*
X162482353Y-62375790D01*
X160907084Y-62405678D01*
X158880660Y-62422351D01*
X156358490Y-62427527D01*
X155065627Y-62426911D01*
X152918215Y-62421055D01*
X151223913Y-62406650D01*
X149924970Y-62380832D01*
X148963638Y-62340738D01*
X148282169Y-62283504D01*
X147822813Y-62206267D01*
X147527823Y-62106162D01*
X147339449Y-61980328D01*
X147336556Y-61977701D01*
X146929669Y-61278321D01*
X146890178Y-60401467D01*
X147228559Y-59574386D01*
X147242685Y-59555376D01*
X147380289Y-59411739D01*
X147590685Y-59297151D01*
X147932326Y-59207599D01*
X148463665Y-59139068D01*
X149243155Y-59087545D01*
X150329250Y-59049016D01*
X151780402Y-59019466D01*
X153655065Y-58994882D01*
X156011691Y-58971250D01*
X164411565Y-58892632D01*
X165111759Y-59592827D01*
G37*
G36*
X200557239Y-43512716D02*
G01*
X202582771Y-43518416D01*
X204142348Y-43535888D01*
X205300760Y-43569058D01*
X206122797Y-43621853D01*
X206673249Y-43698199D01*
X207016904Y-43802024D01*
X207218552Y-43937254D01*
X207384267Y-44154583D01*
X207615939Y-44934430D01*
X207552432Y-45811942D01*
X207195973Y-46531250D01*
X207073559Y-46646733D01*
X206840183Y-46776166D01*
X206473075Y-46872439D01*
X205904456Y-46940381D01*
X205066545Y-46984819D01*
X203891564Y-47010583D01*
X202311732Y-47022500D01*
X200259271Y-47025400D01*
X198420487Y-47022659D01*
X196615304Y-47004100D01*
X195242911Y-46955579D01*
X194244101Y-46863009D01*
X193559663Y-46712306D01*
X193130390Y-46489383D01*
X192897073Y-46180154D01*
X192800502Y-45770534D01*
X192781470Y-45246438D01*
X192793428Y-44769675D01*
X192870029Y-44361738D01*
X193070766Y-44053211D01*
X193455108Y-43830219D01*
X194082525Y-43678887D01*
X195012485Y-43585337D01*
X196304458Y-43535696D01*
X198017914Y-43516087D01*
X200212321Y-43512634D01*
X200557239Y-43512716D01*
G37*
G36*
X172313364Y-64319304D02*
G01*
X174567832Y-64324395D01*
X176356896Y-64337891D01*
X177736799Y-64362438D01*
X178763788Y-64400685D01*
X179494106Y-64455281D01*
X179983999Y-64528873D01*
X180289711Y-64624109D01*
X180467488Y-64743637D01*
X180516983Y-64795992D01*
X180861930Y-65534040D01*
X180829269Y-66387471D01*
X180464033Y-67157230D01*
X179811257Y-67644260D01*
X179774444Y-67652721D01*
X179299005Y-67689969D01*
X178370912Y-67724454D01*
X177062053Y-67754761D01*
X175444318Y-67779475D01*
X173589593Y-67797182D01*
X171569768Y-67806466D01*
X169543565Y-67809189D01*
X167479167Y-67801218D01*
X165856714Y-67771410D01*
X164621725Y-67709844D01*
X163719718Y-67606596D01*
X163096211Y-67451746D01*
X162696723Y-67235371D01*
X162466770Y-66947550D01*
X162351871Y-66578361D01*
X162297545Y-66117882D01*
X162278741Y-65897985D01*
X162254691Y-65459158D01*
X162300260Y-65110182D01*
X162467760Y-64840773D01*
X162809502Y-64640649D01*
X163377796Y-64499526D01*
X164224955Y-64407121D01*
X165403288Y-64353150D01*
X166965107Y-64327332D01*
X168962723Y-64319381D01*
X171448446Y-64319017D01*
X172313364Y-64319304D01*
G37*
G36*
X206212574Y-48652104D02*
G01*
X208076895Y-48670338D01*
X209550920Y-48708110D01*
X210680354Y-48772340D01*
X211510904Y-48869948D01*
X212088276Y-49007854D01*
X212458178Y-49192977D01*
X212666317Y-49432237D01*
X212758398Y-49732555D01*
X212780128Y-50100849D01*
X212777214Y-50544039D01*
X212672703Y-51370117D01*
X212304342Y-51867586D01*
X212051747Y-51923501D01*
X211258756Y-51989025D01*
X209963589Y-52044201D01*
X208188008Y-52088518D01*
X205953776Y-52121468D01*
X203282657Y-52142541D01*
X200196413Y-52151225D01*
X197353802Y-52150579D01*
X194926885Y-52143149D01*
X192951302Y-52127520D01*
X191381948Y-52102333D01*
X190173718Y-52066229D01*
X189281508Y-52017851D01*
X188660213Y-51955841D01*
X188264728Y-51878841D01*
X188049950Y-51785492D01*
X188028015Y-51768804D01*
X187665988Y-51188277D01*
X187555476Y-50376396D01*
X187694015Y-49568338D01*
X188079141Y-48999281D01*
X188180222Y-48948580D01*
X188529154Y-48867917D01*
X189125580Y-48801944D01*
X190011341Y-48749448D01*
X191228280Y-48709216D01*
X192818240Y-48680036D01*
X194823062Y-48660694D01*
X197284590Y-48649978D01*
X200244665Y-48646676D01*
X201130212Y-48646574D01*
X203912248Y-48646490D01*
X206212574Y-48652104D01*
G37*
G36*
X202273316Y-79722686D02*
G01*
X204495439Y-79730379D01*
X206271790Y-79746504D01*
X207655705Y-79773229D01*
X208700515Y-79812724D01*
X209459555Y-79867159D01*
X209986159Y-79938701D01*
X210333658Y-80029520D01*
X210555388Y-80141785D01*
X210806535Y-80380816D01*
X211123958Y-81125626D01*
X211095651Y-81984664D01*
X210708739Y-82739761D01*
X210595523Y-82845220D01*
X210398109Y-82953738D01*
X210087554Y-83040030D01*
X209610448Y-83106622D01*
X208913381Y-83156039D01*
X207942942Y-83190808D01*
X206645722Y-83213454D01*
X204968310Y-83226502D01*
X202857296Y-83232479D01*
X200259271Y-83233910D01*
X199715703Y-83233920D01*
X197087385Y-83232468D01*
X194941521Y-83222693D01*
X193229200Y-83196661D01*
X191901510Y-83146437D01*
X190909537Y-83064086D01*
X190204371Y-82941673D01*
X189737098Y-82771264D01*
X189458807Y-82544924D01*
X189320586Y-82254718D01*
X189273522Y-81892712D01*
X189268704Y-81450970D01*
X189277364Y-81036830D01*
X189336188Y-80682233D01*
X189494203Y-80397862D01*
X189800434Y-80175970D01*
X190303909Y-80008805D01*
X191053653Y-79888620D01*
X192098692Y-79807663D01*
X193488053Y-79758187D01*
X195270760Y-79732441D01*
X197495841Y-79722677D01*
X200212321Y-79721144D01*
X202273316Y-79722686D01*
G37*
G36*
X237432153Y-48646676D02*
G01*
X239701003Y-48647402D01*
X242342800Y-48651474D01*
X244524149Y-48660493D01*
X246291089Y-48675986D01*
X247689659Y-48699478D01*
X248765899Y-48732495D01*
X249565846Y-48776564D01*
X250135540Y-48833210D01*
X250521019Y-48903960D01*
X250768323Y-48990340D01*
X250923491Y-49093875D01*
X251086854Y-49278515D01*
X251376283Y-50046234D01*
X251338973Y-50923671D01*
X250970441Y-51665293D01*
X250940219Y-51697188D01*
X250799816Y-51806011D01*
X250584046Y-51896327D01*
X250246402Y-51969851D01*
X249740380Y-52028299D01*
X249019473Y-52073387D01*
X248037176Y-52106831D01*
X246746984Y-52130346D01*
X245102390Y-52145650D01*
X243056890Y-52154456D01*
X240563976Y-52158481D01*
X237577145Y-52159442D01*
X234266450Y-52153722D01*
X231335579Y-52136165D01*
X228883422Y-52107022D01*
X226922302Y-52066551D01*
X225464541Y-52015007D01*
X224522461Y-51952645D01*
X224108386Y-51879722D01*
X224024359Y-51829462D01*
X223686286Y-51373429D01*
X223585725Y-50547959D01*
X223580888Y-50125853D01*
X223595056Y-49769275D01*
X223671679Y-49475005D01*
X223854209Y-49237077D01*
X224186095Y-49049524D01*
X224710790Y-48906382D01*
X225471743Y-48801682D01*
X226512407Y-48729459D01*
X227876231Y-48683747D01*
X229606667Y-48658579D01*
X231747165Y-48647989D01*
X234341177Y-48646010D01*
X237432153Y-48646676D01*
G37*
G36*
X203149835Y-64320271D02*
G01*
X205743059Y-64325098D01*
X207884860Y-64334933D01*
X209620290Y-64351212D01*
X210994406Y-64375370D01*
X212052262Y-64408845D01*
X212838912Y-64453072D01*
X213399411Y-64509486D01*
X213778815Y-64579524D01*
X214022178Y-64664622D01*
X214174555Y-64766215D01*
X214549365Y-65393825D01*
X214661135Y-66209195D01*
X214461906Y-66909131D01*
X214241165Y-67141372D01*
X213722959Y-67513005D01*
X213716499Y-67516540D01*
X213392479Y-67592634D01*
X212721003Y-67654705D01*
X211674518Y-67703243D01*
X210225472Y-67738739D01*
X208346314Y-67761684D01*
X206009490Y-67772570D01*
X203187448Y-67771886D01*
X199852637Y-67760124D01*
X197657430Y-67749365D01*
X194983230Y-67734289D01*
X192771476Y-67717608D01*
X190976493Y-67697365D01*
X189552605Y-67671601D01*
X188454138Y-67638357D01*
X187635416Y-67595676D01*
X187050763Y-67541598D01*
X186654504Y-67474166D01*
X186400964Y-67391421D01*
X186244468Y-67291404D01*
X186139339Y-67172158D01*
X186107619Y-67127096D01*
X185800496Y-66312724D01*
X185826209Y-65435774D01*
X186180558Y-64743637D01*
X186272390Y-64674475D01*
X186490518Y-64588744D01*
X186850231Y-64517759D01*
X187395845Y-64460172D01*
X188171673Y-64414637D01*
X189222031Y-64379804D01*
X190591234Y-64354327D01*
X192323597Y-64336857D01*
X194463434Y-64326047D01*
X197055061Y-64320550D01*
X200142792Y-64319017D01*
X203149835Y-64320271D01*
G37*
G36*
X165496337Y-48647076D02*
G01*
X168178981Y-48650530D01*
X170393594Y-48658868D01*
X172187040Y-48673693D01*
X173606185Y-48696609D01*
X174697895Y-48729221D01*
X175509034Y-48773134D01*
X176086469Y-48829951D01*
X176477063Y-48901278D01*
X176727683Y-48988718D01*
X176885193Y-49093875D01*
X177117843Y-49394411D01*
X177352868Y-50191710D01*
X177300768Y-51058214D01*
X176954722Y-51734822D01*
X176920507Y-51765351D01*
X176742580Y-51860495D01*
X176438418Y-51939251D01*
X175962002Y-52003118D01*
X175267309Y-52053600D01*
X174308321Y-52092196D01*
X173039017Y-52120408D01*
X171413377Y-52139737D01*
X169385379Y-52151685D01*
X166909005Y-52157753D01*
X163938233Y-52159442D01*
X162232061Y-52159027D01*
X159551629Y-52155540D01*
X157338817Y-52147166D01*
X155546806Y-52132305D01*
X154128775Y-52109357D01*
X153037903Y-52076722D01*
X152227370Y-52032800D01*
X151650355Y-51975991D01*
X151260038Y-51904696D01*
X151009598Y-51817313D01*
X150852214Y-51712243D01*
X150688851Y-51527603D01*
X150399422Y-50759884D01*
X150436732Y-49882448D01*
X150805264Y-49140825D01*
X150815269Y-49129927D01*
X150949070Y-49016165D01*
X151150862Y-48921750D01*
X151467890Y-48844888D01*
X151947396Y-48783785D01*
X152636623Y-48736648D01*
X153582815Y-48701684D01*
X154833214Y-48677098D01*
X156435065Y-48661098D01*
X158435609Y-48651890D01*
X160882091Y-48647681D01*
X163821753Y-48646676D01*
X165496337Y-48647076D01*
G37*
G36*
X164862297Y-74587244D02*
G01*
X167681982Y-74590106D01*
X170021309Y-74597783D01*
X171926207Y-74611769D01*
X173442609Y-74633557D01*
X174616445Y-74664639D01*
X175493646Y-74706508D01*
X176120143Y-74760659D01*
X176541868Y-74828582D01*
X176804750Y-74911772D01*
X176954722Y-75011722D01*
X177120437Y-75229051D01*
X177352109Y-76008898D01*
X177288602Y-76886410D01*
X176932143Y-77605719D01*
X176922139Y-77616617D01*
X176788338Y-77730379D01*
X176586545Y-77824794D01*
X176269517Y-77901656D01*
X175790011Y-77962759D01*
X175100784Y-78009896D01*
X174154592Y-78044860D01*
X172904193Y-78069445D01*
X171302343Y-78085445D01*
X169301798Y-78094653D01*
X166855316Y-78098863D01*
X163915654Y-78099868D01*
X162241070Y-78099468D01*
X159558426Y-78096013D01*
X157343814Y-78087676D01*
X155550368Y-78072851D01*
X154131222Y-78049935D01*
X153039512Y-78017322D01*
X152228373Y-77973410D01*
X151650939Y-77916592D01*
X151260344Y-77845266D01*
X151009725Y-77757826D01*
X150852214Y-77652669D01*
X150688851Y-77468029D01*
X150399422Y-76700309D01*
X150436732Y-75822873D01*
X150805264Y-75081251D01*
X150819012Y-75066358D01*
X150953938Y-74953536D01*
X151158243Y-74859900D01*
X151479031Y-74783673D01*
X151963408Y-74723075D01*
X152658477Y-74676328D01*
X153611343Y-74641653D01*
X154869110Y-74617271D01*
X156478883Y-74601404D01*
X158487767Y-74592272D01*
X160942865Y-74588098D01*
X163891282Y-74587102D01*
X164862297Y-74587244D01*
G37*
G36*
X235814188Y-74587452D02*
G01*
X238595637Y-74590907D01*
X240903755Y-74599225D01*
X242783722Y-74613828D01*
X244280719Y-74636143D01*
X245439928Y-74667593D01*
X246306528Y-74709602D01*
X246925702Y-74763595D01*
X247342629Y-74830997D01*
X247602490Y-74913231D01*
X247750467Y-75011722D01*
X247916181Y-75229051D01*
X248147854Y-76008898D01*
X248084347Y-76886410D01*
X247727888Y-77605719D01*
X247696140Y-77639139D01*
X247555188Y-77747604D01*
X247338325Y-77837621D01*
X246999099Y-77910903D01*
X246491059Y-77969158D01*
X245767753Y-78014097D01*
X244782731Y-78047431D01*
X243489541Y-78070868D01*
X241841732Y-78086121D01*
X239792853Y-78094898D01*
X237296453Y-78098910D01*
X234306080Y-78099868D01*
X232068363Y-78099161D01*
X229424466Y-78095121D01*
X227241406Y-78086137D01*
X225473103Y-78070679D01*
X224073475Y-78047216D01*
X222996440Y-78014219D01*
X222195918Y-77970158D01*
X221625826Y-77913502D01*
X221240084Y-77842722D01*
X220992609Y-77756288D01*
X220837321Y-77652669D01*
X220673957Y-77468029D01*
X220384529Y-76700309D01*
X220421839Y-75822873D01*
X220790371Y-75081251D01*
X220825841Y-75044144D01*
X220968158Y-74936547D01*
X221187706Y-74847249D01*
X221530804Y-74774554D01*
X222043771Y-74716765D01*
X222772927Y-74672185D01*
X223764591Y-74639118D01*
X225065083Y-74615868D01*
X226720721Y-74600738D01*
X228777825Y-74592031D01*
X231282714Y-74588051D01*
X234281708Y-74587102D01*
X235814188Y-74587452D01*
G37*
G36*
X237210607Y-43512781D02*
G01*
X240208512Y-43515058D01*
X242725633Y-43521104D01*
X244805478Y-43532221D01*
X246491557Y-43549710D01*
X247827381Y-43574872D01*
X248856458Y-43609007D01*
X249622298Y-43653418D01*
X250168412Y-43709405D01*
X250538309Y-43778269D01*
X250775499Y-43861311D01*
X250923491Y-43959832D01*
X251217073Y-44346582D01*
X251420659Y-45156209D01*
X251284296Y-45984398D01*
X250817090Y-46604758D01*
X250669641Y-46683490D01*
X250393391Y-46765182D01*
X249969160Y-46833013D01*
X249353345Y-46888224D01*
X248502342Y-46932052D01*
X247372545Y-46965738D01*
X245920350Y-46990521D01*
X244102154Y-47007639D01*
X241874352Y-47018332D01*
X239193339Y-47023839D01*
X236015512Y-47025400D01*
X233356005Y-47024361D01*
X230591311Y-47019633D01*
X228287447Y-47009936D01*
X226400810Y-46994030D01*
X224887795Y-46970677D01*
X223704798Y-46938636D01*
X222808215Y-46896669D01*
X222154441Y-46843537D01*
X221699872Y-46778001D01*
X221400905Y-46698821D01*
X221213934Y-46604758D01*
X220962787Y-46365727D01*
X220645365Y-45620918D01*
X220673671Y-44761880D01*
X221060583Y-44006783D01*
X221174225Y-43904195D01*
X221351934Y-43812011D01*
X221631526Y-43735506D01*
X222056857Y-43673225D01*
X222671780Y-43623715D01*
X223520149Y-43585523D01*
X224645819Y-43557194D01*
X226092643Y-43537276D01*
X227904475Y-43524315D01*
X230125170Y-43516856D01*
X232798581Y-43513447D01*
X235968562Y-43512634D01*
X237210607Y-43512781D01*
G37*
G36*
X238404807Y-79722182D02*
G01*
X241169501Y-79726910D01*
X243473365Y-79736608D01*
X245360002Y-79752513D01*
X246873017Y-79775867D01*
X248056014Y-79807908D01*
X248952597Y-79849874D01*
X249606371Y-79903006D01*
X250060939Y-79968543D01*
X250359907Y-80047723D01*
X250546878Y-80141785D01*
X250798025Y-80380816D01*
X251115447Y-81125626D01*
X251087141Y-81984664D01*
X250700228Y-82739761D01*
X250586586Y-82842349D01*
X250408878Y-82934532D01*
X250129285Y-83011038D01*
X249703955Y-83073319D01*
X249089032Y-83122829D01*
X248240662Y-83161021D01*
X247114993Y-83189349D01*
X245668169Y-83209267D01*
X243856336Y-83222229D01*
X241635642Y-83229688D01*
X238962231Y-83233097D01*
X235792250Y-83233910D01*
X233703749Y-83234171D01*
X230739151Y-83233622D01*
X228248334Y-83227727D01*
X226190126Y-83211733D01*
X224523353Y-83180888D01*
X223206839Y-83130442D01*
X222199410Y-83055641D01*
X221459893Y-82951734D01*
X220947114Y-82813970D01*
X220619897Y-82637596D01*
X220437068Y-82417861D01*
X220357454Y-82150013D01*
X220339880Y-81829300D01*
X220343172Y-81450970D01*
X220342524Y-81292736D01*
X220349255Y-80948960D01*
X220400943Y-80659334D01*
X220538877Y-80419221D01*
X220804346Y-80223984D01*
X221238638Y-80068987D01*
X221883044Y-79949591D01*
X222778851Y-79861159D01*
X223967348Y-79799055D01*
X225489825Y-79758642D01*
X227387569Y-79735281D01*
X229701870Y-79724336D01*
X232474018Y-79721169D01*
X235745299Y-79721144D01*
X238404807Y-79722182D01*
G37*
G36*
X140290360Y-93556074D02*
G01*
X140430480Y-93563864D01*
X141297663Y-93655020D01*
X141758387Y-93823727D01*
X141931104Y-94109974D01*
X141938402Y-94153655D01*
X141875453Y-94426885D01*
X141507712Y-94569361D01*
X140717772Y-94631552D01*
X139414448Y-94680257D01*
X140697959Y-94781463D01*
X141082853Y-94820803D01*
X141765060Y-94991683D01*
X141981470Y-95273184D01*
X141934563Y-95454988D01*
X141576151Y-95663697D01*
X141291674Y-95830765D01*
X141170831Y-96474336D01*
X141170849Y-96484055D01*
X141242671Y-97050047D01*
X141412134Y-97284974D01*
X141543740Y-97332725D01*
X141808973Y-97690293D01*
X141827128Y-97828190D01*
X141670570Y-97964290D01*
X141225818Y-98045737D01*
X140408877Y-98085266D01*
X139135755Y-98095612D01*
X138399673Y-98092492D01*
X137353116Y-98064207D01*
X136713713Y-97996088D01*
X136394122Y-97875622D01*
X136307002Y-97690293D01*
X136474069Y-97405817D01*
X137117640Y-97284974D01*
X137470154Y-97268841D01*
X137841031Y-97092226D01*
X137928278Y-96609442D01*
X137925003Y-96452360D01*
X137826736Y-96108658D01*
X137481822Y-95963679D01*
X136743836Y-95933910D01*
X136078503Y-95902661D01*
X135618776Y-95743686D01*
X135418069Y-95393485D01*
X135378969Y-95183993D01*
X135474381Y-94966788D01*
X135873426Y-94873153D01*
X136694245Y-94853059D01*
X137124889Y-94848338D01*
X137798216Y-94778899D01*
X138175478Y-94573222D01*
X138425677Y-94164053D01*
X138603403Y-93834225D01*
X138891082Y-93605887D01*
X139400702Y-93530353D01*
X140290360Y-93556074D01*
G37*
G36*
X158082525Y-94395255D02*
G01*
X158462568Y-94992789D01*
X158736301Y-96018171D01*
X158714855Y-96672742D01*
X158700947Y-97097243D01*
X158386514Y-98090015D01*
X157823012Y-98856493D01*
X157040447Y-99256684D01*
X155977629Y-99376951D01*
X154683920Y-99399640D01*
X153425951Y-99326409D01*
X152452647Y-99162375D01*
X152181621Y-99067479D01*
X151348111Y-98457281D01*
X150806816Y-97544987D01*
X150592155Y-96470569D01*
X150610220Y-96335251D01*
X152249555Y-96335251D01*
X152250284Y-96416576D01*
X152374290Y-97341476D01*
X152674175Y-97941205D01*
X152983780Y-98190932D01*
X153409831Y-98365825D01*
X153433293Y-98301019D01*
X155771065Y-98301019D01*
X156046044Y-98344492D01*
X156554298Y-98224644D01*
X156970122Y-97662631D01*
X157113385Y-96672742D01*
X157105281Y-96391561D01*
X156955963Y-95478250D01*
X156660467Y-94829580D01*
X156273938Y-94582846D01*
X156193883Y-94682577D01*
X156418552Y-95007466D01*
X156662194Y-95462273D01*
X156804226Y-96187637D01*
X156818888Y-96262519D01*
X156817330Y-97101885D01*
X156636375Y-97717330D01*
X156518555Y-97853403D01*
X156032533Y-98168869D01*
X156017826Y-98174482D01*
X155771065Y-98301019D01*
X153433293Y-98301019D01*
X153454055Y-98243673D01*
X153120317Y-97945184D01*
X152872291Y-97733843D01*
X152595743Y-97201940D01*
X152530477Y-96461373D01*
X154141044Y-96461373D01*
X154203652Y-96936037D01*
X154490201Y-97355198D01*
X154891895Y-97346742D01*
X155278036Y-96864347D01*
X155341965Y-96716660D01*
X155436815Y-96187637D01*
X155160640Y-95756849D01*
X155088652Y-95689089D01*
X154607577Y-95479089D01*
X154269021Y-95752193D01*
X154141044Y-96461373D01*
X152530477Y-96461373D01*
X152519768Y-96339854D01*
X152522098Y-96111329D01*
X152607888Y-95406147D01*
X152899586Y-94977524D01*
X153508607Y-94727509D01*
X154546363Y-94558152D01*
X155897427Y-94388724D01*
X154674041Y-94350679D01*
X153785264Y-94387907D01*
X152899979Y-94692824D01*
X152404132Y-95328795D01*
X152249555Y-96335251D01*
X150610220Y-96335251D01*
X150738548Y-95374001D01*
X151280414Y-94395255D01*
X151402039Y-94255886D01*
X151709635Y-93960549D01*
X152069288Y-93778218D01*
X152603086Y-93681676D01*
X153433117Y-93643709D01*
X154681470Y-93637102D01*
X155187207Y-93637583D01*
X156270750Y-93652354D01*
X156979965Y-93708291D01*
X157436940Y-93832610D01*
X157763764Y-94052526D01*
X158076451Y-94388724D01*
X158082525Y-94395255D01*
G37*
G36*
X184130523Y-96406782D02*
G01*
X184058716Y-97085202D01*
X183684878Y-97703939D01*
X182895673Y-98083849D01*
X182505335Y-98208909D01*
X182373288Y-98305290D01*
X182716044Y-98342600D01*
X182927742Y-98331262D01*
X183654618Y-97997170D01*
X184193872Y-97321903D01*
X184404874Y-96462053D01*
X184337412Y-95919512D01*
X183864730Y-95069020D01*
X183004452Y-94512285D01*
X181832371Y-94312634D01*
X180759502Y-94377606D01*
X180024889Y-94632476D01*
X179647583Y-95139911D01*
X179541044Y-95962211D01*
X179540770Y-96065514D01*
X179497537Y-96706671D01*
X179322597Y-96961218D01*
X178933065Y-96966002D01*
X178873697Y-96956654D01*
X178517910Y-96802166D01*
X178332873Y-96403075D01*
X178243362Y-95611659D01*
X178230011Y-95199773D01*
X178338517Y-94444933D01*
X178698785Y-93940452D01*
X179380848Y-93647657D01*
X180454736Y-93527877D01*
X181990483Y-93542437D01*
X183016875Y-93589225D01*
X183846395Y-93666573D01*
X184381720Y-93802307D01*
X184756399Y-94033008D01*
X185103983Y-94395255D01*
X185483886Y-94992690D01*
X185757586Y-96018114D01*
X185722207Y-97097218D01*
X185407761Y-98090009D01*
X184844262Y-98856495D01*
X184061724Y-99256684D01*
X183265733Y-99348064D01*
X182144801Y-99398227D01*
X180924137Y-99403832D01*
X179816436Y-99363985D01*
X179034395Y-99277793D01*
X178396555Y-99049449D01*
X178191178Y-98740654D01*
X178466130Y-98465985D01*
X179203278Y-98327480D01*
X180216576Y-98289136D01*
X179156847Y-98124821D01*
X178946570Y-98085968D01*
X178301012Y-97875723D01*
X177985925Y-97622740D01*
X178002317Y-97507122D01*
X178307214Y-97376772D01*
X179015127Y-97306190D01*
X180194058Y-97284974D01*
X180292545Y-97284814D01*
X181496637Y-97247587D01*
X182251771Y-97148905D01*
X182513385Y-96994352D01*
X182477242Y-96917719D01*
X182053899Y-96788988D01*
X181229874Y-96784055D01*
X180707408Y-96810832D01*
X180180972Y-96771818D01*
X179948976Y-96563915D01*
X179859285Y-96112592D01*
X179842174Y-95691196D01*
X179851572Y-95663697D01*
X181297427Y-95663697D01*
X181368266Y-95849865D01*
X181837853Y-95933910D01*
X182281361Y-95862904D01*
X182378278Y-95663697D01*
X182291103Y-95564796D01*
X181837853Y-95393485D01*
X181689524Y-95412335D01*
X181297427Y-95663697D01*
X179851572Y-95663697D01*
X180062696Y-95045919D01*
X180675805Y-94691233D01*
X181735832Y-94582846D01*
X182190114Y-94603510D01*
X183252363Y-94891080D01*
X183908991Y-95499654D01*
X183949052Y-95663697D01*
X184130523Y-96406782D01*
G37*
G36*
X177096452Y-96088101D02*
G01*
X176822388Y-96805932D01*
X176775990Y-96975238D01*
X176515938Y-97851177D01*
X176281847Y-98544708D01*
X176271201Y-98572558D01*
X176126701Y-98868842D01*
X175896741Y-99047678D01*
X175467688Y-99133024D01*
X174725907Y-99148840D01*
X173557767Y-99119087D01*
X171081618Y-99041357D01*
X170490264Y-97454753D01*
X170175282Y-96712458D01*
X169778345Y-95992390D01*
X169450828Y-95617390D01*
X169308230Y-95530328D01*
X169018707Y-95190480D01*
X169228765Y-94946517D01*
X169905885Y-94853059D01*
X170039962Y-94854067D01*
X170489451Y-94910171D01*
X170807593Y-95134623D01*
X171099319Y-95640752D01*
X171469560Y-96541889D01*
X172130096Y-98230719D01*
X173538762Y-98312393D01*
X173910368Y-98330984D01*
X174569497Y-98319178D01*
X174866091Y-98190140D01*
X174926095Y-97907074D01*
X174886523Y-97672337D01*
X174768470Y-97757846D01*
X174720636Y-97825940D01*
X174259077Y-98020821D01*
X173476240Y-98095612D01*
X173297718Y-98095351D01*
X172718949Y-98058078D01*
X172358028Y-97873454D01*
X172078116Y-97422289D01*
X171742375Y-96585397D01*
X171484323Y-95899306D01*
X171253418Y-95255635D01*
X171164448Y-94964121D01*
X171220007Y-94930998D01*
X171654930Y-94875139D01*
X172380406Y-94853059D01*
X172875301Y-94873784D01*
X173460889Y-95016269D01*
X173563517Y-95271521D01*
X173156107Y-95613011D01*
X173018516Y-95703325D01*
X172849176Y-96037212D01*
X172984325Y-96639736D01*
X173252800Y-97420080D01*
X173396265Y-96877380D01*
X175010201Y-96877380D01*
X175036931Y-97194336D01*
X175167738Y-97072811D01*
X175333445Y-96590141D01*
X175425079Y-96071291D01*
X175398349Y-95754335D01*
X175267541Y-95875860D01*
X175101834Y-96358530D01*
X175010201Y-96877380D01*
X173396265Y-96877380D01*
X173574244Y-96204123D01*
X173830200Y-95232357D01*
X174077584Y-94406451D01*
X174323527Y-93928328D01*
X174653957Y-93703632D01*
X175154802Y-93638008D01*
X175911989Y-93637102D01*
X176273843Y-93639897D01*
X177047396Y-93692176D01*
X177447555Y-93837295D01*
X177598114Y-94109974D01*
X177585152Y-94380231D01*
X177294252Y-94541707D01*
X176588517Y-94582846D01*
X176025788Y-94606184D01*
X175607972Y-94744426D01*
X175509185Y-95055719D01*
X175547852Y-95285607D01*
X175666809Y-95190825D01*
X175916952Y-95007276D01*
X176480839Y-94884618D01*
X177141424Y-94860838D01*
X177690477Y-94941396D01*
X177919768Y-95131752D01*
X177873600Y-95278692D01*
X177517382Y-95564856D01*
X177422838Y-95624508D01*
X177108287Y-96071291D01*
X177096452Y-96088101D01*
G37*
G36*
X149967266Y-94490153D02*
G01*
X149508784Y-94619644D01*
X149156205Y-94642413D01*
X149055788Y-94683048D01*
X149103742Y-94693281D01*
X149479874Y-94773544D01*
X149855015Y-94939239D01*
X150088461Y-95344725D01*
X150026863Y-95566368D01*
X149752467Y-95706503D01*
X149156209Y-95764027D01*
X148129419Y-95762092D01*
X147856682Y-95758118D01*
X147168559Y-95764404D01*
X146901245Y-95797362D01*
X147114427Y-95851723D01*
X147166896Y-95858943D01*
X148113174Y-96110302D01*
X148599189Y-96560568D01*
X148673573Y-97183732D01*
X148682897Y-97261845D01*
X148651728Y-97467761D01*
X148489618Y-97799436D01*
X148084909Y-97963689D01*
X147288688Y-98044068D01*
X146551463Y-98124449D01*
X146051058Y-98311657D01*
X145838556Y-98652047D01*
X145780810Y-98813337D01*
X145540026Y-99042203D01*
X145028310Y-99149681D01*
X144111657Y-99176463D01*
X143467456Y-99160286D01*
X142751742Y-99052763D01*
X142518206Y-98838697D01*
X142484401Y-98521301D01*
X142351584Y-97892953D01*
X142312616Y-97452349D01*
X142585821Y-97284974D01*
X142807153Y-97188299D01*
X142899584Y-96790489D01*
X142890968Y-96624644D01*
X144184298Y-96624644D01*
X144214229Y-97573340D01*
X144240481Y-97779589D01*
X144299039Y-98079763D01*
X144338344Y-97895837D01*
X144370141Y-97199657D01*
X144373489Y-97118500D01*
X146208088Y-97118500D01*
X146248717Y-97203089D01*
X146710193Y-97232296D01*
X146794105Y-97230514D01*
X147153009Y-97183732D01*
X147042816Y-97097719D01*
X146768601Y-97054278D01*
X146232178Y-97107731D01*
X146208088Y-97118500D01*
X144373489Y-97118500D01*
X144376579Y-97043577D01*
X144543016Y-95846905D01*
X144893223Y-95106591D01*
X145413672Y-94853059D01*
X145622615Y-94828683D01*
X145694741Y-94693281D01*
X145467337Y-94575430D01*
X144989627Y-94696346D01*
X144538281Y-95131153D01*
X144266861Y-95764633D01*
X144184298Y-96624644D01*
X142890968Y-96624644D01*
X142857338Y-95977286D01*
X142828667Y-95647084D01*
X142833327Y-94952042D01*
X143025174Y-94502852D01*
X143112328Y-94421844D01*
X146565973Y-94421844D01*
X146623910Y-94491984D01*
X147115512Y-94520156D01*
X147298847Y-94517543D01*
X147672482Y-94474902D01*
X147588385Y-94396582D01*
X147327961Y-94354558D01*
X146642640Y-94396582D01*
X146565973Y-94421844D01*
X143112328Y-94421844D01*
X143473869Y-94085797D01*
X143775095Y-93874373D01*
X144216891Y-93680279D01*
X144820352Y-93567375D01*
X145711623Y-93514876D01*
X147016846Y-93501995D01*
X147891442Y-93507671D01*
X148886645Y-93531047D01*
X149566165Y-93568335D01*
X149817640Y-93615002D01*
X149838587Y-93724679D01*
X149981656Y-94155427D01*
X149967922Y-94474902D01*
X149967266Y-94490153D01*
G37*
G36*
X131607188Y-92804363D02*
G01*
X131592381Y-93138598D01*
X131134316Y-93258255D01*
X131114058Y-93259321D01*
X131054240Y-93321698D01*
X131443386Y-93450949D01*
X132203301Y-93620571D01*
X132936221Y-93784804D01*
X134006423Y-94178891D01*
X134583528Y-94676123D01*
X134665642Y-94746872D01*
X134998857Y-95581600D01*
X135081328Y-96650058D01*
X135091044Y-96775928D01*
X135085132Y-97280546D01*
X135013732Y-98058127D01*
X134820135Y-98550341D01*
X134453130Y-98930125D01*
X133907838Y-99262273D01*
X132910218Y-99487367D01*
X131917317Y-99345759D01*
X131084218Y-98870742D01*
X130688832Y-98279337D01*
X130767640Y-98279337D01*
X131713385Y-98314364D01*
X132276706Y-98308887D01*
X133067997Y-98100824D01*
X133484010Y-97571382D01*
X133604874Y-96650058D01*
X133511912Y-95766471D01*
X133189955Y-95090452D01*
X132672640Y-94861276D01*
X132599086Y-94925653D01*
X132861789Y-95144916D01*
X132946239Y-95208524D01*
X133229096Y-95742863D01*
X133339689Y-96505543D01*
X133337189Y-96531127D01*
X133265950Y-97260141D01*
X132995810Y-97770236D01*
X132970827Y-97789452D01*
X132450055Y-98011107D01*
X131712300Y-98165397D01*
X130767640Y-98279337D01*
X130688832Y-98279337D01*
X130566002Y-98095612D01*
X130557208Y-98070945D01*
X130408469Y-97982659D01*
X130231237Y-98433378D01*
X130206663Y-98523689D01*
X130058514Y-98889287D01*
X129784535Y-99084389D01*
X129246563Y-99162335D01*
X128306432Y-99176463D01*
X127950988Y-99174047D01*
X127121578Y-99126542D01*
X126698055Y-99000149D01*
X126579342Y-98771144D01*
X126602487Y-98650562D01*
X126937097Y-98418166D01*
X127727746Y-98318617D01*
X128876151Y-98271409D01*
X127727746Y-98167974D01*
X127594538Y-98154629D01*
X126830983Y-97978791D01*
X126579342Y-97674756D01*
X126607264Y-97502710D01*
X126849555Y-97284974D01*
X126919827Y-97208843D01*
X127026255Y-96691212D01*
X127037156Y-96541889D01*
X130411080Y-96541889D01*
X130578945Y-96919253D01*
X131024896Y-97218464D01*
X131527960Y-97233966D01*
X131873643Y-96911546D01*
X131945496Y-96531127D01*
X131689729Y-96091326D01*
X131003112Y-95933910D01*
X130842436Y-95938160D01*
X130449506Y-96084412D01*
X130411080Y-96541889D01*
X127037156Y-96541889D01*
X127095227Y-95746433D01*
X127112109Y-94853059D01*
X128741044Y-94853059D01*
X128743173Y-94918804D01*
X128808597Y-95076633D01*
X129069035Y-95030859D01*
X129726806Y-94949914D01*
X130632533Y-94853059D01*
X132388916Y-94676123D01*
X130564980Y-94629485D01*
X129671905Y-94637276D01*
X128992009Y-94715247D01*
X128741044Y-94853059D01*
X127112109Y-94853059D01*
X127119768Y-94447740D01*
X127119768Y-92556251D01*
X128741044Y-92556251D01*
X128876151Y-92691357D01*
X129011257Y-92556251D01*
X128876151Y-92421144D01*
X128741044Y-92556251D01*
X127119768Y-92556251D01*
X127119768Y-91610506D01*
X129281470Y-91610506D01*
X130088317Y-91619731D01*
X130900449Y-91675164D01*
X131322350Y-91794560D01*
X131443172Y-91993725D01*
X131458591Y-92195657D01*
X131546619Y-92556251D01*
X131607188Y-92804363D01*
G37*
G36*
X193472803Y-93046071D02*
G01*
X193395186Y-93553400D01*
X193341773Y-94416013D01*
X193321895Y-95516245D01*
X193321895Y-95646577D01*
X193321895Y-98070920D01*
X191497959Y-98165449D01*
X191277524Y-98177924D01*
X190872321Y-98218169D01*
X191002016Y-98254392D01*
X191662339Y-98286124D01*
X192849023Y-98312901D01*
X194150317Y-98343215D01*
X195097565Y-98394403D01*
X195668931Y-98477505D01*
X195949417Y-98605312D01*
X196024023Y-98790612D01*
X195988357Y-98925896D01*
X195801476Y-99047487D01*
X195384234Y-99122071D01*
X194659218Y-99156107D01*
X193549016Y-99156057D01*
X191976215Y-99128378D01*
X191113372Y-99109189D01*
X189791766Y-99070611D01*
X188866604Y-99017260D01*
X188242780Y-98933350D01*
X187825184Y-98803098D01*
X187518707Y-98610720D01*
X187228242Y-98340434D01*
X186940066Y-98004554D01*
X186403602Y-96947829D01*
X186174261Y-95745933D01*
X186187985Y-95528591D01*
X187917640Y-95528591D01*
X187945489Y-96273593D01*
X188108596Y-97034469D01*
X188458065Y-97555187D01*
X188910884Y-97917133D01*
X189336257Y-98087395D01*
X189423685Y-98004816D01*
X189133597Y-97772723D01*
X188758672Y-97531312D01*
X188400456Y-97116433D01*
X188234495Y-96495581D01*
X188197272Y-95626269D01*
X189849420Y-95626269D01*
X189914966Y-96402721D01*
X190095916Y-96899625D01*
X190420118Y-97132251D01*
X191058173Y-97284974D01*
X191064978Y-97284970D01*
X191417120Y-97245114D01*
X191607530Y-97042695D01*
X191685574Y-96551814D01*
X191700619Y-95646577D01*
X191700619Y-94008180D01*
X190822427Y-94092854D01*
X190572973Y-94120776D01*
X190141420Y-94257211D01*
X189945034Y-94611916D01*
X189860170Y-95345901D01*
X189849420Y-95626269D01*
X188197272Y-95626269D01*
X188191990Y-95502917D01*
X188192227Y-95413582D01*
X188327967Y-94324354D01*
X188755552Y-93608093D01*
X189538916Y-93153268D01*
X189539535Y-93153041D01*
X189765823Y-93030126D01*
X189471363Y-92982902D01*
X189098468Y-93023802D01*
X188468041Y-93458988D01*
X188061638Y-94314881D01*
X187917640Y-95528591D01*
X186187985Y-95528591D01*
X186249921Y-94547763D01*
X186628462Y-93502215D01*
X187307761Y-92758188D01*
X187456932Y-92679334D01*
X188226004Y-92451469D01*
X189353400Y-92257810D01*
X190701706Y-92111000D01*
X192133510Y-92023687D01*
X193511398Y-92008513D01*
X194697955Y-92078126D01*
X195187701Y-92138548D01*
X195704803Y-92278820D01*
X195917056Y-92568186D01*
X195973237Y-93129274D01*
X195975318Y-93197087D01*
X195898476Y-93841142D01*
X195610475Y-94042421D01*
X195576726Y-94044061D01*
X195358852Y-94209998D01*
X195245747Y-94717177D01*
X195213385Y-95663697D01*
X195214184Y-95859043D01*
X195256995Y-96719078D01*
X195383353Y-97160463D01*
X195618704Y-97284974D01*
X195807726Y-97332053D01*
X196024023Y-97690293D01*
X195969861Y-97868440D01*
X195597686Y-98044098D01*
X194789523Y-98095612D01*
X193555024Y-98095612D01*
X193641119Y-95527985D01*
X193656494Y-94861964D01*
X193648938Y-93883728D01*
X193603186Y-93211031D01*
X193524555Y-92960964D01*
X193482499Y-93030126D01*
X193472803Y-93046071D01*
G37*
G36*
X166031515Y-95455368D02*
G01*
X166030406Y-95516753D01*
X166030406Y-96897603D01*
X166030406Y-98071936D01*
X164071363Y-98165190D01*
X163691476Y-98185787D01*
X163327245Y-98223415D01*
X163491725Y-98256732D01*
X164188818Y-98286164D01*
X165422427Y-98312135D01*
X166726639Y-98341662D01*
X167725858Y-98392611D01*
X168339184Y-98473678D01*
X168647712Y-98596107D01*
X168732533Y-98771144D01*
X168724712Y-98833074D01*
X168588207Y-98978964D01*
X168221782Y-99077897D01*
X167547852Y-99138224D01*
X166488835Y-99168295D01*
X164967146Y-99176463D01*
X163361362Y-99162092D01*
X161846067Y-99092431D01*
X160751490Y-98942712D01*
X160012573Y-98688715D01*
X159564260Y-98306217D01*
X159341496Y-97771000D01*
X159281446Y-97084256D01*
X160961094Y-97084256D01*
X161169488Y-97693802D01*
X161392764Y-97908585D01*
X161791733Y-98095612D01*
X161862341Y-98010671D01*
X161594158Y-97739986D01*
X161407614Y-97571554D01*
X161206632Y-97013628D01*
X161298860Y-96812102D01*
X162853727Y-96812102D01*
X162866270Y-96844811D01*
X163199146Y-97132614D01*
X163719303Y-97245706D01*
X164198659Y-97171548D01*
X164409129Y-96897603D01*
X164217572Y-96580872D01*
X163575973Y-96474336D01*
X162994810Y-96554971D01*
X162853727Y-96812102D01*
X161298860Y-96812102D01*
X161477093Y-96422650D01*
X162187236Y-95897299D01*
X163071203Y-95455368D01*
X162393217Y-95285205D01*
X161928839Y-95049505D01*
X161546438Y-94497235D01*
X161543119Y-94447740D01*
X163058065Y-94447740D01*
X163190283Y-94712121D01*
X163733597Y-94853059D01*
X164174233Y-94773729D01*
X164409129Y-94447740D01*
X164276912Y-94183359D01*
X163733597Y-94042421D01*
X163292962Y-94121751D01*
X163058065Y-94447740D01*
X161543119Y-94447740D01*
X161503517Y-93857123D01*
X161853908Y-93324846D01*
X162112445Y-93088286D01*
X162082903Y-92961570D01*
X162009284Y-92964459D01*
X161483506Y-93220740D01*
X161235449Y-93774517D01*
X161295283Y-94459512D01*
X161693180Y-95109450D01*
X162021219Y-95457231D01*
X162049629Y-95658630D01*
X161693807Y-95802991D01*
X161513006Y-95888500D01*
X161098852Y-96398638D01*
X160961094Y-97084256D01*
X159281446Y-97084256D01*
X159279224Y-97058843D01*
X159296421Y-96671206D01*
X159502223Y-96173517D01*
X160059458Y-95861112D01*
X160843829Y-95565045D01*
X160194564Y-95054334D01*
X159872812Y-94726451D01*
X159554188Y-93961326D01*
X159651179Y-93182657D01*
X160165831Y-92567440D01*
X160478203Y-92432869D01*
X161328292Y-92239037D01*
X162490788Y-92078927D01*
X163825971Y-91963494D01*
X165194123Y-91903690D01*
X166455526Y-91910470D01*
X167470462Y-91994786D01*
X168007977Y-92082593D01*
X168505486Y-92244509D01*
X168699516Y-92545971D01*
X168732533Y-93113233D01*
X168732199Y-93170392D01*
X168629466Y-93833430D01*
X168327214Y-94042421D01*
X168278378Y-94045618D01*
X168063369Y-94216861D01*
X167953023Y-94722296D01*
X167921895Y-95663697D01*
X167922695Y-95859043D01*
X167965505Y-96719078D01*
X168091864Y-97160463D01*
X168327214Y-97284974D01*
X168516237Y-97332053D01*
X168732533Y-97690293D01*
X168678372Y-97868440D01*
X168306197Y-98044098D01*
X167498034Y-98095612D01*
X166263535Y-98095612D01*
X166349630Y-95527985D01*
X166365005Y-94861964D01*
X166357449Y-93883728D01*
X166311697Y-93211031D01*
X166233065Y-92960964D01*
X166181287Y-93046174D01*
X166103684Y-93553658D01*
X166050280Y-94416402D01*
X166049714Y-94447740D01*
X166031515Y-95455368D01*
G37*
%TD*%
M02*
