M48
; DRILL file {KiCad 9.0.6} date 2026-03-31T10:45:13+0200
; FORMAT={-:-/ absolute / metric / decimal}
; #@! TF.CreationDate,2026-03-31T10:45:13+02:00
; #@! TF.GenerationSoftware,Kicad,Pcbnew,9.0.6
; #@! TF.FileFunction,Plated,1,4,PTH
FMAT,2
METRIC
; #@! TA.AperFunction,Plated,PTH,ViaDrill
T1C0.300
; #@! TA.AperFunction,Plated,PTH,ComponentDrill
T2C0.400
; #@! TA.AperFunction,Plated,PTH,ComponentDrill
T3C0.500
; #@! TA.AperFunction,Plated,PTH,ComponentDrill
T4C0.600
; #@! TA.AperFunction,Plated,PTH,ComponentDrill
T5C0.700
; #@! TA.AperFunction,Plated,PTH,ComponentDrill
T6C0.800
; #@! TA.AperFunction,Plated,PTH,ComponentDrill
T7C1.100
; #@! TA.AperFunction,Plated,PTH,ComponentDrill
T8C3.000
%
G90
G05
T1
X41.939Y-127.732
X43.0Y-128.381
X44.0Y-128.782
X45.0Y-129.183
X46.0Y-129.584
X47.0Y-129.999
X48.0Y-67.625
X48.0Y-77.0
X48.0Y-130.4
X49.0Y-131.0
X53.0Y-67.625
X53.0Y-77.0
X58.0Y-67.625
X58.0Y-77.0
X63.0Y-67.625
X63.0Y-77.0
X64.0Y-41.924
X68.0Y-67.625
X68.0Y-77.0
X68.537Y-50.25
X73.0Y-67.625
X73.0Y-77.0
X77.091Y-42.786
X77.091Y-45.086
X77.091Y-47.386
X78.0Y-67.625
X78.0Y-77.0
X83.0Y-67.625
X83.0Y-77.0
X83.391Y-45.086
X89.0Y-43.0
X89.4Y-79.5
X90.0Y-81.0
X91.1Y-132.5
X91.1Y-136.5
X91.1Y-140.5
X93.0Y-79.5
X94.334Y-61.843
X95.5Y-79.0
X95.5Y-81.6
X97.0Y-67.0
X97.334Y-61.843
X98.834Y-61.843
X103.0Y-45.0
X106.0Y-42.0
X106.5Y-45.9
X111.63Y-53.63
X111.9Y-55.9
X112.0Y-79.0
X112.17Y-58.17
X113.0Y-68.0
X113.94Y-58.94
X115.06Y-68.0
X115.67Y-68.518
X116.122Y-69.178
X116.884Y-77.8
X117.0Y-66.001
X117.0Y-70.0
X118.005Y-78.4
X119.25Y-136.5
X119.25Y-137.3
X119.54Y-67.0
X119.695Y-77.544
X119.837Y-79.384
X119.838Y-76.557
X119.924Y-78.576
X121.236Y-75.999
X121.565Y-51.315
X121.975Y-75.598
X122.0Y-69.6
X122.08Y-67.92
X123.224Y-69.6
X123.5Y-122.75
X123.707Y-51.391
X124.0Y-66.001
X124.0Y-88.0
X124.0Y-90.0
X124.0Y-94.0
X124.0Y-96.0
X124.5Y-51.5
X124.9Y-100.48
X125.0Y-70.0
X125.0Y-86.25
X125.0Y-87.05
X125.476Y-51.476
X125.684Y-101.066
X125.774Y-105.726
X126.0Y-67.0
X126.0Y-140.5
X126.4Y-51.4
X126.75Y-141.4
X127.0Y-44.199
X127.0Y-47.199
X127.451Y-120.701
X127.5Y-141.0
X127.859Y-47.49
X128.0Y-103.5
X128.0Y-136.0
X128.494Y-48.682
X128.6Y-127.0
X128.6Y-129.0
X128.6Y-132.0
X128.632Y-47.696
X128.674Y-141.174
X128.932Y-102.617
X128.969Y-105.531
X129.4Y-130.0
X129.477Y-141.023
X129.801Y-127.5
X129.924Y-123.424
X130.0Y-65.0
X130.0Y-66.0
X130.0Y-132.0
X130.058Y-66.942
X130.188Y-129.661
X130.337Y-141.034
X130.5Y-92.5
X130.799Y-122.549
X130.9Y-115.0
X130.9Y-123.5
X130.925Y-136.575
X130.945Y-93.165
X131.176Y-141.024
X131.398Y-42.398
X131.484Y-93.987
X131.6Y-135.551
X131.9Y-132.0
X132.0Y-60.999
X132.0Y-141.0
X132.098Y-94.5
X132.1Y-117.819
X132.25Y-136.75
X132.359Y-42.287
X132.5Y-116.5
X132.558Y-119.058
X132.898Y-95.502
X133.312Y-42.182
X134.0Y-136.5
X134.105Y-42.289
X134.418Y-140.582
X135.0Y-42.63
X135.0Y-60.999
X136.014Y-99.514
X137.0Y-116.9
X137.924Y-137.326
X138.0Y-43.933
X138.0Y-115.5
X138.48Y-134.52
X138.5Y-110.458
X138.549Y-136.201
X138.55Y-122.733
X138.777Y-117.299
X139.137Y-85.5
X139.4Y-135.0
X139.5Y-88.0
X139.5Y-91.0
X139.5Y-118.5
X139.777Y-81.123
X140.001Y-100.0
X140.001Y-102.0
X140.803Y-107.469
X141.0Y-110.0
X141.216Y-139.209
X141.75Y-114.202
X142.0Y-119.4
X142.062Y-101.938
X144.0Y-41.831
X144.0Y-50.362
X144.026Y-124.974
X144.5Y-77.42
X145.5Y-120.75
X146.75Y-119.282
X147.201Y-121.549
X148.25Y-120.75
X149.0Y-117.25
X149.5Y-77.42
X149.826Y-134.326
X149.854Y-120.396
X151.84Y-55.84
X152.0Y-118.5
X152.0Y-133.0
X154.5Y-77.5
X154.5Y-132.0
X155.071Y-141.096
X155.472Y-131.472
X155.641Y-136.076
X155.9Y-134.875
X157.902Y-134.842
X158.956Y-50.456
X159.0Y-41.43
X159.0Y-54.0
X159.5Y-77.5
X159.896Y-40.628
X160.976Y-50.976
X161.0Y-54.0
X161.427Y-40.227
X162.227Y-40.227
X162.311Y-130.433
X162.5Y-122.25
X162.5Y-134.0
X164.5Y-77.5
X164.5Y-112.999
X165.5Y-112.5
X165.78Y-107.299
X165.909Y-115.5
X165.909Y-119.0
X165.909Y-126.283
X165.909Y-129.783
X166.066Y-111.934
X167.819Y-106.098
X168.1Y-131.009
X168.101Y-131.809
X168.785Y-106.215
X169.5Y-77.5
X170.504Y-133.0
X171.104Y-133.568
X171.306Y-126.7
X171.306Y-127.5
X171.75Y-94.5
X171.75Y-98.799
X171.96Y-121.8
X172.0Y-124.0
X172.271Y-126.767
X172.548Y-98.747
X173.001Y-127.117
X173.348Y-98.75
X173.774Y-127.323
X174.5Y-77.5
X174.5Y-118.0
X174.5Y-119.2
X174.5Y-121.8
X174.54Y-124.0
X175.0Y-112.324
X175.25Y-98.6
X175.879Y-100.129
X178.5Y-54.999
X179.5Y-77.5
X182.0Y-52.5
X182.6Y-53.044
X183.549Y-66.951
X184.35Y-53.536
X184.385Y-66.988
X184.5Y-77.42
X184.654Y-63.152
X184.854Y-56.6
X185.0Y-67.5
X185.054Y-50.272
X185.366Y-63.568
X185.454Y-58.736
X185.469Y-99.0
X186.223Y-67.3
X186.254Y-64.988
X186.407Y-66.5
X186.655Y-54.167
X186.854Y-56.184
X187.007Y-67.141
X187.054Y-65.001
X187.65Y-69.999
X187.796Y-65.299
X188.5Y-69.999
X188.645Y-65.299
X189.0Y-50.0
X189.5Y-65.299
X189.5Y-77.42
X190.0Y-59.536
X190.5Y-51.0
X190.507Y-67.409
X191.0Y-64.0
X191.024Y-63.176
X191.25Y-55.6
X191.428Y-60.098
X191.5Y-121.75
X191.58Y-62.6
X191.695Y-69.39
X191.807Y-61.4
X191.9Y-56.2
X191.9Y-57.0
X191.9Y-57.852
X191.9Y-58.652
X191.9Y-59.452
X191.981Y-67.402
X193.458Y-70.458
X194.5Y-77.42
X195.472Y-58.142
X195.507Y-57.342
X198.5Y-56.896
X199.5Y-77.5
X200.319Y-109.73
X202.0Y-135.495
X202.924Y-135.495
X203.724Y-135.495
X204.5Y-77.5
X204.524Y-135.495
X205.324Y-135.495
X206.149Y-135.471
X206.5Y-132.4
X207.0Y-135.094
X207.772Y-134.693
X208.543Y-134.292
X209.5Y-77.5
X210.75Y-62.25
X211.0Y-125.0
X213.243Y-61.031
X213.5Y-125.0
X214.5Y-77.5
X215.852Y-136.698
X216.0Y-125.0
X217.216Y-135.402
X218.014Y-135.001
X218.5Y-125.0
X218.784Y-134.6
X218.999Y-56.0
X219.0Y-58.0
X219.5Y-77.5
X219.5Y-134.0
X220.0Y-59.0
X221.0Y-133.0
X223.687Y-108.23
X223.75Y-49.025
X223.75Y-49.825
X223.75Y-50.625
X223.969Y-119.6
X224.0Y-57.46
X224.0Y-58.73
X224.0Y-61.27
X225.296Y-101.733
X225.577Y-113.053
X228.296Y-101.683
X228.296Y-102.73
X228.577Y-113.053
X229.75Y-140.197
X230.994Y-48.994
X231.175Y-49.825
X231.175Y-60.0
X231.25Y-140.598
X231.263Y-50.62
X231.667Y-136.483
X231.969Y-113.703
X232.769Y-137.296
X233.9Y-136.766
X234.548Y-102.016
X234.9Y-137.848
X235.348Y-101.988
X236.0Y-118.5
X236.145Y-102.051
X236.224Y-137.724
X236.937Y-101.937
X237.0Y-118.5
X237.974Y-136.822
X238.0Y-75.75
X238.0Y-76.55
X238.174Y-117.826
X238.366Y-62.384
X238.966Y-62.984
X247.6Y-66.193
X247.6Y-85.75
X248.0Y-65.5
X248.1Y-129.25
X248.1Y-132.0
X248.1Y-133.0
X248.4Y-85.75
X248.463Y-130.464
X248.75Y-128.75
X251.0Y-124.564
X253.736Y-125.264
T2
X63.525Y-43.01
X63.525Y-44.36
X64.375Y-43.01
X64.375Y-44.36
X65.225Y-43.01
X65.225Y-44.36
X66.075Y-43.01
X66.075Y-44.36
X66.925Y-43.01
X66.925Y-44.36
X67.775Y-43.01
X67.775Y-44.36
X68.625Y-43.01
X68.625Y-44.36
X69.475Y-43.01
X69.475Y-44.36
T3
X254.0Y-66.0
X254.0Y-67.0
T5
X185.18Y-138.5
X185.18Y-139.77
X186.45Y-138.5
X186.45Y-139.77
X187.72Y-138.5
X187.72Y-139.77
X188.99Y-138.5
X188.99Y-139.77
X190.26Y-138.5
X190.26Y-139.77
X191.53Y-138.5
X191.53Y-139.77
X192.8Y-138.5
X192.8Y-139.77
X194.07Y-138.5
X194.07Y-139.77
X195.34Y-138.5
X195.34Y-139.77
X196.61Y-138.5
X196.61Y-139.77
X197.88Y-138.5
X197.88Y-139.77
X199.15Y-138.5
X199.15Y-139.77
X200.42Y-138.5
X200.42Y-139.77
X201.69Y-138.5
X201.69Y-139.77
X202.96Y-138.5
X202.96Y-139.77
X204.23Y-138.5
X204.23Y-139.77
X205.5Y-138.5
X205.5Y-139.77
X206.77Y-138.5
X206.77Y-139.77
X208.04Y-138.5
X208.04Y-139.77
X209.31Y-138.5
X209.31Y-139.77
X216.58Y-138.5
X216.58Y-139.77
X217.85Y-138.5
X217.85Y-139.77
X219.12Y-138.5
X219.12Y-139.77
X220.39Y-138.5
X220.39Y-139.77
X221.66Y-138.5
X221.66Y-139.77
X222.93Y-138.5
X222.93Y-139.77
X224.2Y-138.5
X224.2Y-139.77
X225.47Y-138.5
X225.47Y-139.77
X226.74Y-138.5
X226.74Y-139.77
X228.01Y-138.5
X228.01Y-139.77
T6
X46.741Y-43.586
X46.741Y-53.746
X48.0Y-84.84
X48.0Y-95.0
X48.0Y-97.84
X48.0Y-108.0
X52.741Y-43.586
X52.741Y-53.746
X53.0Y-84.84
X53.0Y-95.0
X53.0Y-97.84
X53.0Y-108.0
X54.0Y-112.0
X54.0Y-119.62
X54.0Y-122.38
X54.0Y-130.0
X56.54Y-112.0
X56.54Y-119.62
X56.54Y-122.38
X56.54Y-130.0
X58.0Y-84.84
X58.0Y-95.0
X58.0Y-97.84
X58.0Y-108.0
X58.392Y-43.626
X58.392Y-53.786
X59.08Y-112.0
X59.08Y-119.62
X59.08Y-122.38
X59.08Y-130.0
X61.62Y-112.0
X61.62Y-119.62
X61.62Y-122.38
X61.62Y-130.0
X63.0Y-84.84
X63.0Y-95.0
X63.0Y-97.84
X63.0Y-108.0
X64.16Y-112.0
X64.16Y-119.62
X64.16Y-122.38
X64.16Y-130.0
X66.7Y-112.0
X66.7Y-119.62
X66.7Y-122.38
X66.7Y-130.0
X68.0Y-84.84
X68.0Y-95.0
X68.0Y-97.84
X68.0Y-108.0
X69.24Y-112.0
X69.24Y-119.62
X69.24Y-122.38
X69.24Y-130.0
X71.34Y-135.0
X71.42Y-140.0
X71.78Y-112.0
X71.78Y-119.62
X71.78Y-122.38
X71.78Y-130.0
X73.0Y-84.84
X73.0Y-95.0
X73.0Y-97.84
X73.0Y-108.0
X74.32Y-112.0
X74.32Y-119.62
X74.32Y-122.38
X74.32Y-130.0
X75.75Y-53.75
X76.86Y-112.0
X76.86Y-119.62
X76.86Y-122.38
X76.86Y-130.0
X78.0Y-84.84
X78.0Y-95.0
X78.0Y-97.84
X78.0Y-108.0
X78.25Y-53.75
X81.5Y-135.0
X81.58Y-140.0
X82.045Y-53.75
X82.38Y-113.76
X82.38Y-116.3
X82.38Y-118.84
X82.38Y-121.38
X82.38Y-123.92
X82.38Y-126.46
X82.38Y-129.0
X83.0Y-84.84
X83.0Y-95.0
X83.0Y-97.84
X83.0Y-108.0
X84.545Y-53.75
X86.795Y-94.25
X89.295Y-94.25
X89.5Y-100.0
X89.5Y-110.16
X90.0Y-113.76
X90.0Y-116.3
X90.0Y-118.84
X90.0Y-121.38
X90.0Y-123.92
X90.0Y-126.46
X90.0Y-129.0
X91.6Y-48.26
X91.6Y-63.5
X91.76Y-69.0
X91.76Y-76.62
X93.09Y-84.5
X93.09Y-87.75
X93.545Y-125.75
X94.14Y-48.26
X94.14Y-63.5
X94.3Y-69.0
X94.3Y-76.62
X96.045Y-125.75
X96.68Y-48.26
X96.68Y-63.5
X96.84Y-69.0
X96.84Y-76.62
X96.88Y-111.185
X96.88Y-118.805
X99.22Y-48.26
X99.22Y-63.5
X99.38Y-69.0
X99.38Y-76.62
X99.42Y-111.185
X99.42Y-118.805
X101.5Y-105.25
X101.76Y-48.26
X101.76Y-63.5
X101.92Y-69.0
X101.92Y-76.62
X101.96Y-111.185
X101.96Y-118.805
X102.92Y-126.0
X102.92Y-129.5
X102.92Y-133.0
X102.92Y-140.0
X103.0Y-136.5
X103.25Y-84.5
X103.25Y-87.75
X104.0Y-105.25
X104.3Y-48.26
X104.3Y-63.5
X104.46Y-69.0
X104.46Y-76.62
X104.5Y-111.185
X104.5Y-118.805
X106.84Y-48.26
X106.84Y-63.5
X107.0Y-69.0
X107.0Y-76.62
X107.04Y-111.185
X107.04Y-118.805
X107.545Y-105.25
X109.38Y-48.26
X109.38Y-63.5
X109.58Y-111.185
X109.58Y-118.805
X110.045Y-105.25
X111.92Y-48.26
X111.92Y-63.5
X112.12Y-111.185
X112.12Y-118.805
X113.08Y-126.0
X113.08Y-129.5
X113.08Y-133.0
X113.08Y-140.0
X113.16Y-136.5
X114.46Y-48.26
X114.46Y-63.5
X117.0Y-48.26
X117.0Y-63.5
X119.389Y-85.658
X119.389Y-88.198
X119.389Y-90.738
X119.389Y-93.278
X119.389Y-95.818
X119.389Y-98.358
X119.389Y-100.898
X119.389Y-103.438
X119.389Y-105.978
X119.389Y-108.518
X119.389Y-111.058
X119.389Y-113.598
X119.389Y-116.138
X119.389Y-118.678
X119.389Y-121.218
X119.389Y-123.758
X119.389Y-126.298
X119.389Y-128.838
X119.389Y-131.378
X119.389Y-133.918
X119.54Y-48.26
X119.54Y-63.5
X122.08Y-48.26
X122.08Y-63.5
X124.62Y-48.26
X124.62Y-63.5
X131.52Y-48.26
X131.52Y-63.5
X134.06Y-48.26
X134.06Y-63.5
X134.63Y-85.658
X134.63Y-88.198
X134.63Y-90.738
X134.63Y-93.278
X134.63Y-95.818
X134.63Y-98.358
X134.63Y-100.898
X134.63Y-103.438
X134.63Y-105.978
X134.63Y-108.518
X134.63Y-111.058
X134.63Y-113.598
X134.63Y-116.138
X134.63Y-118.678
X134.63Y-121.218
X134.63Y-123.758
X134.63Y-126.298
X134.63Y-128.838
X134.63Y-131.378
X134.63Y-133.918
X136.6Y-48.26
X136.6Y-63.5
X139.14Y-48.26
X139.14Y-63.5
X141.68Y-48.26
X141.68Y-63.5
X143.34Y-130.283
X143.35Y-133.783
X143.429Y-116.283
X143.429Y-119.783
X143.429Y-123.283
X143.429Y-126.783
X143.433Y-137.0
X143.433Y-140.5
X144.22Y-48.26
X144.22Y-63.5
X144.5Y-85.42
X144.5Y-95.58
X145.46Y-101.38
X145.46Y-109.0
X146.76Y-48.26
X146.76Y-63.5
X147.295Y-69.0
X148.0Y-101.38
X148.0Y-109.0
X149.3Y-48.26
X149.3Y-63.5
X149.5Y-85.42
X149.5Y-95.58
X149.795Y-69.0
X150.54Y-101.38
X150.54Y-109.0
X151.84Y-48.26
X151.84Y-63.5
X153.045Y-69.0
X153.08Y-101.38
X153.08Y-109.0
X153.5Y-130.283
X153.51Y-133.783
X153.589Y-116.283
X153.589Y-119.783
X153.589Y-123.283
X153.589Y-126.783
X153.593Y-137.0
X153.593Y-140.5
X154.38Y-48.26
X154.38Y-63.5
X154.5Y-85.5
X154.5Y-95.66
X155.545Y-69.0
X155.62Y-101.38
X155.62Y-109.0
X156.92Y-48.26
X156.92Y-63.5
X158.16Y-101.38
X158.16Y-109.0
X159.46Y-48.26
X159.46Y-63.5
X159.5Y-85.5
X159.5Y-95.66
X160.7Y-101.38
X160.7Y-109.0
X161.5Y-69.25
X162.0Y-48.26
X162.0Y-63.5
X163.24Y-101.38
X163.24Y-109.0
X164.5Y-85.5
X164.5Y-95.66
X164.54Y-48.26
X164.54Y-63.5
X165.78Y-101.38
X165.78Y-109.0
X166.38Y-69.25
X168.32Y-101.38
X168.32Y-109.0
X169.5Y-48.436
X169.5Y-85.5
X169.5Y-95.66
X169.58Y-52.0
X171.75Y-56.59
X171.75Y-66.75
X174.5Y-85.5
X174.5Y-95.66
X175.25Y-56.59
X175.25Y-66.75
X179.22Y-124.0
X179.22Y-131.62
X179.23Y-101.149
X179.23Y-108.769
X179.232Y-112.324
X179.232Y-119.944
X179.5Y-85.5
X179.5Y-95.66
X179.66Y-48.436
X179.74Y-52.0
X181.76Y-124.0
X181.76Y-131.62
X181.77Y-101.149
X181.77Y-108.769
X181.772Y-112.324
X181.772Y-119.944
X184.3Y-124.0
X184.3Y-131.62
X184.31Y-101.149
X184.31Y-108.769
X184.312Y-112.324
X184.312Y-119.944
X184.5Y-85.42
X184.5Y-95.58
X186.84Y-124.0
X186.84Y-131.62
X186.85Y-101.149
X186.85Y-108.769
X186.852Y-112.324
X186.852Y-119.944
X189.38Y-124.0
X189.38Y-131.62
X189.391Y-101.149
X189.391Y-108.769
X189.392Y-112.324
X189.392Y-119.944
X189.5Y-85.42
X189.5Y-95.58
X191.92Y-124.0
X191.92Y-131.62
X191.93Y-101.149
X191.93Y-108.769
X191.932Y-112.324
X191.932Y-119.944
X194.25Y-51.25
X194.46Y-124.0
X194.46Y-131.62
X194.47Y-101.149
X194.47Y-108.769
X194.472Y-112.324
X194.472Y-119.944
X194.5Y-85.42
X194.5Y-95.58
X196.75Y-51.25
X197.0Y-124.0
X197.0Y-131.62
X197.01Y-101.149
X197.01Y-108.769
X197.012Y-112.324
X197.012Y-119.944
X197.84Y-62.0
X199.5Y-85.5
X199.5Y-95.66
X199.75Y-51.25
X202.25Y-51.25
X204.5Y-85.5
X204.5Y-95.66
X205.25Y-51.25
X207.75Y-51.25
X208.0Y-62.0
X209.5Y-85.5
X209.5Y-95.66
X210.75Y-51.25
X213.25Y-51.25
X214.5Y-85.5
X214.5Y-95.66
X216.25Y-51.25
X218.75Y-51.25
X219.5Y-85.5
X219.5Y-95.66
X221.24Y-123.919
X221.24Y-131.539
X223.78Y-123.919
X223.78Y-131.539
X224.0Y-69.64
X224.0Y-72.18
X224.0Y-74.72
X224.0Y-77.26
X224.0Y-79.8
X224.0Y-82.34
X224.0Y-84.88
X224.0Y-87.42
X224.0Y-89.96
X224.0Y-92.5
X226.32Y-123.919
X226.32Y-131.539
X228.861Y-123.919
X228.861Y-131.539
X231.4Y-123.919
X231.4Y-131.539
X231.62Y-69.64
X231.62Y-72.18
X231.62Y-74.72
X231.62Y-77.26
X231.62Y-79.8
X231.62Y-82.34
X231.62Y-84.88
X231.62Y-87.42
X231.62Y-89.96
X231.62Y-92.5
X233.94Y-123.919
X233.94Y-131.539
X235.045Y-58.25
X236.48Y-123.919
X236.48Y-131.539
X237.545Y-58.25
X239.02Y-123.919
X239.02Y-131.539
T7
X60.0Y-136.0
X60.0Y-140.5
X66.5Y-136.0
X66.5Y-140.5
X247.75Y-89.4
X247.75Y-93.9
X247.75Y-97.9
X247.75Y-102.4
X247.75Y-106.4
X247.75Y-110.9
X247.75Y-114.9
X247.75Y-119.4
X254.25Y-89.4
X254.25Y-93.9
X254.25Y-97.9
X254.25Y-102.4
X254.25Y-106.4
X254.25Y-110.9
X254.25Y-114.9
X254.25Y-119.4
T8
X94.75Y-93.797
X99.5Y-93.797
X104.25Y-93.797
T4
G00X62.175Y-40.4
M15
G01X62.175Y-39.6
M16
G05
G00X62.175Y-44.13
M15
G01X62.175Y-42.63
M16
G05
G00X70.825Y-40.4
M15
G01X70.825Y-39.6
M16
G05
G00X70.825Y-44.13
M15
G01X70.825Y-42.63
M16
G05
M30
