M48
; DRILL file {KiCad 9.0.6} date 2026-04-19T03:06:00+0200
; FORMAT={-:-/ absolute / metric / decimal}
; #@! TF.CreationDate,2026-04-19T03:06:00+02:00
; #@! TF.GenerationSoftware,Kicad,Pcbnew,9.0.6
; #@! TF.FileFunction,Plated,1,4,PTH
FMAT,2
METRIC
; #@! TA.AperFunction,Plated,PTH,ViaDrill
T1C0.300
; #@! TA.AperFunction,Plated,PTH,ComponentDrill
T2C0.500
; #@! TA.AperFunction,Plated,PTH,ComponentDrill
T3C0.600
; #@! TA.AperFunction,Plated,PTH,ComponentDrill
T4C0.800
; #@! TA.AperFunction,Plated,PTH,ComponentDrill
T5C1.100
; #@! TA.AperFunction,Plated,PTH,ComponentDrill
T6C2.000
%
G90
G05
T1
X41.939Y-127.732
X43.0Y-128.381
X44.0Y-128.782
X45.0Y-129.183
X46.0Y-129.584
X47.0Y-129.999
X48.0Y-67.625
X48.0Y-77.0
X48.0Y-130.4
X49.0Y-131.0
X53.0Y-67.625
X53.0Y-77.0
X58.0Y-67.625
X58.0Y-77.0
X62.75Y-45.045
X63.0Y-67.625
X63.0Y-77.0
X64.5Y-47.25
X65.25Y-46.75
X66.25Y-46.75
X68.0Y-67.625
X68.0Y-77.0
X69.15Y-50.25
X69.25Y-45.045
X73.0Y-67.625
X73.0Y-77.0
X77.091Y-42.786
X77.091Y-45.086
X77.091Y-47.386
X78.0Y-67.625
X78.0Y-77.0
X83.0Y-67.625
X83.0Y-77.0
X83.391Y-45.086
X89.4Y-79.5
X90.0Y-81.0
X91.1Y-132.5
X91.1Y-136.5
X91.1Y-140.5
X92.3Y-54.5
X93.0Y-79.5
X94.0Y-54.6
X94.334Y-61.843
X95.5Y-79.0
X95.5Y-81.6
X97.0Y-67.0
X97.334Y-61.843
X98.834Y-61.843
X103.0Y-45.0
X106.0Y-42.0
X106.5Y-45.9
X111.63Y-53.63
X111.9Y-55.9
X112.0Y-79.0
X112.17Y-58.17
X113.0Y-68.0
X113.94Y-58.94
X115.06Y-68.0
X115.67Y-68.518
X116.122Y-69.178
X116.884Y-77.8
X117.0Y-66.001
X117.0Y-70.0
X118.005Y-78.4
X119.25Y-136.5
X119.25Y-137.3
X119.54Y-67.0
X119.695Y-77.544
X119.837Y-79.384
X119.838Y-76.557
X119.924Y-78.576
X121.236Y-75.999
X121.565Y-51.315
X121.975Y-75.598
X122.0Y-69.6
X122.08Y-67.92
X123.224Y-69.6
X123.5Y-122.75
X123.707Y-51.391
X124.0Y-66.001
X124.0Y-88.0
X124.0Y-90.0
X124.0Y-94.0
X124.0Y-96.0
X124.5Y-51.5
X124.9Y-100.48
X125.0Y-70.0
X125.0Y-86.25
X125.0Y-87.05
X125.476Y-51.476
X125.684Y-101.066
X125.774Y-105.726
X126.0Y-67.0
X126.0Y-140.5
X126.4Y-51.4
X126.75Y-141.4
X127.0Y-44.199
X127.0Y-47.199
X127.451Y-120.701
X127.5Y-141.0
X127.859Y-47.49
X128.0Y-103.5
X128.0Y-136.0
X128.494Y-48.682
X128.6Y-127.0
X128.6Y-129.0
X128.6Y-132.0
X128.632Y-47.696
X128.674Y-141.174
X128.932Y-102.617
X128.969Y-105.531
X129.4Y-130.0
X129.477Y-141.023
X129.801Y-127.5
X129.924Y-123.424
X130.0Y-65.0
X130.0Y-66.0
X130.0Y-132.0
X130.058Y-66.942
X130.188Y-129.661
X130.337Y-141.034
X130.5Y-92.5
X130.799Y-122.549
X130.9Y-115.0
X130.9Y-123.5
X130.925Y-136.575
X130.945Y-93.165
X131.176Y-141.024
X131.398Y-42.398
X131.484Y-93.987
X131.6Y-135.551
X131.9Y-132.0
X132.0Y-60.999
X132.0Y-141.0
X132.098Y-94.5
X132.1Y-117.819
X132.25Y-136.75
X132.359Y-42.287
X132.5Y-116.5
X132.558Y-119.058
X132.898Y-95.502
X133.312Y-42.182
X134.0Y-136.5
X134.105Y-42.289
X134.418Y-140.582
X135.0Y-42.63
X135.0Y-60.999
X136.014Y-99.514
X137.0Y-116.9
X137.924Y-137.326
X138.0Y-43.933
X138.0Y-115.5
X138.48Y-134.52
X138.5Y-110.458
X138.549Y-136.201
X138.55Y-122.733
X138.777Y-117.299
X139.137Y-85.5
X139.4Y-135.0
X139.5Y-88.0
X139.5Y-91.0
X139.5Y-118.5
X139.777Y-81.123
X140.001Y-100.0
X140.001Y-102.0
X140.803Y-107.469
X141.0Y-110.0
X141.216Y-139.209
X141.75Y-114.202
X142.0Y-119.4
X142.062Y-101.938
X144.0Y-41.831
X144.0Y-50.362
X144.026Y-124.974
X144.5Y-77.42
X145.5Y-120.75
X146.75Y-119.282
X147.201Y-121.549
X148.25Y-120.75
X149.0Y-117.25
X149.5Y-77.42
X149.826Y-134.326
X149.854Y-120.396
X151.84Y-55.84
X152.0Y-118.5
X152.0Y-133.0
X154.5Y-77.5
X154.5Y-132.0
X155.071Y-141.096
X155.472Y-131.472
X155.641Y-136.076
X155.9Y-134.875
X157.902Y-134.842
X158.956Y-50.456
X159.0Y-41.43
X159.0Y-54.0
X159.5Y-77.5
X159.896Y-40.628
X160.976Y-50.976
X161.0Y-54.0
X161.427Y-40.227
X162.227Y-40.227
X162.311Y-130.433
X162.5Y-122.25
X162.5Y-134.0
X164.5Y-77.5
X164.5Y-112.999
X165.5Y-112.5
X165.78Y-107.299
X165.909Y-115.5
X165.909Y-119.0
X165.909Y-126.283
X165.909Y-129.783
X166.066Y-111.934
X167.819Y-106.098
X168.1Y-131.009
X168.101Y-131.809
X168.785Y-106.215
X169.5Y-77.5
X170.504Y-133.0
X171.104Y-133.568
X171.306Y-126.7
X171.306Y-127.5
X171.75Y-94.5
X171.75Y-98.799
X171.96Y-121.8
X172.0Y-124.0
X172.271Y-126.767
X172.548Y-98.747
X173.001Y-127.117
X173.348Y-98.75
X173.774Y-127.323
X174.5Y-77.5
X174.5Y-118.0
X174.5Y-119.2
X174.5Y-121.8
X174.54Y-124.0
X175.0Y-112.324
X175.25Y-98.6
X175.879Y-100.129
X177.9Y-46.1
X178.5Y-54.999
X178.583Y-140.333
X179.5Y-77.5
X179.642Y-54.642
X180.0Y-140.04
X180.6Y-45.84
X181.5Y-140.64
X182.0Y-52.5
X182.6Y-53.044
X183.549Y-66.951
X184.35Y-53.536
X184.385Y-66.988
X184.5Y-77.42
X184.654Y-64.06
X184.854Y-56.6
X185.0Y-67.5
X185.001Y-64.78
X185.225Y-50.127
X185.26Y-141.0
X185.3Y-138.6
X185.454Y-58.736
X185.469Y-99.0
X186.223Y-67.3
X186.254Y-64.988
X186.407Y-66.5
X186.416Y-54.167
X186.53Y-137.761
X186.53Y-141.0
X186.854Y-56.184
X187.007Y-67.141
X187.054Y-65.001
X187.307Y-50.2
X187.65Y-69.999
X187.796Y-65.299
X187.8Y-137.4
X187.8Y-141.0
X188.5Y-69.999
X188.645Y-65.299
X189.07Y-137.4
X189.07Y-141.0
X189.5Y-65.299
X189.5Y-77.42
X190.0Y-59.536
X190.145Y-52.19
X190.34Y-137.4
X190.34Y-141.0
X190.507Y-67.409
X191.0Y-64.0
X191.024Y-63.176
X191.25Y-55.6
X191.428Y-60.098
X191.5Y-121.75
X191.58Y-62.6
X191.61Y-137.4
X191.61Y-141.0
X191.695Y-69.39
X191.807Y-61.4
X191.9Y-56.2
X191.9Y-57.0
X191.9Y-57.852
X191.9Y-58.652
X191.9Y-59.452
X191.981Y-67.402
X192.88Y-137.4
X192.88Y-141.0
X193.458Y-70.458
X194.15Y-137.4
X194.15Y-141.0
X194.5Y-77.42
X195.42Y-137.4
X195.42Y-141.0
X196.47Y-59.634
X196.69Y-137.4
X196.69Y-141.0
X197.426Y-59.774
X197.96Y-137.4
X197.96Y-141.0
X199.23Y-137.4
X199.23Y-141.0
X199.4Y-60.895
X199.5Y-77.5
X200.319Y-109.73
X200.5Y-137.4
X200.5Y-141.0
X201.77Y-137.4
X201.77Y-141.0
X202.0Y-135.495
X202.672Y-139.442
X202.924Y-135.495
X203.04Y-137.4
X203.04Y-141.0
X203.724Y-135.495
X203.915Y-138.228
X204.31Y-141.0
X204.5Y-77.5
X204.5Y-138.95
X204.524Y-135.495
X205.324Y-135.495
X205.58Y-141.0
X206.0Y-138.951
X206.149Y-135.471
X206.5Y-132.4
X206.85Y-141.0
X207.0Y-135.094
X207.772Y-134.693
X208.12Y-141.0
X208.543Y-134.292
X209.39Y-137.4
X209.39Y-141.0
X209.5Y-77.5
X211.0Y-125.0
X213.4Y-64.932
X213.5Y-125.0
X214.5Y-77.5
X214.6Y-64.3
X215.536Y-137.013
X216.0Y-125.0
X216.59Y-137.4
X216.6Y-139.4
X217.216Y-135.402
X217.86Y-137.4
X217.86Y-141.0
X218.014Y-135.001
X218.5Y-125.0
X218.784Y-134.6
X218.999Y-56.0
X219.13Y-137.4
X219.13Y-141.0
X219.5Y-77.5
X219.5Y-134.0
X219.6Y-58.0
X220.0Y-59.0
X220.4Y-137.4
X220.4Y-141.0
X221.0Y-133.0
X221.67Y-137.4
X221.67Y-141.0
X222.94Y-137.4
X222.94Y-141.0
X223.25Y-47.85
X223.35Y-49.15
X223.687Y-108.23
X223.969Y-119.6
X224.0Y-57.46
X224.0Y-58.73
X224.0Y-61.27
X224.21Y-137.4
X225.296Y-101.733
X225.48Y-137.4
X225.48Y-141.0
X225.577Y-113.053
X226.0Y-48.5
X226.0Y-51.75
X226.75Y-141.0
X228.02Y-137.4
X228.02Y-141.0
X228.296Y-101.683
X228.296Y-102.73
X228.577Y-113.053
X229.25Y-47.85
X229.25Y-49.15
X229.25Y-51.75
X229.4Y-138.6
X229.75Y-140.197
X231.175Y-57.46
X231.175Y-60.0
X231.25Y-140.598
X231.667Y-136.483
X231.969Y-113.703
X232.176Y-50.824
X232.287Y-48.732
X232.769Y-137.296
X233.9Y-136.766
X234.748Y-71.2
X234.9Y-137.848
X235.348Y-101.988
X236.145Y-102.051
X236.224Y-137.724
X236.937Y-101.937
X237.0Y-118.5
X237.648Y-73.395
X237.974Y-136.822
X238.174Y-117.826
X238.366Y-62.384
X238.966Y-62.984
X239.5Y-72.8
X239.834Y-73.527
X247.6Y-67.439
X247.6Y-68.4
X247.6Y-85.75
X248.1Y-129.25
X248.1Y-132.0
X248.1Y-133.0
X248.4Y-85.75
X248.463Y-130.464
X248.75Y-128.75
X251.0Y-124.564
X253.736Y-125.264
T2
X248.0Y-41.75
X248.0Y-42.75
T4
X46.741Y-43.586
X46.741Y-53.746
X48.0Y-84.84
X48.0Y-95.0
X48.0Y-97.84
X48.0Y-108.0
X52.741Y-43.586
X52.741Y-53.746
X53.0Y-84.84
X53.0Y-95.0
X53.0Y-97.84
X53.0Y-108.0
X54.0Y-112.0
X54.0Y-119.62
X54.0Y-122.38
X54.0Y-130.0
X56.54Y-112.0
X56.54Y-119.62
X56.54Y-122.38
X56.54Y-130.0
X58.0Y-84.84
X58.0Y-95.0
X58.0Y-97.84
X58.0Y-108.0
X58.392Y-43.626
X58.392Y-53.786
X59.08Y-112.0
X59.08Y-119.62
X59.08Y-122.38
X59.08Y-130.0
X61.62Y-112.0
X61.62Y-119.62
X61.62Y-122.38
X61.62Y-130.0
X63.0Y-84.84
X63.0Y-95.0
X63.0Y-97.84
X63.0Y-108.0
X64.16Y-112.0
X64.16Y-119.62
X64.16Y-122.38
X64.16Y-130.0
X66.7Y-112.0
X66.7Y-119.62
X66.7Y-122.38
X66.7Y-130.0
X68.0Y-84.84
X68.0Y-95.0
X68.0Y-97.84
X68.0Y-108.0
X69.24Y-112.0
X69.24Y-119.62
X69.24Y-122.38
X69.24Y-130.0
X71.34Y-135.0
X71.42Y-140.0
X71.78Y-112.0
X71.78Y-119.62
X71.78Y-122.38
X71.78Y-130.0
X73.0Y-84.84
X73.0Y-95.0
X73.0Y-97.84
X73.0Y-108.0
X73.75Y-54.25
X74.32Y-112.0
X74.32Y-119.62
X74.32Y-122.38
X74.32Y-130.0
X76.86Y-112.0
X76.86Y-119.62
X76.86Y-122.38
X76.86Y-130.0
X78.0Y-84.84
X78.0Y-95.0
X78.0Y-97.84
X78.0Y-108.0
X78.75Y-54.25
X81.5Y-135.0
X81.58Y-140.0
X82.25Y-54.25
X82.38Y-113.76
X82.38Y-116.3
X82.38Y-118.84
X82.38Y-121.38
X82.38Y-123.92
X82.38Y-126.46
X82.38Y-129.0
X83.0Y-84.84
X83.0Y-95.0
X83.0Y-97.84
X83.0Y-108.0
X85.75Y-93.75
X87.25Y-54.25
X89.5Y-100.0
X89.5Y-110.16
X90.0Y-113.76
X90.0Y-116.3
X90.0Y-118.84
X90.0Y-121.38
X90.0Y-123.92
X90.0Y-126.46
X90.0Y-129.0
X90.75Y-93.75
X91.6Y-48.26
X91.6Y-63.5
X91.76Y-69.0
X91.76Y-76.62
X93.09Y-84.5
X93.09Y-87.75
X93.25Y-124.5
X94.14Y-48.26
X94.14Y-63.5
X94.3Y-69.0
X94.3Y-76.62
X96.68Y-48.26
X96.68Y-63.5
X96.84Y-69.0
X96.84Y-76.62
X96.88Y-111.185
X96.88Y-118.805
X98.25Y-124.5
X99.22Y-48.26
X99.22Y-63.5
X99.38Y-69.0
X99.38Y-76.62
X99.42Y-111.185
X99.42Y-118.805
X100.0Y-104.75
X101.76Y-48.26
X101.76Y-63.5
X101.92Y-69.0
X101.92Y-76.62
X101.96Y-111.185
X101.96Y-118.805
X102.92Y-126.0
X102.92Y-129.5
X102.92Y-133.0
X102.92Y-140.0
X103.0Y-136.5
X103.25Y-84.5
X103.25Y-87.75
X104.3Y-48.26
X104.3Y-63.5
X104.46Y-69.0
X104.46Y-76.62
X104.5Y-111.185
X104.5Y-118.805
X105.0Y-104.75
X106.84Y-48.26
X106.84Y-63.5
X107.0Y-69.0
X107.0Y-76.62
X107.04Y-111.185
X107.04Y-118.805
X108.0Y-104.75
X109.38Y-48.26
X109.38Y-63.5
X109.58Y-111.185
X109.58Y-118.805
X111.92Y-48.26
X111.92Y-63.5
X112.12Y-111.185
X112.12Y-118.805
X113.0Y-104.75
X113.08Y-126.0
X113.08Y-129.5
X113.08Y-133.0
X113.08Y-140.0
X113.16Y-136.5
X114.46Y-48.26
X114.46Y-63.5
X117.0Y-48.26
X117.0Y-63.5
X119.389Y-85.658
X119.389Y-88.198
X119.389Y-90.738
X119.389Y-93.278
X119.389Y-95.818
X119.389Y-98.358
X119.389Y-100.898
X119.389Y-103.438
X119.389Y-105.978
X119.389Y-108.518
X119.389Y-111.058
X119.389Y-113.598
X119.389Y-116.138
X119.389Y-118.678
X119.389Y-121.218
X119.389Y-123.758
X119.389Y-126.298
X119.389Y-128.838
X119.389Y-131.378
X119.389Y-133.918
X119.54Y-48.26
X119.54Y-63.5
X122.08Y-48.26
X122.08Y-63.5
X124.62Y-48.26
X124.62Y-63.5
X131.52Y-48.26
X131.52Y-63.5
X134.06Y-48.26
X134.06Y-63.5
X134.63Y-85.658
X134.63Y-88.198
X134.63Y-90.738
X134.63Y-93.278
X134.63Y-95.818
X134.63Y-98.358
X134.63Y-100.898
X134.63Y-103.438
X134.63Y-105.978
X134.63Y-108.518
X134.63Y-111.058
X134.63Y-113.598
X134.63Y-116.138
X134.63Y-118.678
X134.63Y-121.218
X134.63Y-123.758
X134.63Y-126.298
X134.63Y-128.838
X134.63Y-131.378
X134.63Y-133.918
X136.6Y-48.26
X136.6Y-63.5
X139.14Y-48.26
X139.14Y-63.5
X140.5Y-69.25
X141.68Y-48.26
X141.68Y-63.5
X143.34Y-130.283
X143.35Y-133.783
X143.429Y-116.283
X143.429Y-119.783
X143.429Y-123.283
X143.429Y-126.783
X143.433Y-137.0
X143.433Y-140.5
X144.22Y-48.26
X144.22Y-63.5
X144.5Y-85.42
X144.5Y-95.58
X145.46Y-101.38
X145.46Y-109.0
X145.5Y-69.25
X146.76Y-48.26
X146.76Y-63.5
X148.0Y-101.38
X148.0Y-109.0
X149.3Y-48.26
X149.3Y-63.5
X149.5Y-85.42
X149.5Y-95.58
X150.54Y-101.38
X150.54Y-109.0
X151.5Y-69.25
X151.84Y-48.26
X151.84Y-63.5
X153.08Y-101.38
X153.08Y-109.0
X153.5Y-130.283
X153.51Y-133.783
X153.589Y-116.283
X153.589Y-119.783
X153.589Y-123.283
X153.589Y-126.783
X153.593Y-137.0
X153.593Y-140.5
X154.38Y-48.26
X154.38Y-63.5
X154.5Y-85.5
X154.5Y-95.66
X155.62Y-101.38
X155.62Y-109.0
X156.5Y-69.25
X156.92Y-48.26
X156.92Y-63.5
X158.16Y-101.38
X158.16Y-109.0
X159.46Y-48.26
X159.46Y-63.5
X159.5Y-85.5
X159.5Y-95.66
X160.7Y-101.38
X160.7Y-109.0
X161.5Y-69.25
X162.0Y-48.26
X162.0Y-63.5
X163.24Y-101.38
X163.24Y-109.0
X164.5Y-85.5
X164.5Y-95.66
X164.54Y-48.26
X164.54Y-63.5
X165.78Y-101.38
X165.78Y-109.0
X166.38Y-69.25
X168.32Y-101.38
X168.32Y-109.0
X169.5Y-48.436
X169.5Y-85.5
X169.5Y-95.66
X169.58Y-52.0
X171.14Y-71.2
X171.75Y-56.59
X171.75Y-66.75
X174.5Y-85.5
X174.5Y-95.66
X175.25Y-56.59
X175.25Y-66.75
X179.22Y-124.0
X179.22Y-131.62
X179.23Y-101.149
X179.23Y-108.769
X179.232Y-112.324
X179.232Y-119.944
X179.5Y-85.5
X179.5Y-95.66
X179.66Y-48.436
X179.74Y-52.0
X181.3Y-71.2
X181.76Y-124.0
X181.76Y-131.62
X181.77Y-101.149
X181.77Y-108.769
X181.772Y-112.324
X181.772Y-119.944
X184.3Y-124.0
X184.3Y-131.62
X184.31Y-101.149
X184.31Y-108.769
X184.312Y-112.324
X184.312Y-119.944
X184.5Y-85.42
X184.5Y-95.58
X186.5Y-47.5
X186.84Y-124.0
X186.84Y-131.62
X186.85Y-101.149
X186.85Y-108.769
X186.852Y-112.324
X186.852Y-119.944
X189.38Y-124.0
X189.38Y-131.62
X189.391Y-101.149
X189.391Y-108.769
X189.392Y-112.324
X189.392Y-119.944
X189.5Y-85.42
X189.5Y-95.58
X191.5Y-47.5
X191.92Y-124.0
X191.92Y-131.62
X191.93Y-101.149
X191.93Y-108.769
X191.932Y-112.324
X191.932Y-119.944
X194.1Y-47.6
X194.46Y-124.0
X194.46Y-131.62
X194.47Y-101.149
X194.47Y-108.769
X194.472Y-112.324
X194.472Y-119.944
X194.5Y-85.42
X194.5Y-95.58
X197.0Y-124.0
X197.0Y-131.62
X197.01Y-101.149
X197.01Y-108.769
X197.012Y-112.324
X197.012Y-119.944
X199.1Y-47.6
X199.17Y-63.25
X199.5Y-85.5
X199.5Y-95.66
X200.0Y-58.0
X204.5Y-85.5
X204.5Y-95.66
X205.0Y-58.0
X207.6Y-58.0
X207.72Y-47.8
X207.72Y-50.9
X209.33Y-63.25
X209.5Y-85.5
X209.5Y-95.66
X212.6Y-58.0
X214.5Y-85.5
X214.5Y-95.66
X217.88Y-47.8
X217.88Y-50.9
X219.5Y-85.5
X219.5Y-95.66
X221.24Y-123.919
X221.24Y-131.539
X223.78Y-123.919
X223.78Y-131.539
X224.0Y-69.64
X224.0Y-72.18
X224.0Y-74.72
X224.0Y-77.26
X224.0Y-79.8
X224.0Y-82.34
X224.0Y-84.88
X224.0Y-87.42
X224.0Y-89.96
X224.0Y-92.5
X226.32Y-123.919
X226.32Y-131.539
X228.861Y-123.919
X228.861Y-131.539
X231.4Y-123.919
X231.4Y-131.539
X231.62Y-69.64
X231.62Y-72.18
X231.62Y-74.72
X231.62Y-77.26
X231.62Y-79.8
X231.62Y-82.34
X231.62Y-84.88
X231.62Y-87.42
X231.62Y-89.96
X231.62Y-92.5
X233.94Y-123.919
X233.94Y-131.539
X234.0Y-57.75
X234.1Y-75.64
X234.1Y-83.9
X236.48Y-123.919
X236.48Y-131.539
X239.0Y-57.75
X239.02Y-123.919
X239.02Y-131.539
X239.1Y-75.64
X239.1Y-83.9
X250.16Y-49.0
X250.16Y-57.49
X250.2Y-65.79
X250.2Y-74.28
X250.2Y-82.5
X255.16Y-49.0
X255.16Y-57.49
X255.2Y-65.79
X255.2Y-74.28
X255.2Y-82.5
T5
X60.0Y-136.0
X60.0Y-140.5
X66.5Y-136.0
X66.5Y-140.5
X247.75Y-89.4
X247.75Y-93.9
X247.75Y-97.9
X247.75Y-102.4
X247.75Y-106.4
X247.75Y-110.9
X247.75Y-114.9
X247.75Y-119.4
X254.25Y-89.4
X254.25Y-93.9
X254.25Y-97.9
X254.25Y-102.4
X254.25Y-106.4
X254.25Y-110.9
X254.25Y-114.9
X254.25Y-119.4
T6
X94.75Y-93.797
X99.5Y-93.797
X104.25Y-93.797
T3
G00X61.68Y-40.25
M15
G01X61.68Y-39.65
M16
G05
G00X61.68Y-44.68
M15
G01X61.68Y-43.58
M16
G05
G00X70.32Y-40.25
M15
G01X70.32Y-39.65
M16
G05
G00X70.32Y-44.68
M15
G01X70.32Y-43.58
M16
G05
M30
