%TF.GenerationSoftware,KiCad,Pcbnew,9.0.6*%
%TF.CreationDate,2025-12-05T10:02:08+01:00*%
%TF.ProjectId,Z80DevBoard,5a383044-6576-4426-9f61-72642e6b6963,rev?*%
%TF.SameCoordinates,Original*%
%TF.FileFunction,Copper,L1,Top*%
%TF.FilePolarity,Positive*%
%FSLAX46Y46*%
G04 Gerber Fmt 4.6, Leading zero omitted, Abs format (unit mm)*
G04 Created by KiCad (PCBNEW 9.0.6) date 2025-12-05 10:02:08*
%MOMM*%
%LPD*%
G01*
G04 APERTURE LIST*
G04 Aperture macros list*
%AMRoundRect*
0 Rectangle with rounded corners*
0 $1 Rounding radius*
0 $2 $3 $4 $5 $6 $7 $8 $9 X,Y pos of 4 corners*
0 Add a 4 corners polygon primitive as box body*
4,1,4,$2,$3,$4,$5,$6,$7,$8,$9,$2,$3,0*
0 Add four circle primitives for the rounded corners*
1,1,$1+$1,$2,$3*
1,1,$1+$1,$4,$5*
1,1,$1+$1,$6,$7*
1,1,$1+$1,$8,$9*
0 Add four rect primitives between the rounded corners*
20,1,$1+$1,$2,$3,$4,$5,0*
20,1,$1+$1,$4,$5,$6,$7,0*
20,1,$1+$1,$6,$7,$8,$9,0*
20,1,$1+$1,$8,$9,$2,$3,0*%
G04 Aperture macros list end*
%TA.AperFunction,SMDPad,CuDef*%
%ADD10R,2.200000X1.600000*%
%TD*%
%TA.AperFunction,ComponentPad*%
%ADD11C,1.600000*%
%TD*%
%TA.AperFunction,SMDPad,CuDef*%
%ADD12RoundRect,0.100000X-0.637500X-0.100000X0.637500X-0.100000X0.637500X0.100000X-0.637500X0.100000X0*%
%TD*%
%TA.AperFunction,ComponentPad*%
%ADD13RoundRect,0.250000X0.550000X-0.550000X0.550000X0.550000X-0.550000X0.550000X-0.550000X-0.550000X0*%
%TD*%
%TA.AperFunction,SMDPad,CuDef*%
%ADD14R,2.200000X2.200000*%
%TD*%
%TA.AperFunction,SMDPad,CuDef*%
%ADD15R,1.250000X2.200000*%
%TD*%
%TA.AperFunction,SMDPad,CuDef*%
%ADD16R,1.600000X2.200000*%
%TD*%
%TA.AperFunction,SMDPad,CuDef*%
%ADD17RoundRect,0.150000X-0.150000X-0.200000X0.150000X-0.200000X0.150000X0.200000X-0.150000X0.200000X0*%
%TD*%
%TA.AperFunction,SMDPad,CuDef*%
%ADD18RoundRect,0.375000X-0.625000X-0.375000X0.625000X-0.375000X0.625000X0.375000X-0.625000X0.375000X0*%
%TD*%
%TA.AperFunction,SMDPad,CuDef*%
%ADD19RoundRect,0.500000X-0.500000X-1.400000X0.500000X-1.400000X0.500000X1.400000X-0.500000X1.400000X0*%
%TD*%
%TA.AperFunction,SMDPad,CuDef*%
%ADD20RoundRect,0.147500X0.147500X0.172500X-0.147500X0.172500X-0.147500X-0.172500X0.147500X-0.172500X0*%
%TD*%
%TA.AperFunction,ComponentPad*%
%ADD21C,2.000000*%
%TD*%
%TA.AperFunction,ComponentPad*%
%ADD22C,1.500000*%
%TD*%
%TA.AperFunction,SMDPad,CuDef*%
%ADD23RoundRect,0.075000X-0.075000X-0.300000X0.075000X-0.300000X0.075000X0.300000X-0.075000X0.300000X0*%
%TD*%
%TA.AperFunction,SMDPad,CuDef*%
%ADD24RoundRect,0.062500X-0.062500X-0.312500X0.062500X-0.312500X0.062500X0.312500X-0.062500X0.312500X0*%
%TD*%
%TA.AperFunction,HeatsinkPad*%
%ADD25O,0.950000X1.950000*%
%TD*%
%TA.AperFunction,HeatsinkPad*%
%ADD26O,0.950000X2.150000*%
%TD*%
%TA.AperFunction,SMDPad,CuDef*%
%ADD27RoundRect,0.050000X-0.387500X-0.050000X0.387500X-0.050000X0.387500X0.050000X-0.387500X0.050000X0*%
%TD*%
%TA.AperFunction,SMDPad,CuDef*%
%ADD28RoundRect,0.050000X-0.050000X-0.387500X0.050000X-0.387500X0.050000X0.387500X-0.050000X0.387500X0*%
%TD*%
%TA.AperFunction,HeatsinkPad*%
%ADD29R,3.200000X3.200000*%
%TD*%
%TA.AperFunction,ComponentPad*%
%ADD30RoundRect,0.250000X-0.550000X-0.550000X0.550000X-0.550000X0.550000X0.550000X-0.550000X0.550000X0*%
%TD*%
%TA.AperFunction,SMDPad,CuDef*%
%ADD31RoundRect,0.162500X-0.650000X-0.162500X0.650000X-0.162500X0.650000X0.162500X-0.650000X0.162500X0*%
%TD*%
%TA.AperFunction,ViaPad*%
%ADD32C,0.600000*%
%TD*%
%TA.AperFunction,Conductor*%
%ADD33C,0.200000*%
%TD*%
G04 APERTURE END LIST*
D10*
%TO.P,C8,1*%
%TO.N,GND*%
X66891500Y-54936000D03*
%TO.P,C8,2*%
%TO.N,Vdd_3v3*%
X69891500Y-54936000D03*
%TD*%
D11*
%TO.P,R8,1*%
%TO.N,Z80-MREQ*%
X110669500Y-131283000D03*
%TO.P,R8,2*%
%TO.N,Net-(D51-A)*%
X100509500Y-131283000D03*
%TD*%
D12*
%TO.P,DataBus2,1,DIR*%
%TO.N,RP2040-RWRAM-GPIO5-DIR*%
X247418000Y-124614000D03*
%TO.P,DataBus2,2,A1*%
%TO.N,Net-(D56-K)*%
X247418000Y-125264000D03*
%TO.P,DataBus2,3,A2*%
%TO.N,Net-(D61-K)*%
X247418000Y-125914000D03*
%TO.P,DataBus2,4,A3*%
%TO.N,Net-(D58-K)*%
X247418000Y-126564000D03*
%TO.P,DataBus2,5,A4*%
%TO.N,Net-(D62-K)*%
X247418000Y-127214000D03*
%TO.P,DataBus2,6,A5*%
%TO.N,Net-(D59-K)*%
X247418000Y-127864000D03*
%TO.P,DataBus2,7,A6*%
%TO.N,Net-(D63-K)*%
X247418000Y-128514000D03*
%TO.P,DataBus2,8,A7*%
%TO.N,Net-(D60-K)*%
X247418000Y-129164000D03*
%TO.P,DataBus2,9,A8*%
%TO.N,Net-(D64-K)*%
X247418000Y-129814000D03*
%TO.P,DataBus2,10,GND*%
%TO.N,GND*%
X247418000Y-130464000D03*
%TO.P,DataBus2,11,B8*%
%TO.N,RAM-Q7*%
X253143000Y-130464000D03*
%TO.P,DataBus2,12,B7*%
%TO.N,RAM-Q6*%
X253143000Y-129814000D03*
%TO.P,DataBus2,13,B6*%
%TO.N,RAM-Q5*%
X253143000Y-129164000D03*
%TO.P,DataBus2,14,B5*%
%TO.N,RAM-Q4*%
X253143000Y-128514000D03*
%TO.P,DataBus2,15,B4*%
%TO.N,RAM-Q3*%
X253143000Y-127864000D03*
%TO.P,DataBus2,16,B3*%
%TO.N,RAM-Q2*%
X253143000Y-127214000D03*
%TO.P,DataBus2,17,B2*%
%TO.N,RAM-Q1*%
X253143000Y-126564000D03*
%TO.P,DataBus2,18,B1*%
%TO.N,RAM-Q0*%
X253143000Y-125914000D03*
%TO.P,DataBus2,19,~{OE}*%
%TO.N,GND*%
X253143000Y-125264000D03*
%TO.P,DataBus2,20,VCC*%
%TO.N,Vcc*%
X253143000Y-124614000D03*
%TD*%
D11*
%TO.P,R11,1*%
%TO.N,Z80-BUSACK*%
X143349500Y-133783000D03*
%TO.P,R11,2*%
%TO.N,Net-(D1-A)*%
X153509500Y-133783000D03*
%TD*%
%TO.P,R12,1*%
%TO.N,GND*%
X52741500Y-53746000D03*
%TO.P,R12,2*%
%TO.N,USB-C-CC1*%
X52741500Y-43586000D03*
%TD*%
%TO.P,R27,1*%
%TO.N,Z80-D5*%
X79592500Y-110500000D03*
%TO.P,R27,2*%
%TO.N,Net-(D33-K)*%
X69432500Y-110500000D03*
%TD*%
D13*
%TO.P,ShiftRegisterIn2,1,~{PL}*%
%TO.N,RP2040-RWRAM-GPIO8-PL*%
X221240500Y-131539000D03*
D11*
%TO.P,ShiftRegisterIn2,2,CP*%
%TO.N,CLOCK*%
X223780500Y-131539000D03*
%TO.P,ShiftRegisterIn2,3,D4*%
%TO.N,Net-(D59-K)*%
X226320500Y-131539000D03*
%TO.P,ShiftRegisterIn2,4,D5*%
%TO.N,Net-(D63-K)*%
X228860500Y-131539000D03*
%TO.P,ShiftRegisterIn2,5,D6*%
%TO.N,Net-(D60-K)*%
X231400500Y-131539000D03*
%TO.P,ShiftRegisterIn2,6,D7*%
%TO.N,Net-(D64-K)*%
X233940500Y-131539000D03*
%TO.P,ShiftRegisterIn2,7,~{Q7}*%
%TO.N,unconnected-(ShiftRegisterIn2-~{Q7}-Pad7)*%
X236480500Y-131539000D03*
%TO.P,ShiftRegisterIn2,8,GND*%
%TO.N,GND*%
X239020500Y-131539000D03*
%TO.P,ShiftRegisterIn2,9,Q7*%
%TO.N,RP2040-RWRAM-GPIO7-Q7*%
X239020500Y-123919000D03*
%TO.P,ShiftRegisterIn2,10,DS*%
%TO.N,RP2040-RWRAM-GPIO6-DS*%
X236480500Y-123919000D03*
%TO.P,ShiftRegisterIn2,11,D0*%
%TO.N,Net-(D56-K)*%
X233940500Y-123919000D03*
%TO.P,ShiftRegisterIn2,12,D1*%
%TO.N,Net-(D61-K)*%
X231400500Y-123919000D03*
%TO.P,ShiftRegisterIn2,13,D2*%
%TO.N,Net-(D58-K)*%
X228860500Y-123919000D03*
%TO.P,ShiftRegisterIn2,14,D3*%
%TO.N,Net-(D62-K)*%
X226320500Y-123919000D03*
%TO.P,ShiftRegisterIn2,15,~{CE}*%
%TO.N,GND*%
X223780500Y-123919000D03*
%TO.P,ShiftRegisterIn2,16,VCC*%
%TO.N,Vdd_3v3*%
X221240500Y-123919000D03*
%TD*%
D14*
%TO.P,D22,1,K*%
%TO.N,RAM-A1*%
X161092500Y-106500000D03*
D15*
%TO.P,D22,2,A*%
%TO.N,Net-(D22-A)*%
X158817500Y-106500000D03*
%TD*%
D16*
%TO.P,C6,1*%
%TO.N,RP2040-VREG_VOUT*%
X193383950Y-43684000D03*
%TO.P,C6,2*%
%TO.N,Vdd_3v3*%
X193383950Y-40684000D03*
%TD*%
D11*
%TO.P,R15,1*%
%TO.N,FLASH-WP*%
X210304000Y-58031000D03*
%TO.P,R15,2*%
%TO.N,Vdd_3v3*%
X200144000Y-58031000D03*
%TD*%
%TO.P,R40,1*%
%TO.N,Net-(D8-A)*%
X151672500Y-110000000D03*
%TO.P,R40,2*%
%TO.N,Z80-A0*%
X141512500Y-110000000D03*
%TD*%
D17*
%TO.P,D60,1,K*%
%TO.N,Net-(D60-K)*%
X210791500Y-133928000D03*
%TO.P,D60,2,A*%
%TO.N,Net-(D60-A)*%
X209391500Y-133928000D03*
%TD*%
%TO.P,D62,1,K*%
%TO.N,Net-(D62-K)*%
X210791500Y-125783000D03*
%TO.P,D62,2,A*%
%TO.N,Net-(D62-A)*%
X209391500Y-125783000D03*
%TD*%
D14*
%TO.P,D18,1,K*%
%TO.N,RAM-A13*%
X95192500Y-90500000D03*
D15*
%TO.P,D18,2,A*%
%TO.N,Net-(D18-A)*%
X97467500Y-90500000D03*
%TD*%
D14*
%TO.P,D52,1,K*%
%TO.N,GND*%
X165909500Y-119000000D03*
D15*
%TO.P,D52,2,A*%
%TO.N,Net-(D52-A)*%
X163634500Y-119000000D03*
%TD*%
D14*
%TO.P,D45,1,K*%
%TO.N,GND*%
X88109500Y-126783000D03*
D15*
%TO.P,D45,2,A*%
%TO.N,Net-(D45-A)*%
X90384500Y-126783000D03*
%TD*%
D14*
%TO.P,D2,1,K*%
%TO.N,RAM-A6*%
X161092500Y-89000000D03*
D15*
%TO.P,D2,2,A*%
%TO.N,Net-(D2-A)*%
X158817500Y-89000000D03*
%TD*%
D18*
%TO.P,LDO1,1,GND*%
%TO.N,GND*%
X77091500Y-42786000D03*
%TO.P,LDO1,2,VO*%
%TO.N,Vdd_3v3*%
X77091500Y-45086000D03*
D19*
X83391500Y-45086000D03*
D18*
%TO.P,LDO1,3,VI*%
%TO.N,Vcc*%
X77091500Y-47386000D03*
%TD*%
D17*
%TO.P,D5,1,K*%
%TO.N,Net-(D5-K)*%
X210922900Y-72678000D03*
%TO.P,D5,2,A*%
%TO.N,Net-(D5-A)*%
X209522900Y-72678000D03*
%TD*%
%TO.P,D23,1,K*%
%TO.N,Net-(D23-K)*%
X210922900Y-104328000D03*
%TO.P,D23,2,A*%
%TO.N,Net-(D23-A)*%
X209522900Y-104328000D03*
%TD*%
D11*
%TO.P,R44,1*%
%TO.N,Net-(D26-A)*%
X151592500Y-103000000D03*
%TO.P,R44,2*%
%TO.N,Z80-A2*%
X141432500Y-103000000D03*
%TD*%
%TO.P,R46,1*%
%TO.N,Net-(D16-A)*%
X102092500Y-87000000D03*
%TO.P,R46,2*%
%TO.N,Z80-A12*%
X112252500Y-87000000D03*
%TD*%
D17*
%TO.P,D59,1,K*%
%TO.N,Net-(D59-K)*%
X210791500Y-128928000D03*
%TO.P,D59,2,A*%
%TO.N,Net-(D59-A)*%
X209391500Y-128928000D03*
%TD*%
D20*
%TO.P,F1,1*%
%TO.N,Vcc*%
X74726500Y-39586000D03*
%TO.P,F1,2*%
%TO.N,USB-C-VBUS*%
X73756500Y-39586000D03*
%TD*%
D14*
%TO.P,D12,1,K*%
%TO.N,RAM-A10*%
X161092500Y-75000000D03*
D15*
%TO.P,D12,2,A*%
%TO.N,Net-(D12-A)*%
X158817500Y-75000000D03*
%TD*%
D11*
%TO.P,R6,1*%
%TO.N,Z80-RESET*%
X143429500Y-123283000D03*
%TO.P,R6,2*%
%TO.N,Vcc*%
X153589500Y-123283000D03*
%TD*%
%TO.P,R25,1*%
%TO.N,Z80-D0*%
X79752500Y-68000000D03*
%TO.P,R25,2*%
%TO.N,Net-(D31-K)*%
X69592500Y-68000000D03*
%TD*%
D17*
%TO.P,D29,1,K*%
%TO.N,Net-(D29-K)*%
X210922900Y-101828000D03*
%TO.P,D29,2,A*%
%TO.N,Net-(D29-A)*%
X209522900Y-101828000D03*
%TD*%
D14*
%TO.P,D55,1,K*%
%TO.N,RAM-WE*%
X165909500Y-129783000D03*
D15*
%TO.P,D55,2,A*%
%TO.N,Net-(D55-A)*%
X163634500Y-129783000D03*
%TD*%
D11*
%TO.P,R17,1*%
%TO.N,RP2040-Z80BOOTMODE*%
X168551500Y-59436000D03*
%TO.P,R17,2*%
%TO.N,Vdd_3v3*%
X158391500Y-59436000D03*
%TD*%
%TO.P,R26,1*%
%TO.N,Z80-D1*%
X79752500Y-76500000D03*
%TO.P,R26,2*%
%TO.N,Net-(D35-K)*%
X69592500Y-76500000D03*
%TD*%
%TO.P,R21,1*%
%TO.N,Z80-WR*%
X143432500Y-137500000D03*
%TO.P,R21,2*%
%TO.N,Net-(D55-A)*%
X153592500Y-137500000D03*
%TD*%
D14*
%TO.P,D36,1,K*%
%TO.N,Net-(D35-A)*%
X60162000Y-76435500D03*
D15*
%TO.P,D36,2,A*%
%TO.N,Net-(D35-K)*%
X62437000Y-76435500D03*
%TD*%
D14*
%TO.P,D1,1,K*%
%TO.N,GND*%
X165909500Y-126283000D03*
D15*
%TO.P,D1,2,A*%
%TO.N,Net-(D1-A)*%
X163634500Y-126283000D03*
%TD*%
D14*
%TO.P,D30,1,K*%
%TO.N,RAM-A4*%
X161092500Y-96000000D03*
D15*
%TO.P,D30,2,A*%
%TO.N,Net-(D30-A)*%
X158817500Y-96000000D03*
%TD*%
D12*
%TO.P,DataBus3,1,DIR*%
%TO.N,Vcc*%
X221660400Y-75503000D03*
%TO.P,DataBus3,2,A1*%
%TO.N,Net-(D3-K)*%
X221660400Y-76153000D03*
%TO.P,DataBus3,3,A2*%
%TO.N,Net-(D5-K)*%
X221660400Y-76803000D03*
%TO.P,DataBus3,4,A3*%
%TO.N,Net-(D7-K)*%
X221660400Y-77453000D03*
%TO.P,DataBus3,5,A4*%
%TO.N,Net-(D9-K)*%
X221660400Y-78103000D03*
%TO.P,DataBus3,6,A5*%
%TO.N,Net-(D11-K)*%
X221660400Y-78753000D03*
%TO.P,DataBus3,7,A6*%
%TO.N,Net-(D13-K)*%
X221660400Y-79403000D03*
%TO.P,DataBus3,8,A7*%
%TO.N,Net-(D15-K)*%
X221660400Y-80053000D03*
%TO.P,DataBus3,9,A8*%
%TO.N,Net-(D17-K)*%
X221660400Y-80703000D03*
%TO.P,DataBus3,10,GND*%
%TO.N,GND*%
X221660400Y-81353000D03*
%TO.P,DataBus3,11,B8*%
%TO.N,RAM-A7*%
X227385400Y-81353000D03*
%TO.P,DataBus3,12,B7*%
%TO.N,RAM-A6*%
X227385400Y-80703000D03*
%TO.P,DataBus3,13,B6*%
%TO.N,RAM-A5*%
X227385400Y-80053000D03*
%TO.P,DataBus3,14,B5*%
%TO.N,RAM-A4*%
X227385400Y-79403000D03*
%TO.P,DataBus3,15,B4*%
%TO.N,RAM-A3*%
X227385400Y-78753000D03*
%TO.P,DataBus3,16,B3*%
%TO.N,RAM-A2*%
X227385400Y-78103000D03*
%TO.P,DataBus3,17,B2*%
%TO.N,RAM-A1*%
X227385400Y-77453000D03*
%TO.P,DataBus3,18,B1*%
%TO.N,RAM-A0*%
X227385400Y-76803000D03*
%TO.P,DataBus3,19,~{OE}*%
%TO.N,GND*%
X227385400Y-76153000D03*
%TO.P,DataBus3,20,VCC*%
%TO.N,Vcc*%
X227385400Y-75503000D03*
%TD*%
D17*
%TO.P,D15,1,K*%
%TO.N,Net-(D15-K)*%
X210922900Y-84928000D03*
%TO.P,D15,2,A*%
%TO.N,Net-(D15-A)*%
X209522900Y-84928000D03*
%TD*%
D11*
%TO.P,R16,1*%
%TO.N,FLASH-HOLD{slash}RESET*%
X229724000Y-57031000D03*
%TO.P,R16,2*%
%TO.N,Vdd_3v3*%
X239884000Y-57031000D03*
%TD*%
D14*
%TO.P,D51,1,K*%
%TO.N,GND*%
X88109500Y-130783000D03*
D15*
%TO.P,D51,2,A*%
%TO.N,Net-(D51-A)*%
X90384500Y-130783000D03*
%TD*%
D11*
%TO.P,R9,1*%
%TO.N,Z80-M1*%
X143429500Y-119783000D03*
%TO.P,R9,2*%
%TO.N,Net-(D52-A)*%
X153589500Y-119783000D03*
%TD*%
D10*
%TO.P,C1,1*%
%TO.N,GND*%
X72891500Y-54936000D03*
%TO.P,C1,2*%
%TO.N,Vcc*%
X75891500Y-54936000D03*
%TD*%
D11*
%TO.P,R35,1*%
%TO.N,Net-(D43-A)*%
X52592500Y-97000000D03*
%TO.P,R35,2*%
%TO.N,RAM-Q3*%
X42432500Y-97000000D03*
%TD*%
%TO.P,R43,1*%
%TO.N,Net-(D14-A)*%
X102092500Y-83500000D03*
%TO.P,R43,2*%
%TO.N,Z80-A11*%
X112252500Y-83500000D03*
%TD*%
D12*
%TO.P,DataBus1,1,DIR*%
%TO.N,Vcc*%
X221660400Y-99503000D03*
%TO.P,DataBus1,2,A1*%
%TO.N,Net-(D19-K)*%
X221660400Y-100153000D03*
%TO.P,DataBus1,3,A2*%
%TO.N,Net-(D27-K)*%
X221660400Y-100803000D03*
%TO.P,DataBus1,4,A3*%
%TO.N,Net-(D21-K)*%
X221660400Y-101453000D03*
%TO.P,DataBus1,5,A4*%
%TO.N,Net-(D29-K)*%
X221660400Y-102103000D03*
%TO.P,DataBus1,6,A5*%
%TO.N,Net-(D23-K)*%
X221660400Y-102753000D03*
%TO.P,DataBus1,7,A6*%
%TO.N,Net-(D46-K)*%
X221660400Y-103403000D03*
%TO.P,DataBus1,8,A7*%
%TO.N,Net-(D25-K)*%
X221660400Y-104053000D03*
%TO.P,DataBus1,9,A8*%
%TO.N,Net-(D54-K)*%
X221660400Y-104703000D03*
%TO.P,DataBus1,10,GND*%
%TO.N,GND*%
X221660400Y-105353000D03*
%TO.P,DataBus1,11,B8*%
%TO.N,unconnected-(DataBus1-B8-Pad11)*%
X227385400Y-105353000D03*
%TO.P,DataBus1,12,B7*%
%TO.N,RAM-A14*%
X227385400Y-104703000D03*
%TO.P,DataBus1,13,B6*%
%TO.N,RAM-A13*%
X227385400Y-104053000D03*
%TO.P,DataBus1,14,B5*%
%TO.N,RAM-A12*%
X227385400Y-103403000D03*
%TO.P,DataBus1,15,B4*%
%TO.N,RAM-A11*%
X227385400Y-102753000D03*
%TO.P,DataBus1,16,B3*%
%TO.N,RAM-A10*%
X227385400Y-102103000D03*
%TO.P,DataBus1,17,B2*%
%TO.N,RAM-A9*%
X227385400Y-101453000D03*
%TO.P,DataBus1,18,B1*%
%TO.N,RAM-A8*%
X227385400Y-100803000D03*
%TO.P,DataBus1,19,~{OE}*%
%TO.N,GND*%
X227385400Y-100153000D03*
%TO.P,DataBus1,20,VCC*%
%TO.N,Vcc*%
X227385400Y-99503000D03*
%TD*%
D21*
%TO.P,SW1,1,1*%
%TO.N,GND*%
X245583950Y-102434000D03*
X252083950Y-102434000D03*
%TO.P,SW1,2,2*%
%TO.N,Z80-WAIT*%
X245583950Y-106934000D03*
X252083950Y-106934000D03*
%TD*%
D11*
%TO.P,R36,1*%
%TO.N,Z80-D3*%
X79752500Y-93500000D03*
%TO.P,R36,2*%
%TO.N,Net-(D43-K)*%
X69592500Y-93500000D03*
%TD*%
D17*
%TO.P,D61,1,K*%
%TO.N,Net-(D61-K)*%
X210791500Y-120783000D03*
%TO.P,D61,2,A*%
%TO.N,Net-(D61-A)*%
X209391500Y-120783000D03*
%TD*%
D14*
%TO.P,D33,1,K*%
%TO.N,Net-(D33-K)*%
X61987000Y-113935500D03*
D15*
%TO.P,D33,2,A*%
%TO.N,Net-(D33-A)*%
X59712000Y-113935500D03*
%TD*%
D11*
%TO.P,R10,1*%
%TO.N,Z80-RFSH*%
X143429500Y-116283000D03*
%TO.P,R10,2*%
%TO.N,Net-(D53-A)*%
X153589500Y-116283000D03*
%TD*%
D16*
%TO.P,C5,1*%
%TO.N,RP2040-USB_VDD*%
X188533950Y-43684000D03*
%TO.P,C5,2*%
%TO.N,Vdd_3v3*%
X188533950Y-40684000D03*
%TD*%
D17*
%TO.P,D3,1,K*%
%TO.N,Net-(D3-K)*%
X210922900Y-70228000D03*
%TO.P,D3,2,A*%
%TO.N,Net-(D3-A)*%
X209522900Y-70228000D03*
%TD*%
D13*
%TO.P,ShiftRegisterOut3,1,QB*%
%TO.N,Net-(D5-A)*%
X180411900Y-82539000D03*
D11*
%TO.P,ShiftRegisterOut3,2,QC*%
%TO.N,Net-(D7-A)*%
X182951900Y-82539000D03*
%TO.P,ShiftRegisterOut3,3,QD*%
%TO.N,Net-(D9-A)*%
X185491900Y-82539000D03*
%TO.P,ShiftRegisterOut3,4,QE*%
%TO.N,Net-(D11-A)*%
X188031900Y-82539000D03*
%TO.P,ShiftRegisterOut3,5,QF*%
%TO.N,Net-(D13-A)*%
X190571900Y-82539000D03*
%TO.P,ShiftRegisterOut3,6,QG*%
%TO.N,Net-(D15-A)*%
X193111900Y-82539000D03*
%TO.P,ShiftRegisterOut3,7,QH*%
%TO.N,Net-(D17-A)*%
X195651900Y-82539000D03*
%TO.P,ShiftRegisterOut3,8,GND*%
%TO.N,GND*%
X198191900Y-82539000D03*
%TO.P,ShiftRegisterOut3,9,QH'*%
%TO.N,Net-(ShiftRegisterOut1-SER)*%
X198191900Y-74919000D03*
%TO.P,ShiftRegisterOut3,10,~{SRCLR}*%
%TO.N,Vdd_3v3*%
X195651900Y-74919000D03*
%TO.P,ShiftRegisterOut3,11,SRCLK*%
%TO.N,CLOCK*%
X193111900Y-74919000D03*
%TO.P,ShiftRegisterOut3,12,RCLK*%
%TO.N,RP2040-SH-GPIO4-RCLK*%
X190571900Y-74919000D03*
%TO.P,ShiftRegisterOut3,13,~{OE}*%
%TO.N,GND*%
X188031900Y-74919000D03*
%TO.P,ShiftRegisterOut3,14,SER*%
%TO.N,RP2040-SH-GPIO2-SER*%
X185491900Y-74919000D03*
%TO.P,ShiftRegisterOut3,15,QA*%
%TO.N,Net-(D3-A)*%
X182951900Y-74919000D03*
%TO.P,ShiftRegisterOut3,16,VCC*%
%TO.N,Vdd_3v3*%
X180411900Y-74919000D03*
%TD*%
D17*
%TO.P,D56,1,K*%
%TO.N,Net-(D56-K)*%
X210791500Y-118283000D03*
%TO.P,D56,2,A*%
%TO.N,Net-(D56-A)*%
X209391500Y-118283000D03*
%TD*%
D11*
%TO.P,R2,1*%
%TO.N,Vcc*%
X100429500Y-120783000D03*
%TO.P,R2,2*%
%TO.N,Z80-INT*%
X110589500Y-120783000D03*
%TD*%
D22*
%TO.P,O1,1,-*%
%TO.N,CLOCK*%
X77213950Y-136684000D03*
%TO.P,O1,2,+*%
%TO.N,Vdd_3v3*%
X72333950Y-136684000D03*
%TD*%
D10*
%TO.P,C2,1*%
%TO.N,GND*%
X78891500Y-54936000D03*
%TO.P,C2,2*%
%TO.N,Vdd_3v3*%
X81891500Y-54936000D03*
%TD*%
D11*
%TO.P,R4,1*%
%TO.N,Z80-HALT*%
X110589500Y-127783000D03*
%TO.P,R4,2*%
%TO.N,Net-(D45-A)*%
X100429500Y-127783000D03*
%TD*%
D14*
%TO.P,D38,1,K*%
%TO.N,Net-(D37-A)*%
X60187000Y-118935500D03*
D15*
%TO.P,D38,2,A*%
%TO.N,Net-(D37-K)*%
X62462000Y-118935500D03*
%TD*%
D21*
%TO.P,SW2,1,1*%
%TO.N,GND*%
X245583950Y-94184000D03*
X252083950Y-94184000D03*
%TO.P,SW2,2,2*%
%TO.N,Z80-RESET*%
X245583950Y-98684000D03*
X252083950Y-98684000D03*
%TD*%
D14*
%TO.P,D41,1,K*%
%TO.N,Net-(D41-K)*%
X62062000Y-130935500D03*
D15*
%TO.P,D41,2,A*%
%TO.N,Net-(D41-A)*%
X59787000Y-130935500D03*
%TD*%
D11*
%TO.P,R41,1*%
%TO.N,Net-(D22-A)*%
X151592500Y-106500000D03*
%TO.P,R41,2*%
%TO.N,Z80-A1*%
X141432500Y-106500000D03*
%TD*%
%TO.P,R37,1*%
%TO.N,Z80-D7*%
X79752500Y-127500000D03*
%TO.P,R37,2*%
%TO.N,Net-(D41-K)*%
X69592500Y-127500000D03*
%TD*%
D14*
%TO.P,D50,1,K*%
%TO.N,GND*%
X88109500Y-134783000D03*
D15*
%TO.P,D50,2,A*%
%TO.N,Net-(D50-A)*%
X90384500Y-134783000D03*
%TD*%
D11*
%TO.P,R31,1*%
%TO.N,Net-(D37-A)*%
X52592500Y-122500000D03*
%TO.P,R31,2*%
%TO.N,RAM-Q6*%
X42432500Y-122500000D03*
%TD*%
D14*
%TO.P,D40,1,K*%
%TO.N,Net-(D39-A)*%
X60162000Y-84935500D03*
D15*
%TO.P,D40,2,A*%
%TO.N,Net-(D39-K)*%
X62437000Y-84935500D03*
%TD*%
D14*
%TO.P,D43,1,K*%
%TO.N,Net-(D43-K)*%
X61962000Y-96935500D03*
D15*
%TO.P,D43,2,A*%
%TO.N,Net-(D43-A)*%
X59687000Y-96935500D03*
%TD*%
D14*
%TO.P,D39,1,K*%
%TO.N,Net-(D39-K)*%
X61962000Y-88435500D03*
D15*
%TO.P,D39,2,A*%
%TO.N,Net-(D39-A)*%
X59687000Y-88435500D03*
%TD*%
D14*
%TO.P,D4,1,K*%
%TO.N,RAM-A7*%
X161092500Y-85500000D03*
D15*
%TO.P,D4,2,A*%
%TO.N,Net-(D4-A)*%
X158817500Y-85500000D03*
%TD*%
D17*
%TO.P,D25,1,K*%
%TO.N,Net-(D25-K)*%
X210922900Y-109328000D03*
%TO.P,D25,2,A*%
%TO.N,Net-(D25-A)*%
X209522900Y-109328000D03*
%TD*%
D11*
%TO.P,R30,1*%
%TO.N,Net-(D39-A)*%
X52592500Y-88500000D03*
%TO.P,R30,2*%
%TO.N,RAM-Q2*%
X42432500Y-88500000D03*
%TD*%
D16*
%TO.P,C4,1*%
%TO.N,RP2040-IOVDD*%
X183683950Y-43684000D03*
%TO.P,C4,2*%
%TO.N,Vdd_3v3*%
X183683950Y-40684000D03*
%TD*%
D11*
%TO.P,R28,1*%
%TO.N,Net-(D33-A)*%
X52592500Y-114000000D03*
%TO.P,R28,2*%
%TO.N,RAM-Q5*%
X42432500Y-114000000D03*
%TD*%
%TO.P,R24,1*%
%TO.N,Z80-D4*%
X79752500Y-102000000D03*
%TO.P,R24,2*%
%TO.N,Net-(D47-K)*%
X69592500Y-102000000D03*
%TD*%
%TO.P,R48,1*%
%TO.N,Net-(D6-A)*%
X151592500Y-82000000D03*
%TO.P,R48,2*%
%TO.N,Z80-A8*%
X141432500Y-82000000D03*
%TD*%
D23*
%TO.P,USB_C1,A1,GND*%
%TO.N,GND*%
X63341500Y-40386000D03*
D24*
X63841500Y-40386000D03*
D23*
X70441500Y-40386000D03*
D24*
%TO.P,USB_C1,A4,VBUS*%
%TO.N,USB-C-VBUS*%
X65641500Y-40386000D03*
%TO.P,USB_C1,A5,CC1*%
%TO.N,USB-C-CC1*%
X66141500Y-40386000D03*
%TO.P,USB_C1,A6,D+*%
%TO.N,USB-RP2040-DP*%
X66641500Y-40386000D03*
%TO.P,USB_C1,A7,D-*%
%TO.N,USB-RP2040-DM*%
X67141500Y-40386000D03*
%TO.P,USB_C1,A8*%
%TO.N,N/C*%
X67641500Y-40386000D03*
%TO.P,USB_C1,A9,VBUS*%
%TO.N,USB-C-VBUS*%
X68141500Y-40386000D03*
%TO.P,USB_C1,A12,GND*%
%TO.N,GND*%
X69941500Y-40386000D03*
%TO.P,USB_C1,B1,GND*%
X69891500Y-41636000D03*
%TO.P,USB_C1,B4,VBUS*%
%TO.N,USB-C-VBUS*%
X68391500Y-41636000D03*
%TO.P,USB_C1,B5,CC2*%
%TO.N,USB-C-CC2*%
X67891500Y-41636000D03*
%TO.P,USB_C1,B6,D+*%
%TO.N,USB-RP2040-DP*%
X67391500Y-41636000D03*
%TO.P,USB_C1,B7,D-*%
%TO.N,USB-RP2040-DM*%
X66391500Y-41636000D03*
%TO.P,USB_C1,B8*%
%TO.N,N/C*%
X65891500Y-41636000D03*
%TO.P,USB_C1,B9,VBUS*%
%TO.N,USB-C-VBUS*%
X65391500Y-41636000D03*
%TO.P,USB_C1,B12,GND*%
%TO.N,GND*%
X63891500Y-41636000D03*
D25*
%TO.P,USB_C1,S1,SHIELD*%
%TO.N,Net-(USB_C1-SHIELD)*%
X62441500Y-40561000D03*
D26*
X62441500Y-43761000D03*
D25*
X71341500Y-40561000D03*
D26*
X71341500Y-43761000D03*
%TD*%
D11*
%TO.P,R23,1*%
%TO.N,Net-(D47-A)*%
X52592500Y-105500000D03*
%TO.P,R23,2*%
%TO.N,RAM-Q4*%
X42432500Y-105500000D03*
%TD*%
%TO.P,R5,1*%
%TO.N,Z80-WAIT*%
X143349500Y-130283000D03*
%TO.P,R5,2*%
%TO.N,Vcc*%
X153509500Y-130283000D03*
%TD*%
D14*
%TO.P,D8,1,K*%
%TO.N,RAM-A0*%
X161092500Y-110000000D03*
D15*
%TO.P,D8,2,A*%
%TO.N,Net-(D8-A)*%
X158817500Y-110000000D03*
%TD*%
D17*
%TO.P,D19,1,K*%
%TO.N,Net-(D19-K)*%
X210922900Y-94428000D03*
%TO.P,D19,2,A*%
%TO.N,Net-(D19-A)*%
X209522900Y-94428000D03*
%TD*%
%TO.P,D21,1,K*%
%TO.N,Net-(D21-K)*%
X210922900Y-99328000D03*
%TO.P,D21,2,A*%
%TO.N,Net-(D21-A)*%
X209522900Y-99328000D03*
%TD*%
D14*
%TO.P,D49,1,K*%
%TO.N,RAM-OE*%
X165909500Y-133283000D03*
D15*
%TO.P,D49,2,A*%
%TO.N,Net-(D49-A)*%
X163634500Y-133283000D03*
%TD*%
D21*
%TO.P,SW3,1,1*%
%TO.N,GND*%
X247833950Y-41184000D03*
X254333950Y-41184000D03*
%TO.P,SW3,2,2*%
%TO.N,RP2040-Z80BOOTMODE*%
X247833950Y-45684000D03*
X254333950Y-45684000D03*
%TD*%
D11*
%TO.P,R42,1*%
%TO.N,Net-(D2-A)*%
X151592500Y-89000000D03*
%TO.P,R42,2*%
%TO.N,Z80-A6*%
X141432500Y-89000000D03*
%TD*%
D17*
%TO.P,D17,1,K*%
%TO.N,Net-(D17-K)*%
X210922900Y-87428000D03*
%TO.P,D17,2,A*%
%TO.N,Net-(D17-A)*%
X209522900Y-87428000D03*
%TD*%
D11*
%TO.P,R52,1*%
%TO.N,Net-(D20-A)*%
X102092500Y-94000000D03*
%TO.P,R52,2*%
%TO.N,Z80-A14*%
X112252500Y-94000000D03*
%TD*%
%TO.P,R38,1*%
%TO.N,Net-(D12-A)*%
X151592500Y-75000000D03*
%TO.P,R38,2*%
%TO.N,Z80-A10*%
X141432500Y-75000000D03*
%TD*%
D14*
%TO.P,D35,1,K*%
%TO.N,Net-(D35-K)*%
X61937000Y-79935500D03*
D15*
%TO.P,D35,2,A*%
%TO.N,Net-(D35-A)*%
X59662000Y-79935500D03*
%TD*%
D14*
%TO.P,D16,1,K*%
%TO.N,RAM-A12*%
X95192500Y-87000000D03*
D15*
%TO.P,D16,2,A*%
%TO.N,Net-(D16-A)*%
X97467500Y-87000000D03*
%TD*%
D11*
%TO.P,R7,1*%
%TO.N,Z80-IORQ*%
X110589500Y-134783000D03*
%TO.P,R7,2*%
%TO.N,Net-(D50-A)*%
X100429500Y-134783000D03*
%TD*%
D14*
%TO.P,D53,1,K*%
%TO.N,GND*%
X165909500Y-115500000D03*
D15*
%TO.P,D53,2,A*%
%TO.N,Net-(D53-A)*%
X163634500Y-115500000D03*
%TD*%
D11*
%TO.P,R13,1*%
%TO.N,USB-C-CC2*%
X46741500Y-43586000D03*
%TO.P,R13,2*%
%TO.N,GND*%
X46741500Y-53746000D03*
%TD*%
%TO.P,R32,1*%
%TO.N,Z80-D2*%
X79752500Y-85000000D03*
%TO.P,R32,2*%
%TO.N,Net-(D39-K)*%
X69592500Y-85000000D03*
%TD*%
D17*
%TO.P,D9,1,K*%
%TO.N,Net-(D9-K)*%
X210922900Y-77578000D03*
%TO.P,D9,2,A*%
%TO.N,Net-(D9-A)*%
X209522900Y-77578000D03*
%TD*%
D14*
%TO.P,D37,1,K*%
%TO.N,Net-(D37-K)*%
X61987000Y-122435500D03*
D15*
%TO.P,D37,2,A*%
%TO.N,Net-(D37-A)*%
X59712000Y-122435500D03*
%TD*%
D11*
%TO.P,R45,1*%
%TO.N,Net-(D4-A)*%
X151592500Y-85500000D03*
%TO.P,R45,2*%
%TO.N,Z80-A7*%
X141432500Y-85500000D03*
%TD*%
D17*
%TO.P,D63,1,K*%
%TO.N,Net-(D63-K)*%
X210791500Y-131428000D03*
%TO.P,D63,2,A*%
%TO.N,Net-(D63-A)*%
X209391500Y-131428000D03*
%TD*%
D11*
%TO.P,R49,1*%
%TO.N,Net-(D18-A)*%
X102092500Y-90500000D03*
%TO.P,R49,2*%
%TO.N,Z80-A13*%
X112252500Y-90500000D03*
%TD*%
%TO.P,R33,1*%
%TO.N,Z80-D6*%
X79752500Y-119000000D03*
%TO.P,R33,2*%
%TO.N,Net-(D37-K)*%
X69592500Y-119000000D03*
%TD*%
%TO.P,R22,1*%
%TO.N,Net-(D31-A)*%
X52592500Y-71500000D03*
%TO.P,R22,2*%
%TO.N,RAM-Q0*%
X42432500Y-71500000D03*
%TD*%
%TO.P,R14,1*%
%TO.N,GND*%
X58391500Y-53786000D03*
%TO.P,R14,2*%
%TO.N,Net-(USB_C1-SHIELD)*%
X58391500Y-43626000D03*
%TD*%
D14*
%TO.P,D10,1,K*%
%TO.N,RAM-A5*%
X161092500Y-92500000D03*
D15*
%TO.P,D10,2,A*%
%TO.N,Net-(D10-A)*%
X158817500Y-92500000D03*
%TD*%
D17*
%TO.P,D58,1,K*%
%TO.N,Net-(D58-K)*%
X210791500Y-123283000D03*
%TO.P,D58,2,A*%
%TO.N,Net-(D58-A)*%
X209391500Y-123283000D03*
%TD*%
D11*
%TO.P,R3,1*%
%TO.N,Z80-NMI*%
X110589500Y-124283000D03*
%TO.P,R3,2*%
%TO.N,Vcc*%
X100429500Y-124283000D03*
%TD*%
D17*
%TO.P,D27,1,K*%
%TO.N,Net-(D27-K)*%
X210922900Y-96828000D03*
%TO.P,D27,2,A*%
%TO.N,Net-(D27-A)*%
X209522900Y-96828000D03*
%TD*%
D14*
%TO.P,D24,1,K*%
%TO.N,RAM-A9*%
X161092500Y-78500000D03*
D15*
%TO.P,D24,2,A*%
%TO.N,Net-(D24-A)*%
X158817500Y-78500000D03*
%TD*%
D13*
%TO.P,ShiftRegisterOut2,1,QB*%
%TO.N,Net-(D61-A)*%
X180740500Y-131039000D03*
D11*
%TO.P,ShiftRegisterOut2,2,QC*%
%TO.N,Net-(D58-A)*%
X183280500Y-131039000D03*
%TO.P,ShiftRegisterOut2,3,QD*%
%TO.N,Net-(D62-A)*%
X185820500Y-131039000D03*
%TO.P,ShiftRegisterOut2,4,QE*%
%TO.N,Net-(D59-A)*%
X188360500Y-131039000D03*
%TO.P,ShiftRegisterOut2,5,QF*%
%TO.N,Net-(D63-A)*%
X190900500Y-131039000D03*
%TO.P,ShiftRegisterOut2,6,QG*%
%TO.N,Net-(D60-A)*%
X193440500Y-131039000D03*
%TO.P,ShiftRegisterOut2,7,QH*%
%TO.N,Net-(D64-A)*%
X195980500Y-131039000D03*
%TO.P,ShiftRegisterOut2,8,GND*%
%TO.N,GND*%
X198520500Y-131039000D03*
%TO.P,ShiftRegisterOut2,9,QH'*%
%TO.N,unconnected-(ShiftRegisterOut2-QH'-Pad9)*%
X198520500Y-123419000D03*
%TO.P,ShiftRegisterOut2,10,~{SRCLR}*%
%TO.N,Vdd_3v3*%
X195980500Y-123419000D03*
%TO.P,ShiftRegisterOut2,11,SRCLK*%
%TO.N,CLOCK*%
X193440500Y-123419000D03*
%TO.P,ShiftRegisterOut2,12,RCLK*%
%TO.N,RP2040-SH-GPIO3-RCLK*%
X190900500Y-123419000D03*
%TO.P,ShiftRegisterOut2,13,~{OE}*%
%TO.N,GND*%
X188360500Y-123419000D03*
%TO.P,ShiftRegisterOut2,14,SER*%
%TO.N,RP2040-SH-GPIO3-SER*%
X185820500Y-123419000D03*
%TO.P,ShiftRegisterOut2,15,QA*%
%TO.N,Net-(D56-A)*%
X183280500Y-123419000D03*
%TO.P,ShiftRegisterOut2,16,VCC*%
%TO.N,Vdd_3v3*%
X180740500Y-123419000D03*
%TD*%
%TO.P,R29,1*%
%TO.N,Net-(D35-A)*%
X52592500Y-80000000D03*
%TO.P,R29,2*%
%TO.N,RAM-Q1*%
X42432500Y-80000000D03*
%TD*%
D14*
%TO.P,D47,1,K*%
%TO.N,Net-(D47-K)*%
X61962000Y-105435500D03*
D15*
%TO.P,D47,2,A*%
%TO.N,Net-(D47-A)*%
X59687000Y-105435500D03*
%TD*%
D13*
%TO.P,ShiftRegisterOut1,1,QB*%
%TO.N,Net-(D27-A)*%
X180131900Y-106344000D03*
D11*
%TO.P,ShiftRegisterOut1,2,QC*%
%TO.N,Net-(D21-A)*%
X182671900Y-106344000D03*
%TO.P,ShiftRegisterOut1,3,QD*%
%TO.N,Net-(D29-A)*%
X185211900Y-106344000D03*
%TO.P,ShiftRegisterOut1,4,QE*%
%TO.N,Net-(D23-A)*%
X187751900Y-106344000D03*
%TO.P,ShiftRegisterOut1,5,QF*%
%TO.N,Net-(D46-A)*%
X190291900Y-106344000D03*
%TO.P,ShiftRegisterOut1,6,QG*%
%TO.N,Net-(D25-A)*%
X192831900Y-106344000D03*
%TO.P,ShiftRegisterOut1,7,QH*%
%TO.N,Net-(D54-A)*%
X195371900Y-106344000D03*
%TO.P,ShiftRegisterOut1,8,GND*%
%TO.N,GND*%
X197911900Y-106344000D03*
%TO.P,ShiftRegisterOut1,9,QH'*%
%TO.N,unconnected-(ShiftRegisterOut1-QH'-Pad9)*%
X197911900Y-98724000D03*
%TO.P,ShiftRegisterOut1,10,~{SRCLR}*%
%TO.N,Vdd_3v3*%
X195371900Y-98724000D03*
%TO.P,ShiftRegisterOut1,11,SRCLK*%
%TO.N,CLOCK*%
X192831900Y-98724000D03*
%TO.P,ShiftRegisterOut1,12,RCLK*%
%TO.N,RP2040-SH-GPIO4-RCLK*%
X190291900Y-98724000D03*
%TO.P,ShiftRegisterOut1,13,~{OE}*%
%TO.N,GND*%
X187751900Y-98724000D03*
%TO.P,ShiftRegisterOut1,14,SER*%
%TO.N,Net-(ShiftRegisterOut1-SER)*%
X185211900Y-98724000D03*
%TO.P,ShiftRegisterOut1,15,QA*%
%TO.N,Net-(D19-A)*%
X182671900Y-98724000D03*
%TO.P,ShiftRegisterOut1,16,VCC*%
%TO.N,Vdd_3v3*%
X180131900Y-98724000D03*
%TD*%
D21*
%TO.P,SW4,1,1*%
%TO.N,GND*%
X247833950Y-49734000D03*
X254333950Y-49734000D03*
%TO.P,SW4,2,2*%
%TO.N,RP2040-RPBOOTMODE*%
X247833950Y-54234000D03*
X254333950Y-54234000D03*
%TD*%
D13*
%TO.P,RAM1,1,A14*%
%TO.N,RAM-A14*%
X93232500Y-63500000D03*
D11*
%TO.P,RAM1,2,A12*%
%TO.N,RAM-A12*%
X95772500Y-63500000D03*
%TO.P,RAM1,3,A7*%
%TO.N,RAM-A7*%
X98312500Y-63500000D03*
%TO.P,RAM1,4,A6*%
%TO.N,RAM-A6*%
X100852500Y-63500000D03*
%TO.P,RAM1,5,A5*%
%TO.N,RAM-A5*%
X103392500Y-63500000D03*
%TO.P,RAM1,6,A4*%
%TO.N,RAM-A4*%
X105932500Y-63500000D03*
%TO.P,RAM1,7,A3*%
%TO.N,RAM-A3*%
X108472500Y-63500000D03*
%TO.P,RAM1,8,A2*%
%TO.N,RAM-A2*%
X111012500Y-63500000D03*
%TO.P,RAM1,9,A1*%
%TO.N,RAM-A1*%
X113552500Y-63500000D03*
%TO.P,RAM1,10,A0*%
%TO.N,RAM-A0*%
X116092500Y-63500000D03*
%TO.P,RAM1,11,Q0*%
%TO.N,RAM-Q0*%
X118632500Y-63500000D03*
%TO.P,RAM1,12,Q1*%
%TO.N,RAM-Q1*%
X121172500Y-63500000D03*
%TO.P,RAM1,13,Q2*%
%TO.N,RAM-Q2*%
X123712500Y-63500000D03*
%TO.P,RAM1,14,GND*%
%TO.N,GND*%
X126252500Y-63500000D03*
%TO.P,RAM1,15,Q3*%
%TO.N,RAM-Q3*%
X126252500Y-48260000D03*
%TO.P,RAM1,16,Q4*%
%TO.N,RAM-Q4*%
X123712500Y-48260000D03*
%TO.P,RAM1,17,Q5*%
%TO.N,RAM-Q5*%
X121172500Y-48260000D03*
%TO.P,RAM1,18,Q6*%
%TO.N,RAM-Q6*%
X118632500Y-48260000D03*
%TO.P,RAM1,19,Q7*%
%TO.N,RAM-Q7*%
X116092500Y-48260000D03*
%TO.P,RAM1,20,~{CS}*%
%TO.N,RAM-CS*%
X113552500Y-48260000D03*
%TO.P,RAM1,21,A10*%
%TO.N,RAM-A10*%
X111012500Y-48260000D03*
%TO.P,RAM1,22,~{OE}*%
%TO.N,RAM-OE*%
X108472500Y-48260000D03*
%TO.P,RAM1,23,A11*%
%TO.N,RAM-A11*%
X105932500Y-48260000D03*
%TO.P,RAM1,24,A9*%
%TO.N,RAM-A9*%
X103392500Y-48260000D03*
%TO.P,RAM1,25,A8*%
%TO.N,RAM-A8*%
X100852500Y-48260000D03*
%TO.P,RAM1,26,A13*%
%TO.N,RAM-A13*%
X98312500Y-48260000D03*
%TO.P,RAM1,27,~{WE}*%
%TO.N,RAM-WE*%
X95772500Y-48260000D03*
%TO.P,RAM1,28,VCC*%
%TO.N,Vcc*%
X93232500Y-48260000D03*
%TD*%
D27*
%TO.P,RP2040_1,1,IOVDD*%
%TO.N,RP2040-IOVDD*%
X182016500Y-56136000D03*
%TO.P,RP2040_1,2,GPIO0*%
%TO.N,RP2040-RPBOOTMODE*%
X182016500Y-56536000D03*
%TO.P,RP2040_1,3,GPIO1*%
%TO.N,RP2040-Z80BOOTMODE*%
X182016500Y-56936000D03*
%TO.P,RP2040_1,4,GPIO2*%
%TO.N,RP2040-SH-GPIO2-SER*%
X182016500Y-57336000D03*
%TO.P,RP2040_1,5,GPIO3*%
%TO.N,RP2040-SH-GPIO3-SER*%
X182016500Y-57736000D03*
%TO.P,RP2040_1,6,GPIO4*%
%TO.N,RP2040-SH-GPIO4-RCLK*%
X182016500Y-58136000D03*
%TO.P,RP2040_1,7,GPIO5*%
%TO.N,RP2040-RWRAM-GPIO5-DIR*%
X182016500Y-58536000D03*
%TO.P,RP2040_1,8,GPIO6*%
%TO.N,RP2040-RWRAM-GPIO6-DS*%
X182016500Y-58936000D03*
%TO.P,RP2040_1,9,GPIO7*%
%TO.N,RP2040-RWRAM-GPIO7-Q7*%
X182016500Y-59336000D03*
%TO.P,RP2040_1,10,IOVDD*%
%TO.N,RP2040-IOVDD*%
X182016500Y-59736000D03*
%TO.P,RP2040_1,11,GPIO8*%
%TO.N,RP2040-RWRAM-GPIO8-PL*%
X182016500Y-60136000D03*
%TO.P,RP2040_1,12,GPIO9*%
%TO.N,unconnected-(RP2040_1-GPIO9-Pad12)*%
X182016500Y-60536000D03*
%TO.P,RP2040_1,13,GPIO10*%
%TO.N,unconnected-(RP2040_1-GPIO10-Pad13)*%
X182016500Y-60936000D03*
%TO.P,RP2040_1,14,GPIO11*%
%TO.N,unconnected-(RP2040_1-GPIO11-Pad14)*%
X182016500Y-61336000D03*
D28*
%TO.P,RP2040_1,15,GPIO12*%
%TO.N,unconnected-(RP2040_1-GPIO12-Pad15)*%
X182854000Y-62173500D03*
%TO.P,RP2040_1,16,GPIO13*%
%TO.N,unconnected-(RP2040_1-GPIO13-Pad16)*%
X183254000Y-62173500D03*
%TO.P,RP2040_1,17,GPIO14*%
%TO.N,unconnected-(RP2040_1-GPIO14-Pad17)*%
X183654000Y-62173500D03*
%TO.P,RP2040_1,18,GPIO15*%
%TO.N,unconnected-(RP2040_1-GPIO15-Pad18)*%
X184054000Y-62173500D03*
%TO.P,RP2040_1,19,TESTEN*%
%TO.N,unconnected-(RP2040_1-TESTEN-Pad19)*%
X184454000Y-62173500D03*
%TO.P,RP2040_1,20,XIN*%
%TO.N,CLOCK*%
X184854000Y-62173500D03*
%TO.P,RP2040_1,21,XOUT*%
%TO.N,unconnected-(RP2040_1-XOUT-Pad21)*%
X185254000Y-62173500D03*
%TO.P,RP2040_1,22,IOVDD*%
%TO.N,RP2040-IOVDD*%
X185654000Y-62173500D03*
%TO.P,RP2040_1,23,DVDD*%
%TO.N,RP2040-DVDD*%
X186054000Y-62173500D03*
%TO.P,RP2040_1,24,SWCLK*%
%TO.N,unconnected-(RP2040_1-SWCLK-Pad24)*%
X186454000Y-62173500D03*
%TO.P,RP2040_1,25,SWD*%
%TO.N,unconnected-(RP2040_1-SWD-Pad25)*%
X186854000Y-62173500D03*
%TO.P,RP2040_1,26,RUN*%
%TO.N,unconnected-(RP2040_1-RUN-Pad26)*%
X187254000Y-62173500D03*
%TO.P,RP2040_1,27,GPIO16*%
%TO.N,unconnected-(RP2040_1-GPIO16-Pad27)*%
X187654000Y-62173500D03*
%TO.P,RP2040_1,28,GPIO17*%
%TO.N,unconnected-(RP2040_1-GPIO17-Pad28)*%
X188054000Y-62173500D03*
D27*
%TO.P,RP2040_1,29,GPIO18*%
%TO.N,unconnected-(RP2040_1-GPIO18-Pad29)*%
X188891500Y-61336000D03*
%TO.P,RP2040_1,30,GPIO19*%
%TO.N,unconnected-(RP2040_1-GPIO19-Pad30)*%
X188891500Y-60936000D03*
%TO.P,RP2040_1,31,GPIO20*%
%TO.N,unconnected-(RP2040_1-GPIO20-Pad31)*%
X188891500Y-60536000D03*
%TO.P,RP2040_1,32,GPIO21*%
%TO.N,unconnected-(RP2040_1-GPIO21-Pad32)*%
X188891500Y-60136000D03*
%TO.P,RP2040_1,33,IOVDD*%
%TO.N,RP2040-IOVDD*%
X188891500Y-59736000D03*
%TO.P,RP2040_1,34,GPIO22*%
%TO.N,unconnected-(RP2040_1-GPIO22-Pad34)*%
X188891500Y-59336000D03*
%TO.P,RP2040_1,35,GPIO23*%
%TO.N,unconnected-(RP2040_1-GPIO23-Pad35)*%
X188891500Y-58936000D03*
%TO.P,RP2040_1,36,GPIO24*%
%TO.N,unconnected-(RP2040_1-GPIO24-Pad36)*%
X188891500Y-58536000D03*
%TO.P,RP2040_1,37,GPIO25*%
%TO.N,unconnected-(RP2040_1-GPIO25-Pad37)*%
X188891500Y-58136000D03*
%TO.P,RP2040_1,38,GPIO26_ADC0*%
%TO.N,unconnected-(RP2040_1-GPIO26_ADC0-Pad38)*%
X188891500Y-57736000D03*
%TO.P,RP2040_1,39,GPIO27_ADC1*%
%TO.N,unconnected-(RP2040_1-GPIO27_ADC1-Pad39)*%
X188891500Y-57336000D03*
%TO.P,RP2040_1,40,GPIO28_ADC2*%
%TO.N,unconnected-(RP2040_1-GPIO28_ADC2-Pad40)*%
X188891500Y-56936000D03*
%TO.P,RP2040_1,41,GPIO29_ADC3*%
%TO.N,unconnected-(RP2040_1-GPIO29_ADC3-Pad41)*%
X188891500Y-56536000D03*
%TO.P,RP2040_1,42,IOVDD*%
%TO.N,RP2040-IOVDD*%
X188891500Y-56136000D03*
D28*
%TO.P,RP2040_1,43,ADC_AVDD*%
%TO.N,unconnected-(RP2040_1-ADC_AVDD-Pad43)*%
X188054000Y-55298500D03*
%TO.P,RP2040_1,44,VREG_IN*%
%TO.N,unconnected-(RP2040_1-VREG_IN-Pad44)*%
X187654000Y-55298500D03*
%TO.P,RP2040_1,45,VREG_VOUT*%
%TO.N,RP2040-VREG_VOUT*%
X187254000Y-55298500D03*
%TO.P,RP2040_1,46,USB_DM*%
%TO.N,USB-RP2040-DM*%
X186854000Y-55298500D03*
%TO.P,RP2040_1,47,USB_DP*%
%TO.N,USB-RP2040-DP*%
X186454000Y-55298500D03*
%TO.P,RP2040_1,48,USB_VDD*%
%TO.N,RP2040-USB_VDD*%
X186054000Y-55298500D03*
%TO.P,RP2040_1,49,IOVDD*%
%TO.N,RP2040-IOVDD*%
X185654000Y-55298500D03*
%TO.P,RP2040_1,50,DVDD*%
%TO.N,RP2040-DVDD*%
X185254000Y-55298500D03*
%TO.P,RP2040_1,51,QSPI_SD3*%
%TO.N,unconnected-(RP2040_1-QSPI_SD3-Pad51)*%
X184854000Y-55298500D03*
%TO.P,RP2040_1,52,QSPI_SCLK*%
%TO.N,CLOCK*%
X184454000Y-55298500D03*
%TO.P,RP2040_1,53,QSPI_SD0*%
%TO.N,FLASH-DI-RP2040-QSPI_SD0*%
X184054000Y-55298500D03*
%TO.P,RP2040_1,54,QSPI_SD2*%
%TO.N,unconnected-(RP2040_1-QSPI_SD2-Pad54)*%
X183654000Y-55298500D03*
%TO.P,RP2040_1,55,QSPI_SD1*%
%TO.N,FLASH-DO-RP2040-QSPI_SD1*%
X183254000Y-55298500D03*
%TO.P,RP2040_1,56,QSPI_SS*%
%TO.N,FLASH-CS-RP2040-QSPI_SS*%
X182854000Y-55298500D03*
D29*
%TO.P,RP2040_1,57,GND*%
%TO.N,GND*%
X185454000Y-58736000D03*
%TD*%
D14*
%TO.P,D57,1,K*%
%TO.N,RAM-CS*%
X95192500Y-98500000D03*
D15*
%TO.P,D57,2,A*%
%TO.N,Net-(D57-A)*%
X97467500Y-98500000D03*
%TD*%
D14*
%TO.P,D31,1,K*%
%TO.N,Net-(D31-K)*%
X61962000Y-71435500D03*
D15*
%TO.P,D31,2,A*%
%TO.N,Net-(D31-A)*%
X59687000Y-71435500D03*
%TD*%
D14*
%TO.P,D44,1,K*%
%TO.N,Net-(D43-A)*%
X60162000Y-93435500D03*
D15*
%TO.P,D44,2,A*%
%TO.N,Net-(D43-K)*%
X62437000Y-93435500D03*
%TD*%
D11*
%TO.P,R51,1*%
%TO.N,Net-(D24-A)*%
X151592500Y-78500000D03*
%TO.P,R51,2*%
%TO.N,Z80-A9*%
X141432500Y-78500000D03*
%TD*%
D17*
%TO.P,D13,1,K*%
%TO.N,Net-(D13-K)*%
X210922900Y-82478000D03*
%TO.P,D13,2,A*%
%TO.N,Net-(D13-A)*%
X209522900Y-82478000D03*
%TD*%
D14*
%TO.P,D42,1,K*%
%TO.N,Net-(D41-A)*%
X60162000Y-127435500D03*
D15*
%TO.P,D42,2,A*%
%TO.N,Net-(D41-K)*%
X62437000Y-127435500D03*
%TD*%
D14*
%TO.P,D34,1,K*%
%TO.N,Net-(D33-A)*%
X60187000Y-110435500D03*
D15*
%TO.P,D34,2,A*%
%TO.N,Net-(D33-K)*%
X62462000Y-110435500D03*
%TD*%
D16*
%TO.P,C3,1*%
%TO.N,RP2040-DVDD*%
X178833950Y-43684000D03*
%TO.P,C3,2*%
%TO.N,Vdd_3v3*%
X178833950Y-40684000D03*
%TD*%
D17*
%TO.P,D64,1,K*%
%TO.N,Net-(D64-K)*%
X210791500Y-136428000D03*
%TO.P,D64,2,A*%
%TO.N,Net-(D64-A)*%
X209391500Y-136428000D03*
%TD*%
%TO.P,D54,1,K*%
%TO.N,Net-(D54-K)*%
X210922900Y-111828000D03*
%TO.P,D54,2,A*%
%TO.N,Net-(D54-A)*%
X209522900Y-111828000D03*
%TD*%
D14*
%TO.P,D48,1,K*%
%TO.N,Net-(D47-A)*%
X60162000Y-101935500D03*
D15*
%TO.P,D48,2,A*%
%TO.N,Net-(D47-K)*%
X62437000Y-101935500D03*
%TD*%
D11*
%TO.P,R20,1*%
%TO.N,Z80-RD*%
X143432500Y-141000000D03*
%TO.P,R20,2*%
%TO.N,Net-(D49-A)*%
X153592500Y-141000000D03*
%TD*%
D14*
%TO.P,D14,1,K*%
%TO.N,RAM-A11*%
X95192500Y-83500000D03*
D15*
%TO.P,D14,2,A*%
%TO.N,Net-(D14-A)*%
X97467500Y-83500000D03*
%TD*%
D11*
%TO.P,R39,1*%
%TO.N,Net-(D10-A)*%
X151592500Y-92500000D03*
%TO.P,R39,2*%
%TO.N,Z80-A5*%
X141432500Y-92500000D03*
%TD*%
%TO.P,R47,1*%
%TO.N,Net-(D28-A)*%
X151592500Y-99500000D03*
%TO.P,R47,2*%
%TO.N,Z80-A3*%
X141432500Y-99500000D03*
%TD*%
%TO.P,R50,1*%
%TO.N,Net-(D30-A)*%
X151592500Y-96000000D03*
%TO.P,R50,2*%
%TO.N,Z80-A4*%
X141432500Y-96000000D03*
%TD*%
D16*
%TO.P,C7,1*%
%TO.N,Net-(Flash1-VCC)*%
X223391500Y-51936000D03*
%TO.P,C7,2*%
%TO.N,Vcc*%
X223391500Y-48936000D03*
%TD*%
D30*
%TO.P,Z80,1,A_{11}*%
%TO.N,Z80-A11*%
X119389500Y-85658000D03*
D11*
%TO.P,Z80,2,A_{12}*%
%TO.N,Z80-A12*%
X119389500Y-88198000D03*
%TO.P,Z80,3,A_{13}*%
%TO.N,Z80-A13*%
X119389500Y-90738000D03*
%TO.P,Z80,4,A_{14}*%
%TO.N,Z80-A14*%
X119389500Y-93278000D03*
%TO.P,Z80,5,A_{15}*%
%TO.N,Z80-A15*%
X119389500Y-95818000D03*
%TO.P,Z80,6,CLK*%
%TO.N,CLOCK*%
X119389500Y-98358000D03*
%TO.P,Z80,7,D_{4}*%
%TO.N,Z80-D4*%
X119389500Y-100898000D03*
%TO.P,Z80,8,D_{3}*%
%TO.N,Z80-D3*%
X119389500Y-103438000D03*
%TO.P,Z80,9,D_{5}*%
%TO.N,Z80-D5*%
X119389500Y-105978000D03*
%TO.P,Z80,10,D_{6}*%
%TO.N,Z80-D6*%
X119389500Y-108518000D03*
%TO.P,Z80,11,V_{CC}*%
%TO.N,Vcc*%
X119389500Y-111058000D03*
%TO.P,Z80,12,D_{2}*%
%TO.N,Z80-D2*%
X119389500Y-113598000D03*
%TO.P,Z80,13,D_{7}*%
%TO.N,Z80-D7*%
X119389500Y-116138000D03*
%TO.P,Z80,14,D_{0}*%
%TO.N,Z80-D0*%
X119389500Y-118678000D03*
%TO.P,Z80,15,D_{1}*%
%TO.N,Z80-D1*%
X119389500Y-121218000D03*
%TO.P,Z80,16,~{INT}*%
%TO.N,Z80-INT*%
X119389500Y-123758000D03*
%TO.P,Z80,17,~{NMI}*%
%TO.N,Z80-NMI*%
X119389500Y-126298000D03*
%TO.P,Z80,18,~{HALT}*%
%TO.N,Z80-HALT*%
X119389500Y-128838000D03*
%TO.P,Z80,19,~{MREQ}*%
%TO.N,Z80-MREQ*%
X119389500Y-131378000D03*
%TO.P,Z80,20,~{IORQ}*%
%TO.N,Z80-IORQ*%
X119389500Y-133918000D03*
%TO.P,Z80,21,~{RD}*%
%TO.N,Z80-RD*%
X134629500Y-133918000D03*
%TO.P,Z80,22,~{WR}*%
%TO.N,Z80-WR*%
X134629500Y-131378000D03*
%TO.P,Z80,23,~{BUSACK}*%
%TO.N,Z80-BUSACK*%
X134629500Y-128838000D03*
%TO.P,Z80,24,~{WAIT}*%
%TO.N,Z80-WAIT*%
X134629500Y-126298000D03*
%TO.P,Z80,25,~{BUSREQ}*%
%TO.N,Z80-BUSREQ*%
X134629500Y-123758000D03*
%TO.P,Z80,26,~{RESET}*%
%TO.N,Z80-RESET*%
X134629500Y-121218000D03*
%TO.P,Z80,27,~{M1}*%
%TO.N,Z80-M1*%
X134629500Y-118678000D03*
%TO.P,Z80,28,~{RFSH}*%
%TO.N,Z80-RFSH*%
X134629500Y-116138000D03*
%TO.P,Z80,29,GND*%
%TO.N,GND*%
X134629500Y-113598000D03*
%TO.P,Z80,30,A_{0}*%
%TO.N,Z80-A0*%
X134629500Y-111058000D03*
%TO.P,Z80,31,A_{1}*%
%TO.N,Z80-A1*%
X134629500Y-108518000D03*
%TO.P,Z80,32,A_{2}*%
%TO.N,Z80-A2*%
X134629500Y-105978000D03*
%TO.P,Z80,33,A_{3}*%
%TO.N,Z80-A3*%
X134629500Y-103438000D03*
%TO.P,Z80,34,A_{4}*%
%TO.N,Z80-A4*%
X134629500Y-100898000D03*
%TO.P,Z80,35,A_{5}*%
%TO.N,Z80-A5*%
X134629500Y-98358000D03*
%TO.P,Z80,36,A_{6}*%
%TO.N,Z80-A6*%
X134629500Y-95818000D03*
%TO.P,Z80,37,A_{7}*%
%TO.N,Z80-A7*%
X134629500Y-93278000D03*
%TO.P,Z80,38,A_{8}*%
%TO.N,Z80-A8*%
X134629500Y-90738000D03*
%TO.P,Z80,39,A_{9}*%
%TO.N,Z80-A9*%
X134629500Y-88198000D03*
%TO.P,Z80,40,A_{10}*%
%TO.N,Z80-A10*%
X134629500Y-85658000D03*
%TD*%
D17*
%TO.P,D11,1,K*%
%TO.N,Net-(D11-K)*%
X210922900Y-80028000D03*
%TO.P,D11,2,A*%
%TO.N,Net-(D11-A)*%
X209522900Y-80028000D03*
%TD*%
D11*
%TO.P,R1,1*%
%TO.N,Vcc*%
X153589500Y-126783000D03*
%TO.P,R1,2*%
%TO.N,Z80-BUSREQ*%
X143429500Y-126783000D03*
%TD*%
%TO.P,R18,1*%
%TO.N,RP2040-RPBOOTMODE*%
X168471500Y-53936000D03*
%TO.P,R18,2*%
%TO.N,Vdd_3v3*%
X158311500Y-53936000D03*
%TD*%
D17*
%TO.P,D46,1,K*%
%TO.N,Net-(D46-K)*%
X210922900Y-106828000D03*
%TO.P,D46,2,A*%
%TO.N,Net-(D46-A)*%
X209522900Y-106828000D03*
%TD*%
D31*
%TO.P,Flash1,1,~{CS}*%
%TO.N,FLASH-CS-RP2040-QSPI_SS*%
X216216500Y-55626000D03*
%TO.P,Flash1,2,DO/IO_{1}*%
%TO.N,FLASH-DO-RP2040-QSPI_SD1*%
X216216500Y-56896000D03*
%TO.P,Flash1,3,~{WP}/IO_{2}*%
%TO.N,FLASH-WP*%
X216216500Y-58166000D03*
%TO.P,Flash1,4,GND*%
%TO.N,GND*%
X216216500Y-59436000D03*
%TO.P,Flash1,5,DI/IO_{0}*%
%TO.N,FLASH-DI-RP2040-QSPI_SD0*%
X223391500Y-59436000D03*
%TO.P,Flash1,6,CLK*%
%TO.N,CLOCK*%
X223391500Y-58166000D03*
%TO.P,Flash1,7,~{HOLD}/~{RESET}/IO_{3}*%
%TO.N,FLASH-HOLD{slash}RESET*%
X223391500Y-56896000D03*
%TO.P,Flash1,8,VCC*%
%TO.N,Net-(Flash1-VCC)*%
X223391500Y-55626000D03*
%TD*%
D14*
%TO.P,D28,1,K*%
%TO.N,RAM-A3*%
X161092500Y-99500000D03*
D15*
%TO.P,D28,2,A*%
%TO.N,Net-(D28-A)*%
X158817500Y-99500000D03*
%TD*%
D14*
%TO.P,D20,1,K*%
%TO.N,RAM-A14*%
X95192500Y-94000000D03*
D15*
%TO.P,D20,2,A*%
%TO.N,Net-(D20-A)*%
X97467500Y-94000000D03*
%TD*%
D14*
%TO.P,D32,1,K*%
%TO.N,Net-(D31-A)*%
X60162000Y-67935500D03*
D15*
%TO.P,D32,2,A*%
%TO.N,Net-(D31-K)*%
X62437000Y-67935500D03*
%TD*%
D14*
%TO.P,D6,1,K*%
%TO.N,RAM-A8*%
X161092500Y-82000000D03*
D15*
%TO.P,D6,2,A*%
%TO.N,Net-(D6-A)*%
X158817500Y-82000000D03*
%TD*%
D17*
%TO.P,D7,1,K*%
%TO.N,Net-(D7-K)*%
X210922900Y-75128000D03*
%TO.P,D7,2,A*%
%TO.N,Net-(D7-A)*%
X209522900Y-75128000D03*
%TD*%
D11*
%TO.P,R34,1*%
%TO.N,Net-(D41-A)*%
X52592500Y-131000000D03*
%TO.P,R34,2*%
%TO.N,RAM-Q7*%
X42432500Y-131000000D03*
%TD*%
D14*
%TO.P,D26,1,K*%
%TO.N,RAM-A2*%
X161092500Y-103000000D03*
D15*
%TO.P,D26,2,A*%
%TO.N,Net-(D26-A)*%
X158817500Y-103000000D03*
%TD*%
D11*
%TO.P,R19,1*%
%TO.N,Z80-A15*%
X112252500Y-98500000D03*
%TO.P,R19,2*%
%TO.N,Net-(D57-A)*%
X102092500Y-98500000D03*
%TD*%
D32*
%TO.N,RAM-A14*%
X78551455Y-85497490D03*
X230891500Y-104736003D03*
%TO.N,RAM-A9*%
X134891500Y-46600000D03*
X135891500Y-42836000D03*
X229891500Y-101436000D03*
X134891500Y-44036000D03*
%TO.N,RAM-Q6*%
X50333950Y-131684000D03*
X50333950Y-130184000D03*
X50333950Y-134184000D03*
%TO.N,RAM-Q5*%
X49333950Y-131684000D03*
X49333950Y-129999000D03*
X49333950Y-134184000D03*
%TO.N,RAM-A10*%
X133092500Y-47100000D03*
X230457187Y-102001687D03*
X133391500Y-42836000D03*
X133391500Y-44036000D03*
%TO.N,RAM-A7*%
X120422185Y-79405315D03*
X230391500Y-81436000D03*
X143891500Y-43436000D03*
X142891500Y-45436000D03*
%TO.N,RAM-A5*%
X103891500Y-65436000D03*
X229908039Y-80026152D03*
X150391500Y-44436000D03*
X144891500Y-47436000D03*
X116891500Y-76936000D03*
%TO.N,RAM-A12*%
X78391500Y-106436000D03*
X225391500Y-103436000D03*
%TO.N,RAM-Q4*%
X48333950Y-129584000D03*
X48333950Y-131684000D03*
X48333950Y-134184000D03*
%TO.N,Vcc*%
X219333950Y-99553000D03*
X178333950Y-96684000D03*
X180333950Y-96684000D03*
%TO.N,RAM-A11*%
X225391500Y-102602687D03*
X90333950Y-82400000D03*
X97333950Y-61843000D03*
%TO.N,RAM-Q7*%
X51333950Y-134184000D03*
X51333950Y-131684000D03*
%TO.N,RAM-A6*%
X143891500Y-46436000D03*
X130982361Y-77744912D03*
X145391500Y-43836000D03*
X230518273Y-80543471D03*
%TO.N,RAM-Q0*%
X44333950Y-134184000D03*
X46198382Y-127579708D03*
X44552035Y-131853145D03*
%TO.N,RAM-A0*%
X228549437Y-76778067D03*
X157391500Y-49936000D03*
X124891500Y-68436000D03*
X121391500Y-66436000D03*
X151891500Y-53436000D03*
%TO.N,RAM-A13*%
X98918265Y-45962765D03*
X94333950Y-61843000D03*
X230891500Y-103936000D03*
X97891500Y-42836000D03*
X97891500Y-44936000D03*
X83833950Y-86184000D03*
%TO.N,RAM-A1*%
X154391500Y-48936000D03*
X228918468Y-77487870D03*
X150391500Y-51936000D03*
X121325735Y-72001765D03*
%TO.N,GND*%
X167500000Y-70500000D03*
X186391500Y-72836000D03*
X187751900Y-96084000D03*
X169500000Y-68000000D03*
X210891500Y-90436000D03*
X165586250Y-86413750D03*
X189391500Y-120936000D03*
X186891500Y-60936000D03*
X220891500Y-83436000D03*
X229391500Y-100103000D03*
X188891500Y-67436000D03*
X68491500Y-44684000D03*
X67291500Y-44684000D03*
X221391500Y-107436000D03*
%TO.N,RAM-Q3*%
X47333950Y-134184000D03*
X47333950Y-131684000D03*
X47333950Y-129183000D03*
%TO.N,RAM-A3*%
X229290172Y-78810266D03*
X147391500Y-49436000D03*
X119650000Y-74677500D03*
X152391500Y-46436000D03*
%TO.N,RAM-Q2*%
X46333950Y-134184000D03*
X46333950Y-131684000D03*
X46333950Y-128782000D03*
%TO.N,RAM-Q1*%
X45598382Y-128331503D03*
X45333950Y-134184000D03*
X45333950Y-131684000D03*
%TO.N,RAM-CS*%
X98833950Y-61843000D03*
X93333950Y-98500000D03*
%TO.N,RAM-A2*%
X121920000Y-73937000D03*
X148391500Y-50436000D03*
X153391500Y-47436000D03*
X229499236Y-78038064D03*
%TO.N,RAM-A4*%
X230192139Y-79043634D03*
X119270715Y-76556785D03*
X145891500Y-48436000D03*
X150891500Y-45436000D03*
%TO.N,RAM-A8*%
X136285265Y-46542235D03*
X136391500Y-44036000D03*
X138891500Y-42836000D03*
X230391500Y-100436000D03*
%TO.N,CLOCK*%
X194500000Y-64036000D03*
X193000000Y-94000000D03*
X196000000Y-141500000D03*
X184500000Y-53900000D03*
X221500000Y-58000000D03*
X199000000Y-77000000D03*
X92833950Y-117184000D03*
X193000000Y-73218000D03*
X212500000Y-89836000D03*
X193500000Y-119500000D03*
X201500000Y-131000000D03*
X109333950Y-102684000D03*
X198000000Y-127500000D03*
%TO.N,Z80-WAIT*%
X132951057Y-136926232D03*
X132333950Y-138001000D03*
X132333950Y-139201000D03*
%TO.N,Z80-RESET*%
X131333950Y-139201000D03*
X131333950Y-138001000D03*
X130643214Y-136993263D03*
%TO.N,Vdd_3v3*%
X84833950Y-54936000D03*
X76163725Y-46013775D03*
X79333950Y-46184000D03*
X216891500Y-123936000D03*
X87891500Y-44436000D03*
%TO.N,RP2040-DVDD*%
X185054000Y-50272084D03*
X187933950Y-50000000D03*
X187500000Y-63400000D03*
X191269935Y-56230065D03*
%TO.N,RP2040-RWRAM-GPIO5-DIR*%
X242000000Y-104500000D03*
X241500000Y-109500000D03*
X237250000Y-68250000D03*
X179485421Y-65000000D03*
X202500000Y-73500000D03*
%TO.N,USB-C-VBUS*%
X64583950Y-42434000D03*
X69083950Y-42434000D03*
%TO.N,FLASH-DO-RP2040-QSPI_SD1*%
X183482206Y-53041202D03*
X192891500Y-56436000D03*
%TO.N,FLASH-DI-RP2040-QSPI_SD0*%
X184291500Y-51436000D03*
X188891500Y-48936000D03*
%TO.N,FLASH-CS-RP2040-QSPI_SS*%
X188391500Y-50936000D03*
X182891500Y-52436000D03*
%TO.N,RP2040-RPBOOTMODE*%
X190333950Y-47041000D03*
%TO.N,RP2040-RWRAM-GPIO7-Q7*%
X180694558Y-63923890D03*
X239020500Y-107520500D03*
X225500000Y-66000000D03*
X229500000Y-64000000D03*
X239500000Y-104500000D03*
%TO.N,USB-RP2040-DP*%
X162833950Y-47184000D03*
X66333950Y-44584000D03*
X186655000Y-54166726D03*
X92333950Y-44184000D03*
X161333950Y-41184000D03*
X94833950Y-41084000D03*
%TO.N,USB-RP2040-DM*%
X160333950Y-41282000D03*
X66460237Y-39465409D03*
X186854000Y-56184000D03*
X161833950Y-47184000D03*
X66833950Y-42784000D03*
%TO.N,RP2040-SH-GPIO4-RCLK*%
X178500000Y-70000000D03*
X180977750Y-69522250D03*
%TO.N,RP2040-RWRAM-GPIO8-PL*%
X225500000Y-63500000D03*
X218500000Y-120000000D03*
X229500000Y-62000000D03*
X235000000Y-105500000D03*
X241000000Y-104500000D03*
X181200000Y-63274835D03*
%TO.N,RP2040-RWRAM-GPIO6-DS*%
X226000000Y-68000000D03*
X229500000Y-65500000D03*
X180085421Y-64442499D03*
X238500000Y-104000000D03*
X237000000Y-107000000D03*
%TO.N,Net-(ShiftRegisterOut1-SER)*%
X201500000Y-82038000D03*
%TD*%
D33*
%TO.N,RAM-A14*%
X82672500Y-81000000D02*
X78172500Y-76500000D01*
X114706550Y-87401000D02*
X118025400Y-87401000D01*
X118327425Y-87703025D02*
X118288500Y-87741950D01*
X108672500Y-92000000D02*
X111172500Y-89500000D01*
X111695450Y-89500000D02*
X111796450Y-89399000D01*
X112708550Y-89399000D02*
X114706550Y-87401000D01*
X120490500Y-88654050D02*
X120490500Y-87741950D01*
X78651500Y-85456050D02*
X78651500Y-84543950D01*
X118288500Y-87741950D02*
X118288500Y-88654050D01*
X119845550Y-89299000D02*
X120490500Y-88654050D01*
X120490500Y-87741950D02*
X120149550Y-87401000D01*
X118288500Y-88654050D02*
X118933450Y-89299000D01*
X78651500Y-84543950D02*
X79296450Y-83899000D01*
X78172500Y-76500000D02*
X78172500Y-68022950D01*
X87195450Y-94000000D02*
X78651500Y-85456050D01*
X118933450Y-89299000D02*
X119845550Y-89299000D01*
X118025400Y-87401000D02*
X118327425Y-87703025D01*
X120149550Y-87401000D02*
X121458600Y-87401000D01*
X227418403Y-104736003D02*
X230891500Y-104736003D01*
X111172500Y-89500000D02*
X111695450Y-89500000D01*
X80208550Y-83899000D02*
X88309550Y-92000000D01*
X121693500Y-84655200D02*
X118038300Y-81000000D01*
X111796450Y-89399000D02*
X112708550Y-89399000D01*
X79296450Y-83899000D02*
X80208550Y-83899000D01*
X88309550Y-92000000D02*
X108672500Y-92000000D01*
X82695450Y-63500000D02*
X93232500Y-63500000D01*
X121458600Y-87401000D02*
X121693500Y-87166100D01*
X227385400Y-104703000D02*
X227418403Y-104736003D01*
X118038300Y-81000000D02*
X82672500Y-81000000D01*
X78172500Y-68022950D02*
X82695450Y-63500000D01*
X95192500Y-94000000D02*
X87195450Y-94000000D01*
X121693500Y-87166100D02*
X121693500Y-84655200D01*
%TO.N,RAM-A9*%
X135861000Y-46966500D02*
X135394500Y-46500000D01*
X161092500Y-78500000D02*
X162493500Y-77099000D01*
X105152500Y-46500000D02*
X103392500Y-48260000D01*
X135394500Y-46500000D02*
X105152500Y-46500000D01*
X227385400Y-101453000D02*
X229874500Y-101453000D01*
X229874500Y-101453000D02*
X229891500Y-101436000D01*
X162493500Y-77099000D02*
X162493500Y-73599000D01*
X135891500Y-43036000D02*
X134891500Y-44036000D01*
X162493500Y-73599000D02*
X135861000Y-46966500D01*
X135891500Y-42836000D02*
X135891500Y-43036000D01*
%TO.N,RAM-Q6*%
X253800370Y-129814000D02*
X254181500Y-130195130D01*
X254181500Y-130195130D02*
X254181500Y-130732870D01*
X253143000Y-129814000D02*
X253800370Y-129814000D01*
X50333950Y-135184000D02*
X50333950Y-134184000D01*
X58052950Y-142903000D02*
X50333950Y-135184000D01*
X242011370Y-142903000D02*
X58052950Y-142903000D01*
X50333950Y-131734000D02*
X50333950Y-130234000D01*
X254181500Y-130732870D02*
X242011370Y-142903000D01*
%TO.N,RAM-Q5*%
X253143000Y-129164000D02*
X253880499Y-129164000D01*
X57453950Y-143304000D02*
X49333950Y-135184000D01*
X49333950Y-135184000D02*
X49333950Y-134184000D01*
X253880499Y-129164000D02*
X254582500Y-129866001D01*
X242177470Y-143304000D02*
X57453950Y-143304000D01*
X254582500Y-130898970D02*
X242177470Y-143304000D01*
X254582500Y-129866001D02*
X254582500Y-130898970D01*
X49333950Y-131734000D02*
X49333950Y-130049000D01*
%TO.N,RAM-A10*%
X133092500Y-47100000D02*
X132992500Y-47000000D01*
X227385400Y-102103000D02*
X230355874Y-102103000D01*
X230355874Y-102103000D02*
X230457187Y-102001687D01*
X161092500Y-75000000D02*
X133192500Y-47100000D01*
X133391500Y-42836000D02*
X133391500Y-44036000D01*
X132992500Y-47000000D02*
X112272500Y-47000000D01*
X112272500Y-47000000D02*
X111012500Y-48260000D01*
X133192500Y-47100000D02*
X133092500Y-47100000D01*
%TO.N,RAM-A7*%
X128934450Y-112000000D02*
X134014450Y-112000000D01*
X120500000Y-79327500D02*
X124672500Y-83500000D01*
X143891500Y-44436000D02*
X142891500Y-45436000D01*
X120422185Y-79405315D02*
X120500000Y-79327500D01*
X124798300Y-83500000D02*
X127672500Y-86374200D01*
X134173450Y-112159000D02*
X146764400Y-112159000D01*
X146764400Y-112159000D02*
X148105400Y-113500000D01*
X127672500Y-110738050D02*
X128934450Y-112000000D01*
X105310350Y-65002000D02*
X106174500Y-65002000D01*
X98312500Y-63500000D02*
X99413500Y-64601000D01*
X168112500Y-113500000D02*
X168112500Y-92520000D01*
X143891500Y-43436000D02*
X143891500Y-44436000D01*
X99413500Y-64601000D02*
X104909350Y-64601000D01*
X104909350Y-64601000D02*
X105310350Y-65002000D01*
X168112500Y-92520000D02*
X161092500Y-85500000D01*
X106174500Y-65002000D02*
X120500000Y-79327500D01*
X134014450Y-112000000D02*
X134173450Y-112159000D01*
X124672500Y-83500000D02*
X124798300Y-83500000D01*
X127672500Y-86374200D02*
X127672500Y-110738050D01*
X227385400Y-81353000D02*
X230308500Y-81353000D01*
X148105400Y-113500000D02*
X168112500Y-113500000D01*
X230308500Y-81353000D02*
X230391500Y-81436000D01*
%TO.N,RAM-A5*%
X106388550Y-64601000D02*
X106427475Y-64562075D01*
X116891500Y-76936000D02*
X105391500Y-65436000D01*
X105476450Y-64601000D02*
X106388550Y-64601000D01*
X167711500Y-112500000D02*
X167711500Y-99119000D01*
X128167500Y-86302100D02*
X128167500Y-102774350D01*
X106427475Y-64562075D02*
X128167500Y-86302100D01*
X128370500Y-102977350D02*
X128370500Y-104950250D01*
X133053500Y-109619000D02*
X135085550Y-109619000D01*
X167711500Y-99119000D02*
X161092500Y-92500000D01*
X135805550Y-108899000D02*
X144071500Y-108899000D01*
X148177500Y-113005000D02*
X167206500Y-113005000D01*
X128672500Y-109198050D02*
X129474450Y-110000000D01*
X150391500Y-44436000D02*
X147891500Y-44436000D01*
X227385400Y-80053000D02*
X229881191Y-80053000D01*
X144071500Y-108899000D02*
X148177500Y-113005000D01*
X104831500Y-63500000D02*
X104831500Y-63956050D01*
X167206500Y-113005000D02*
X167711500Y-112500000D01*
X229881191Y-80053000D02*
X229908039Y-80026152D01*
X105391500Y-65436000D02*
X103891500Y-65436000D01*
X135085550Y-109619000D02*
X135805550Y-108899000D01*
X129474450Y-110000000D02*
X132672500Y-110000000D01*
X128370500Y-104950250D02*
X128672500Y-105252250D01*
X132672500Y-110000000D02*
X133053500Y-109619000D01*
X128672500Y-105252250D02*
X128672500Y-109198050D01*
X104831500Y-63956050D02*
X105476450Y-64601000D01*
X128167500Y-102774350D02*
X128370500Y-102977350D01*
X147891500Y-44436000D02*
X144891500Y-47436000D01*
X103392500Y-63500000D02*
X104831500Y-63500000D01*
%TO.N,RAM-A12*%
X119845550Y-124859000D02*
X122495500Y-122209050D01*
X120490500Y-116932050D02*
X119845550Y-117577000D01*
X118319600Y-79580000D02*
X111852500Y-79580000D01*
X78391500Y-106436000D02*
X80127450Y-106436000D01*
X122896500Y-84156900D02*
X118319600Y-79580000D01*
X118288500Y-114054050D02*
X118933450Y-114699000D01*
X109488500Y-120326950D02*
X109488500Y-121239050D01*
X118933450Y-104539000D02*
X119845550Y-104539000D01*
X118288500Y-113141950D02*
X118288500Y-114054050D01*
X81379450Y-105184000D02*
X118288450Y-105184000D01*
X76672500Y-100477050D02*
X81379450Y-105184000D01*
X80127450Y-106436000D02*
X81379450Y-105184000D01*
X115958450Y-121884000D02*
X118933450Y-124859000D01*
X119845550Y-117577000D02*
X112238450Y-117577000D01*
X122495500Y-88065400D02*
X122896500Y-87664400D01*
X122896500Y-87664400D02*
X122896500Y-84156900D01*
X111852500Y-79580000D02*
X95772500Y-63500000D01*
X119845550Y-114699000D02*
X120490500Y-115343950D01*
X77672500Y-83000000D02*
X76672500Y-84000000D01*
X118933450Y-112497000D02*
X118288500Y-113141950D01*
X110133450Y-121884000D02*
X115958450Y-121884000D01*
X225424500Y-103403000D02*
X225391500Y-103436000D01*
X120490500Y-105183950D02*
X120490500Y-111852050D01*
X95192500Y-87000000D02*
X91192500Y-83000000D01*
X112238450Y-117577000D02*
X109488500Y-120326950D01*
X91192500Y-83000000D02*
X77672500Y-83000000D01*
X118933450Y-114699000D02*
X119845550Y-114699000D01*
X120490500Y-111852050D02*
X119845550Y-112497000D01*
X118288450Y-105184000D02*
X118933450Y-104539000D01*
X227385400Y-103403000D02*
X225424500Y-103403000D01*
X118933450Y-124859000D02*
X119845550Y-124859000D01*
X109488500Y-121239050D02*
X110133450Y-121884000D01*
X119845550Y-112497000D02*
X118933450Y-112497000D01*
X119845550Y-104539000D02*
X120490500Y-105183950D01*
X120490500Y-115343950D02*
X120490500Y-116932050D01*
X76672500Y-84000000D02*
X76672500Y-100477050D01*
X122495500Y-122209050D02*
X122495500Y-88065400D01*
%TO.N,RAM-Q4*%
X253880499Y-128514000D02*
X254983500Y-129617001D01*
X254983500Y-131065070D02*
X242343570Y-143705000D01*
X48333950Y-135184000D02*
X48333950Y-134184000D01*
X242343570Y-143705000D02*
X56854950Y-143705000D01*
X56854950Y-143705000D02*
X48333950Y-135184000D01*
X48333950Y-131734000D02*
X48333950Y-129634000D01*
X254983500Y-129617001D02*
X254983500Y-131065070D01*
X253143000Y-128514000D02*
X253880499Y-128514000D01*
%TO.N,Vcc*%
X119389500Y-111058000D02*
X119234500Y-111058000D01*
X222278000Y-57254990D02*
X222545010Y-57522000D01*
X251891500Y-123362500D02*
X253143000Y-124614000D01*
X222278000Y-50049500D02*
X222278000Y-57254990D01*
X89391500Y-52936000D02*
X78391500Y-52936000D01*
X77091500Y-51636000D02*
X77091500Y-53736000D01*
X77091500Y-53736000D02*
X75891500Y-54936000D01*
X93232500Y-48260000D02*
X93232500Y-49095000D01*
X222545010Y-57522000D02*
X224237990Y-57522000D01*
X223391500Y-48936000D02*
X222278000Y-50049500D01*
X78741500Y-45736000D02*
X77091500Y-47386000D01*
X227385400Y-75503000D02*
X221660400Y-75503000D01*
X77091500Y-51636000D02*
X77091500Y-47386000D01*
X74726500Y-39586000D02*
X75847508Y-39586000D01*
X232891500Y-99503000D02*
X232891500Y-80271601D01*
X75847508Y-39586000D02*
X78741500Y-42479992D01*
X232891500Y-80271601D02*
X228122899Y-75503000D01*
X221660400Y-99503000D02*
X219383950Y-99503000D01*
X180333950Y-96684000D02*
X178333950Y-96684000D01*
X78741500Y-42479992D02*
X78741500Y-45736000D01*
X228122899Y-75503000D02*
X227385400Y-75503000D01*
X93232500Y-49095000D02*
X89391500Y-52936000D01*
X153589500Y-130203000D02*
X153509500Y-130283000D01*
X232958500Y-99503000D02*
X251891500Y-118436000D01*
X227385400Y-99503000D02*
X232891500Y-99503000D01*
X227385400Y-99503000D02*
X221660400Y-99503000D01*
X78391500Y-52936000D02*
X77091500Y-51636000D01*
X251891500Y-118436000D02*
X251891500Y-123362500D01*
X219383950Y-99503000D02*
X219333950Y-99553000D01*
X227385400Y-60669410D02*
X227385400Y-75503000D01*
X224237990Y-57522000D02*
X227385400Y-60669410D01*
X232891500Y-99503000D02*
X232958500Y-99503000D01*
X119234500Y-111058000D02*
X119009500Y-111283000D01*
%TO.N,RAM-OE*%
X108472500Y-48260000D02*
X107113500Y-46901000D01*
X99751500Y-48716050D02*
X99751500Y-47803950D01*
X105396450Y-46901000D02*
X104493500Y-47803950D01*
X103848550Y-49361000D02*
X100396450Y-49361000D01*
X168914500Y-120392200D02*
X168771500Y-120535200D01*
X140838600Y-45599000D02*
X168771500Y-73531900D01*
X101956450Y-45599000D02*
X140838600Y-45599000D01*
X104493500Y-47803950D02*
X104493500Y-48716050D01*
X168771500Y-73531900D02*
X168771500Y-92044800D01*
X104493500Y-48716050D02*
X103848550Y-49361000D01*
X107113500Y-46901000D02*
X105396450Y-46901000D01*
X168771500Y-120535200D02*
X168771500Y-130421000D01*
X168771500Y-130421000D02*
X165909500Y-133283000D01*
X168771500Y-92044800D02*
X168914500Y-92187800D01*
X99751500Y-47803950D02*
X101956450Y-45599000D01*
X168914500Y-92187800D02*
X168914500Y-120392200D01*
X100396450Y-49361000D02*
X99751500Y-48716050D01*
%TO.N,RAM-A11*%
X225391500Y-102602687D02*
X227235087Y-102602687D01*
X105932500Y-53244450D02*
X105932500Y-48260000D01*
X90333950Y-82400000D02*
X90532950Y-82599000D01*
X91358600Y-82599000D02*
X92259600Y-83500000D01*
X97333950Y-61843000D02*
X105932500Y-53244450D01*
X90532950Y-82599000D02*
X91358600Y-82599000D01*
X92259600Y-83500000D02*
X95192500Y-83500000D01*
X227235087Y-102602687D02*
X227385400Y-102753000D01*
%TO.N,RAM-Q7*%
X253143000Y-131204270D02*
X253143000Y-130464000D01*
X51333950Y-135184000D02*
X58651950Y-142502000D01*
X58651950Y-142502000D02*
X241845270Y-142502000D01*
X241845270Y-142502000D02*
X253143000Y-131204270D01*
X51333950Y-134184000D02*
X51333950Y-135184000D01*
%TO.N,RAM-A6*%
X139930500Y-78444950D02*
X139930500Y-82252050D01*
X140976450Y-77399000D02*
X139930500Y-78444950D01*
X133528500Y-86452050D02*
X133528500Y-80291050D01*
X145391500Y-44936000D02*
X143891500Y-46436000D01*
X142533500Y-78043950D02*
X141888550Y-77399000D01*
X227385400Y-80703000D02*
X230358744Y-80703000D01*
X133528500Y-80291050D02*
X132782475Y-79545025D01*
X130982361Y-77744912D02*
X132782475Y-79545025D01*
X151748550Y-91099000D02*
X142533500Y-81883950D01*
X139930500Y-82252050D02*
X135085550Y-87097000D01*
X116548550Y-62399000D02*
X101953500Y-62399000D01*
X132782475Y-79545025D02*
X117193500Y-63956050D01*
X141888550Y-77399000D02*
X140976450Y-77399000D01*
X145391500Y-43836000D02*
X145391500Y-44936000D01*
X142533500Y-81883950D02*
X142533500Y-78043950D01*
X101953500Y-62399000D02*
X100852500Y-63500000D01*
X230358744Y-80703000D02*
X230518273Y-80543471D01*
X158993500Y-91099000D02*
X151748550Y-91099000D01*
X134173450Y-87097000D02*
X133528500Y-86452050D01*
X161092500Y-89000000D02*
X158993500Y-91099000D01*
X117193500Y-63043950D02*
X116548550Y-62399000D01*
X135085550Y-87097000D02*
X134173450Y-87097000D01*
X117193500Y-63956050D02*
X117193500Y-63043950D01*
%TO.N,RAM-WE*%
X163810500Y-131882000D02*
X165909500Y-129783000D01*
X169315500Y-120558300D02*
X169172500Y-120701300D01*
X141004700Y-45198000D02*
X169172500Y-73365800D01*
X155153450Y-137882000D02*
X156708500Y-137882000D01*
X153136450Y-142101000D02*
X152491500Y-141456050D01*
X159893500Y-142101000D02*
X153136450Y-142101000D01*
X162708500Y-131882000D02*
X163810500Y-131882000D01*
X169172500Y-91878700D02*
X169315500Y-92021700D01*
X98834500Y-45198000D02*
X141004700Y-45198000D01*
X95772500Y-48260000D02*
X98834500Y-45198000D01*
X169172500Y-73365800D02*
X169172500Y-91878700D01*
X152491500Y-141456050D02*
X152491500Y-140543950D01*
X152491500Y-140543950D02*
X155153450Y-137882000D01*
X169172500Y-132822000D02*
X159893500Y-142101000D01*
X156708500Y-137882000D02*
X162708500Y-131882000D01*
X169315500Y-92021700D02*
X169315500Y-120558300D01*
X169172500Y-120701300D02*
X169172500Y-132822000D01*
%TO.N,RAM-Q0*%
X44333950Y-135184000D02*
X44333950Y-134184000D01*
X256587500Y-131729470D02*
X243007970Y-145309000D01*
X54458950Y-145309000D02*
X44333950Y-135184000D01*
X44552035Y-131853145D02*
X44552035Y-128527907D01*
X243007970Y-145309000D02*
X54458950Y-145309000D01*
X44552035Y-128527907D02*
X45500234Y-127579708D01*
X45500234Y-127579708D02*
X46198382Y-127579708D01*
X254063950Y-125914000D02*
X256587500Y-128437550D01*
X256587500Y-128437550D02*
X256587500Y-131729470D01*
X253143000Y-125914000D02*
X254063950Y-125914000D01*
%TO.N,RAM-A0*%
X139600600Y-87899000D02*
X135836050Y-91663550D01*
X135836050Y-91663550D02*
X135836050Y-93628500D01*
X135836050Y-93628500D02*
X135085550Y-94379000D01*
X151535450Y-108000000D02*
X143672500Y-100137050D01*
X143672500Y-89682950D02*
X141888550Y-87899000D01*
X143672500Y-100137050D02*
X143672500Y-89682950D01*
X123391500Y-68436000D02*
X121391500Y-66436000D01*
X124891500Y-68436000D02*
X123391500Y-68436000D01*
X157391500Y-49936000D02*
X155391500Y-49936000D01*
X116092500Y-65920000D02*
X116092500Y-63500000D01*
X227385400Y-76803000D02*
X228524504Y-76803000D01*
X159092500Y-108000000D02*
X151535450Y-108000000D01*
X130172500Y-90500000D02*
X130172500Y-80000000D01*
X141888550Y-87899000D02*
X139600600Y-87899000D01*
X228524504Y-76803000D02*
X228549437Y-76778067D01*
X134051500Y-94379000D02*
X130172500Y-90500000D01*
X130172500Y-80000000D02*
X116092500Y-65920000D01*
X135085550Y-94379000D02*
X134051500Y-94379000D01*
X161092500Y-110000000D02*
X159092500Y-108000000D01*
X155391500Y-49936000D02*
X151891500Y-53436000D01*
%TO.N,RAM-A13*%
X98918265Y-45962765D02*
X98312500Y-46568530D01*
X94333950Y-61843000D02*
X94333950Y-61684000D01*
X227385400Y-104053000D02*
X230774500Y-104053000D01*
X88149950Y-90500000D02*
X83833950Y-86184000D01*
X98312500Y-57705450D02*
X98312500Y-48260000D01*
X98312500Y-46568530D02*
X98312500Y-48260000D01*
X97891500Y-42836000D02*
X97891500Y-44936000D01*
X230774500Y-104053000D02*
X230891500Y-103936000D01*
X94333950Y-61684000D02*
X98312500Y-57705450D01*
X95192500Y-90500000D02*
X88149950Y-90500000D01*
%TO.N,RAM-A1*%
X121325735Y-72001765D02*
X121391500Y-71936000D01*
X151073500Y-111401000D02*
X143672500Y-104000000D01*
X143672500Y-100704150D02*
X143271500Y-100303150D01*
X161092500Y-106500000D02*
X162493500Y-107901000D01*
X129771500Y-80166100D02*
X121541400Y-71936000D01*
X228883598Y-77453000D02*
X228918468Y-77487870D01*
X154391500Y-48936000D02*
X151391500Y-51936000D01*
X113552500Y-63947100D02*
X113552500Y-63500000D01*
X143271500Y-96281950D02*
X141888550Y-94899000D01*
X162493500Y-111401000D02*
X151073500Y-111401000D01*
X227385400Y-77453000D02*
X228883598Y-77453000D01*
X162493500Y-107901000D02*
X162493500Y-111401000D01*
X121541400Y-71936000D02*
X113552500Y-63947100D01*
X133172500Y-99500000D02*
X129771500Y-96099000D01*
X141888550Y-94899000D02*
X139645550Y-94899000D01*
X135044550Y-99500000D02*
X133172500Y-99500000D01*
X143271500Y-100303150D02*
X143271500Y-96281950D01*
X129771500Y-96099000D02*
X129771500Y-80166100D01*
X121391500Y-71936000D02*
X121541400Y-71936000D01*
X151391500Y-51936000D02*
X150391500Y-51936000D01*
X143672500Y-104000000D02*
X143672500Y-100704150D01*
X139645550Y-94899000D02*
X135044550Y-99500000D01*
%TO.N,GND*%
X90510500Y-137184000D02*
X88109500Y-134783000D01*
X88109500Y-126783000D02*
X88109500Y-130783000D01*
X166172500Y-122000000D02*
X165909500Y-122263000D01*
X216216500Y-59436000D02*
X212391500Y-59436000D01*
X132085007Y-137400000D02*
X131833950Y-137651057D01*
X141545400Y-141401000D02*
X137828400Y-137684000D01*
X65333950Y-45184000D02*
X66791500Y-45184000D01*
X247418000Y-130464000D02*
X248155499Y-130464000D01*
X131085007Y-137400000D02*
X130801007Y-137684000D01*
X254333950Y-49734000D02*
X247833950Y-49734000D01*
X252083950Y-94184000D02*
X253384950Y-95485000D01*
X76142500Y-41837000D02*
X70092500Y-41837000D01*
X221391500Y-105621900D02*
X221660400Y-105353000D01*
X45640500Y-44042050D02*
X45640500Y-43129950D01*
X252083950Y-102434000D02*
X254181500Y-104531550D01*
X253384950Y-101133000D02*
X252083950Y-102434000D01*
X221391500Y-107436000D02*
X221391500Y-105621900D01*
X254333950Y-41184000D02*
X247833950Y-41184000D01*
X168513500Y-92353900D02*
X168513500Y-102341000D01*
X55384450Y-53786000D02*
X45640500Y-44042050D01*
X254181500Y-104531550D02*
X254181500Y-124962999D01*
X168513500Y-102341000D02*
X168513500Y-120226100D01*
X69941500Y-41586000D02*
X69891500Y-41636000D01*
X188360500Y-121967000D02*
X188360500Y-123419000D01*
X186391500Y-72836000D02*
X187080270Y-72836000D01*
X166739600Y-122000000D02*
X166172500Y-122000000D01*
X222698900Y-76153000D02*
X227385400Y-76153000D01*
X68391500Y-56436000D02*
X66891500Y-54936000D01*
X63891500Y-41636000D02*
X63891500Y-43741550D01*
X66791500Y-45184000D02*
X67291500Y-44684000D01*
X73992500Y-56037000D02*
X77790500Y-56037000D01*
X151390550Y-83401000D02*
X162493500Y-83401000D01*
X132866893Y-137684000D02*
X132582893Y-137400000D01*
X220891500Y-83436000D02*
X213891500Y-90436000D01*
X221391500Y-81621900D02*
X221660400Y-81353000D01*
X142331500Y-141401000D02*
X141545400Y-141401000D01*
X165909500Y-114500000D02*
X165409500Y-114000000D01*
X189391500Y-120936000D02*
X188360500Y-121967000D01*
X88109500Y-130783000D02*
X88109500Y-134783000D01*
X130333950Y-137684000D02*
X129833950Y-137184000D01*
X162493500Y-83401000D02*
X162592500Y-83500000D01*
X58623450Y-41837000D02*
X63690500Y-41837000D01*
X248456500Y-130162999D02*
X248456500Y-125264000D01*
X65741500Y-53786000D02*
X66891500Y-54936000D01*
X222397899Y-105353000D02*
X222698900Y-105051999D01*
X253880499Y-125264000D02*
X253143000Y-125264000D01*
X229341500Y-100153000D02*
X229391500Y-100103000D01*
X165909500Y-122263000D02*
X165909500Y-126283000D01*
X208391500Y-63436000D02*
X192891500Y-63436000D01*
X162672500Y-83500000D02*
X165586250Y-86413750D01*
X63891500Y-43741550D02*
X65333950Y-45184000D01*
X192891500Y-63436000D02*
X188891500Y-67436000D01*
X69941500Y-40386000D02*
X69941500Y-41586000D01*
X47834450Y-40936000D02*
X51585450Y-44687000D01*
X131489550Y-63500000D02*
X151390550Y-83401000D01*
X213891500Y-90436000D02*
X210891500Y-90436000D01*
X252083950Y-102434000D02*
X245583950Y-102434000D01*
X165909500Y-119763000D02*
X144533500Y-141139000D01*
X68491500Y-44684000D02*
X69891500Y-43284000D01*
X63690500Y-41837000D02*
X63891500Y-41636000D01*
X255833950Y-42684000D02*
X255833950Y-48234000D01*
X227385400Y-100153000D02*
X229341500Y-100153000D01*
X142976450Y-142101000D02*
X142331500Y-141456050D01*
X222397899Y-81353000D02*
X222698900Y-81051999D01*
X221660400Y-81353000D02*
X222397899Y-81353000D01*
X222698900Y-100153000D02*
X227385400Y-100153000D01*
X255634950Y-90633000D02*
X252083950Y-94184000D01*
X222698900Y-81051999D02*
X222698900Y-76153000D01*
X185454000Y-58736000D02*
X186891500Y-60173500D01*
X71391500Y-56436000D02*
X68391500Y-56436000D01*
X239020500Y-131539000D02*
X246343000Y-131539000D01*
X169500000Y-68000000D02*
X167500000Y-70000000D01*
X222698900Y-105051999D02*
X222698900Y-100153000D01*
X144533500Y-141456050D02*
X143888550Y-142101000D01*
X168112500Y-91952900D02*
X168513500Y-92353900D01*
X131582893Y-137400000D02*
X131085007Y-137400000D01*
X254333950Y-49734000D02*
X255634950Y-51035000D01*
X137828400Y-137684000D02*
X132866893Y-137684000D01*
X63841500Y-41586000D02*
X63891500Y-41636000D01*
X252083950Y-94184000D02*
X245583950Y-94184000D01*
X129833950Y-137184000D02*
X90510500Y-137184000D01*
X254181500Y-124962999D02*
X253880499Y-125264000D01*
X45640500Y-43129950D02*
X47834450Y-40936000D01*
X248456500Y-125264000D02*
X253143000Y-125264000D01*
X69891500Y-43284000D02*
X69891500Y-41636000D01*
X51585450Y-44687000D02*
X55773450Y-44687000D01*
X130801007Y-137684000D02*
X130333950Y-137684000D01*
X253384950Y-95485000D02*
X253384950Y-101133000D01*
X220891500Y-83436000D02*
X221391500Y-82936000D01*
X77091500Y-42786000D02*
X76142500Y-41837000D01*
X58391500Y-53786000D02*
X55384450Y-53786000D01*
X132582893Y-137400000D02*
X132085007Y-137400000D01*
X63841500Y-40386000D02*
X63841500Y-41586000D01*
X165909500Y-119000000D02*
X165909500Y-122263000D01*
X70441500Y-40386000D02*
X69941500Y-40386000D01*
X126252500Y-63500000D02*
X131489550Y-63500000D01*
X187080270Y-72836000D02*
X188031900Y-73787630D01*
X246343000Y-131539000D02*
X247418000Y-130464000D01*
X254333950Y-41184000D02*
X255833950Y-42684000D01*
X143888550Y-142101000D02*
X142976450Y-142101000D01*
X187751900Y-96084000D02*
X187751900Y-98724000D01*
X73992500Y-56037000D02*
X72891500Y-54936000D01*
X255634950Y-51035000D02*
X255634950Y-90633000D01*
X168112500Y-88940000D02*
X168112500Y-91952900D01*
X212391500Y-59436000D02*
X208391500Y-63436000D01*
X131833950Y-137651057D02*
X131582893Y-137400000D01*
X167500000Y-70000000D02*
X167500000Y-70500000D01*
X58391500Y-53786000D02*
X65741500Y-53786000D01*
X135031500Y-114000000D02*
X134629500Y-113598000D01*
X255833950Y-48234000D02*
X254333950Y-49734000D01*
X188031900Y-73787630D02*
X188031900Y-74919000D01*
X221391500Y-82936000D02*
X221391500Y-81621900D01*
X58741500Y-53436000D02*
X58391500Y-53786000D01*
X248155499Y-130464000D02*
X248456500Y-130162999D01*
X165409500Y-114000000D02*
X135031500Y-114000000D01*
X162592500Y-83500000D02*
X162672500Y-83500000D01*
X55773450Y-44687000D02*
X58623450Y-41837000D01*
X72891500Y-54936000D02*
X71391500Y-56436000D01*
X77790500Y-56037000D02*
X78891500Y-54936000D01*
X165586250Y-86413750D02*
X168112500Y-88940000D01*
X142331500Y-141456050D02*
X142331500Y-141401000D01*
X144533500Y-141139000D02*
X144533500Y-141456050D01*
X221660400Y-105353000D02*
X222397899Y-105353000D01*
X186891500Y-60173500D02*
X186891500Y-60936000D01*
X70092500Y-41837000D02*
X69891500Y-41636000D01*
X165909500Y-119000000D02*
X165909500Y-114500000D01*
X165909500Y-119000000D02*
X165909500Y-119763000D01*
X168513500Y-120226100D02*
X166739600Y-122000000D01*
X63341500Y-40386000D02*
X63841500Y-40386000D01*
%TO.N,RAM-Q3*%
X254013950Y-127864000D02*
X255384500Y-129234550D01*
X47333950Y-135184000D02*
X47333950Y-134184000D01*
X255384500Y-129234550D02*
X255384500Y-131231170D01*
X253143000Y-127864000D02*
X254013950Y-127864000D01*
X255384500Y-131231170D02*
X242509670Y-144106000D01*
X47333950Y-131684000D02*
X47333950Y-129183000D01*
X242509670Y-144106000D02*
X56255950Y-144106000D01*
X56255950Y-144106000D02*
X47333950Y-135184000D01*
%TO.N,RAM-A3*%
X133295500Y-104877000D02*
X133172500Y-105000000D01*
X119650000Y-74677500D02*
X108472500Y-63500000D01*
X149423450Y-112203000D02*
X142619450Y-105399000D01*
X229232906Y-78753000D02*
X229290172Y-78810266D01*
X162825700Y-112203000D02*
X149423450Y-112203000D01*
X137773500Y-101899000D02*
X134795500Y-104877000D01*
X129554450Y-105000000D02*
X129172500Y-104618050D01*
X163295500Y-111733200D02*
X162825700Y-112203000D01*
X227385400Y-78753000D02*
X229232906Y-78753000D01*
X129172500Y-104618050D02*
X129172500Y-102645150D01*
X128969500Y-83997000D02*
X119650000Y-74677500D01*
X161092500Y-99500000D02*
X163295500Y-101703000D01*
X142619450Y-105399000D02*
X142619450Y-102629900D01*
X128969500Y-102442150D02*
X128969500Y-83997000D01*
X150391500Y-46436000D02*
X147391500Y-49436000D01*
X142619450Y-102629900D02*
X141888550Y-101899000D01*
X129172500Y-102645150D02*
X128969500Y-102442150D01*
X163295500Y-101703000D02*
X163295500Y-111733200D01*
X133172500Y-105000000D02*
X129554450Y-105000000D01*
X152391500Y-46436000D02*
X150391500Y-46436000D01*
X134795500Y-104877000D02*
X133295500Y-104877000D01*
X141888550Y-101899000D02*
X137773500Y-101899000D01*
%TO.N,RAM-Q2*%
X255785500Y-129068450D02*
X255785500Y-131397270D01*
X46333950Y-135184000D02*
X46333950Y-134184000D01*
X253143000Y-127214000D02*
X253931050Y-127214000D01*
X253931050Y-127214000D02*
X255785500Y-129068450D01*
X255785500Y-131397270D02*
X242675770Y-144507000D01*
X242675770Y-144507000D02*
X55656950Y-144507000D01*
X46333950Y-131684000D02*
X46333950Y-128782000D01*
X55656950Y-144507000D02*
X46333950Y-135184000D01*
%TO.N,RAM-Q1*%
X253848150Y-126564000D02*
X256186500Y-128902350D01*
X256186500Y-131563370D02*
X242841870Y-144908000D01*
X55057950Y-144908000D02*
X45333950Y-135184000D01*
X253143000Y-126564000D02*
X253848150Y-126564000D01*
X242841870Y-144908000D02*
X55057950Y-144908000D01*
X256186500Y-128902350D02*
X256186500Y-131563370D01*
X45333950Y-131684000D02*
X45333950Y-128595935D01*
X45333950Y-135184000D02*
X45333950Y-134184000D01*
X45333950Y-128595935D02*
X45598382Y-128331503D01*
%TO.N,RAM-CS*%
X99969500Y-61843000D02*
X113552500Y-48260000D01*
X98833950Y-61843000D02*
X99969500Y-61843000D01*
X93333950Y-98500000D02*
X95192500Y-98500000D01*
%TO.N,RAM-A2*%
X151391500Y-47436000D02*
X148391500Y-50436000D01*
X229434300Y-78103000D02*
X229499236Y-78038064D01*
X129370500Y-102276050D02*
X129370500Y-81858000D01*
X149589550Y-111802000D02*
X143172500Y-105384950D01*
X153391500Y-47436000D02*
X151391500Y-47436000D01*
X134835500Y-102337000D02*
X131835500Y-102337000D01*
X131672500Y-102500000D02*
X129594450Y-102500000D01*
X138773500Y-98399000D02*
X134835500Y-102337000D01*
X162894500Y-104802000D02*
X162894500Y-111567100D01*
X129594450Y-102500000D02*
X129370500Y-102276050D01*
X162659600Y-111802000D02*
X149589550Y-111802000D01*
X142870500Y-100469250D02*
X142870500Y-98698000D01*
X142870500Y-98698000D02*
X142571500Y-98399000D01*
X121920000Y-74407500D02*
X111012500Y-63500000D01*
X131835500Y-102337000D02*
X131672500Y-102500000D01*
X129370500Y-81858000D02*
X121920000Y-74407500D01*
X143172500Y-100771250D02*
X142870500Y-100469250D01*
X162894500Y-111567100D02*
X162659600Y-111802000D01*
X143172500Y-105384950D02*
X143172500Y-100771250D01*
X142571500Y-98399000D02*
X138773500Y-98399000D01*
X227385400Y-78103000D02*
X229434300Y-78103000D01*
X161092500Y-103000000D02*
X162894500Y-104802000D01*
%TO.N,RAM-A4*%
X131073500Y-105401000D02*
X129388350Y-105401000D01*
X167310500Y-112000000D02*
X163595800Y-112000000D01*
X144648450Y-108899000D02*
X144648450Y-107995100D01*
X128771500Y-102811250D02*
X128568500Y-102608250D01*
X137164550Y-105000000D02*
X135085550Y-107079000D01*
X149153350Y-112500000D02*
X148249450Y-112500000D01*
X167310500Y-102218000D02*
X167310500Y-112000000D01*
X161092500Y-96000000D02*
X167310500Y-102218000D01*
X135085550Y-107079000D02*
X132751500Y-107079000D01*
X163595800Y-112000000D02*
X162991800Y-112604000D01*
X144648450Y-107995100D02*
X142218450Y-105565100D01*
X119130000Y-76697500D02*
X105932500Y-63500000D01*
X148249450Y-112500000D02*
X144648450Y-108899000D01*
X119270715Y-76556785D02*
X119130000Y-76697500D01*
X162991800Y-112604000D02*
X149257350Y-112604000D01*
X141672500Y-105000000D02*
X137164550Y-105000000D01*
X227385400Y-79403000D02*
X227418400Y-79436000D01*
X227418400Y-79436000D02*
X229799773Y-79436000D01*
X129388350Y-105401000D02*
X128771500Y-104784150D01*
X148891500Y-45436000D02*
X145891500Y-48436000D01*
X229799773Y-79436000D02*
X230192139Y-79043634D01*
X132751500Y-107079000D02*
X131073500Y-105401000D01*
X142218450Y-105545950D02*
X141672500Y-105000000D01*
X142218450Y-105565100D02*
X142218450Y-105545950D01*
X128771500Y-104784150D02*
X128771500Y-102811250D01*
X150891500Y-45436000D02*
X148891500Y-45436000D01*
X149257350Y-112604000D02*
X149153350Y-112500000D01*
X128568500Y-102608250D02*
X128568500Y-86136000D01*
X128568500Y-86136000D02*
X119130000Y-76697500D01*
%TO.N,RAM-A8*%
X135461600Y-46000000D02*
X103112500Y-46000000D01*
X161092500Y-82000000D02*
X162894500Y-80198000D01*
X138891500Y-42836000D02*
X137691500Y-44036000D01*
X136144550Y-46682950D02*
X135461600Y-46000000D01*
X162894500Y-73432900D02*
X136144550Y-46682950D01*
X230024500Y-100803000D02*
X230391500Y-100436000D01*
X162894500Y-80198000D02*
X162894500Y-73432900D01*
X136285265Y-46542235D02*
X136144550Y-46682950D01*
X227385400Y-100803000D02*
X230024500Y-100803000D01*
X103112500Y-46000000D02*
X100852500Y-48260000D01*
X137691500Y-44036000D02*
X136391500Y-44036000D01*
%TO.N,Z80-D1*%
X83752500Y-80500000D02*
X79752500Y-76500000D01*
X118105400Y-80500000D02*
X83752500Y-80500000D01*
X121693500Y-118914000D02*
X121693500Y-87733200D01*
X122094500Y-87332200D02*
X122094500Y-84489100D01*
X121693500Y-87733200D02*
X122094500Y-87332200D01*
X119389500Y-121218000D02*
X121693500Y-118914000D01*
X122094500Y-84489100D02*
X118105400Y-80500000D01*
%TO.N,Z80-D6*%
X84469500Y-114283000D02*
X79752500Y-119000000D01*
X113624500Y-114283000D02*
X84469500Y-114283000D01*
X119389500Y-108518000D02*
X113624500Y-114283000D01*
%TO.N,Z80-A10*%
X141432500Y-75000000D02*
X134629500Y-81803000D01*
X134629500Y-81803000D02*
X134629500Y-85658000D01*
%TO.N,Z80-A5*%
X135574500Y-98358000D02*
X134629500Y-98358000D01*
X141432500Y-92500000D02*
X135574500Y-98358000D01*
%TO.N,Z80-D2*%
X120668550Y-93000000D02*
X120490500Y-93000000D01*
X118933450Y-92177000D02*
X118360450Y-92750000D01*
X121292500Y-111695000D02*
X121292500Y-93623950D01*
X121292500Y-93623950D02*
X120668550Y-93000000D01*
X87252500Y-92500000D02*
X79752500Y-85000000D01*
X120490500Y-92821950D02*
X119845550Y-92177000D01*
X118110450Y-92500000D02*
X87252500Y-92500000D01*
X119845550Y-92177000D02*
X118933450Y-92177000D01*
X120490500Y-93000000D02*
X120490500Y-92821950D01*
X118360450Y-92750000D02*
X118110450Y-92500000D01*
X119389500Y-113598000D02*
X121292500Y-111695000D01*
%TO.N,Z80-NMI*%
X117374500Y-124283000D02*
X119389500Y-126298000D01*
X110589500Y-124283000D02*
X117374500Y-124283000D01*
%TO.N,Z80-A15*%
X116424500Y-98783000D02*
X119389500Y-95818000D01*
X116141500Y-98500000D02*
X112252500Y-98500000D01*
X116424500Y-98783000D02*
X116141500Y-98500000D01*
%TO.N,Z80-MREQ*%
X110669500Y-131283000D02*
X119294500Y-131283000D01*
X119294500Y-131283000D02*
X119389500Y-131378000D01*
%TO.N,CLOCK*%
X195192900Y-77000000D02*
X193111900Y-74919000D01*
X219741500Y-127500000D02*
X198000000Y-127500000D01*
X109333950Y-102684000D02*
X115063500Y-102684000D01*
X199000000Y-77000000D02*
X195192900Y-77000000D01*
X77213950Y-136684000D02*
X77213950Y-132804000D01*
X193000000Y-74807100D02*
X193111900Y-74919000D01*
X221500000Y-58000000D02*
X223225500Y-58000000D01*
X185000000Y-64000000D02*
X184854000Y-63854000D01*
X115063500Y-102684000D02*
X119389500Y-98358000D01*
X184854000Y-63854000D02*
X184854000Y-62173500D01*
X184454000Y-55298500D02*
X184454000Y-53946000D01*
X188827154Y-68221597D02*
X185000000Y-64394443D01*
X223225500Y-58000000D02*
X223391500Y-58166000D01*
X118934500Y-98358000D02*
X119389500Y-98358000D01*
X189314403Y-68221597D02*
X188827154Y-68221597D01*
X193440500Y-123419000D02*
X193440500Y-119559500D01*
X201500000Y-132500000D02*
X196000000Y-138000000D01*
X201500000Y-131000000D02*
X201500000Y-132500000D01*
X194500000Y-64036000D02*
X193500000Y-64036000D01*
X192831900Y-94168100D02*
X193000000Y-94000000D01*
X223780500Y-131539000D02*
X219741500Y-127500000D01*
X193500000Y-64036000D02*
X189314403Y-68221597D01*
X193440500Y-119559500D02*
X193500000Y-119500000D01*
X185000000Y-64394443D02*
X185000000Y-64000000D01*
X192831900Y-98724000D02*
X192831900Y-94168100D01*
X77213950Y-132804000D02*
X92833950Y-117184000D01*
X193000000Y-73218000D02*
X193000000Y-74807100D01*
X196000000Y-138000000D02*
X196000000Y-141500000D01*
X184454000Y-53946000D02*
X184500000Y-53900000D01*
%TO.N,Z80-RD*%
X134629500Y-133918000D02*
X141711500Y-141000000D01*
X141711500Y-141000000D02*
X143432500Y-141000000D01*
%TO.N,Z80-WAIT*%
X143349500Y-130283000D02*
X138614500Y-130283000D01*
X138614500Y-130283000D02*
X134629500Y-126298000D01*
X252083950Y-106934000D02*
X245583950Y-106934000D01*
X132333950Y-139201000D02*
X132333950Y-138001000D01*
X132951057Y-127976443D02*
X134629500Y-126298000D01*
X132951057Y-136926232D02*
X132951057Y-127976443D01*
%TO.N,Z80-BUSREQ*%
X143429500Y-126783000D02*
X137654500Y-126783000D01*
X137654500Y-126783000D02*
X134629500Y-123758000D01*
%TO.N,Z80-HALT*%
X110589500Y-127783000D02*
X118334500Y-127783000D01*
X118334500Y-127783000D02*
X119389500Y-128838000D01*
%TO.N,Z80-A11*%
X119389500Y-85658000D02*
X117231500Y-83500000D01*
X117231500Y-83500000D02*
X112252500Y-83500000D01*
%TO.N,Z80-WR*%
X141000000Y-137500000D02*
X143432500Y-137500000D01*
X134878000Y-131378000D02*
X141000000Y-137500000D01*
X134629500Y-131378000D02*
X134878000Y-131378000D01*
%TO.N,Z80-BUSACK*%
X139574500Y-133783000D02*
X134629500Y-128838000D01*
X143349500Y-133783000D02*
X139574500Y-133783000D01*
%TO.N,Z80-A8*%
X141432500Y-83935000D02*
X134629500Y-90738000D01*
X141432500Y-82000000D02*
X141432500Y-83935000D01*
%TO.N,Z80-A1*%
X137672500Y-106500000D02*
X136172500Y-108000000D01*
X141432500Y-106500000D02*
X137672500Y-106500000D01*
X135147500Y-108000000D02*
X134629500Y-108518000D01*
X136172500Y-108000000D02*
X135147500Y-108000000D01*
%TO.N,Z80-A7*%
X134629500Y-92303000D02*
X134629500Y-93278000D01*
X141432500Y-85500000D02*
X134629500Y-92303000D01*
%TO.N,Z80-A9*%
X140331500Y-82496000D02*
X134629500Y-88198000D01*
X140331500Y-79601000D02*
X140331500Y-82496000D01*
X141432500Y-78500000D02*
X140331500Y-79601000D01*
%TO.N,Z80-A0*%
X135687500Y-110000000D02*
X134629500Y-111058000D01*
X141512500Y-110000000D02*
X135687500Y-110000000D01*
%TO.N,Z80-M1*%
X143429500Y-119783000D02*
X135734500Y-119783000D01*
X135734500Y-119783000D02*
X134629500Y-118678000D01*
%TO.N,Z80-IORQ*%
X110589500Y-134783000D02*
X118524500Y-134783000D01*
X118524500Y-134783000D02*
X119389500Y-133918000D01*
%TO.N,Z80-D5*%
X119389500Y-105978000D02*
X112084500Y-113283000D01*
X82375500Y-113283000D02*
X79592500Y-110500000D01*
X112084500Y-113283000D02*
X82375500Y-113283000D01*
%TO.N,Z80-A2*%
X137607500Y-103000000D02*
X134629500Y-105978000D01*
X141432500Y-103000000D02*
X137607500Y-103000000D01*
%TO.N,Z80-A13*%
X119344500Y-90783000D02*
X119389500Y-90738000D01*
X119389500Y-90738000D02*
X112490500Y-90738000D01*
X112490500Y-90738000D02*
X112252500Y-90500000D01*
%TO.N,Z80-RESET*%
X130643214Y-136993263D02*
X131833950Y-135802527D01*
X252083950Y-98684000D02*
X245583950Y-98684000D01*
X131833950Y-135802527D02*
X131833950Y-124013550D01*
X131833950Y-124013550D02*
X134629500Y-121218000D01*
X143429500Y-123283000D02*
X136694500Y-123283000D01*
X131333950Y-139201000D02*
X131333950Y-138001000D01*
X136694500Y-123283000D02*
X134629500Y-121218000D01*
%TO.N,Z80-INT*%
X116414500Y-120783000D02*
X119389500Y-123758000D01*
X110589500Y-120783000D02*
X116414500Y-120783000D01*
%TO.N,Z80-A14*%
X118101500Y-94000000D02*
X112252500Y-94000000D01*
X118384500Y-94283000D02*
X118101500Y-94000000D01*
X118384500Y-94283000D02*
X119389500Y-93278000D01*
%TO.N,Z80-A3*%
X141432500Y-99500000D02*
X138567500Y-99500000D01*
X138567500Y-99500000D02*
X134629500Y-103438000D01*
%TO.N,Z80-D0*%
X118288500Y-119779000D02*
X118288500Y-121674050D01*
X118288500Y-121674050D02*
X118933450Y-122319000D01*
X122495500Y-84323000D02*
X118153500Y-79981000D01*
X119845550Y-122319000D02*
X122094500Y-120070050D01*
X122094500Y-120070050D02*
X122094500Y-87899300D01*
X122495500Y-87498300D02*
X122495500Y-84323000D01*
X119389500Y-118678000D02*
X118288500Y-119779000D01*
X122094500Y-87899300D02*
X122495500Y-87498300D01*
X118153500Y-79981000D02*
X91733500Y-79981000D01*
X118933450Y-122319000D02*
X119845550Y-122319000D01*
X91733500Y-79981000D02*
X79752500Y-68000000D01*
%TO.N,Z80-D7*%
X119389500Y-116138000D02*
X91114500Y-116138000D01*
X91114500Y-116138000D02*
X79752500Y-127500000D01*
%TO.N,Z80-A12*%
X118191500Y-87000000D02*
X112252500Y-87000000D01*
X119389500Y-88198000D02*
X118191500Y-87000000D01*
%TO.N,Z80-D3*%
X120891500Y-101936000D02*
X120891500Y-95762950D01*
X111309500Y-96283000D02*
X82535500Y-96283000D01*
X112875500Y-94717000D02*
X111309500Y-96283000D01*
X119845550Y-94717000D02*
X112875500Y-94717000D01*
X120891500Y-95762950D02*
X119845550Y-94717000D01*
X82535500Y-96283000D02*
X79752500Y-93500000D01*
X119389500Y-103438000D02*
X120891500Y-101936000D01*
%TO.N,Z80-D4*%
X116389500Y-104783000D02*
X82535500Y-104783000D01*
X119389500Y-100898000D02*
X119389500Y-101783000D01*
X82535500Y-104783000D02*
X79752500Y-102000000D01*
X119389500Y-101783000D02*
X116389500Y-104783000D01*
%TO.N,Z80-A6*%
X134629500Y-95803000D02*
X134629500Y-95818000D01*
X141432500Y-89000000D02*
X134629500Y-95803000D01*
%TO.N,Z80-A4*%
X141432500Y-96000000D02*
X139527500Y-96000000D01*
X139527500Y-96000000D02*
X134629500Y-100898000D01*
%TO.N,Z80-RFSH*%
X134774500Y-116283000D02*
X134629500Y-116138000D01*
X143429500Y-116283000D02*
X134774500Y-116283000D01*
%TO.N,Net-(D1-A)*%
X161509500Y-126283000D02*
X163634500Y-126283000D01*
X154009500Y-133783000D02*
X161509500Y-126283000D01*
X153509500Y-133783000D02*
X154009500Y-133783000D01*
%TO.N,Net-(D45-A)*%
X100429500Y-127783000D02*
X91384500Y-127783000D01*
X91384500Y-127783000D02*
X90384500Y-126783000D01*
%TO.N,Net-(D50-A)*%
X100429500Y-134783000D02*
X90384500Y-134783000D01*
%TO.N,Net-(D51-A)*%
X90884500Y-131283000D02*
X90384500Y-130783000D01*
X100509500Y-131283000D02*
X90884500Y-131283000D01*
%TO.N,Net-(D52-A)*%
X154372500Y-119000000D02*
X153589500Y-119783000D01*
X163634500Y-119000000D02*
X154372500Y-119000000D01*
X163134500Y-118500000D02*
X163634500Y-119000000D01*
X163634500Y-118500000D02*
X163634500Y-119000000D01*
%TO.N,Net-(D53-A)*%
X154372500Y-115500000D02*
X153589500Y-116283000D01*
X163634500Y-115000000D02*
X163634500Y-115500000D01*
X157672500Y-115500000D02*
X154372500Y-115500000D01*
X157592500Y-115500000D02*
X163634500Y-115500000D01*
%TO.N,Vdd_3v3*%
X88113550Y-54936000D02*
X94333500Y-48716050D01*
X93688550Y-47159000D02*
X86668500Y-47159000D01*
X80931950Y-45086000D02*
X83391500Y-45086000D01*
X158311500Y-53936000D02*
X171563500Y-40684000D01*
X87891500Y-44436000D02*
X87241500Y-45086000D01*
X171563500Y-40684000D02*
X178833950Y-40684000D01*
X221240500Y-123919000D02*
X216908500Y-123919000D01*
X72891500Y-49286000D02*
X72891500Y-50436000D01*
X85741500Y-47436000D02*
X83391500Y-45086000D01*
X94333500Y-47803950D02*
X93688550Y-47159000D01*
X79833950Y-46184000D02*
X80931950Y-45086000D01*
X69891500Y-53436000D02*
X69891500Y-54936000D01*
X86391500Y-47436000D02*
X85741500Y-47436000D01*
X72891500Y-50436000D02*
X69891500Y-53436000D01*
X216908500Y-123919000D02*
X216891500Y-123936000D01*
X188533950Y-40684000D02*
X183683950Y-40684000D01*
X94333500Y-48716050D02*
X94333500Y-47803950D01*
X85234950Y-54936000D02*
X88113550Y-54936000D01*
X79333950Y-46184000D02*
X79833950Y-46184000D01*
X81891500Y-54936000D02*
X85234950Y-54936000D01*
X86668500Y-47159000D02*
X86391500Y-47436000D01*
X193383950Y-40684000D02*
X188533950Y-40684000D01*
X183683950Y-40684000D02*
X178833950Y-40684000D01*
X77091500Y-45086000D02*
X76163725Y-46013775D01*
X87241500Y-45086000D02*
X83391500Y-45086000D01*
X76163725Y-46013775D02*
X72891500Y-49286000D01*
%TO.N,RP2040-DVDD*%
X187933950Y-50543607D02*
X187790500Y-50687057D01*
X187790500Y-51184943D02*
X187933950Y-51328393D01*
X185253000Y-49045500D02*
X185253000Y-54297500D01*
X187790500Y-50687057D02*
X187790500Y-51184943D01*
X191269935Y-54669935D02*
X191269935Y-56230065D01*
X185253000Y-54297500D02*
X185254000Y-54298500D01*
X178833950Y-43684000D02*
X179891500Y-43684000D01*
X187400000Y-63500000D02*
X187500000Y-63400000D01*
X186054000Y-62173500D02*
X186054000Y-63054000D01*
X187933950Y-51333950D02*
X191269935Y-54669935D01*
X186054000Y-63054000D02*
X186500000Y-63500000D01*
X187933950Y-51328393D02*
X187933950Y-51333950D01*
X187933950Y-50000000D02*
X187933950Y-50543607D01*
X186500000Y-63500000D02*
X187400000Y-63500000D01*
X185254000Y-54298500D02*
X185254000Y-55298500D01*
X179891500Y-43684000D02*
X185253000Y-49045500D01*
%TO.N,RP2040-IOVDD*%
X187500000Y-56500000D02*
X187387943Y-56500000D01*
X185654000Y-64000000D02*
X188500000Y-64000000D01*
X182764000Y-59736000D02*
X183000000Y-59500000D01*
X188891500Y-56136000D02*
X189636000Y-56136000D01*
X188891500Y-59736000D02*
X189764000Y-59736000D01*
X183000000Y-59500000D02*
X183000000Y-56135000D01*
X185450774Y-56037000D02*
X185057226Y-56037000D01*
X185654000Y-55846000D02*
X185654000Y-55833774D01*
X183000000Y-56135000D02*
X182182600Y-56135000D01*
X185654000Y-55833774D02*
X185450774Y-56037000D01*
X185654000Y-55298500D02*
X185654000Y-55846000D01*
X184733000Y-56037000D02*
X184635000Y-56135000D01*
X187864000Y-56136000D02*
X187500000Y-56500000D01*
X190000000Y-62500000D02*
X190000000Y-59500000D01*
X185654000Y-48184000D02*
X185654000Y-55298500D01*
X186593000Y-56785000D02*
X185654000Y-55846000D01*
X189636000Y-56136000D02*
X190000000Y-56500000D01*
X184635000Y-56135000D02*
X183000000Y-56135000D01*
X187102943Y-56785000D02*
X186593000Y-56785000D01*
X183683950Y-46213950D02*
X185654000Y-48184000D01*
X185654000Y-62173500D02*
X185654000Y-64000000D01*
X187387943Y-56500000D02*
X187102943Y-56785000D01*
X185050774Y-56037000D02*
X184733000Y-56037000D01*
X185057226Y-56037000D02*
X185054000Y-56033774D01*
X189764000Y-59736000D02*
X190000000Y-59500000D01*
X190000000Y-59500000D02*
X190000000Y-56500000D01*
X182016500Y-59736000D02*
X182764000Y-59736000D01*
X188891500Y-56136000D02*
X187864000Y-56136000D01*
X183683950Y-43684000D02*
X183683950Y-46213950D01*
X188500000Y-64000000D02*
X190000000Y-62500000D01*
X185054000Y-56033774D02*
X185050774Y-56037000D01*
%TO.N,RP2040-USB_VDD*%
X186054000Y-54207326D02*
X186055000Y-54206326D01*
X186055000Y-48020500D02*
X186055000Y-54206326D01*
X188533950Y-43684000D02*
X188533950Y-45541550D01*
X186054000Y-55298500D02*
X186054000Y-54207326D01*
X188533950Y-45541550D02*
X186055000Y-48020500D01*
%TO.N,RP2040-VREG_VOUT*%
X191754000Y-43684000D02*
X193383950Y-43684000D01*
X187333950Y-54684000D02*
X187333950Y-48104050D01*
X187254000Y-54763950D02*
X187333950Y-54684000D01*
X187254000Y-55298500D02*
X187254000Y-54763950D01*
X187333950Y-48104050D02*
X191754000Y-43684000D01*
%TO.N,Net-(Flash1-VCC)*%
X223391500Y-51936000D02*
X223391500Y-55626000D01*
%TO.N,Net-(D2-A)*%
X158817500Y-89000000D02*
X151592500Y-89000000D01*
%TO.N,Net-(D3-K)*%
X216847900Y-76153000D02*
X221660400Y-76153000D01*
X210922900Y-70228000D02*
X216847900Y-76153000D01*
%TO.N,Net-(D3-A)*%
X189664500Y-78638000D02*
X189878500Y-78424000D01*
X182951900Y-74919000D02*
X186670900Y-78638000D01*
X201326900Y-78424000D02*
X209522900Y-70228000D01*
X189878500Y-78424000D02*
X201326900Y-78424000D01*
X186670900Y-78638000D02*
X189664500Y-78638000D01*
%TO.N,Net-(D4-A)*%
X158817500Y-85500000D02*
X151592500Y-85500000D01*
%TO.N,Net-(D5-A)*%
X183911900Y-79039000D02*
X189830600Y-79039000D01*
X180411900Y-82539000D02*
X183911900Y-79039000D01*
X203375900Y-78825000D02*
X209522900Y-72678000D01*
X190044600Y-78825000D02*
X203375900Y-78825000D01*
X189830600Y-79039000D02*
X190044600Y-78825000D01*
%TO.N,Net-(D5-K)*%
X210922900Y-72678000D02*
X215047900Y-76803000D01*
X215047900Y-76803000D02*
X221660400Y-76803000D01*
%TO.N,Net-(D6-A)*%
X151592500Y-82000000D02*
X158817500Y-82000000D01*
%TO.N,Net-(D7-A)*%
X189798700Y-79638000D02*
X190210700Y-79226000D01*
X186924800Y-80539000D02*
X187825800Y-79638000D01*
X205424900Y-79226000D02*
X209522900Y-75128000D01*
X190210700Y-79226000D02*
X205424900Y-79226000D01*
X184951900Y-80539000D02*
X186924800Y-80539000D01*
X182951900Y-82539000D02*
X184951900Y-80539000D01*
X187825800Y-79638000D02*
X189798700Y-79638000D01*
%TO.N,Net-(D7-K)*%
X213247900Y-77453000D02*
X221660400Y-77453000D01*
X210922900Y-75128000D02*
X213247900Y-77453000D01*
%TO.N,Net-(D8-A)*%
X158817500Y-110000000D02*
X151672500Y-110000000D01*
%TO.N,Net-(D9-A)*%
X190376800Y-79627000D02*
X207473900Y-79627000D01*
X187991900Y-80039000D02*
X189964800Y-80039000D01*
X207473900Y-79627000D02*
X209522900Y-77578000D01*
X189964800Y-80039000D02*
X190376800Y-79627000D01*
X185491900Y-82539000D02*
X187991900Y-80039000D01*
%TO.N,Net-(D9-K)*%
X211447900Y-78103000D02*
X221660400Y-78103000D01*
X210922900Y-77578000D02*
X211447900Y-78103000D01*
%TO.N,Net-(D10-A)*%
X158817500Y-92500000D02*
X151592500Y-92500000D01*
%TO.N,Net-(D11-K)*%
X212197900Y-78753000D02*
X221660400Y-78753000D01*
X210922900Y-80028000D02*
X212197900Y-78753000D01*
%TO.N,Net-(D11-A)*%
X188031900Y-82539000D02*
X190542900Y-80028000D01*
X190542900Y-80028000D02*
X209522900Y-80028000D01*
%TO.N,Net-(D12-A)*%
X158817500Y-75000000D02*
X151592500Y-75000000D01*
%TO.N,Net-(D13-A)*%
X190571900Y-82539000D02*
X192474900Y-80636000D01*
X192474900Y-80636000D02*
X207680900Y-80636000D01*
X207680900Y-80636000D02*
X209522900Y-82478000D01*
%TO.N,Net-(D13-K)*%
X213997900Y-79403000D02*
X221660400Y-79403000D01*
X210922900Y-82478000D02*
X213997900Y-79403000D01*
%TO.N,Net-(D14-A)*%
X102092500Y-83500000D02*
X97467500Y-83500000D01*
%TO.N,Net-(D15-K)*%
X215797900Y-80053000D02*
X221660400Y-80053000D01*
X210922900Y-84928000D02*
X215797900Y-80053000D01*
%TO.N,Net-(D15-A)*%
X193111900Y-82539000D02*
X194613900Y-81037000D01*
X205631900Y-81037000D02*
X209522900Y-84928000D01*
X194613900Y-81037000D02*
X205631900Y-81037000D01*
%TO.N,Net-(D16-A)*%
X102092500Y-87000000D02*
X97467500Y-87000000D01*
%TO.N,Net-(D17-K)*%
X217647900Y-80703000D02*
X221660400Y-80703000D01*
X210922900Y-87428000D02*
X217647900Y-80703000D01*
%TO.N,Net-(D17-A)*%
X195651900Y-82539000D02*
X196752900Y-81438000D01*
X203532900Y-81438000D02*
X209522900Y-87428000D01*
X196752900Y-81438000D02*
X203532900Y-81438000D01*
%TO.N,Net-(D18-A)*%
X97467500Y-90500000D02*
X102092500Y-90500000D01*
%TO.N,Net-(D19-A)*%
X201514900Y-102436000D02*
X209522900Y-94428000D01*
X186585900Y-102638000D02*
X189189500Y-102638000D01*
X182671900Y-98724000D02*
X186585900Y-102638000D01*
X189391500Y-102436000D02*
X201514900Y-102436000D01*
X189189500Y-102638000D02*
X189391500Y-102436000D01*
%TO.N,Net-(D19-K)*%
X216647900Y-100153000D02*
X221660400Y-100153000D01*
X210922900Y-94428000D02*
X216647900Y-100153000D01*
%TO.N,Net-(D20-A)*%
X102092500Y-94000000D02*
X97467500Y-94000000D01*
%TO.N,Net-(D21-A)*%
X205612900Y-103238000D02*
X209522900Y-99328000D01*
X187350800Y-103638000D02*
X189323700Y-103638000D01*
X189323700Y-103638000D02*
X189723700Y-103238000D01*
X182671900Y-106344000D02*
X184976900Y-104039000D01*
X189723700Y-103238000D02*
X205612900Y-103238000D01*
X184976900Y-104039000D02*
X186949800Y-104039000D01*
X186949800Y-104039000D02*
X187350800Y-103638000D01*
%TO.N,Net-(D21-K)*%
X210922900Y-99328000D02*
X213047900Y-101453000D01*
X213047900Y-101453000D02*
X221660400Y-101453000D01*
%TO.N,Net-(D22-A)*%
X158817500Y-106500000D02*
X151592500Y-106500000D01*
%TO.N,Net-(D23-A)*%
X187751900Y-106344000D02*
X190055900Y-104040000D01*
X209234900Y-104040000D02*
X209522900Y-104328000D01*
X190055900Y-104040000D02*
X209234900Y-104040000D01*
%TO.N,Net-(D23-K)*%
X210922900Y-104328000D02*
X212497900Y-102753000D01*
X212497900Y-102753000D02*
X221660400Y-102753000D01*
%TO.N,Net-(D24-A)*%
X158817500Y-78500000D02*
X151592500Y-78500000D01*
%TO.N,Net-(D25-K)*%
X216197900Y-104053000D02*
X221660400Y-104053000D01*
X210922900Y-109328000D02*
X216197900Y-104053000D01*
%TO.N,Net-(D25-A)*%
X192831900Y-106344000D02*
X194333900Y-104842000D01*
X194333900Y-104842000D02*
X205036900Y-104842000D01*
X205036900Y-104842000D02*
X209522900Y-109328000D01*
%TO.N,Net-(D26-A)*%
X158817500Y-103000000D02*
X151592500Y-103000000D01*
%TO.N,Net-(D27-A)*%
X203513900Y-102837000D02*
X209522900Y-96828000D01*
X189355600Y-103039000D02*
X189557600Y-102837000D01*
X189557600Y-102837000D02*
X203513900Y-102837000D01*
X183436900Y-103039000D02*
X189355600Y-103039000D01*
X180131900Y-106344000D02*
X183436900Y-103039000D01*
%TO.N,Net-(D27-K)*%
X214897900Y-100803000D02*
X221660400Y-100803000D01*
X210922900Y-96828000D02*
X214897900Y-100803000D01*
%TO.N,Net-(D28-A)*%
X158817500Y-99500000D02*
X151592500Y-99500000D01*
%TO.N,Net-(D29-A)*%
X187516900Y-104039000D02*
X189489800Y-104039000D01*
X189489800Y-104039000D02*
X189889800Y-103639000D01*
X185211900Y-106344000D02*
X187516900Y-104039000D01*
X189889800Y-103639000D02*
X207711900Y-103639000D01*
X207711900Y-103639000D02*
X209522900Y-101828000D01*
%TO.N,Net-(D29-K)*%
X211197900Y-102103000D02*
X221660400Y-102103000D01*
X210922900Y-101828000D02*
X211197900Y-102103000D01*
%TO.N,Net-(D30-A)*%
X158817500Y-96000000D02*
X151592500Y-96000000D01*
%TO.N,Net-(D31-K)*%
X61962000Y-71435500D02*
X61962000Y-68410500D01*
X69028000Y-67935500D02*
X62437000Y-67935500D01*
X69592500Y-68000000D02*
X69092500Y-68000000D01*
X69092500Y-68000000D02*
X69028000Y-67935500D01*
X61962000Y-68410500D02*
X62437000Y-67935500D01*
%TO.N,Net-(D31-A)*%
X59622500Y-71500000D02*
X59687000Y-71435500D01*
X52592500Y-71500000D02*
X59622500Y-71500000D01*
X60162000Y-67935500D02*
X60162000Y-70960500D01*
X60162000Y-70960500D02*
X59687000Y-71435500D01*
%TO.N,Net-(D33-A)*%
X59647500Y-114000000D02*
X59712000Y-113935500D01*
X60187000Y-110435500D02*
X60187000Y-113460500D01*
X52592500Y-114000000D02*
X59647500Y-114000000D01*
X60187000Y-113460500D02*
X59712000Y-113935500D01*
%TO.N,Net-(D33-K)*%
X62526500Y-110500000D02*
X62462000Y-110435500D01*
X61987000Y-110910500D02*
X62462000Y-110435500D01*
X69432500Y-110500000D02*
X62526500Y-110500000D01*
X61987000Y-113935500D02*
X61987000Y-110910500D01*
%TO.N,Net-(D35-K)*%
X62501500Y-76500000D02*
X62437000Y-76435500D01*
X61937000Y-76935500D02*
X62437000Y-76435500D01*
X61937000Y-79935500D02*
X61937000Y-76935500D01*
X69592500Y-76500000D02*
X62501500Y-76500000D01*
%TO.N,Net-(D35-A)*%
X59597500Y-80000000D02*
X59662000Y-79935500D01*
X52592500Y-80000000D02*
X59597500Y-80000000D01*
X60162000Y-76435500D02*
X60162000Y-79435500D01*
X60162000Y-79435500D02*
X59662000Y-79935500D01*
%TO.N,Net-(D37-K)*%
X61987000Y-122435500D02*
X61987000Y-119410500D01*
X69592500Y-119000000D02*
X69092500Y-119000000D01*
X61987000Y-119410500D02*
X62462000Y-118935500D01*
X69092500Y-119000000D02*
X69028000Y-118935500D01*
X69028000Y-118935500D02*
X62462000Y-118935500D01*
%TO.N,Net-(D37-A)*%
X53092500Y-122500000D02*
X53157000Y-122435500D01*
X60187000Y-118935500D02*
X60187000Y-121960500D01*
X60187000Y-121960500D02*
X59712000Y-122435500D01*
X52592500Y-122500000D02*
X53092500Y-122500000D01*
X53157000Y-122435500D02*
X59712000Y-122435500D01*
%TO.N,Net-(D39-A)*%
X52592500Y-88500000D02*
X59622500Y-88500000D01*
X59622500Y-88500000D02*
X59687000Y-88435500D01*
X60162000Y-84935500D02*
X60162000Y-87960500D01*
X60162000Y-87960500D02*
X59687000Y-88435500D01*
%TO.N,Net-(D39-K)*%
X61962000Y-85410500D02*
X62437000Y-84935500D01*
X61962000Y-88435500D02*
X61962000Y-85410500D01*
X69592500Y-85000000D02*
X69092500Y-85000000D01*
X69028000Y-84935500D02*
X62437000Y-84935500D01*
X69092500Y-85000000D02*
X69028000Y-84935500D01*
%TO.N,Net-(D41-A)*%
X60162000Y-127435500D02*
X60162000Y-130560500D01*
X60162000Y-130560500D02*
X59787000Y-130935500D01*
X52592500Y-131000000D02*
X59722500Y-131000000D01*
X59722500Y-131000000D02*
X59787000Y-130935500D01*
%TO.N,Net-(D41-K)*%
X69028000Y-127435500D02*
X62437000Y-127435500D01*
X62062000Y-130935500D02*
X62062000Y-127810500D01*
X69592500Y-127500000D02*
X69092500Y-127500000D01*
X62062000Y-127810500D02*
X62437000Y-127435500D01*
X69092500Y-127500000D02*
X69028000Y-127435500D01*
%TO.N,Net-(D43-A)*%
X59622500Y-97000000D02*
X59687000Y-96935500D01*
X60162000Y-93435500D02*
X60162000Y-96460500D01*
X60162000Y-96460500D02*
X59687000Y-96935500D01*
X52592500Y-97000000D02*
X59622500Y-97000000D01*
%TO.N,Net-(D43-K)*%
X69028000Y-93435500D02*
X62437000Y-93435500D01*
X69592500Y-93500000D02*
X69092500Y-93500000D01*
X69092500Y-93500000D02*
X69028000Y-93435500D01*
X61962000Y-93910500D02*
X62437000Y-93435500D01*
X61962000Y-96935500D02*
X61962000Y-93910500D01*
%TO.N,Net-(D46-K)*%
X214347900Y-103403000D02*
X221660400Y-103403000D01*
X210922900Y-106828000D02*
X214347900Y-103403000D01*
%TO.N,Net-(D46-A)*%
X192194900Y-104441000D02*
X207135900Y-104441000D01*
X190291900Y-106344000D02*
X192194900Y-104441000D01*
X207135900Y-104441000D02*
X209522900Y-106828000D01*
%TO.N,Net-(D47-K)*%
X61962000Y-105435500D02*
X61962000Y-102410500D01*
X69592500Y-102000000D02*
X69092500Y-102000000D01*
X61962000Y-102410500D02*
X62437000Y-101935500D01*
X69028000Y-101935500D02*
X62437000Y-101935500D01*
X69092500Y-102000000D02*
X69028000Y-101935500D01*
%TO.N,Net-(D47-A)*%
X60162000Y-101935500D02*
X60162000Y-104960500D01*
X59622500Y-105500000D02*
X59687000Y-105435500D01*
X52592500Y-105500000D02*
X59622500Y-105500000D01*
X60162000Y-104960500D02*
X59687000Y-105435500D01*
%TO.N,Net-(D49-A)*%
X163634500Y-133283000D02*
X163634500Y-134158000D01*
X157092500Y-140000000D02*
X154592500Y-140000000D01*
X159509500Y-138283000D02*
X158809500Y-138283000D01*
X163634500Y-134158000D02*
X159509500Y-138283000D01*
X158809500Y-138283000D02*
X157092500Y-140000000D01*
X154592500Y-140000000D02*
X153592500Y-141000000D01*
%TO.N,Net-(D54-A)*%
X195371900Y-106344000D02*
X196472900Y-105243000D01*
X202937900Y-105243000D02*
X209522900Y-111828000D01*
X196472900Y-105243000D02*
X202937900Y-105243000D01*
%TO.N,Net-(D54-K)*%
X210922900Y-111828000D02*
X218047900Y-104703000D01*
X218047900Y-104703000D02*
X221660400Y-104703000D01*
%TO.N,Net-(D55-A)*%
X163634500Y-129958000D02*
X157092500Y-136500000D01*
X163634500Y-129783000D02*
X163634500Y-130658000D01*
X154592500Y-136500000D02*
X153592500Y-137500000D01*
X157092500Y-136500000D02*
X154592500Y-136500000D01*
X163634500Y-129783000D02*
X163634500Y-129958000D01*
%TO.N,Net-(D56-A)*%
X183280500Y-123419000D02*
X183280500Y-125237000D01*
X203515400Y-124159100D02*
X209391500Y-118283000D01*
X183280500Y-125237000D02*
X183326500Y-125283000D01*
X203515400Y-125283000D02*
X203515400Y-124159100D01*
X183326500Y-125283000D02*
X203515400Y-125283000D01*
%TO.N,Net-(D56-K)*%
X213478500Y-120970000D02*
X227045700Y-120970000D01*
X228114700Y-122039000D02*
X232060500Y-122039000D01*
X235285500Y-125264000D02*
X247418000Y-125264000D01*
X210791500Y-118283000D02*
X213478500Y-120970000D01*
X233940500Y-123919000D02*
X235285500Y-125264000D01*
X232060500Y-122039000D02*
X233940500Y-123919000D01*
X227045700Y-120970000D02*
X228114700Y-122039000D01*
%TO.N,Net-(D57-A)*%
X102092500Y-98500000D02*
X97467500Y-98500000D01*
%TO.N,Net-(D58-K)*%
X227358500Y-122417000D02*
X228860500Y-123919000D01*
X228860500Y-123919000D02*
X231505500Y-126564000D01*
X213590400Y-122417000D02*
X227358500Y-122417000D01*
X211614000Y-122460500D02*
X213546900Y-122460500D01*
X213546900Y-122460500D02*
X213590400Y-122417000D01*
X210791500Y-123283000D02*
X211614000Y-122460500D01*
X231505500Y-126564000D02*
X247418000Y-126564000D01*
%TO.N,Net-(D58-A)*%
X207458600Y-123283000D02*
X209391500Y-123283000D01*
X205702600Y-125039000D02*
X207458600Y-123283000D01*
X204248600Y-125684000D02*
X205057600Y-125684000D01*
X205057600Y-125684000D02*
X205702600Y-125039000D01*
X188234500Y-126085000D02*
X203847600Y-126085000D01*
X203847600Y-126085000D02*
X204248600Y-125684000D01*
X183280500Y-131039000D02*
X188234500Y-126085000D01*
%TO.N,Net-(D59-K)*%
X222634500Y-135225000D02*
X226320500Y-131539000D01*
X215466500Y-135225000D02*
X222634500Y-135225000D01*
X210791500Y-128928000D02*
X215280500Y-133417000D01*
X226320500Y-131539000D02*
X229995500Y-127864000D01*
X215280500Y-135039000D02*
X215466500Y-135225000D01*
X215280500Y-133417000D02*
X215280500Y-135039000D01*
X229995500Y-127864000D02*
X247418000Y-127864000D01*
%TO.N,Net-(D59-A)*%
X208502500Y-128039000D02*
X209391500Y-128928000D01*
X191058500Y-128341000D02*
X204179800Y-128341000D01*
X188360500Y-131039000D02*
X191058500Y-128341000D01*
X204481800Y-128039000D02*
X208502500Y-128039000D01*
X204179800Y-128341000D02*
X204481800Y-128039000D01*
%TO.N,Net-(D60-K)*%
X233775500Y-129164000D02*
X247418000Y-129164000D01*
X226912500Y-136027000D02*
X231400500Y-131539000D01*
X210791500Y-133928000D02*
X212890500Y-136027000D01*
X231400500Y-131539000D02*
X233775500Y-129164000D01*
X212890500Y-136027000D02*
X226912500Y-136027000D01*
%TO.N,Net-(D60-A)*%
X195336500Y-129143000D02*
X202884500Y-129143000D01*
X202884500Y-129143000D02*
X207669500Y-133928000D01*
X207669500Y-133928000D02*
X209391500Y-133928000D01*
X193440500Y-131039000D02*
X195336500Y-129143000D01*
%TO.N,Net-(D61-A)*%
X203681500Y-125684000D02*
X204082500Y-125283000D01*
X205536500Y-124638000D02*
X209391500Y-120783000D01*
X204891500Y-125283000D02*
X205536500Y-124638000D01*
X180740500Y-131039000D02*
X186095500Y-125684000D01*
X204082500Y-125283000D02*
X204891500Y-125283000D01*
X186095500Y-125684000D02*
X203681500Y-125684000D01*
%TO.N,Net-(D61-K)*%
X210791500Y-120783000D02*
X211379500Y-121371000D01*
X228047600Y-122539000D02*
X230020500Y-122539000D01*
X211379500Y-121371000D02*
X226879600Y-121371000D01*
X226879600Y-121371000D02*
X227524600Y-122016000D01*
X231400500Y-123919000D02*
X233395500Y-125914000D01*
X233395500Y-125914000D02*
X247418000Y-125914000D01*
X227524600Y-122016000D02*
X228047600Y-122539000D01*
X230020500Y-122539000D02*
X231400500Y-123919000D01*
%TO.N,Net-(D62-K)*%
X229615500Y-127214000D02*
X247418000Y-127214000D01*
X225219500Y-122818000D02*
X226320500Y-123919000D01*
X226320500Y-123919000D02*
X229615500Y-127214000D01*
X214401500Y-122818000D02*
X225219500Y-122818000D01*
X210791500Y-125783000D02*
X213756500Y-122818000D01*
X213756500Y-122818000D02*
X214401500Y-122818000D01*
%TO.N,Net-(D62-A)*%
X185820500Y-131039000D02*
X190373500Y-126486000D01*
X190373500Y-126486000D02*
X204013700Y-126486000D01*
X208746500Y-125138000D02*
X209391500Y-125783000D01*
X206170700Y-125138000D02*
X208746500Y-125138000D01*
X205868700Y-126085000D02*
X206170700Y-125783000D01*
X204013700Y-126486000D02*
X204414700Y-126085000D01*
X206170700Y-125783000D02*
X206170700Y-125138000D01*
X204414700Y-126085000D02*
X205868700Y-126085000D01*
%TO.N,Net-(D63-A)*%
X207502500Y-129539000D02*
X209391500Y-131428000D01*
X204345900Y-128742000D02*
X204548900Y-128539000D01*
X204548900Y-128539000D02*
X206347600Y-128539000D01*
X193197500Y-128742000D02*
X204345900Y-128742000D01*
X206347600Y-128539000D02*
X207347600Y-129539000D01*
X207347600Y-129539000D02*
X207502500Y-129539000D01*
X190900500Y-131039000D02*
X193197500Y-128742000D01*
%TO.N,Net-(D63-K)*%
X214989500Y-135626000D02*
X224773500Y-135626000D01*
X224773500Y-135626000D02*
X228860500Y-131539000D01*
X228860500Y-131539000D02*
X231885500Y-128514000D01*
X210791500Y-131428000D02*
X214989500Y-135626000D01*
X231885500Y-128514000D02*
X247418000Y-128514000D01*
%TO.N,Net-(D64-A)*%
X202507500Y-129544000D02*
X209391500Y-136428000D01*
X195980500Y-131039000D02*
X197475500Y-129544000D01*
X197475500Y-129544000D02*
X202507500Y-129544000D01*
%TO.N,Net-(D64-K)*%
X233940500Y-131539000D02*
X235665500Y-129814000D01*
X210791500Y-136428000D02*
X229051500Y-136428000D01*
X235665500Y-129814000D02*
X247418000Y-129814000D01*
X229051500Y-136428000D02*
X233940500Y-131539000D01*
%TO.N,RP2040-RWRAM-GPIO5-DIR*%
X242000000Y-73000000D02*
X242000000Y-104500000D01*
X179485421Y-65000000D02*
X179485421Y-59014579D01*
X241614000Y-124614000D02*
X247418000Y-124614000D01*
X186020421Y-71535000D02*
X200535000Y-71535000D01*
X241500000Y-124500000D02*
X241614000Y-124614000D01*
X241500000Y-109500000D02*
X241500000Y-124500000D01*
X179485421Y-59014579D02*
X179964000Y-58536000D01*
X179485421Y-65000000D02*
X186020421Y-71535000D01*
X179964000Y-58536000D02*
X182016500Y-58536000D01*
X200535000Y-71535000D02*
X202500000Y-73500000D01*
X237250000Y-68250000D02*
X242000000Y-73000000D01*
%TO.N,USB-C-VBUS*%
X69242500Y-39285000D02*
X68141500Y-40386000D01*
X73756500Y-39586000D02*
X73455500Y-39285000D01*
X64583950Y-42434000D02*
X65381950Y-41636000D01*
X68391500Y-41636000D02*
X68391500Y-40636000D01*
X73455500Y-39285000D02*
X69242500Y-39285000D01*
X68833950Y-42078450D02*
X68391500Y-41636000D01*
X69083950Y-42434000D02*
X68833950Y-42184000D01*
X68833950Y-42184000D02*
X68833950Y-42078450D01*
X68391500Y-40636000D02*
X68141500Y-40386000D01*
X65381950Y-41636000D02*
X65391500Y-41636000D01*
X65391500Y-40636000D02*
X65641500Y-40386000D01*
X65391500Y-41636000D02*
X65391500Y-40636000D01*
%TO.N,FLASH-DO-RP2040-QSPI_SD1*%
X216216500Y-56896000D02*
X193351500Y-56896000D01*
X183482206Y-53041202D02*
X183254000Y-53269408D01*
X183254000Y-53269408D02*
X183254000Y-55298500D01*
X193351500Y-56896000D02*
X192891500Y-56436000D01*
%TO.N,FLASH-DI-RP2040-QSPI_SD0*%
X184291500Y-51436000D02*
X184291500Y-53208500D01*
X184054000Y-54554000D02*
X184054000Y-55298500D01*
X183655000Y-54155000D02*
X184054000Y-54554000D01*
X183655000Y-53845000D02*
X183655000Y-54155000D01*
X210998990Y-48936000D02*
X188891500Y-48936000D01*
X223391500Y-59436000D02*
X221498990Y-59436000D01*
X221498990Y-59436000D02*
X210998990Y-48936000D01*
X184291500Y-53208500D02*
X183655000Y-53845000D01*
%TO.N,FLASH-HOLD{slash}RESET*%
X223526500Y-57031000D02*
X223391500Y-56896000D01*
X229724000Y-57031000D02*
X223526500Y-57031000D01*
%TO.N,FLASH-WP*%
X210304000Y-58031000D02*
X216081500Y-58031000D01*
X216081500Y-58031000D02*
X216216500Y-58166000D01*
%TO.N,FLASH-CS-RP2040-QSPI_SS*%
X182891500Y-52936000D02*
X182853000Y-52974500D01*
X193081500Y-55626000D02*
X188391500Y-50936000D01*
X182853000Y-52974500D02*
X182853000Y-55298500D01*
X182891500Y-52436000D02*
X182891500Y-52936000D01*
X216216500Y-55626000D02*
X193081500Y-55626000D01*
%TO.N,USB-C-CC1*%
X57042500Y-39285000D02*
X65431298Y-39285000D01*
X52741500Y-43586000D02*
X57042500Y-39285000D01*
X66141500Y-39995202D02*
X66141500Y-40386000D01*
X65431298Y-39285000D02*
X66141500Y-39995202D01*
%TO.N,USB-C-CC2*%
X67891500Y-45936000D02*
X67891500Y-41636000D01*
X46741500Y-43586000D02*
X55241500Y-52086000D01*
X61741500Y-52086000D02*
X67891500Y-45936000D01*
X55241500Y-52086000D02*
X61741500Y-52086000D01*
%TO.N,RP2040-Z80BOOTMODE*%
X177564000Y-56936000D02*
X175064000Y-59436000D01*
X167370500Y-52645450D02*
X167370500Y-58255000D01*
X247833950Y-45684000D02*
X244432950Y-42283000D01*
X175064000Y-59436000D02*
X168551500Y-59436000D01*
X182016500Y-56936000D02*
X177564000Y-56936000D01*
X244432950Y-42283000D02*
X177732950Y-42283000D01*
X254333950Y-45684000D02*
X247833950Y-45684000D01*
X167370500Y-58255000D02*
X168551500Y-59436000D01*
X177732950Y-42283000D02*
X167370500Y-52645450D01*
%TO.N,RP2040-RPBOOTMODE*%
X168471500Y-53936000D02*
X171000000Y-56464500D01*
X177464500Y-56464500D02*
X177500000Y-56500000D01*
X178964000Y-56536000D02*
X182016500Y-56536000D01*
X190476950Y-47184000D02*
X240783950Y-47184000D01*
X171000000Y-56464500D02*
X177464500Y-56464500D01*
X177500000Y-56500000D02*
X178928000Y-56500000D01*
X190333950Y-47041000D02*
X190476950Y-47184000D01*
X254333950Y-54234000D02*
X247833950Y-54234000D01*
X178928000Y-56500000D02*
X178964000Y-56536000D01*
X240783950Y-47184000D02*
X247833950Y-54234000D01*
%TO.N,RP2040-SH-GPIO2-SER*%
X177500000Y-67544500D02*
X177500000Y-58000000D01*
X185491900Y-74919000D02*
X184874500Y-74919000D01*
X177500000Y-58000000D02*
X178164000Y-57336000D01*
X178164000Y-57336000D02*
X182016500Y-57336000D01*
X184874500Y-74919000D02*
X177500000Y-67544500D01*
%TO.N,RP2040-RWRAM-GPIO7-Q7*%
X239500000Y-74000000D02*
X239500000Y-104500000D01*
X196500000Y-66000000D02*
X225500000Y-66000000D01*
X192000000Y-70500000D02*
X196500000Y-66000000D01*
X239020500Y-107520500D02*
X239020500Y-123919000D01*
X181067100Y-59336000D02*
X182016500Y-59336000D01*
X229500000Y-64000000D02*
X239500000Y-74000000D01*
X180600000Y-63829332D02*
X180600000Y-59803100D01*
X180694558Y-63923890D02*
X187270668Y-70500000D01*
X187270668Y-70500000D02*
X192000000Y-70500000D01*
X180694558Y-63923890D02*
X180600000Y-63829332D01*
X180600000Y-59803100D02*
X181067100Y-59336000D01*
%TO.N,USB-RP2040-DP*%
X186454000Y-54563950D02*
X186454000Y-55298500D01*
X186655000Y-54166726D02*
X186655000Y-54362950D01*
X161333950Y-41184000D02*
X162833950Y-42684000D01*
X162833950Y-42684000D02*
X162833950Y-47184000D01*
X92333950Y-43584000D02*
X94833950Y-41084000D01*
X66641500Y-40386000D02*
X66641500Y-40886000D01*
X67434950Y-41679450D02*
X67434950Y-43483000D01*
X92333950Y-44184000D02*
X92333950Y-43584000D01*
X186655000Y-54362950D02*
X186454000Y-54563950D01*
X66641500Y-40886000D02*
X67391500Y-41636000D01*
X67391500Y-41636000D02*
X67434950Y-41679450D01*
X67434950Y-43483000D02*
X66333950Y-44584000D01*
%TO.N,RP2040-SH-GPIO3-SER*%
X210123900Y-112218968D02*
X203906868Y-118436000D01*
X209863868Y-69577000D02*
X210123900Y-69837032D01*
X186891500Y-73436000D02*
X186891500Y-75335650D01*
X178000000Y-67477400D02*
X183958600Y-73436000D01*
X182016500Y-57736000D02*
X178764000Y-57736000D01*
X189578850Y-78023000D02*
X200735932Y-78023000D01*
X203906868Y-118436000D02*
X190803500Y-118436000D01*
X183958600Y-73436000D02*
X186891500Y-73436000D01*
X210123900Y-69837032D02*
X210123900Y-112218968D01*
X209181932Y-69577000D02*
X209863868Y-69577000D01*
X190803500Y-118436000D02*
X185820500Y-123419000D01*
X178000000Y-58500000D02*
X178000000Y-67477400D01*
X186891500Y-75335650D02*
X189578850Y-78023000D01*
X200735932Y-78023000D02*
X209181932Y-69577000D01*
X178764000Y-57736000D02*
X178000000Y-58500000D01*
%TO.N,USB-RP2040-DM*%
X66611707Y-39465409D02*
X67141500Y-39995202D01*
X67141500Y-39995202D02*
X67141500Y-40386000D01*
X66391500Y-42341550D02*
X66833950Y-42784000D01*
X66391500Y-41636000D02*
X66391500Y-42341550D01*
X66460237Y-39465409D02*
X66611707Y-39465409D01*
X160333950Y-41282000D02*
X160333950Y-45684000D01*
X186854000Y-56184000D02*
X186854000Y-55298500D01*
X160333950Y-45684000D02*
X161833950Y-47184000D01*
%TO.N,RP2040-SH-GPIO4-RCLK*%
X190291900Y-98724000D02*
X190291900Y-97291900D01*
X180977750Y-69522250D02*
X183391500Y-71936000D01*
X186891500Y-71936000D02*
X189874500Y-74919000D01*
X182016500Y-58136000D02*
X179364000Y-58136000D01*
X189874500Y-74919000D02*
X190571900Y-74919000D01*
X190291900Y-97291900D02*
X178500000Y-85500000D01*
X178500000Y-85500000D02*
X178500000Y-70000000D01*
X183391500Y-71936000D02*
X186891500Y-71936000D01*
X178500000Y-67044500D02*
X180977750Y-69522250D01*
X178500000Y-59000000D02*
X178500000Y-67044500D01*
X179364000Y-58136000D02*
X178500000Y-59000000D01*
%TO.N,RP2040-RWRAM-GPIO8-PL*%
X181200000Y-62856000D02*
X181000000Y-62656000D01*
X181000000Y-62656000D02*
X181000000Y-60500000D01*
X241000000Y-73500000D02*
X241000000Y-104500000D01*
X235000000Y-105500000D02*
X220500000Y-120000000D01*
X198095900Y-63837000D02*
X225163000Y-63837000D01*
X181200000Y-63274835D02*
X181200000Y-62856000D01*
X193310303Y-68622597D02*
X198095900Y-63837000D01*
X181000000Y-60500000D02*
X181364000Y-60136000D01*
X186547762Y-68622597D02*
X193310303Y-68622597D01*
X181364000Y-60136000D02*
X182016500Y-60136000D01*
X181200000Y-63274835D02*
X186547762Y-68622597D01*
X229500000Y-62000000D02*
X241000000Y-73500000D01*
X220500000Y-120000000D02*
X218500000Y-120000000D01*
X225163000Y-63837000D02*
X225500000Y-63500000D01*
%TO.N,RP2040-RWRAM-GPIO6-DS*%
X238500000Y-74500000D02*
X238500000Y-104000000D01*
X210029968Y-69176000D02*
X210506450Y-69652482D01*
X180000000Y-63400000D02*
X180000000Y-59500000D01*
X212262000Y-71000000D02*
X223000000Y-71000000D01*
X180085421Y-64442499D02*
X180085421Y-63485421D01*
X180085421Y-63485421D02*
X180000000Y-63400000D01*
X211523900Y-69837032D02*
X211523900Y-70261900D01*
X186642922Y-71000000D02*
X207191832Y-71000000D01*
X182016500Y-58936000D02*
X181264000Y-58936000D01*
X211523900Y-70261900D02*
X212262000Y-71000000D01*
X236480500Y-109019500D02*
X236480500Y-123919000D01*
X180000000Y-59500000D02*
X180564000Y-58936000D01*
X207191832Y-71000000D02*
X209015832Y-69176000D01*
X211263868Y-69577000D02*
X211523900Y-69837032D01*
X180564000Y-58936000D02*
X182016500Y-58936000D01*
X209015832Y-69176000D02*
X210029968Y-69176000D01*
X210506450Y-69652482D02*
X210581932Y-69577000D01*
X180085421Y-64442499D02*
X186642922Y-71000000D01*
X223000000Y-71000000D02*
X226000000Y-68000000D01*
X229500000Y-65500000D02*
X238500000Y-74500000D01*
X210581932Y-69577000D02*
X211263868Y-69577000D01*
X237000000Y-108500000D02*
X236480500Y-109019500D01*
X237000000Y-107000000D02*
X237000000Y-108500000D01*
%TO.N,Net-(ShiftRegisterOut1-SER)*%
X190572950Y-100000000D02*
X186487900Y-100000000D01*
X201500000Y-83500000D02*
X191392900Y-93607100D01*
X201500000Y-82038000D02*
X201500000Y-83500000D01*
X186487900Y-100000000D02*
X185211900Y-98724000D01*
X191392900Y-93607100D02*
X191392900Y-99180050D01*
X191392900Y-99180050D02*
X190572950Y-100000000D01*
%TD*%
M02*
