%TF.GenerationSoftware,KiCad,Pcbnew,9.0.6*%
%TF.CreationDate,2025-12-21T16:43:38+01:00*%
%TF.ProjectId,Z80DevBoard,5a383044-6576-4426-9f61-72642e6b6963,rev?*%
%TF.SameCoordinates,Original*%
%TF.FileFunction,Copper,L1,Top*%
%TF.FilePolarity,Positive*%
%FSLAX46Y46*%
G04 Gerber Fmt 4.6, Leading zero omitted, Abs format (unit mm)*
G04 Created by KiCad (PCBNEW 9.0.6) date 2025-12-21 16:43:38*
%MOMM*%
%LPD*%
G01*
G04 APERTURE LIST*
G04 Aperture macros list*
%AMRoundRect*
0 Rectangle with rounded corners*
0 $1 Rounding radius*
0 $2 $3 $4 $5 $6 $7 $8 $9 X,Y pos of 4 corners*
0 Add a 4 corners polygon primitive as box body*
4,1,4,$2,$3,$4,$5,$6,$7,$8,$9,$2,$3,0*
0 Add four circle primitives for the rounded corners*
1,1,$1+$1,$2,$3*
1,1,$1+$1,$4,$5*
1,1,$1+$1,$6,$7*
1,1,$1+$1,$8,$9*
0 Add four rect primitives between the rounded corners*
20,1,$1+$1,$2,$3,$4,$5,0*
20,1,$1+$1,$4,$5,$6,$7,0*
20,1,$1+$1,$6,$7,$8,$9,0*
20,1,$1+$1,$8,$9,$2,$3,0*%
G04 Aperture macros list end*
%TA.AperFunction,SMDPad,CuDef*%
%ADD10RoundRect,0.225000X-0.325000X-0.225000X0.325000X-0.225000X0.325000X0.225000X-0.325000X0.225000X0*%
%TD*%
%TA.AperFunction,SMDPad,CuDef*%
%ADD11R,2.200000X1.600000*%
%TD*%
%TA.AperFunction,ComponentPad*%
%ADD12C,2.000000*%
%TD*%
%TA.AperFunction,SMDPad,CuDef*%
%ADD13RoundRect,0.250000X-0.550000X0.250000X-0.550000X-0.250000X0.550000X-0.250000X0.550000X0.250000X0*%
%TD*%
%TA.AperFunction,ComponentPad*%
%ADD14C,1.600000*%
%TD*%
%TA.AperFunction,SMDPad,CuDef*%
%ADD15RoundRect,0.100000X-0.637500X-0.100000X0.637500X-0.100000X0.637500X0.100000X-0.637500X0.100000X0*%
%TD*%
%TA.AperFunction,ComponentPad*%
%ADD16RoundRect,0.250000X0.550000X-0.550000X0.550000X0.550000X-0.550000X0.550000X-0.550000X-0.550000X0*%
%TD*%
%TA.AperFunction,SMDPad,CuDef*%
%ADD17R,2.200000X2.200000*%
%TD*%
%TA.AperFunction,SMDPad,CuDef*%
%ADD18R,1.250000X2.200000*%
%TD*%
%TA.AperFunction,SMDPad,CuDef*%
%ADD19R,1.600000X2.200000*%
%TD*%
%TA.AperFunction,SMDPad,CuDef*%
%ADD20RoundRect,0.150000X-0.150000X-0.200000X0.150000X-0.200000X0.150000X0.200000X-0.150000X0.200000X0*%
%TD*%
%TA.AperFunction,SMDPad,CuDef*%
%ADD21RoundRect,0.375000X-0.625000X-0.375000X0.625000X-0.375000X0.625000X0.375000X-0.625000X0.375000X0*%
%TD*%
%TA.AperFunction,SMDPad,CuDef*%
%ADD22RoundRect,0.500000X-0.500000X-1.400000X0.500000X-1.400000X0.500000X1.400000X-0.500000X1.400000X0*%
%TD*%
%TA.AperFunction,SMDPad,CuDef*%
%ADD23RoundRect,0.147500X0.147500X0.172500X-0.147500X0.172500X-0.147500X-0.172500X0.147500X-0.172500X0*%
%TD*%
%TA.AperFunction,ComponentPad*%
%ADD24C,0.700000*%
%TD*%
%TA.AperFunction,ComponentPad*%
%ADD25O,0.900000X2.400000*%
%TD*%
%TA.AperFunction,ComponentPad*%
%ADD26O,0.900000X1.700000*%
%TD*%
%TA.AperFunction,ComponentPad*%
%ADD27R,0.850000X0.850000*%
%TD*%
%TA.AperFunction,ComponentPad*%
%ADD28C,0.850000*%
%TD*%
%TA.AperFunction,ComponentPad*%
%ADD29C,1.500000*%
%TD*%
%TA.AperFunction,ComponentPad*%
%ADD30RoundRect,0.250000X-0.550000X-0.550000X0.550000X-0.550000X0.550000X0.550000X-0.550000X0.550000X0*%
%TD*%
%TA.AperFunction,SMDPad,CuDef*%
%ADD31RoundRect,0.162500X-0.650000X-0.162500X0.650000X-0.162500X0.650000X0.162500X-0.650000X0.162500X0*%
%TD*%
%TA.AperFunction,SMDPad,CuDef*%
%ADD32RoundRect,0.050000X-0.387500X-0.050000X0.387500X-0.050000X0.387500X0.050000X-0.387500X0.050000X0*%
%TD*%
%TA.AperFunction,SMDPad,CuDef*%
%ADD33RoundRect,0.050000X-0.050000X-0.387500X0.050000X-0.387500X0.050000X0.387500X-0.050000X0.387500X0*%
%TD*%
%TA.AperFunction,HeatsinkPad*%
%ADD34R,3.200000X3.200000*%
%TD*%
%TA.AperFunction,ViaPad*%
%ADD35C,0.600000*%
%TD*%
%TA.AperFunction,Conductor*%
%ADD36C,0.200000*%
%TD*%
G04 APERTURE END LIST*
D10*
%TO.P,O2,4*%
%TO.N,N/C*%
X90000000Y-101200000D03*
%TO.P,O2,3*%
X91700000Y-101200000D03*
%TO.P,O2,2,+*%
%TO.N,Vdd_3v3*%
X91700000Y-102500000D03*
%TO.P,O2,1,-*%
%TO.N,Net-(O2--)*%
X90000000Y-102500000D03*
%TD*%
D11*
%TO.P,C9,2*%
%TO.N,Vdd_3v3*%
X92000000Y-108000000D03*
%TO.P,C9,1*%
%TO.N,GND*%
X89000000Y-108000000D03*
%TD*%
D12*
%TO.P,SW6,1,1*%
%TO.N,Vdd_3v3*%
X71000000Y-135000000D03*
X77500000Y-135000000D03*
%TO.P,SW6,2,2*%
%TO.N,Net-(SW5-A)*%
X71000000Y-139500000D03*
X77500000Y-139500000D03*
%TD*%
D13*
%TO.P,SW5,1,C*%
%TO.N,Net-(O2--)*%
X98850000Y-107250000D03*
%TO.P,SW5,2,B*%
%TO.N,CLOCK_Z80*%
X101150000Y-109000000D03*
%TO.P,SW5,3,A*%
%TO.N,Net-(SW5-A)*%
X98850000Y-110750000D03*
%TD*%
D14*
%TO.P,R16,1*%
%TO.N,Net-(SW5-A)*%
X81340000Y-139500000D03*
%TO.P,R16,2*%
%TO.N,GND*%
X91500000Y-139500000D03*
%TD*%
D11*
%TO.P,C8,1*%
%TO.N,GND*%
X165500000Y-66500000D03*
%TO.P,C8,2*%
%TO.N,RP2040_XIN*%
X168500000Y-66500000D03*
%TD*%
D14*
%TO.P,R8,1*%
%TO.N,Z80-MREQ*%
X110669500Y-131283000D03*
%TO.P,R8,2*%
%TO.N,Net-(D51-A)*%
X100509500Y-131283000D03*
%TD*%
D15*
%TO.P,DataBus2,1,DIR*%
%TO.N,RP2040-RWRAM-GPIO5-DIR*%
X247418000Y-124614000D03*
%TO.P,DataBus2,2,A1*%
%TO.N,Net-(D56-K)*%
X247418000Y-125264000D03*
%TO.P,DataBus2,3,A2*%
%TO.N,Net-(D61-K)*%
X247418000Y-125914000D03*
%TO.P,DataBus2,4,A3*%
%TO.N,Net-(D58-K)*%
X247418000Y-126564000D03*
%TO.P,DataBus2,5,A4*%
%TO.N,Net-(D62-K)*%
X247418000Y-127214000D03*
%TO.P,DataBus2,6,A5*%
%TO.N,Net-(D59-K)*%
X247418000Y-127864000D03*
%TO.P,DataBus2,7,A6*%
%TO.N,Net-(D63-K)*%
X247418000Y-128514000D03*
%TO.P,DataBus2,8,A7*%
%TO.N,Net-(D60-K)*%
X247418000Y-129164000D03*
%TO.P,DataBus2,9,A8*%
%TO.N,Net-(D64-K)*%
X247418000Y-129814000D03*
%TO.P,DataBus2,10,GND*%
%TO.N,GND*%
X247418000Y-130464000D03*
%TO.P,DataBus2,11,B8*%
%TO.N,RAM-Q7*%
X253143000Y-130464000D03*
%TO.P,DataBus2,12,B7*%
%TO.N,RAM-Q6*%
X253143000Y-129814000D03*
%TO.P,DataBus2,13,B6*%
%TO.N,RAM-Q5*%
X253143000Y-129164000D03*
%TO.P,DataBus2,14,B5*%
%TO.N,RAM-Q4*%
X253143000Y-128514000D03*
%TO.P,DataBus2,15,B4*%
%TO.N,RAM-Q3*%
X253143000Y-127864000D03*
%TO.P,DataBus2,16,B3*%
%TO.N,RAM-Q2*%
X253143000Y-127214000D03*
%TO.P,DataBus2,17,B2*%
%TO.N,RAM-Q1*%
X253143000Y-126564000D03*
%TO.P,DataBus2,18,B1*%
%TO.N,RAM-Q0*%
X253143000Y-125914000D03*
%TO.P,DataBus2,19,~{OE}*%
%TO.N,GND*%
X253143000Y-125264000D03*
%TO.P,DataBus2,20,VCC*%
%TO.N,Vcc*%
X253143000Y-124614000D03*
%TD*%
D14*
%TO.P,R11,1*%
%TO.N,Z80-BUSACK*%
X143349500Y-133783000D03*
%TO.P,R11,2*%
%TO.N,Net-(D1-A)*%
X153509500Y-133783000D03*
%TD*%
%TO.P,R12,1*%
%TO.N,GND*%
X52741500Y-53746000D03*
%TO.P,R12,2*%
%TO.N,USB-C-CC1*%
X52741500Y-43586000D03*
%TD*%
%TO.P,R27,1*%
%TO.N,Z80-D5*%
X79592500Y-110500000D03*
%TO.P,R27,2*%
%TO.N,Net-(D33-K)*%
X69432500Y-110500000D03*
%TD*%
%TO.P,R15,1*%
%TO.N,Vcc-RP2040-RUN*%
X200000000Y-53000000D03*
%TO.P,R15,2*%
%TO.N,Vdd_3v3*%
X210160000Y-53000000D03*
%TD*%
D16*
%TO.P,ShiftRegisterIn2,1,~{PL}*%
%TO.N,RP2040-RWRAM-GPIO8-PL*%
X221240500Y-131539000D03*
D14*
%TO.P,ShiftRegisterIn2,2,CP*%
%TO.N,CLOCK_BUS*%
X223780500Y-131539000D03*
%TO.P,ShiftRegisterIn2,3,D4*%
%TO.N,Net-(D59-K)*%
X226320500Y-131539000D03*
%TO.P,ShiftRegisterIn2,4,D5*%
%TO.N,Net-(D63-K)*%
X228860500Y-131539000D03*
%TO.P,ShiftRegisterIn2,5,D6*%
%TO.N,Net-(D60-K)*%
X231400500Y-131539000D03*
%TO.P,ShiftRegisterIn2,6,D7*%
%TO.N,Net-(D64-K)*%
X233940500Y-131539000D03*
%TO.P,ShiftRegisterIn2,7,~{Q7}*%
%TO.N,unconnected-(ShiftRegisterIn2-~{Q7}-Pad7)*%
X236480500Y-131539000D03*
%TO.P,ShiftRegisterIn2,8,GND*%
%TO.N,GND*%
X239020500Y-131539000D03*
%TO.P,ShiftRegisterIn2,9,Q7*%
%TO.N,RP2040-RWRAM-GPIO7-Q7*%
X239020500Y-123919000D03*
%TO.P,ShiftRegisterIn2,10,DS*%
%TO.N,RP2040-RWRAM-GPIO6-DS*%
X236480500Y-123919000D03*
%TO.P,ShiftRegisterIn2,11,D0*%
%TO.N,Net-(D56-K)*%
X233940500Y-123919000D03*
%TO.P,ShiftRegisterIn2,12,D1*%
%TO.N,Net-(D61-K)*%
X231400500Y-123919000D03*
%TO.P,ShiftRegisterIn2,13,D2*%
%TO.N,Net-(D58-K)*%
X228860500Y-123919000D03*
%TO.P,ShiftRegisterIn2,14,D3*%
%TO.N,Net-(D62-K)*%
X226320500Y-123919000D03*
%TO.P,ShiftRegisterIn2,15,~{CE}*%
%TO.N,GND*%
X223780500Y-123919000D03*
%TO.P,ShiftRegisterIn2,16,VCC*%
%TO.N,Vdd_3v3*%
X221240500Y-123919000D03*
%TD*%
D17*
%TO.P,D22,1,K*%
%TO.N,RAM-A1*%
X161092500Y-106500000D03*
D18*
%TO.P,D22,2,A*%
%TO.N,Net-(D22-A)*%
X158817500Y-106500000D03*
%TD*%
D19*
%TO.P,C6,1*%
%TO.N,RP2040-VREG_VOUT*%
X193383950Y-43684000D03*
%TO.P,C6,2*%
%TO.N,Vdd_3v3*%
X193383950Y-40684000D03*
%TD*%
D14*
%TO.P,R40,1*%
%TO.N,Net-(D8-A)*%
X151672500Y-110000000D03*
%TO.P,R40,2*%
%TO.N,Z80-A0*%
X141512500Y-110000000D03*
%TD*%
D20*
%TO.P,D60,1,K*%
%TO.N,Net-(D60-K)*%
X210791500Y-133928000D03*
%TO.P,D60,2,A*%
%TO.N,Net-(D60-A)*%
X209391500Y-133928000D03*
%TD*%
%TO.P,D62,1,K*%
%TO.N,Net-(D62-K)*%
X210791500Y-125783000D03*
%TO.P,D62,2,A*%
%TO.N,Net-(D62-A)*%
X209391500Y-125783000D03*
%TD*%
D17*
%TO.P,D18,1,K*%
%TO.N,RAM-A13*%
X95192500Y-90500000D03*
D18*
%TO.P,D18,2,A*%
%TO.N,Net-(D18-A)*%
X97467500Y-90500000D03*
%TD*%
D17*
%TO.P,D52,1,K*%
%TO.N,GND*%
X165909500Y-119000000D03*
D18*
%TO.P,D52,2,A*%
%TO.N,Net-(D52-A)*%
X163634500Y-119000000D03*
%TD*%
D17*
%TO.P,D45,1,K*%
%TO.N,GND*%
X88109500Y-126783000D03*
D18*
%TO.P,D45,2,A*%
%TO.N,Net-(D45-A)*%
X90384500Y-126783000D03*
%TD*%
D17*
%TO.P,D2,1,K*%
%TO.N,RAM-A6*%
X161092500Y-89000000D03*
D18*
%TO.P,D2,2,A*%
%TO.N,Net-(D2-A)*%
X158817500Y-89000000D03*
%TD*%
D11*
%TO.P,C12,1*%
%TO.N,GND*%
X173000000Y-117500000D03*
%TO.P,C12,2*%
%TO.N,Vdd_3v3*%
X176000000Y-117500000D03*
%TD*%
D21*
%TO.P,LDO1,1,GND*%
%TO.N,GND*%
X77091500Y-42786000D03*
%TO.P,LDO1,2,VO*%
%TO.N,Vdd_3v3*%
X77091500Y-45086000D03*
D22*
X83391500Y-45086000D03*
D21*
%TO.P,LDO1,3,VI*%
%TO.N,Vcc*%
X77091500Y-47386000D03*
%TD*%
D20*
%TO.P,D5,1,K*%
%TO.N,Net-(D5-K)*%
X210922900Y-72678000D03*
%TO.P,D5,2,A*%
%TO.N,Net-(D5-A)*%
X209522900Y-72678000D03*
%TD*%
%TO.P,D23,1,K*%
%TO.N,Net-(D23-K)*%
X210922900Y-104328000D03*
%TO.P,D23,2,A*%
%TO.N,Net-(D23-A)*%
X209522900Y-104328000D03*
%TD*%
D14*
%TO.P,R44,1*%
%TO.N,Net-(D26-A)*%
X151592500Y-103000000D03*
%TO.P,R44,2*%
%TO.N,Z80-A2*%
X141432500Y-103000000D03*
%TD*%
%TO.P,R46,1*%
%TO.N,Net-(D16-A)*%
X102092500Y-87000000D03*
%TO.P,R46,2*%
%TO.N,Z80-A12*%
X112252500Y-87000000D03*
%TD*%
D20*
%TO.P,D59,1,K*%
%TO.N,Net-(D59-K)*%
X210791500Y-128928000D03*
%TO.P,D59,2,A*%
%TO.N,Net-(D59-A)*%
X209391500Y-128928000D03*
%TD*%
D23*
%TO.P,F1,1*%
%TO.N,Vcc*%
X74726500Y-39586000D03*
%TO.P,F1,2*%
%TO.N,USB-C-VBUS*%
X73756500Y-39586000D03*
%TD*%
D17*
%TO.P,D12,1,K*%
%TO.N,RAM-A10*%
X161092500Y-75000000D03*
D18*
%TO.P,D12,2,A*%
%TO.N,Net-(D12-A)*%
X158817500Y-75000000D03*
%TD*%
D14*
%TO.P,R6,1*%
%TO.N,Z80-RESET*%
X143429500Y-123283000D03*
%TO.P,R6,2*%
%TO.N,Vcc*%
X153589500Y-123283000D03*
%TD*%
%TO.P,R25,1*%
%TO.N,Z80-D0*%
X79752500Y-68000000D03*
%TO.P,R25,2*%
%TO.N,Net-(D31-K)*%
X69592500Y-68000000D03*
%TD*%
D20*
%TO.P,D29,1,K*%
%TO.N,Net-(D29-K)*%
X210922900Y-101828000D03*
%TO.P,D29,2,A*%
%TO.N,Net-(D29-A)*%
X209522900Y-101828000D03*
%TD*%
D17*
%TO.P,D55,1,K*%
%TO.N,RAM-WE*%
X165909500Y-129783000D03*
D18*
%TO.P,D55,2,A*%
%TO.N,Net-(D55-A)*%
X163634500Y-129783000D03*
%TD*%
D14*
%TO.P,R17,1*%
%TO.N,RP2040-Z80BOOTMODE*%
X168551500Y-59436000D03*
%TO.P,R17,2*%
%TO.N,Vdd_3v3*%
X158391500Y-59436000D03*
%TD*%
%TO.P,R26,1*%
%TO.N,Z80-D1*%
X79752500Y-76500000D03*
%TO.P,R26,2*%
%TO.N,Net-(D35-K)*%
X69592500Y-76500000D03*
%TD*%
%TO.P,R21,1*%
%TO.N,Z80-WR*%
X143432500Y-137500000D03*
%TO.P,R21,2*%
%TO.N,Net-(D55-A)*%
X153592500Y-137500000D03*
%TD*%
D17*
%TO.P,D36,1,K*%
%TO.N,Net-(D35-A)*%
X60162000Y-76435500D03*
D18*
%TO.P,D36,2,A*%
%TO.N,Net-(D35-K)*%
X62437000Y-76435500D03*
%TD*%
D17*
%TO.P,D1,1,K*%
%TO.N,GND*%
X165909500Y-126283000D03*
D18*
%TO.P,D1,2,A*%
%TO.N,Net-(D1-A)*%
X163634500Y-126283000D03*
%TD*%
D17*
%TO.P,D30,1,K*%
%TO.N,RAM-A4*%
X161092500Y-96000000D03*
D18*
%TO.P,D30,2,A*%
%TO.N,Net-(D30-A)*%
X158817500Y-96000000D03*
%TD*%
D15*
%TO.P,DataBus3,1,DIR*%
%TO.N,Vcc*%
X221660400Y-75503000D03*
%TO.P,DataBus3,2,A1*%
%TO.N,Net-(D3-K)*%
X221660400Y-76153000D03*
%TO.P,DataBus3,3,A2*%
%TO.N,Net-(D5-K)*%
X221660400Y-76803000D03*
%TO.P,DataBus3,4,A3*%
%TO.N,Net-(D7-K)*%
X221660400Y-77453000D03*
%TO.P,DataBus3,5,A4*%
%TO.N,Net-(D9-K)*%
X221660400Y-78103000D03*
%TO.P,DataBus3,6,A5*%
%TO.N,Net-(D11-K)*%
X221660400Y-78753000D03*
%TO.P,DataBus3,7,A6*%
%TO.N,Net-(D13-K)*%
X221660400Y-79403000D03*
%TO.P,DataBus3,8,A7*%
%TO.N,Net-(D15-K)*%
X221660400Y-80053000D03*
%TO.P,DataBus3,9,A8*%
%TO.N,Net-(D17-K)*%
X221660400Y-80703000D03*
%TO.P,DataBus3,10,GND*%
%TO.N,GND*%
X221660400Y-81353000D03*
%TO.P,DataBus3,11,B8*%
%TO.N,RAM-A7*%
X227385400Y-81353000D03*
%TO.P,DataBus3,12,B7*%
%TO.N,RAM-A6*%
X227385400Y-80703000D03*
%TO.P,DataBus3,13,B6*%
%TO.N,RAM-A5*%
X227385400Y-80053000D03*
%TO.P,DataBus3,14,B5*%
%TO.N,RAM-A4*%
X227385400Y-79403000D03*
%TO.P,DataBus3,15,B4*%
%TO.N,RAM-A3*%
X227385400Y-78753000D03*
%TO.P,DataBus3,16,B3*%
%TO.N,RAM-A2*%
X227385400Y-78103000D03*
%TO.P,DataBus3,17,B2*%
%TO.N,RAM-A1*%
X227385400Y-77453000D03*
%TO.P,DataBus3,18,B1*%
%TO.N,RAM-A0*%
X227385400Y-76803000D03*
%TO.P,DataBus3,19,~{OE}*%
%TO.N,GND*%
X227385400Y-76153000D03*
%TO.P,DataBus3,20,VCC*%
%TO.N,Vcc*%
X227385400Y-75503000D03*
%TD*%
D20*
%TO.P,D15,1,K*%
%TO.N,Net-(D15-K)*%
X210922900Y-84928000D03*
%TO.P,D15,2,A*%
%TO.N,Net-(D15-A)*%
X209522900Y-84928000D03*
%TD*%
D17*
%TO.P,D51,1,K*%
%TO.N,GND*%
X88109500Y-130783000D03*
D18*
%TO.P,D51,2,A*%
%TO.N,Net-(D51-A)*%
X90384500Y-130783000D03*
%TD*%
D14*
%TO.P,R9,1*%
%TO.N,Z80-M1*%
X143429500Y-119783000D03*
%TO.P,R9,2*%
%TO.N,Net-(D52-A)*%
X153589500Y-119783000D03*
%TD*%
D11*
%TO.P,C1,1*%
%TO.N,GND*%
X72891500Y-54936000D03*
%TO.P,C1,2*%
%TO.N,Vcc*%
X75891500Y-54936000D03*
%TD*%
D14*
%TO.P,R35,1*%
%TO.N,Net-(D43-A)*%
X52592500Y-97000000D03*
%TO.P,R35,2*%
%TO.N,RAM-Q3*%
X42432500Y-97000000D03*
%TD*%
%TO.P,R43,1*%
%TO.N,Net-(D14-A)*%
X102092500Y-83500000D03*
%TO.P,R43,2*%
%TO.N,Z80-A11*%
X112252500Y-83500000D03*
%TD*%
D15*
%TO.P,DataBus1,1,DIR*%
%TO.N,Vcc*%
X221660400Y-99503000D03*
%TO.P,DataBus1,2,A1*%
%TO.N,Net-(D19-K)*%
X221660400Y-100153000D03*
%TO.P,DataBus1,3,A2*%
%TO.N,Net-(D27-K)*%
X221660400Y-100803000D03*
%TO.P,DataBus1,4,A3*%
%TO.N,Net-(D21-K)*%
X221660400Y-101453000D03*
%TO.P,DataBus1,5,A4*%
%TO.N,Net-(D29-K)*%
X221660400Y-102103000D03*
%TO.P,DataBus1,6,A5*%
%TO.N,Net-(D23-K)*%
X221660400Y-102753000D03*
%TO.P,DataBus1,7,A6*%
%TO.N,Net-(D46-K)*%
X221660400Y-103403000D03*
%TO.P,DataBus1,8,A7*%
%TO.N,Net-(D25-K)*%
X221660400Y-104053000D03*
%TO.P,DataBus1,9,A8*%
%TO.N,Net-(D54-K)*%
X221660400Y-104703000D03*
%TO.P,DataBus1,10,GND*%
%TO.N,GND*%
X221660400Y-105353000D03*
%TO.P,DataBus1,11,B8*%
%TO.N,unconnected-(DataBus1-B8-Pad11)*%
X227385400Y-105353000D03*
%TO.P,DataBus1,12,B7*%
%TO.N,RAM-A14*%
X227385400Y-104703000D03*
%TO.P,DataBus1,13,B6*%
%TO.N,RAM-A13*%
X227385400Y-104053000D03*
%TO.P,DataBus1,14,B5*%
%TO.N,RAM-A12*%
X227385400Y-103403000D03*
%TO.P,DataBus1,15,B4*%
%TO.N,RAM-A11*%
X227385400Y-102753000D03*
%TO.P,DataBus1,16,B3*%
%TO.N,RAM-A10*%
X227385400Y-102103000D03*
%TO.P,DataBus1,17,B2*%
%TO.N,RAM-A9*%
X227385400Y-101453000D03*
%TO.P,DataBus1,18,B1*%
%TO.N,RAM-A8*%
X227385400Y-100803000D03*
%TO.P,DataBus1,19,~{OE}*%
%TO.N,GND*%
X227385400Y-100153000D03*
%TO.P,DataBus1,20,VCC*%
%TO.N,Vcc*%
X227385400Y-99503000D03*
%TD*%
D12*
%TO.P,SW1,1,1*%
%TO.N,GND*%
X245583950Y-102434000D03*
X252083950Y-102434000D03*
%TO.P,SW1,2,2*%
%TO.N,Z80-WAIT*%
X245583950Y-106934000D03*
X252083950Y-106934000D03*
%TD*%
D14*
%TO.P,R36,1*%
%TO.N,Z80-D3*%
X79752500Y-93500000D03*
%TO.P,R36,2*%
%TO.N,Net-(D43-K)*%
X69592500Y-93500000D03*
%TD*%
D20*
%TO.P,D61,1,K*%
%TO.N,Net-(D61-K)*%
X210791500Y-120783000D03*
%TO.P,D61,2,A*%
%TO.N,Net-(D61-A)*%
X209391500Y-120783000D03*
%TD*%
D17*
%TO.P,D33,1,K*%
%TO.N,Net-(D33-K)*%
X61987000Y-113935500D03*
D18*
%TO.P,D33,2,A*%
%TO.N,Net-(D33-A)*%
X59712000Y-113935500D03*
%TD*%
D14*
%TO.P,R10,1*%
%TO.N,Z80-RFSH*%
X143429500Y-116283000D03*
%TO.P,R10,2*%
%TO.N,Net-(D53-A)*%
X153589500Y-116283000D03*
%TD*%
D19*
%TO.P,C5,1*%
%TO.N,RP2040-USB_VDD*%
X188533950Y-43684000D03*
%TO.P,C5,2*%
%TO.N,Vdd_3v3*%
X188533950Y-40684000D03*
%TD*%
D20*
%TO.P,D3,1,K*%
%TO.N,Net-(D3-K)*%
X210922900Y-70228000D03*
%TO.P,D3,2,A*%
%TO.N,Net-(D3-A)*%
X209522900Y-70228000D03*
%TD*%
D16*
%TO.P,ShiftRegisterOut3,1,QB*%
%TO.N,Net-(D5-A)*%
X180411900Y-82539000D03*
D14*
%TO.P,ShiftRegisterOut3,2,QC*%
%TO.N,Net-(D7-A)*%
X182951900Y-82539000D03*
%TO.P,ShiftRegisterOut3,3,QD*%
%TO.N,Net-(D9-A)*%
X185491900Y-82539000D03*
%TO.P,ShiftRegisterOut3,4,QE*%
%TO.N,Net-(D11-A)*%
X188031900Y-82539000D03*
%TO.P,ShiftRegisterOut3,5,QF*%
%TO.N,Net-(D13-A)*%
X190571900Y-82539000D03*
%TO.P,ShiftRegisterOut3,6,QG*%
%TO.N,Net-(D15-A)*%
X193111900Y-82539000D03*
%TO.P,ShiftRegisterOut3,7,QH*%
%TO.N,Net-(D17-A)*%
X195651900Y-82539000D03*
%TO.P,ShiftRegisterOut3,8,GND*%
%TO.N,GND*%
X198191900Y-82539000D03*
%TO.P,ShiftRegisterOut3,9,QH'*%
%TO.N,Net-(ShiftRegisterOut1-SER)*%
X198191900Y-74919000D03*
%TO.P,ShiftRegisterOut3,10,~{SRCLR}*%
%TO.N,Vdd_3v3*%
X195651900Y-74919000D03*
%TO.P,ShiftRegisterOut3,11,SRCLK*%
%TO.N,CLOCK_BUS*%
X193111900Y-74919000D03*
%TO.P,ShiftRegisterOut3,12,RCLK*%
%TO.N,RP2040-SH-GPIO4-RCLK*%
X190571900Y-74919000D03*
%TO.P,ShiftRegisterOut3,13,~{OE}*%
%TO.N,GND*%
X188031900Y-74919000D03*
%TO.P,ShiftRegisterOut3,14,SER*%
%TO.N,RP2040-SH-GPIO2-SER*%
X185491900Y-74919000D03*
%TO.P,ShiftRegisterOut3,15,QA*%
%TO.N,Net-(D3-A)*%
X182951900Y-74919000D03*
%TO.P,ShiftRegisterOut3,16,VCC*%
%TO.N,Vdd_3v3*%
X180411900Y-74919000D03*
%TD*%
D20*
%TO.P,D56,1,K*%
%TO.N,Net-(D56-K)*%
X210791500Y-118283000D03*
%TO.P,D56,2,A*%
%TO.N,Net-(D56-A)*%
X209391500Y-118283000D03*
%TD*%
D14*
%TO.P,R2,1*%
%TO.N,Vcc*%
X100429500Y-120783000D03*
%TO.P,R2,2*%
%TO.N,Z80-INT*%
X110589500Y-120783000D03*
%TD*%
D11*
%TO.P,C2,1*%
%TO.N,GND*%
X78891500Y-54936000D03*
%TO.P,C2,2*%
%TO.N,Vdd_3v3*%
X81891500Y-54936000D03*
%TD*%
D14*
%TO.P,R4,1*%
%TO.N,Z80-HALT*%
X110589500Y-127783000D03*
%TO.P,R4,2*%
%TO.N,Net-(D45-A)*%
X100429500Y-127783000D03*
%TD*%
D17*
%TO.P,D38,1,K*%
%TO.N,Net-(D37-A)*%
X60187000Y-118935500D03*
D18*
%TO.P,D38,2,A*%
%TO.N,Net-(D37-K)*%
X62462000Y-118935500D03*
%TD*%
D12*
%TO.P,SW2,1,1*%
%TO.N,GND*%
X245583950Y-94184000D03*
X252083950Y-94184000D03*
%TO.P,SW2,2,2*%
%TO.N,Z80-RESET*%
X245583950Y-98684000D03*
X252083950Y-98684000D03*
%TD*%
D17*
%TO.P,D41,1,K*%
%TO.N,Net-(D41-K)*%
X62062000Y-130935500D03*
D18*
%TO.P,D41,2,A*%
%TO.N,Net-(D41-A)*%
X59787000Y-130935500D03*
%TD*%
D14*
%TO.P,R41,1*%
%TO.N,Net-(D22-A)*%
X151592500Y-106500000D03*
%TO.P,R41,2*%
%TO.N,Z80-A1*%
X141432500Y-106500000D03*
%TD*%
%TO.P,R37,1*%
%TO.N,Z80-D7*%
X79752500Y-127500000D03*
%TO.P,R37,2*%
%TO.N,Net-(D41-K)*%
X69592500Y-127500000D03*
%TD*%
D17*
%TO.P,D50,1,K*%
%TO.N,GND*%
X88109500Y-134783000D03*
D18*
%TO.P,D50,2,A*%
%TO.N,Net-(D50-A)*%
X90384500Y-134783000D03*
%TD*%
D14*
%TO.P,R31,1*%
%TO.N,Net-(D37-A)*%
X52592500Y-122500000D03*
%TO.P,R31,2*%
%TO.N,RAM-Q6*%
X42432500Y-122500000D03*
%TD*%
D17*
%TO.P,D40,1,K*%
%TO.N,Net-(D39-A)*%
X60162000Y-84935500D03*
D18*
%TO.P,D40,2,A*%
%TO.N,Net-(D39-K)*%
X62437000Y-84935500D03*
%TD*%
D17*
%TO.P,D43,1,K*%
%TO.N,Net-(D43-K)*%
X61962000Y-96935500D03*
D18*
%TO.P,D43,2,A*%
%TO.N,Net-(D43-A)*%
X59687000Y-96935500D03*
%TD*%
D17*
%TO.P,D39,1,K*%
%TO.N,Net-(D39-K)*%
X61962000Y-88435500D03*
D18*
%TO.P,D39,2,A*%
%TO.N,Net-(D39-A)*%
X59687000Y-88435500D03*
%TD*%
D17*
%TO.P,D4,1,K*%
%TO.N,RAM-A7*%
X161092500Y-85500000D03*
D18*
%TO.P,D4,2,A*%
%TO.N,Net-(D4-A)*%
X158817500Y-85500000D03*
%TD*%
D20*
%TO.P,D25,1,K*%
%TO.N,Net-(D25-K)*%
X210922900Y-109328000D03*
%TO.P,D25,2,A*%
%TO.N,Net-(D25-A)*%
X209522900Y-109328000D03*
%TD*%
D14*
%TO.P,R30,1*%
%TO.N,Net-(D39-A)*%
X52592500Y-88500000D03*
%TO.P,R30,2*%
%TO.N,RAM-Q2*%
X42432500Y-88500000D03*
%TD*%
D19*
%TO.P,C4,1*%
%TO.N,RP2040-IOVDD*%
X183683950Y-43684000D03*
%TO.P,C4,2*%
%TO.N,Vdd_3v3*%
X183683950Y-40684000D03*
%TD*%
D14*
%TO.P,R28,1*%
%TO.N,Net-(D33-A)*%
X52592500Y-114000000D03*
%TO.P,R28,2*%
%TO.N,RAM-Q5*%
X42432500Y-114000000D03*
%TD*%
D19*
%TO.P,C11,1*%
%TO.N,GND*%
X173500000Y-80500000D03*
%TO.P,C11,2*%
%TO.N,RP2040_XOUT*%
X173500000Y-77500000D03*
%TD*%
D14*
%TO.P,R24,1*%
%TO.N,Z80-D4*%
X79752500Y-102000000D03*
%TO.P,R24,2*%
%TO.N,Net-(D47-K)*%
X69592500Y-102000000D03*
%TD*%
%TO.P,R48,1*%
%TO.N,Net-(D6-A)*%
X151592500Y-82000000D03*
%TO.P,R48,2*%
%TO.N,Z80-A8*%
X141432500Y-82000000D03*
%TD*%
D24*
%TO.P,USB_C1,A1,GND*%
%TO.N,GND*%
X69475000Y-44525000D03*
%TO.P,USB_C1,A4,VBUS*%
%TO.N,USB-C-VBUS*%
X68625000Y-44525000D03*
%TO.P,USB_C1,A5,CC1*%
%TO.N,USB-C-CC1*%
X67775000Y-44525000D03*
%TO.P,USB_C1,A6,D+*%
%TO.N,USB-RP2040-DP*%
X66925000Y-44525000D03*
%TO.P,USB_C1,A7,D-*%
%TO.N,USB-RP2040-DM*%
X66075000Y-44525000D03*
%TO.P,USB_C1,A8*%
%TO.N,N/C*%
X65225000Y-44525000D03*
%TO.P,USB_C1,A9,VBUS*%
%TO.N,USB-C-VBUS*%
X64375000Y-44525000D03*
%TO.P,USB_C1,A12,GND*%
%TO.N,GND*%
X63525000Y-44525000D03*
%TO.P,USB_C1,B1,GND*%
X63525000Y-43175000D03*
%TO.P,USB_C1,B4,VBUS*%
%TO.N,USB-C-VBUS*%
X64375000Y-43175000D03*
%TO.P,USB_C1,B5,CC2*%
%TO.N,USB-C-CC2*%
X65225000Y-43175000D03*
%TO.P,USB_C1,B6,D+*%
%TO.N,USB-RP2040-DP*%
X66075000Y-43175000D03*
%TO.P,USB_C1,B7,D-*%
%TO.N,USB-RP2040-DM*%
X66925000Y-43175000D03*
%TO.P,USB_C1,B8*%
%TO.N,N/C*%
X67775000Y-43175000D03*
%TO.P,USB_C1,B9,VBUS*%
%TO.N,USB-C-VBUS*%
X68625000Y-43175000D03*
%TO.P,USB_C1,B12,GND*%
%TO.N,GND*%
X69475000Y-43175000D03*
D25*
%TO.P,USB_C1,S1,SHIELD*%
%TO.N,Net-(USB_C1-SHIELD)*%
X70825000Y-43545000D03*
D26*
X70825000Y-40165000D03*
D25*
X62175000Y-43545000D03*
D26*
X62175000Y-40165000D03*
%TD*%
D14*
%TO.P,R23,1*%
%TO.N,Net-(D47-A)*%
X52592500Y-105500000D03*
%TO.P,R23,2*%
%TO.N,RAM-Q4*%
X42432500Y-105500000D03*
%TD*%
%TO.P,R5,1*%
%TO.N,Z80-WAIT*%
X143349500Y-130283000D03*
%TO.P,R5,2*%
%TO.N,Vcc*%
X153509500Y-130283000D03*
%TD*%
D17*
%TO.P,D8,1,K*%
%TO.N,RAM-A0*%
X161092500Y-110000000D03*
D18*
%TO.P,D8,2,A*%
%TO.N,Net-(D8-A)*%
X158817500Y-110000000D03*
%TD*%
D20*
%TO.P,D19,1,K*%
%TO.N,Net-(D19-K)*%
X210922900Y-94428000D03*
%TO.P,D19,2,A*%
%TO.N,Net-(D19-A)*%
X209522900Y-94428000D03*
%TD*%
%TO.P,D21,1,K*%
%TO.N,Net-(D21-K)*%
X210922900Y-99328000D03*
%TO.P,D21,2,A*%
%TO.N,Net-(D21-A)*%
X209522900Y-99328000D03*
%TD*%
D17*
%TO.P,D49,1,K*%
%TO.N,RAM-OE*%
X165909500Y-133283000D03*
D18*
%TO.P,D49,2,A*%
%TO.N,Net-(D49-A)*%
X163634500Y-133283000D03*
%TD*%
D27*
%TO.P,J1,1,Pin_1*%
%TO.N,RP2040-SWCLK-PIN*%
X254000000Y-61500000D03*
D28*
%TO.P,J1,2,Pin_2*%
%TO.N,RP2040-SWD-PIN*%
X254000000Y-62500000D03*
%TD*%
D12*
%TO.P,SW3,1,1*%
%TO.N,GND*%
X247833950Y-42750000D03*
X254333950Y-42750000D03*
%TO.P,SW3,2,2*%
%TO.N,RP2040-Z80BOOTMODE*%
X247833950Y-47250000D03*
X254333950Y-47250000D03*
%TD*%
D20*
%TO.P,D17,1,K*%
%TO.N,Net-(D17-K)*%
X210922900Y-87428000D03*
%TO.P,D17,2,A*%
%TO.N,Net-(D17-A)*%
X209522900Y-87428000D03*
%TD*%
D14*
%TO.P,R52,1*%
%TO.N,Net-(D20-A)*%
X102092500Y-94000000D03*
%TO.P,R52,2*%
%TO.N,Z80-A14*%
X112252500Y-94000000D03*
%TD*%
%TO.P,R38,1*%
%TO.N,Net-(D12-A)*%
X151592500Y-75000000D03*
%TO.P,R38,2*%
%TO.N,Z80-A10*%
X141432500Y-75000000D03*
%TD*%
D17*
%TO.P,D35,1,K*%
%TO.N,Net-(D35-K)*%
X61937000Y-79935500D03*
D18*
%TO.P,D35,2,A*%
%TO.N,Net-(D35-A)*%
X59662000Y-79935500D03*
%TD*%
D17*
%TO.P,D16,1,K*%
%TO.N,RAM-A12*%
X95192500Y-87000000D03*
D18*
%TO.P,D16,2,A*%
%TO.N,Net-(D16-A)*%
X97467500Y-87000000D03*
%TD*%
D14*
%TO.P,R7,1*%
%TO.N,Z80-IORQ*%
X110589500Y-134783000D03*
%TO.P,R7,2*%
%TO.N,Net-(D50-A)*%
X100429500Y-134783000D03*
%TD*%
D17*
%TO.P,D53,1,K*%
%TO.N,GND*%
X165909500Y-115500000D03*
D18*
%TO.P,D53,2,A*%
%TO.N,Net-(D53-A)*%
X163634500Y-115500000D03*
%TD*%
D14*
%TO.P,R13,1*%
%TO.N,USB-C-CC2*%
X46741500Y-43586000D03*
%TO.P,R13,2*%
%TO.N,GND*%
X46741500Y-53746000D03*
%TD*%
%TO.P,R32,1*%
%TO.N,Z80-D2*%
X79752500Y-85000000D03*
%TO.P,R32,2*%
%TO.N,Net-(D39-K)*%
X69592500Y-85000000D03*
%TD*%
D20*
%TO.P,D9,1,K*%
%TO.N,Net-(D9-K)*%
X210922900Y-77578000D03*
%TO.P,D9,2,A*%
%TO.N,Net-(D9-A)*%
X209522900Y-77578000D03*
%TD*%
D17*
%TO.P,D37,1,K*%
%TO.N,Net-(D37-K)*%
X61987000Y-122435500D03*
D18*
%TO.P,D37,2,A*%
%TO.N,Net-(D37-A)*%
X59712000Y-122435500D03*
%TD*%
D14*
%TO.P,R45,1*%
%TO.N,Net-(D4-A)*%
X151592500Y-85500000D03*
%TO.P,R45,2*%
%TO.N,Z80-A7*%
X141432500Y-85500000D03*
%TD*%
D20*
%TO.P,D63,1,K*%
%TO.N,Net-(D63-K)*%
X210791500Y-131428000D03*
%TO.P,D63,2,A*%
%TO.N,Net-(D63-A)*%
X209391500Y-131428000D03*
%TD*%
D14*
%TO.P,R49,1*%
%TO.N,Net-(D18-A)*%
X102092500Y-90500000D03*
%TO.P,R49,2*%
%TO.N,Z80-A13*%
X112252500Y-90500000D03*
%TD*%
%TO.P,R33,1*%
%TO.N,Z80-D6*%
X79752500Y-119000000D03*
%TO.P,R33,2*%
%TO.N,Net-(D37-K)*%
X69592500Y-119000000D03*
%TD*%
%TO.P,R22,1*%
%TO.N,Net-(D31-A)*%
X52592500Y-71500000D03*
%TO.P,R22,2*%
%TO.N,RAM-Q0*%
X42432500Y-71500000D03*
%TD*%
%TO.P,R14,1*%
%TO.N,GND*%
X58391500Y-53786000D03*
%TO.P,R14,2*%
%TO.N,Net-(USB_C1-SHIELD)*%
X58391500Y-43626000D03*
%TD*%
D17*
%TO.P,D10,1,K*%
%TO.N,RAM-A5*%
X161092500Y-92500000D03*
D18*
%TO.P,D10,2,A*%
%TO.N,Net-(D10-A)*%
X158817500Y-92500000D03*
%TD*%
D20*
%TO.P,D58,1,K*%
%TO.N,Net-(D58-K)*%
X210791500Y-123283000D03*
%TO.P,D58,2,A*%
%TO.N,Net-(D58-A)*%
X209391500Y-123283000D03*
%TD*%
D14*
%TO.P,R3,1*%
%TO.N,Z80-NMI*%
X110589500Y-124283000D03*
%TO.P,R3,2*%
%TO.N,Vcc*%
X100429500Y-124283000D03*
%TD*%
D20*
%TO.P,D27,1,K*%
%TO.N,Net-(D27-K)*%
X210922900Y-96828000D03*
%TO.P,D27,2,A*%
%TO.N,Net-(D27-A)*%
X209522900Y-96828000D03*
%TD*%
D17*
%TO.P,D24,1,K*%
%TO.N,RAM-A9*%
X161092500Y-78500000D03*
D18*
%TO.P,D24,2,A*%
%TO.N,Net-(D24-A)*%
X158817500Y-78500000D03*
%TD*%
D16*
%TO.P,ShiftRegisterOut2,1,QB*%
%TO.N,Net-(D61-A)*%
X180740500Y-131039000D03*
D14*
%TO.P,ShiftRegisterOut2,2,QC*%
%TO.N,Net-(D58-A)*%
X183280500Y-131039000D03*
%TO.P,ShiftRegisterOut2,3,QD*%
%TO.N,Net-(D62-A)*%
X185820500Y-131039000D03*
%TO.P,ShiftRegisterOut2,4,QE*%
%TO.N,Net-(D59-A)*%
X188360500Y-131039000D03*
%TO.P,ShiftRegisterOut2,5,QF*%
%TO.N,Net-(D63-A)*%
X190900500Y-131039000D03*
%TO.P,ShiftRegisterOut2,6,QG*%
%TO.N,Net-(D60-A)*%
X193440500Y-131039000D03*
%TO.P,ShiftRegisterOut2,7,QH*%
%TO.N,Net-(D64-A)*%
X195980500Y-131039000D03*
%TO.P,ShiftRegisterOut2,8,GND*%
%TO.N,GND*%
X198520500Y-131039000D03*
%TO.P,ShiftRegisterOut2,9,QH'*%
%TO.N,unconnected-(ShiftRegisterOut2-QH'-Pad9)*%
X198520500Y-123419000D03*
%TO.P,ShiftRegisterOut2,10,~{SRCLR}*%
%TO.N,Vdd_3v3*%
X195980500Y-123419000D03*
%TO.P,ShiftRegisterOut2,11,SRCLK*%
%TO.N,CLOCK_BUS*%
X193440500Y-123419000D03*
%TO.P,ShiftRegisterOut2,12,RCLK*%
%TO.N,RP2040-SH-GPIO3-RCLK*%
X190900500Y-123419000D03*
%TO.P,ShiftRegisterOut2,13,~{OE}*%
%TO.N,GND*%
X188360500Y-123419000D03*
%TO.P,ShiftRegisterOut2,14,SER*%
%TO.N,RP2040-SH-GPIO3-SER*%
X185820500Y-123419000D03*
%TO.P,ShiftRegisterOut2,15,QA*%
%TO.N,Net-(D56-A)*%
X183280500Y-123419000D03*
%TO.P,ShiftRegisterOut2,16,VCC*%
%TO.N,Vdd_3v3*%
X180740500Y-123419000D03*
%TD*%
%TO.P,R29,1*%
%TO.N,Net-(D35-A)*%
X52592500Y-80000000D03*
%TO.P,R29,2*%
%TO.N,RAM-Q1*%
X42432500Y-80000000D03*
%TD*%
D17*
%TO.P,D47,1,K*%
%TO.N,Net-(D47-K)*%
X61962000Y-105435500D03*
D18*
%TO.P,D47,2,A*%
%TO.N,Net-(D47-A)*%
X59687000Y-105435500D03*
%TD*%
D16*
%TO.P,ShiftRegisterOut1,1,QB*%
%TO.N,Net-(D27-A)*%
X180131900Y-106344000D03*
D14*
%TO.P,ShiftRegisterOut1,2,QC*%
%TO.N,Net-(D21-A)*%
X182671900Y-106344000D03*
%TO.P,ShiftRegisterOut1,3,QD*%
%TO.N,Net-(D29-A)*%
X185211900Y-106344000D03*
%TO.P,ShiftRegisterOut1,4,QE*%
%TO.N,Net-(D23-A)*%
X187751900Y-106344000D03*
%TO.P,ShiftRegisterOut1,5,QF*%
%TO.N,Net-(D46-A)*%
X190291900Y-106344000D03*
%TO.P,ShiftRegisterOut1,6,QG*%
%TO.N,Net-(D25-A)*%
X192831900Y-106344000D03*
%TO.P,ShiftRegisterOut1,7,QH*%
%TO.N,Net-(D54-A)*%
X195371900Y-106344000D03*
%TO.P,ShiftRegisterOut1,8,GND*%
%TO.N,GND*%
X197911900Y-106344000D03*
%TO.P,ShiftRegisterOut1,9,QH'*%
%TO.N,unconnected-(ShiftRegisterOut1-QH'-Pad9)*%
X197911900Y-98724000D03*
%TO.P,ShiftRegisterOut1,10,~{SRCLR}*%
%TO.N,Vdd_3v3*%
X195371900Y-98724000D03*
%TO.P,ShiftRegisterOut1,11,SRCLK*%
%TO.N,CLOCK_BUS*%
X192831900Y-98724000D03*
%TO.P,ShiftRegisterOut1,12,RCLK*%
%TO.N,RP2040-SH-GPIO4-RCLK*%
X190291900Y-98724000D03*
%TO.P,ShiftRegisterOut1,13,~{OE}*%
%TO.N,GND*%
X187751900Y-98724000D03*
%TO.P,ShiftRegisterOut1,14,SER*%
%TO.N,Net-(ShiftRegisterOut1-SER)*%
X185211900Y-98724000D03*
%TO.P,ShiftRegisterOut1,15,QA*%
%TO.N,Net-(D19-A)*%
X182671900Y-98724000D03*
%TO.P,ShiftRegisterOut1,16,VCC*%
%TO.N,Vdd_3v3*%
X180131900Y-98724000D03*
%TD*%
D12*
%TO.P,SW4,1,1*%
%TO.N,GND*%
X247833950Y-51300000D03*
X254333950Y-51300000D03*
%TO.P,SW4,2,2*%
%TO.N,RP2040-RPBOOTMODE*%
X247833950Y-55800000D03*
X254333950Y-55800000D03*
%TD*%
D16*
%TO.P,RAM1,1,A14*%
%TO.N,RAM-A14*%
X93232500Y-63500000D03*
D14*
%TO.P,RAM1,2,A12*%
%TO.N,RAM-A12*%
X95772500Y-63500000D03*
%TO.P,RAM1,3,A7*%
%TO.N,RAM-A7*%
X98312500Y-63500000D03*
%TO.P,RAM1,4,A6*%
%TO.N,RAM-A6*%
X100852500Y-63500000D03*
%TO.P,RAM1,5,A5*%
%TO.N,RAM-A5*%
X103392500Y-63500000D03*
%TO.P,RAM1,6,A4*%
%TO.N,RAM-A4*%
X105932500Y-63500000D03*
%TO.P,RAM1,7,A3*%
%TO.N,RAM-A3*%
X108472500Y-63500000D03*
%TO.P,RAM1,8,A2*%
%TO.N,RAM-A2*%
X111012500Y-63500000D03*
%TO.P,RAM1,9,A1*%
%TO.N,RAM-A1*%
X113552500Y-63500000D03*
%TO.P,RAM1,10,A0*%
%TO.N,RAM-A0*%
X116092500Y-63500000D03*
%TO.P,RAM1,11,Q0*%
%TO.N,RAM-Q0*%
X118632500Y-63500000D03*
%TO.P,RAM1,12,Q1*%
%TO.N,RAM-Q1*%
X121172500Y-63500000D03*
%TO.P,RAM1,13,Q2*%
%TO.N,RAM-Q2*%
X123712500Y-63500000D03*
%TO.P,RAM1,14,GND*%
%TO.N,GND*%
X126252500Y-63500000D03*
%TO.P,RAM1,15,Q3*%
%TO.N,RAM-Q3*%
X126252500Y-48260000D03*
%TO.P,RAM1,16,Q4*%
%TO.N,RAM-Q4*%
X123712500Y-48260000D03*
%TO.P,RAM1,17,Q5*%
%TO.N,RAM-Q5*%
X121172500Y-48260000D03*
%TO.P,RAM1,18,Q6*%
%TO.N,RAM-Q6*%
X118632500Y-48260000D03*
%TO.P,RAM1,19,Q7*%
%TO.N,RAM-Q7*%
X116092500Y-48260000D03*
%TO.P,RAM1,20,~{CS}*%
%TO.N,RAM-CS*%
X113552500Y-48260000D03*
%TO.P,RAM1,21,A10*%
%TO.N,RAM-A10*%
X111012500Y-48260000D03*
%TO.P,RAM1,22,~{OE}*%
%TO.N,RAM-OE*%
X108472500Y-48260000D03*
%TO.P,RAM1,23,A11*%
%TO.N,RAM-A11*%
X105932500Y-48260000D03*
%TO.P,RAM1,24,A9*%
%TO.N,RAM-A9*%
X103392500Y-48260000D03*
%TO.P,RAM1,25,A8*%
%TO.N,RAM-A8*%
X100852500Y-48260000D03*
%TO.P,RAM1,26,A13*%
%TO.N,RAM-A13*%
X98312500Y-48260000D03*
%TO.P,RAM1,27,~{WE}*%
%TO.N,RAM-WE*%
X95772500Y-48260000D03*
%TO.P,RAM1,28,VCC*%
%TO.N,Vcc*%
X93232500Y-48260000D03*
%TD*%
D17*
%TO.P,D57,1,K*%
%TO.N,RAM-CS*%
X95192500Y-98500000D03*
D18*
%TO.P,D57,2,A*%
%TO.N,Net-(D57-A)*%
X97467500Y-98500000D03*
%TD*%
D17*
%TO.P,D31,1,K*%
%TO.N,Net-(D31-K)*%
X61962000Y-71435500D03*
D18*
%TO.P,D31,2,A*%
%TO.N,Net-(D31-A)*%
X59687000Y-71435500D03*
%TD*%
D17*
%TO.P,D44,1,K*%
%TO.N,Net-(D43-A)*%
X60162000Y-93435500D03*
D18*
%TO.P,D44,2,A*%
%TO.N,Net-(D43-K)*%
X62437000Y-93435500D03*
%TD*%
D14*
%TO.P,R51,1*%
%TO.N,Net-(D24-A)*%
X151592500Y-78500000D03*
%TO.P,R51,2*%
%TO.N,Z80-A9*%
X141432500Y-78500000D03*
%TD*%
D20*
%TO.P,D13,1,K*%
%TO.N,Net-(D13-K)*%
X210922900Y-82478000D03*
%TO.P,D13,2,A*%
%TO.N,Net-(D13-A)*%
X209522900Y-82478000D03*
%TD*%
D17*
%TO.P,D42,1,K*%
%TO.N,Net-(D41-A)*%
X60162000Y-127435500D03*
D18*
%TO.P,D42,2,A*%
%TO.N,Net-(D41-K)*%
X62437000Y-127435500D03*
%TD*%
D17*
%TO.P,D34,1,K*%
%TO.N,Net-(D33-A)*%
X60187000Y-110435500D03*
D18*
%TO.P,D34,2,A*%
%TO.N,Net-(D33-K)*%
X62462000Y-110435500D03*
%TD*%
D19*
%TO.P,C3,1*%
%TO.N,RP2040-DVDD*%
X178833950Y-43684000D03*
%TO.P,C3,2*%
%TO.N,Vdd_3v3*%
X178833950Y-40684000D03*
%TD*%
D20*
%TO.P,D64,1,K*%
%TO.N,Net-(D64-K)*%
X210791500Y-136428000D03*
%TO.P,D64,2,A*%
%TO.N,Net-(D64-A)*%
X209391500Y-136428000D03*
%TD*%
%TO.P,D54,1,K*%
%TO.N,Net-(D54-K)*%
X210922900Y-111828000D03*
%TO.P,D54,2,A*%
%TO.N,Net-(D54-A)*%
X209522900Y-111828000D03*
%TD*%
D17*
%TO.P,D48,1,K*%
%TO.N,Net-(D47-A)*%
X60162000Y-101935500D03*
D18*
%TO.P,D48,2,A*%
%TO.N,Net-(D47-K)*%
X62437000Y-101935500D03*
%TD*%
D14*
%TO.P,R20,1*%
%TO.N,Z80-RD*%
X143432500Y-141000000D03*
%TO.P,R20,2*%
%TO.N,Net-(D49-A)*%
X153592500Y-141000000D03*
%TD*%
D29*
%TO.P,Y1,1,1*%
%TO.N,RP2040_XIN*%
X173500000Y-66870000D03*
%TO.P,Y1,2,2*%
%TO.N,RP2040_XOUT*%
X173500000Y-71750000D03*
%TD*%
D19*
%TO.P,C10,1*%
%TO.N,RP2040-VREG_IN*%
X198250000Y-43750000D03*
%TO.P,C10,2*%
%TO.N,Vdd_3v3*%
X198250000Y-40750000D03*
%TD*%
D17*
%TO.P,D14,1,K*%
%TO.N,RAM-A11*%
X95192500Y-83500000D03*
D18*
%TO.P,D14,2,A*%
%TO.N,Net-(D14-A)*%
X97467500Y-83500000D03*
%TD*%
D14*
%TO.P,R39,1*%
%TO.N,Net-(D10-A)*%
X151592500Y-92500000D03*
%TO.P,R39,2*%
%TO.N,Z80-A5*%
X141432500Y-92500000D03*
%TD*%
%TO.P,R47,1*%
%TO.N,Net-(D28-A)*%
X151592500Y-99500000D03*
%TO.P,R47,2*%
%TO.N,Z80-A3*%
X141432500Y-99500000D03*
%TD*%
%TO.P,R50,1*%
%TO.N,Net-(D30-A)*%
X151592500Y-96000000D03*
%TO.P,R50,2*%
%TO.N,Z80-A4*%
X141432500Y-96000000D03*
%TD*%
D19*
%TO.P,C7,1*%
%TO.N,Net-(Flash1-VCC)*%
X223391500Y-51936000D03*
%TO.P,C7,2*%
%TO.N,Vcc*%
X223391500Y-48936000D03*
%TD*%
D30*
%TO.P,Z80,1,A_{11}*%
%TO.N,Z80-A11*%
X119389500Y-85658000D03*
D14*
%TO.P,Z80,2,A_{12}*%
%TO.N,Z80-A12*%
X119389500Y-88198000D03*
%TO.P,Z80,3,A_{13}*%
%TO.N,Z80-A13*%
X119389500Y-90738000D03*
%TO.P,Z80,4,A_{14}*%
%TO.N,Z80-A14*%
X119389500Y-93278000D03*
%TO.P,Z80,5,A_{15}*%
%TO.N,Z80-A15*%
X119389500Y-95818000D03*
%TO.P,Z80,6,CLK*%
%TO.N,CLOCK_Z80*%
X119389500Y-98358000D03*
%TO.P,Z80,7,D_{4}*%
%TO.N,Z80-D4*%
X119389500Y-100898000D03*
%TO.P,Z80,8,D_{3}*%
%TO.N,Z80-D3*%
X119389500Y-103438000D03*
%TO.P,Z80,9,D_{5}*%
%TO.N,Z80-D5*%
X119389500Y-105978000D03*
%TO.P,Z80,10,D_{6}*%
%TO.N,Z80-D6*%
X119389500Y-108518000D03*
%TO.P,Z80,11,V_{CC}*%
%TO.N,Vcc*%
X119389500Y-111058000D03*
%TO.P,Z80,12,D_{2}*%
%TO.N,Z80-D2*%
X119389500Y-113598000D03*
%TO.P,Z80,13,D_{7}*%
%TO.N,Z80-D7*%
X119389500Y-116138000D03*
%TO.P,Z80,14,D_{0}*%
%TO.N,Z80-D0*%
X119389500Y-118678000D03*
%TO.P,Z80,15,D_{1}*%
%TO.N,Z80-D1*%
X119389500Y-121218000D03*
%TO.P,Z80,16,~{INT}*%
%TO.N,Z80-INT*%
X119389500Y-123758000D03*
%TO.P,Z80,17,~{NMI}*%
%TO.N,Z80-NMI*%
X119389500Y-126298000D03*
%TO.P,Z80,18,~{HALT}*%
%TO.N,Z80-HALT*%
X119389500Y-128838000D03*
%TO.P,Z80,19,~{MREQ}*%
%TO.N,Z80-MREQ*%
X119389500Y-131378000D03*
%TO.P,Z80,20,~{IORQ}*%
%TO.N,Z80-IORQ*%
X119389500Y-133918000D03*
%TO.P,Z80,21,~{RD}*%
%TO.N,Z80-RD*%
X134629500Y-133918000D03*
%TO.P,Z80,22,~{WR}*%
%TO.N,Z80-WR*%
X134629500Y-131378000D03*
%TO.P,Z80,23,~{BUSACK}*%
%TO.N,Z80-BUSACK*%
X134629500Y-128838000D03*
%TO.P,Z80,24,~{WAIT}*%
%TO.N,Z80-WAIT*%
X134629500Y-126298000D03*
%TO.P,Z80,25,~{BUSREQ}*%
%TO.N,Z80-BUSREQ*%
X134629500Y-123758000D03*
%TO.P,Z80,26,~{RESET}*%
%TO.N,Z80-RESET*%
X134629500Y-121218000D03*
%TO.P,Z80,27,~{M1}*%
%TO.N,Z80-M1*%
X134629500Y-118678000D03*
%TO.P,Z80,28,~{RFSH}*%
%TO.N,Z80-RFSH*%
X134629500Y-116138000D03*
%TO.P,Z80,29,GND*%
%TO.N,GND*%
X134629500Y-113598000D03*
%TO.P,Z80,30,A_{0}*%
%TO.N,Z80-A0*%
X134629500Y-111058000D03*
%TO.P,Z80,31,A_{1}*%
%TO.N,Z80-A1*%
X134629500Y-108518000D03*
%TO.P,Z80,32,A_{2}*%
%TO.N,Z80-A2*%
X134629500Y-105978000D03*
%TO.P,Z80,33,A_{3}*%
%TO.N,Z80-A3*%
X134629500Y-103438000D03*
%TO.P,Z80,34,A_{4}*%
%TO.N,Z80-A4*%
X134629500Y-100898000D03*
%TO.P,Z80,35,A_{5}*%
%TO.N,Z80-A5*%
X134629500Y-98358000D03*
%TO.P,Z80,36,A_{6}*%
%TO.N,Z80-A6*%
X134629500Y-95818000D03*
%TO.P,Z80,37,A_{7}*%
%TO.N,Z80-A7*%
X134629500Y-93278000D03*
%TO.P,Z80,38,A_{8}*%
%TO.N,Z80-A8*%
X134629500Y-90738000D03*
%TO.P,Z80,39,A_{9}*%
%TO.N,Z80-A9*%
X134629500Y-88198000D03*
%TO.P,Z80,40,A_{10}*%
%TO.N,Z80-A10*%
X134629500Y-85658000D03*
%TD*%
D20*
%TO.P,D11,1,K*%
%TO.N,Net-(D11-K)*%
X210922900Y-80028000D03*
%TO.P,D11,2,A*%
%TO.N,Net-(D11-A)*%
X209522900Y-80028000D03*
%TD*%
D14*
%TO.P,R1,1*%
%TO.N,Vcc*%
X153589500Y-126783000D03*
%TO.P,R1,2*%
%TO.N,Z80-BUSREQ*%
X143429500Y-126783000D03*
%TD*%
%TO.P,R18,1*%
%TO.N,RP2040-RPBOOTMODE*%
X168471500Y-53936000D03*
%TO.P,R18,2*%
%TO.N,Vdd_3v3*%
X158311500Y-53936000D03*
%TD*%
D20*
%TO.P,D46,1,K*%
%TO.N,Net-(D46-K)*%
X210922900Y-106828000D03*
%TO.P,D46,2,A*%
%TO.N,Net-(D46-A)*%
X209522900Y-106828000D03*
%TD*%
D31*
%TO.P,Flash1,1,~{CS}*%
%TO.N,FLASH-CS-RP2040-QSPI_SS*%
X216216500Y-55626000D03*
%TO.P,Flash1,2,DO/IO_{1}*%
%TO.N,FLASH-DO-RP2040-QSPI_SD1*%
X216216500Y-56896000D03*
%TO.P,Flash1,3,~{WP}/IO_{2}*%
%TO.N,FLASH-WP-RP2040-QSPI_SD2*%
X216216500Y-58166000D03*
%TO.P,Flash1,4,GND*%
%TO.N,GND*%
X216216500Y-59436000D03*
%TO.P,Flash1,5,DI/IO_{0}*%
%TO.N,FLASH-DI-RP2040-QSPI_SD0*%
X223391500Y-59436000D03*
%TO.P,Flash1,6,CLK*%
%TO.N,CLOCK_FLASH*%
X223391500Y-58166000D03*
%TO.P,Flash1,7,~{HOLD}/~{RESET}/IO_{3}*%
%TO.N,FLASH-HOLD-RESRT-RP2040-QSPI_SD3*%
X223391500Y-56896000D03*
%TO.P,Flash1,8,VCC*%
%TO.N,Net-(Flash1-VCC)*%
X223391500Y-55626000D03*
%TD*%
D17*
%TO.P,D28,1,K*%
%TO.N,RAM-A3*%
X161092500Y-99500000D03*
D18*
%TO.P,D28,2,A*%
%TO.N,Net-(D28-A)*%
X158817500Y-99500000D03*
%TD*%
D17*
%TO.P,D20,1,K*%
%TO.N,RAM-A14*%
X95192500Y-94000000D03*
D18*
%TO.P,D20,2,A*%
%TO.N,Net-(D20-A)*%
X97467500Y-94000000D03*
%TD*%
D17*
%TO.P,D32,1,K*%
%TO.N,Net-(D31-A)*%
X60162000Y-67935500D03*
D18*
%TO.P,D32,2,A*%
%TO.N,Net-(D31-K)*%
X62437000Y-67935500D03*
%TD*%
D17*
%TO.P,D6,1,K*%
%TO.N,RAM-A8*%
X161092500Y-82000000D03*
D18*
%TO.P,D6,2,A*%
%TO.N,Net-(D6-A)*%
X158817500Y-82000000D03*
%TD*%
D20*
%TO.P,D7,1,K*%
%TO.N,Net-(D7-K)*%
X210922900Y-75128000D03*
%TO.P,D7,2,A*%
%TO.N,Net-(D7-A)*%
X209522900Y-75128000D03*
%TD*%
D14*
%TO.P,R34,1*%
%TO.N,Net-(D41-A)*%
X52592500Y-131000000D03*
%TO.P,R34,2*%
%TO.N,RAM-Q7*%
X42432500Y-131000000D03*
%TD*%
D10*
%TO.P,O1,1,-*%
%TO.N,CLOCK_BUS*%
X173780000Y-112000000D03*
%TO.P,O1,2,+*%
%TO.N,Vdd_3v3*%
X175480000Y-112000000D03*
%TO.P,O1,3*%
%TO.N,N/C*%
X175480000Y-110700000D03*
%TO.P,O1,4*%
X173780000Y-110700000D03*
%TD*%
D17*
%TO.P,D26,1,K*%
%TO.N,RAM-A2*%
X161092500Y-103000000D03*
D18*
%TO.P,D26,2,A*%
%TO.N,Net-(D26-A)*%
X158817500Y-103000000D03*
%TD*%
D14*
%TO.P,R19,1*%
%TO.N,Z80-A15*%
X112252500Y-98500000D03*
%TO.P,R19,2*%
%TO.N,Net-(D57-A)*%
X102092500Y-98500000D03*
%TD*%
%TO.P,R42,1*%
%TO.N,Net-(D2-A)*%
X151592500Y-89000000D03*
%TO.P,R42,2*%
%TO.N,Z80-A6*%
X141432500Y-89000000D03*
%TD*%
D32*
%TO.P,RP2040_1,1,IOVDD*%
%TO.N,RP2040-IOVDD*%
X182016500Y-56136000D03*
%TO.P,RP2040_1,2,GPIO0*%
%TO.N,RP2040-RPBOOTMODE*%
X182016500Y-56536000D03*
%TO.P,RP2040_1,3,GPIO1*%
%TO.N,RP2040-Z80BOOTMODE*%
X182016500Y-56936000D03*
%TO.P,RP2040_1,4,GPIO2*%
%TO.N,RP2040-SH-GPIO2-SER*%
X182016500Y-57336000D03*
%TO.P,RP2040_1,5,GPIO3*%
%TO.N,RP2040-SH-GPIO3-SER*%
X182016500Y-57736000D03*
%TO.P,RP2040_1,6,GPIO4*%
%TO.N,RP2040-SH-GPIO4-RCLK*%
X182016500Y-58136000D03*
%TO.P,RP2040_1,7,GPIO5*%
%TO.N,RP2040-RWRAM-GPIO5-DIR*%
X182016500Y-58536000D03*
%TO.P,RP2040_1,8,GPIO6*%
%TO.N,RP2040-RWRAM-GPIO6-DS*%
X182016500Y-58936000D03*
%TO.P,RP2040_1,9,GPIO7*%
%TO.N,RP2040-RWRAM-GPIO7-Q7*%
X182016500Y-59336000D03*
%TO.P,RP2040_1,10,IOVDD*%
%TO.N,RP2040-IOVDD*%
X182016500Y-59736000D03*
%TO.P,RP2040_1,11,GPIO8*%
%TO.N,RP2040-RWRAM-GPIO8-PL*%
X182016500Y-60136000D03*
%TO.P,RP2040_1,12,GPIO9*%
%TO.N,unconnected-(RP2040_1-GPIO9-Pad12)*%
X182016500Y-60536000D03*
%TO.P,RP2040_1,13,GPIO10*%
%TO.N,unconnected-(RP2040_1-GPIO10-Pad13)*%
X182016500Y-60936000D03*
%TO.P,RP2040_1,14,GPIO11*%
%TO.N,unconnected-(RP2040_1-GPIO11-Pad14)*%
X182016500Y-61336000D03*
D33*
%TO.P,RP2040_1,15,GPIO12*%
%TO.N,unconnected-(RP2040_1-GPIO12-Pad15)*%
X182854000Y-62173500D03*
%TO.P,RP2040_1,16,GPIO13*%
%TO.N,unconnected-(RP2040_1-GPIO13-Pad16)*%
X183254000Y-62173500D03*
%TO.P,RP2040_1,17,GPIO14*%
%TO.N,unconnected-(RP2040_1-GPIO14-Pad17)*%
X183654000Y-62173500D03*
%TO.P,RP2040_1,18,GPIO15*%
%TO.N,unconnected-(RP2040_1-GPIO15-Pad18)*%
X184054000Y-62173500D03*
%TO.P,RP2040_1,19,TESTEN*%
%TO.N,unconnected-(RP2040_1-TESTEN-Pad19)*%
X184454000Y-62173500D03*
%TO.P,RP2040_1,20,XIN*%
%TO.N,RP2040_XIN*%
X184854000Y-62173500D03*
%TO.P,RP2040_1,21,XOUT*%
%TO.N,RP2040_XOUT*%
X185254000Y-62173500D03*
%TO.P,RP2040_1,22,IOVDD*%
%TO.N,RP2040-IOVDD*%
X185654000Y-62173500D03*
%TO.P,RP2040_1,23,DVDD*%
%TO.N,RP2040-DVDD*%
X186054000Y-62173500D03*
%TO.P,RP2040_1,24,SWCLK*%
%TO.N,RP2040-SWCLK-PIN*%
X186454000Y-62173500D03*
%TO.P,RP2040_1,25,SWD*%
%TO.N,RP2040-SWD-PIN*%
X186854000Y-62173500D03*
%TO.P,RP2040_1,26,RUN*%
%TO.N,Vcc-RP2040-RUN*%
X187254000Y-62173500D03*
%TO.P,RP2040_1,27,GPIO16*%
%TO.N,unconnected-(RP2040_1-GPIO16-Pad27)*%
X187654000Y-62173500D03*
%TO.P,RP2040_1,28,GPIO17*%
%TO.N,unconnected-(RP2040_1-GPIO17-Pad28)*%
X188054000Y-62173500D03*
D32*
%TO.P,RP2040_1,29,GPIO18*%
%TO.N,unconnected-(RP2040_1-GPIO18-Pad29)*%
X188891500Y-61336000D03*
%TO.P,RP2040_1,30,GPIO19*%
%TO.N,unconnected-(RP2040_1-GPIO19-Pad30)*%
X188891500Y-60936000D03*
%TO.P,RP2040_1,31,GPIO20*%
%TO.N,unconnected-(RP2040_1-GPIO20-Pad31)*%
X188891500Y-60536000D03*
%TO.P,RP2040_1,32,GPIO21*%
%TO.N,unconnected-(RP2040_1-GPIO21-Pad32)*%
X188891500Y-60136000D03*
%TO.P,RP2040_1,33,IOVDD*%
%TO.N,RP2040-IOVDD*%
X188891500Y-59736000D03*
%TO.P,RP2040_1,34,GPIO22*%
%TO.N,unconnected-(RP2040_1-GPIO22-Pad34)*%
X188891500Y-59336000D03*
%TO.P,RP2040_1,35,GPIO23*%
%TO.N,unconnected-(RP2040_1-GPIO23-Pad35)*%
X188891500Y-58936000D03*
%TO.P,RP2040_1,36,GPIO24*%
%TO.N,unconnected-(RP2040_1-GPIO24-Pad36)*%
X188891500Y-58536000D03*
%TO.P,RP2040_1,37,GPIO25*%
%TO.N,unconnected-(RP2040_1-GPIO25-Pad37)*%
X188891500Y-58136000D03*
%TO.P,RP2040_1,38,GPIO26_ADC0*%
%TO.N,unconnected-(RP2040_1-GPIO26_ADC0-Pad38)*%
X188891500Y-57736000D03*
%TO.P,RP2040_1,39,GPIO27_ADC1*%
%TO.N,unconnected-(RP2040_1-GPIO27_ADC1-Pad39)*%
X188891500Y-57336000D03*
%TO.P,RP2040_1,40,GPIO28_ADC2*%
%TO.N,unconnected-(RP2040_1-GPIO28_ADC2-Pad40)*%
X188891500Y-56936000D03*
%TO.P,RP2040_1,41,GPIO29_ADC3*%
%TO.N,unconnected-(RP2040_1-GPIO29_ADC3-Pad41)*%
X188891500Y-56536000D03*
%TO.P,RP2040_1,42,IOVDD*%
%TO.N,RP2040-IOVDD*%
X188891500Y-56136000D03*
D33*
%TO.P,RP2040_1,43,ADC_AVDD*%
%TO.N,unconnected-(RP2040_1-ADC_AVDD-Pad43)*%
X188054000Y-55298500D03*
%TO.P,RP2040_1,44,VREG_IN*%
%TO.N,RP2040-VREG_IN*%
X187654000Y-55298500D03*
%TO.P,RP2040_1,45,VREG_VOUT*%
%TO.N,RP2040-VREG_VOUT*%
X187254000Y-55298500D03*
%TO.P,RP2040_1,46,USB_DM*%
%TO.N,USB-RP2040-DM*%
X186854000Y-55298500D03*
%TO.P,RP2040_1,47,USB_DP*%
%TO.N,USB-RP2040-DP*%
X186454000Y-55298500D03*
%TO.P,RP2040_1,48,USB_VDD*%
%TO.N,RP2040-USB_VDD*%
X186054000Y-55298500D03*
%TO.P,RP2040_1,49,IOVDD*%
%TO.N,RP2040-IOVDD*%
X185654000Y-55298500D03*
%TO.P,RP2040_1,50,DVDD*%
%TO.N,RP2040-DVDD*%
X185254000Y-55298500D03*
%TO.P,RP2040_1,51,QSPI_SD3*%
%TO.N,FLASH-HOLD-RESRT-RP2040-QSPI_SD3*%
X184854000Y-55298500D03*
%TO.P,RP2040_1,52,QSPI_SCLK*%
%TO.N,CLOCK_FLASH*%
X184454000Y-55298500D03*
%TO.P,RP2040_1,53,QSPI_SD0*%
%TO.N,FLASH-DI-RP2040-QSPI_SD0*%
X184054000Y-55298500D03*
%TO.P,RP2040_1,54,QSPI_SD2*%
%TO.N,FLASH-WP-RP2040-QSPI_SD2*%
X183654000Y-55298500D03*
%TO.P,RP2040_1,55,QSPI_SD1*%
%TO.N,FLASH-DO-RP2040-QSPI_SD1*%
X183254000Y-55298500D03*
%TO.P,RP2040_1,56,QSPI_SS*%
%TO.N,FLASH-CS-RP2040-QSPI_SS*%
X182854000Y-55298500D03*
D34*
%TO.P,RP2040_1,57,GND*%
%TO.N,GND*%
X185454000Y-58736000D03*
%TD*%
D35*
%TO.N,RAM-A4*%
X230192139Y-79043634D03*
%TO.N,RP2040-SH-GPIO3-SER*%
X186650900Y-77349100D03*
%TO.N,CLOCK_BUS*%
X195250000Y-117750000D03*
%TO.N,RP2040-RWRAM-GPIO5-DIR*%
X187000010Y-68000000D03*
%TO.N,Vdd_3v3*%
X91700000Y-102500000D03*
%TO.N,RAM-A7*%
X119837404Y-79384161D03*
%TO.N,RAM-A4*%
X119838215Y-76556785D03*
%TO.N,RAM-A5*%
X119695129Y-77543658D03*
%TO.N,RAM-A11*%
X229000000Y-102703000D03*
%TO.N,RAM-WE*%
X165909500Y-129783000D03*
X168100000Y-131009441D03*
%TO.N,RAM-A8*%
X136281196Y-46541234D03*
%TO.N,RAM-OE*%
X106500000Y-45900000D03*
%TO.N,RAM-A12*%
X122694500Y-105000000D03*
X117807000Y-104877000D03*
%TO.N,Net-(SW5-A)*%
X98850000Y-110750000D03*
X94500000Y-117000000D03*
%TO.N,Net-(O2--)*%
X90000000Y-102500000D03*
X98850000Y-107250000D03*
%TO.N,GND*%
X89000000Y-108000000D03*
%TO.N,CLOCK_Z80*%
X101150000Y-109000000D03*
%TO.N,RAM-A14*%
X86000000Y-94000000D03*
X230956812Y-104779186D03*
%TO.N,RAM-A9*%
X134932010Y-47000000D03*
X229891500Y-101436000D03*
%TO.N,RAM-Q6*%
X50333950Y-131684000D03*
X50333950Y-130184000D03*
X50333950Y-134184000D03*
%TO.N,RAM-Q5*%
X49333950Y-131684000D03*
X49333950Y-129999000D03*
X49333950Y-134184000D03*
%TO.N,RAM-A10*%
X133092500Y-47100000D03*
X230457187Y-102001687D03*
%TO.N,RAM-A7*%
X230391500Y-81436000D03*
X150500000Y-44000000D03*
X147000000Y-45436000D03*
%TO.N,RAM-A5*%
X229908039Y-80026152D03*
X151500000Y-46000000D03*
X148000000Y-47436000D03*
%TO.N,RAM-A12*%
X81600000Y-105184000D03*
X229500000Y-103436000D03*
%TO.N,RAM-Q4*%
X48333950Y-129584000D03*
X48333950Y-131684000D03*
X48333950Y-134184000D03*
%TO.N,Vcc*%
X74726500Y-39586000D03*
X227385400Y-75453000D03*
X253143000Y-124564000D03*
X75891500Y-54936000D03*
X221660400Y-75453000D03*
X227385400Y-99453000D03*
X223391500Y-48936000D03*
X221660400Y-99453000D03*
X77091500Y-47386000D03*
%TO.N,RAM-A11*%
X90333950Y-82400000D03*
X97333950Y-61843000D03*
%TO.N,RAM-Q7*%
X51333950Y-134184000D03*
X51333950Y-131684000D03*
%TO.N,RAM-A6*%
X147500000Y-46436000D03*
X119924265Y-78575735D03*
X151000000Y-45000000D03*
X230518273Y-80543471D03*
%TO.N,RAM-Q0*%
X44333950Y-134184000D03*
X46198382Y-127579708D03*
X44552035Y-131853145D03*
%TO.N,RAM-A0*%
X228549437Y-76778067D03*
X154000000Y-51000000D03*
X151477750Y-53022250D03*
%TO.N,RAM-A13*%
X94333950Y-61843000D03*
X230891500Y-103936000D03*
X83833950Y-86184000D03*
%TO.N,RAM-A1*%
X153500000Y-50000000D03*
X228918468Y-77487870D03*
X149000000Y-51936000D03*
%TO.N,GND*%
X78891500Y-54936000D03*
X246000000Y-130500000D03*
X165909500Y-122500000D03*
X77091500Y-42786000D03*
X72891500Y-54936000D03*
X173500000Y-80500000D03*
X173000000Y-117500000D03*
X165500000Y-66500000D03*
X88109500Y-130783000D03*
X185454000Y-58736000D03*
X221391500Y-82000000D03*
X254500000Y-125000000D03*
X229391500Y-100103000D03*
X216216500Y-59436000D03*
X221391500Y-106000000D03*
X226000000Y-76500000D03*
%TO.N,RAM-Q3*%
X47333950Y-134184000D03*
X47333950Y-131684000D03*
X47333950Y-129183000D03*
%TO.N,RAM-A3*%
X229290172Y-78810266D03*
X149000000Y-49500000D03*
X121236250Y-75999000D03*
X152500000Y-48000000D03*
%TO.N,RAM-Q2*%
X46333950Y-134184000D03*
X46333950Y-131684000D03*
X46333950Y-128782000D03*
%TO.N,RAM-Q1*%
X45598382Y-128331503D03*
X45333950Y-134184000D03*
X45333950Y-131684000D03*
%TO.N,RAM-CS*%
X98833950Y-61843000D03*
X95192500Y-98500000D03*
%TO.N,RAM-A2*%
X123256250Y-75598000D03*
X149480007Y-50455993D03*
X153000000Y-49000000D03*
X229499236Y-78038064D03*
%TO.N,RAM-A4*%
X148500000Y-48436000D03*
X152112015Y-46887985D03*
%TO.N,RAM-A8*%
X230391500Y-100436000D03*
%TO.N,Z80-WAIT*%
X132333950Y-139201000D03*
%TO.N,Z80-RESET*%
X131333950Y-139201000D03*
%TO.N,Vdd_3v3*%
X193383950Y-40684000D03*
X188533950Y-40684000D03*
X84833950Y-54936000D03*
X178833950Y-40684000D03*
X198250000Y-40750000D03*
X176000000Y-117500000D03*
X83391500Y-45086000D03*
X89000000Y-43000000D03*
X92000000Y-108000000D03*
X77091500Y-45086000D03*
X81891500Y-54936000D03*
X183683950Y-40684000D03*
%TO.N,RP2040-DVDD*%
X185054000Y-50272084D03*
X189000000Y-50000000D03*
%TO.N,RP2040-RWRAM-GPIO5-DIR*%
X179485421Y-65000000D03*
X184742710Y-70257290D03*
%TO.N,FLASH-DO-RP2040-QSPI_SD1*%
X182600000Y-53043762D03*
X192891500Y-56436000D03*
%TO.N,FLASH-DI-RP2040-QSPI_SD0*%
X184291500Y-51436000D03*
X190000000Y-48936000D03*
%TO.N,FLASH-CS-RP2040-QSPI_SS*%
X190500000Y-51000000D03*
X182000000Y-52500000D03*
%TO.N,USB-C-CC2*%
X65000000Y-41924000D03*
%TO.N,RP2040-RPBOOTMODE*%
X190190950Y-47184000D03*
%TO.N,RP2040_XIN*%
X184250000Y-63859743D03*
%TO.N,RP2040-RWRAM-GPIO7-Q7*%
X180694558Y-63923890D03*
%TO.N,RP2040_XOUT*%
X185000000Y-64500000D03*
%TO.N,CLOCK_FLASH*%
X184350000Y-53536000D03*
X221250000Y-58250000D03*
%TO.N,USB-RP2040-DP*%
X162833950Y-47184000D03*
X186655000Y-54166726D03*
X161824975Y-41430000D03*
%TO.N,USB-RP2040-DM*%
X160976446Y-41430001D03*
X186854000Y-56184000D03*
X161833950Y-47184000D03*
%TO.N,FLASH-HOLD-RESRT-RP2040-QSPI_SD3*%
X184854000Y-56600000D03*
X221750000Y-57000000D03*
%TO.N,FLASH-WP-RP2040-QSPI_SD2*%
X182948428Y-47948428D03*
X217982230Y-56767770D03*
%TO.N,RP2040-SWD-PIN*%
X187500000Y-64400000D03*
X186500000Y-67000000D03*
%TO.N,RP2040-RWRAM-GPIO8-PL*%
X219500000Y-120000000D03*
X237999000Y-103399000D03*
X239600000Y-103399000D03*
X181200000Y-63274835D03*
%TO.N,RP2040-RWRAM-GPIO6-DS*%
X180085421Y-64442499D03*
%TO.N,Net-(ShiftRegisterOut1-SER)*%
X201500000Y-82038000D03*
%TO.N,RP2040-SWCLK-PIN*%
X186727044Y-65772956D03*
X186693784Y-64398000D03*
%TO.N,Vcc-RP2040-RUN*%
X196500000Y-55000000D03*
%TO.N,CLOCK_BUS*%
X193000000Y-94000000D03*
X199000000Y-77000000D03*
X202500000Y-82038000D03*
X198000000Y-127500000D03*
%TO.N,Vcc-RP2040-RUN*%
X187454000Y-63259743D03*
%TD*%
D36*
%TO.N,RP2040-SWD-PIN*%
X244703000Y-64797000D02*
X247000000Y-62500000D01*
X196001700Y-64797000D02*
X244703000Y-64797000D01*
X189444943Y-69297000D02*
X191501700Y-69297000D01*
X186500000Y-67000000D02*
X187147943Y-67000000D01*
X187147943Y-67000000D02*
X189444943Y-69297000D01*
X191501700Y-69297000D02*
X196001700Y-64797000D01*
X247000000Y-62500000D02*
X254000000Y-62500000D01*
%TO.N,RP2040-SWCLK-PIN*%
X253726000Y-61774000D02*
X254000000Y-61500000D01*
X253699280Y-61774000D02*
X253726000Y-61774000D01*
X253374280Y-62099000D02*
X253699280Y-61774000D01*
X246833900Y-62099000D02*
X253374280Y-62099000D01*
X189611043Y-68896000D02*
X191335600Y-68896000D01*
X244536900Y-64396000D02*
X246833900Y-62099000D01*
X187314043Y-66599000D02*
X189611043Y-68896000D01*
X187314043Y-66359955D02*
X187314043Y-66599000D01*
X186727044Y-65772956D02*
X187314043Y-66359955D01*
X191335600Y-68896000D02*
X195835600Y-64396000D01*
X195835600Y-64396000D02*
X244536900Y-64396000D01*
%TO.N,RP2040-SH-GPIO3-SER*%
X178764000Y-57736000D02*
X182016500Y-57736000D01*
X178000000Y-58500000D02*
X178764000Y-57736000D01*
X178000000Y-67477400D02*
X178000000Y-58500000D01*
X183958600Y-73436000D02*
X178000000Y-67477400D01*
X186891500Y-74391500D02*
X185936000Y-73436000D01*
X185936000Y-73436000D02*
X183958600Y-73436000D01*
X186650900Y-77349100D02*
X186650900Y-77132100D01*
X186650900Y-77132100D02*
X186891500Y-76891500D01*
X186891500Y-76891500D02*
X186891500Y-74391500D01*
%TO.N,Net-(D11-A)*%
X190542900Y-80028000D02*
X209522900Y-80028000D01*
X188031900Y-82539000D02*
X190542900Y-80028000D01*
%TO.N,Net-(D9-A)*%
X188403900Y-79627000D02*
X207473900Y-79627000D01*
X207473900Y-79627000D02*
X209522900Y-77578000D01*
X185491900Y-82539000D02*
X188403900Y-79627000D01*
%TO.N,Net-(D7-A)*%
X205424900Y-79226000D02*
X209522900Y-75128000D01*
X186264900Y-79226000D02*
X205424900Y-79226000D01*
X182951900Y-82539000D02*
X186264900Y-79226000D01*
%TO.N,Net-(D5-A)*%
X184125900Y-78825000D02*
X180411900Y-82539000D01*
X203375900Y-78825000D02*
X184125900Y-78825000D01*
X209522900Y-72678000D02*
X203375900Y-78825000D01*
%TO.N,Net-(D3-A)*%
X201326900Y-78424000D02*
X186456900Y-78424000D01*
X209522900Y-70228000D02*
X201326900Y-78424000D01*
X182951900Y-74919000D02*
X186456900Y-78424000D01*
%TO.N,Net-(ShiftRegisterOut1-SER)*%
X186987900Y-100500000D02*
X185211900Y-98724000D01*
X190536475Y-100500000D02*
X186987900Y-100500000D01*
X191500000Y-99536475D02*
X190536475Y-100500000D01*
X201500000Y-83500000D02*
X191500000Y-93500000D01*
X191500000Y-93500000D02*
X191500000Y-99536475D01*
X201500000Y-82038000D02*
X201500000Y-83500000D01*
%TO.N,Net-(D29-A)*%
X207711900Y-103639000D02*
X209522900Y-101828000D01*
X185211900Y-106344000D02*
X187916900Y-103639000D01*
X187916900Y-103639000D02*
X207711900Y-103639000D01*
%TO.N,Net-(D21-A)*%
X205612900Y-103238000D02*
X209522900Y-99328000D01*
X185777900Y-103238000D02*
X205612900Y-103238000D01*
X182671900Y-106344000D02*
X185777900Y-103238000D01*
%TO.N,Net-(D27-A)*%
X203513900Y-102837000D02*
X183638900Y-102837000D01*
X209522900Y-96828000D02*
X203513900Y-102837000D01*
X180131900Y-106344000D02*
X183638900Y-102837000D01*
%TO.N,Net-(D19-A)*%
X186383900Y-102436000D02*
X182671900Y-98724000D01*
X201514900Y-102436000D02*
X186383900Y-102436000D01*
X209522900Y-94428000D02*
X201514900Y-102436000D01*
%TO.N,Net-(D56-A)*%
X185144500Y-125283000D02*
X183280500Y-123419000D01*
X209391500Y-119108500D02*
X203217000Y-125283000D01*
X209391500Y-118283000D02*
X209391500Y-119108500D01*
X203217000Y-125283000D02*
X185144500Y-125283000D01*
%TO.N,CLOCK_BUS*%
X187000000Y-109500000D02*
X195250000Y-117750000D01*
X173000000Y-109500000D02*
X187000000Y-109500000D01*
X172500000Y-111500000D02*
X172500000Y-110000000D01*
X173000000Y-112000000D02*
X172500000Y-111500000D01*
X173780000Y-112000000D02*
X173000000Y-112000000D01*
X172500000Y-110000000D02*
X173000000Y-109500000D01*
%TO.N,Net-(D64-A)*%
X209391500Y-135458600D02*
X209391500Y-136428000D01*
X203476900Y-129544000D02*
X209391500Y-135458600D01*
X197475500Y-129544000D02*
X203476900Y-129544000D01*
X195980500Y-131039000D02*
X197475500Y-129544000D01*
%TO.N,Net-(D63-A)*%
X206495100Y-131428000D02*
X209391500Y-131428000D01*
X203809100Y-128742000D02*
X206495100Y-131428000D01*
X193197500Y-128742000D02*
X203809100Y-128742000D01*
X190900500Y-131039000D02*
X193197500Y-128742000D01*
%TO.N,Net-(D60-A)*%
X203643000Y-129143000D02*
X208428000Y-133928000D01*
X195336500Y-129143000D02*
X203643000Y-129143000D01*
X193440500Y-131039000D02*
X195336500Y-129143000D01*
X208428000Y-133928000D02*
X209391500Y-133928000D01*
%TO.N,Net-(D59-A)*%
X208804500Y-128341000D02*
X209391500Y-128928000D01*
X191058500Y-128341000D02*
X208804500Y-128341000D01*
X188360500Y-131039000D02*
X191058500Y-128341000D01*
%TO.N,Net-(D58-A)*%
X206351200Y-123283000D02*
X209391500Y-123283000D01*
X188234500Y-126085000D02*
X203549200Y-126085000D01*
X203549200Y-126085000D02*
X206351200Y-123283000D01*
X183280500Y-131039000D02*
X188234500Y-126085000D01*
%TO.N,Net-(D61-A)*%
X208284100Y-120783000D02*
X209391500Y-120783000D01*
X180740500Y-131039000D02*
X186095500Y-125684000D01*
X186095500Y-125684000D02*
X203383100Y-125684000D01*
X203383100Y-125684000D02*
X208284100Y-120783000D01*
%TO.N,Net-(D62-A)*%
X208688500Y-126486000D02*
X209391500Y-125783000D01*
X190373500Y-126486000D02*
X208688500Y-126486000D01*
X185820500Y-131039000D02*
X190373500Y-126486000D01*
%TO.N,Net-(D23-A)*%
X209234900Y-104040000D02*
X209522900Y-104328000D01*
X190055900Y-104040000D02*
X209234900Y-104040000D01*
X187751900Y-106344000D02*
X190055900Y-104040000D01*
%TO.N,RAM-A14*%
X227418403Y-104736003D02*
X227385400Y-104703000D01*
X230944334Y-104790261D02*
X230890076Y-104736003D01*
X230890076Y-104736003D02*
X227418403Y-104736003D01*
X230945737Y-104790261D02*
X230944334Y-104790261D01*
X230956812Y-104779186D02*
X230945737Y-104790261D01*
%TO.N,RP2040-RPBOOTMODE*%
X239217950Y-47184000D02*
X247833950Y-55800000D01*
X190190950Y-47184000D02*
X239217950Y-47184000D01*
%TO.N,FLASH-WP-RP2040-QSPI_SD2*%
X183654000Y-54404000D02*
X183654000Y-55298500D01*
X182948428Y-47948428D02*
X182750000Y-48146856D01*
X182750000Y-51750000D02*
X183250000Y-52250000D01*
X183250000Y-54000000D02*
X183654000Y-54404000D01*
X182750000Y-48146856D02*
X182750000Y-51750000D01*
X183250000Y-52250000D02*
X183250000Y-54000000D01*
%TO.N,Vcc-RP2040-RUN*%
X198500000Y-53000000D02*
X196500000Y-55000000D01*
X200000000Y-53000000D02*
X198500000Y-53000000D01*
%TO.N,RP2040-DVDD*%
X186054000Y-64995000D02*
X186054000Y-62173500D01*
X186057000Y-64998000D02*
X186054000Y-64995000D01*
X186998000Y-64998000D02*
X186057000Y-64998000D01*
X188042185Y-65000000D02*
X187000000Y-65000000D01*
X187000000Y-65000000D02*
X186998000Y-64998000D01*
X190500000Y-53611600D02*
X190500000Y-62542185D01*
X189500000Y-50316901D02*
X189500000Y-52611600D01*
X190500000Y-62542185D02*
X188042185Y-65000000D01*
X189183099Y-50000000D02*
X189500000Y-50316901D01*
X189000000Y-50000000D02*
X189183099Y-50000000D01*
X189500000Y-52611600D02*
X190500000Y-53611600D01*
%TO.N,RP2040-IOVDD*%
X187751943Y-56136000D02*
X188891500Y-56136000D01*
X187102943Y-56785000D02*
X187751943Y-56136000D01*
X186593000Y-56785000D02*
X187102943Y-56785000D01*
X185654000Y-55846000D02*
X186593000Y-56785000D01*
X188000000Y-59472000D02*
X188000000Y-56136000D01*
X188264000Y-59736000D02*
X188000000Y-59472000D01*
X182550774Y-56135000D02*
X182182600Y-56135000D01*
X183000000Y-56584226D02*
X182550774Y-56135000D01*
X183000000Y-59500000D02*
X183000000Y-56584226D01*
X182764000Y-59736000D02*
X183000000Y-59500000D01*
X188264000Y-59736000D02*
X188891500Y-59736000D01*
X187000000Y-61000000D02*
X188264000Y-59736000D01*
X184028000Y-61000000D02*
X187000000Y-61000000D01*
X182764000Y-59736000D02*
X184028000Y-61000000D01*
X185654000Y-62173500D02*
X185654000Y-61000000D01*
%TO.N,RP2040-SH-GPIO4-RCLK*%
X184227750Y-73000000D02*
X188652900Y-73000000D01*
X188652900Y-73000000D02*
X190571900Y-74919000D01*
X178500000Y-67272250D02*
X184227750Y-73000000D01*
X179364000Y-58136000D02*
X178500000Y-59000000D01*
X182016500Y-58136000D02*
X179364000Y-58136000D01*
X178500000Y-59000000D02*
X178500000Y-67272250D01*
%TO.N,RP2040-RPBOOTMODE*%
X177047900Y-56885000D02*
X177396900Y-56536000D01*
X168471500Y-53936000D02*
X171420500Y-56885000D01*
X171420500Y-56885000D02*
X177047900Y-56885000D01*
X177396900Y-56536000D02*
X182016500Y-56536000D01*
%TO.N,RP2040-RWRAM-GPIO6-DS*%
X180000000Y-63400000D02*
X180000000Y-59500000D01*
X180085421Y-63485421D02*
X180000000Y-63400000D01*
X180085421Y-64442499D02*
X180085421Y-63485421D01*
X180000000Y-59500000D02*
X180564000Y-58936000D01*
X180564000Y-58936000D02*
X182016500Y-58936000D01*
%TO.N,RP2040-RWRAM-GPIO5-DIR*%
X184742710Y-70257290D02*
X179485421Y-65000000D01*
X242614000Y-124614000D02*
X247418000Y-124614000D01*
X239401000Y-121401000D02*
X242614000Y-124614000D01*
X239401000Y-104447943D02*
X239401000Y-121401000D01*
X240201000Y-103647943D02*
X239401000Y-104447943D01*
X240201000Y-103150057D02*
X240201000Y-103647943D01*
X239848943Y-102798000D02*
X240201000Y-103150057D01*
X239802000Y-102798000D02*
X239848943Y-102798000D01*
X230899300Y-65198000D02*
X239802000Y-74100700D01*
X196167800Y-65198000D02*
X230899300Y-65198000D01*
X188698000Y-69698000D02*
X191667800Y-69698000D01*
X187500000Y-68499990D02*
X187500000Y-68500000D01*
X187500000Y-68500000D02*
X188698000Y-69698000D01*
X191667800Y-69698000D02*
X196167800Y-65198000D01*
X239802000Y-74100700D02*
X239802000Y-102798000D01*
X187000010Y-68000000D02*
X187500000Y-68499990D01*
%TO.N,RP2040-RWRAM-GPIO8-PL*%
X188024165Y-70099000D02*
X181200000Y-63274835D01*
X191833900Y-70099000D02*
X188024165Y-70099000D01*
X230733200Y-65599000D02*
X196333900Y-65599000D01*
X196333900Y-65599000D02*
X191833900Y-70099000D01*
X239401000Y-74266800D02*
X230733200Y-65599000D01*
X239401000Y-103200000D02*
X239401000Y-74266800D01*
X239600000Y-103399000D02*
X239401000Y-103200000D01*
%TO.N,RP2040-RWRAM-GPIO7-Q7*%
X239000000Y-123898500D02*
X239020500Y-123919000D01*
X239000000Y-74432900D02*
X239000000Y-123898500D01*
X230567100Y-66000000D02*
X239000000Y-74432900D01*
X192000000Y-70500000D02*
X196500000Y-66000000D01*
X180694558Y-63923890D02*
X187270668Y-70500000D01*
X187270668Y-70500000D02*
X192000000Y-70500000D01*
X196500000Y-66000000D02*
X230567100Y-66000000D01*
%TO.N,RP2040-RWRAM-GPIO6-DS*%
X186543922Y-70901000D02*
X180085421Y-64442499D01*
X192166100Y-70901000D02*
X186543922Y-70901000D01*
X230401000Y-66401000D02*
X196666100Y-66401000D01*
X238599000Y-120401000D02*
X238599000Y-74599000D01*
X236480500Y-122519500D02*
X238599000Y-120401000D01*
X196666100Y-66401000D02*
X192166100Y-70901000D01*
X236480500Y-123919000D02*
X236480500Y-122519500D01*
X238599000Y-74599000D02*
X230401000Y-66401000D01*
%TO.N,RP2040-RWRAM-GPIO8-PL*%
X220500000Y-120000000D02*
X219500000Y-120000000D01*
X237999000Y-103399000D02*
X237101000Y-103399000D01*
X237101000Y-103399000D02*
X220500000Y-120000000D01*
%TO.N,RAM-A12*%
X79000000Y-83500000D02*
X91692500Y-83500000D01*
X91692500Y-83500000D02*
X95192500Y-87000000D01*
X78000000Y-84500000D02*
X79000000Y-83500000D01*
X81379450Y-105184000D02*
X78000000Y-101804550D01*
X81600000Y-105184000D02*
X81379450Y-105184000D01*
X78000000Y-101804550D02*
X78000000Y-84500000D01*
X117500000Y-105184000D02*
X117807000Y-104877000D01*
X81600000Y-105184000D02*
X117500000Y-105184000D01*
%TO.N,Z80-D4*%
X115504500Y-104783000D02*
X82535500Y-104783000D01*
X82535500Y-104783000D02*
X79752500Y-102000000D01*
X119389500Y-100898000D02*
X115504500Y-104783000D01*
%TO.N,Z80-D0*%
X118000000Y-120067500D02*
X119389500Y-118678000D01*
X118698600Y-122500000D02*
X118000000Y-121801400D01*
X122094500Y-120405500D02*
X120000000Y-122500000D01*
X122094500Y-83922000D02*
X122094500Y-120405500D01*
X120000000Y-122500000D02*
X118698600Y-122500000D01*
X91733500Y-79981000D02*
X118153500Y-79981000D01*
X118153500Y-79981000D02*
X122094500Y-83922000D01*
X79752500Y-68000000D02*
X91733500Y-79981000D01*
X118000000Y-121801400D02*
X118000000Y-120067500D01*
%TO.N,RAM-A4*%
X165901000Y-111300300D02*
X165901000Y-100808500D01*
X164404300Y-112797000D02*
X165901000Y-111300300D01*
X149450350Y-112797000D02*
X164404300Y-112797000D01*
X141653350Y-105000000D02*
X149450350Y-112797000D01*
X137164550Y-105000000D02*
X141653350Y-105000000D01*
X135085550Y-107079000D02*
X137164550Y-105000000D01*
X134079000Y-107079000D02*
X135085550Y-107079000D01*
X133000000Y-106000000D02*
X134079000Y-107079000D01*
X133000000Y-104067100D02*
X133000000Y-106000000D01*
X165901000Y-100808500D02*
X161092500Y-96000000D01*
X132198000Y-101405475D02*
X132599000Y-101806476D01*
X132599000Y-101806476D02*
X132599000Y-103666100D01*
X132198000Y-100226800D02*
X132198000Y-101405475D01*
X132599000Y-103666100D02*
X133000000Y-104067100D01*
X128568500Y-96597300D02*
X132198000Y-100226800D01*
X128568500Y-85568500D02*
X128568500Y-96597300D01*
X106500000Y-63500000D02*
X128568500Y-85568500D01*
X105932500Y-63500000D02*
X106500000Y-63500000D01*
%TO.N,RAM-A6*%
X102387500Y-65035000D02*
X100852500Y-63500000D01*
X106336528Y-65035000D02*
X102387500Y-65035000D01*
X120086347Y-78783161D02*
X120084689Y-78783161D01*
X120253036Y-78949850D02*
X120086347Y-78783161D01*
X120815250Y-78949850D02*
X120253036Y-78949850D01*
X127766500Y-85901100D02*
X120815250Y-78949850D01*
X127766500Y-96929500D02*
X127766500Y-85901100D01*
X131396000Y-100559000D02*
X127766500Y-96929500D01*
X131396000Y-101737675D02*
X131396000Y-100559000D01*
X131797000Y-102138675D02*
X131396000Y-101737675D01*
X131797000Y-103998300D02*
X131797000Y-102138675D01*
X132198000Y-104399300D02*
X131797000Y-103998300D01*
X132198000Y-106332200D02*
X132198000Y-104399300D01*
X132599000Y-106733200D02*
X132198000Y-106332200D01*
X132901000Y-108968100D02*
X132599000Y-108666100D01*
X132901000Y-111401000D02*
X132901000Y-108968100D01*
X132599000Y-108666100D02*
X132599000Y-106733200D01*
X133997000Y-112497000D02*
X132901000Y-111401000D01*
X136500000Y-112497000D02*
X133997000Y-112497000D01*
X137734900Y-112500000D02*
X136503000Y-112500000D01*
X138833900Y-113599000D02*
X137734900Y-112500000D01*
X164736500Y-113599000D02*
X138833900Y-113599000D01*
X120084689Y-78783161D02*
X106336528Y-65035000D01*
X136503000Y-112500000D02*
X136500000Y-112497000D01*
X166703000Y-111632500D02*
X164736500Y-113599000D01*
X166703000Y-94610500D02*
X166703000Y-111632500D01*
X161092500Y-89000000D02*
X166703000Y-94610500D01*
%TO.N,RAM-WE*%
X98032500Y-46000000D02*
X95772500Y-48260000D01*
X106251057Y-45299000D02*
X105550057Y-46000000D01*
X106949943Y-45500000D02*
X106748943Y-45299000D01*
X111608100Y-45396000D02*
X111504100Y-45500000D01*
X132245257Y-45396000D02*
X111608100Y-45396000D01*
X132345257Y-45296000D02*
X132245257Y-45396000D01*
X134043743Y-45500000D02*
X133839743Y-45296000D01*
X134350867Y-45597000D02*
X134253867Y-45500000D01*
X135513153Y-45597000D02*
X134350867Y-45597000D01*
X135614153Y-45698000D02*
X135513153Y-45597000D01*
X135707387Y-45698000D02*
X135614153Y-45698000D01*
X135866153Y-45539234D02*
X135707387Y-45698000D01*
X136696239Y-45539234D02*
X135866153Y-45539234D01*
X105550057Y-46000000D02*
X98032500Y-46000000D01*
X136697240Y-45540235D02*
X136696239Y-45539234D01*
X136700308Y-45540235D02*
X136697240Y-45540235D01*
X133839743Y-45296000D02*
X132345257Y-45296000D01*
X136993973Y-45833900D02*
X136700308Y-45540235D01*
X137283196Y-46126191D02*
X136993973Y-45836968D01*
X134253867Y-45500000D02*
X134043743Y-45500000D01*
X137283196Y-46687396D02*
X137283196Y-46126191D01*
X167906000Y-91179300D02*
X167901000Y-91174300D01*
X111504100Y-45500000D02*
X106949943Y-45500000D01*
X167901000Y-91174300D02*
X167901000Y-77305200D01*
X167906000Y-112130800D02*
X167906000Y-91179300D01*
X136993973Y-45836968D02*
X136993973Y-45833900D01*
X167901000Y-77305200D02*
X137283196Y-46687396D01*
X167901000Y-129681089D02*
X167901000Y-112135800D01*
X168100000Y-131009441D02*
X168100000Y-129880089D01*
X168100000Y-129880089D02*
X167901000Y-129681089D01*
X106748943Y-45299000D02*
X106251057Y-45299000D01*
X167901000Y-112135800D02*
X167906000Y-112130800D01*
%TO.N,RAM-OE*%
X167500000Y-131692500D02*
X165909500Y-133283000D01*
X167500000Y-111969700D02*
X167500000Y-131692500D01*
X167505000Y-111964700D02*
X167500000Y-111969700D01*
X167505000Y-91345400D02*
X167505000Y-111964700D01*
X167500000Y-77471300D02*
X167500000Y-91340400D01*
X136850537Y-46821837D02*
X167500000Y-77471300D01*
X136882196Y-46790177D02*
X136850537Y-46821837D01*
X136882196Y-46292291D02*
X136882196Y-46790177D01*
X136592973Y-46003068D02*
X136882196Y-46292291D01*
X136592973Y-46000000D02*
X136592973Y-46003068D01*
X136534208Y-45941235D02*
X136592973Y-46000000D01*
X136531140Y-45941235D02*
X136534208Y-45941235D01*
X136530139Y-45940234D02*
X136531140Y-45941235D01*
X135873487Y-46099000D02*
X136032253Y-45940234D01*
X135448053Y-46099000D02*
X135873487Y-46099000D01*
X135347053Y-45998000D02*
X135448053Y-46099000D01*
X134516967Y-45998000D02*
X135347053Y-45998000D01*
X134415967Y-46099000D02*
X134516967Y-45998000D01*
X134173457Y-46099000D02*
X134415967Y-46099000D01*
X134074457Y-46000000D02*
X134173457Y-46099000D01*
X136032253Y-45940234D02*
X136530139Y-45940234D01*
X133976643Y-46000000D02*
X134074457Y-46000000D01*
X133673643Y-45697000D02*
X133976643Y-46000000D01*
X167500000Y-91340400D02*
X167505000Y-91345400D01*
X132511357Y-45697000D02*
X133673643Y-45697000D01*
X111774200Y-45797000D02*
X132411357Y-45797000D01*
X111571200Y-46000000D02*
X111774200Y-45797000D01*
X106600000Y-46000000D02*
X111571200Y-46000000D01*
X106500000Y-45900000D02*
X106600000Y-46000000D01*
X132411357Y-45797000D02*
X132511357Y-45697000D01*
%TO.N,RAM-A7*%
X167104000Y-91511500D02*
X161092500Y-85500000D01*
X164902600Y-114000000D02*
X167104000Y-111798600D01*
X139000000Y-114000000D02*
X164902600Y-114000000D01*
X138000000Y-115000000D02*
X139000000Y-114000000D01*
X133000000Y-113934450D02*
X134065550Y-115000000D01*
X133000000Y-112067100D02*
X133000000Y-113934450D01*
X132500000Y-109134200D02*
X132500000Y-111567100D01*
X132198000Y-108832200D02*
X132500000Y-109134200D01*
X132198000Y-106899300D02*
X132198000Y-108832200D01*
X131797000Y-106498300D02*
X132198000Y-106899300D01*
X131797000Y-104565400D02*
X131797000Y-106498300D01*
X134065550Y-115000000D02*
X138000000Y-115000000D01*
X131396000Y-104164400D02*
X131797000Y-104565400D01*
X131396000Y-102304775D02*
X131396000Y-104164400D01*
X130995000Y-101903775D02*
X131396000Y-102304775D01*
X130995000Y-100725100D02*
X130995000Y-101903775D01*
X167104000Y-111798600D02*
X167104000Y-91511500D01*
X127365500Y-97095600D02*
X130995000Y-100725100D01*
X127365500Y-86067200D02*
X127365500Y-97095600D01*
X120649150Y-79350850D02*
X127365500Y-86067200D01*
X119850850Y-79350850D02*
X120649150Y-79350850D01*
X119675322Y-79176735D02*
X119676735Y-79176735D01*
X132500000Y-111567100D02*
X133000000Y-112067100D01*
X106000000Y-65500000D02*
X119323265Y-78823265D01*
X100312500Y-65500000D02*
X106000000Y-65500000D01*
X119323265Y-78823265D02*
X119323265Y-78824678D01*
X119323265Y-78824678D02*
X119675322Y-79176735D01*
X119676735Y-79176735D02*
X119850850Y-79350850D01*
X98312500Y-63500000D02*
X100312500Y-65500000D01*
%TO.N,RAM-A3*%
X165500000Y-103907500D02*
X161092500Y-99500000D01*
X165500000Y-111134200D02*
X165500000Y-103907500D01*
X164238200Y-112396000D02*
X165500000Y-111134200D01*
X149616450Y-112396000D02*
X164238200Y-112396000D01*
X142870500Y-105650050D02*
X149616450Y-112396000D01*
X135085550Y-104539000D02*
X138124550Y-101500000D01*
X134039000Y-104539000D02*
X135085550Y-104539000D01*
X133000000Y-103500000D02*
X134039000Y-104539000D01*
X133000000Y-101640375D02*
X133000000Y-103500000D01*
X138124550Y-101500000D02*
X142000000Y-101500000D01*
X132599000Y-101239375D02*
X133000000Y-101640375D01*
X142870500Y-102370500D02*
X142870500Y-105650050D01*
X132599000Y-100060700D02*
X132599000Y-101239375D01*
X128969500Y-96431200D02*
X132599000Y-100060700D01*
X128969500Y-83997000D02*
X128969500Y-96431200D01*
X121236250Y-76263750D02*
X128969500Y-83997000D01*
X121236250Y-75999000D02*
X121236250Y-76263750D01*
X142000000Y-101500000D02*
X142870500Y-102370500D01*
X120971500Y-75999000D02*
X108472500Y-63500000D01*
X121236250Y-75999000D02*
X120971500Y-75999000D01*
%TO.N,RAM-A4*%
X119838215Y-76556785D02*
X119697500Y-76697500D01*
%TO.N,RAM-A5*%
X107066900Y-64634000D02*
X119731400Y-77298500D01*
X103500000Y-63500000D02*
X104634000Y-64634000D01*
X104634000Y-64634000D02*
X107066900Y-64634000D01*
X103392500Y-63500000D02*
X103500000Y-63500000D01*
X119695129Y-77334771D02*
X119731400Y-77298500D01*
X119695129Y-77543658D02*
X119695129Y-77334771D01*
X166302000Y-97709500D02*
X161092500Y-92500000D01*
X164570400Y-113198000D02*
X166302000Y-111466400D01*
X149284250Y-113198000D02*
X164570400Y-113198000D01*
X135820600Y-108919000D02*
X136239600Y-108500000D01*
X135085550Y-109619000D02*
X135785550Y-108919000D01*
X134119000Y-109619000D02*
X135085550Y-109619000D01*
X133000000Y-108500000D02*
X134119000Y-109619000D01*
X133000000Y-106567100D02*
X133000000Y-108500000D01*
X132599000Y-106166100D02*
X133000000Y-106567100D01*
X136239600Y-108500000D02*
X144586250Y-108500000D01*
X132599000Y-104233200D02*
X132599000Y-106166100D01*
X132198000Y-103832200D02*
X132599000Y-104233200D01*
X132198000Y-101972575D02*
X132198000Y-103832200D01*
X131797000Y-101571575D02*
X132198000Y-101972575D01*
X135785550Y-108919000D02*
X135820600Y-108919000D01*
X131797000Y-100392900D02*
X131797000Y-101571575D01*
X166302000Y-111466400D02*
X166302000Y-97709500D01*
X128167500Y-85734600D02*
X128167500Y-96763400D01*
X119731400Y-77298500D02*
X128167500Y-85734600D01*
X144586250Y-108500000D02*
X149284250Y-113198000D01*
X128167500Y-96763400D02*
X131797000Y-100392900D01*
%TO.N,RAM-A0*%
X116092500Y-65920000D02*
X116092500Y-63500000D01*
X130172500Y-80000000D02*
X116092500Y-65920000D01*
X130172500Y-95932900D02*
X130172500Y-80000000D01*
X131158600Y-96919000D02*
X130172500Y-95932900D01*
X135085550Y-96919000D02*
X131158600Y-96919000D01*
X135730500Y-96274050D02*
X135085550Y-96919000D01*
X135730500Y-96271775D02*
X135730500Y-96274050D01*
X140000000Y-92002275D02*
X135730500Y-96271775D01*
X141000000Y-91000000D02*
X140000000Y-92000000D01*
X143750000Y-91000000D02*
X141000000Y-91000000D01*
X144073500Y-105151750D02*
X144073500Y-91323500D01*
X144073500Y-91323500D02*
X143750000Y-91000000D01*
X140000000Y-92000000D02*
X140000000Y-92002275D01*
X146921750Y-108000000D02*
X144073500Y-105151750D01*
X159092500Y-108000000D02*
X146921750Y-108000000D01*
X161092500Y-110000000D02*
X159092500Y-108000000D01*
%TO.N,RAM-A2*%
X129370500Y-81858000D02*
X111012500Y-63500000D01*
X129370500Y-96265100D02*
X129370500Y-81858000D01*
X133000000Y-99894600D02*
X129370500Y-96265100D01*
X133000000Y-101073275D02*
X133000000Y-99894600D01*
X133926725Y-102000000D02*
X133000000Y-101073275D01*
X135172500Y-102000000D02*
X133926725Y-102000000D01*
X139172500Y-98000000D02*
X135172500Y-102000000D01*
X142172500Y-98000000D02*
X139172500Y-98000000D01*
X143271500Y-105483950D02*
X143271500Y-99099000D01*
X149782550Y-111995000D02*
X143271500Y-105483950D01*
X164072100Y-111995000D02*
X149782550Y-111995000D01*
X165000000Y-111067100D02*
X164072100Y-111995000D01*
X143271500Y-99099000D02*
X142172500Y-98000000D01*
X165000000Y-106907500D02*
X165000000Y-111067100D01*
X161092500Y-103000000D02*
X165000000Y-106907500D01*
%TO.N,RAM-A1*%
X113552500Y-63947100D02*
X113552500Y-63500000D01*
X129771500Y-80166100D02*
X113552500Y-63947100D01*
X129771500Y-96099000D02*
X129771500Y-80166100D01*
X133172500Y-99500000D02*
X129771500Y-96099000D01*
X140044550Y-94500000D02*
X135044550Y-99500000D01*
X143000000Y-94500000D02*
X140044550Y-94500000D01*
X143672500Y-105317850D02*
X143672500Y-95172500D01*
X149948650Y-111594000D02*
X143672500Y-105317850D01*
X135044550Y-99500000D02*
X133172500Y-99500000D01*
X164599000Y-110901000D02*
X163906000Y-111594000D01*
X164599000Y-110006500D02*
X164599000Y-110901000D01*
X163906000Y-111594000D02*
X149948650Y-111594000D01*
X143672500Y-95172500D02*
X143000000Y-94500000D01*
X161092500Y-106500000D02*
X164599000Y-110006500D01*
%TO.N,Z80-A1*%
X137672500Y-106500000D02*
X135654500Y-108518000D01*
X141432500Y-106500000D02*
X137672500Y-106500000D01*
X135654500Y-108518000D02*
X134629500Y-108518000D01*
%TO.N,RAM-A12*%
X111852500Y-79580000D02*
X95772500Y-63500000D01*
X118319600Y-79580000D02*
X111852500Y-79580000D01*
X122694500Y-105000000D02*
X122500000Y-104805500D01*
X122500000Y-104805500D02*
X122500000Y-83760400D01*
X122500000Y-83760400D02*
X118319600Y-79580000D01*
%TO.N,Z80-D1*%
X83752500Y-80500000D02*
X79752500Y-76500000D01*
X118105400Y-80500000D02*
X83752500Y-80500000D01*
X121693500Y-118914000D02*
X121693500Y-84088100D01*
X119389500Y-121218000D02*
X121693500Y-118914000D01*
X121693500Y-84088100D02*
X118105400Y-80500000D01*
%TO.N,Z80-D3*%
X120891500Y-101936000D02*
X119389500Y-103438000D01*
X120891500Y-95391500D02*
X120891500Y-101936000D01*
X118500000Y-94500000D02*
X120000000Y-94500000D01*
X116717000Y-96283000D02*
X118500000Y-94500000D01*
X120000000Y-94500000D02*
X120891500Y-95391500D01*
X79752500Y-93500000D02*
X82535500Y-96283000D01*
X82535500Y-96283000D02*
X116717000Y-96283000D01*
%TO.N,Z80-A15*%
X112252500Y-98500000D02*
X116141500Y-98500000D01*
X116141500Y-98500000D02*
X118823500Y-95818000D01*
X118823500Y-95818000D02*
X119389500Y-95818000D01*
%TO.N,Z80-D2*%
X120000000Y-92000000D02*
X86752500Y-92000000D01*
X121292500Y-93292500D02*
X120000000Y-92000000D01*
X121292500Y-111695000D02*
X121292500Y-93292500D01*
X119389500Y-113598000D02*
X121292500Y-111695000D01*
X86752500Y-92000000D02*
X79752500Y-85000000D01*
%TO.N,Z80-A14*%
X118667500Y-94000000D02*
X119389500Y-93278000D01*
X112252500Y-94000000D02*
X118667500Y-94000000D01*
%TO.N,RAM-A14*%
X95192500Y-94000000D02*
X86000000Y-94000000D01*
%TO.N,USB-RP2040-DP*%
X161901000Y-46251050D02*
X162833950Y-47184000D01*
X161901000Y-41506025D02*
X161901000Y-46251050D01*
X161824975Y-41430000D02*
X161901000Y-41506025D01*
%TO.N,USB-RP2040-DM*%
X161500000Y-46850050D02*
X161833950Y-47184000D01*
X161500000Y-41953555D02*
X161500000Y-46850050D01*
X160976446Y-41430001D02*
X161500000Y-41953555D01*
%TO.N,RAM-A0*%
X151977750Y-53022250D02*
X151477750Y-53022250D01*
X154000000Y-51000000D02*
X151977750Y-53022250D01*
%TO.N,RAM-A1*%
X151564000Y-51936000D02*
X149000000Y-51936000D01*
X153500000Y-50000000D02*
X151564000Y-51936000D01*
%TO.N,RAM-A2*%
X151544007Y-50455993D02*
X149480007Y-50455993D01*
X153000000Y-49000000D02*
X151544007Y-50455993D01*
%TO.N,RAM-A3*%
X152500000Y-48000000D02*
X151000000Y-49500000D01*
X151000000Y-49500000D02*
X149000000Y-49500000D01*
%TO.N,Vdd_3v3*%
X89000000Y-43000000D02*
X85477500Y-43000000D01*
X85477500Y-43000000D02*
X83391500Y-45086000D01*
%TO.N,USB-C-CC1*%
X55155500Y-46000000D02*
X52741500Y-43586000D01*
X67775000Y-45112500D02*
X66887500Y-46000000D01*
X67775000Y-44525000D02*
X67775000Y-45112500D01*
X66887500Y-46000000D02*
X55155500Y-46000000D01*
%TO.N,RAM-A7*%
X149000000Y-45500000D02*
X150500000Y-44000000D01*
X147064000Y-45500000D02*
X149000000Y-45500000D01*
X147000000Y-45436000D02*
X147064000Y-45500000D01*
%TO.N,RAM-A6*%
X149500000Y-46500000D02*
X151000000Y-45000000D01*
X147564000Y-46500000D02*
X149500000Y-46500000D01*
X147500000Y-46436000D02*
X147564000Y-46500000D01*
%TO.N,RAM-A5*%
X148064000Y-47500000D02*
X148000000Y-47436000D01*
X150000000Y-47500000D02*
X148064000Y-47500000D01*
X151500000Y-46000000D02*
X150000000Y-47500000D01*
%TO.N,RAM-A4*%
X148500000Y-48436000D02*
X150564000Y-48436000D01*
X150564000Y-48436000D02*
X152112015Y-46887985D01*
%TO.N,RAM-A8*%
X111638300Y-46500000D02*
X102612500Y-46500000D01*
X111940300Y-46198000D02*
X111638300Y-46500000D01*
X132577457Y-46198000D02*
X111940300Y-46198000D01*
X132677457Y-46098000D02*
X132577457Y-46198000D01*
X133909543Y-46500000D02*
X133507543Y-46098000D01*
X134683067Y-46399000D02*
X134582067Y-46500000D01*
X133507543Y-46098000D02*
X132677457Y-46098000D01*
X135180953Y-46399000D02*
X134683067Y-46399000D01*
X102612500Y-46500000D02*
X100852500Y-48260000D01*
X134582067Y-46500000D02*
X133909543Y-46500000D01*
X135961600Y-46500000D02*
X135281953Y-46500000D01*
X135281953Y-46500000D02*
X135180953Y-46399000D01*
X136144550Y-46682950D02*
X135961600Y-46500000D01*
%TO.N,RAM-A10*%
X133292500Y-47100000D02*
X133092500Y-47100000D01*
X133292500Y-47166100D02*
X133292500Y-47100000D01*
X134683067Y-47601000D02*
X134483067Y-47401000D01*
X135180953Y-47601000D02*
X134683067Y-47601000D01*
X135380953Y-47401000D02*
X135180953Y-47601000D01*
X135728400Y-47401000D02*
X135380953Y-47401000D01*
X161092500Y-72765100D02*
X135728400Y-47401000D01*
X134483067Y-47401000D02*
X133527400Y-47401000D01*
X133527400Y-47401000D02*
X133292500Y-47166100D01*
X161092500Y-75000000D02*
X161092500Y-72765100D01*
%TO.N,RAM-A11*%
X228950000Y-102753000D02*
X227385400Y-102753000D01*
X229000000Y-102703000D02*
X228950000Y-102753000D01*
%TO.N,RAM-A12*%
X229500000Y-103436000D02*
X227418400Y-103436000D01*
X227418400Y-103436000D02*
X227385400Y-103403000D01*
%TO.N,Net-(D64-K)*%
X230979500Y-134500000D02*
X233940500Y-131539000D01*
X212719500Y-134500000D02*
X230979500Y-134500000D01*
X210791500Y-136428000D02*
X212719500Y-134500000D01*
%TO.N,Net-(D60-K)*%
X228939500Y-134000000D02*
X231400500Y-131539000D01*
X210863500Y-134000000D02*
X228939500Y-134000000D01*
X210791500Y-133928000D02*
X210863500Y-134000000D01*
%TO.N,Net-(D63-K)*%
X226899500Y-133500000D02*
X228860500Y-131539000D01*
X212863500Y-133500000D02*
X226899500Y-133500000D01*
X210791500Y-131428000D02*
X212863500Y-133500000D01*
%TO.N,Net-(D59-K)*%
X224859500Y-133000000D02*
X226320500Y-131539000D01*
X214863500Y-133000000D02*
X224859500Y-133000000D01*
X210791500Y-128928000D02*
X214863500Y-133000000D01*
%TO.N,Net-(D55-A)*%
X163634500Y-129958000D02*
X156092500Y-137500000D01*
X156092500Y-137500000D02*
X153592500Y-137500000D01*
X163634500Y-129783000D02*
X163634500Y-129958000D01*
%TO.N,Net-(D49-A)*%
X157000000Y-141000000D02*
X153592500Y-141000000D01*
X163634500Y-134365500D02*
X157000000Y-141000000D01*
X163634500Y-133283000D02*
X163634500Y-134365500D01*
%TO.N,RAM-A9*%
X162493500Y-73599000D02*
X135894500Y-47000000D01*
X135894500Y-47000000D02*
X135827500Y-47000000D01*
X162493500Y-77099000D02*
X162493500Y-73599000D01*
X161092500Y-78500000D02*
X162493500Y-77099000D01*
X104652500Y-47000000D02*
X103392500Y-48260000D01*
X111705400Y-47000000D02*
X104652500Y-47000000D01*
X112106400Y-46599000D02*
X111705400Y-47000000D01*
X132843557Y-46499000D02*
X132743557Y-46599000D01*
X133341443Y-46499000D02*
X132843557Y-46499000D01*
X132743557Y-46599000D02*
X112106400Y-46599000D01*
X133693500Y-47000000D02*
X133693500Y-46851057D01*
X135827500Y-47000000D02*
X133693500Y-47000000D01*
X133693500Y-46851057D02*
X133341443Y-46499000D01*
%TO.N,Z80-RESET*%
X132500000Y-123347500D02*
X134629500Y-121218000D01*
X132500000Y-136834950D02*
X132500000Y-123347500D01*
X131333950Y-138001000D02*
X132500000Y-136834950D01*
X131333950Y-139201000D02*
X131333950Y-138001000D01*
%TO.N,Z80-WAIT*%
X132951057Y-127976443D02*
X134629500Y-126298000D01*
X132951057Y-137383893D02*
X132951057Y-127976443D01*
X132333950Y-138001000D02*
X132951057Y-137383893D01*
%TO.N,Net-(SW5-A)*%
X80853500Y-130646500D02*
X94500000Y-117000000D01*
X80853500Y-136146500D02*
X80853500Y-130646500D01*
X77500000Y-139500000D02*
X80853500Y-136146500D01*
X77500000Y-139500000D02*
X81340000Y-139500000D01*
X71000000Y-139500000D02*
X77500000Y-139500000D01*
%TO.N,RAM-A9*%
X227385400Y-101453000D02*
X229874500Y-101453000D01*
X229874500Y-101453000D02*
X229891500Y-101436000D01*
%TO.N,RAM-Q6*%
X253800370Y-129814000D02*
X254181500Y-130195130D01*
X254181500Y-130195130D02*
X254181500Y-130732870D01*
X253143000Y-129814000D02*
X253800370Y-129814000D01*
X50333950Y-135184000D02*
X50333950Y-134184000D01*
X58052950Y-142903000D02*
X50333950Y-135184000D01*
X242011370Y-142903000D02*
X58052950Y-142903000D01*
X50333950Y-131734000D02*
X50333950Y-130234000D01*
X254181500Y-130732870D02*
X242011370Y-142903000D01*
%TO.N,RAM-Q5*%
X253143000Y-129164000D02*
X253880499Y-129164000D01*
X57453950Y-143304000D02*
X49333950Y-135184000D01*
X49333950Y-135184000D02*
X49333950Y-134184000D01*
X253880499Y-129164000D02*
X254582500Y-129866001D01*
X242177470Y-143304000D02*
X57453950Y-143304000D01*
X254582500Y-130898970D02*
X242177470Y-143304000D01*
X254582500Y-129866001D02*
X254582500Y-130898970D01*
X49333950Y-131734000D02*
X49333950Y-130049000D01*
%TO.N,RAM-A10*%
X133092500Y-47100000D02*
X132992500Y-47000000D01*
X227385400Y-102103000D02*
X230355874Y-102103000D01*
X230355874Y-102103000D02*
X230457187Y-102001687D01*
X132992500Y-47000000D02*
X112272500Y-47000000D01*
X112272500Y-47000000D02*
X111012500Y-48260000D01*
%TO.N,RAM-A7*%
X227385400Y-81353000D02*
X230308500Y-81353000D01*
X230308500Y-81353000D02*
X230391500Y-81436000D01*
%TO.N,RAM-A5*%
X227385400Y-80053000D02*
X229881191Y-80053000D01*
X229881191Y-80053000D02*
X229908039Y-80026152D01*
%TO.N,RAM-Q4*%
X253880499Y-128514000D02*
X254983500Y-129617001D01*
X254983500Y-131065070D02*
X242343570Y-143705000D01*
X48333950Y-135184000D02*
X48333950Y-134184000D01*
X242343570Y-143705000D02*
X56854950Y-143705000D01*
X56854950Y-143705000D02*
X48333950Y-135184000D01*
X48333950Y-131734000D02*
X48333950Y-129634000D01*
X254983500Y-129617001D02*
X254983500Y-131065070D01*
X253143000Y-128514000D02*
X253880499Y-128514000D01*
%TO.N,Vcc*%
X119389500Y-111058000D02*
X119234500Y-111058000D01*
X153589500Y-130203000D02*
X153509500Y-130283000D01*
X119234500Y-111058000D02*
X119009500Y-111283000D01*
%TO.N,RAM-A11*%
X105932500Y-53244450D02*
X105932500Y-48260000D01*
X90333950Y-82400000D02*
X90532950Y-82599000D01*
X91358600Y-82599000D02*
X92259600Y-83500000D01*
X97333950Y-61843000D02*
X105932500Y-53244450D01*
X90532950Y-82599000D02*
X91358600Y-82599000D01*
X92259600Y-83500000D02*
X95192500Y-83500000D01*
%TO.N,RAM-Q7*%
X253143000Y-131204270D02*
X253143000Y-130464000D01*
X51333950Y-135184000D02*
X58651950Y-142502000D01*
X58651950Y-142502000D02*
X241845270Y-142502000D01*
X241845270Y-142502000D02*
X253143000Y-131204270D01*
X51333950Y-134184000D02*
X51333950Y-135184000D01*
%TO.N,RAM-A6*%
X227385400Y-80703000D02*
X230358744Y-80703000D01*
X230358744Y-80703000D02*
X230518273Y-80543471D01*
%TO.N,RAM-Q0*%
X44333950Y-135184000D02*
X44333950Y-134184000D01*
X256587500Y-131729470D02*
X243007970Y-145309000D01*
X54458950Y-145309000D02*
X44333950Y-135184000D01*
X44552035Y-131853145D02*
X44552035Y-128527907D01*
X243007970Y-145309000D02*
X54458950Y-145309000D01*
X44552035Y-128527907D02*
X45500234Y-127579708D01*
X45500234Y-127579708D02*
X46198382Y-127579708D01*
X254063950Y-125914000D02*
X256587500Y-128437550D01*
X256587500Y-128437550D02*
X256587500Y-131729470D01*
X253143000Y-125914000D02*
X254063950Y-125914000D01*
%TO.N,RAM-A0*%
X227385400Y-76803000D02*
X228524504Y-76803000D01*
X228524504Y-76803000D02*
X228549437Y-76778067D01*
%TO.N,RAM-A13*%
X94333950Y-61843000D02*
X94333950Y-61684000D01*
X227385400Y-104053000D02*
X230774500Y-104053000D01*
X88149950Y-90500000D02*
X83833950Y-86184000D01*
X98312500Y-57705450D02*
X98312500Y-48260000D01*
X230774500Y-104053000D02*
X230891500Y-103936000D01*
X94333950Y-61684000D02*
X98312500Y-57705450D01*
X95192500Y-90500000D02*
X88149950Y-90500000D01*
%TO.N,RAM-A1*%
X228883598Y-77453000D02*
X228918468Y-77487870D01*
X227385400Y-77453000D02*
X228883598Y-77453000D01*
%TO.N,GND*%
X88109500Y-126783000D02*
X88109500Y-130783000D01*
X221391500Y-105621900D02*
X221660400Y-105353000D01*
X221391500Y-82000000D02*
X221391500Y-81621900D01*
X221391500Y-81621900D02*
X221660400Y-81353000D01*
X165909500Y-122500000D02*
X165909500Y-126283000D01*
X246036000Y-130464000D02*
X246000000Y-130500000D01*
X165909500Y-119000000D02*
X165909500Y-114500000D01*
X88109500Y-130783000D02*
X88109500Y-134783000D01*
X229341500Y-100153000D02*
X229391500Y-100103000D01*
X165909500Y-122263000D02*
X165909500Y-122500000D01*
X69475000Y-43025000D02*
X69475000Y-43175000D01*
X227385400Y-100153000D02*
X229341500Y-100153000D01*
X227385400Y-76153000D02*
X226347000Y-76153000D01*
X254236000Y-125264000D02*
X254500000Y-125000000D01*
X221391500Y-106000000D02*
X221391500Y-105621900D01*
X247418000Y-130464000D02*
X246036000Y-130464000D01*
X165909500Y-119000000D02*
X165909500Y-122263000D01*
X253143000Y-125264000D02*
X254236000Y-125264000D01*
X58741500Y-53436000D02*
X58391500Y-53786000D01*
X135031500Y-114000000D02*
X134629500Y-113598000D01*
X165909500Y-119000000D02*
X165909500Y-119763000D01*
X226347000Y-76153000D02*
X226000000Y-76500000D01*
%TO.N,RAM-Q3*%
X254013950Y-127864000D02*
X255384500Y-129234550D01*
X47333950Y-135184000D02*
X47333950Y-134184000D01*
X255384500Y-129234550D02*
X255384500Y-131231170D01*
X253143000Y-127864000D02*
X254013950Y-127864000D01*
X255384500Y-131231170D02*
X242509670Y-144106000D01*
X47333950Y-131684000D02*
X47333950Y-129183000D01*
X242509670Y-144106000D02*
X56255950Y-144106000D01*
X56255950Y-144106000D02*
X47333950Y-135184000D01*
%TO.N,RAM-A3*%
X229232906Y-78753000D02*
X229290172Y-78810266D01*
X227385400Y-78753000D02*
X229232906Y-78753000D01*
%TO.N,RAM-Q2*%
X255785500Y-129068450D02*
X255785500Y-131397270D01*
X46333950Y-135184000D02*
X46333950Y-134184000D01*
X253143000Y-127214000D02*
X253931050Y-127214000D01*
X253931050Y-127214000D02*
X255785500Y-129068450D01*
X255785500Y-131397270D02*
X242675770Y-144507000D01*
X242675770Y-144507000D02*
X55656950Y-144507000D01*
X46333950Y-131684000D02*
X46333950Y-128782000D01*
X55656950Y-144507000D02*
X46333950Y-135184000D01*
%TO.N,RAM-Q1*%
X253848150Y-126564000D02*
X256186500Y-128902350D01*
X256186500Y-131563370D02*
X242841870Y-144908000D01*
X55057950Y-144908000D02*
X45333950Y-135184000D01*
X253143000Y-126564000D02*
X253848150Y-126564000D01*
X242841870Y-144908000D02*
X55057950Y-144908000D01*
X256186500Y-128902350D02*
X256186500Y-131563370D01*
X45333950Y-131684000D02*
X45333950Y-128595935D01*
X45333950Y-135184000D02*
X45333950Y-134184000D01*
X45333950Y-128595935D02*
X45598382Y-128331503D01*
%TO.N,RAM-CS*%
X99969500Y-61843000D02*
X113552500Y-48260000D01*
X98833950Y-61843000D02*
X99969500Y-61843000D01*
%TO.N,RAM-A2*%
X229434300Y-78103000D02*
X229499236Y-78038064D01*
X227385400Y-78103000D02*
X229434300Y-78103000D01*
%TO.N,RAM-A8*%
X161092500Y-82000000D02*
X162894500Y-80198000D01*
X162894500Y-73432900D02*
X136144550Y-46682950D01*
X230024500Y-100803000D02*
X230391500Y-100436000D01*
X162894500Y-80198000D02*
X162894500Y-73432900D01*
X227385400Y-100803000D02*
X230024500Y-100803000D01*
%TO.N,Z80-D6*%
X84469500Y-114283000D02*
X79752500Y-119000000D01*
X113624500Y-114283000D02*
X84469500Y-114283000D01*
X119389500Y-108518000D02*
X113624500Y-114283000D01*
%TO.N,Z80-A10*%
X141432500Y-75000000D02*
X134629500Y-81803000D01*
X134629500Y-81803000D02*
X134629500Y-85658000D01*
%TO.N,Z80-A5*%
X135574500Y-98358000D02*
X134629500Y-98358000D01*
X141432500Y-92500000D02*
X135574500Y-98358000D01*
%TO.N,Z80-NMI*%
X117374500Y-124283000D02*
X119389500Y-126298000D01*
X110589500Y-124283000D02*
X117374500Y-124283000D01*
%TO.N,Z80-MREQ*%
X110669500Y-131283000D02*
X119294500Y-131283000D01*
X119294500Y-131283000D02*
X119389500Y-131378000D01*
%TO.N,Z80-RD*%
X134629500Y-133918000D02*
X141711500Y-141000000D01*
X141711500Y-141000000D02*
X143432500Y-141000000D01*
%TO.N,Z80-WAIT*%
X143349500Y-130283000D02*
X138614500Y-130283000D01*
X138614500Y-130283000D02*
X134629500Y-126298000D01*
X252083950Y-106934000D02*
X245583950Y-106934000D01*
X132333950Y-139201000D02*
X132333950Y-138001000D01*
%TO.N,Z80-BUSREQ*%
X143429500Y-126783000D02*
X137654500Y-126783000D01*
X137654500Y-126783000D02*
X134629500Y-123758000D01*
%TO.N,Z80-HALT*%
X110589500Y-127783000D02*
X118334500Y-127783000D01*
X118334500Y-127783000D02*
X119389500Y-128838000D01*
%TO.N,Z80-A11*%
X119389500Y-85658000D02*
X117231500Y-83500000D01*
X117231500Y-83500000D02*
X112252500Y-83500000D01*
%TO.N,Z80-WR*%
X141000000Y-137500000D02*
X143432500Y-137500000D01*
X134878000Y-131378000D02*
X141000000Y-137500000D01*
X134629500Y-131378000D02*
X134878000Y-131378000D01*
%TO.N,Z80-BUSACK*%
X139574500Y-133783000D02*
X134629500Y-128838000D01*
X143349500Y-133783000D02*
X139574500Y-133783000D01*
%TO.N,Z80-A8*%
X141432500Y-83935000D02*
X134629500Y-90738000D01*
X141432500Y-82000000D02*
X141432500Y-83935000D01*
%TO.N,Z80-A7*%
X134629500Y-92303000D02*
X134629500Y-93278000D01*
X141432500Y-85500000D02*
X134629500Y-92303000D01*
%TO.N,Z80-A9*%
X140331500Y-82496000D02*
X134629500Y-88198000D01*
X140331500Y-79601000D02*
X140331500Y-82496000D01*
X141432500Y-78500000D02*
X140331500Y-79601000D01*
%TO.N,Z80-A0*%
X135687500Y-110000000D02*
X134629500Y-111058000D01*
X141512500Y-110000000D02*
X135687500Y-110000000D01*
%TO.N,Z80-M1*%
X143429500Y-119783000D02*
X135734500Y-119783000D01*
X135734500Y-119783000D02*
X134629500Y-118678000D01*
%TO.N,Z80-IORQ*%
X110589500Y-134783000D02*
X118524500Y-134783000D01*
X118524500Y-134783000D02*
X119389500Y-133918000D01*
%TO.N,Z80-D5*%
X119389500Y-105978000D02*
X112084500Y-113283000D01*
X82375500Y-113283000D02*
X79592500Y-110500000D01*
X112084500Y-113283000D02*
X82375500Y-113283000D01*
%TO.N,Z80-A2*%
X137607500Y-103000000D02*
X134629500Y-105978000D01*
X141432500Y-103000000D02*
X137607500Y-103000000D01*
%TO.N,Z80-A13*%
X119344500Y-90783000D02*
X119389500Y-90738000D01*
X119389500Y-90738000D02*
X112490500Y-90738000D01*
X112490500Y-90738000D02*
X112252500Y-90500000D01*
%TO.N,Z80-RESET*%
X252083950Y-98684000D02*
X245583950Y-98684000D01*
X143429500Y-123283000D02*
X136694500Y-123283000D01*
X136694500Y-123283000D02*
X134629500Y-121218000D01*
%TO.N,Z80-INT*%
X116414500Y-120783000D02*
X119389500Y-123758000D01*
X110589500Y-120783000D02*
X116414500Y-120783000D01*
%TO.N,Z80-A3*%
X141432500Y-99500000D02*
X138567500Y-99500000D01*
X138567500Y-99500000D02*
X134629500Y-103438000D01*
%TO.N,Z80-D7*%
X119389500Y-116138000D02*
X91114500Y-116138000D01*
X91114500Y-116138000D02*
X79752500Y-127500000D01*
%TO.N,Z80-A12*%
X118191500Y-87000000D02*
X112252500Y-87000000D01*
X119389500Y-88198000D02*
X118191500Y-87000000D01*
%TO.N,Z80-A6*%
X134629500Y-95803000D02*
X134629500Y-95818000D01*
X141432500Y-89000000D02*
X134629500Y-95803000D01*
%TO.N,Z80-A4*%
X141432500Y-96000000D02*
X139527500Y-96000000D01*
X139527500Y-96000000D02*
X134629500Y-100898000D01*
%TO.N,Z80-RFSH*%
X134774500Y-116283000D02*
X134629500Y-116138000D01*
X143429500Y-116283000D02*
X134774500Y-116283000D01*
%TO.N,Net-(D1-A)*%
X161509500Y-126283000D02*
X163634500Y-126283000D01*
X154009500Y-133783000D02*
X161509500Y-126283000D01*
X153509500Y-133783000D02*
X154009500Y-133783000D01*
%TO.N,Net-(D45-A)*%
X100429500Y-127783000D02*
X91384500Y-127783000D01*
X91384500Y-127783000D02*
X90384500Y-126783000D01*
%TO.N,Net-(D50-A)*%
X100429500Y-134783000D02*
X90384500Y-134783000D01*
%TO.N,Net-(D51-A)*%
X90884500Y-131283000D02*
X90384500Y-130783000D01*
X100509500Y-131283000D02*
X90884500Y-131283000D01*
%TO.N,Net-(D52-A)*%
X154372500Y-119000000D02*
X153589500Y-119783000D01*
X163634500Y-119000000D02*
X154372500Y-119000000D01*
X163134500Y-118500000D02*
X163634500Y-119000000D01*
X163634500Y-118500000D02*
X163634500Y-119000000D01*
%TO.N,Net-(D53-A)*%
X154372500Y-115500000D02*
X153589500Y-116283000D01*
X163634500Y-115000000D02*
X163634500Y-115500000D01*
X157672500Y-115500000D02*
X154372500Y-115500000D01*
X157592500Y-115500000D02*
X163634500Y-115500000D01*
%TO.N,Vdd_3v3*%
X176000000Y-112930000D02*
X175480000Y-112410000D01*
X175480000Y-112410000D02*
X175480000Y-112000000D01*
X92000000Y-102800000D02*
X91700000Y-102500000D01*
X176000000Y-117500000D02*
X176000000Y-112930000D01*
%TO.N,RP2040-DVDD*%
X185254000Y-54298500D02*
X185254000Y-55298500D01*
X178833950Y-43684000D02*
X179891500Y-43684000D01*
X185253000Y-49045500D02*
X185253000Y-54297500D01*
X179891500Y-43684000D02*
X185253000Y-49045500D01*
X185253000Y-54297500D02*
X185254000Y-54298500D01*
%TO.N,RP2040-IOVDD*%
X185654000Y-55846000D02*
X185654000Y-55833774D01*
X185654000Y-55298500D02*
X185654000Y-55846000D01*
X185654000Y-48184000D02*
X185654000Y-55298500D01*
X183683950Y-46213950D02*
X185654000Y-48184000D01*
X182016500Y-59736000D02*
X182764000Y-59736000D01*
X183683950Y-43684000D02*
X183683950Y-46213950D01*
%TO.N,RP2040-USB_VDD*%
X186054000Y-54207326D02*
X186055000Y-54206326D01*
X186055000Y-48020500D02*
X186055000Y-54206326D01*
X188533950Y-43684000D02*
X188533950Y-45541550D01*
X186054000Y-55298500D02*
X186054000Y-54207326D01*
X188533950Y-45541550D02*
X186055000Y-48020500D01*
%TO.N,RP2040-VREG_VOUT*%
X191754000Y-43684000D02*
X193383950Y-43684000D01*
X187333950Y-48104050D02*
X191754000Y-43684000D01*
X187250000Y-54759950D02*
X187250000Y-54250000D01*
X187254000Y-54763950D02*
X187250000Y-54759950D01*
X187254000Y-55298500D02*
X187254000Y-54763950D01*
X187250000Y-54250000D02*
X187333950Y-54166050D01*
X187333950Y-54166050D02*
X187333950Y-48104050D01*
%TO.N,Net-(Flash1-VCC)*%
X223391500Y-51936000D02*
X223391500Y-55626000D01*
%TO.N,Net-(D2-A)*%
X158817500Y-89000000D02*
X151592500Y-89000000D01*
%TO.N,Net-(D3-K)*%
X216847900Y-76153000D02*
X221660400Y-76153000D01*
X210922900Y-70228000D02*
X216847900Y-76153000D01*
%TO.N,Net-(D4-A)*%
X158817500Y-85500000D02*
X151592500Y-85500000D01*
%TO.N,Net-(D5-K)*%
X210922900Y-72678000D02*
X215047900Y-76803000D01*
X215047900Y-76803000D02*
X221660400Y-76803000D01*
%TO.N,Net-(D6-A)*%
X151592500Y-82000000D02*
X158817500Y-82000000D01*
%TO.N,Net-(D7-K)*%
X213247900Y-77453000D02*
X221660400Y-77453000D01*
X210922900Y-75128000D02*
X213247900Y-77453000D01*
%TO.N,Net-(D8-A)*%
X158817500Y-110000000D02*
X151672500Y-110000000D01*
%TO.N,Net-(D9-K)*%
X211447900Y-78103000D02*
X221660400Y-78103000D01*
X210922900Y-77578000D02*
X211447900Y-78103000D01*
%TO.N,Net-(D10-A)*%
X158817500Y-92500000D02*
X151592500Y-92500000D01*
%TO.N,Net-(D11-K)*%
X212197900Y-78753000D02*
X221660400Y-78753000D01*
X210922900Y-80028000D02*
X212197900Y-78753000D01*
%TO.N,Net-(D12-A)*%
X158817500Y-75000000D02*
X151592500Y-75000000D01*
%TO.N,Net-(D13-A)*%
X190571900Y-82539000D02*
X192474900Y-80636000D01*
X192474900Y-80636000D02*
X207680900Y-80636000D01*
X207680900Y-80636000D02*
X209522900Y-82478000D01*
%TO.N,Net-(D13-K)*%
X213997900Y-79403000D02*
X221660400Y-79403000D01*
X210922900Y-82478000D02*
X213997900Y-79403000D01*
%TO.N,Net-(D14-A)*%
X102092500Y-83500000D02*
X97467500Y-83500000D01*
%TO.N,Net-(D15-K)*%
X215797900Y-80053000D02*
X221660400Y-80053000D01*
X210922900Y-84928000D02*
X215797900Y-80053000D01*
%TO.N,Net-(D15-A)*%
X193111900Y-82539000D02*
X194613900Y-81037000D01*
X205631900Y-81037000D02*
X209522900Y-84928000D01*
X194613900Y-81037000D02*
X205631900Y-81037000D01*
%TO.N,Net-(D16-A)*%
X102092500Y-87000000D02*
X97467500Y-87000000D01*
%TO.N,Net-(D17-K)*%
X217647900Y-80703000D02*
X221660400Y-80703000D01*
X210922900Y-87428000D02*
X217647900Y-80703000D01*
%TO.N,Net-(D17-A)*%
X195651900Y-82539000D02*
X196752900Y-81438000D01*
X203532900Y-81438000D02*
X209522900Y-87428000D01*
X196752900Y-81438000D02*
X203532900Y-81438000D01*
%TO.N,Net-(D18-A)*%
X97467500Y-90500000D02*
X102092500Y-90500000D01*
%TO.N,Net-(D19-K)*%
X216647900Y-100153000D02*
X221660400Y-100153000D01*
X210922900Y-94428000D02*
X216647900Y-100153000D01*
%TO.N,Net-(D20-A)*%
X102092500Y-94000000D02*
X97467500Y-94000000D01*
%TO.N,Net-(D21-K)*%
X210922900Y-99328000D02*
X213047900Y-101453000D01*
X213047900Y-101453000D02*
X221660400Y-101453000D01*
%TO.N,Net-(D22-A)*%
X158817500Y-106500000D02*
X151592500Y-106500000D01*
%TO.N,Net-(D23-K)*%
X210922900Y-104328000D02*
X212497900Y-102753000D01*
X212497900Y-102753000D02*
X221660400Y-102753000D01*
%TO.N,Net-(D24-A)*%
X158817500Y-78500000D02*
X151592500Y-78500000D01*
%TO.N,Net-(D25-K)*%
X216197900Y-104053000D02*
X221660400Y-104053000D01*
X210922900Y-109328000D02*
X216197900Y-104053000D01*
%TO.N,Net-(D25-A)*%
X192831900Y-106344000D02*
X194333900Y-104842000D01*
X194333900Y-104842000D02*
X205036900Y-104842000D01*
X205036900Y-104842000D02*
X209522900Y-109328000D01*
%TO.N,Net-(D26-A)*%
X158817500Y-103000000D02*
X151592500Y-103000000D01*
%TO.N,Net-(D27-K)*%
X214897900Y-100803000D02*
X221660400Y-100803000D01*
X210922900Y-96828000D02*
X214897900Y-100803000D01*
%TO.N,Net-(D28-A)*%
X158817500Y-99500000D02*
X151592500Y-99500000D01*
%TO.N,Net-(D29-K)*%
X211197900Y-102103000D02*
X221660400Y-102103000D01*
X210922900Y-101828000D02*
X211197900Y-102103000D01*
%TO.N,Net-(D30-A)*%
X158817500Y-96000000D02*
X151592500Y-96000000D01*
%TO.N,Net-(D31-K)*%
X61962000Y-71435500D02*
X61962000Y-68410500D01*
X69028000Y-67935500D02*
X62437000Y-67935500D01*
X69592500Y-68000000D02*
X69092500Y-68000000D01*
X69092500Y-68000000D02*
X69028000Y-67935500D01*
X61962000Y-68410500D02*
X62437000Y-67935500D01*
%TO.N,Net-(D31-A)*%
X59622500Y-71500000D02*
X59687000Y-71435500D01*
X52592500Y-71500000D02*
X59622500Y-71500000D01*
X60162000Y-67935500D02*
X60162000Y-70960500D01*
X60162000Y-70960500D02*
X59687000Y-71435500D01*
%TO.N,Net-(D33-A)*%
X59647500Y-114000000D02*
X59712000Y-113935500D01*
X60187000Y-110435500D02*
X60187000Y-113460500D01*
X52592500Y-114000000D02*
X59647500Y-114000000D01*
X60187000Y-113460500D02*
X59712000Y-113935500D01*
%TO.N,Net-(D33-K)*%
X62526500Y-110500000D02*
X62462000Y-110435500D01*
X61987000Y-110910500D02*
X62462000Y-110435500D01*
X69432500Y-110500000D02*
X62526500Y-110500000D01*
X61987000Y-113935500D02*
X61987000Y-110910500D01*
%TO.N,Net-(D35-K)*%
X62501500Y-76500000D02*
X62437000Y-76435500D01*
X61937000Y-76935500D02*
X62437000Y-76435500D01*
X61937000Y-79935500D02*
X61937000Y-76935500D01*
X69592500Y-76500000D02*
X62501500Y-76500000D01*
%TO.N,Net-(D35-A)*%
X59597500Y-80000000D02*
X59662000Y-79935500D01*
X52592500Y-80000000D02*
X59597500Y-80000000D01*
X60162000Y-76435500D02*
X60162000Y-79435500D01*
X60162000Y-79435500D02*
X59662000Y-79935500D01*
%TO.N,Net-(D37-K)*%
X61987000Y-122435500D02*
X61987000Y-119410500D01*
X69592500Y-119000000D02*
X69092500Y-119000000D01*
X61987000Y-119410500D02*
X62462000Y-118935500D01*
X69092500Y-119000000D02*
X69028000Y-118935500D01*
X69028000Y-118935500D02*
X62462000Y-118935500D01*
%TO.N,Net-(D37-A)*%
X53092500Y-122500000D02*
X53157000Y-122435500D01*
X60187000Y-118935500D02*
X60187000Y-121960500D01*
X60187000Y-121960500D02*
X59712000Y-122435500D01*
X52592500Y-122500000D02*
X53092500Y-122500000D01*
X53157000Y-122435500D02*
X59712000Y-122435500D01*
%TO.N,Net-(D39-A)*%
X52592500Y-88500000D02*
X59622500Y-88500000D01*
X59622500Y-88500000D02*
X59687000Y-88435500D01*
X60162000Y-84935500D02*
X60162000Y-87960500D01*
X60162000Y-87960500D02*
X59687000Y-88435500D01*
%TO.N,Net-(D39-K)*%
X61962000Y-85410500D02*
X62437000Y-84935500D01*
X61962000Y-88435500D02*
X61962000Y-85410500D01*
X69592500Y-85000000D02*
X69092500Y-85000000D01*
X69028000Y-84935500D02*
X62437000Y-84935500D01*
X69092500Y-85000000D02*
X69028000Y-84935500D01*
%TO.N,Net-(D41-A)*%
X60162000Y-127435500D02*
X60162000Y-130560500D01*
X60162000Y-130560500D02*
X59787000Y-130935500D01*
X52592500Y-131000000D02*
X59722500Y-131000000D01*
X59722500Y-131000000D02*
X59787000Y-130935500D01*
%TO.N,Net-(D41-K)*%
X69028000Y-127435500D02*
X62437000Y-127435500D01*
X62062000Y-130935500D02*
X62062000Y-127810500D01*
X69592500Y-127500000D02*
X69092500Y-127500000D01*
X62062000Y-127810500D02*
X62437000Y-127435500D01*
X69092500Y-127500000D02*
X69028000Y-127435500D01*
%TO.N,Net-(D43-A)*%
X59622500Y-97000000D02*
X59687000Y-96935500D01*
X60162000Y-93435500D02*
X60162000Y-96460500D01*
X60162000Y-96460500D02*
X59687000Y-96935500D01*
X52592500Y-97000000D02*
X59622500Y-97000000D01*
%TO.N,Net-(D43-K)*%
X69028000Y-93435500D02*
X62437000Y-93435500D01*
X69592500Y-93500000D02*
X69092500Y-93500000D01*
X69092500Y-93500000D02*
X69028000Y-93435500D01*
X61962000Y-93910500D02*
X62437000Y-93435500D01*
X61962000Y-96935500D02*
X61962000Y-93910500D01*
%TO.N,Net-(D46-K)*%
X214347900Y-103403000D02*
X221660400Y-103403000D01*
X210922900Y-106828000D02*
X214347900Y-103403000D01*
%TO.N,Net-(D46-A)*%
X192194900Y-104441000D02*
X207135900Y-104441000D01*
X190291900Y-106344000D02*
X192194900Y-104441000D01*
X207135900Y-104441000D02*
X209522900Y-106828000D01*
%TO.N,Net-(D47-K)*%
X61962000Y-105435500D02*
X61962000Y-102410500D01*
X69592500Y-102000000D02*
X69092500Y-102000000D01*
X61962000Y-102410500D02*
X62437000Y-101935500D01*
X69028000Y-101935500D02*
X62437000Y-101935500D01*
X69092500Y-102000000D02*
X69028000Y-101935500D01*
%TO.N,Net-(D47-A)*%
X60162000Y-101935500D02*
X60162000Y-104960500D01*
X59622500Y-105500000D02*
X59687000Y-105435500D01*
X52592500Y-105500000D02*
X59622500Y-105500000D01*
X60162000Y-104960500D02*
X59687000Y-105435500D01*
%TO.N,Net-(D54-A)*%
X195371900Y-106344000D02*
X196472900Y-105243000D01*
X202937900Y-105243000D02*
X209522900Y-111828000D01*
X196472900Y-105243000D02*
X202937900Y-105243000D01*
%TO.N,Net-(D54-K)*%
X210922900Y-111828000D02*
X218047900Y-104703000D01*
X218047900Y-104703000D02*
X221660400Y-104703000D01*
%TO.N,Net-(D55-A)*%
X163634500Y-129783000D02*
X163634500Y-130658000D01*
%TO.N,Net-(D56-K)*%
X213478500Y-120970000D02*
X227045700Y-120970000D01*
X228114700Y-122039000D02*
X232060500Y-122039000D01*
X235285500Y-125264000D02*
X247418000Y-125264000D01*
X210791500Y-118283000D02*
X213478500Y-120970000D01*
X233940500Y-123919000D02*
X235285500Y-125264000D01*
X232060500Y-122039000D02*
X233940500Y-123919000D01*
X227045700Y-120970000D02*
X228114700Y-122039000D01*
%TO.N,Net-(D57-A)*%
X102092500Y-98500000D02*
X97467500Y-98500000D01*
%TO.N,Net-(D58-K)*%
X227358500Y-122417000D02*
X228860500Y-123919000D01*
X228860500Y-123919000D02*
X231505500Y-126564000D01*
X213590400Y-122417000D02*
X227358500Y-122417000D01*
X211614000Y-122460500D02*
X213546900Y-122460500D01*
X213546900Y-122460500D02*
X213590400Y-122417000D01*
X210791500Y-123283000D02*
X211614000Y-122460500D01*
X231505500Y-126564000D02*
X247418000Y-126564000D01*
%TO.N,Net-(D59-K)*%
X226320500Y-131539000D02*
X229995500Y-127864000D01*
X229995500Y-127864000D02*
X247418000Y-127864000D01*
%TO.N,Net-(D60-K)*%
X233775500Y-129164000D02*
X247418000Y-129164000D01*
X231400500Y-131539000D02*
X233775500Y-129164000D01*
%TO.N,Net-(D61-K)*%
X210791500Y-120783000D02*
X211379500Y-121371000D01*
X228047600Y-122539000D02*
X230020500Y-122539000D01*
X211379500Y-121371000D02*
X226879600Y-121371000D01*
X226879600Y-121371000D02*
X227524600Y-122016000D01*
X231400500Y-123919000D02*
X233395500Y-125914000D01*
X233395500Y-125914000D02*
X247418000Y-125914000D01*
X227524600Y-122016000D02*
X228047600Y-122539000D01*
X230020500Y-122539000D02*
X231400500Y-123919000D01*
%TO.N,Net-(D62-K)*%
X229615500Y-127214000D02*
X247418000Y-127214000D01*
X225219500Y-122818000D02*
X226320500Y-123919000D01*
X226320500Y-123919000D02*
X229615500Y-127214000D01*
X214401500Y-122818000D02*
X225219500Y-122818000D01*
X210791500Y-125783000D02*
X213756500Y-122818000D01*
X213756500Y-122818000D02*
X214401500Y-122818000D01*
%TO.N,Net-(D63-K)*%
X228860500Y-131539000D02*
X231885500Y-128514000D01*
X231885500Y-128514000D02*
X247418000Y-128514000D01*
%TO.N,Net-(D64-K)*%
X233940500Y-131539000D02*
X235665500Y-129814000D01*
X235665500Y-129814000D02*
X247418000Y-129814000D01*
%TO.N,RP2040-RWRAM-GPIO5-DIR*%
X179485421Y-65000000D02*
X179485421Y-59014579D01*
X179485421Y-59014579D02*
X179964000Y-58536000D01*
X179964000Y-58536000D02*
X182016500Y-58536000D01*
%TO.N,USB-C-VBUS*%
X64375000Y-44525000D02*
X64375000Y-43175000D01*
X64955346Y-42524000D02*
X68468974Y-42524000D01*
X68468974Y-42524000D02*
X68625000Y-42680026D01*
X73756500Y-39586000D02*
X72026500Y-41316000D01*
X72026500Y-41316000D02*
X70413346Y-41316000D01*
X64375000Y-43104346D02*
X64955346Y-42524000D01*
X70413346Y-41316000D02*
X68625000Y-43104346D01*
X68625000Y-43104346D02*
X68625000Y-43175000D01*
X68625000Y-42680026D02*
X68625000Y-43175000D01*
X64375000Y-43175000D02*
X64375000Y-43104346D01*
X68625000Y-43175000D02*
X68625000Y-44525000D01*
%TO.N,FLASH-DO-RP2040-QSPI_SD1*%
X182500000Y-53286000D02*
X182500000Y-54000000D01*
X182600000Y-53186000D02*
X182500000Y-53286000D01*
X182600000Y-53043762D02*
X182600000Y-53186000D01*
X183254000Y-54754000D02*
X183254000Y-55298500D01*
X216216500Y-56896000D02*
X193351500Y-56896000D01*
X193351500Y-56896000D02*
X192891500Y-56436000D01*
X182500000Y-54000000D02*
X183254000Y-54754000D01*
%TO.N,FLASH-DI-RP2040-QSPI_SD0*%
X210998990Y-48936000D02*
X221498990Y-59436000D01*
X184054000Y-55298500D02*
X184054000Y-54196000D01*
X183750000Y-53750000D02*
X183750000Y-51977500D01*
X221498990Y-59436000D02*
X223391500Y-59436000D01*
X183679000Y-53821000D02*
X183750000Y-53750000D01*
X184054000Y-54196000D02*
X183679000Y-53821000D01*
X183750000Y-51977500D02*
X184291500Y-51436000D01*
X190000000Y-48936000D02*
X210998990Y-48936000D01*
%TO.N,FLASH-CS-RP2040-QSPI_SS*%
X182000000Y-54250000D02*
X182853000Y-55103000D01*
X182000000Y-52500000D02*
X182000000Y-54250000D01*
X190500000Y-53044500D02*
X193081500Y-55626000D01*
X190500000Y-51000000D02*
X190500000Y-53044500D01*
X193081500Y-55626000D02*
X216216500Y-55626000D01*
X182853000Y-55103000D02*
X182853000Y-55298500D01*
%TO.N,USB-C-CC2*%
X46741500Y-43586000D02*
X48403500Y-41924000D01*
X48403500Y-41924000D02*
X65000000Y-41924000D01*
%TO.N,RP2040-Z80BOOTMODE*%
X177564000Y-56936000D02*
X175064000Y-59436000D01*
X167370500Y-58255000D02*
X168551500Y-59436000D01*
X167370500Y-52645450D02*
X167370500Y-58255000D01*
X247833950Y-47250000D02*
X247083950Y-46500000D01*
X247083950Y-46500000D02*
X242000000Y-46500000D01*
X175064000Y-59436000D02*
X168551500Y-59436000D01*
X242000000Y-46500000D02*
X237783000Y-42283000D01*
X182016500Y-56936000D02*
X177564000Y-56936000D01*
X254333950Y-47250000D02*
X247833950Y-47250000D01*
X177732950Y-42283000D02*
X167370500Y-52645450D01*
X237783000Y-42283000D02*
X177732950Y-42283000D01*
%TO.N,RP2040-RPBOOTMODE*%
X254333950Y-55800000D02*
X247833950Y-55800000D01*
%TO.N,RP2040_XIN*%
X173130000Y-66500000D02*
X173500000Y-66870000D01*
X184854000Y-62173500D02*
X184854000Y-63354000D01*
X168500000Y-66500000D02*
X173130000Y-66500000D01*
X184255743Y-63854000D02*
X184250000Y-63859743D01*
X184854000Y-63354000D02*
X184854000Y-63854000D01*
X184854000Y-63854000D02*
X184255743Y-63854000D01*
%TO.N,RP2040-SH-GPIO2-SER*%
X177500000Y-67544500D02*
X177500000Y-58000000D01*
X185491900Y-74919000D02*
X184874500Y-74919000D01*
X177500000Y-58000000D02*
X178164000Y-57336000D01*
X178164000Y-57336000D02*
X182016500Y-57336000D01*
X184874500Y-74919000D02*
X177500000Y-67544500D01*
%TO.N,RP2040-RWRAM-GPIO7-Q7*%
X181067100Y-59336000D02*
X182016500Y-59336000D01*
X180600000Y-63829332D02*
X180600000Y-59803100D01*
X180694558Y-63923890D02*
X180600000Y-63829332D01*
X180600000Y-59803100D02*
X181067100Y-59336000D01*
%TO.N,RP2040-VREG_IN*%
X190085007Y-46440000D02*
X195560000Y-46440000D01*
X187734950Y-54332150D02*
X187734950Y-48790057D01*
X187734950Y-48790057D02*
X190085007Y-46440000D01*
X187654000Y-55298500D02*
X187654000Y-54413100D01*
X195560000Y-46440000D02*
X198250000Y-43750000D01*
X187654000Y-54413100D02*
X187734950Y-54332150D01*
%TO.N,RP2040_XOUT*%
X185254000Y-64246000D02*
X185000000Y-64500000D01*
X173500000Y-71750000D02*
X173500000Y-77500000D01*
X185254000Y-62173500D02*
X185254000Y-64246000D01*
%TO.N,CLOCK_FLASH*%
X184350000Y-53536000D02*
X184350000Y-53903000D01*
X221250000Y-58250000D02*
X221334000Y-58166000D01*
X184454000Y-55298500D02*
X184454000Y-54007000D01*
X184350000Y-53903000D02*
X184454000Y-54007000D01*
X223225500Y-58000000D02*
X223391500Y-58166000D01*
X221334000Y-58166000D02*
X223391500Y-58166000D01*
%TO.N,USB-RP2040-DP*%
X186454000Y-54563950D02*
X186454000Y-55298500D01*
X186655000Y-54166726D02*
X186655000Y-54362950D01*
X186655000Y-54362950D02*
X186454000Y-54563950D01*
%TO.N,USB-RP2040-DM*%
X66925000Y-43245654D02*
X66925000Y-43175000D01*
X66075000Y-44095654D02*
X66925000Y-43245654D01*
X66075000Y-44525000D02*
X66075000Y-44095654D01*
X186854000Y-56184000D02*
X186854000Y-55298500D01*
%TO.N,FLASH-HOLD-RESRT-RP2040-QSPI_SD3*%
X184850000Y-56600000D02*
X184854000Y-56600000D01*
X184750000Y-56500000D02*
X184850000Y-56600000D01*
X223287500Y-57000000D02*
X223391500Y-56896000D01*
X221750000Y-57000000D02*
X223287500Y-57000000D01*
X184854000Y-55298500D02*
X184854000Y-56396000D01*
X223526500Y-57031000D02*
X223391500Y-56896000D01*
X184854000Y-56396000D02*
X184750000Y-56500000D01*
%TO.N,FLASH-WP-RP2040-QSPI_SD2*%
X216584000Y-58166000D02*
X216216500Y-58166000D01*
X217982230Y-56767770D02*
X216584000Y-58166000D01*
X216081500Y-58031000D02*
X216216500Y-58166000D01*
%TO.N,RP2040-SWD-PIN*%
X186854000Y-63708273D02*
X187500000Y-64354273D01*
X186854000Y-62173500D02*
X186854000Y-63708273D01*
X187500000Y-64354273D02*
X187500000Y-64400000D01*
%TO.N,RP2040-RWRAM-GPIO8-PL*%
X181200000Y-62856000D02*
X181000000Y-62656000D01*
X181000000Y-62656000D02*
X181000000Y-60500000D01*
X181200000Y-63274835D02*
X181200000Y-62856000D01*
X181000000Y-60500000D02*
X181364000Y-60136000D01*
X181364000Y-60136000D02*
X182016500Y-60136000D01*
%TO.N,RP2040-RWRAM-GPIO6-DS*%
X182016500Y-58936000D02*
X181264000Y-58936000D01*
%TO.N,RP2040-SWCLK-PIN*%
X186454000Y-62173500D02*
X186454000Y-64158216D01*
X186454000Y-64158216D02*
X186693784Y-64398000D01*
%TO.N,CLOCK_Z80*%
X118934500Y-98358000D02*
X119389500Y-98358000D01*
%TO.N,Vcc-RP2040-RUN*%
X187254000Y-63059743D02*
X187254000Y-62173500D01*
%TO.N,CLOCK_BUS*%
X195192900Y-77000000D02*
X193111900Y-74919000D01*
X219741500Y-127500000D02*
X198000000Y-127500000D01*
X199000000Y-77000000D02*
X195192900Y-77000000D01*
X193000000Y-74807100D02*
X193111900Y-74919000D01*
X192831900Y-94168100D02*
X193000000Y-94000000D01*
X223780500Y-131539000D02*
X219741500Y-127500000D01*
X192831900Y-98724000D02*
X192831900Y-94168100D01*
%TO.N,RAM-A8*%
X136281196Y-46541234D02*
X136281196Y-46546304D01*
X136281196Y-46546304D02*
X136144550Y-46682950D01*
%TO.N,Vcc-RP2040-RUN*%
X187454000Y-63259743D02*
X187254000Y-63059743D01*
%TO.N,RAM-A4*%
X227418400Y-79436000D02*
X229799773Y-79436000D01*
X229799773Y-79436000D02*
X230192139Y-79043634D01*
X227385400Y-79403000D02*
X227418400Y-79436000D01*
%TD*%
M02*
