%TF.GenerationSoftware,KiCad,Pcbnew,9.0.6*%
%TF.CreationDate,2025-12-23T10:10:02+01:00*%
%TF.ProjectId,Z80DevBoard,5a383044-6576-4426-9f61-72642e6b6963,rev?*%
%TF.SameCoordinates,Original*%
%TF.FileFunction,Legend,Bot*%
%TF.FilePolarity,Positive*%
%FSLAX46Y46*%
G04 Gerber Fmt 4.6, Leading zero omitted, Abs format (unit mm)*
G04 Created by KiCad (PCBNEW 9.0.6) date 2025-12-23 10:10:02*
%MOMM*%
%LPD*%
G01*
G04 APERTURE LIST*
%ADD10C,0.200000*%
%ADD11C,0.000000*%
G04 APERTURE END LIST*
D10*
X82225564Y-137427443D02*
X81558898Y-137427443D01*
X81558898Y-137427443D02*
X82225564Y-138427443D01*
X82225564Y-138427443D02*
X81558898Y-138427443D01*
X81035088Y-137856014D02*
X81130326Y-137808395D01*
X81130326Y-137808395D02*
X81177945Y-137760776D01*
X81177945Y-137760776D02*
X81225564Y-137665538D01*
X81225564Y-137665538D02*
X81225564Y-137617919D01*
X81225564Y-137617919D02*
X81177945Y-137522681D01*
X81177945Y-137522681D02*
X81130326Y-137475062D01*
X81130326Y-137475062D02*
X81035088Y-137427443D01*
X81035088Y-137427443D02*
X80844612Y-137427443D01*
X80844612Y-137427443D02*
X80749374Y-137475062D01*
X80749374Y-137475062D02*
X80701755Y-137522681D01*
X80701755Y-137522681D02*
X80654136Y-137617919D01*
X80654136Y-137617919D02*
X80654136Y-137665538D01*
X80654136Y-137665538D02*
X80701755Y-137760776D01*
X80701755Y-137760776D02*
X80749374Y-137808395D01*
X80749374Y-137808395D02*
X80844612Y-137856014D01*
X80844612Y-137856014D02*
X81035088Y-137856014D01*
X81035088Y-137856014D02*
X81130326Y-137903633D01*
X81130326Y-137903633D02*
X81177945Y-137951252D01*
X81177945Y-137951252D02*
X81225564Y-138046490D01*
X81225564Y-138046490D02*
X81225564Y-138236966D01*
X81225564Y-138236966D02*
X81177945Y-138332204D01*
X81177945Y-138332204D02*
X81130326Y-138379824D01*
X81130326Y-138379824D02*
X81035088Y-138427443D01*
X81035088Y-138427443D02*
X80844612Y-138427443D01*
X80844612Y-138427443D02*
X80749374Y-138379824D01*
X80749374Y-138379824D02*
X80701755Y-138332204D01*
X80701755Y-138332204D02*
X80654136Y-138236966D01*
X80654136Y-138236966D02*
X80654136Y-138046490D01*
X80654136Y-138046490D02*
X80701755Y-137951252D01*
X80701755Y-137951252D02*
X80749374Y-137903633D01*
X80749374Y-137903633D02*
X80844612Y-137856014D01*
X80035088Y-137427443D02*
X79939850Y-137427443D01*
X79939850Y-137427443D02*
X79844612Y-137475062D01*
X79844612Y-137475062D02*
X79796993Y-137522681D01*
X79796993Y-137522681D02*
X79749374Y-137617919D01*
X79749374Y-137617919D02*
X79701755Y-137808395D01*
X79701755Y-137808395D02*
X79701755Y-138046490D01*
X79701755Y-138046490D02*
X79749374Y-138236966D01*
X79749374Y-138236966D02*
X79796993Y-138332204D01*
X79796993Y-138332204D02*
X79844612Y-138379824D01*
X79844612Y-138379824D02*
X79939850Y-138427443D01*
X79939850Y-138427443D02*
X80035088Y-138427443D01*
X80035088Y-138427443D02*
X80130326Y-138379824D01*
X80130326Y-138379824D02*
X80177945Y-138332204D01*
X80177945Y-138332204D02*
X80225564Y-138236966D01*
X80225564Y-138236966D02*
X80273183Y-138046490D01*
X80273183Y-138046490D02*
X80273183Y-137808395D01*
X80273183Y-137808395D02*
X80225564Y-137617919D01*
X80225564Y-137617919D02*
X80177945Y-137522681D01*
X80177945Y-137522681D02*
X80130326Y-137475062D01*
X80130326Y-137475062D02*
X80035088Y-137427443D01*
X79273183Y-138427443D02*
X79273183Y-137427443D01*
X79273183Y-137427443D02*
X79035088Y-137427443D01*
X79035088Y-137427443D02*
X78892231Y-137475062D01*
X78892231Y-137475062D02*
X78796993Y-137570300D01*
X78796993Y-137570300D02*
X78749374Y-137665538D01*
X78749374Y-137665538D02*
X78701755Y-137856014D01*
X78701755Y-137856014D02*
X78701755Y-137998871D01*
X78701755Y-137998871D02*
X78749374Y-138189347D01*
X78749374Y-138189347D02*
X78796993Y-138284585D01*
X78796993Y-138284585D02*
X78892231Y-138379824D01*
X78892231Y-138379824D02*
X79035088Y-138427443D01*
X79035088Y-138427443D02*
X79273183Y-138427443D01*
X77892231Y-138379824D02*
X77987469Y-138427443D01*
X77987469Y-138427443D02*
X78177945Y-138427443D01*
X78177945Y-138427443D02*
X78273183Y-138379824D01*
X78273183Y-138379824D02*
X78320802Y-138284585D01*
X78320802Y-138284585D02*
X78320802Y-137903633D01*
X78320802Y-137903633D02*
X78273183Y-137808395D01*
X78273183Y-137808395D02*
X78177945Y-137760776D01*
X78177945Y-137760776D02*
X77987469Y-137760776D01*
X77987469Y-137760776D02*
X77892231Y-137808395D01*
X77892231Y-137808395D02*
X77844612Y-137903633D01*
X77844612Y-137903633D02*
X77844612Y-137998871D01*
X77844612Y-137998871D02*
X78320802Y-138094109D01*
X77511278Y-137760776D02*
X77273183Y-138427443D01*
X77273183Y-138427443D02*
X77035088Y-137760776D01*
X76320802Y-137903633D02*
X76177945Y-137951252D01*
X76177945Y-137951252D02*
X76130326Y-137998871D01*
X76130326Y-137998871D02*
X76082707Y-138094109D01*
X76082707Y-138094109D02*
X76082707Y-138236966D01*
X76082707Y-138236966D02*
X76130326Y-138332204D01*
X76130326Y-138332204D02*
X76177945Y-138379824D01*
X76177945Y-138379824D02*
X76273183Y-138427443D01*
X76273183Y-138427443D02*
X76654135Y-138427443D01*
X76654135Y-138427443D02*
X76654135Y-137427443D01*
X76654135Y-137427443D02*
X76320802Y-137427443D01*
X76320802Y-137427443D02*
X76225564Y-137475062D01*
X76225564Y-137475062D02*
X76177945Y-137522681D01*
X76177945Y-137522681D02*
X76130326Y-137617919D01*
X76130326Y-137617919D02*
X76130326Y-137713157D01*
X76130326Y-137713157D02*
X76177945Y-137808395D01*
X76177945Y-137808395D02*
X76225564Y-137856014D01*
X76225564Y-137856014D02*
X76320802Y-137903633D01*
X76320802Y-137903633D02*
X76654135Y-137903633D01*
X75511278Y-138427443D02*
X75606516Y-138379824D01*
X75606516Y-138379824D02*
X75654135Y-138332204D01*
X75654135Y-138332204D02*
X75701754Y-138236966D01*
X75701754Y-138236966D02*
X75701754Y-137951252D01*
X75701754Y-137951252D02*
X75654135Y-137856014D01*
X75654135Y-137856014D02*
X75606516Y-137808395D01*
X75606516Y-137808395D02*
X75511278Y-137760776D01*
X75511278Y-137760776D02*
X75368421Y-137760776D01*
X75368421Y-137760776D02*
X75273183Y-137808395D01*
X75273183Y-137808395D02*
X75225564Y-137856014D01*
X75225564Y-137856014D02*
X75177945Y-137951252D01*
X75177945Y-137951252D02*
X75177945Y-138236966D01*
X75177945Y-138236966D02*
X75225564Y-138332204D01*
X75225564Y-138332204D02*
X75273183Y-138379824D01*
X75273183Y-138379824D02*
X75368421Y-138427443D01*
X75368421Y-138427443D02*
X75511278Y-138427443D01*
X74320802Y-138427443D02*
X74320802Y-137903633D01*
X74320802Y-137903633D02*
X74368421Y-137808395D01*
X74368421Y-137808395D02*
X74463659Y-137760776D01*
X74463659Y-137760776D02*
X74654135Y-137760776D01*
X74654135Y-137760776D02*
X74749373Y-137808395D01*
X74320802Y-138379824D02*
X74416040Y-138427443D01*
X74416040Y-138427443D02*
X74654135Y-138427443D01*
X74654135Y-138427443D02*
X74749373Y-138379824D01*
X74749373Y-138379824D02*
X74796992Y-138284585D01*
X74796992Y-138284585D02*
X74796992Y-138189347D01*
X74796992Y-138189347D02*
X74749373Y-138094109D01*
X74749373Y-138094109D02*
X74654135Y-138046490D01*
X74654135Y-138046490D02*
X74416040Y-138046490D01*
X74416040Y-138046490D02*
X74320802Y-137998871D01*
X73844611Y-138427443D02*
X73844611Y-137760776D01*
X73844611Y-137951252D02*
X73796992Y-137856014D01*
X73796992Y-137856014D02*
X73749373Y-137808395D01*
X73749373Y-137808395D02*
X73654135Y-137760776D01*
X73654135Y-137760776D02*
X73558897Y-137760776D01*
X72796992Y-138427443D02*
X72796992Y-137427443D01*
X72796992Y-138379824D02*
X72892230Y-138427443D01*
X72892230Y-138427443D02*
X73082706Y-138427443D01*
X73082706Y-138427443D02*
X73177944Y-138379824D01*
X73177944Y-138379824D02*
X73225563Y-138332204D01*
X73225563Y-138332204D02*
X73273182Y-138236966D01*
X73273182Y-138236966D02*
X73273182Y-137951252D01*
X73273182Y-137951252D02*
X73225563Y-137856014D01*
X73225563Y-137856014D02*
X73177944Y-137808395D01*
X73177944Y-137808395D02*
X73082706Y-137760776D01*
X73082706Y-137760776D02*
X72892230Y-137760776D01*
X72892230Y-137760776D02*
X72796992Y-137808395D01*
X82177945Y-141361616D02*
X81701755Y-141361616D01*
X82273183Y-141647331D02*
X81939850Y-140647331D01*
X81939850Y-140647331D02*
X81606517Y-141647331D01*
X80844612Y-140980664D02*
X80844612Y-141647331D01*
X81273183Y-140980664D02*
X81273183Y-141504473D01*
X81273183Y-141504473D02*
X81225564Y-141599712D01*
X81225564Y-141599712D02*
X81130326Y-141647331D01*
X81130326Y-141647331D02*
X80987469Y-141647331D01*
X80987469Y-141647331D02*
X80892231Y-141599712D01*
X80892231Y-141599712D02*
X80844612Y-141552092D01*
X80511278Y-140980664D02*
X80130326Y-140980664D01*
X80368421Y-140647331D02*
X80368421Y-141504473D01*
X80368421Y-141504473D02*
X80320802Y-141599712D01*
X80320802Y-141599712D02*
X80225564Y-141647331D01*
X80225564Y-141647331D02*
X80130326Y-141647331D01*
X79796992Y-141647331D02*
X79796992Y-140647331D01*
X79368421Y-141647331D02*
X79368421Y-141123521D01*
X79368421Y-141123521D02*
X79416040Y-141028283D01*
X79416040Y-141028283D02*
X79511278Y-140980664D01*
X79511278Y-140980664D02*
X79654135Y-140980664D01*
X79654135Y-140980664D02*
X79749373Y-141028283D01*
X79749373Y-141028283D02*
X79796992Y-141075902D01*
X78749373Y-141647331D02*
X78844611Y-141599712D01*
X78844611Y-141599712D02*
X78892230Y-141552092D01*
X78892230Y-141552092D02*
X78939849Y-141456854D01*
X78939849Y-141456854D02*
X78939849Y-141171140D01*
X78939849Y-141171140D02*
X78892230Y-141075902D01*
X78892230Y-141075902D02*
X78844611Y-141028283D01*
X78844611Y-141028283D02*
X78749373Y-140980664D01*
X78749373Y-140980664D02*
X78606516Y-140980664D01*
X78606516Y-140980664D02*
X78511278Y-141028283D01*
X78511278Y-141028283D02*
X78463659Y-141075902D01*
X78463659Y-141075902D02*
X78416040Y-141171140D01*
X78416040Y-141171140D02*
X78416040Y-141456854D01*
X78416040Y-141456854D02*
X78463659Y-141552092D01*
X78463659Y-141552092D02*
X78511278Y-141599712D01*
X78511278Y-141599712D02*
X78606516Y-141647331D01*
X78606516Y-141647331D02*
X78749373Y-141647331D01*
X77987468Y-141647331D02*
X77987468Y-140980664D01*
X77987468Y-141171140D02*
X77939849Y-141075902D01*
X77939849Y-141075902D02*
X77892230Y-141028283D01*
X77892230Y-141028283D02*
X77796992Y-140980664D01*
X77796992Y-140980664D02*
X77701754Y-140980664D01*
X77368420Y-141552092D02*
X77320801Y-141599712D01*
X77320801Y-141599712D02*
X77368420Y-141647331D01*
X77368420Y-141647331D02*
X77416039Y-141599712D01*
X77416039Y-141599712D02*
X77368420Y-141552092D01*
X77368420Y-141552092D02*
X77368420Y-141647331D01*
X77368420Y-141028283D02*
X77320801Y-141075902D01*
X77320801Y-141075902D02*
X77368420Y-141123521D01*
X77368420Y-141123521D02*
X77416039Y-141075902D01*
X77416039Y-141075902D02*
X77368420Y-141028283D01*
X77368420Y-141028283D02*
X77368420Y-141123521D01*
X75606516Y-140694950D02*
X75701754Y-140647331D01*
X75701754Y-140647331D02*
X75844611Y-140647331D01*
X75844611Y-140647331D02*
X75987468Y-140694950D01*
X75987468Y-140694950D02*
X76082706Y-140790188D01*
X76082706Y-140790188D02*
X76130325Y-140885426D01*
X76130325Y-140885426D02*
X76177944Y-141075902D01*
X76177944Y-141075902D02*
X76177944Y-141218759D01*
X76177944Y-141218759D02*
X76130325Y-141409235D01*
X76130325Y-141409235D02*
X76082706Y-141504473D01*
X76082706Y-141504473D02*
X75987468Y-141599712D01*
X75987468Y-141599712D02*
X75844611Y-141647331D01*
X75844611Y-141647331D02*
X75749373Y-141647331D01*
X75749373Y-141647331D02*
X75606516Y-141599712D01*
X75606516Y-141599712D02*
X75558897Y-141552092D01*
X75558897Y-141552092D02*
X75558897Y-141218759D01*
X75558897Y-141218759D02*
X75749373Y-141218759D01*
X75130325Y-141647331D02*
X75130325Y-140980664D01*
X75130325Y-140647331D02*
X75177944Y-140694950D01*
X75177944Y-140694950D02*
X75130325Y-140742569D01*
X75130325Y-140742569D02*
X75082706Y-140694950D01*
X75082706Y-140694950D02*
X75130325Y-140647331D01*
X75130325Y-140647331D02*
X75130325Y-140742569D01*
X74225564Y-141647331D02*
X74225564Y-141123521D01*
X74225564Y-141123521D02*
X74273183Y-141028283D01*
X74273183Y-141028283D02*
X74368421Y-140980664D01*
X74368421Y-140980664D02*
X74558897Y-140980664D01*
X74558897Y-140980664D02*
X74654135Y-141028283D01*
X74225564Y-141599712D02*
X74320802Y-141647331D01*
X74320802Y-141647331D02*
X74558897Y-141647331D01*
X74558897Y-141647331D02*
X74654135Y-141599712D01*
X74654135Y-141599712D02*
X74701754Y-141504473D01*
X74701754Y-141504473D02*
X74701754Y-141409235D01*
X74701754Y-141409235D02*
X74654135Y-141313997D01*
X74654135Y-141313997D02*
X74558897Y-141266378D01*
X74558897Y-141266378D02*
X74320802Y-141266378D01*
X74320802Y-141266378D02*
X74225564Y-141218759D01*
X73749373Y-140980664D02*
X73749373Y-141647331D01*
X73749373Y-141075902D02*
X73701754Y-141028283D01*
X73701754Y-141028283D02*
X73606516Y-140980664D01*
X73606516Y-140980664D02*
X73463659Y-140980664D01*
X73463659Y-140980664D02*
X73368421Y-141028283D01*
X73368421Y-141028283D02*
X73320802Y-141123521D01*
X73320802Y-141123521D02*
X73320802Y-141647331D01*
X72701754Y-141647331D02*
X72796992Y-141599712D01*
X72796992Y-141599712D02*
X72844611Y-141504473D01*
X72844611Y-141504473D02*
X72844611Y-140647331D01*
X71892230Y-140980664D02*
X71892230Y-141647331D01*
X72320801Y-140980664D02*
X72320801Y-141504473D01*
X72320801Y-141504473D02*
X72273182Y-141599712D01*
X72273182Y-141599712D02*
X72177944Y-141647331D01*
X72177944Y-141647331D02*
X72035087Y-141647331D01*
X72035087Y-141647331D02*
X71939849Y-141599712D01*
X71939849Y-141599712D02*
X71892230Y-141552092D01*
X70987468Y-141599712D02*
X71082706Y-141647331D01*
X71082706Y-141647331D02*
X71273182Y-141647331D01*
X71273182Y-141647331D02*
X71368420Y-141599712D01*
X71368420Y-141599712D02*
X71416039Y-141552092D01*
X71416039Y-141552092D02*
X71463658Y-141456854D01*
X71463658Y-141456854D02*
X71463658Y-141171140D01*
X71463658Y-141171140D02*
X71416039Y-141075902D01*
X71416039Y-141075902D02*
X71368420Y-141028283D01*
X71368420Y-141028283D02*
X71273182Y-140980664D01*
X71273182Y-140980664D02*
X71082706Y-140980664D01*
X71082706Y-140980664D02*
X70987468Y-141028283D01*
X70130325Y-141647331D02*
X70130325Y-141123521D01*
X70130325Y-141123521D02*
X70177944Y-141028283D01*
X70177944Y-141028283D02*
X70273182Y-140980664D01*
X70273182Y-140980664D02*
X70463658Y-140980664D01*
X70463658Y-140980664D02*
X70558896Y-141028283D01*
X70130325Y-141599712D02*
X70225563Y-141647331D01*
X70225563Y-141647331D02*
X70463658Y-141647331D01*
X70463658Y-141647331D02*
X70558896Y-141599712D01*
X70558896Y-141599712D02*
X70606515Y-141504473D01*
X70606515Y-141504473D02*
X70606515Y-141409235D01*
X70606515Y-141409235D02*
X70558896Y-141313997D01*
X70558896Y-141313997D02*
X70463658Y-141266378D01*
X70463658Y-141266378D02*
X70225563Y-141266378D01*
X70225563Y-141266378D02*
X70130325Y-141218759D01*
X68320801Y-141647331D02*
X68654134Y-141171140D01*
X68892229Y-141647331D02*
X68892229Y-140647331D01*
X68892229Y-140647331D02*
X68511277Y-140647331D01*
X68511277Y-140647331D02*
X68416039Y-140694950D01*
X68416039Y-140694950D02*
X68368420Y-140742569D01*
X68368420Y-140742569D02*
X68320801Y-140837807D01*
X68320801Y-140837807D02*
X68320801Y-140980664D01*
X68320801Y-140980664D02*
X68368420Y-141075902D01*
X68368420Y-141075902D02*
X68416039Y-141123521D01*
X68416039Y-141123521D02*
X68511277Y-141171140D01*
X68511277Y-141171140D02*
X68892229Y-141171140D01*
X67463658Y-141647331D02*
X67463658Y-141123521D01*
X67463658Y-141123521D02*
X67511277Y-141028283D01*
X67511277Y-141028283D02*
X67606515Y-140980664D01*
X67606515Y-140980664D02*
X67796991Y-140980664D01*
X67796991Y-140980664D02*
X67892229Y-141028283D01*
X67463658Y-141599712D02*
X67558896Y-141647331D01*
X67558896Y-141647331D02*
X67796991Y-141647331D01*
X67796991Y-141647331D02*
X67892229Y-141599712D01*
X67892229Y-141599712D02*
X67939848Y-141504473D01*
X67939848Y-141504473D02*
X67939848Y-141409235D01*
X67939848Y-141409235D02*
X67892229Y-141313997D01*
X67892229Y-141313997D02*
X67796991Y-141266378D01*
X67796991Y-141266378D02*
X67558896Y-141266378D01*
X67558896Y-141266378D02*
X67463658Y-141218759D01*
X66987467Y-141647331D02*
X66987467Y-140980664D01*
X66987467Y-140647331D02*
X67035086Y-140694950D01*
X67035086Y-140694950D02*
X66987467Y-140742569D01*
X66987467Y-140742569D02*
X66939848Y-140694950D01*
X66939848Y-140694950D02*
X66987467Y-140647331D01*
X66987467Y-140647331D02*
X66987467Y-140742569D01*
X66511277Y-140980664D02*
X66511277Y-141647331D01*
X66511277Y-141075902D02*
X66463658Y-141028283D01*
X66463658Y-141028283D02*
X66368420Y-140980664D01*
X66368420Y-140980664D02*
X66225563Y-140980664D01*
X66225563Y-140980664D02*
X66130325Y-141028283D01*
X66130325Y-141028283D02*
X66082706Y-141123521D01*
X66082706Y-141123521D02*
X66082706Y-141647331D01*
X65606515Y-141647331D02*
X65606515Y-140980664D01*
X65606515Y-140647331D02*
X65654134Y-140694950D01*
X65654134Y-140694950D02*
X65606515Y-140742569D01*
X65606515Y-140742569D02*
X65558896Y-140694950D01*
X65558896Y-140694950D02*
X65606515Y-140647331D01*
X65606515Y-140647331D02*
X65606515Y-140742569D01*
X65177944Y-141599712D02*
X65082706Y-141647331D01*
X65082706Y-141647331D02*
X64892230Y-141647331D01*
X64892230Y-141647331D02*
X64796992Y-141599712D01*
X64796992Y-141599712D02*
X64749373Y-141504473D01*
X64749373Y-141504473D02*
X64749373Y-141456854D01*
X64749373Y-141456854D02*
X64796992Y-141361616D01*
X64796992Y-141361616D02*
X64892230Y-141313997D01*
X64892230Y-141313997D02*
X65035087Y-141313997D01*
X65035087Y-141313997D02*
X65130325Y-141266378D01*
X65130325Y-141266378D02*
X65177944Y-141171140D01*
X65177944Y-141171140D02*
X65177944Y-141123521D01*
X65177944Y-141123521D02*
X65130325Y-141028283D01*
X65130325Y-141028283D02*
X65035087Y-140980664D01*
X65035087Y-140980664D02*
X64892230Y-140980664D01*
X64892230Y-140980664D02*
X64796992Y-141028283D01*
X81606517Y-142304894D02*
X81701755Y-142257275D01*
X81701755Y-142257275D02*
X81844612Y-142257275D01*
X81844612Y-142257275D02*
X81987469Y-142304894D01*
X81987469Y-142304894D02*
X82082707Y-142400132D01*
X82082707Y-142400132D02*
X82130326Y-142495370D01*
X82130326Y-142495370D02*
X82177945Y-142685846D01*
X82177945Y-142685846D02*
X82177945Y-142828703D01*
X82177945Y-142828703D02*
X82130326Y-143019179D01*
X82130326Y-143019179D02*
X82082707Y-143114417D01*
X82082707Y-143114417D02*
X81987469Y-143209656D01*
X81987469Y-143209656D02*
X81844612Y-143257275D01*
X81844612Y-143257275D02*
X81749374Y-143257275D01*
X81749374Y-143257275D02*
X81606517Y-143209656D01*
X81606517Y-143209656D02*
X81558898Y-143162036D01*
X81558898Y-143162036D02*
X81558898Y-142828703D01*
X81558898Y-142828703D02*
X81749374Y-142828703D01*
X81130326Y-143257275D02*
X81130326Y-142590608D01*
X81130326Y-142257275D02*
X81177945Y-142304894D01*
X81177945Y-142304894D02*
X81130326Y-142352513D01*
X81130326Y-142352513D02*
X81082707Y-142304894D01*
X81082707Y-142304894D02*
X81130326Y-142257275D01*
X81130326Y-142257275D02*
X81130326Y-142352513D01*
X80796993Y-142590608D02*
X80416041Y-142590608D01*
X80654136Y-142257275D02*
X80654136Y-143114417D01*
X80654136Y-143114417D02*
X80606517Y-143209656D01*
X80606517Y-143209656D02*
X80511279Y-143257275D01*
X80511279Y-143257275D02*
X80416041Y-143257275D01*
X80082707Y-143257275D02*
X80082707Y-142257275D01*
X80082707Y-142733465D02*
X79511279Y-142733465D01*
X79511279Y-143257275D02*
X79511279Y-142257275D01*
X78606517Y-142590608D02*
X78606517Y-143257275D01*
X79035088Y-142590608D02*
X79035088Y-143114417D01*
X79035088Y-143114417D02*
X78987469Y-143209656D01*
X78987469Y-143209656D02*
X78892231Y-143257275D01*
X78892231Y-143257275D02*
X78749374Y-143257275D01*
X78749374Y-143257275D02*
X78654136Y-143209656D01*
X78654136Y-143209656D02*
X78606517Y-143162036D01*
X78130326Y-143257275D02*
X78130326Y-142257275D01*
X78130326Y-142638227D02*
X78035088Y-142590608D01*
X78035088Y-142590608D02*
X77844612Y-142590608D01*
X77844612Y-142590608D02*
X77749374Y-142638227D01*
X77749374Y-142638227D02*
X77701755Y-142685846D01*
X77701755Y-142685846D02*
X77654136Y-142781084D01*
X77654136Y-142781084D02*
X77654136Y-143066798D01*
X77654136Y-143066798D02*
X77701755Y-143162036D01*
X77701755Y-143162036D02*
X77749374Y-143209656D01*
X77749374Y-143209656D02*
X77844612Y-143257275D01*
X77844612Y-143257275D02*
X78035088Y-143257275D01*
X78035088Y-143257275D02*
X78130326Y-143209656D01*
X77225564Y-143162036D02*
X77177945Y-143209656D01*
X77177945Y-143209656D02*
X77225564Y-143257275D01*
X77225564Y-143257275D02*
X77273183Y-143209656D01*
X77273183Y-143209656D02*
X77225564Y-143162036D01*
X77225564Y-143162036D02*
X77225564Y-143257275D01*
X77225564Y-142638227D02*
X77177945Y-142685846D01*
X77177945Y-142685846D02*
X77225564Y-142733465D01*
X77225564Y-142733465D02*
X77273183Y-142685846D01*
X77273183Y-142685846D02*
X77225564Y-142638227D01*
X77225564Y-142638227D02*
X77225564Y-142733465D01*
X75558898Y-142590608D02*
X75558898Y-143400132D01*
X75558898Y-143400132D02*
X75606517Y-143495370D01*
X75606517Y-143495370D02*
X75654136Y-143542989D01*
X75654136Y-143542989D02*
X75749374Y-143590608D01*
X75749374Y-143590608D02*
X75892231Y-143590608D01*
X75892231Y-143590608D02*
X75987469Y-143542989D01*
X75558898Y-143209656D02*
X75654136Y-143257275D01*
X75654136Y-143257275D02*
X75844612Y-143257275D01*
X75844612Y-143257275D02*
X75939850Y-143209656D01*
X75939850Y-143209656D02*
X75987469Y-143162036D01*
X75987469Y-143162036D02*
X76035088Y-143066798D01*
X76035088Y-143066798D02*
X76035088Y-142781084D01*
X76035088Y-142781084D02*
X75987469Y-142685846D01*
X75987469Y-142685846D02*
X75939850Y-142638227D01*
X75939850Y-142638227D02*
X75844612Y-142590608D01*
X75844612Y-142590608D02*
X75654136Y-142590608D01*
X75654136Y-142590608D02*
X75558898Y-142638227D01*
X75082707Y-143257275D02*
X75082707Y-142590608D01*
X75082707Y-142257275D02*
X75130326Y-142304894D01*
X75130326Y-142304894D02*
X75082707Y-142352513D01*
X75082707Y-142352513D02*
X75035088Y-142304894D01*
X75035088Y-142304894D02*
X75082707Y-142257275D01*
X75082707Y-142257275D02*
X75082707Y-142352513D01*
X74177946Y-143257275D02*
X74177946Y-142733465D01*
X74177946Y-142733465D02*
X74225565Y-142638227D01*
X74225565Y-142638227D02*
X74320803Y-142590608D01*
X74320803Y-142590608D02*
X74511279Y-142590608D01*
X74511279Y-142590608D02*
X74606517Y-142638227D01*
X74177946Y-143209656D02*
X74273184Y-143257275D01*
X74273184Y-143257275D02*
X74511279Y-143257275D01*
X74511279Y-143257275D02*
X74606517Y-143209656D01*
X74606517Y-143209656D02*
X74654136Y-143114417D01*
X74654136Y-143114417D02*
X74654136Y-143019179D01*
X74654136Y-143019179D02*
X74606517Y-142923941D01*
X74606517Y-142923941D02*
X74511279Y-142876322D01*
X74511279Y-142876322D02*
X74273184Y-142876322D01*
X74273184Y-142876322D02*
X74177946Y-142828703D01*
X73701755Y-142590608D02*
X73701755Y-143257275D01*
X73701755Y-142685846D02*
X73654136Y-142638227D01*
X73654136Y-142638227D02*
X73558898Y-142590608D01*
X73558898Y-142590608D02*
X73416041Y-142590608D01*
X73416041Y-142590608D02*
X73320803Y-142638227D01*
X73320803Y-142638227D02*
X73273184Y-142733465D01*
X73273184Y-142733465D02*
X73273184Y-143257275D01*
X72654136Y-143257275D02*
X72749374Y-143209656D01*
X72749374Y-143209656D02*
X72796993Y-143114417D01*
X72796993Y-143114417D02*
X72796993Y-142257275D01*
X71844612Y-142590608D02*
X71844612Y-143257275D01*
X72273183Y-142590608D02*
X72273183Y-143114417D01*
X72273183Y-143114417D02*
X72225564Y-143209656D01*
X72225564Y-143209656D02*
X72130326Y-143257275D01*
X72130326Y-143257275D02*
X71987469Y-143257275D01*
X71987469Y-143257275D02*
X71892231Y-143209656D01*
X71892231Y-143209656D02*
X71844612Y-143162036D01*
X70939850Y-143209656D02*
X71035088Y-143257275D01*
X71035088Y-143257275D02*
X71225564Y-143257275D01*
X71225564Y-143257275D02*
X71320802Y-143209656D01*
X71320802Y-143209656D02*
X71368421Y-143162036D01*
X71368421Y-143162036D02*
X71416040Y-143066798D01*
X71416040Y-143066798D02*
X71416040Y-142781084D01*
X71416040Y-142781084D02*
X71368421Y-142685846D01*
X71368421Y-142685846D02*
X71320802Y-142638227D01*
X71320802Y-142638227D02*
X71225564Y-142590608D01*
X71225564Y-142590608D02*
X71035088Y-142590608D01*
X71035088Y-142590608D02*
X70939850Y-142638227D01*
X70082707Y-143257275D02*
X70082707Y-142733465D01*
X70082707Y-142733465D02*
X70130326Y-142638227D01*
X70130326Y-142638227D02*
X70225564Y-142590608D01*
X70225564Y-142590608D02*
X70416040Y-142590608D01*
X70416040Y-142590608D02*
X70511278Y-142638227D01*
X70082707Y-143209656D02*
X70177945Y-143257275D01*
X70177945Y-143257275D02*
X70416040Y-143257275D01*
X70416040Y-143257275D02*
X70511278Y-143209656D01*
X70511278Y-143209656D02*
X70558897Y-143114417D01*
X70558897Y-143114417D02*
X70558897Y-143019179D01*
X70558897Y-143019179D02*
X70511278Y-142923941D01*
X70511278Y-142923941D02*
X70416040Y-142876322D01*
X70416040Y-142876322D02*
X70177945Y-142876322D01*
X70177945Y-142876322D02*
X70082707Y-142828703D01*
X69606516Y-142876322D02*
X68844612Y-142876322D01*
X68368421Y-143257275D02*
X68368421Y-142590608D01*
X68368421Y-142781084D02*
X68320802Y-142685846D01*
X68320802Y-142685846D02*
X68273183Y-142638227D01*
X68273183Y-142638227D02*
X68177945Y-142590608D01*
X68177945Y-142590608D02*
X68082707Y-142590608D01*
X67320802Y-143257275D02*
X67320802Y-142733465D01*
X67320802Y-142733465D02*
X67368421Y-142638227D01*
X67368421Y-142638227D02*
X67463659Y-142590608D01*
X67463659Y-142590608D02*
X67654135Y-142590608D01*
X67654135Y-142590608D02*
X67749373Y-142638227D01*
X67320802Y-143209656D02*
X67416040Y-143257275D01*
X67416040Y-143257275D02*
X67654135Y-143257275D01*
X67654135Y-143257275D02*
X67749373Y-143209656D01*
X67749373Y-143209656D02*
X67796992Y-143114417D01*
X67796992Y-143114417D02*
X67796992Y-143019179D01*
X67796992Y-143019179D02*
X67749373Y-142923941D01*
X67749373Y-142923941D02*
X67654135Y-142876322D01*
X67654135Y-142876322D02*
X67416040Y-142876322D01*
X67416040Y-142876322D02*
X67320802Y-142828703D01*
X66844611Y-143257275D02*
X66844611Y-142590608D01*
X66844611Y-142257275D02*
X66892230Y-142304894D01*
X66892230Y-142304894D02*
X66844611Y-142352513D01*
X66844611Y-142352513D02*
X66796992Y-142304894D01*
X66796992Y-142304894D02*
X66844611Y-142257275D01*
X66844611Y-142257275D02*
X66844611Y-142352513D01*
X66368421Y-142590608D02*
X66368421Y-143257275D01*
X66368421Y-142685846D02*
X66320802Y-142638227D01*
X66320802Y-142638227D02*
X66225564Y-142590608D01*
X66225564Y-142590608D02*
X66082707Y-142590608D01*
X66082707Y-142590608D02*
X65987469Y-142638227D01*
X65987469Y-142638227D02*
X65939850Y-142733465D01*
X65939850Y-142733465D02*
X65939850Y-143257275D01*
X65463659Y-143257275D02*
X65463659Y-142590608D01*
X65463659Y-142257275D02*
X65511278Y-142304894D01*
X65511278Y-142304894D02*
X65463659Y-142352513D01*
X65463659Y-142352513D02*
X65416040Y-142304894D01*
X65416040Y-142304894D02*
X65463659Y-142257275D01*
X65463659Y-142257275D02*
X65463659Y-142352513D01*
X65035088Y-143209656D02*
X64939850Y-143257275D01*
X64939850Y-143257275D02*
X64749374Y-143257275D01*
X64749374Y-143257275D02*
X64654136Y-143209656D01*
X64654136Y-143209656D02*
X64606517Y-143114417D01*
X64606517Y-143114417D02*
X64606517Y-143066798D01*
X64606517Y-143066798D02*
X64654136Y-142971560D01*
X64654136Y-142971560D02*
X64749374Y-142923941D01*
X64749374Y-142923941D02*
X64892231Y-142923941D01*
X64892231Y-142923941D02*
X64987469Y-142876322D01*
X64987469Y-142876322D02*
X65035088Y-142781084D01*
X65035088Y-142781084D02*
X65035088Y-142733465D01*
X65035088Y-142733465D02*
X64987469Y-142638227D01*
X64987469Y-142638227D02*
X64892231Y-142590608D01*
X64892231Y-142590608D02*
X64749374Y-142590608D01*
X64749374Y-142590608D02*
X64654136Y-142638227D01*
X81558898Y-144867219D02*
X81892231Y-144391028D01*
X82130326Y-144867219D02*
X82130326Y-143867219D01*
X82130326Y-143867219D02*
X81749374Y-143867219D01*
X81749374Y-143867219D02*
X81654136Y-143914838D01*
X81654136Y-143914838D02*
X81606517Y-143962457D01*
X81606517Y-143962457D02*
X81558898Y-144057695D01*
X81558898Y-144057695D02*
X81558898Y-144200552D01*
X81558898Y-144200552D02*
X81606517Y-144295790D01*
X81606517Y-144295790D02*
X81654136Y-144343409D01*
X81654136Y-144343409D02*
X81749374Y-144391028D01*
X81749374Y-144391028D02*
X82130326Y-144391028D01*
X80749374Y-144819600D02*
X80844612Y-144867219D01*
X80844612Y-144867219D02*
X81035088Y-144867219D01*
X81035088Y-144867219D02*
X81130326Y-144819600D01*
X81130326Y-144819600D02*
X81177945Y-144724361D01*
X81177945Y-144724361D02*
X81177945Y-144343409D01*
X81177945Y-144343409D02*
X81130326Y-144248171D01*
X81130326Y-144248171D02*
X81035088Y-144200552D01*
X81035088Y-144200552D02*
X80844612Y-144200552D01*
X80844612Y-144200552D02*
X80749374Y-144248171D01*
X80749374Y-144248171D02*
X80701755Y-144343409D01*
X80701755Y-144343409D02*
X80701755Y-144438647D01*
X80701755Y-144438647D02*
X81177945Y-144533885D01*
X80273183Y-144200552D02*
X80273183Y-145200552D01*
X80273183Y-144248171D02*
X80177945Y-144200552D01*
X80177945Y-144200552D02*
X79987469Y-144200552D01*
X79987469Y-144200552D02*
X79892231Y-144248171D01*
X79892231Y-144248171D02*
X79844612Y-144295790D01*
X79844612Y-144295790D02*
X79796993Y-144391028D01*
X79796993Y-144391028D02*
X79796993Y-144676742D01*
X79796993Y-144676742D02*
X79844612Y-144771980D01*
X79844612Y-144771980D02*
X79892231Y-144819600D01*
X79892231Y-144819600D02*
X79987469Y-144867219D01*
X79987469Y-144867219D02*
X80177945Y-144867219D01*
X80177945Y-144867219D02*
X80273183Y-144819600D01*
X79225564Y-144867219D02*
X79320802Y-144819600D01*
X79320802Y-144819600D02*
X79368421Y-144771980D01*
X79368421Y-144771980D02*
X79416040Y-144676742D01*
X79416040Y-144676742D02*
X79416040Y-144391028D01*
X79416040Y-144391028D02*
X79368421Y-144295790D01*
X79368421Y-144295790D02*
X79320802Y-144248171D01*
X79320802Y-144248171D02*
X79225564Y-144200552D01*
X79225564Y-144200552D02*
X79082707Y-144200552D01*
X79082707Y-144200552D02*
X78987469Y-144248171D01*
X78987469Y-144248171D02*
X78939850Y-144295790D01*
X78939850Y-144295790D02*
X78892231Y-144391028D01*
X78892231Y-144391028D02*
X78892231Y-144676742D01*
X78892231Y-144676742D02*
X78939850Y-144771980D01*
X78939850Y-144771980D02*
X78987469Y-144819600D01*
X78987469Y-144819600D02*
X79082707Y-144867219D01*
X79082707Y-144867219D02*
X79225564Y-144867219D01*
X78463659Y-144771980D02*
X78416040Y-144819600D01*
X78416040Y-144819600D02*
X78463659Y-144867219D01*
X78463659Y-144867219D02*
X78511278Y-144819600D01*
X78511278Y-144819600D02*
X78463659Y-144771980D01*
X78463659Y-144771980D02*
X78463659Y-144867219D01*
X78463659Y-144248171D02*
X78416040Y-144295790D01*
X78416040Y-144295790D02*
X78463659Y-144343409D01*
X78463659Y-144343409D02*
X78511278Y-144295790D01*
X78511278Y-144295790D02*
X78463659Y-144248171D01*
X78463659Y-144248171D02*
X78463659Y-144343409D01*
X77225564Y-144867219D02*
X77225564Y-143867219D01*
X76796993Y-144867219D02*
X76796993Y-144343409D01*
X76796993Y-144343409D02*
X76844612Y-144248171D01*
X76844612Y-144248171D02*
X76939850Y-144200552D01*
X76939850Y-144200552D02*
X77082707Y-144200552D01*
X77082707Y-144200552D02*
X77177945Y-144248171D01*
X77177945Y-144248171D02*
X77225564Y-144295790D01*
X76463659Y-144200552D02*
X76082707Y-144200552D01*
X76320802Y-143867219D02*
X76320802Y-144724361D01*
X76320802Y-144724361D02*
X76273183Y-144819600D01*
X76273183Y-144819600D02*
X76177945Y-144867219D01*
X76177945Y-144867219D02*
X76082707Y-144867219D01*
X75892230Y-144200552D02*
X75511278Y-144200552D01*
X75749373Y-143867219D02*
X75749373Y-144724361D01*
X75749373Y-144724361D02*
X75701754Y-144819600D01*
X75701754Y-144819600D02*
X75606516Y-144867219D01*
X75606516Y-144867219D02*
X75511278Y-144867219D01*
X75177944Y-144200552D02*
X75177944Y-145200552D01*
X75177944Y-144248171D02*
X75082706Y-144200552D01*
X75082706Y-144200552D02*
X74892230Y-144200552D01*
X74892230Y-144200552D02*
X74796992Y-144248171D01*
X74796992Y-144248171D02*
X74749373Y-144295790D01*
X74749373Y-144295790D02*
X74701754Y-144391028D01*
X74701754Y-144391028D02*
X74701754Y-144676742D01*
X74701754Y-144676742D02*
X74749373Y-144771980D01*
X74749373Y-144771980D02*
X74796992Y-144819600D01*
X74796992Y-144819600D02*
X74892230Y-144867219D01*
X74892230Y-144867219D02*
X75082706Y-144867219D01*
X75082706Y-144867219D02*
X75177944Y-144819600D01*
X74320801Y-144819600D02*
X74225563Y-144867219D01*
X74225563Y-144867219D02*
X74035087Y-144867219D01*
X74035087Y-144867219D02*
X73939849Y-144819600D01*
X73939849Y-144819600D02*
X73892230Y-144724361D01*
X73892230Y-144724361D02*
X73892230Y-144676742D01*
X73892230Y-144676742D02*
X73939849Y-144581504D01*
X73939849Y-144581504D02*
X74035087Y-144533885D01*
X74035087Y-144533885D02*
X74177944Y-144533885D01*
X74177944Y-144533885D02*
X74273182Y-144486266D01*
X74273182Y-144486266D02*
X74320801Y-144391028D01*
X74320801Y-144391028D02*
X74320801Y-144343409D01*
X74320801Y-144343409D02*
X74273182Y-144248171D01*
X74273182Y-144248171D02*
X74177944Y-144200552D01*
X74177944Y-144200552D02*
X74035087Y-144200552D01*
X74035087Y-144200552D02*
X73939849Y-144248171D01*
X73463658Y-144771980D02*
X73416039Y-144819600D01*
X73416039Y-144819600D02*
X73463658Y-144867219D01*
X73463658Y-144867219D02*
X73511277Y-144819600D01*
X73511277Y-144819600D02*
X73463658Y-144771980D01*
X73463658Y-144771980D02*
X73463658Y-144867219D01*
X73463658Y-144248171D02*
X73416039Y-144295790D01*
X73416039Y-144295790D02*
X73463658Y-144343409D01*
X73463658Y-144343409D02*
X73511277Y-144295790D01*
X73511277Y-144295790D02*
X73463658Y-144248171D01*
X73463658Y-144248171D02*
X73463658Y-144343409D01*
X72273183Y-143819600D02*
X73130325Y-145105314D01*
X71225564Y-143819600D02*
X72082706Y-145105314D01*
X70463659Y-144200552D02*
X70463659Y-145010076D01*
X70463659Y-145010076D02*
X70511278Y-145105314D01*
X70511278Y-145105314D02*
X70558897Y-145152933D01*
X70558897Y-145152933D02*
X70654135Y-145200552D01*
X70654135Y-145200552D02*
X70796992Y-145200552D01*
X70796992Y-145200552D02*
X70892230Y-145152933D01*
X70463659Y-144819600D02*
X70558897Y-144867219D01*
X70558897Y-144867219D02*
X70749373Y-144867219D01*
X70749373Y-144867219D02*
X70844611Y-144819600D01*
X70844611Y-144819600D02*
X70892230Y-144771980D01*
X70892230Y-144771980D02*
X70939849Y-144676742D01*
X70939849Y-144676742D02*
X70939849Y-144391028D01*
X70939849Y-144391028D02*
X70892230Y-144295790D01*
X70892230Y-144295790D02*
X70844611Y-144248171D01*
X70844611Y-144248171D02*
X70749373Y-144200552D01*
X70749373Y-144200552D02*
X70558897Y-144200552D01*
X70558897Y-144200552D02*
X70463659Y-144248171D01*
X69987468Y-144867219D02*
X69987468Y-144200552D01*
X69987468Y-143867219D02*
X70035087Y-143914838D01*
X70035087Y-143914838D02*
X69987468Y-143962457D01*
X69987468Y-143962457D02*
X69939849Y-143914838D01*
X69939849Y-143914838D02*
X69987468Y-143867219D01*
X69987468Y-143867219D02*
X69987468Y-143962457D01*
X69654135Y-144200552D02*
X69273183Y-144200552D01*
X69511278Y-143867219D02*
X69511278Y-144724361D01*
X69511278Y-144724361D02*
X69463659Y-144819600D01*
X69463659Y-144819600D02*
X69368421Y-144867219D01*
X69368421Y-144867219D02*
X69273183Y-144867219D01*
X68939849Y-144867219D02*
X68939849Y-143867219D01*
X68511278Y-144867219D02*
X68511278Y-144343409D01*
X68511278Y-144343409D02*
X68558897Y-144248171D01*
X68558897Y-144248171D02*
X68654135Y-144200552D01*
X68654135Y-144200552D02*
X68796992Y-144200552D01*
X68796992Y-144200552D02*
X68892230Y-144248171D01*
X68892230Y-144248171D02*
X68939849Y-144295790D01*
X67606516Y-144200552D02*
X67606516Y-144867219D01*
X68035087Y-144200552D02*
X68035087Y-144724361D01*
X68035087Y-144724361D02*
X67987468Y-144819600D01*
X67987468Y-144819600D02*
X67892230Y-144867219D01*
X67892230Y-144867219D02*
X67749373Y-144867219D01*
X67749373Y-144867219D02*
X67654135Y-144819600D01*
X67654135Y-144819600D02*
X67606516Y-144771980D01*
X67130325Y-144867219D02*
X67130325Y-143867219D01*
X67130325Y-144248171D02*
X67035087Y-144200552D01*
X67035087Y-144200552D02*
X66844611Y-144200552D01*
X66844611Y-144200552D02*
X66749373Y-144248171D01*
X66749373Y-144248171D02*
X66701754Y-144295790D01*
X66701754Y-144295790D02*
X66654135Y-144391028D01*
X66654135Y-144391028D02*
X66654135Y-144676742D01*
X66654135Y-144676742D02*
X66701754Y-144771980D01*
X66701754Y-144771980D02*
X66749373Y-144819600D01*
X66749373Y-144819600D02*
X66844611Y-144867219D01*
X66844611Y-144867219D02*
X67035087Y-144867219D01*
X67035087Y-144867219D02*
X67130325Y-144819600D01*
X66225563Y-144771980D02*
X66177944Y-144819600D01*
X66177944Y-144819600D02*
X66225563Y-144867219D01*
X66225563Y-144867219D02*
X66273182Y-144819600D01*
X66273182Y-144819600D02*
X66225563Y-144771980D01*
X66225563Y-144771980D02*
X66225563Y-144867219D01*
X65320802Y-144819600D02*
X65416040Y-144867219D01*
X65416040Y-144867219D02*
X65606516Y-144867219D01*
X65606516Y-144867219D02*
X65701754Y-144819600D01*
X65701754Y-144819600D02*
X65749373Y-144771980D01*
X65749373Y-144771980D02*
X65796992Y-144676742D01*
X65796992Y-144676742D02*
X65796992Y-144391028D01*
X65796992Y-144391028D02*
X65749373Y-144295790D01*
X65749373Y-144295790D02*
X65701754Y-144248171D01*
X65701754Y-144248171D02*
X65606516Y-144200552D01*
X65606516Y-144200552D02*
X65416040Y-144200552D01*
X65416040Y-144200552D02*
X65320802Y-144248171D01*
X64749373Y-144867219D02*
X64844611Y-144819600D01*
X64844611Y-144819600D02*
X64892230Y-144771980D01*
X64892230Y-144771980D02*
X64939849Y-144676742D01*
X64939849Y-144676742D02*
X64939849Y-144391028D01*
X64939849Y-144391028D02*
X64892230Y-144295790D01*
X64892230Y-144295790D02*
X64844611Y-144248171D01*
X64844611Y-144248171D02*
X64749373Y-144200552D01*
X64749373Y-144200552D02*
X64606516Y-144200552D01*
X64606516Y-144200552D02*
X64511278Y-144248171D01*
X64511278Y-144248171D02*
X64463659Y-144295790D01*
X64463659Y-144295790D02*
X64416040Y-144391028D01*
X64416040Y-144391028D02*
X64416040Y-144676742D01*
X64416040Y-144676742D02*
X64463659Y-144771980D01*
X64463659Y-144771980D02*
X64511278Y-144819600D01*
X64511278Y-144819600D02*
X64606516Y-144867219D01*
X64606516Y-144867219D02*
X64749373Y-144867219D01*
X63987468Y-144867219D02*
X63987468Y-144200552D01*
X63987468Y-144295790D02*
X63939849Y-144248171D01*
X63939849Y-144248171D02*
X63844611Y-144200552D01*
X63844611Y-144200552D02*
X63701754Y-144200552D01*
X63701754Y-144200552D02*
X63606516Y-144248171D01*
X63606516Y-144248171D02*
X63558897Y-144343409D01*
X63558897Y-144343409D02*
X63558897Y-144867219D01*
X63558897Y-144343409D02*
X63511278Y-144248171D01*
X63511278Y-144248171D02*
X63416040Y-144200552D01*
X63416040Y-144200552D02*
X63273183Y-144200552D01*
X63273183Y-144200552D02*
X63177944Y-144248171D01*
X63177944Y-144248171D02*
X63130325Y-144343409D01*
X63130325Y-144343409D02*
X63130325Y-144867219D01*
X61939850Y-143819600D02*
X62796992Y-145105314D01*
X61177945Y-144200552D02*
X61177945Y-145010076D01*
X61177945Y-145010076D02*
X61225564Y-145105314D01*
X61225564Y-145105314D02*
X61273183Y-145152933D01*
X61273183Y-145152933D02*
X61368421Y-145200552D01*
X61368421Y-145200552D02*
X61511278Y-145200552D01*
X61511278Y-145200552D02*
X61606516Y-145152933D01*
X61177945Y-144819600D02*
X61273183Y-144867219D01*
X61273183Y-144867219D02*
X61463659Y-144867219D01*
X61463659Y-144867219D02*
X61558897Y-144819600D01*
X61558897Y-144819600D02*
X61606516Y-144771980D01*
X61606516Y-144771980D02*
X61654135Y-144676742D01*
X61654135Y-144676742D02*
X61654135Y-144391028D01*
X61654135Y-144391028D02*
X61606516Y-144295790D01*
X61606516Y-144295790D02*
X61558897Y-144248171D01*
X61558897Y-144248171D02*
X61463659Y-144200552D01*
X61463659Y-144200552D02*
X61273183Y-144200552D01*
X61273183Y-144200552D02*
X61177945Y-144248171D01*
X60701754Y-144867219D02*
X60701754Y-144200552D01*
X60701754Y-143867219D02*
X60749373Y-143914838D01*
X60749373Y-143914838D02*
X60701754Y-143962457D01*
X60701754Y-143962457D02*
X60654135Y-143914838D01*
X60654135Y-143914838D02*
X60701754Y-143867219D01*
X60701754Y-143867219D02*
X60701754Y-143962457D01*
X59796993Y-144867219D02*
X59796993Y-144343409D01*
X59796993Y-144343409D02*
X59844612Y-144248171D01*
X59844612Y-144248171D02*
X59939850Y-144200552D01*
X59939850Y-144200552D02*
X60130326Y-144200552D01*
X60130326Y-144200552D02*
X60225564Y-144248171D01*
X59796993Y-144819600D02*
X59892231Y-144867219D01*
X59892231Y-144867219D02*
X60130326Y-144867219D01*
X60130326Y-144867219D02*
X60225564Y-144819600D01*
X60225564Y-144819600D02*
X60273183Y-144724361D01*
X60273183Y-144724361D02*
X60273183Y-144629123D01*
X60273183Y-144629123D02*
X60225564Y-144533885D01*
X60225564Y-144533885D02*
X60130326Y-144486266D01*
X60130326Y-144486266D02*
X59892231Y-144486266D01*
X59892231Y-144486266D02*
X59796993Y-144438647D01*
X59320802Y-144200552D02*
X59320802Y-144867219D01*
X59320802Y-144295790D02*
X59273183Y-144248171D01*
X59273183Y-144248171D02*
X59177945Y-144200552D01*
X59177945Y-144200552D02*
X59035088Y-144200552D01*
X59035088Y-144200552D02*
X58939850Y-144248171D01*
X58939850Y-144248171D02*
X58892231Y-144343409D01*
X58892231Y-144343409D02*
X58892231Y-144867219D01*
X58273183Y-144867219D02*
X58368421Y-144819600D01*
X58368421Y-144819600D02*
X58416040Y-144724361D01*
X58416040Y-144724361D02*
X58416040Y-143867219D01*
X57463659Y-144200552D02*
X57463659Y-144867219D01*
X57892230Y-144200552D02*
X57892230Y-144724361D01*
X57892230Y-144724361D02*
X57844611Y-144819600D01*
X57844611Y-144819600D02*
X57749373Y-144867219D01*
X57749373Y-144867219D02*
X57606516Y-144867219D01*
X57606516Y-144867219D02*
X57511278Y-144819600D01*
X57511278Y-144819600D02*
X57463659Y-144771980D01*
X56558897Y-144819600D02*
X56654135Y-144867219D01*
X56654135Y-144867219D02*
X56844611Y-144867219D01*
X56844611Y-144867219D02*
X56939849Y-144819600D01*
X56939849Y-144819600D02*
X56987468Y-144771980D01*
X56987468Y-144771980D02*
X57035087Y-144676742D01*
X57035087Y-144676742D02*
X57035087Y-144391028D01*
X57035087Y-144391028D02*
X56987468Y-144295790D01*
X56987468Y-144295790D02*
X56939849Y-144248171D01*
X56939849Y-144248171D02*
X56844611Y-144200552D01*
X56844611Y-144200552D02*
X56654135Y-144200552D01*
X56654135Y-144200552D02*
X56558897Y-144248171D01*
X55701754Y-144867219D02*
X55701754Y-144343409D01*
X55701754Y-144343409D02*
X55749373Y-144248171D01*
X55749373Y-144248171D02*
X55844611Y-144200552D01*
X55844611Y-144200552D02*
X56035087Y-144200552D01*
X56035087Y-144200552D02*
X56130325Y-144248171D01*
X55701754Y-144819600D02*
X55796992Y-144867219D01*
X55796992Y-144867219D02*
X56035087Y-144867219D01*
X56035087Y-144867219D02*
X56130325Y-144819600D01*
X56130325Y-144819600D02*
X56177944Y-144724361D01*
X56177944Y-144724361D02*
X56177944Y-144629123D01*
X56177944Y-144629123D02*
X56130325Y-144533885D01*
X56130325Y-144533885D02*
X56035087Y-144486266D01*
X56035087Y-144486266D02*
X55796992Y-144486266D01*
X55796992Y-144486266D02*
X55701754Y-144438647D01*
X55225563Y-144486266D02*
X54463659Y-144486266D01*
X53987468Y-144867219D02*
X53987468Y-144200552D01*
X53987468Y-144391028D02*
X53939849Y-144295790D01*
X53939849Y-144295790D02*
X53892230Y-144248171D01*
X53892230Y-144248171D02*
X53796992Y-144200552D01*
X53796992Y-144200552D02*
X53701754Y-144200552D01*
X52939849Y-144867219D02*
X52939849Y-144343409D01*
X52939849Y-144343409D02*
X52987468Y-144248171D01*
X52987468Y-144248171D02*
X53082706Y-144200552D01*
X53082706Y-144200552D02*
X53273182Y-144200552D01*
X53273182Y-144200552D02*
X53368420Y-144248171D01*
X52939849Y-144819600D02*
X53035087Y-144867219D01*
X53035087Y-144867219D02*
X53273182Y-144867219D01*
X53273182Y-144867219D02*
X53368420Y-144819600D01*
X53368420Y-144819600D02*
X53416039Y-144724361D01*
X53416039Y-144724361D02*
X53416039Y-144629123D01*
X53416039Y-144629123D02*
X53368420Y-144533885D01*
X53368420Y-144533885D02*
X53273182Y-144486266D01*
X53273182Y-144486266D02*
X53035087Y-144486266D01*
X53035087Y-144486266D02*
X52939849Y-144438647D01*
X52463658Y-144867219D02*
X52463658Y-144200552D01*
X52463658Y-143867219D02*
X52511277Y-143914838D01*
X52511277Y-143914838D02*
X52463658Y-143962457D01*
X52463658Y-143962457D02*
X52416039Y-143914838D01*
X52416039Y-143914838D02*
X52463658Y-143867219D01*
X52463658Y-143867219D02*
X52463658Y-143962457D01*
X51987468Y-144200552D02*
X51987468Y-144867219D01*
X51987468Y-144295790D02*
X51939849Y-144248171D01*
X51939849Y-144248171D02*
X51844611Y-144200552D01*
X51844611Y-144200552D02*
X51701754Y-144200552D01*
X51701754Y-144200552D02*
X51606516Y-144248171D01*
X51606516Y-144248171D02*
X51558897Y-144343409D01*
X51558897Y-144343409D02*
X51558897Y-144867219D01*
X51082706Y-144867219D02*
X51082706Y-144200552D01*
X51082706Y-143867219D02*
X51130325Y-143914838D01*
X51130325Y-143914838D02*
X51082706Y-143962457D01*
X51082706Y-143962457D02*
X51035087Y-143914838D01*
X51035087Y-143914838D02*
X51082706Y-143867219D01*
X51082706Y-143867219D02*
X51082706Y-143962457D01*
X50654135Y-144819600D02*
X50558897Y-144867219D01*
X50558897Y-144867219D02*
X50368421Y-144867219D01*
X50368421Y-144867219D02*
X50273183Y-144819600D01*
X50273183Y-144819600D02*
X50225564Y-144724361D01*
X50225564Y-144724361D02*
X50225564Y-144676742D01*
X50225564Y-144676742D02*
X50273183Y-144581504D01*
X50273183Y-144581504D02*
X50368421Y-144533885D01*
X50368421Y-144533885D02*
X50511278Y-144533885D01*
X50511278Y-144533885D02*
X50606516Y-144486266D01*
X50606516Y-144486266D02*
X50654135Y-144391028D01*
X50654135Y-144391028D02*
X50654135Y-144343409D01*
X50654135Y-144343409D02*
X50606516Y-144248171D01*
X50606516Y-144248171D02*
X50511278Y-144200552D01*
X50511278Y-144200552D02*
X50368421Y-144200552D01*
X50368421Y-144200552D02*
X50273183Y-144248171D01*
X49082707Y-143819600D02*
X49939849Y-145105314D01*
X48844611Y-143867219D02*
X48177945Y-143867219D01*
X48177945Y-143867219D02*
X48844611Y-144867219D01*
X48844611Y-144867219D02*
X48177945Y-144867219D01*
X47654135Y-144295790D02*
X47749373Y-144248171D01*
X47749373Y-144248171D02*
X47796992Y-144200552D01*
X47796992Y-144200552D02*
X47844611Y-144105314D01*
X47844611Y-144105314D02*
X47844611Y-144057695D01*
X47844611Y-144057695D02*
X47796992Y-143962457D01*
X47796992Y-143962457D02*
X47749373Y-143914838D01*
X47749373Y-143914838D02*
X47654135Y-143867219D01*
X47654135Y-143867219D02*
X47463659Y-143867219D01*
X47463659Y-143867219D02*
X47368421Y-143914838D01*
X47368421Y-143914838D02*
X47320802Y-143962457D01*
X47320802Y-143962457D02*
X47273183Y-144057695D01*
X47273183Y-144057695D02*
X47273183Y-144105314D01*
X47273183Y-144105314D02*
X47320802Y-144200552D01*
X47320802Y-144200552D02*
X47368421Y-144248171D01*
X47368421Y-144248171D02*
X47463659Y-144295790D01*
X47463659Y-144295790D02*
X47654135Y-144295790D01*
X47654135Y-144295790D02*
X47749373Y-144343409D01*
X47749373Y-144343409D02*
X47796992Y-144391028D01*
X47796992Y-144391028D02*
X47844611Y-144486266D01*
X47844611Y-144486266D02*
X47844611Y-144676742D01*
X47844611Y-144676742D02*
X47796992Y-144771980D01*
X47796992Y-144771980D02*
X47749373Y-144819600D01*
X47749373Y-144819600D02*
X47654135Y-144867219D01*
X47654135Y-144867219D02*
X47463659Y-144867219D01*
X47463659Y-144867219D02*
X47368421Y-144819600D01*
X47368421Y-144819600D02*
X47320802Y-144771980D01*
X47320802Y-144771980D02*
X47273183Y-144676742D01*
X47273183Y-144676742D02*
X47273183Y-144486266D01*
X47273183Y-144486266D02*
X47320802Y-144391028D01*
X47320802Y-144391028D02*
X47368421Y-144343409D01*
X47368421Y-144343409D02*
X47463659Y-144295790D01*
X46654135Y-143867219D02*
X46558897Y-143867219D01*
X46558897Y-143867219D02*
X46463659Y-143914838D01*
X46463659Y-143914838D02*
X46416040Y-143962457D01*
X46416040Y-143962457D02*
X46368421Y-144057695D01*
X46368421Y-144057695D02*
X46320802Y-144248171D01*
X46320802Y-144248171D02*
X46320802Y-144486266D01*
X46320802Y-144486266D02*
X46368421Y-144676742D01*
X46368421Y-144676742D02*
X46416040Y-144771980D01*
X46416040Y-144771980D02*
X46463659Y-144819600D01*
X46463659Y-144819600D02*
X46558897Y-144867219D01*
X46558897Y-144867219D02*
X46654135Y-144867219D01*
X46654135Y-144867219D02*
X46749373Y-144819600D01*
X46749373Y-144819600D02*
X46796992Y-144771980D01*
X46796992Y-144771980D02*
X46844611Y-144676742D01*
X46844611Y-144676742D02*
X46892230Y-144486266D01*
X46892230Y-144486266D02*
X46892230Y-144248171D01*
X46892230Y-144248171D02*
X46844611Y-144057695D01*
X46844611Y-144057695D02*
X46796992Y-143962457D01*
X46796992Y-143962457D02*
X46749373Y-143914838D01*
X46749373Y-143914838D02*
X46654135Y-143867219D01*
X45892230Y-144867219D02*
X45892230Y-143867219D01*
X45892230Y-143867219D02*
X45654135Y-143867219D01*
X45654135Y-143867219D02*
X45511278Y-143914838D01*
X45511278Y-143914838D02*
X45416040Y-144010076D01*
X45416040Y-144010076D02*
X45368421Y-144105314D01*
X45368421Y-144105314D02*
X45320802Y-144295790D01*
X45320802Y-144295790D02*
X45320802Y-144438647D01*
X45320802Y-144438647D02*
X45368421Y-144629123D01*
X45368421Y-144629123D02*
X45416040Y-144724361D01*
X45416040Y-144724361D02*
X45511278Y-144819600D01*
X45511278Y-144819600D02*
X45654135Y-144867219D01*
X45654135Y-144867219D02*
X45892230Y-144867219D01*
X44511278Y-144819600D02*
X44606516Y-144867219D01*
X44606516Y-144867219D02*
X44796992Y-144867219D01*
X44796992Y-144867219D02*
X44892230Y-144819600D01*
X44892230Y-144819600D02*
X44939849Y-144724361D01*
X44939849Y-144724361D02*
X44939849Y-144343409D01*
X44939849Y-144343409D02*
X44892230Y-144248171D01*
X44892230Y-144248171D02*
X44796992Y-144200552D01*
X44796992Y-144200552D02*
X44606516Y-144200552D01*
X44606516Y-144200552D02*
X44511278Y-144248171D01*
X44511278Y-144248171D02*
X44463659Y-144343409D01*
X44463659Y-144343409D02*
X44463659Y-144438647D01*
X44463659Y-144438647D02*
X44939849Y-144533885D01*
X44130325Y-144200552D02*
X43892230Y-144867219D01*
X43892230Y-144867219D02*
X43654135Y-144200552D01*
X42939849Y-144343409D02*
X42796992Y-144391028D01*
X42796992Y-144391028D02*
X42749373Y-144438647D01*
X42749373Y-144438647D02*
X42701754Y-144533885D01*
X42701754Y-144533885D02*
X42701754Y-144676742D01*
X42701754Y-144676742D02*
X42749373Y-144771980D01*
X42749373Y-144771980D02*
X42796992Y-144819600D01*
X42796992Y-144819600D02*
X42892230Y-144867219D01*
X42892230Y-144867219D02*
X43273182Y-144867219D01*
X43273182Y-144867219D02*
X43273182Y-143867219D01*
X43273182Y-143867219D02*
X42939849Y-143867219D01*
X42939849Y-143867219D02*
X42844611Y-143914838D01*
X42844611Y-143914838D02*
X42796992Y-143962457D01*
X42796992Y-143962457D02*
X42749373Y-144057695D01*
X42749373Y-144057695D02*
X42749373Y-144152933D01*
X42749373Y-144152933D02*
X42796992Y-144248171D01*
X42796992Y-144248171D02*
X42844611Y-144295790D01*
X42844611Y-144295790D02*
X42939849Y-144343409D01*
X42939849Y-144343409D02*
X43273182Y-144343409D01*
X42130325Y-144867219D02*
X42225563Y-144819600D01*
X42225563Y-144819600D02*
X42273182Y-144771980D01*
X42273182Y-144771980D02*
X42320801Y-144676742D01*
X42320801Y-144676742D02*
X42320801Y-144391028D01*
X42320801Y-144391028D02*
X42273182Y-144295790D01*
X42273182Y-144295790D02*
X42225563Y-144248171D01*
X42225563Y-144248171D02*
X42130325Y-144200552D01*
X42130325Y-144200552D02*
X41987468Y-144200552D01*
X41987468Y-144200552D02*
X41892230Y-144248171D01*
X41892230Y-144248171D02*
X41844611Y-144295790D01*
X41844611Y-144295790D02*
X41796992Y-144391028D01*
X41796992Y-144391028D02*
X41796992Y-144676742D01*
X41796992Y-144676742D02*
X41844611Y-144771980D01*
X41844611Y-144771980D02*
X41892230Y-144819600D01*
X41892230Y-144819600D02*
X41987468Y-144867219D01*
X41987468Y-144867219D02*
X42130325Y-144867219D01*
X40939849Y-144867219D02*
X40939849Y-144343409D01*
X40939849Y-144343409D02*
X40987468Y-144248171D01*
X40987468Y-144248171D02*
X41082706Y-144200552D01*
X41082706Y-144200552D02*
X41273182Y-144200552D01*
X41273182Y-144200552D02*
X41368420Y-144248171D01*
X40939849Y-144819600D02*
X41035087Y-144867219D01*
X41035087Y-144867219D02*
X41273182Y-144867219D01*
X41273182Y-144867219D02*
X41368420Y-144819600D01*
X41368420Y-144819600D02*
X41416039Y-144724361D01*
X41416039Y-144724361D02*
X41416039Y-144629123D01*
X41416039Y-144629123D02*
X41368420Y-144533885D01*
X41368420Y-144533885D02*
X41273182Y-144486266D01*
X41273182Y-144486266D02*
X41035087Y-144486266D01*
X41035087Y-144486266D02*
X40939849Y-144438647D01*
X40463658Y-144867219D02*
X40463658Y-144200552D01*
X40463658Y-144391028D02*
X40416039Y-144295790D01*
X40416039Y-144295790D02*
X40368420Y-144248171D01*
X40368420Y-144248171D02*
X40273182Y-144200552D01*
X40273182Y-144200552D02*
X40177944Y-144200552D01*
X39416039Y-144867219D02*
X39416039Y-143867219D01*
X39416039Y-144819600D02*
X39511277Y-144867219D01*
X39511277Y-144867219D02*
X39701753Y-144867219D01*
X39701753Y-144867219D02*
X39796991Y-144819600D01*
X39796991Y-144819600D02*
X39844610Y-144771980D01*
X39844610Y-144771980D02*
X39892229Y-144676742D01*
X39892229Y-144676742D02*
X39892229Y-144391028D01*
X39892229Y-144391028D02*
X39844610Y-144295790D01*
X39844610Y-144295790D02*
X39796991Y-144248171D01*
X39796991Y-144248171D02*
X39701753Y-144200552D01*
X39701753Y-144200552D02*
X39511277Y-144200552D01*
X39511277Y-144200552D02*
X39416039Y-144248171D01*
D11*
%TO.C,G\u002A\u002A\u002A*%
G36*
X249745632Y-142949302D02*
G01*
X249779255Y-142961159D01*
X249781885Y-142984208D01*
X249755671Y-143020780D01*
X249724188Y-143044335D01*
X249672480Y-143050551D01*
X249621414Y-143023883D01*
X249592763Y-142991451D01*
X249590850Y-142965783D01*
X249622019Y-142951008D01*
X249686991Y-142946272D01*
X249745632Y-142949302D01*
G37*
G36*
X253428440Y-142940497D02*
G01*
X253442986Y-142971569D01*
X253428926Y-143009017D01*
X253414755Y-143023461D01*
X253393390Y-143035583D01*
X253393321Y-143035583D01*
X253367261Y-143020700D01*
X253348062Y-142988067D01*
X253346176Y-142955431D01*
X253358762Y-142939984D01*
X253393390Y-142928410D01*
X253428440Y-142940497D01*
G37*
G36*
X253655752Y-144232404D02*
G01*
X253704181Y-144235424D01*
X253727034Y-144245287D01*
X253732771Y-144265095D01*
X253731663Y-144283340D01*
X253725323Y-144305285D01*
X253719408Y-144307551D01*
X253686386Y-144311746D01*
X253636012Y-144313971D01*
X253615335Y-144314131D01*
X253575070Y-144311077D01*
X253557812Y-144299167D01*
X253554150Y-144273782D01*
X253554874Y-144259157D01*
X253563825Y-144241460D01*
X253590333Y-144233925D01*
X253643460Y-144232348D01*
X253655752Y-144232404D01*
G37*
G36*
X249124332Y-144222231D02*
G01*
X249124332Y-144428832D01*
X248981435Y-144428832D01*
X248921213Y-144428561D01*
X248874109Y-144426238D01*
X248849488Y-144419585D01*
X248840061Y-144406324D01*
X248838538Y-144384177D01*
X248839334Y-144366651D01*
X248848191Y-144348499D01*
X248874408Y-144340996D01*
X248927153Y-144339521D01*
X249015769Y-144339521D01*
X249020930Y-144183227D01*
X249021248Y-144173607D01*
X249024123Y-144102162D01*
X249028537Y-144058428D01*
X249036910Y-144035183D01*
X249051661Y-144025208D01*
X249075212Y-144021281D01*
X249124332Y-144015629D01*
X249124332Y-144222231D01*
G37*
G36*
X250273964Y-142981756D02*
G01*
X250231900Y-143026532D01*
X250212872Y-143045836D01*
X250180206Y-143067392D01*
X250150394Y-143060217D01*
X250111725Y-143024070D01*
X250067947Y-142976832D01*
X250072768Y-142972011D01*
X250142476Y-142972011D01*
X250143772Y-142982983D01*
X250158314Y-143007539D01*
X250163428Y-143009400D01*
X250185868Y-143000780D01*
X250203085Y-142978645D01*
X250201862Y-142958025D01*
X250183951Y-142947643D01*
X250155796Y-142950371D01*
X250142476Y-142972011D01*
X250072768Y-142972011D01*
X250119350Y-142925430D01*
X250170753Y-142874027D01*
X250222359Y-142927891D01*
X250270984Y-142978645D01*
X250273964Y-142981756D01*
G37*
G36*
X249277240Y-142990773D02*
G01*
X249246254Y-143029966D01*
X249228342Y-143048493D01*
X249201340Y-143067480D01*
X249176910Y-143060302D01*
X249142082Y-143026532D01*
X249100017Y-142981756D01*
X249110263Y-142971061D01*
X249165939Y-142971061D01*
X249168026Y-142998302D01*
X249172872Y-143004709D01*
X249195781Y-143017721D01*
X249212632Y-143012070D01*
X249225660Y-142987172D01*
X249215659Y-142959006D01*
X249210760Y-142954992D01*
X249184838Y-142952785D01*
X249165939Y-142971061D01*
X249110263Y-142971061D01*
X249150572Y-142928988D01*
X249201127Y-142876219D01*
X249242801Y-142915711D01*
X249253403Y-142926000D01*
X249279754Y-142960473D01*
X249277539Y-142987172D01*
X249277240Y-142990773D01*
G37*
G36*
X253957118Y-143027526D02*
G01*
X253935663Y-143051037D01*
X253887493Y-143071357D01*
X253836828Y-143064667D01*
X253796310Y-143030717D01*
X253779725Y-142984979D01*
X253782112Y-142971061D01*
X253845827Y-142971061D01*
X253847913Y-142998302D01*
X253852760Y-143004709D01*
X253875669Y-143017721D01*
X253892519Y-143012070D01*
X253905548Y-142987172D01*
X253895547Y-142959006D01*
X253890647Y-142954992D01*
X253864725Y-142952785D01*
X253845827Y-142971061D01*
X253782112Y-142971061D01*
X253788116Y-142936044D01*
X253818755Y-142898231D01*
X253864602Y-142879712D01*
X253918622Y-142888660D01*
X253961838Y-142923451D01*
X253975992Y-142972633D01*
X253970993Y-142987172D01*
X253957118Y-143027526D01*
G37*
G36*
X252998984Y-143008121D02*
G01*
X252978988Y-143049873D01*
X252970926Y-143056380D01*
X252926136Y-143070030D01*
X252873841Y-143065379D01*
X252832008Y-143043238D01*
X252816520Y-143022169D01*
X252807155Y-142973697D01*
X252807836Y-142971607D01*
X252866678Y-142971607D01*
X252881191Y-142997263D01*
X252904106Y-143008320D01*
X252928616Y-142991359D01*
X252929420Y-142990384D01*
X252940665Y-142967269D01*
X252920854Y-142953043D01*
X252903023Y-142949620D01*
X252873430Y-142958947D01*
X252866678Y-142971607D01*
X252807836Y-142971607D01*
X252822740Y-142925875D01*
X252858389Y-142889363D01*
X252909214Y-142874823D01*
X252935822Y-142880639D01*
X252972568Y-142911377D01*
X252995233Y-142957913D01*
X252995932Y-142967269D01*
X252998984Y-143008121D01*
G37*
G36*
X251591376Y-144045589D02*
G01*
X251642993Y-144095633D01*
X251671394Y-144169270D01*
X251673738Y-144263314D01*
X251671490Y-144280346D01*
X251653004Y-144343151D01*
X251616866Y-144388053D01*
X251613215Y-144391071D01*
X251565265Y-144416226D01*
X251509606Y-144426989D01*
X251454747Y-144424653D01*
X251409197Y-144410514D01*
X251381465Y-144385866D01*
X251380061Y-144352007D01*
X251385534Y-144342049D01*
X251409485Y-144330800D01*
X251457090Y-144334333D01*
X251481502Y-144337495D01*
X251521408Y-144333892D01*
X251547334Y-144312086D01*
X251566625Y-144264541D01*
X251569529Y-144200449D01*
X251552959Y-144141863D01*
X251551578Y-144139446D01*
X251518055Y-144113436D01*
X251472801Y-144108919D01*
X251432979Y-144127892D01*
X251428188Y-144132088D01*
X251410074Y-144132158D01*
X251390781Y-144101024D01*
X251379576Y-144072797D01*
X251380194Y-144047532D01*
X251405062Y-144033226D01*
X251459894Y-144023469D01*
X251519383Y-144022324D01*
X251591376Y-144045589D01*
G37*
G36*
X248030112Y-144021281D02*
G01*
X248036279Y-144022075D01*
X248060550Y-144029466D01*
X248077607Y-144048348D01*
X248092189Y-144086566D01*
X248109034Y-144151968D01*
X248110503Y-144158096D01*
X248125304Y-144219597D01*
X248136422Y-144265382D01*
X248141548Y-144285935D01*
X248142235Y-144285933D01*
X248150160Y-144266578D01*
X248164649Y-144222393D01*
X248183195Y-144160899D01*
X248192813Y-144128424D01*
X248211314Y-144073036D01*
X248227779Y-144041642D01*
X248247041Y-144026792D01*
X248273933Y-144021038D01*
X248308289Y-144019617D01*
X248319533Y-144033071D01*
X248314326Y-144071374D01*
X248312008Y-144081992D01*
X248298879Y-144133374D01*
X248279389Y-144203091D01*
X248256836Y-144279214D01*
X248210593Y-144430823D01*
X248146406Y-144425362D01*
X248082219Y-144419901D01*
X248032262Y-144241279D01*
X248025792Y-144218127D01*
X248002534Y-144133144D01*
X247988935Y-144076078D01*
X247984946Y-144041644D01*
X247990513Y-144024558D01*
X248005586Y-144019532D01*
X248030112Y-144021281D01*
G37*
G36*
X253939460Y-144018009D02*
G01*
X253962661Y-144021028D01*
X253975823Y-144035176D01*
X253982553Y-144068649D01*
X253986455Y-144129641D01*
X253991773Y-144241279D01*
X254050623Y-144128568D01*
X254062069Y-144106795D01*
X254090468Y-144056843D01*
X254112623Y-144030347D01*
X254135666Y-144020725D01*
X254166727Y-144021395D01*
X254223981Y-144026933D01*
X254227890Y-144205555D01*
X254228660Y-144255235D01*
X254228550Y-144326584D01*
X254226934Y-144379963D01*
X254223985Y-144406504D01*
X254207981Y-144421018D01*
X254170955Y-144428832D01*
X254160858Y-144428694D01*
X254141016Y-144424428D01*
X254130467Y-144408218D01*
X254126204Y-144372139D01*
X254125221Y-144308262D01*
X254124703Y-144187693D01*
X254060393Y-144308262D01*
X254055889Y-144316678D01*
X254022431Y-144375666D01*
X253996991Y-144409611D01*
X253973229Y-144425129D01*
X253944807Y-144428832D01*
X253893531Y-144428832D01*
X253893531Y-144223417D01*
X253893531Y-144018002D01*
X253937334Y-144018002D01*
X253939460Y-144018009D01*
G37*
G36*
X255050791Y-144204283D02*
G01*
X255051820Y-144252530D01*
X255051857Y-144324426D01*
X255049995Y-144378745D01*
X255046427Y-144406429D01*
X255029673Y-144421597D01*
X254987690Y-144425563D01*
X254959371Y-144419937D01*
X254943886Y-144402316D01*
X254944279Y-144361849D01*
X254945131Y-144353015D01*
X254944629Y-144319242D01*
X254927984Y-144306051D01*
X254885415Y-144303797D01*
X254835620Y-144296857D01*
X254778383Y-144265046D01*
X254744301Y-144213137D01*
X254742243Y-144186308D01*
X254846154Y-144186308D01*
X254863927Y-144204521D01*
X254902183Y-144214486D01*
X254911835Y-144214233D01*
X254940267Y-144203509D01*
X254947399Y-144169270D01*
X254946997Y-144160565D01*
X254931168Y-144123088D01*
X254899789Y-144111397D01*
X254863191Y-144130279D01*
X254848781Y-144152356D01*
X254846154Y-144186308D01*
X254742243Y-144186308D01*
X254739260Y-144147428D01*
X254742299Y-144130659D01*
X254760002Y-144078517D01*
X254791820Y-144046854D01*
X254844729Y-144031162D01*
X254925702Y-144026933D01*
X255045641Y-144026933D01*
X255049774Y-144169270D01*
X255050791Y-144204283D01*
G37*
G36*
X252961177Y-144261476D02*
G01*
X252941100Y-144337719D01*
X252899108Y-144392334D01*
X252881459Y-144404642D01*
X252812231Y-144428304D01*
X252741652Y-144418778D01*
X252677530Y-144376619D01*
X252666408Y-144365139D01*
X252640135Y-144329501D01*
X252628160Y-144288138D01*
X252626931Y-144261340D01*
X252733285Y-144261340D01*
X252743332Y-144311267D01*
X252759638Y-144328983D01*
X252796919Y-144339521D01*
X252797220Y-144339521D01*
X252820757Y-144336944D01*
X252833468Y-144323694D01*
X252838666Y-144291424D01*
X252839663Y-144231787D01*
X252836290Y-144171736D01*
X252821782Y-144122640D01*
X252795982Y-144107110D01*
X252759056Y-144125364D01*
X252743585Y-144152669D01*
X252733788Y-144203517D01*
X252733285Y-144261340D01*
X252626931Y-144261340D01*
X252625317Y-144226162D01*
X252628641Y-144163244D01*
X252642476Y-144115670D01*
X252671560Y-144072959D01*
X252698035Y-144047324D01*
X252758686Y-144018542D01*
X252822418Y-144018716D01*
X252881678Y-144045333D01*
X252928914Y-144095877D01*
X252956571Y-144167835D01*
X252957272Y-144171680D01*
X252959886Y-144231787D01*
X252961177Y-144261476D01*
G37*
G36*
X248737609Y-144283742D02*
G01*
X248714222Y-144352776D01*
X248672437Y-144401983D01*
X248657786Y-144410991D01*
X248592722Y-144429421D01*
X248525343Y-144422028D01*
X248466813Y-144391602D01*
X248428293Y-144340934D01*
X248416920Y-144302551D01*
X248410314Y-144230609D01*
X248410934Y-144223417D01*
X248525950Y-144223417D01*
X248526767Y-144275608D01*
X248531652Y-144312473D01*
X248543758Y-144329778D01*
X248566220Y-144336308D01*
X248592754Y-144335691D01*
X248613532Y-144317585D01*
X248622154Y-144275216D01*
X248620795Y-144203285D01*
X248618668Y-144174584D01*
X248611896Y-144136042D01*
X248597643Y-144119661D01*
X248570605Y-144116244D01*
X248569040Y-144116246D01*
X248544945Y-144118824D01*
X248532062Y-144131952D01*
X248526895Y-144164020D01*
X248525950Y-144223417D01*
X248410934Y-144223417D01*
X248416705Y-144156472D01*
X248434640Y-144092426D01*
X248462661Y-144050759D01*
X248494649Y-144031774D01*
X248561590Y-144017648D01*
X248630083Y-144027185D01*
X248685467Y-144059791D01*
X248693169Y-144068134D01*
X248727502Y-144130376D01*
X248742176Y-144205927D01*
X248738109Y-144275216D01*
X248737609Y-144283742D01*
G37*
G36*
X252477954Y-144021281D02*
G01*
X252490946Y-144022994D01*
X252511578Y-144030148D01*
X252523098Y-144048526D01*
X252528917Y-144086288D01*
X252532450Y-144151595D01*
X252533541Y-144180701D01*
X252533301Y-144261535D01*
X252525375Y-144318082D01*
X252507855Y-144358917D01*
X252478835Y-144392613D01*
X252455645Y-144409256D01*
X252392593Y-144427647D01*
X252323336Y-144421815D01*
X252261551Y-144391811D01*
X252259899Y-144390507D01*
X252238534Y-144371337D01*
X252225191Y-144349481D01*
X252217990Y-144316680D01*
X252215049Y-144264676D01*
X252214487Y-144185210D01*
X252214487Y-144015629D01*
X252263608Y-144021281D01*
X252266632Y-144021631D01*
X252289121Y-144025861D01*
X252303072Y-144036915D01*
X252310903Y-144062014D01*
X252315036Y-144108378D01*
X252317890Y-144183227D01*
X252320662Y-144254446D01*
X252324779Y-144302099D01*
X252332157Y-144327526D01*
X252344897Y-144337681D01*
X252365100Y-144339521D01*
X252387700Y-144336987D01*
X252408678Y-144322760D01*
X252421201Y-144290696D01*
X252427256Y-144234861D01*
X252428833Y-144149321D01*
X252428833Y-144015629D01*
X252477954Y-144021281D01*
G37*
G36*
X249867445Y-144024492D02*
G01*
X249924387Y-144050975D01*
X249965748Y-144091296D01*
X249981716Y-144141565D01*
X249970725Y-144189065D01*
X249931846Y-144231021D01*
X249861147Y-144267298D01*
X249854933Y-144269897D01*
X249818126Y-144292457D01*
X249803095Y-144314895D01*
X249803102Y-144315364D01*
X249818307Y-144332904D01*
X249853146Y-144339269D01*
X249893513Y-144334176D01*
X249925301Y-144317343D01*
X249945270Y-144304925D01*
X249964325Y-144321808D01*
X249978714Y-144355321D01*
X249976486Y-144394547D01*
X249950458Y-144416519D01*
X249879577Y-144428270D01*
X249802758Y-144423442D01*
X249742440Y-144400963D01*
X249701622Y-144365325D01*
X249683301Y-144321020D01*
X249690476Y-144272543D01*
X249726146Y-144224385D01*
X249793309Y-144181039D01*
X249805315Y-144175155D01*
X249849843Y-144145873D01*
X249862843Y-144123355D01*
X249847788Y-144111244D01*
X249808147Y-144113184D01*
X249747390Y-144132819D01*
X249743385Y-144134248D01*
X249718598Y-144128449D01*
X249705579Y-144102371D01*
X249707220Y-144068753D01*
X249726408Y-144040330D01*
X249746073Y-144028608D01*
X249804736Y-144015739D01*
X249867445Y-144024492D01*
G37*
G36*
X253235956Y-144021784D02*
G01*
X253297972Y-144046445D01*
X253341342Y-144088538D01*
X253357666Y-144141565D01*
X253356172Y-144161131D01*
X253338894Y-144201009D01*
X253297773Y-144236549D01*
X253227213Y-144273409D01*
X253210102Y-144281911D01*
X253177874Y-144304477D01*
X253170215Y-144321824D01*
X253184068Y-144332074D01*
X253222755Y-144338923D01*
X253266838Y-144334681D01*
X253298951Y-144319643D01*
X253325995Y-144308022D01*
X253348464Y-144325189D01*
X253357666Y-144366059D01*
X253352010Y-144393390D01*
X253326407Y-144416519D01*
X253277346Y-144424889D01*
X253195081Y-144422754D01*
X253125836Y-144402235D01*
X253084149Y-144371553D01*
X253060800Y-144325116D01*
X253068758Y-144274502D01*
X253106943Y-144224657D01*
X253174273Y-144180532D01*
X253218027Y-144156956D01*
X253239565Y-144136968D01*
X253234942Y-144120341D01*
X253231693Y-144117357D01*
X253204522Y-144108653D01*
X253159924Y-144120182D01*
X253126969Y-144130790D01*
X253104628Y-144127185D01*
X253090365Y-144101677D01*
X253086474Y-144088569D01*
X253093961Y-144050762D01*
X253132004Y-144026541D01*
X253197911Y-144018002D01*
X253235956Y-144021784D01*
G37*
G36*
X255480138Y-144320127D02*
G01*
X255438236Y-144386172D01*
X255398958Y-144414111D01*
X255331785Y-144430851D01*
X255263236Y-144419923D01*
X255205547Y-144381568D01*
X255192037Y-144365847D01*
X255172972Y-144332182D01*
X255163993Y-144287687D01*
X255161859Y-144223417D01*
X255277849Y-144223417D01*
X255278666Y-144275608D01*
X255283551Y-144312473D01*
X255295657Y-144329778D01*
X255318118Y-144336308D01*
X255344653Y-144335691D01*
X255365430Y-144317585D01*
X255374053Y-144275216D01*
X255372693Y-144203285D01*
X255370567Y-144174584D01*
X255363795Y-144136042D01*
X255349542Y-144119661D01*
X255322504Y-144116244D01*
X255320939Y-144116246D01*
X255296844Y-144118824D01*
X255283961Y-144131952D01*
X255278794Y-144164020D01*
X255277849Y-144223417D01*
X255161859Y-144223417D01*
X255161745Y-144219997D01*
X255162415Y-144175734D01*
X255167886Y-144125182D01*
X255181835Y-144090559D01*
X255207758Y-144059676D01*
X255241201Y-144031706D01*
X255278134Y-144020123D01*
X255332783Y-144022568D01*
X255369437Y-144027940D01*
X255425712Y-144047568D01*
X255460900Y-144084935D01*
X255484590Y-144147962D01*
X255495734Y-144236545D01*
X255488518Y-144275216D01*
X255480138Y-144320127D01*
G37*
G36*
X247873981Y-144223417D02*
G01*
X247873981Y-144428832D01*
X247731084Y-144428832D01*
X247670861Y-144428561D01*
X247623758Y-144426238D01*
X247599137Y-144419585D01*
X247589709Y-144406324D01*
X247588186Y-144384177D01*
X247589032Y-144366255D01*
X247598049Y-144348358D01*
X247624492Y-144340969D01*
X247677497Y-144339521D01*
X247698155Y-144339368D01*
X247742147Y-144335911D01*
X247762106Y-144325224D01*
X247766808Y-144303797D01*
X247766777Y-144301230D01*
X247760412Y-144280116D01*
X247736659Y-144270410D01*
X247686428Y-144268072D01*
X247664748Y-144267902D01*
X247625756Y-144264029D01*
X247609380Y-144250973D01*
X247606048Y-144223417D01*
X247606355Y-144211372D01*
X247613327Y-144189710D01*
X247636827Y-144180612D01*
X247686428Y-144178762D01*
X247692202Y-144178748D01*
X247739710Y-144175919D01*
X247761549Y-144165362D01*
X247766808Y-144143037D01*
X247766426Y-144134774D01*
X247757783Y-144117177D01*
X247731066Y-144109194D01*
X247677497Y-144107313D01*
X247641655Y-144106890D01*
X247605859Y-144102382D01*
X247591082Y-144089160D01*
X247588186Y-144062658D01*
X247589053Y-144043838D01*
X247596486Y-144029118D01*
X247617776Y-144021424D01*
X247660212Y-144018478D01*
X247731084Y-144018002D01*
X247873981Y-144018002D01*
X247873981Y-144223417D01*
G37*
G36*
X254625880Y-144223417D02*
G01*
X254625880Y-144428832D01*
X254482982Y-144428832D01*
X254422760Y-144428561D01*
X254375656Y-144426238D01*
X254351035Y-144419585D01*
X254341608Y-144406324D01*
X254340085Y-144384177D01*
X254340931Y-144366255D01*
X254349948Y-144348358D01*
X254376391Y-144340969D01*
X254429396Y-144339521D01*
X254450053Y-144339368D01*
X254494046Y-144335911D01*
X254514004Y-144325224D01*
X254518707Y-144303797D01*
X254518676Y-144301230D01*
X254512311Y-144280116D01*
X254488558Y-144270410D01*
X254438327Y-144268072D01*
X254416647Y-144267902D01*
X254377655Y-144264029D01*
X254361279Y-144250973D01*
X254357947Y-144223417D01*
X254358254Y-144211372D01*
X254365226Y-144189710D01*
X254388726Y-144180612D01*
X254438327Y-144178762D01*
X254444101Y-144178748D01*
X254491609Y-144175919D01*
X254513447Y-144165362D01*
X254518707Y-144143037D01*
X254518324Y-144134774D01*
X254509682Y-144117177D01*
X254482965Y-144109194D01*
X254429396Y-144107313D01*
X254393553Y-144106890D01*
X254357758Y-144102382D01*
X254342981Y-144089160D01*
X254340085Y-144062658D01*
X254340952Y-144043838D01*
X254348385Y-144029118D01*
X254369675Y-144021424D01*
X254412111Y-144018478D01*
X254482982Y-144018002D01*
X254625880Y-144018002D01*
X254625880Y-144223417D01*
G37*
G36*
X251249930Y-144223417D02*
G01*
X251249930Y-144428832D01*
X251107033Y-144428832D01*
X251046810Y-144428561D01*
X250999707Y-144426238D01*
X250975086Y-144419585D01*
X250965658Y-144406324D01*
X250964136Y-144384177D01*
X250964982Y-144366255D01*
X250973998Y-144348358D01*
X251000441Y-144340969D01*
X251053446Y-144339521D01*
X251071625Y-144339401D01*
X251116939Y-144336079D01*
X251137751Y-144325665D01*
X251142757Y-144304775D01*
X251142740Y-144303105D01*
X251135801Y-144281933D01*
X251110396Y-144270453D01*
X251057912Y-144264586D01*
X251050833Y-144264110D01*
X251001799Y-144257957D01*
X250978792Y-144245807D01*
X250973067Y-144223417D01*
X250973116Y-144220433D01*
X250980258Y-144199329D01*
X251005608Y-144188015D01*
X251057912Y-144182248D01*
X251061989Y-144181980D01*
X251112602Y-144175891D01*
X251136654Y-144163943D01*
X251142757Y-144142059D01*
X251142552Y-144136167D01*
X251134547Y-144117810D01*
X251108460Y-144109356D01*
X251055530Y-144107313D01*
X251054385Y-144107312D01*
X251000074Y-144104559D01*
X250971539Y-144094143D01*
X250959231Y-144072623D01*
X250955862Y-144051309D01*
X250960124Y-144027967D01*
X250962174Y-144026830D01*
X250990351Y-144022341D01*
X251042754Y-144019191D01*
X251110010Y-144018002D01*
X251249930Y-144018002D01*
X251249930Y-144223417D01*
G37*
G36*
X250331994Y-144018419D02*
G01*
X250376869Y-144021037D01*
X250400199Y-144027912D01*
X250409030Y-144041100D01*
X250410408Y-144062658D01*
X250407567Y-144084045D01*
X250383992Y-144108333D01*
X250334494Y-144109428D01*
X250327872Y-144123660D01*
X250322970Y-144164688D01*
X250321098Y-144223417D01*
X250321123Y-144242380D01*
X250322538Y-144296985D01*
X250328378Y-144325997D01*
X250341748Y-144337485D01*
X250365753Y-144339521D01*
X250373982Y-144339710D01*
X250403031Y-144350185D01*
X250410408Y-144384177D01*
X250409054Y-144405630D01*
X250400266Y-144418901D01*
X250376974Y-144425805D01*
X250332102Y-144428422D01*
X250258580Y-144428832D01*
X250187825Y-144428448D01*
X250141750Y-144425934D01*
X250117593Y-144419264D01*
X250108284Y-144406415D01*
X250106752Y-144385363D01*
X250107015Y-144376794D01*
X250118952Y-144347759D01*
X250155873Y-144336242D01*
X250159162Y-144335856D01*
X250185007Y-144330277D01*
X250198685Y-144315591D01*
X250204060Y-144282928D01*
X250204994Y-144223417D01*
X250204993Y-144219661D01*
X250203919Y-144161833D01*
X250198448Y-144130913D01*
X250185087Y-144118513D01*
X250160338Y-144116244D01*
X250150391Y-144115918D01*
X250121404Y-144103917D01*
X250110031Y-144067123D01*
X250104379Y-144018002D01*
X250257394Y-144018002D01*
X250258530Y-144018002D01*
X250331994Y-144018419D01*
G37*
G36*
X252103534Y-144204283D02*
G01*
X252104582Y-144252663D01*
X252104707Y-144324240D01*
X252102998Y-144378092D01*
X252099629Y-144405233D01*
X252082902Y-144420531D01*
X252045357Y-144428832D01*
X252018458Y-144425867D01*
X252003450Y-144408566D01*
X252000141Y-144366314D01*
X251994041Y-144320265D01*
X251976656Y-144303797D01*
X251971907Y-144304832D01*
X251948041Y-144326142D01*
X251923359Y-144366314D01*
X251907278Y-144395987D01*
X251879734Y-144422200D01*
X251839671Y-144428832D01*
X251817468Y-144427488D01*
X251790751Y-144414285D01*
X251791745Y-144384033D01*
X251819696Y-144333114D01*
X251823769Y-144326919D01*
X251842545Y-144293992D01*
X251841155Y-144272951D01*
X251819578Y-144248269D01*
X251814551Y-144242847D01*
X251789641Y-144189497D01*
X251789759Y-144185429D01*
X251903502Y-144185429D01*
X251919986Y-144203638D01*
X251957397Y-144214486D01*
X251974790Y-144213324D01*
X251995213Y-144199321D01*
X252000141Y-144160899D01*
X251999945Y-144150831D01*
X251991430Y-144116830D01*
X251966604Y-144107313D01*
X251931646Y-144116847D01*
X251904700Y-144146785D01*
X251903502Y-144185429D01*
X251789759Y-144185429D01*
X251791446Y-144127214D01*
X251819941Y-144069102D01*
X251838913Y-144049300D01*
X251866366Y-144035003D01*
X251908672Y-144028483D01*
X251976235Y-144026933D01*
X252098383Y-144026933D01*
X252102274Y-144160899D01*
X252103534Y-144204283D01*
G37*
G36*
X252191304Y-141918230D02*
G01*
X252162700Y-142043407D01*
X252152425Y-142070311D01*
X252093920Y-142184617D01*
X252010835Y-142307025D01*
X251908733Y-142430643D01*
X251793181Y-142548580D01*
X251669742Y-142653943D01*
X251598345Y-142708989D01*
X251696536Y-142760331D01*
X251741229Y-142783210D01*
X251898245Y-142854284D01*
X252038724Y-142901727D01*
X252121963Y-142924329D01*
X252140792Y-142849553D01*
X252147923Y-142825575D01*
X252192639Y-142733517D01*
X252258343Y-142647630D01*
X252334919Y-142581862D01*
X252338355Y-142579637D01*
X252384148Y-142551838D01*
X252427479Y-142531242D01*
X252473765Y-142517434D01*
X252528424Y-142510003D01*
X252596874Y-142508534D01*
X252684534Y-142512615D01*
X252796821Y-142521831D01*
X252939153Y-142535770D01*
X252977135Y-142539593D01*
X253111252Y-142552178D01*
X253226804Y-142560791D01*
X253331505Y-142565343D01*
X253433068Y-142565747D01*
X253539207Y-142561914D01*
X253657634Y-142553758D01*
X253796064Y-142541190D01*
X253962209Y-142524123D01*
X254036405Y-142516606D01*
X254143960Y-142508208D01*
X254227294Y-142506887D01*
X254293479Y-142513602D01*
X254349582Y-142529309D01*
X254402675Y-142554966D01*
X254459825Y-142591531D01*
X254495575Y-142620147D01*
X254562454Y-142696153D01*
X254614489Y-142784929D01*
X254642789Y-142872808D01*
X254646657Y-142894131D01*
X254658523Y-142924095D01*
X254684117Y-142939233D01*
X254734364Y-142948585D01*
X254846397Y-142975228D01*
X254898104Y-142997367D01*
X254984490Y-143034354D01*
X255115020Y-143117632D01*
X255228019Y-143219591D01*
X255280280Y-143284260D01*
X255345998Y-143390650D01*
X255398891Y-143505937D01*
X255434241Y-143619351D01*
X255447327Y-143720121D01*
X255447262Y-143726949D01*
X255440005Y-143759390D01*
X255417836Y-143764776D01*
X255401893Y-143754208D01*
X255382714Y-143715072D01*
X255364675Y-143643947D01*
X255351192Y-143586923D01*
X255292161Y-143430415D01*
X255206092Y-143295340D01*
X255094624Y-143183905D01*
X254959395Y-143098314D01*
X254942335Y-143090121D01*
X254860321Y-143055396D01*
X254783735Y-143029830D01*
X254719251Y-143015038D01*
X254673545Y-143012637D01*
X254653293Y-143024240D01*
X254651163Y-143031817D01*
X254598649Y-143169415D01*
X254528001Y-143276633D01*
X254438578Y-143354224D01*
X254329738Y-143402937D01*
X254314216Y-143407369D01*
X254275137Y-143416976D01*
X254237042Y-143422342D01*
X254192647Y-143423422D01*
X254134665Y-143420167D01*
X254055812Y-143412531D01*
X253948801Y-143400465D01*
X253884758Y-143393539D01*
X253536145Y-143371361D01*
X253180844Y-143373261D01*
X252835378Y-143399259D01*
X252797105Y-143403580D01*
X252699165Y-143414072D01*
X252627137Y-143420194D01*
X252573809Y-143421998D01*
X252531969Y-143419536D01*
X252494404Y-143412861D01*
X252453904Y-143402025D01*
X252372076Y-143368134D01*
X252275286Y-143297431D01*
X252198715Y-143203679D01*
X252148910Y-143093500D01*
X252118712Y-142991038D01*
X252201778Y-142991038D01*
X252214986Y-143064468D01*
X252260701Y-143172106D01*
X252335217Y-143258825D01*
X252437764Y-143323542D01*
X252456101Y-143331648D01*
X252502419Y-143349431D01*
X252531541Y-143356710D01*
X252539023Y-143349103D01*
X252544888Y-143322949D01*
X252549110Y-143274806D01*
X252551883Y-143201244D01*
X252553405Y-143098830D01*
X252553861Y-142966190D01*
X252625317Y-142966190D01*
X252625791Y-143099985D01*
X252627303Y-143201583D01*
X252630049Y-143274420D01*
X252634224Y-143321930D01*
X252640024Y-143347548D01*
X252647645Y-143354710D01*
X252666684Y-143352483D01*
X252715577Y-143346571D01*
X252784918Y-143338095D01*
X252866456Y-143328059D01*
X252882468Y-143326157D01*
X252980799Y-143316505D01*
X253098753Y-143307429D01*
X253222899Y-143299874D01*
X253339804Y-143294784D01*
X253616667Y-143285769D01*
X253621439Y-142964134D01*
X253679185Y-142964134D01*
X253679185Y-143300677D01*
X253728306Y-143310093D01*
X253733743Y-143311059D01*
X253780210Y-143317278D01*
X253847355Y-143324391D01*
X253922602Y-143331040D01*
X254067776Y-143342571D01*
X254067930Y-142964134D01*
X254125739Y-142964134D01*
X254125739Y-143357102D01*
X254170394Y-143357102D01*
X254215050Y-143357102D01*
X254215050Y-142964134D01*
X254286498Y-142964134D01*
X254286823Y-143073870D01*
X254288219Y-143178705D01*
X254290909Y-143254163D01*
X254295102Y-143303735D01*
X254301005Y-143330908D01*
X254308826Y-143339173D01*
X254337601Y-143331986D01*
X254388838Y-143303015D01*
X254445025Y-143258395D01*
X254496225Y-143205230D01*
X254501572Y-143198594D01*
X254556593Y-143102184D01*
X254580710Y-142997367D01*
X254575113Y-142890752D01*
X254540993Y-142788950D01*
X254479539Y-142698570D01*
X254391944Y-142626223D01*
X254377972Y-142617691D01*
X254347187Y-142600145D01*
X254324219Y-142592650D01*
X254307925Y-142598874D01*
X254297159Y-142622483D01*
X254290779Y-142667147D01*
X254287638Y-142736531D01*
X254286593Y-142834305D01*
X254286498Y-142964134D01*
X254215050Y-142964134D01*
X254215050Y-142571167D01*
X254170394Y-142571167D01*
X254125739Y-142571167D01*
X254125739Y-142585671D01*
X254125739Y-142964134D01*
X254067930Y-142964134D01*
X254067930Y-142964121D01*
X254068084Y-142585671D01*
X253922756Y-142597215D01*
X253908320Y-142598388D01*
X253833621Y-142605233D01*
X253769427Y-142612280D01*
X253728306Y-142618176D01*
X253679185Y-142627592D01*
X253679185Y-142633684D01*
X253679185Y-142964134D01*
X253621439Y-142964134D01*
X253621504Y-142959727D01*
X253626340Y-142633684D01*
X253380364Y-142631369D01*
X253271478Y-142628950D01*
X253071363Y-142618455D01*
X252872620Y-142601111D01*
X252692300Y-142578233D01*
X252625317Y-142568027D01*
X252625317Y-142962564D01*
X252625317Y-142964134D01*
X252625317Y-142966190D01*
X252553861Y-142966190D01*
X252553868Y-142964134D01*
X252553732Y-142911492D01*
X252552516Y-142802570D01*
X252550206Y-142708978D01*
X252546997Y-142635815D01*
X252543086Y-142588178D01*
X252538672Y-142571167D01*
X252536642Y-142571289D01*
X252507284Y-142577901D01*
X252462757Y-142591496D01*
X252394934Y-142622087D01*
X252308420Y-142690196D01*
X252244464Y-142778870D01*
X252207454Y-142881390D01*
X252201778Y-142991038D01*
X252118712Y-142991038D01*
X252117699Y-142987600D01*
X252016150Y-142966625D01*
X251972719Y-142954536D01*
X251897972Y-142927235D01*
X251811975Y-142890817D01*
X251725976Y-142849810D01*
X251537353Y-142753969D01*
X251344520Y-142850419D01*
X251273301Y-142884552D01*
X251186717Y-142922603D01*
X251132862Y-142943824D01*
X251109870Y-142952884D01*
X251053658Y-142970882D01*
X251005294Y-142983799D01*
X250969409Y-143000030D01*
X250949505Y-143024580D01*
X250935081Y-143065858D01*
X250913009Y-143131384D01*
X250866141Y-143221284D01*
X250800435Y-143297050D01*
X250764651Y-143328867D01*
X250706749Y-143370107D01*
X250645134Y-143398046D01*
X250573570Y-143413815D01*
X250485819Y-143418549D01*
X250375644Y-143413381D01*
X250236807Y-143399443D01*
X250127546Y-143388440D01*
X249876401Y-143373427D01*
X249616184Y-143370367D01*
X249361143Y-143379251D01*
X249125526Y-143400072D01*
X249019206Y-143412018D01*
X248920788Y-143419734D01*
X248844381Y-143420220D01*
X248782894Y-143413068D01*
X248729237Y-143397871D01*
X248676319Y-143374220D01*
X248610564Y-143330236D01*
X248540800Y-143261005D01*
X248482658Y-143180314D01*
X248442780Y-143097572D01*
X248427808Y-143022186D01*
X248425903Y-143010660D01*
X248414777Y-143002794D01*
X248387988Y-143002651D01*
X248339166Y-143010383D01*
X248261940Y-143026143D01*
X248237818Y-143031575D01*
X248100097Y-143078084D01*
X247978643Y-143149897D01*
X247864340Y-143252197D01*
X247779450Y-143356208D01*
X247702072Y-143499450D01*
X247655552Y-143659930D01*
X247645260Y-143705746D01*
X247628906Y-143751259D01*
X247612881Y-143767932D01*
X247610099Y-143767885D01*
X247589311Y-143761033D01*
X247580612Y-143738294D01*
X247583332Y-143693537D01*
X247596804Y-143620637D01*
X247617732Y-143539178D01*
X247684343Y-143379867D01*
X247779661Y-143240308D01*
X247901692Y-143123106D01*
X248048440Y-143030865D01*
X248071161Y-143019739D01*
X248139826Y-142989725D01*
X248206115Y-142968505D01*
X248282715Y-142952566D01*
X248347819Y-142943302D01*
X248493220Y-142943302D01*
X248503008Y-143045946D01*
X248539798Y-143144743D01*
X248603904Y-143234077D01*
X248695641Y-143308329D01*
X248741747Y-143330275D01*
X248798348Y-143347837D01*
X248856400Y-143359940D01*
X248856400Y-142965554D01*
X248856402Y-142962146D01*
X248909986Y-142962146D01*
X248909987Y-142966100D01*
X248910463Y-143099914D01*
X248911976Y-143201537D01*
X248914723Y-143274402D01*
X248918898Y-143321943D01*
X248924697Y-143347592D01*
X248932314Y-143354785D01*
X248950490Y-143352838D01*
X248999748Y-143347510D01*
X249073103Y-143339552D01*
X249164336Y-143329640D01*
X249267230Y-143318448D01*
X249405301Y-143305263D01*
X249538237Y-143296098D01*
X249654598Y-143291688D01*
X249745043Y-143292540D01*
X249910268Y-143300652D01*
X249910268Y-142960890D01*
X249910268Y-142627592D01*
X249981716Y-142627592D01*
X249981716Y-142963984D01*
X249981716Y-143300375D01*
X250048700Y-143310323D01*
X250091807Y-143316043D01*
X250162123Y-143324187D01*
X250236252Y-143331836D01*
X250356822Y-143343402D01*
X250356822Y-142964117D01*
X250356822Y-142962892D01*
X250428271Y-142962892D01*
X250428272Y-142964117D01*
X250428358Y-143078360D01*
X250428901Y-143178614D01*
X250430298Y-143251418D01*
X250432946Y-143301154D01*
X250437243Y-143332207D01*
X250443585Y-143348960D01*
X250452370Y-143355797D01*
X250463995Y-143357102D01*
X250484735Y-143355444D01*
X250500099Y-143348171D01*
X250500142Y-143345173D01*
X250500287Y-143314453D01*
X250500456Y-143255191D01*
X250500635Y-143172739D01*
X250500812Y-143072447D01*
X250500970Y-142964134D01*
X250571168Y-142964134D01*
X250571493Y-143073961D01*
X250572889Y-143178762D01*
X250575580Y-143254189D01*
X250579772Y-143303734D01*
X250585675Y-143330884D01*
X250593496Y-143339130D01*
X250613692Y-143335311D01*
X250662010Y-143314584D01*
X250716247Y-143282285D01*
X250763028Y-143245777D01*
X250773483Y-143235472D01*
X250831834Y-143151364D01*
X250865634Y-143051043D01*
X250873992Y-142943824D01*
X250856018Y-142839023D01*
X250810820Y-142745954D01*
X250769520Y-142695146D01*
X250710778Y-142640764D01*
X250652679Y-142603106D01*
X250604251Y-142589029D01*
X250598818Y-142589351D01*
X250589115Y-142593862D01*
X250581988Y-142607262D01*
X250577041Y-142634024D01*
X250573880Y-142678620D01*
X250572110Y-142745522D01*
X250571338Y-142839202D01*
X250571308Y-142861458D01*
X250571168Y-142964134D01*
X250500970Y-142964134D01*
X250500977Y-142959669D01*
X250501045Y-142861458D01*
X250500692Y-142759904D01*
X250499442Y-142686096D01*
X250496872Y-142635495D01*
X250492555Y-142603563D01*
X250486066Y-142585761D01*
X250476981Y-142577549D01*
X250464872Y-142574390D01*
X250453028Y-142573581D01*
X250444016Y-142578224D01*
X250437508Y-142592652D01*
X250433096Y-142621190D01*
X250430374Y-142668160D01*
X250428934Y-142737884D01*
X250428369Y-142834688D01*
X250428271Y-142962892D01*
X250356822Y-142962892D01*
X250356822Y-142584832D01*
X250218390Y-142596636D01*
X250210362Y-142597330D01*
X250136745Y-142604438D01*
X250072534Y-142611832D01*
X250030837Y-142618016D01*
X250014879Y-142621127D01*
X249981716Y-142627592D01*
X249910268Y-142627592D01*
X249910268Y-142621127D01*
X249789698Y-142632833D01*
X249754013Y-142634479D01*
X249679576Y-142633857D01*
X249582915Y-142630348D01*
X249471741Y-142624472D01*
X249353764Y-142616746D01*
X249236694Y-142607686D01*
X249128243Y-142597812D01*
X249036121Y-142587639D01*
X248968039Y-142577686D01*
X248909986Y-142567191D01*
X248909986Y-142861766D01*
X248909986Y-142962146D01*
X248856402Y-142962146D01*
X248856446Y-142861766D01*
X248856008Y-142753452D01*
X248853858Y-142674234D01*
X248848749Y-142620344D01*
X248839437Y-142588013D01*
X248824678Y-142573472D01*
X248803224Y-142572954D01*
X248773832Y-142582688D01*
X248735257Y-142598907D01*
X248717818Y-142606639D01*
X248622733Y-142668482D01*
X248553396Y-142748952D01*
X248510121Y-142842432D01*
X248493220Y-142943302D01*
X248347819Y-142943302D01*
X248382311Y-142938394D01*
X248396089Y-142934041D01*
X248419295Y-142906943D01*
X248438642Y-142850320D01*
X248442971Y-142834441D01*
X248494224Y-142719422D01*
X248575443Y-142623793D01*
X248686475Y-142547742D01*
X248721186Y-142532542D01*
X248772216Y-142519206D01*
X248836296Y-142511907D01*
X248917864Y-142510607D01*
X249021360Y-142515267D01*
X249151220Y-142525850D01*
X249311885Y-142542317D01*
X249413273Y-142552555D01*
X249541022Y-142562079D01*
X249662331Y-142566130D01*
X249785521Y-142564549D01*
X249918915Y-142557178D01*
X250070836Y-142543859D01*
X250249604Y-142524431D01*
X250263949Y-142522806D01*
X250359079Y-142513603D01*
X250446140Y-142507669D01*
X250516018Y-142505497D01*
X250559602Y-142507584D01*
X250592618Y-142514137D01*
X250706433Y-142558752D01*
X250803606Y-142632950D01*
X250880847Y-142733662D01*
X250934870Y-142857819D01*
X250955204Y-142924190D01*
X251053446Y-142899057D01*
X251082004Y-142890576D01*
X251153200Y-142864534D01*
X251236547Y-142829656D01*
X251319372Y-142791086D01*
X251331831Y-142784923D01*
X251401811Y-142749515D01*
X251444521Y-142725246D01*
X251464392Y-142708570D01*
X251465854Y-142695937D01*
X251453338Y-142683798D01*
X251389364Y-142635515D01*
X251244914Y-142510442D01*
X251121590Y-142379857D01*
X251021357Y-142246995D01*
X250946180Y-142115089D01*
X250898022Y-141987373D01*
X250882064Y-141887259D01*
X250950736Y-141887259D01*
X250970685Y-141985775D01*
X251020169Y-142105037D01*
X251094974Y-142230018D01*
X251191512Y-142355536D01*
X251306198Y-142476409D01*
X251435444Y-142587456D01*
X251484048Y-142623849D01*
X251522251Y-142650357D01*
X251540781Y-142660477D01*
X251548186Y-142656756D01*
X251578957Y-142635275D01*
X251626916Y-142598945D01*
X251685473Y-142552676D01*
X251816787Y-142435443D01*
X251927199Y-142312981D01*
X252014602Y-142189098D01*
X252077660Y-142066981D01*
X252115034Y-141949819D01*
X252125390Y-141840799D01*
X252107391Y-141743110D01*
X252059701Y-141659939D01*
X252049148Y-141647904D01*
X251965393Y-141580058D01*
X251870117Y-141544079D01*
X251768669Y-141541156D01*
X251666400Y-141572479D01*
X251621890Y-141595761D01*
X251595788Y-141619513D01*
X251594801Y-141648537D01*
X251614573Y-141692959D01*
X251615342Y-141694464D01*
X251636391Y-141747806D01*
X251652100Y-141807186D01*
X251656582Y-141840895D01*
X251656682Y-141841650D01*
X251649201Y-141880367D01*
X251618719Y-141918207D01*
X251568841Y-141954671D01*
X251517176Y-141959802D01*
X251462651Y-141930404D01*
X251444870Y-141911413D01*
X251424355Y-141854043D01*
X251425600Y-141836720D01*
X251492331Y-141836720D01*
X251494347Y-141867711D01*
X251497585Y-141873995D01*
X251525009Y-141890639D01*
X251559578Y-141887166D01*
X251583367Y-141864270D01*
X251585886Y-141840895D01*
X251580189Y-141797016D01*
X251567789Y-141749540D01*
X251552261Y-141711497D01*
X251537181Y-141695921D01*
X251525434Y-141707920D01*
X251511105Y-141743869D01*
X251498994Y-141791121D01*
X251492331Y-141836720D01*
X251425600Y-141836720D01*
X251429682Y-141779900D01*
X251460891Y-141694459D01*
X251496755Y-141621973D01*
X251440326Y-141587550D01*
X251412054Y-141572012D01*
X251315440Y-141541704D01*
X251219865Y-141542143D01*
X251130846Y-141569947D01*
X251053905Y-141621740D01*
X250994559Y-141694143D01*
X250958330Y-141783775D01*
X250950736Y-141887259D01*
X250882064Y-141887259D01*
X250878848Y-141867081D01*
X250890622Y-141757447D01*
X250908511Y-141706664D01*
X250965730Y-141615672D01*
X251045020Y-141545112D01*
X251139869Y-141497715D01*
X251243764Y-141476212D01*
X251350190Y-141483335D01*
X251452635Y-141521812D01*
X251539237Y-141570333D01*
X251613395Y-141527950D01*
X251711459Y-141484715D01*
X251810730Y-141471320D01*
X251916254Y-141489097D01*
X252014855Y-141532634D01*
X252098749Y-141603109D01*
X252157404Y-141693753D01*
X252188897Y-141800236D01*
X252189724Y-141840799D01*
X252191304Y-141918230D01*
G37*
G36*
X136271654Y-93509549D02*
G01*
X137077192Y-93663717D01*
X137686805Y-93959707D01*
X137928278Y-94322141D01*
X137837122Y-94416041D01*
X137347942Y-94535949D01*
X136577214Y-94582846D01*
X136264715Y-94580534D01*
X135599207Y-94528236D01*
X135297283Y-94366570D01*
X135226151Y-94042421D01*
X135236872Y-93886337D01*
X135453281Y-93582935D01*
X136054553Y-93501995D01*
X136271654Y-93509549D01*
G37*
G36*
X149863916Y-96651322D02*
G01*
X150039537Y-96843351D01*
X150336999Y-97597460D01*
X150239745Y-98397496D01*
X149757516Y-99026035D01*
X149458967Y-99194982D01*
X148463343Y-99428291D01*
X147405633Y-99332158D01*
X146537469Y-98915240D01*
X145899555Y-98383805D01*
X147115512Y-98370677D01*
X147942758Y-98325674D01*
X148639887Y-98128627D01*
X148949788Y-97721182D01*
X148953757Y-97044697D01*
X148933889Y-96885793D01*
X148984262Y-96333698D01*
X149294335Y-96255514D01*
X149863916Y-96651322D01*
G37*
G36*
X171093965Y-93558182D02*
G01*
X172094983Y-93611549D01*
X172784987Y-93705326D01*
X173142161Y-93862279D01*
X173275480Y-94109974D01*
X173287680Y-94200915D01*
X173218288Y-94402293D01*
X172911971Y-94517837D01*
X172267653Y-94570403D01*
X171184262Y-94582846D01*
X170546037Y-94580410D01*
X169708052Y-94551981D01*
X169243862Y-94469247D01*
X169044937Y-94304755D01*
X169002746Y-94031054D01*
X169009862Y-93879757D01*
X169109831Y-93664530D01*
X169416559Y-93555913D01*
X170040964Y-93528824D01*
X171093965Y-93558182D01*
G37*
G36*
X139841680Y-98367743D02*
G01*
X140911171Y-98393768D01*
X141565041Y-98460788D01*
X141892177Y-98582135D01*
X141981470Y-98771144D01*
X141968682Y-98855495D01*
X141795182Y-99015919D01*
X141348384Y-99113999D01*
X140539400Y-99163069D01*
X139279342Y-99176463D01*
X138717004Y-99174545D01*
X137647513Y-99148520D01*
X136993643Y-99081500D01*
X136666507Y-98960153D01*
X136577214Y-98771144D01*
X136590002Y-98686793D01*
X136763503Y-98526370D01*
X137210300Y-98428289D01*
X138019284Y-98379219D01*
X139279342Y-98365825D01*
X139841680Y-98367743D01*
G37*
G36*
X154776148Y-69425294D02*
G01*
X156127011Y-69479502D01*
X157287050Y-69573270D01*
X158142665Y-69706147D01*
X158580254Y-69877679D01*
X158849637Y-70282445D01*
X159010348Y-71103591D01*
X158856721Y-71936513D01*
X158404324Y-72545184D01*
X158063388Y-72712412D01*
X157515702Y-72835211D01*
X156686877Y-72913077D01*
X155490621Y-72953964D01*
X153840643Y-72965825D01*
X152804381Y-72963062D01*
X151507247Y-72942435D01*
X150598571Y-72892958D01*
X149984501Y-72804454D01*
X149571185Y-72666746D01*
X149264770Y-72469658D01*
X149066568Y-72266180D01*
X148722521Y-71488800D01*
X148700154Y-70596421D01*
X149022548Y-69839646D01*
X149135514Y-69763476D01*
X149736481Y-69613103D01*
X150714628Y-69504550D01*
X151956356Y-69437366D01*
X153348063Y-69411098D01*
X154776148Y-69425294D01*
G37*
G36*
X212924471Y-69463214D02*
G01*
X214250954Y-69512104D01*
X215175808Y-69624770D01*
X215770586Y-69826224D01*
X216106840Y-70141476D01*
X216256120Y-70595538D01*
X216289980Y-71213421D01*
X216175968Y-71937341D01*
X215689431Y-72545184D01*
X215358984Y-72708907D01*
X214815081Y-72833363D01*
X213991014Y-72912311D01*
X212800170Y-72953786D01*
X211155938Y-72965825D01*
X209726820Y-72956573D01*
X208303127Y-72903579D01*
X207295239Y-72780400D01*
X206633163Y-72561171D01*
X206246909Y-72220025D01*
X206066483Y-71731097D01*
X206021895Y-71068521D01*
X206024798Y-70888557D01*
X206162093Y-70138426D01*
X206544557Y-69732779D01*
X206669951Y-69689975D01*
X207315945Y-69595218D01*
X208361833Y-69520194D01*
X209707787Y-69470831D01*
X211253979Y-69453059D01*
X212924471Y-69463214D01*
G37*
G36*
X155050059Y-53787380D02*
G01*
X156545945Y-53835085D01*
X157615140Y-53948876D01*
X158326638Y-54152163D01*
X158749431Y-54468359D01*
X158952512Y-54920875D01*
X159004874Y-55533123D01*
X159004774Y-55553019D01*
X158877079Y-56310905D01*
X158580254Y-56868865D01*
X158453741Y-56945988D01*
X157825766Y-57101251D01*
X156827738Y-57217668D01*
X155573258Y-57294785D01*
X154175928Y-57332152D01*
X152749348Y-57329315D01*
X151407119Y-57285823D01*
X150262842Y-57201225D01*
X149430118Y-57075067D01*
X149022548Y-56906897D01*
X148865289Y-56665810D01*
X148669693Y-55831336D01*
X148810547Y-54951492D01*
X149264770Y-54276885D01*
X149446530Y-54147577D01*
X149807898Y-53988371D01*
X150334141Y-53882258D01*
X151119111Y-53819063D01*
X152256661Y-53788609D01*
X153840643Y-53780719D01*
X155050059Y-53787380D01*
G37*
G36*
X189328689Y-69453065D02*
G01*
X191100496Y-69465037D01*
X192405092Y-69516305D01*
X193313415Y-69631194D01*
X193896405Y-69834027D01*
X194224998Y-70149127D01*
X194370132Y-70600817D01*
X194402746Y-71213421D01*
X194288734Y-71937341D01*
X193802197Y-72545184D01*
X193471750Y-72708907D01*
X192927847Y-72833363D01*
X192103780Y-72912311D01*
X190912936Y-72953786D01*
X189268704Y-72965825D01*
X188114192Y-72959703D01*
X186610175Y-72912880D01*
X185534639Y-72799830D01*
X184818451Y-72596955D01*
X184392480Y-72280660D01*
X184187594Y-71827348D01*
X184134661Y-71213421D01*
X184134679Y-71192853D01*
X184169593Y-70585335D01*
X184319117Y-70138015D01*
X184654187Y-69826569D01*
X185245743Y-69626674D01*
X186164723Y-69514006D01*
X187482064Y-69464242D01*
X189268704Y-69453059D01*
X189328689Y-69453065D01*
G37*
G36*
X208871412Y-59578011D02*
G01*
X209360914Y-60215781D01*
X209494024Y-60987561D01*
X209114020Y-61826978D01*
X209028844Y-61943996D01*
X208885682Y-62087552D01*
X208669830Y-62199447D01*
X208322821Y-62283625D01*
X207786188Y-62344030D01*
X207001464Y-62384608D01*
X205910182Y-62409302D01*
X204453876Y-62422057D01*
X202574077Y-62426817D01*
X200212321Y-62427527D01*
X198559603Y-62427300D01*
X196530171Y-62424282D01*
X194943158Y-62414547D01*
X193740099Y-62394150D01*
X192862527Y-62359147D01*
X192251974Y-62305593D01*
X191849974Y-62229543D01*
X191598060Y-62127054D01*
X191437765Y-61994180D01*
X191310622Y-61826978D01*
X190963994Y-61140305D01*
X190998022Y-60362729D01*
X191553230Y-59578011D01*
X192216479Y-58914761D01*
X200212321Y-58914761D01*
X208208162Y-58914761D01*
X208871412Y-59578011D01*
G37*
G36*
X208994274Y-53789021D02*
G01*
X210440866Y-53840196D01*
X211467996Y-53960296D01*
X212145429Y-54174497D01*
X212542932Y-54507978D01*
X212730271Y-54985916D01*
X212777214Y-55633488D01*
X212774593Y-55764561D01*
X212667779Y-56498987D01*
X212452959Y-56969229D01*
X212402753Y-57006445D01*
X211934464Y-57135348D01*
X211023283Y-57224678D01*
X209637032Y-57276652D01*
X207743537Y-57293485D01*
X207493368Y-57293377D01*
X205749093Y-57279552D01*
X204466100Y-57225929D01*
X203574068Y-57108859D01*
X203002676Y-56904693D01*
X202681603Y-56589781D01*
X202540527Y-56140474D01*
X202509129Y-55533123D01*
X202527065Y-55139053D01*
X202664243Y-54625687D01*
X202995448Y-54258573D01*
X203589811Y-54014117D01*
X204516465Y-53868720D01*
X205844542Y-53798786D01*
X207643172Y-53780719D01*
X208994274Y-53789021D01*
G37*
G36*
X238304651Y-64321687D02*
G01*
X239724988Y-64341467D01*
X240732213Y-64386514D01*
X241406403Y-64463865D01*
X241827639Y-64580560D01*
X242075999Y-64743637D01*
X242114840Y-64784203D01*
X242468612Y-65519316D01*
X242441136Y-66373717D01*
X242076744Y-67150798D01*
X241419768Y-67653953D01*
X241314398Y-67676447D01*
X240721231Y-67721830D01*
X239739058Y-67751261D01*
X238475381Y-67762321D01*
X237037702Y-67752590D01*
X235873701Y-67730505D01*
X234431280Y-67666570D01*
X233413506Y-67543905D01*
X232749607Y-67336107D01*
X232368807Y-67016772D01*
X232200332Y-66559498D01*
X232173408Y-65937879D01*
X232177282Y-65817983D01*
X232227483Y-65280738D01*
X232380828Y-64889961D01*
X232710189Y-64622394D01*
X233288439Y-64454777D01*
X234188451Y-64363848D01*
X235483099Y-64326348D01*
X237245255Y-64319017D01*
X238304651Y-64321687D01*
G37*
G36*
X164623647Y-43512719D02*
G01*
X166483155Y-43515712D01*
X167893907Y-43527428D01*
X168923926Y-43553799D01*
X169641234Y-43600760D01*
X170113855Y-43674245D01*
X170409808Y-43780188D01*
X170597119Y-43924523D01*
X170743807Y-44113183D01*
X171064614Y-44758840D01*
X171095494Y-45675515D01*
X170624023Y-46484974D01*
X170483464Y-46612698D01*
X170244693Y-46757204D01*
X169895575Y-46863468D01*
X169364432Y-46937325D01*
X168579585Y-46984611D01*
X167469358Y-47011162D01*
X165962071Y-47022813D01*
X163986046Y-47025400D01*
X163440661Y-47024478D01*
X161587708Y-47006505D01*
X159982890Y-46967847D01*
X158699263Y-46911472D01*
X157809880Y-46840345D01*
X157387797Y-46757434D01*
X157103830Y-46531568D01*
X156744465Y-45830987D01*
X156684811Y-44974198D01*
X156960626Y-44177184D01*
X157396056Y-43512634D01*
X163859611Y-43512634D01*
X164623647Y-43512719D01*
G37*
G36*
X165428278Y-79722282D02*
G01*
X167067075Y-79730636D01*
X168287559Y-79752161D01*
X169161408Y-79792690D01*
X169760301Y-79858060D01*
X170155915Y-79954106D01*
X170419930Y-80086664D01*
X170624023Y-80261570D01*
X171005075Y-80808804D01*
X171127460Y-81703986D01*
X170743807Y-82633361D01*
X170693170Y-82704344D01*
X170540073Y-82876922D01*
X170322706Y-83007237D01*
X169973049Y-83101223D01*
X169423078Y-83164815D01*
X168604771Y-83203945D01*
X167450105Y-83224548D01*
X165891059Y-83232559D01*
X163859611Y-83233910D01*
X157396056Y-83233910D01*
X156960626Y-82569360D01*
X156777209Y-82187871D01*
X156675242Y-81333681D01*
X156890690Y-80528766D01*
X157387797Y-79989110D01*
X157453414Y-79965218D01*
X158011779Y-79885263D01*
X159017280Y-79817911D01*
X160396861Y-79766130D01*
X162077468Y-79732885D01*
X163986046Y-79721144D01*
X165428278Y-79722282D01*
G37*
G36*
X175968000Y-58964058D02*
G01*
X176065435Y-58966080D01*
X177641079Y-59005125D01*
X178767378Y-59053604D01*
X179530833Y-59123144D01*
X180017943Y-59225371D01*
X180315211Y-59371909D01*
X180509135Y-59574386D01*
X180540705Y-59619276D01*
X180847621Y-60433811D01*
X180821801Y-61310825D01*
X180467488Y-62002907D01*
X180349047Y-62078187D01*
X179724776Y-62240262D01*
X178727761Y-62359999D01*
X177471937Y-62437341D01*
X176071237Y-62472228D01*
X174639595Y-62464603D01*
X173290945Y-62414407D01*
X172139221Y-62321581D01*
X171298357Y-62186068D01*
X170882286Y-62007810D01*
X170749652Y-61815199D01*
X170530224Y-60982967D01*
X170679787Y-60096642D01*
X171171894Y-59394822D01*
X171191536Y-59379047D01*
X171484283Y-59185650D01*
X171855180Y-59053009D01*
X172396614Y-58972827D01*
X173200971Y-58936807D01*
X174360638Y-58936649D01*
X175968000Y-58964058D01*
G37*
G36*
X235266639Y-58926187D02*
G01*
X236808953Y-58966382D01*
X237917937Y-59071390D01*
X238666470Y-59265667D01*
X239127432Y-59573668D01*
X239373702Y-60019848D01*
X239478161Y-60628662D01*
X239486715Y-60771048D01*
X239432701Y-61529856D01*
X239242415Y-62041066D01*
X239174351Y-62104453D01*
X238863942Y-62235921D01*
X238300038Y-62328277D01*
X237410970Y-62387206D01*
X236125067Y-62418394D01*
X234370657Y-62427527D01*
X233139440Y-62426005D01*
X231801478Y-62414159D01*
X230865685Y-62382616D01*
X230251037Y-62322133D01*
X229876509Y-62223467D01*
X229661079Y-62077376D01*
X229523724Y-61874616D01*
X229343114Y-61256172D01*
X229311557Y-60462161D01*
X229327554Y-60326770D01*
X229479022Y-59807541D01*
X229812365Y-59431270D01*
X230399071Y-59176305D01*
X231310627Y-59020994D01*
X232618519Y-58943686D01*
X234394236Y-58922728D01*
X235266639Y-58926187D01*
G37*
G36*
X174553772Y-53784293D02*
G01*
X175958058Y-53815822D01*
X177149251Y-53874659D01*
X178018260Y-53954411D01*
X178455994Y-54048684D01*
X178739960Y-54274550D01*
X179099326Y-54975131D01*
X179158980Y-55831920D01*
X178883165Y-56628934D01*
X178721546Y-56858291D01*
X178516285Y-57040582D01*
X178197934Y-57163188D01*
X177681025Y-57237946D01*
X176880091Y-57276691D01*
X175709666Y-57291259D01*
X174084283Y-57293485D01*
X172861212Y-57289920D01*
X171505174Y-57268619D01*
X170547423Y-57221313D01*
X169904239Y-57140294D01*
X169491899Y-57017854D01*
X169226683Y-56846286D01*
X169088460Y-56699130D01*
X168772718Y-55939860D01*
X168835558Y-55074062D01*
X169272959Y-54321144D01*
X169286504Y-54307692D01*
X169540800Y-54101984D01*
X169877876Y-53957728D01*
X170389250Y-53864198D01*
X171166441Y-53810670D01*
X172300965Y-53786419D01*
X173884340Y-53780719D01*
X174553772Y-53784293D01*
G37*
G36*
X175613976Y-69454969D02*
G01*
X176811118Y-69468477D01*
X177634123Y-69505231D01*
X178167910Y-69576875D01*
X178497400Y-69695056D01*
X178707512Y-69871419D01*
X178883165Y-70117609D01*
X179056223Y-70472961D01*
X179169388Y-71322152D01*
X178975291Y-72134100D01*
X178506630Y-72685786D01*
X178365723Y-72731649D01*
X177724663Y-72818727D01*
X176701273Y-72889640D01*
X175402210Y-72938047D01*
X173934129Y-72957608D01*
X173727581Y-72957969D01*
X172189951Y-72954025D01*
X171091517Y-72929983D01*
X170341441Y-72875472D01*
X169848882Y-72780119D01*
X169523001Y-72633552D01*
X169272959Y-72425400D01*
X168822820Y-71642265D01*
X168788194Y-70742814D01*
X169179732Y-69947208D01*
X169208062Y-69916825D01*
X169437108Y-69739281D01*
X169783750Y-69613304D01*
X170332542Y-69530295D01*
X171168035Y-69481652D01*
X172374781Y-69458774D01*
X174037333Y-69453059D01*
X175613976Y-69454969D01*
G37*
G36*
X194399557Y-53786708D02*
G01*
X195520157Y-53811773D01*
X196285814Y-53866832D01*
X196788725Y-53962801D01*
X197121083Y-54110599D01*
X197375087Y-54321144D01*
X197825226Y-55104278D01*
X197859851Y-56003730D01*
X197468313Y-56799336D01*
X197444458Y-56825045D01*
X197216368Y-57004346D01*
X196872194Y-57131583D01*
X196327081Y-57215435D01*
X195496176Y-57264582D01*
X194294624Y-57287706D01*
X192637570Y-57293485D01*
X192344314Y-57293371D01*
X190644348Y-57281405D01*
X189402519Y-57232982D01*
X188547169Y-57124436D01*
X188006637Y-56932102D01*
X187709263Y-56632312D01*
X187583390Y-56201401D01*
X187557356Y-55615702D01*
X187648394Y-55032027D01*
X188172752Y-54279036D01*
X188374792Y-54137265D01*
X188740122Y-53982238D01*
X189273348Y-53879071D01*
X190067571Y-53817763D01*
X191215890Y-53788313D01*
X192811405Y-53780719D01*
X192831818Y-53780719D01*
X194399557Y-53786708D01*
G37*
G36*
X241828701Y-69455076D02*
G01*
X243021192Y-69468832D01*
X243840974Y-69505866D01*
X244372660Y-69577721D01*
X244700866Y-69695936D01*
X244910205Y-69872052D01*
X245085292Y-70117609D01*
X245258350Y-70472961D01*
X245371515Y-71322152D01*
X245177418Y-72134100D01*
X244708758Y-72685786D01*
X244567851Y-72731649D01*
X243926790Y-72818727D01*
X242903401Y-72889640D01*
X241604338Y-72938047D01*
X240136257Y-72957608D01*
X239929709Y-72957969D01*
X238392078Y-72954025D01*
X237293645Y-72929983D01*
X236543568Y-72875472D01*
X236051009Y-72780119D01*
X235725129Y-72633552D01*
X235475087Y-72425400D01*
X235094034Y-71878165D01*
X234971649Y-70982983D01*
X235355302Y-70053609D01*
X235488078Y-69880237D01*
X235699790Y-69706142D01*
X236029037Y-69587149D01*
X236560395Y-69512800D01*
X237378440Y-69472640D01*
X238567751Y-69456212D01*
X240212903Y-69453059D01*
X241828701Y-69455076D01*
G37*
G36*
X153369447Y-64320423D02*
G01*
X154670738Y-64332265D01*
X155577769Y-64365201D01*
X156175522Y-64429814D01*
X156548982Y-64536690D01*
X156783132Y-64696413D01*
X156962956Y-64919566D01*
X157315933Y-65629209D01*
X157267212Y-66400090D01*
X156701424Y-67187457D01*
X156480577Y-67400616D01*
X156210466Y-67595888D01*
X155860042Y-67723599D01*
X155337305Y-67794965D01*
X154550260Y-67821202D01*
X153406906Y-67813526D01*
X151815247Y-67783154D01*
X151642968Y-67779573D01*
X150077645Y-67740420D01*
X148958744Y-67691700D01*
X148200312Y-67621963D01*
X147716393Y-67519760D01*
X147421032Y-67373642D01*
X147228272Y-67172158D01*
X146928074Y-66531934D01*
X146901908Y-65610546D01*
X147292498Y-64813166D01*
X147319316Y-64784356D01*
X147548035Y-64606220D01*
X147893839Y-64479819D01*
X148441385Y-64396527D01*
X149275325Y-64347714D01*
X150480314Y-64324753D01*
X152141006Y-64319017D01*
X153369447Y-64320423D01*
G37*
G36*
X214248062Y-75187651D02*
G01*
X214568870Y-75833308D01*
X214599749Y-76749983D01*
X214128278Y-77559442D01*
X214013202Y-77664515D01*
X213844955Y-77769952D01*
X213597925Y-77856839D01*
X213225947Y-77926968D01*
X212682858Y-77982132D01*
X211922494Y-78024125D01*
X210898689Y-78054738D01*
X209565281Y-78075766D01*
X207876104Y-78088999D01*
X205784994Y-78096232D01*
X203245788Y-78099258D01*
X200212321Y-78099868D01*
X197611357Y-78099463D01*
X194999259Y-78096926D01*
X192842346Y-78090455D01*
X191094454Y-78078259D01*
X189709418Y-78058545D01*
X188641075Y-78029520D01*
X187843261Y-77989391D01*
X187269810Y-77936366D01*
X186874559Y-77868651D01*
X186611344Y-77784454D01*
X186434000Y-77681982D01*
X186296363Y-77559442D01*
X185915311Y-77012208D01*
X185792926Y-76117026D01*
X186176579Y-75187651D01*
X186597220Y-74587102D01*
X200212321Y-74587102D01*
X213827421Y-74587102D01*
X214248062Y-75187651D01*
G37*
G36*
X231854293Y-53780824D02*
G01*
X233382611Y-53788384D01*
X234475151Y-53815241D01*
X235221824Y-53871671D01*
X235712538Y-53967947D01*
X236037202Y-54114347D01*
X236285725Y-54321144D01*
X236666778Y-54868379D01*
X236789163Y-55763561D01*
X236405509Y-56692935D01*
X236274045Y-56864817D01*
X236062683Y-57039502D01*
X235734303Y-57158906D01*
X235204225Y-57233517D01*
X234387769Y-57273825D01*
X233200254Y-57290318D01*
X231557002Y-57293485D01*
X230288657Y-57291983D01*
X228992248Y-57279911D01*
X228088632Y-57246716D01*
X227493128Y-57181910D01*
X227121057Y-57075003D01*
X226887739Y-56915508D01*
X226708494Y-56692935D01*
X226387687Y-56047278D01*
X226356807Y-55130603D01*
X226828278Y-54321144D01*
X226867442Y-54282798D01*
X227122261Y-54086571D01*
X227467910Y-53949063D01*
X227994301Y-53860000D01*
X228791340Y-53809104D01*
X229948937Y-53786103D01*
X231557002Y-53780719D01*
X231854293Y-53780824D01*
G37*
G36*
X165111759Y-59592827D02*
G01*
X165329388Y-59824764D01*
X165659558Y-60396633D01*
X165629244Y-61020996D01*
X165442129Y-61576927D01*
X165164958Y-62088250D01*
X165163708Y-62089729D01*
X164947145Y-62189657D01*
X164457792Y-62269497D01*
X163651059Y-62330969D01*
X162482353Y-62375790D01*
X160907084Y-62405678D01*
X158880660Y-62422351D01*
X156358490Y-62427527D01*
X155065627Y-62426911D01*
X152918215Y-62421055D01*
X151223913Y-62406650D01*
X149924970Y-62380832D01*
X148963638Y-62340738D01*
X148282169Y-62283504D01*
X147822813Y-62206267D01*
X147527823Y-62106162D01*
X147339449Y-61980328D01*
X147336556Y-61977701D01*
X146929669Y-61278321D01*
X146890178Y-60401467D01*
X147228559Y-59574386D01*
X147242685Y-59555376D01*
X147380289Y-59411739D01*
X147590685Y-59297151D01*
X147932326Y-59207599D01*
X148463665Y-59139068D01*
X149243155Y-59087545D01*
X150329250Y-59049016D01*
X151780402Y-59019466D01*
X153655065Y-58994882D01*
X156011691Y-58971250D01*
X164411565Y-58892632D01*
X165111759Y-59592827D01*
G37*
G36*
X200557239Y-43512716D02*
G01*
X202582771Y-43518416D01*
X204142348Y-43535888D01*
X205300760Y-43569058D01*
X206122797Y-43621853D01*
X206673249Y-43698199D01*
X207016904Y-43802024D01*
X207218552Y-43937254D01*
X207384267Y-44154583D01*
X207615939Y-44934430D01*
X207552432Y-45811942D01*
X207195973Y-46531250D01*
X207073559Y-46646733D01*
X206840183Y-46776166D01*
X206473075Y-46872439D01*
X205904456Y-46940381D01*
X205066545Y-46984819D01*
X203891564Y-47010583D01*
X202311732Y-47022500D01*
X200259271Y-47025400D01*
X198420487Y-47022659D01*
X196615304Y-47004100D01*
X195242911Y-46955579D01*
X194244101Y-46863009D01*
X193559663Y-46712306D01*
X193130390Y-46489383D01*
X192897073Y-46180154D01*
X192800502Y-45770534D01*
X192781470Y-45246438D01*
X192793428Y-44769675D01*
X192870029Y-44361738D01*
X193070766Y-44053211D01*
X193455108Y-43830219D01*
X194082525Y-43678887D01*
X195012485Y-43585337D01*
X196304458Y-43535696D01*
X198017914Y-43516087D01*
X200212321Y-43512634D01*
X200557239Y-43512716D01*
G37*
G36*
X172313364Y-64319304D02*
G01*
X174567832Y-64324395D01*
X176356896Y-64337891D01*
X177736799Y-64362438D01*
X178763788Y-64400685D01*
X179494106Y-64455281D01*
X179983999Y-64528873D01*
X180289711Y-64624109D01*
X180467488Y-64743637D01*
X180516983Y-64795992D01*
X180861930Y-65534040D01*
X180829269Y-66387471D01*
X180464033Y-67157230D01*
X179811257Y-67644260D01*
X179774444Y-67652721D01*
X179299005Y-67689969D01*
X178370912Y-67724454D01*
X177062053Y-67754761D01*
X175444318Y-67779475D01*
X173589593Y-67797182D01*
X171569768Y-67806466D01*
X169543565Y-67809189D01*
X167479167Y-67801218D01*
X165856714Y-67771410D01*
X164621725Y-67709844D01*
X163719718Y-67606596D01*
X163096211Y-67451746D01*
X162696723Y-67235371D01*
X162466770Y-66947550D01*
X162351871Y-66578361D01*
X162297545Y-66117882D01*
X162278741Y-65897985D01*
X162254691Y-65459158D01*
X162300260Y-65110182D01*
X162467760Y-64840773D01*
X162809502Y-64640649D01*
X163377796Y-64499526D01*
X164224955Y-64407121D01*
X165403288Y-64353150D01*
X166965107Y-64327332D01*
X168962723Y-64319381D01*
X171448446Y-64319017D01*
X172313364Y-64319304D01*
G37*
G36*
X206212574Y-48652104D02*
G01*
X208076895Y-48670338D01*
X209550920Y-48708110D01*
X210680354Y-48772340D01*
X211510904Y-48869948D01*
X212088276Y-49007854D01*
X212458178Y-49192977D01*
X212666317Y-49432237D01*
X212758398Y-49732555D01*
X212780128Y-50100849D01*
X212777214Y-50544039D01*
X212672703Y-51370117D01*
X212304342Y-51867586D01*
X212051747Y-51923501D01*
X211258756Y-51989025D01*
X209963589Y-52044201D01*
X208188008Y-52088518D01*
X205953776Y-52121468D01*
X203282657Y-52142541D01*
X200196413Y-52151225D01*
X197353802Y-52150579D01*
X194926885Y-52143149D01*
X192951302Y-52127520D01*
X191381948Y-52102333D01*
X190173718Y-52066229D01*
X189281508Y-52017851D01*
X188660213Y-51955841D01*
X188264728Y-51878841D01*
X188049950Y-51785492D01*
X188028015Y-51768804D01*
X187665988Y-51188277D01*
X187555476Y-50376396D01*
X187694015Y-49568338D01*
X188079141Y-48999281D01*
X188180222Y-48948580D01*
X188529154Y-48867917D01*
X189125580Y-48801944D01*
X190011341Y-48749448D01*
X191228280Y-48709216D01*
X192818240Y-48680036D01*
X194823062Y-48660694D01*
X197284590Y-48649978D01*
X200244665Y-48646676D01*
X201130212Y-48646574D01*
X203912248Y-48646490D01*
X206212574Y-48652104D01*
G37*
G36*
X202273316Y-79722686D02*
G01*
X204495439Y-79730379D01*
X206271790Y-79746504D01*
X207655705Y-79773229D01*
X208700515Y-79812724D01*
X209459555Y-79867159D01*
X209986159Y-79938701D01*
X210333658Y-80029520D01*
X210555388Y-80141785D01*
X210806535Y-80380816D01*
X211123958Y-81125626D01*
X211095651Y-81984664D01*
X210708739Y-82739761D01*
X210595523Y-82845220D01*
X210398109Y-82953738D01*
X210087554Y-83040030D01*
X209610448Y-83106622D01*
X208913381Y-83156039D01*
X207942942Y-83190808D01*
X206645722Y-83213454D01*
X204968310Y-83226502D01*
X202857296Y-83232479D01*
X200259271Y-83233910D01*
X199715703Y-83233920D01*
X197087385Y-83232468D01*
X194941521Y-83222693D01*
X193229200Y-83196661D01*
X191901510Y-83146437D01*
X190909537Y-83064086D01*
X190204371Y-82941673D01*
X189737098Y-82771264D01*
X189458807Y-82544924D01*
X189320586Y-82254718D01*
X189273522Y-81892712D01*
X189268704Y-81450970D01*
X189277364Y-81036830D01*
X189336188Y-80682233D01*
X189494203Y-80397862D01*
X189800434Y-80175970D01*
X190303909Y-80008805D01*
X191053653Y-79888620D01*
X192098692Y-79807663D01*
X193488053Y-79758187D01*
X195270760Y-79732441D01*
X197495841Y-79722677D01*
X200212321Y-79721144D01*
X202273316Y-79722686D01*
G37*
G36*
X237432153Y-48646676D02*
G01*
X239701003Y-48647402D01*
X242342800Y-48651474D01*
X244524149Y-48660493D01*
X246291089Y-48675986D01*
X247689659Y-48699478D01*
X248765899Y-48732495D01*
X249565846Y-48776564D01*
X250135540Y-48833210D01*
X250521019Y-48903960D01*
X250768323Y-48990340D01*
X250923491Y-49093875D01*
X251086854Y-49278515D01*
X251376283Y-50046234D01*
X251338973Y-50923671D01*
X250970441Y-51665293D01*
X250940219Y-51697188D01*
X250799816Y-51806011D01*
X250584046Y-51896327D01*
X250246402Y-51969851D01*
X249740380Y-52028299D01*
X249019473Y-52073387D01*
X248037176Y-52106831D01*
X246746984Y-52130346D01*
X245102390Y-52145650D01*
X243056890Y-52154456D01*
X240563976Y-52158481D01*
X237577145Y-52159442D01*
X234266450Y-52153722D01*
X231335579Y-52136165D01*
X228883422Y-52107022D01*
X226922302Y-52066551D01*
X225464541Y-52015007D01*
X224522461Y-51952645D01*
X224108386Y-51879722D01*
X224024359Y-51829462D01*
X223686286Y-51373429D01*
X223585725Y-50547959D01*
X223580888Y-50125853D01*
X223595056Y-49769275D01*
X223671679Y-49475005D01*
X223854209Y-49237077D01*
X224186095Y-49049524D01*
X224710790Y-48906382D01*
X225471743Y-48801682D01*
X226512407Y-48729459D01*
X227876231Y-48683747D01*
X229606667Y-48658579D01*
X231747165Y-48647989D01*
X234341177Y-48646010D01*
X237432153Y-48646676D01*
G37*
G36*
X203149835Y-64320271D02*
G01*
X205743059Y-64325098D01*
X207884860Y-64334933D01*
X209620290Y-64351212D01*
X210994406Y-64375370D01*
X212052262Y-64408845D01*
X212838912Y-64453072D01*
X213399411Y-64509486D01*
X213778815Y-64579524D01*
X214022178Y-64664622D01*
X214174555Y-64766215D01*
X214549365Y-65393825D01*
X214661135Y-66209195D01*
X214461906Y-66909131D01*
X214241165Y-67141372D01*
X213722959Y-67513005D01*
X213716499Y-67516540D01*
X213392479Y-67592634D01*
X212721003Y-67654705D01*
X211674518Y-67703243D01*
X210225472Y-67738739D01*
X208346314Y-67761684D01*
X206009490Y-67772570D01*
X203187448Y-67771886D01*
X199852637Y-67760124D01*
X197657430Y-67749365D01*
X194983230Y-67734289D01*
X192771476Y-67717608D01*
X190976493Y-67697365D01*
X189552605Y-67671601D01*
X188454138Y-67638357D01*
X187635416Y-67595676D01*
X187050763Y-67541598D01*
X186654504Y-67474166D01*
X186400964Y-67391421D01*
X186244468Y-67291404D01*
X186139339Y-67172158D01*
X186107619Y-67127096D01*
X185800496Y-66312724D01*
X185826209Y-65435774D01*
X186180558Y-64743637D01*
X186272390Y-64674475D01*
X186490518Y-64588744D01*
X186850231Y-64517759D01*
X187395845Y-64460172D01*
X188171673Y-64414637D01*
X189222031Y-64379804D01*
X190591234Y-64354327D01*
X192323597Y-64336857D01*
X194463434Y-64326047D01*
X197055061Y-64320550D01*
X200142792Y-64319017D01*
X203149835Y-64320271D01*
G37*
G36*
X165496337Y-48647076D02*
G01*
X168178981Y-48650530D01*
X170393594Y-48658868D01*
X172187040Y-48673693D01*
X173606185Y-48696609D01*
X174697895Y-48729221D01*
X175509034Y-48773134D01*
X176086469Y-48829951D01*
X176477063Y-48901278D01*
X176727683Y-48988718D01*
X176885193Y-49093875D01*
X177117843Y-49394411D01*
X177352868Y-50191710D01*
X177300768Y-51058214D01*
X176954722Y-51734822D01*
X176920507Y-51765351D01*
X176742580Y-51860495D01*
X176438418Y-51939251D01*
X175962002Y-52003118D01*
X175267309Y-52053600D01*
X174308321Y-52092196D01*
X173039017Y-52120408D01*
X171413377Y-52139737D01*
X169385379Y-52151685D01*
X166909005Y-52157753D01*
X163938233Y-52159442D01*
X162232061Y-52159027D01*
X159551629Y-52155540D01*
X157338817Y-52147166D01*
X155546806Y-52132305D01*
X154128775Y-52109357D01*
X153037903Y-52076722D01*
X152227370Y-52032800D01*
X151650355Y-51975991D01*
X151260038Y-51904696D01*
X151009598Y-51817313D01*
X150852214Y-51712243D01*
X150688851Y-51527603D01*
X150399422Y-50759884D01*
X150436732Y-49882448D01*
X150805264Y-49140825D01*
X150815269Y-49129927D01*
X150949070Y-49016165D01*
X151150862Y-48921750D01*
X151467890Y-48844888D01*
X151947396Y-48783785D01*
X152636623Y-48736648D01*
X153582815Y-48701684D01*
X154833214Y-48677098D01*
X156435065Y-48661098D01*
X158435609Y-48651890D01*
X160882091Y-48647681D01*
X163821753Y-48646676D01*
X165496337Y-48647076D01*
G37*
G36*
X164862297Y-74587244D02*
G01*
X167681982Y-74590106D01*
X170021309Y-74597783D01*
X171926207Y-74611769D01*
X173442609Y-74633557D01*
X174616445Y-74664639D01*
X175493646Y-74706508D01*
X176120143Y-74760659D01*
X176541868Y-74828582D01*
X176804750Y-74911772D01*
X176954722Y-75011722D01*
X177120437Y-75229051D01*
X177352109Y-76008898D01*
X177288602Y-76886410D01*
X176932143Y-77605719D01*
X176922139Y-77616617D01*
X176788338Y-77730379D01*
X176586545Y-77824794D01*
X176269517Y-77901656D01*
X175790011Y-77962759D01*
X175100784Y-78009896D01*
X174154592Y-78044860D01*
X172904193Y-78069445D01*
X171302343Y-78085445D01*
X169301798Y-78094653D01*
X166855316Y-78098863D01*
X163915654Y-78099868D01*
X162241070Y-78099468D01*
X159558426Y-78096013D01*
X157343814Y-78087676D01*
X155550368Y-78072851D01*
X154131222Y-78049935D01*
X153039512Y-78017322D01*
X152228373Y-77973410D01*
X151650939Y-77916592D01*
X151260344Y-77845266D01*
X151009725Y-77757826D01*
X150852214Y-77652669D01*
X150688851Y-77468029D01*
X150399422Y-76700309D01*
X150436732Y-75822873D01*
X150805264Y-75081251D01*
X150819012Y-75066358D01*
X150953938Y-74953536D01*
X151158243Y-74859900D01*
X151479031Y-74783673D01*
X151963408Y-74723075D01*
X152658477Y-74676328D01*
X153611343Y-74641653D01*
X154869110Y-74617271D01*
X156478883Y-74601404D01*
X158487767Y-74592272D01*
X160942865Y-74588098D01*
X163891282Y-74587102D01*
X164862297Y-74587244D01*
G37*
G36*
X235814188Y-74587452D02*
G01*
X238595637Y-74590907D01*
X240903755Y-74599225D01*
X242783722Y-74613828D01*
X244280719Y-74636143D01*
X245439928Y-74667593D01*
X246306528Y-74709602D01*
X246925702Y-74763595D01*
X247342629Y-74830997D01*
X247602490Y-74913231D01*
X247750467Y-75011722D01*
X247916181Y-75229051D01*
X248147854Y-76008898D01*
X248084347Y-76886410D01*
X247727888Y-77605719D01*
X247696140Y-77639139D01*
X247555188Y-77747604D01*
X247338325Y-77837621D01*
X246999099Y-77910903D01*
X246491059Y-77969158D01*
X245767753Y-78014097D01*
X244782731Y-78047431D01*
X243489541Y-78070868D01*
X241841732Y-78086121D01*
X239792853Y-78094898D01*
X237296453Y-78098910D01*
X234306080Y-78099868D01*
X232068363Y-78099161D01*
X229424466Y-78095121D01*
X227241406Y-78086137D01*
X225473103Y-78070679D01*
X224073475Y-78047216D01*
X222996440Y-78014219D01*
X222195918Y-77970158D01*
X221625826Y-77913502D01*
X221240084Y-77842722D01*
X220992609Y-77756288D01*
X220837321Y-77652669D01*
X220673957Y-77468029D01*
X220384529Y-76700309D01*
X220421839Y-75822873D01*
X220790371Y-75081251D01*
X220825841Y-75044144D01*
X220968158Y-74936547D01*
X221187706Y-74847249D01*
X221530804Y-74774554D01*
X222043771Y-74716765D01*
X222772927Y-74672185D01*
X223764591Y-74639118D01*
X225065083Y-74615868D01*
X226720721Y-74600738D01*
X228777825Y-74592031D01*
X231282714Y-74588051D01*
X234281708Y-74587102D01*
X235814188Y-74587452D01*
G37*
G36*
X237210607Y-43512781D02*
G01*
X240208512Y-43515058D01*
X242725633Y-43521104D01*
X244805478Y-43532221D01*
X246491557Y-43549710D01*
X247827381Y-43574872D01*
X248856458Y-43609007D01*
X249622298Y-43653418D01*
X250168412Y-43709405D01*
X250538309Y-43778269D01*
X250775499Y-43861311D01*
X250923491Y-43959832D01*
X251217073Y-44346582D01*
X251420659Y-45156209D01*
X251284296Y-45984398D01*
X250817090Y-46604758D01*
X250669641Y-46683490D01*
X250393391Y-46765182D01*
X249969160Y-46833013D01*
X249353345Y-46888224D01*
X248502342Y-46932052D01*
X247372545Y-46965738D01*
X245920350Y-46990521D01*
X244102154Y-47007639D01*
X241874352Y-47018332D01*
X239193339Y-47023839D01*
X236015512Y-47025400D01*
X233356005Y-47024361D01*
X230591311Y-47019633D01*
X228287447Y-47009936D01*
X226400810Y-46994030D01*
X224887795Y-46970677D01*
X223704798Y-46938636D01*
X222808215Y-46896669D01*
X222154441Y-46843537D01*
X221699872Y-46778001D01*
X221400905Y-46698821D01*
X221213934Y-46604758D01*
X220962787Y-46365727D01*
X220645365Y-45620918D01*
X220673671Y-44761880D01*
X221060583Y-44006783D01*
X221174225Y-43904195D01*
X221351934Y-43812011D01*
X221631526Y-43735506D01*
X222056857Y-43673225D01*
X222671780Y-43623715D01*
X223520149Y-43585523D01*
X224645819Y-43557194D01*
X226092643Y-43537276D01*
X227904475Y-43524315D01*
X230125170Y-43516856D01*
X232798581Y-43513447D01*
X235968562Y-43512634D01*
X237210607Y-43512781D01*
G37*
G36*
X238404807Y-79722182D02*
G01*
X241169501Y-79726910D01*
X243473365Y-79736608D01*
X245360002Y-79752513D01*
X246873017Y-79775867D01*
X248056014Y-79807908D01*
X248952597Y-79849874D01*
X249606371Y-79903006D01*
X250060939Y-79968543D01*
X250359907Y-80047723D01*
X250546878Y-80141785D01*
X250798025Y-80380816D01*
X251115447Y-81125626D01*
X251087141Y-81984664D01*
X250700228Y-82739761D01*
X250586586Y-82842349D01*
X250408878Y-82934532D01*
X250129285Y-83011038D01*
X249703955Y-83073319D01*
X249089032Y-83122829D01*
X248240662Y-83161021D01*
X247114993Y-83189349D01*
X245668169Y-83209267D01*
X243856336Y-83222229D01*
X241635642Y-83229688D01*
X238962231Y-83233097D01*
X235792250Y-83233910D01*
X233703749Y-83234171D01*
X230739151Y-83233622D01*
X228248334Y-83227727D01*
X226190126Y-83211733D01*
X224523353Y-83180888D01*
X223206839Y-83130442D01*
X222199410Y-83055641D01*
X221459893Y-82951734D01*
X220947114Y-82813970D01*
X220619897Y-82637596D01*
X220437068Y-82417861D01*
X220357454Y-82150013D01*
X220339880Y-81829300D01*
X220343172Y-81450970D01*
X220342524Y-81292736D01*
X220349255Y-80948960D01*
X220400943Y-80659334D01*
X220538877Y-80419221D01*
X220804346Y-80223984D01*
X221238638Y-80068987D01*
X221883044Y-79949591D01*
X222778851Y-79861159D01*
X223967348Y-79799055D01*
X225489825Y-79758642D01*
X227387569Y-79735281D01*
X229701870Y-79724336D01*
X232474018Y-79721169D01*
X235745299Y-79721144D01*
X238404807Y-79722182D01*
G37*
G36*
X140290360Y-93556074D02*
G01*
X140430480Y-93563864D01*
X141297663Y-93655020D01*
X141758387Y-93823727D01*
X141931104Y-94109974D01*
X141938402Y-94153655D01*
X141875453Y-94426885D01*
X141507712Y-94569361D01*
X140717772Y-94631552D01*
X139414448Y-94680257D01*
X140697959Y-94781463D01*
X141082853Y-94820803D01*
X141765060Y-94991683D01*
X141981470Y-95273184D01*
X141934563Y-95454988D01*
X141576151Y-95663697D01*
X141291674Y-95830765D01*
X141170831Y-96474336D01*
X141170849Y-96484055D01*
X141242671Y-97050047D01*
X141412134Y-97284974D01*
X141543740Y-97332725D01*
X141808973Y-97690293D01*
X141827128Y-97828190D01*
X141670570Y-97964290D01*
X141225818Y-98045737D01*
X140408877Y-98085266D01*
X139135755Y-98095612D01*
X138399673Y-98092492D01*
X137353116Y-98064207D01*
X136713713Y-97996088D01*
X136394122Y-97875622D01*
X136307002Y-97690293D01*
X136474069Y-97405817D01*
X137117640Y-97284974D01*
X137470154Y-97268841D01*
X137841031Y-97092226D01*
X137928278Y-96609442D01*
X137925003Y-96452360D01*
X137826736Y-96108658D01*
X137481822Y-95963679D01*
X136743836Y-95933910D01*
X136078503Y-95902661D01*
X135618776Y-95743686D01*
X135418069Y-95393485D01*
X135378969Y-95183993D01*
X135474381Y-94966788D01*
X135873426Y-94873153D01*
X136694245Y-94853059D01*
X137124889Y-94848338D01*
X137798216Y-94778899D01*
X138175478Y-94573222D01*
X138425677Y-94164053D01*
X138603403Y-93834225D01*
X138891082Y-93605887D01*
X139400702Y-93530353D01*
X140290360Y-93556074D01*
G37*
G36*
X158082525Y-94395255D02*
G01*
X158462568Y-94992789D01*
X158736301Y-96018171D01*
X158714855Y-96672742D01*
X158700947Y-97097243D01*
X158386514Y-98090015D01*
X157823012Y-98856493D01*
X157040447Y-99256684D01*
X155977629Y-99376951D01*
X154683920Y-99399640D01*
X153425951Y-99326409D01*
X152452647Y-99162375D01*
X152181621Y-99067479D01*
X151348111Y-98457281D01*
X150806816Y-97544987D01*
X150592155Y-96470569D01*
X150610220Y-96335251D01*
X152249555Y-96335251D01*
X152250284Y-96416576D01*
X152374290Y-97341476D01*
X152674175Y-97941205D01*
X152983780Y-98190932D01*
X153409831Y-98365825D01*
X153433293Y-98301019D01*
X155771065Y-98301019D01*
X156046044Y-98344492D01*
X156554298Y-98224644D01*
X156970122Y-97662631D01*
X157113385Y-96672742D01*
X157105281Y-96391561D01*
X156955963Y-95478250D01*
X156660467Y-94829580D01*
X156273938Y-94582846D01*
X156193883Y-94682577D01*
X156418552Y-95007466D01*
X156662194Y-95462273D01*
X156804226Y-96187637D01*
X156818888Y-96262519D01*
X156817330Y-97101885D01*
X156636375Y-97717330D01*
X156518555Y-97853403D01*
X156032533Y-98168869D01*
X156017826Y-98174482D01*
X155771065Y-98301019D01*
X153433293Y-98301019D01*
X153454055Y-98243673D01*
X153120317Y-97945184D01*
X152872291Y-97733843D01*
X152595743Y-97201940D01*
X152530477Y-96461373D01*
X154141044Y-96461373D01*
X154203652Y-96936037D01*
X154490201Y-97355198D01*
X154891895Y-97346742D01*
X155278036Y-96864347D01*
X155341965Y-96716660D01*
X155436815Y-96187637D01*
X155160640Y-95756849D01*
X155088652Y-95689089D01*
X154607577Y-95479089D01*
X154269021Y-95752193D01*
X154141044Y-96461373D01*
X152530477Y-96461373D01*
X152519768Y-96339854D01*
X152522098Y-96111329D01*
X152607888Y-95406147D01*
X152899586Y-94977524D01*
X153508607Y-94727509D01*
X154546363Y-94558152D01*
X155897427Y-94388724D01*
X154674041Y-94350679D01*
X153785264Y-94387907D01*
X152899979Y-94692824D01*
X152404132Y-95328795D01*
X152249555Y-96335251D01*
X150610220Y-96335251D01*
X150738548Y-95374001D01*
X151280414Y-94395255D01*
X151402039Y-94255886D01*
X151709635Y-93960549D01*
X152069288Y-93778218D01*
X152603086Y-93681676D01*
X153433117Y-93643709D01*
X154681470Y-93637102D01*
X155187207Y-93637583D01*
X156270750Y-93652354D01*
X156979965Y-93708291D01*
X157436940Y-93832610D01*
X157763764Y-94052526D01*
X158076451Y-94388724D01*
X158082525Y-94395255D01*
G37*
G36*
X184130523Y-96406782D02*
G01*
X184058716Y-97085202D01*
X183684878Y-97703939D01*
X182895673Y-98083849D01*
X182505335Y-98208909D01*
X182373288Y-98305290D01*
X182716044Y-98342600D01*
X182927742Y-98331262D01*
X183654618Y-97997170D01*
X184193872Y-97321903D01*
X184404874Y-96462053D01*
X184337412Y-95919512D01*
X183864730Y-95069020D01*
X183004452Y-94512285D01*
X181832371Y-94312634D01*
X180759502Y-94377606D01*
X180024889Y-94632476D01*
X179647583Y-95139911D01*
X179541044Y-95962211D01*
X179540770Y-96065514D01*
X179497537Y-96706671D01*
X179322597Y-96961218D01*
X178933065Y-96966002D01*
X178873697Y-96956654D01*
X178517910Y-96802166D01*
X178332873Y-96403075D01*
X178243362Y-95611659D01*
X178230011Y-95199773D01*
X178338517Y-94444933D01*
X178698785Y-93940452D01*
X179380848Y-93647657D01*
X180454736Y-93527877D01*
X181990483Y-93542437D01*
X183016875Y-93589225D01*
X183846395Y-93666573D01*
X184381720Y-93802307D01*
X184756399Y-94033008D01*
X185103983Y-94395255D01*
X185483886Y-94992690D01*
X185757586Y-96018114D01*
X185722207Y-97097218D01*
X185407761Y-98090009D01*
X184844262Y-98856495D01*
X184061724Y-99256684D01*
X183265733Y-99348064D01*
X182144801Y-99398227D01*
X180924137Y-99403832D01*
X179816436Y-99363985D01*
X179034395Y-99277793D01*
X178396555Y-99049449D01*
X178191178Y-98740654D01*
X178466130Y-98465985D01*
X179203278Y-98327480D01*
X180216576Y-98289136D01*
X179156847Y-98124821D01*
X178946570Y-98085968D01*
X178301012Y-97875723D01*
X177985925Y-97622740D01*
X178002317Y-97507122D01*
X178307214Y-97376772D01*
X179015127Y-97306190D01*
X180194058Y-97284974D01*
X180292545Y-97284814D01*
X181496637Y-97247587D01*
X182251771Y-97148905D01*
X182513385Y-96994352D01*
X182477242Y-96917719D01*
X182053899Y-96788988D01*
X181229874Y-96784055D01*
X180707408Y-96810832D01*
X180180972Y-96771818D01*
X179948976Y-96563915D01*
X179859285Y-96112592D01*
X179842174Y-95691196D01*
X179851572Y-95663697D01*
X181297427Y-95663697D01*
X181368266Y-95849865D01*
X181837853Y-95933910D01*
X182281361Y-95862904D01*
X182378278Y-95663697D01*
X182291103Y-95564796D01*
X181837853Y-95393485D01*
X181689524Y-95412335D01*
X181297427Y-95663697D01*
X179851572Y-95663697D01*
X180062696Y-95045919D01*
X180675805Y-94691233D01*
X181735832Y-94582846D01*
X182190114Y-94603510D01*
X183252363Y-94891080D01*
X183908991Y-95499654D01*
X183949052Y-95663697D01*
X184130523Y-96406782D01*
G37*
G36*
X177096452Y-96088101D02*
G01*
X176822388Y-96805932D01*
X176775990Y-96975238D01*
X176515938Y-97851177D01*
X176281847Y-98544708D01*
X176271201Y-98572558D01*
X176126701Y-98868842D01*
X175896741Y-99047678D01*
X175467688Y-99133024D01*
X174725907Y-99148840D01*
X173557767Y-99119087D01*
X171081618Y-99041357D01*
X170490264Y-97454753D01*
X170175282Y-96712458D01*
X169778345Y-95992390D01*
X169450828Y-95617390D01*
X169308230Y-95530328D01*
X169018707Y-95190480D01*
X169228765Y-94946517D01*
X169905885Y-94853059D01*
X170039962Y-94854067D01*
X170489451Y-94910171D01*
X170807593Y-95134623D01*
X171099319Y-95640752D01*
X171469560Y-96541889D01*
X172130096Y-98230719D01*
X173538762Y-98312393D01*
X173910368Y-98330984D01*
X174569497Y-98319178D01*
X174866091Y-98190140D01*
X174926095Y-97907074D01*
X174886523Y-97672337D01*
X174768470Y-97757846D01*
X174720636Y-97825940D01*
X174259077Y-98020821D01*
X173476240Y-98095612D01*
X173297718Y-98095351D01*
X172718949Y-98058078D01*
X172358028Y-97873454D01*
X172078116Y-97422289D01*
X171742375Y-96585397D01*
X171484323Y-95899306D01*
X171253418Y-95255635D01*
X171164448Y-94964121D01*
X171220007Y-94930998D01*
X171654930Y-94875139D01*
X172380406Y-94853059D01*
X172875301Y-94873784D01*
X173460889Y-95016269D01*
X173563517Y-95271521D01*
X173156107Y-95613011D01*
X173018516Y-95703325D01*
X172849176Y-96037212D01*
X172984325Y-96639736D01*
X173252800Y-97420080D01*
X173396265Y-96877380D01*
X175010201Y-96877380D01*
X175036931Y-97194336D01*
X175167738Y-97072811D01*
X175333445Y-96590141D01*
X175425079Y-96071291D01*
X175398349Y-95754335D01*
X175267541Y-95875860D01*
X175101834Y-96358530D01*
X175010201Y-96877380D01*
X173396265Y-96877380D01*
X173574244Y-96204123D01*
X173830200Y-95232357D01*
X174077584Y-94406451D01*
X174323527Y-93928328D01*
X174653957Y-93703632D01*
X175154802Y-93638008D01*
X175911989Y-93637102D01*
X176273843Y-93639897D01*
X177047396Y-93692176D01*
X177447555Y-93837295D01*
X177598114Y-94109974D01*
X177585152Y-94380231D01*
X177294252Y-94541707D01*
X176588517Y-94582846D01*
X176025788Y-94606184D01*
X175607972Y-94744426D01*
X175509185Y-95055719D01*
X175547852Y-95285607D01*
X175666809Y-95190825D01*
X175916952Y-95007276D01*
X176480839Y-94884618D01*
X177141424Y-94860838D01*
X177690477Y-94941396D01*
X177919768Y-95131752D01*
X177873600Y-95278692D01*
X177517382Y-95564856D01*
X177422838Y-95624508D01*
X177108287Y-96071291D01*
X177096452Y-96088101D01*
G37*
G36*
X149967266Y-94490153D02*
G01*
X149508784Y-94619644D01*
X149156205Y-94642413D01*
X149055788Y-94683048D01*
X149103742Y-94693281D01*
X149479874Y-94773544D01*
X149855015Y-94939239D01*
X150088461Y-95344725D01*
X150026863Y-95566368D01*
X149752467Y-95706503D01*
X149156209Y-95764027D01*
X148129419Y-95762092D01*
X147856682Y-95758118D01*
X147168559Y-95764404D01*
X146901245Y-95797362D01*
X147114427Y-95851723D01*
X147166896Y-95858943D01*
X148113174Y-96110302D01*
X148599189Y-96560568D01*
X148673573Y-97183732D01*
X148682897Y-97261845D01*
X148651728Y-97467761D01*
X148489618Y-97799436D01*
X148084909Y-97963689D01*
X147288688Y-98044068D01*
X146551463Y-98124449D01*
X146051058Y-98311657D01*
X145838556Y-98652047D01*
X145780810Y-98813337D01*
X145540026Y-99042203D01*
X145028310Y-99149681D01*
X144111657Y-99176463D01*
X143467456Y-99160286D01*
X142751742Y-99052763D01*
X142518206Y-98838697D01*
X142484401Y-98521301D01*
X142351584Y-97892953D01*
X142312616Y-97452349D01*
X142585821Y-97284974D01*
X142807153Y-97188299D01*
X142899584Y-96790489D01*
X142890968Y-96624644D01*
X144184298Y-96624644D01*
X144214229Y-97573340D01*
X144240481Y-97779589D01*
X144299039Y-98079763D01*
X144338344Y-97895837D01*
X144370141Y-97199657D01*
X144373489Y-97118500D01*
X146208088Y-97118500D01*
X146248717Y-97203089D01*
X146710193Y-97232296D01*
X146794105Y-97230514D01*
X147153009Y-97183732D01*
X147042816Y-97097719D01*
X146768601Y-97054278D01*
X146232178Y-97107731D01*
X146208088Y-97118500D01*
X144373489Y-97118500D01*
X144376579Y-97043577D01*
X144543016Y-95846905D01*
X144893223Y-95106591D01*
X145413672Y-94853059D01*
X145622615Y-94828683D01*
X145694741Y-94693281D01*
X145467337Y-94575430D01*
X144989627Y-94696346D01*
X144538281Y-95131153D01*
X144266861Y-95764633D01*
X144184298Y-96624644D01*
X142890968Y-96624644D01*
X142857338Y-95977286D01*
X142828667Y-95647084D01*
X142833327Y-94952042D01*
X143025174Y-94502852D01*
X143112328Y-94421844D01*
X146565973Y-94421844D01*
X146623910Y-94491984D01*
X147115512Y-94520156D01*
X147298847Y-94517543D01*
X147672482Y-94474902D01*
X147588385Y-94396582D01*
X147327961Y-94354558D01*
X146642640Y-94396582D01*
X146565973Y-94421844D01*
X143112328Y-94421844D01*
X143473869Y-94085797D01*
X143775095Y-93874373D01*
X144216891Y-93680279D01*
X144820352Y-93567375D01*
X145711623Y-93514876D01*
X147016846Y-93501995D01*
X147891442Y-93507671D01*
X148886645Y-93531047D01*
X149566165Y-93568335D01*
X149817640Y-93615002D01*
X149838587Y-93724679D01*
X149981656Y-94155427D01*
X149967922Y-94474902D01*
X149967266Y-94490153D01*
G37*
G36*
X131607188Y-92804363D02*
G01*
X131592381Y-93138598D01*
X131134316Y-93258255D01*
X131114058Y-93259321D01*
X131054240Y-93321698D01*
X131443386Y-93450949D01*
X132203301Y-93620571D01*
X132936221Y-93784804D01*
X134006423Y-94178891D01*
X134583528Y-94676123D01*
X134665642Y-94746872D01*
X134998857Y-95581600D01*
X135081328Y-96650058D01*
X135091044Y-96775928D01*
X135085132Y-97280546D01*
X135013732Y-98058127D01*
X134820135Y-98550341D01*
X134453130Y-98930125D01*
X133907838Y-99262273D01*
X132910218Y-99487367D01*
X131917317Y-99345759D01*
X131084218Y-98870742D01*
X130688832Y-98279337D01*
X130767640Y-98279337D01*
X131713385Y-98314364D01*
X132276706Y-98308887D01*
X133067997Y-98100824D01*
X133484010Y-97571382D01*
X133604874Y-96650058D01*
X133511912Y-95766471D01*
X133189955Y-95090452D01*
X132672640Y-94861276D01*
X132599086Y-94925653D01*
X132861789Y-95144916D01*
X132946239Y-95208524D01*
X133229096Y-95742863D01*
X133339689Y-96505543D01*
X133337189Y-96531127D01*
X133265950Y-97260141D01*
X132995810Y-97770236D01*
X132970827Y-97789452D01*
X132450055Y-98011107D01*
X131712300Y-98165397D01*
X130767640Y-98279337D01*
X130688832Y-98279337D01*
X130566002Y-98095612D01*
X130557208Y-98070945D01*
X130408469Y-97982659D01*
X130231237Y-98433378D01*
X130206663Y-98523689D01*
X130058514Y-98889287D01*
X129784535Y-99084389D01*
X129246563Y-99162335D01*
X128306432Y-99176463D01*
X127950988Y-99174047D01*
X127121578Y-99126542D01*
X126698055Y-99000149D01*
X126579342Y-98771144D01*
X126602487Y-98650562D01*
X126937097Y-98418166D01*
X127727746Y-98318617D01*
X128876151Y-98271409D01*
X127727746Y-98167974D01*
X127594538Y-98154629D01*
X126830983Y-97978791D01*
X126579342Y-97674756D01*
X126607264Y-97502710D01*
X126849555Y-97284974D01*
X126919827Y-97208843D01*
X127026255Y-96691212D01*
X127037156Y-96541889D01*
X130411080Y-96541889D01*
X130578945Y-96919253D01*
X131024896Y-97218464D01*
X131527960Y-97233966D01*
X131873643Y-96911546D01*
X131945496Y-96531127D01*
X131689729Y-96091326D01*
X131003112Y-95933910D01*
X130842436Y-95938160D01*
X130449506Y-96084412D01*
X130411080Y-96541889D01*
X127037156Y-96541889D01*
X127095227Y-95746433D01*
X127112109Y-94853059D01*
X128741044Y-94853059D01*
X128743173Y-94918804D01*
X128808597Y-95076633D01*
X129069035Y-95030859D01*
X129726806Y-94949914D01*
X130632533Y-94853059D01*
X132388916Y-94676123D01*
X130564980Y-94629485D01*
X129671905Y-94637276D01*
X128992009Y-94715247D01*
X128741044Y-94853059D01*
X127112109Y-94853059D01*
X127119768Y-94447740D01*
X127119768Y-92556251D01*
X128741044Y-92556251D01*
X128876151Y-92691357D01*
X129011257Y-92556251D01*
X128876151Y-92421144D01*
X128741044Y-92556251D01*
X127119768Y-92556251D01*
X127119768Y-91610506D01*
X129281470Y-91610506D01*
X130088317Y-91619731D01*
X130900449Y-91675164D01*
X131322350Y-91794560D01*
X131443172Y-91993725D01*
X131458591Y-92195657D01*
X131546619Y-92556251D01*
X131607188Y-92804363D01*
G37*
G36*
X193472803Y-93046071D02*
G01*
X193395186Y-93553400D01*
X193341773Y-94416013D01*
X193321895Y-95516245D01*
X193321895Y-95646577D01*
X193321895Y-98070920D01*
X191497959Y-98165449D01*
X191277524Y-98177924D01*
X190872321Y-98218169D01*
X191002016Y-98254392D01*
X191662339Y-98286124D01*
X192849023Y-98312901D01*
X194150317Y-98343215D01*
X195097565Y-98394403D01*
X195668931Y-98477505D01*
X195949417Y-98605312D01*
X196024023Y-98790612D01*
X195988357Y-98925896D01*
X195801476Y-99047487D01*
X195384234Y-99122071D01*
X194659218Y-99156107D01*
X193549016Y-99156057D01*
X191976215Y-99128378D01*
X191113372Y-99109189D01*
X189791766Y-99070611D01*
X188866604Y-99017260D01*
X188242780Y-98933350D01*
X187825184Y-98803098D01*
X187518707Y-98610720D01*
X187228242Y-98340434D01*
X186940066Y-98004554D01*
X186403602Y-96947829D01*
X186174261Y-95745933D01*
X186187985Y-95528591D01*
X187917640Y-95528591D01*
X187945489Y-96273593D01*
X188108596Y-97034469D01*
X188458065Y-97555187D01*
X188910884Y-97917133D01*
X189336257Y-98087395D01*
X189423685Y-98004816D01*
X189133597Y-97772723D01*
X188758672Y-97531312D01*
X188400456Y-97116433D01*
X188234495Y-96495581D01*
X188197272Y-95626269D01*
X189849420Y-95626269D01*
X189914966Y-96402721D01*
X190095916Y-96899625D01*
X190420118Y-97132251D01*
X191058173Y-97284974D01*
X191064978Y-97284970D01*
X191417120Y-97245114D01*
X191607530Y-97042695D01*
X191685574Y-96551814D01*
X191700619Y-95646577D01*
X191700619Y-94008180D01*
X190822427Y-94092854D01*
X190572973Y-94120776D01*
X190141420Y-94257211D01*
X189945034Y-94611916D01*
X189860170Y-95345901D01*
X189849420Y-95626269D01*
X188197272Y-95626269D01*
X188191990Y-95502917D01*
X188192227Y-95413582D01*
X188327967Y-94324354D01*
X188755552Y-93608093D01*
X189538916Y-93153268D01*
X189539535Y-93153041D01*
X189765823Y-93030126D01*
X189471363Y-92982902D01*
X189098468Y-93023802D01*
X188468041Y-93458988D01*
X188061638Y-94314881D01*
X187917640Y-95528591D01*
X186187985Y-95528591D01*
X186249921Y-94547763D01*
X186628462Y-93502215D01*
X187307761Y-92758188D01*
X187456932Y-92679334D01*
X188226004Y-92451469D01*
X189353400Y-92257810D01*
X190701706Y-92111000D01*
X192133510Y-92023687D01*
X193511398Y-92008513D01*
X194697955Y-92078126D01*
X195187701Y-92138548D01*
X195704803Y-92278820D01*
X195917056Y-92568186D01*
X195973237Y-93129274D01*
X195975318Y-93197087D01*
X195898476Y-93841142D01*
X195610475Y-94042421D01*
X195576726Y-94044061D01*
X195358852Y-94209998D01*
X195245747Y-94717177D01*
X195213385Y-95663697D01*
X195214184Y-95859043D01*
X195256995Y-96719078D01*
X195383353Y-97160463D01*
X195618704Y-97284974D01*
X195807726Y-97332053D01*
X196024023Y-97690293D01*
X195969861Y-97868440D01*
X195597686Y-98044098D01*
X194789523Y-98095612D01*
X193555024Y-98095612D01*
X193641119Y-95527985D01*
X193656494Y-94861964D01*
X193648938Y-93883728D01*
X193603186Y-93211031D01*
X193524555Y-92960964D01*
X193482499Y-93030126D01*
X193472803Y-93046071D01*
G37*
G36*
X166031515Y-95455368D02*
G01*
X166030406Y-95516753D01*
X166030406Y-96897603D01*
X166030406Y-98071936D01*
X164071363Y-98165190D01*
X163691476Y-98185787D01*
X163327245Y-98223415D01*
X163491725Y-98256732D01*
X164188818Y-98286164D01*
X165422427Y-98312135D01*
X166726639Y-98341662D01*
X167725858Y-98392611D01*
X168339184Y-98473678D01*
X168647712Y-98596107D01*
X168732533Y-98771144D01*
X168724712Y-98833074D01*
X168588207Y-98978964D01*
X168221782Y-99077897D01*
X167547852Y-99138224D01*
X166488835Y-99168295D01*
X164967146Y-99176463D01*
X163361362Y-99162092D01*
X161846067Y-99092431D01*
X160751490Y-98942712D01*
X160012573Y-98688715D01*
X159564260Y-98306217D01*
X159341496Y-97771000D01*
X159281446Y-97084256D01*
X160961094Y-97084256D01*
X161169488Y-97693802D01*
X161392764Y-97908585D01*
X161791733Y-98095612D01*
X161862341Y-98010671D01*
X161594158Y-97739986D01*
X161407614Y-97571554D01*
X161206632Y-97013628D01*
X161298860Y-96812102D01*
X162853727Y-96812102D01*
X162866270Y-96844811D01*
X163199146Y-97132614D01*
X163719303Y-97245706D01*
X164198659Y-97171548D01*
X164409129Y-96897603D01*
X164217572Y-96580872D01*
X163575973Y-96474336D01*
X162994810Y-96554971D01*
X162853727Y-96812102D01*
X161298860Y-96812102D01*
X161477093Y-96422650D01*
X162187236Y-95897299D01*
X163071203Y-95455368D01*
X162393217Y-95285205D01*
X161928839Y-95049505D01*
X161546438Y-94497235D01*
X161543119Y-94447740D01*
X163058065Y-94447740D01*
X163190283Y-94712121D01*
X163733597Y-94853059D01*
X164174233Y-94773729D01*
X164409129Y-94447740D01*
X164276912Y-94183359D01*
X163733597Y-94042421D01*
X163292962Y-94121751D01*
X163058065Y-94447740D01*
X161543119Y-94447740D01*
X161503517Y-93857123D01*
X161853908Y-93324846D01*
X162112445Y-93088286D01*
X162082903Y-92961570D01*
X162009284Y-92964459D01*
X161483506Y-93220740D01*
X161235449Y-93774517D01*
X161295283Y-94459512D01*
X161693180Y-95109450D01*
X162021219Y-95457231D01*
X162049629Y-95658630D01*
X161693807Y-95802991D01*
X161513006Y-95888500D01*
X161098852Y-96398638D01*
X160961094Y-97084256D01*
X159281446Y-97084256D01*
X159279224Y-97058843D01*
X159296421Y-96671206D01*
X159502223Y-96173517D01*
X160059458Y-95861112D01*
X160843829Y-95565045D01*
X160194564Y-95054334D01*
X159872812Y-94726451D01*
X159554188Y-93961326D01*
X159651179Y-93182657D01*
X160165831Y-92567440D01*
X160478203Y-92432869D01*
X161328292Y-92239037D01*
X162490788Y-92078927D01*
X163825971Y-91963494D01*
X165194123Y-91903690D01*
X166455526Y-91910470D01*
X167470462Y-91994786D01*
X168007977Y-92082593D01*
X168505486Y-92244509D01*
X168699516Y-92545971D01*
X168732533Y-93113233D01*
X168732199Y-93170392D01*
X168629466Y-93833430D01*
X168327214Y-94042421D01*
X168278378Y-94045618D01*
X168063369Y-94216861D01*
X167953023Y-94722296D01*
X167921895Y-95663697D01*
X167922695Y-95859043D01*
X167965505Y-96719078D01*
X168091864Y-97160463D01*
X168327214Y-97284974D01*
X168516237Y-97332053D01*
X168732533Y-97690293D01*
X168678372Y-97868440D01*
X168306197Y-98044098D01*
X167498034Y-98095612D01*
X166263535Y-98095612D01*
X166349630Y-95527985D01*
X166365005Y-94861964D01*
X166357449Y-93883728D01*
X166311697Y-93211031D01*
X166233065Y-92960964D01*
X166181287Y-93046174D01*
X166103684Y-93553658D01*
X166050280Y-94416402D01*
X166049714Y-94447740D01*
X166031515Y-95455368D01*
G37*
%TD*%
M02*
