%TF.GenerationSoftware,KiCad,Pcbnew,9.0.6*%
%TF.CreationDate,2025-12-23T12:26:22+01:00*%
%TF.ProjectId,Z80DevBoard,5a383044-6576-4426-9f61-72642e6b6963,rev?*%
%TF.SameCoordinates,Original*%
%TF.FileFunction,Copper,L4,Bot*%
%TF.FilePolarity,Positive*%
%FSLAX46Y46*%
G04 Gerber Fmt 4.6, Leading zero omitted, Abs format (unit mm)*
G04 Created by KiCad (PCBNEW 9.0.6) date 2025-12-23 12:26:22*
%MOMM*%
%LPD*%
G01*
G04 APERTURE LIST*
G04 Aperture macros list*
%AMRoundRect*
0 Rectangle with rounded corners*
0 $1 Rounding radius*
0 $2 $3 $4 $5 $6 $7 $8 $9 X,Y pos of 4 corners*
0 Add a 4 corners polygon primitive as box body*
4,1,4,$2,$3,$4,$5,$6,$7,$8,$9,$2,$3,0*
0 Add four circle primitives for the rounded corners*
1,1,$1+$1,$2,$3*
1,1,$1+$1,$4,$5*
1,1,$1+$1,$6,$7*
1,1,$1+$1,$8,$9*
0 Add four rect primitives between the rounded corners*
20,1,$1+$1,$2,$3,$4,$5,0*
20,1,$1+$1,$4,$5,$6,$7,0*
20,1,$1+$1,$6,$7,$8,$9,0*
20,1,$1+$1,$8,$9,$2,$3,0*%
G04 Aperture macros list end*
%TA.AperFunction,ComponentPad*%
%ADD10C,1.600000*%
%TD*%
%TA.AperFunction,ComponentPad*%
%ADD11RoundRect,0.250000X0.550000X-0.550000X0.550000X0.550000X-0.550000X0.550000X-0.550000X-0.550000X0*%
%TD*%
%TA.AperFunction,ComponentPad*%
%ADD12C,2.000000*%
%TD*%
%TA.AperFunction,ComponentPad*%
%ADD13C,0.700000*%
%TD*%
%TA.AperFunction,ComponentPad*%
%ADD14O,0.900000X2.400000*%
%TD*%
%TA.AperFunction,ComponentPad*%
%ADD15O,0.900000X1.700000*%
%TD*%
%TA.AperFunction,ComponentPad*%
%ADD16R,0.850000X0.850000*%
%TD*%
%TA.AperFunction,ComponentPad*%
%ADD17C,0.850000*%
%TD*%
%TA.AperFunction,ComponentPad*%
%ADD18C,1.500000*%
%TD*%
%TA.AperFunction,ComponentPad*%
%ADD19RoundRect,0.250000X-0.550000X-0.550000X0.550000X-0.550000X0.550000X0.550000X-0.550000X0.550000X0*%
%TD*%
%TA.AperFunction,ViaPad*%
%ADD20C,0.600000*%
%TD*%
%TA.AperFunction,Conductor*%
%ADD21C,0.200000*%
%TD*%
G04 APERTURE END LIST*
D10*
%TO.P,R8,1*%
%TO.N,Z80-MREQ*%
X111160000Y-136500000D03*
%TO.P,R8,2*%
%TO.N,Net-(D51-A)*%
X101000000Y-136500000D03*
%TD*%
%TO.P,R11,1*%
%TO.N,Z80-BUSACK*%
X143349500Y-133783000D03*
%TO.P,R11,2*%
%TO.N,Net-(D1-A)*%
X153509500Y-133783000D03*
%TD*%
%TO.P,R12,1*%
%TO.N,GND*%
X52741500Y-53746000D03*
%TO.P,R12,2*%
%TO.N,USB-C-CC1*%
X52741500Y-43586000D03*
%TD*%
%TO.P,R27,1*%
%TO.N,Z80-D5*%
X79592500Y-110500000D03*
%TO.P,R27,2*%
%TO.N,Net-(D33-K)*%
X69432500Y-110500000D03*
%TD*%
%TO.P,R15,1*%
%TO.N,Vcc-RP2040-RUN*%
X200000000Y-53000000D03*
%TO.P,R15,2*%
%TO.N,Vdd_3v3*%
X210160000Y-53000000D03*
%TD*%
D11*
%TO.P,ShiftRegisterIn2,1,~{PL}*%
%TO.N,RP2040-RWRAM-GPIO8-PL*%
X221240500Y-131539000D03*
D10*
%TO.P,ShiftRegisterIn2,2,CP*%
%TO.N,CLOCK_BUS*%
X223780500Y-131539000D03*
%TO.P,ShiftRegisterIn2,3,D4*%
%TO.N,Net-(D59-K)*%
X226320500Y-131539000D03*
%TO.P,ShiftRegisterIn2,4,D5*%
%TO.N,Net-(D63-K)*%
X228860500Y-131539000D03*
%TO.P,ShiftRegisterIn2,5,D6*%
%TO.N,Net-(D60-K)*%
X231400500Y-131539000D03*
%TO.P,ShiftRegisterIn2,6,D7*%
%TO.N,Net-(D64-K)*%
X233940500Y-131539000D03*
%TO.P,ShiftRegisterIn2,7,~{Q7}*%
%TO.N,unconnected-(ShiftRegisterIn2-~{Q7}-Pad7)*%
X236480500Y-131539000D03*
%TO.P,ShiftRegisterIn2,8,GND*%
%TO.N,GND*%
X239020500Y-131539000D03*
%TO.P,ShiftRegisterIn2,9,Q7*%
%TO.N,RP2040-RWRAM-GPIO7-Q7*%
X239020500Y-123919000D03*
%TO.P,ShiftRegisterIn2,10,DS*%
%TO.N,RP2040-RWRAM-GPIO6-DS*%
X236480500Y-123919000D03*
%TO.P,ShiftRegisterIn2,11,D0*%
%TO.N,Net-(D56-K)*%
X233940500Y-123919000D03*
%TO.P,ShiftRegisterIn2,12,D1*%
%TO.N,Net-(D61-K)*%
X231400500Y-123919000D03*
%TO.P,ShiftRegisterIn2,13,D2*%
%TO.N,Net-(D58-K)*%
X228860500Y-123919000D03*
%TO.P,ShiftRegisterIn2,14,D3*%
%TO.N,Net-(D62-K)*%
X226320500Y-123919000D03*
%TO.P,ShiftRegisterIn2,15,~{CE}*%
%TO.N,GND*%
X223780500Y-123919000D03*
%TO.P,ShiftRegisterIn2,16,VCC*%
%TO.N,Vdd_3v3*%
X221240500Y-123919000D03*
%TD*%
%TO.P,R40,1*%
%TO.N,Net-(D8-A)*%
X151672500Y-110000000D03*
%TO.P,R40,2*%
%TO.N,Z80-A0*%
X141512500Y-110000000D03*
%TD*%
%TO.P,R44,1*%
%TO.N,Net-(D26-A)*%
X151592500Y-103000000D03*
%TO.P,R44,2*%
%TO.N,Z80-A2*%
X141432500Y-103000000D03*
%TD*%
%TO.P,R46,1*%
%TO.N,Net-(D16-A)*%
X102092500Y-87000000D03*
%TO.P,R46,2*%
%TO.N,Z80-A12*%
X112252500Y-87000000D03*
%TD*%
%TO.P,R6,1*%
%TO.N,Z80-RESET*%
X143429500Y-123283000D03*
%TO.P,R6,2*%
%TO.N,Vcc*%
X153589500Y-123283000D03*
%TD*%
%TO.P,R25,1*%
%TO.N,Z80-D0*%
X79752500Y-68000000D03*
%TO.P,R25,2*%
%TO.N,Net-(D31-K)*%
X69592500Y-68000000D03*
%TD*%
%TO.P,R17,1*%
%TO.N,RP2040-Z80BOOTMODE*%
X168551500Y-59436000D03*
%TO.P,R17,2*%
%TO.N,Vdd_3v3*%
X158391500Y-59436000D03*
%TD*%
%TO.P,R26,1*%
%TO.N,Z80-D1*%
X79752500Y-76500000D03*
%TO.P,R26,2*%
%TO.N,Net-(D35-K)*%
X69592500Y-76500000D03*
%TD*%
%TO.P,R21,1*%
%TO.N,Z80-WR*%
X143432500Y-137500000D03*
%TO.P,R21,2*%
%TO.N,Net-(D55-A)*%
X153592500Y-137500000D03*
%TD*%
%TO.P,R9,1*%
%TO.N,Z80-M1*%
X143429500Y-119783000D03*
%TO.P,R9,2*%
%TO.N,Net-(D52-A)*%
X153589500Y-119783000D03*
%TD*%
%TO.P,R35,1*%
%TO.N,Net-(D43-A)*%
X52592500Y-97000000D03*
%TO.P,R35,2*%
%TO.N,RAM-Q3*%
X42432500Y-97000000D03*
%TD*%
%TO.P,R43,1*%
%TO.N,Net-(D14-A)*%
X102092500Y-83500000D03*
%TO.P,R43,2*%
%TO.N,Z80-A11*%
X112252500Y-83500000D03*
%TD*%
D12*
%TO.P,SW1,1,1*%
%TO.N,GND*%
X245583950Y-102434000D03*
X252083950Y-102434000D03*
%TO.P,SW1,2,2*%
%TO.N,Z80-WAIT*%
X245583950Y-106934000D03*
X252083950Y-106934000D03*
%TD*%
D10*
%TO.P,R36,1*%
%TO.N,Z80-D3*%
X79752500Y-93500000D03*
%TO.P,R36,2*%
%TO.N,Net-(D43-K)*%
X69592500Y-93500000D03*
%TD*%
%TO.P,R10,1*%
%TO.N,Z80-RFSH*%
X143429500Y-116283000D03*
%TO.P,R10,2*%
%TO.N,Net-(D53-A)*%
X153589500Y-116283000D03*
%TD*%
D11*
%TO.P,ShiftRegisterOut3,1,QB*%
%TO.N,Net-(D5-A)*%
X180411900Y-82539000D03*
D10*
%TO.P,ShiftRegisterOut3,2,QC*%
%TO.N,Net-(D7-A)*%
X182951900Y-82539000D03*
%TO.P,ShiftRegisterOut3,3,QD*%
%TO.N,Net-(D9-A)*%
X185491900Y-82539000D03*
%TO.P,ShiftRegisterOut3,4,QE*%
%TO.N,Net-(D11-A)*%
X188031900Y-82539000D03*
%TO.P,ShiftRegisterOut3,5,QF*%
%TO.N,Net-(D13-A)*%
X190571900Y-82539000D03*
%TO.P,ShiftRegisterOut3,6,QG*%
%TO.N,Net-(D15-A)*%
X193111900Y-82539000D03*
%TO.P,ShiftRegisterOut3,7,QH*%
%TO.N,Net-(D17-A)*%
X195651900Y-82539000D03*
%TO.P,ShiftRegisterOut3,8,GND*%
%TO.N,GND*%
X198191900Y-82539000D03*
%TO.P,ShiftRegisterOut3,9,QH'*%
%TO.N,Net-(ShiftRegisterOut1-SER)*%
X198191900Y-74919000D03*
%TO.P,ShiftRegisterOut3,10,~{SRCLR}*%
%TO.N,Vdd_3v3*%
X195651900Y-74919000D03*
%TO.P,ShiftRegisterOut3,11,SRCLK*%
%TO.N,CLOCK_BUS*%
X193111900Y-74919000D03*
%TO.P,ShiftRegisterOut3,12,RCLK*%
%TO.N,RP2040-SH-GPIO4-RCLK*%
X190571900Y-74919000D03*
%TO.P,ShiftRegisterOut3,13,~{OE}*%
%TO.N,GND*%
X188031900Y-74919000D03*
%TO.P,ShiftRegisterOut3,14,SER*%
%TO.N,RP2040-SH-GPIO2-SER*%
X185491900Y-74919000D03*
%TO.P,ShiftRegisterOut3,15,QA*%
%TO.N,Net-(D3-A)*%
X182951900Y-74919000D03*
%TO.P,ShiftRegisterOut3,16,VCC*%
%TO.N,Vdd_3v3*%
X180411900Y-74919000D03*
%TD*%
%TO.P,R2,1*%
%TO.N,Vcc*%
X100920000Y-126000000D03*
%TO.P,R2,2*%
%TO.N,Z80-INT*%
X111080000Y-126000000D03*
%TD*%
%TO.P,R53,1*%
%TO.N,Net-(R16-Pad1)*%
X71340000Y-135000000D03*
%TO.P,R53,2*%
%TO.N,Net-(C13-Pad2)*%
X81500000Y-135000000D03*
%TD*%
%TO.P,R4,1*%
%TO.N,Z80-HALT*%
X111080000Y-133000000D03*
%TO.P,R4,2*%
%TO.N,Net-(D45-A)*%
X100920000Y-133000000D03*
%TD*%
D12*
%TO.P,SW2,1,1*%
%TO.N,GND*%
X245583950Y-94184000D03*
X252083950Y-94184000D03*
%TO.P,SW2,2,2*%
%TO.N,Z80-RESET*%
X245583950Y-98684000D03*
X252083950Y-98684000D03*
%TD*%
D10*
%TO.P,R41,1*%
%TO.N,Net-(D22-A)*%
X151592500Y-106500000D03*
%TO.P,R41,2*%
%TO.N,Z80-A1*%
X141432500Y-106500000D03*
%TD*%
%TO.P,R37,1*%
%TO.N,Z80-D7*%
X79752500Y-127500000D03*
%TO.P,R37,2*%
%TO.N,Net-(D41-K)*%
X69592500Y-127500000D03*
%TD*%
%TO.P,R16,1*%
%TO.N,Net-(R16-Pad1)*%
X71420000Y-140000000D03*
%TO.P,R16,2*%
%TO.N,Vdd_3v3*%
X81580000Y-140000000D03*
%TD*%
%TO.P,R31,1*%
%TO.N,Net-(D37-A)*%
X52592500Y-122500000D03*
%TO.P,R31,2*%
%TO.N,RAM-Q6*%
X42432500Y-122500000D03*
%TD*%
%TO.P,R30,1*%
%TO.N,Net-(D39-A)*%
X52592500Y-88500000D03*
%TO.P,R30,2*%
%TO.N,RAM-Q2*%
X42432500Y-88500000D03*
%TD*%
%TO.P,R28,1*%
%TO.N,Net-(D33-A)*%
X52592500Y-114000000D03*
%TO.P,R28,2*%
%TO.N,RAM-Q5*%
X42432500Y-114000000D03*
%TD*%
%TO.P,R24,1*%
%TO.N,Z80-D4*%
X79752500Y-102000000D03*
%TO.P,R24,2*%
%TO.N,Net-(D47-K)*%
X69592500Y-102000000D03*
%TD*%
%TO.P,R48,1*%
%TO.N,Net-(D6-A)*%
X151592500Y-82000000D03*
%TO.P,R48,2*%
%TO.N,Z80-A8*%
X141432500Y-82000000D03*
%TD*%
D13*
%TO.P,USB_C1,A1,GND*%
%TO.N,GND*%
X69475000Y-44360000D03*
%TO.P,USB_C1,A4,VBUS*%
%TO.N,USB-C-VBUS*%
X68625000Y-44360000D03*
%TO.P,USB_C1,A5,CC1*%
%TO.N,USB-C-CC1*%
X67775000Y-44360000D03*
%TO.P,USB_C1,A6,D+*%
%TO.N,USB-RP2040-DP*%
X66925000Y-44360000D03*
%TO.P,USB_C1,A7,D-*%
%TO.N,USB-RP2040-DM*%
X66075000Y-44360000D03*
%TO.P,USB_C1,A8*%
%TO.N,N/C*%
X65225000Y-44360000D03*
%TO.P,USB_C1,A9,VBUS*%
%TO.N,USB-C-VBUS*%
X64375000Y-44360000D03*
%TO.P,USB_C1,A12,GND*%
%TO.N,GND*%
X63525000Y-44360000D03*
%TO.P,USB_C1,B1,GND*%
X63525000Y-43010000D03*
%TO.P,USB_C1,B4,VBUS*%
%TO.N,USB-C-VBUS*%
X64375000Y-43010000D03*
%TO.P,USB_C1,B5,CC2*%
%TO.N,USB-C-CC2*%
X65225000Y-43010000D03*
%TO.P,USB_C1,B6,D+*%
%TO.N,USB-RP2040-DP*%
X66075000Y-43010000D03*
%TO.P,USB_C1,B7,D-*%
%TO.N,USB-RP2040-DM*%
X66925000Y-43010000D03*
%TO.P,USB_C1,B8*%
%TO.N,N/C*%
X67775000Y-43010000D03*
%TO.P,USB_C1,B9,VBUS*%
%TO.N,USB-C-VBUS*%
X68625000Y-43010000D03*
%TO.P,USB_C1,B12,GND*%
%TO.N,GND*%
X69475000Y-43010000D03*
D14*
%TO.P,USB_C1,S1,SHIELD*%
%TO.N,Net-(USB_C1-SHIELD)*%
X70825000Y-43380000D03*
D15*
X70825000Y-40000000D03*
D14*
X62175000Y-43380000D03*
D15*
X62175000Y-40000000D03*
%TD*%
D10*
%TO.P,R23,1*%
%TO.N,Net-(D47-A)*%
X52592500Y-105500000D03*
%TO.P,R23,2*%
%TO.N,RAM-Q4*%
X42432500Y-105500000D03*
%TD*%
%TO.P,R5,1*%
%TO.N,Z80-WAIT*%
X143349500Y-130283000D03*
%TO.P,R5,2*%
%TO.N,Vcc*%
X153509500Y-130283000D03*
%TD*%
D16*
%TO.P,J1,1,Pin_1*%
%TO.N,RP2040-SWCLK-PIN*%
X254000000Y-61500000D03*
D17*
%TO.P,J1,2,Pin_2*%
%TO.N,RP2040-SWD-PIN*%
X254000000Y-62500000D03*
%TD*%
D12*
%TO.P,SW3,1,1*%
%TO.N,GND*%
X247833950Y-42750000D03*
X254333950Y-42750000D03*
%TO.P,SW3,2,2*%
%TO.N,RP2040-Z80BOOTMODE*%
X247833950Y-47250000D03*
X254333950Y-47250000D03*
%TD*%
D10*
%TO.P,R42,1*%
%TO.N,Net-(D2-A)*%
X151592500Y-89000000D03*
%TO.P,R42,2*%
%TO.N,Z80-A6*%
X141432500Y-89000000D03*
%TD*%
%TO.P,R52,1*%
%TO.N,Net-(D20-A)*%
X102092500Y-94000000D03*
%TO.P,R52,2*%
%TO.N,Z80-A14*%
X112252500Y-94000000D03*
%TD*%
%TO.P,R38,1*%
%TO.N,Net-(D12-A)*%
X151592500Y-75000000D03*
%TO.P,R38,2*%
%TO.N,Z80-A10*%
X141432500Y-75000000D03*
%TD*%
%TO.P,R7,1*%
%TO.N,Z80-IORQ*%
X111080000Y-140000000D03*
%TO.P,R7,2*%
%TO.N,Net-(D50-A)*%
X100920000Y-140000000D03*
%TD*%
%TO.P,R13,1*%
%TO.N,USB-C-CC2*%
X46741500Y-43586000D03*
%TO.P,R13,2*%
%TO.N,GND*%
X46741500Y-53746000D03*
%TD*%
%TO.P,R32,1*%
%TO.N,Z80-D2*%
X79752500Y-85000000D03*
%TO.P,R32,2*%
%TO.N,Net-(D39-K)*%
X69592500Y-85000000D03*
%TD*%
%TO.P,R45,1*%
%TO.N,Net-(D4-A)*%
X151592500Y-85500000D03*
%TO.P,R45,2*%
%TO.N,Z80-A7*%
X141432500Y-85500000D03*
%TD*%
%TO.P,R49,1*%
%TO.N,Net-(D18-A)*%
X102092500Y-90500000D03*
%TO.P,R49,2*%
%TO.N,Z80-A13*%
X112252500Y-90500000D03*
%TD*%
%TO.P,R33,1*%
%TO.N,Z80-D6*%
X79752500Y-119000000D03*
%TO.P,R33,2*%
%TO.N,Net-(D37-K)*%
X69592500Y-119000000D03*
%TD*%
%TO.P,R22,1*%
%TO.N,Net-(D31-A)*%
X52592500Y-71500000D03*
%TO.P,R22,2*%
%TO.N,RAM-Q0*%
X42432500Y-71500000D03*
%TD*%
%TO.P,R14,1*%
%TO.N,GND*%
X58391500Y-53786000D03*
%TO.P,R14,2*%
%TO.N,Net-(USB_C1-SHIELD)*%
X58391500Y-43626000D03*
%TD*%
%TO.P,R3,1*%
%TO.N,Z80-NMI*%
X111080000Y-129500000D03*
%TO.P,R3,2*%
%TO.N,Vcc*%
X100920000Y-129500000D03*
%TD*%
D11*
%TO.P,ShiftRegisterOut2,1,QB*%
%TO.N,Net-(D61-A)*%
X180740500Y-131039000D03*
D10*
%TO.P,ShiftRegisterOut2,2,QC*%
%TO.N,Net-(D58-A)*%
X183280500Y-131039000D03*
%TO.P,ShiftRegisterOut2,3,QD*%
%TO.N,Net-(D62-A)*%
X185820500Y-131039000D03*
%TO.P,ShiftRegisterOut2,4,QE*%
%TO.N,Net-(D59-A)*%
X188360500Y-131039000D03*
%TO.P,ShiftRegisterOut2,5,QF*%
%TO.N,Net-(D63-A)*%
X190900500Y-131039000D03*
%TO.P,ShiftRegisterOut2,6,QG*%
%TO.N,Net-(D60-A)*%
X193440500Y-131039000D03*
%TO.P,ShiftRegisterOut2,7,QH*%
%TO.N,Net-(D64-A)*%
X195980500Y-131039000D03*
%TO.P,ShiftRegisterOut2,8,GND*%
%TO.N,GND*%
X198520500Y-131039000D03*
%TO.P,ShiftRegisterOut2,9,QH'*%
%TO.N,unconnected-(ShiftRegisterOut2-QH'-Pad9)*%
X198520500Y-123419000D03*
%TO.P,ShiftRegisterOut2,10,~{SRCLR}*%
%TO.N,Vdd_3v3*%
X195980500Y-123419000D03*
%TO.P,ShiftRegisterOut2,11,SRCLK*%
%TO.N,CLOCK_BUS*%
X193440500Y-123419000D03*
%TO.P,ShiftRegisterOut2,12,RCLK*%
%TO.N,RP2040-SH-GPIO3-RCLK*%
X190900500Y-123419000D03*
%TO.P,ShiftRegisterOut2,13,~{OE}*%
%TO.N,GND*%
X188360500Y-123419000D03*
%TO.P,ShiftRegisterOut2,14,SER*%
%TO.N,RP2040-SH-GPIO3-SER*%
X185820500Y-123419000D03*
%TO.P,ShiftRegisterOut2,15,QA*%
%TO.N,Net-(D56-A)*%
X183280500Y-123419000D03*
%TO.P,ShiftRegisterOut2,16,VCC*%
%TO.N,Vdd_3v3*%
X180740500Y-123419000D03*
%TD*%
%TO.P,R29,1*%
%TO.N,Net-(D35-A)*%
X52592500Y-80000000D03*
%TO.P,R29,2*%
%TO.N,RAM-Q1*%
X42432500Y-80000000D03*
%TD*%
D11*
%TO.P,ShiftRegisterOut1,1,QB*%
%TO.N,Net-(D27-A)*%
X180131900Y-106344000D03*
D10*
%TO.P,ShiftRegisterOut1,2,QC*%
%TO.N,Net-(D21-A)*%
X182671900Y-106344000D03*
%TO.P,ShiftRegisterOut1,3,QD*%
%TO.N,Net-(D29-A)*%
X185211900Y-106344000D03*
%TO.P,ShiftRegisterOut1,4,QE*%
%TO.N,Net-(D23-A)*%
X187751900Y-106344000D03*
%TO.P,ShiftRegisterOut1,5,QF*%
%TO.N,Net-(D46-A)*%
X190291900Y-106344000D03*
%TO.P,ShiftRegisterOut1,6,QG*%
%TO.N,Net-(D25-A)*%
X192831900Y-106344000D03*
%TO.P,ShiftRegisterOut1,7,QH*%
%TO.N,Net-(D54-A)*%
X195371900Y-106344000D03*
%TO.P,ShiftRegisterOut1,8,GND*%
%TO.N,GND*%
X197911900Y-106344000D03*
%TO.P,ShiftRegisterOut1,9,QH'*%
%TO.N,unconnected-(ShiftRegisterOut1-QH'-Pad9)*%
X197911900Y-98724000D03*
%TO.P,ShiftRegisterOut1,10,~{SRCLR}*%
%TO.N,Vdd_3v3*%
X195371900Y-98724000D03*
%TO.P,ShiftRegisterOut1,11,SRCLK*%
%TO.N,CLOCK_BUS*%
X192831900Y-98724000D03*
%TO.P,ShiftRegisterOut1,12,RCLK*%
%TO.N,RP2040-SH-GPIO4-RCLK*%
X190291900Y-98724000D03*
%TO.P,ShiftRegisterOut1,13,~{OE}*%
%TO.N,GND*%
X187751900Y-98724000D03*
%TO.P,ShiftRegisterOut1,14,SER*%
%TO.N,Net-(ShiftRegisterOut1-SER)*%
X185211900Y-98724000D03*
%TO.P,ShiftRegisterOut1,15,QA*%
%TO.N,Net-(D19-A)*%
X182671900Y-98724000D03*
%TO.P,ShiftRegisterOut1,16,VCC*%
%TO.N,Vdd_3v3*%
X180131900Y-98724000D03*
%TD*%
D12*
%TO.P,SW4,1,1*%
%TO.N,GND*%
X247833950Y-51300000D03*
X254333950Y-51300000D03*
%TO.P,SW4,2,2*%
%TO.N,RP2040-RPBOOTMODE*%
X247833950Y-55800000D03*
X254333950Y-55800000D03*
%TD*%
D11*
%TO.P,RAM1,1,A14*%
%TO.N,RAM-A14*%
X93232500Y-63500000D03*
D10*
%TO.P,RAM1,2,A12*%
%TO.N,RAM-A12*%
X95772500Y-63500000D03*
%TO.P,RAM1,3,A7*%
%TO.N,RAM-A7*%
X98312500Y-63500000D03*
%TO.P,RAM1,4,A6*%
%TO.N,RAM-A6*%
X100852500Y-63500000D03*
%TO.P,RAM1,5,A5*%
%TO.N,RAM-A5*%
X103392500Y-63500000D03*
%TO.P,RAM1,6,A4*%
%TO.N,RAM-A4*%
X105932500Y-63500000D03*
%TO.P,RAM1,7,A3*%
%TO.N,RAM-A3*%
X108472500Y-63500000D03*
%TO.P,RAM1,8,A2*%
%TO.N,RAM-A2*%
X111012500Y-63500000D03*
%TO.P,RAM1,9,A1*%
%TO.N,RAM-A1*%
X113552500Y-63500000D03*
%TO.P,RAM1,10,A0*%
%TO.N,RAM-A0*%
X116092500Y-63500000D03*
%TO.P,RAM1,11,Q0*%
%TO.N,RAM-Q0*%
X118632500Y-63500000D03*
%TO.P,RAM1,12,Q1*%
%TO.N,RAM-Q1*%
X121172500Y-63500000D03*
%TO.P,RAM1,13,Q2*%
%TO.N,RAM-Q2*%
X123712500Y-63500000D03*
%TO.P,RAM1,14,GND*%
%TO.N,GND*%
X126252500Y-63500000D03*
%TO.P,RAM1,15,Q3*%
%TO.N,RAM-Q3*%
X126252500Y-48260000D03*
%TO.P,RAM1,16,Q4*%
%TO.N,RAM-Q4*%
X123712500Y-48260000D03*
%TO.P,RAM1,17,Q5*%
%TO.N,RAM-Q5*%
X121172500Y-48260000D03*
%TO.P,RAM1,18,Q6*%
%TO.N,RAM-Q6*%
X118632500Y-48260000D03*
%TO.P,RAM1,19,Q7*%
%TO.N,RAM-Q7*%
X116092500Y-48260000D03*
%TO.P,RAM1,20,~{CS}*%
%TO.N,RAM-CS*%
X113552500Y-48260000D03*
%TO.P,RAM1,21,A10*%
%TO.N,RAM-A10*%
X111012500Y-48260000D03*
%TO.P,RAM1,22,~{OE}*%
%TO.N,RAM-OE*%
X108472500Y-48260000D03*
%TO.P,RAM1,23,A11*%
%TO.N,RAM-A11*%
X105932500Y-48260000D03*
%TO.P,RAM1,24,A9*%
%TO.N,RAM-A9*%
X103392500Y-48260000D03*
%TO.P,RAM1,25,A8*%
%TO.N,RAM-A8*%
X100852500Y-48260000D03*
%TO.P,RAM1,26,A13*%
%TO.N,RAM-A13*%
X98312500Y-48260000D03*
%TO.P,RAM1,27,~{WE}*%
%TO.N,RAM-WE*%
X95772500Y-48260000D03*
%TO.P,RAM1,28,VCC*%
%TO.N,Vcc*%
X93232500Y-48260000D03*
%TD*%
D11*
%TO.P,U1,1*%
%TO.N,Net-(C13-Pad2)*%
X98880000Y-122805000D03*
D10*
%TO.P,U1,2*%
%TO.N,Z80_MANUAL_CLOCK*%
X101420000Y-122805000D03*
%TO.P,U1,3*%
%TO.N,N/C*%
X103960000Y-122805000D03*
%TO.P,U1,4*%
X106500000Y-122805000D03*
%TO.P,U1,5*%
X109040000Y-122805000D03*
%TO.P,U1,6*%
X111580000Y-122805000D03*
%TO.P,U1,7,GND*%
%TO.N,GND*%
X114120000Y-122805000D03*
%TO.P,U1,8*%
%TO.N,N/C*%
X114120000Y-115185000D03*
%TO.P,U1,9*%
X111580000Y-115185000D03*
%TO.P,U1,10*%
X109040000Y-115185000D03*
%TO.P,U1,11*%
X106500000Y-115185000D03*
%TO.P,U1,12*%
X103960000Y-115185000D03*
%TO.P,U1,13*%
X101420000Y-115185000D03*
%TO.P,U1,14,VCC*%
%TO.N,Vdd_3v3*%
X98880000Y-115185000D03*
%TD*%
%TO.P,R51,1*%
%TO.N,Net-(D24-A)*%
X151592500Y-78500000D03*
%TO.P,R51,2*%
%TO.N,Z80-A9*%
X141432500Y-78500000D03*
%TD*%
%TO.P,R20,1*%
%TO.N,Z80-RD*%
X143432500Y-141000000D03*
%TO.P,R20,2*%
%TO.N,Net-(D49-A)*%
X153592500Y-141000000D03*
%TD*%
D18*
%TO.P,Y1,1,1*%
%TO.N,RP2040_XIN*%
X173500000Y-66870000D03*
%TO.P,Y1,2,2*%
%TO.N,RP2040_XOUT*%
X173500000Y-71750000D03*
%TD*%
D10*
%TO.P,R39,1*%
%TO.N,Net-(D10-A)*%
X151592500Y-92500000D03*
%TO.P,R39,2*%
%TO.N,Z80-A5*%
X141432500Y-92500000D03*
%TD*%
%TO.P,R47,1*%
%TO.N,Net-(D28-A)*%
X151592500Y-99500000D03*
%TO.P,R47,2*%
%TO.N,Z80-A3*%
X141432500Y-99500000D03*
%TD*%
%TO.P,R50,1*%
%TO.N,Net-(D30-A)*%
X151592500Y-96000000D03*
%TO.P,R50,2*%
%TO.N,Z80-A4*%
X141432500Y-96000000D03*
%TD*%
D19*
%TO.P,Z80,1,A_{11}*%
%TO.N,Z80-A11*%
X119389500Y-85658000D03*
D10*
%TO.P,Z80,2,A_{12}*%
%TO.N,Z80-A12*%
X119389500Y-88198000D03*
%TO.P,Z80,3,A_{13}*%
%TO.N,Z80-A13*%
X119389500Y-90738000D03*
%TO.P,Z80,4,A_{14}*%
%TO.N,Z80-A14*%
X119389500Y-93278000D03*
%TO.P,Z80,5,A_{15}*%
%TO.N,Z80-A15*%
X119389500Y-95818000D03*
%TO.P,Z80,6,CLK*%
%TO.N,CLOCK_Z80*%
X119389500Y-98358000D03*
%TO.P,Z80,7,D_{4}*%
%TO.N,Z80-D4*%
X119389500Y-100898000D03*
%TO.P,Z80,8,D_{3}*%
%TO.N,Z80-D3*%
X119389500Y-103438000D03*
%TO.P,Z80,9,D_{5}*%
%TO.N,Z80-D5*%
X119389500Y-105978000D03*
%TO.P,Z80,10,D_{6}*%
%TO.N,Z80-D6*%
X119389500Y-108518000D03*
%TO.P,Z80,11,V_{CC}*%
%TO.N,Vcc*%
X119389500Y-111058000D03*
%TO.P,Z80,12,D_{2}*%
%TO.N,Z80-D2*%
X119389500Y-113598000D03*
%TO.P,Z80,13,D_{7}*%
%TO.N,Z80-D7*%
X119389500Y-116138000D03*
%TO.P,Z80,14,D_{0}*%
%TO.N,Z80-D0*%
X119389500Y-118678000D03*
%TO.P,Z80,15,D_{1}*%
%TO.N,Z80-D1*%
X119389500Y-121218000D03*
%TO.P,Z80,16,~{INT}*%
%TO.N,Z80-INT*%
X119389500Y-123758000D03*
%TO.P,Z80,17,~{NMI}*%
%TO.N,Z80-NMI*%
X119389500Y-126298000D03*
%TO.P,Z80,18,~{HALT}*%
%TO.N,Z80-HALT*%
X119389500Y-128838000D03*
%TO.P,Z80,19,~{MREQ}*%
%TO.N,Z80-MREQ*%
X119389500Y-131378000D03*
%TO.P,Z80,20,~{IORQ}*%
%TO.N,Z80-IORQ*%
X119389500Y-133918000D03*
%TO.P,Z80,21,~{RD}*%
%TO.N,Z80-RD*%
X134629500Y-133918000D03*
%TO.P,Z80,22,~{WR}*%
%TO.N,Z80-WR*%
X134629500Y-131378000D03*
%TO.P,Z80,23,~{BUSACK}*%
%TO.N,Z80-BUSACK*%
X134629500Y-128838000D03*
%TO.P,Z80,24,~{WAIT}*%
%TO.N,Z80-WAIT*%
X134629500Y-126298000D03*
%TO.P,Z80,25,~{BUSREQ}*%
%TO.N,Z80-BUSREQ*%
X134629500Y-123758000D03*
%TO.P,Z80,26,~{RESET}*%
%TO.N,Z80-RESET*%
X134629500Y-121218000D03*
%TO.P,Z80,27,~{M1}*%
%TO.N,Z80-M1*%
X134629500Y-118678000D03*
%TO.P,Z80,28,~{RFSH}*%
%TO.N,Z80-RFSH*%
X134629500Y-116138000D03*
%TO.P,Z80,29,GND*%
%TO.N,GND*%
X134629500Y-113598000D03*
%TO.P,Z80,30,A_{0}*%
%TO.N,Z80-A0*%
X134629500Y-111058000D03*
%TO.P,Z80,31,A_{1}*%
%TO.N,Z80-A1*%
X134629500Y-108518000D03*
%TO.P,Z80,32,A_{2}*%
%TO.N,Z80-A2*%
X134629500Y-105978000D03*
%TO.P,Z80,33,A_{3}*%
%TO.N,Z80-A3*%
X134629500Y-103438000D03*
%TO.P,Z80,34,A_{4}*%
%TO.N,Z80-A4*%
X134629500Y-100898000D03*
%TO.P,Z80,35,A_{5}*%
%TO.N,Z80-A5*%
X134629500Y-98358000D03*
%TO.P,Z80,36,A_{6}*%
%TO.N,Z80-A6*%
X134629500Y-95818000D03*
%TO.P,Z80,37,A_{7}*%
%TO.N,Z80-A7*%
X134629500Y-93278000D03*
%TO.P,Z80,38,A_{8}*%
%TO.N,Z80-A8*%
X134629500Y-90738000D03*
%TO.P,Z80,39,A_{9}*%
%TO.N,Z80-A9*%
X134629500Y-88198000D03*
%TO.P,Z80,40,A_{10}*%
%TO.N,Z80-A10*%
X134629500Y-85658000D03*
%TD*%
%TO.P,R1,1*%
%TO.N,Vcc*%
X153589500Y-126783000D03*
%TO.P,R1,2*%
%TO.N,Z80-BUSREQ*%
X143429500Y-126783000D03*
%TD*%
%TO.P,R18,1*%
%TO.N,RP2040-RPBOOTMODE*%
X168471500Y-53936000D03*
%TO.P,R18,2*%
%TO.N,Vdd_3v3*%
X158311500Y-53936000D03*
%TD*%
%TO.P,R34,1*%
%TO.N,Net-(D41-A)*%
X52592500Y-131000000D03*
%TO.P,R34,2*%
%TO.N,RAM-Q7*%
X42432500Y-131000000D03*
%TD*%
D12*
%TO.P,SW6,1,1*%
%TO.N,GND*%
X61000000Y-135500000D03*
X67500000Y-135500000D03*
%TO.P,SW6,2,2*%
%TO.N,Net-(R16-Pad1)*%
X61000000Y-140000000D03*
X67500000Y-140000000D03*
%TD*%
D10*
%TO.P,R19,1*%
%TO.N,Z80-A15*%
X112252500Y-98500000D03*
%TO.P,R19,2*%
%TO.N,Net-(D57-A)*%
X102092500Y-98500000D03*
%TD*%
D20*
%TO.N,RAM-A14*%
X86000000Y-94000000D03*
X230956812Y-104779186D03*
%TO.N,RAM-A9*%
X134932010Y-47000000D03*
X229891500Y-101436000D03*
%TO.N,RAM-Q6*%
X50333950Y-130184000D03*
%TO.N,RAM-Q5*%
X49333950Y-129999000D03*
%TO.N,RAM-A10*%
X133092500Y-47100000D03*
X230457187Y-102001687D03*
%TO.N,RAM-A7*%
X230391500Y-81436000D03*
X150500000Y-44000000D03*
X147000000Y-45436000D03*
X119837404Y-79384161D03*
%TO.N,RAM-A5*%
X229908039Y-80026152D03*
X119695129Y-77543658D03*
X151500000Y-46000000D03*
X148000000Y-47436000D03*
%TO.N,RAM-A12*%
X117807000Y-104877000D03*
X81600000Y-105184000D03*
X122694500Y-105000000D03*
X229500000Y-103436000D03*
%TO.N,RAM-Q4*%
X48333950Y-129584000D03*
%TO.N,Vcc*%
X74726500Y-39586000D03*
X227385400Y-75453000D03*
X252362500Y-124564000D03*
X75891500Y-54936000D03*
X221660400Y-75453000D03*
X227385400Y-99453000D03*
X223391500Y-48936000D03*
X221660400Y-99453000D03*
X77091500Y-47386000D03*
%TO.N,RAM-OE*%
X106500000Y-45900000D03*
%TO.N,RAM-A11*%
X229000000Y-102703000D03*
X90333950Y-82400000D03*
X97333950Y-61843000D03*
%TO.N,RAM-Q7*%
X51333950Y-131684000D03*
%TO.N,RAM-A6*%
X147500000Y-46436000D03*
X119924265Y-78575735D03*
X151000000Y-45000000D03*
X230518273Y-80543471D03*
%TO.N,RAM-WE*%
X165909500Y-129783000D03*
X168100000Y-131009441D03*
%TO.N,RAM-Q0*%
X46198382Y-127579708D03*
%TO.N,RAM-A0*%
X228549437Y-76778067D03*
X154000000Y-51000000D03*
X151477750Y-53022250D03*
%TO.N,RAM-A13*%
X94333950Y-61843000D03*
X230891500Y-103936000D03*
X83833950Y-86184000D03*
%TO.N,RAM-A1*%
X153500000Y-50000000D03*
X228918468Y-77487870D03*
X149000000Y-51936000D03*
%TO.N,GND*%
X78891500Y-54936000D03*
X245219500Y-130500000D03*
X165909500Y-122500000D03*
X77091500Y-42786000D03*
X72891500Y-54936000D03*
X173500000Y-80500000D03*
X173000000Y-117500000D03*
X89000000Y-108000000D03*
X165500000Y-66500000D03*
X91100000Y-136500000D03*
X87500000Y-123000000D03*
X185454000Y-58736000D03*
X221391500Y-82000000D03*
X253736000Y-125264000D03*
X229391500Y-100103000D03*
X216216500Y-59436000D03*
X221391500Y-106000000D03*
X226000000Y-76500000D03*
%TO.N,RAM-Q3*%
X47333950Y-129183000D03*
%TO.N,RAM-A3*%
X229290172Y-78810266D03*
X149000000Y-49500000D03*
X121236250Y-75999000D03*
X152500000Y-48000000D03*
%TO.N,RAM-Q2*%
X46333950Y-128782000D03*
%TO.N,RAM-Q1*%
X45598382Y-128331503D03*
%TO.N,RAM-CS*%
X98833950Y-61843000D03*
X95192500Y-98500000D03*
%TO.N,RAM-A2*%
X123256250Y-75598000D03*
X149480007Y-50455993D03*
X153000000Y-49000000D03*
X229499236Y-78038064D03*
%TO.N,RAM-A4*%
X230192139Y-79043634D03*
X148500000Y-48436000D03*
X119838215Y-76556785D03*
X152112015Y-46887985D03*
%TO.N,RAM-A8*%
X136281196Y-46541234D03*
X230391500Y-100436000D03*
%TO.N,Z80-WAIT*%
X132333950Y-139201000D03*
%TO.N,Z80-RESET*%
X131333950Y-139201000D03*
%TO.N,Vdd_3v3*%
X193383950Y-40684000D03*
X188533950Y-40684000D03*
X178833950Y-40684000D03*
X198250000Y-40750000D03*
X176000000Y-117500000D03*
X83391500Y-45086000D03*
X89000000Y-43000000D03*
X92000000Y-108000000D03*
X77091500Y-45086000D03*
X91700000Y-102500000D03*
X81891500Y-54936000D03*
X183683950Y-40684000D03*
%TO.N,RP2040-DVDD*%
X185054000Y-50272084D03*
X189000000Y-50000000D03*
%TO.N,RP2040-RWRAM-GPIO5-DIR*%
X187000010Y-68000000D03*
X184742710Y-70257290D03*
%TO.N,FLASH-DO-RP2040-QSPI_SD1*%
X182600000Y-53043762D03*
X192891500Y-56436000D03*
%TO.N,FLASH-DI-RP2040-QSPI_SD0*%
X184291500Y-51436000D03*
X190000000Y-48936000D03*
%TO.N,FLASH-CS-RP2040-QSPI_SS*%
X190500000Y-51000000D03*
X182000000Y-52500000D03*
%TO.N,USB-C-CC2*%
X64000000Y-41924000D03*
%TO.N,RP2040-RPBOOTMODE*%
X190190950Y-47184000D03*
%TO.N,RP2040_XIN*%
X184250000Y-63859743D03*
%TO.N,RP2040_XOUT*%
X185000000Y-64500000D03*
%TO.N,CLOCK_FLASH*%
X184350000Y-53536000D03*
X221250000Y-58250000D03*
%TO.N,USB-RP2040-DP*%
X162833950Y-47184000D03*
X186655000Y-54166726D03*
X161824975Y-41430000D03*
%TO.N,RP2040-SH-GPIO3-SER*%
X186650900Y-77349100D03*
%TO.N,USB-RP2040-DM*%
X160976446Y-41430001D03*
X186854000Y-56184000D03*
X161833950Y-47184000D03*
%TO.N,FLASH-HOLD-RESRT-RP2040-QSPI_SD3*%
X184854000Y-56600000D03*
X221750000Y-57000000D03*
%TO.N,FLASH-WP-RP2040-QSPI_SD2*%
X182948428Y-47948428D03*
X217982230Y-56767770D03*
%TO.N,RP2040-SWD-PIN*%
X187500000Y-64400000D03*
X186500000Y-67000000D03*
%TO.N,RP2040-RWRAM-GPIO8-PL*%
X219500000Y-120000000D03*
X237999000Y-103399000D03*
X239600000Y-103399000D03*
%TO.N,Net-(ShiftRegisterOut1-SER)*%
X201500000Y-82038000D03*
%TO.N,RP2040-SWCLK-PIN*%
X186727044Y-65772956D03*
X186693784Y-64398000D03*
%TO.N,CLOCK_Z80*%
X101150000Y-109000000D03*
%TO.N,Vcc-RP2040-RUN*%
X187454000Y-63259743D03*
X196500000Y-55000000D03*
%TO.N,CLOCK_BUS*%
X193000000Y-94000000D03*
X195250000Y-117750000D03*
X199000000Y-77000000D03*
X198000000Y-127500000D03*
%TO.N,Net-(O2--)*%
X90000000Y-102500000D03*
X98850000Y-107250000D03*
%TO.N,Z80_MANUAL_CLOCK*%
X98850000Y-110750000D03*
%TD*%
D21*
%TO.N,RAM-A14*%
X132582893Y-138600000D02*
X132085007Y-138600000D01*
X93232500Y-63500000D02*
X86000000Y-70732500D01*
X81000000Y-99000000D02*
X86000000Y-94000000D01*
X132085007Y-138600000D02*
X132084007Y-138601000D01*
X86000000Y-70732500D02*
X86000000Y-94000000D01*
X241401000Y-115504803D02*
X241401000Y-131964800D01*
X230956812Y-105060615D02*
X241401000Y-115504803D01*
X234764800Y-138601000D02*
X132583893Y-138601000D01*
X104963950Y-138601000D02*
X81000000Y-114637050D01*
X241401000Y-131964800D02*
X234764800Y-138601000D01*
X81000000Y-114637050D02*
X81000000Y-99000000D01*
X132583893Y-138601000D02*
X132582893Y-138600000D01*
X132084007Y-138601000D02*
X104963950Y-138601000D01*
X230956812Y-104779186D02*
X230956812Y-105060615D01*
%TO.N,RAM-A9*%
X230241443Y-101436000D02*
X244594000Y-87083443D01*
X232345950Y-42832000D02*
X139100900Y-42832000D01*
X244594000Y-87083443D02*
X244594000Y-55080050D01*
X244594000Y-55080050D02*
X232345950Y-42832000D01*
X139100900Y-42832000D02*
X134932900Y-47000000D01*
X229891500Y-101436000D02*
X230241443Y-101436000D01*
X134932900Y-47000000D02*
X134932010Y-47000000D01*
%TO.N,RAM-Q6*%
X49917950Y-130600000D02*
X44749950Y-130600000D01*
X39292500Y-119360000D02*
X39292500Y-70102100D01*
X42432500Y-122500000D02*
X39292500Y-119360000D01*
X50333950Y-130184000D02*
X49917950Y-130600000D01*
X50557600Y-58837000D02*
X108055500Y-58837000D01*
X39292500Y-70102100D02*
X50557600Y-58837000D01*
X44749950Y-130600000D02*
X42432500Y-128282550D01*
X42432500Y-128282550D02*
X42432500Y-122500000D01*
X108055500Y-58837000D02*
X118632500Y-48260000D01*
%TO.N,RAM-Q5*%
X43333950Y-123155600D02*
X43333950Y-128616900D01*
X49148950Y-130184000D02*
X49333950Y-129999000D01*
X42432500Y-114000000D02*
X39693500Y-111261000D01*
X43533500Y-122043950D02*
X43533500Y-122956050D01*
X50723700Y-59238000D02*
X110194500Y-59238000D01*
X39693500Y-70268200D02*
X50723700Y-59238000D01*
X43333950Y-121844400D02*
X43533500Y-122043950D01*
X44901050Y-130184000D02*
X49148950Y-130184000D01*
X43333950Y-128616900D02*
X44901050Y-130184000D01*
X42432500Y-114000000D02*
X43333950Y-114901450D01*
X43533500Y-122956050D02*
X43333950Y-123155600D01*
X39693500Y-111261000D02*
X39693500Y-70268200D01*
X43333950Y-114901450D02*
X43333950Y-121844400D01*
X110194500Y-59238000D02*
X121172500Y-48260000D01*
%TO.N,RAM-A10*%
X230457187Y-102001687D02*
X230457187Y-101787356D01*
X232512050Y-42431000D02*
X138934800Y-42431000D01*
X230457187Y-101787356D02*
X244995000Y-87249543D01*
X244995000Y-87249543D02*
X244995000Y-54913950D01*
X138934800Y-42431000D02*
X135865800Y-45500000D01*
X135865800Y-45500000D02*
X134692500Y-45500000D01*
X244995000Y-54913950D02*
X232512050Y-42431000D01*
X134692500Y-45500000D02*
X133092500Y-47100000D01*
%TO.N,RAM-A7*%
X154497500Y-54515443D02*
X154497500Y-52356557D01*
X231119273Y-80509571D02*
X231119273Y-80792414D01*
X120044830Y-79176735D02*
X120173208Y-79176735D01*
X151006543Y-43634000D02*
X232013750Y-43634000D01*
X230475687Y-81436000D02*
X230391500Y-81436000D01*
X120173208Y-79176735D02*
X120525265Y-78824678D01*
X150500000Y-44000000D02*
X150640543Y-44000000D01*
X120525265Y-78696300D02*
X121419565Y-77802000D01*
X121419565Y-77802000D02*
X131210943Y-77802000D01*
X119837404Y-79384161D02*
X120044830Y-79176735D01*
X147576943Y-45436000D02*
X147000000Y-45436000D01*
X232013750Y-43634000D02*
X243792000Y-55412250D01*
X231119273Y-80792414D02*
X230475687Y-81436000D01*
X120525265Y-78824678D02*
X120525265Y-78696300D01*
X150640543Y-44000000D02*
X151006543Y-43634000D01*
X131210943Y-77802000D02*
X154497500Y-54515443D01*
X243792000Y-67836844D02*
X231119273Y-80509571D01*
X243792000Y-55412250D02*
X243792000Y-67836844D01*
X154497500Y-52356557D02*
X147576943Y-45436000D01*
%TO.N,RAM-A5*%
X119695129Y-77543658D02*
X119846600Y-77543658D01*
X153695500Y-54183243D02*
X153695500Y-52688757D01*
X230552173Y-79942471D02*
X230269330Y-79942471D01*
X151500000Y-46000000D02*
X153064000Y-44436000D01*
X148442743Y-47436000D02*
X148000000Y-47436000D01*
X230185649Y-80026152D02*
X229908039Y-80026152D01*
X230269330Y-79942471D02*
X230185649Y-80026152D01*
X119846600Y-77543658D02*
X120390258Y-77000000D01*
X153695500Y-52688757D02*
X148442743Y-47436000D01*
X242990000Y-55744450D02*
X242990000Y-67504644D01*
X153064000Y-44436000D02*
X231681550Y-44436000D01*
X242990000Y-67504644D02*
X230552173Y-79942471D01*
X130878743Y-77000000D02*
X153695500Y-54183243D01*
X120390258Y-77000000D02*
X130878743Y-77000000D01*
X231681550Y-44436000D02*
X242990000Y-55744450D01*
%TO.N,RAM-A12*%
X153136450Y-136399000D02*
X154048550Y-136399000D01*
X122694500Y-105000000D02*
X122571500Y-104877000D01*
X81401000Y-111901000D02*
X107700000Y-138200000D01*
X144768400Y-138200000D02*
X152256600Y-138200000D01*
X142331500Y-137043950D02*
X142976450Y-136399000D01*
X144533500Y-137965100D02*
X144768400Y-138200000D01*
X142096600Y-138200000D02*
X142331500Y-137965100D01*
X229500000Y-104170903D02*
X229500000Y-103436000D01*
X107700000Y-138200000D02*
X131917907Y-138200000D01*
X144533500Y-137043950D02*
X144533500Y-137965100D01*
X131917907Y-138200000D02*
X131918907Y-138199000D01*
X154048550Y-136399000D02*
X154693500Y-137043950D01*
X142976450Y-136399000D02*
X143888550Y-136399000D01*
X122571500Y-104877000D02*
X117807000Y-104877000D01*
X132749993Y-138200000D02*
X142096600Y-138200000D01*
X143888550Y-136399000D02*
X144533500Y-137043950D01*
X152491500Y-137965100D02*
X152491500Y-137043950D01*
X241000000Y-131798700D02*
X241000000Y-115670903D01*
X142331500Y-137965100D02*
X142331500Y-137043950D01*
X131918907Y-138199000D02*
X132748993Y-138199000D01*
X152256600Y-138200000D02*
X152491500Y-137965100D01*
X81600000Y-105184000D02*
X81600000Y-105584000D01*
X154928400Y-138200000D02*
X234598700Y-138200000D01*
X152491500Y-137043950D02*
X153136450Y-136399000D01*
X241000000Y-115670903D02*
X229500000Y-104170903D01*
X154693500Y-137965100D02*
X154928400Y-138200000D01*
X81600000Y-105584000D02*
X81401000Y-105783000D01*
X154693500Y-137043950D02*
X154693500Y-137965100D01*
X81401000Y-105783000D02*
X81401000Y-111901000D01*
X132748993Y-138199000D02*
X132749993Y-138200000D01*
X234598700Y-138200000D02*
X241000000Y-131798700D01*
%TO.N,RAM-Q4*%
X45067150Y-129783000D02*
X48134950Y-129783000D01*
X43934500Y-121877850D02*
X43934500Y-123122150D01*
X43833950Y-128549800D02*
X45067150Y-129783000D01*
X42432500Y-105500000D02*
X43833950Y-106901450D01*
X110360600Y-59639000D02*
X110365600Y-59634000D01*
X48134950Y-129783000D02*
X48333950Y-129584000D01*
X42432500Y-105500000D02*
X40094500Y-103162000D01*
X43934500Y-123122150D02*
X43833950Y-123222700D01*
X40094500Y-70434300D02*
X50889800Y-59639000D01*
X43833950Y-106901450D02*
X43833950Y-121777300D01*
X43833950Y-121777300D02*
X43934500Y-121877850D01*
X110365600Y-59634000D02*
X112338500Y-59634000D01*
X50889800Y-59639000D02*
X110360600Y-59639000D01*
X40094500Y-103162000D02*
X40094500Y-70434300D01*
X112338500Y-59634000D02*
X123712500Y-48260000D01*
X43833950Y-123222700D02*
X43833950Y-128549800D01*
%TO.N,RAM-OE*%
X106500000Y-46287500D02*
X108472500Y-48260000D01*
X106500000Y-45900000D02*
X106500000Y-46287500D01*
%TO.N,RAM-A11*%
X144054650Y-135998000D02*
X142810350Y-135998000D01*
X99000000Y-126000000D02*
X99000000Y-124796450D01*
X131752807Y-137798000D02*
X131751807Y-137799000D01*
X229000000Y-102703000D02*
X228899000Y-102804000D01*
X131751807Y-137799000D02*
X110799000Y-137799000D01*
X144934500Y-136877850D02*
X144054650Y-135998000D01*
X234432600Y-137799000D02*
X155094500Y-137799000D01*
X94540456Y-78193494D02*
X94540456Y-63174994D01*
X87000000Y-112796450D02*
X87000000Y-85733950D01*
X95872450Y-61843000D02*
X97333950Y-61843000D01*
X132916093Y-137799000D02*
X132915093Y-137798000D01*
X152090500Y-136877850D02*
X152090500Y-137799000D01*
X152970350Y-135998000D02*
X152090500Y-136877850D01*
X144934500Y-137799000D02*
X144934500Y-136877850D01*
X152090500Y-137799000D02*
X144934500Y-137799000D01*
X94540456Y-63174994D02*
X95872450Y-61843000D01*
X90333950Y-82400000D02*
X94540456Y-78193494D01*
X141930500Y-136877850D02*
X141930500Y-137799000D01*
X87000000Y-85733950D02*
X90333950Y-82400000D01*
X154214650Y-135998000D02*
X152970350Y-135998000D01*
X240599000Y-131632600D02*
X234432600Y-137799000D01*
X132915093Y-137798000D02*
X131752807Y-137798000D01*
X228899000Y-104137003D02*
X240599000Y-115837003D01*
X240599000Y-115837003D02*
X240599000Y-131632600D01*
X110799000Y-137799000D02*
X99000000Y-126000000D01*
X99000000Y-124796450D02*
X87000000Y-112796450D01*
X141930500Y-137799000D02*
X132916093Y-137799000D01*
X228899000Y-102804000D02*
X228899000Y-104137003D01*
X142810350Y-135998000D02*
X141930500Y-136877850D01*
X155094500Y-137799000D02*
X155094500Y-136877850D01*
X155094500Y-136877850D02*
X154214650Y-135998000D01*
%TO.N,RAM-Q7*%
X50649950Y-131000000D02*
X51333950Y-131684000D01*
X50391500Y-58436000D02*
X105916500Y-58436000D01*
X42432500Y-131000000D02*
X40955500Y-131000000D01*
X38891500Y-128936000D02*
X38891500Y-69936000D01*
X38891500Y-69936000D02*
X50391500Y-58436000D01*
X42432500Y-131000000D02*
X50649950Y-131000000D01*
X40955500Y-131000000D02*
X38891500Y-128936000D01*
X105916500Y-58436000D02*
X116092500Y-48260000D01*
%TO.N,RAM-A6*%
X154096500Y-54349343D02*
X154096500Y-52522657D01*
X230718273Y-80543471D02*
X230518273Y-80543471D01*
X231847650Y-44035000D02*
X243391000Y-55578350D01*
X154096500Y-52522657D02*
X148009843Y-46436000D01*
X119924265Y-78575735D02*
X121099000Y-77401000D01*
X148009843Y-46436000D02*
X147500000Y-46436000D01*
X121099000Y-77401000D02*
X131044843Y-77401000D01*
X131044843Y-77401000D02*
X154096500Y-54349343D01*
X243391000Y-67670744D02*
X230718273Y-80343471D01*
X151965000Y-44035000D02*
X231847650Y-44035000D01*
X230718273Y-80343471D02*
X230718273Y-80543471D01*
X151000000Y-45000000D02*
X151965000Y-44035000D01*
X243391000Y-55578350D02*
X243391000Y-67670744D01*
%TO.N,RAM-WE*%
X167135941Y-131009441D02*
X165909500Y-129783000D01*
X168100000Y-131009441D02*
X167135941Y-131009441D01*
%TO.N,RAM-Q0*%
X45538500Y-90471800D02*
X45333950Y-90267250D01*
X42432500Y-70364700D02*
X51554200Y-61243000D01*
X42432500Y-71500000D02*
X42432500Y-70364700D01*
X45538500Y-126919826D02*
X45538500Y-90471800D01*
X116375500Y-61243000D02*
X118632500Y-63500000D01*
X51554200Y-61243000D02*
X116375500Y-61243000D01*
X45333950Y-90267250D02*
X45333950Y-74401450D01*
X45333950Y-74401450D02*
X42432500Y-71500000D01*
X46198382Y-127579708D02*
X45538500Y-126919826D01*
%TO.N,RAM-A0*%
X140225400Y-51535000D02*
X125161400Y-66599000D01*
X148551057Y-51535000D02*
X140225400Y-51535000D01*
X151477750Y-53022250D02*
X149990500Y-51535000D01*
X230881077Y-76778067D02*
X228549437Y-76778067D01*
X117218600Y-66599000D02*
X116092500Y-65472900D01*
X148751057Y-51335000D02*
X148551057Y-51535000D01*
X230851050Y-46441000D02*
X240985000Y-56574950D01*
X154000000Y-51000000D02*
X158559000Y-46441000D01*
X149448943Y-51535000D02*
X149248943Y-51335000D01*
X149990500Y-51535000D02*
X149448943Y-51535000D01*
X149248943Y-51335000D02*
X148751057Y-51335000D01*
X240985000Y-56574950D02*
X240985000Y-66674144D01*
X240985000Y-66674144D02*
X230881077Y-76778067D01*
X158559000Y-46441000D02*
X230851050Y-46441000D01*
X116092500Y-65472900D02*
X116092500Y-63500000D01*
X125161400Y-66599000D02*
X117218600Y-66599000D01*
%TO.N,RAM-A13*%
X133310457Y-44000000D02*
X99500000Y-44000000D01*
X231058187Y-101753456D02*
X245396000Y-87415643D01*
X230891500Y-103936000D02*
X230891500Y-102417317D01*
X231058187Y-102250630D02*
X231058187Y-101753456D01*
X99500000Y-44000000D02*
X98312500Y-45187500D01*
X245396000Y-87415643D02*
X245396000Y-54747850D01*
X83833950Y-86184000D02*
X83833950Y-71012390D01*
X93003340Y-61843000D02*
X94333950Y-61843000D01*
X83833950Y-71012390D02*
X93003340Y-61843000D01*
X245396000Y-54747850D02*
X232678150Y-42030000D01*
X135280457Y-42030000D02*
X133310457Y-44000000D01*
X232678150Y-42030000D02*
X135280457Y-42030000D01*
X98312500Y-45187500D02*
X98312500Y-48260000D01*
X230891500Y-102417317D02*
X231058187Y-102250630D01*
%TO.N,RAM-A1*%
X125327500Y-67000000D02*
X117052500Y-67000000D01*
X229250293Y-77437064D02*
X229199487Y-77487870D01*
X229199487Y-77487870D02*
X228918468Y-77487870D01*
X140391500Y-51936000D02*
X125327500Y-67000000D01*
X230738374Y-77487870D02*
X229798985Y-77487870D01*
X153500000Y-50000000D02*
X157460000Y-46040000D01*
X241386000Y-56408850D02*
X241386000Y-66840244D01*
X229748179Y-77437064D02*
X229250293Y-77437064D01*
X231017150Y-46040000D02*
X241386000Y-56408850D01*
X157460000Y-46040000D02*
X231017150Y-46040000D01*
X229798985Y-77487870D02*
X229748179Y-77437064D01*
X149000000Y-51936000D02*
X140391500Y-51936000D01*
X117052500Y-67000000D02*
X113552500Y-63500000D01*
X241386000Y-66840244D02*
X230738374Y-77487870D01*
%TO.N,RAM-Q3*%
X45233250Y-129382000D02*
X44333950Y-128482700D01*
X42432500Y-97000000D02*
X40495500Y-95063000D01*
X44333950Y-128482700D02*
X44333950Y-123289800D01*
X40495500Y-95063000D02*
X40495500Y-70600400D01*
X110526700Y-60040000D02*
X110531700Y-60035000D01*
X44333950Y-98901450D02*
X42432500Y-97000000D01*
X44333950Y-121710200D02*
X44333950Y-98901450D01*
X44335500Y-121711750D02*
X44333950Y-121710200D01*
X40495500Y-70600400D02*
X51055900Y-60040000D01*
X51055900Y-60040000D02*
X110526700Y-60040000D01*
X44335500Y-123288250D02*
X44335500Y-121711750D01*
X47333950Y-129183000D02*
X47134950Y-129382000D01*
X114477500Y-60035000D02*
X126252500Y-48260000D01*
X47134950Y-129382000D02*
X45233250Y-129382000D01*
X110531700Y-60035000D02*
X114477500Y-60035000D01*
X44333950Y-123289800D02*
X44335500Y-123288250D01*
%TO.N,RAM-A3*%
X242188000Y-56076650D02*
X242188000Y-67172444D01*
X231349350Y-45238000D02*
X242188000Y-56076650D01*
X229591139Y-78794691D02*
X229591139Y-78796104D01*
X229576977Y-78810266D02*
X229290172Y-78810266D01*
X130546543Y-76198000D02*
X152893500Y-53851043D01*
X152500000Y-48000000D02*
X155262000Y-45238000D01*
X152893500Y-53020957D02*
X149372543Y-49500000D01*
X121435250Y-76198000D02*
X130546543Y-76198000D01*
X149372543Y-49500000D02*
X149000000Y-49500000D01*
X229943196Y-78442634D02*
X229591139Y-78794691D01*
X242188000Y-67172444D02*
X230917810Y-78442634D01*
X155262000Y-45238000D02*
X231349350Y-45238000D01*
X230917810Y-78442634D02*
X229943196Y-78442634D01*
X229591139Y-78796104D02*
X229576977Y-78810266D01*
X152893500Y-53851043D02*
X152893500Y-53020957D01*
X121236250Y-75999000D02*
X121435250Y-76198000D01*
%TO.N,RAM-Q2*%
X110697800Y-60436000D02*
X120648500Y-60436000D01*
X51222000Y-60441000D02*
X110692800Y-60441000D01*
X44734950Y-128184000D02*
X44736500Y-128182450D01*
X44736500Y-90804000D02*
X42432500Y-88500000D01*
X46134950Y-128981000D02*
X45399350Y-128981000D01*
X42432500Y-88500000D02*
X40896500Y-86964000D01*
X46333950Y-128782000D02*
X46134950Y-128981000D01*
X45399350Y-128981000D02*
X44734950Y-128316600D01*
X40896500Y-70766500D02*
X51222000Y-60441000D01*
X40896500Y-86964000D02*
X40896500Y-70766500D01*
X110692800Y-60441000D02*
X110697800Y-60436000D01*
X44734950Y-128316600D02*
X44734950Y-128184000D01*
X120648500Y-60436000D02*
X123712500Y-63500000D01*
X44736500Y-128182450D02*
X44736500Y-90804000D01*
%TO.N,RAM-Q1*%
X118514500Y-60842000D02*
X121172500Y-63500000D01*
X41297500Y-70932600D02*
X51388100Y-60842000D01*
X44833950Y-85184000D02*
X42432500Y-82782550D01*
X42432500Y-82782550D02*
X42432500Y-80000000D01*
X45137500Y-90637900D02*
X44833950Y-90334350D01*
X45598382Y-128331503D02*
X45137500Y-127870621D01*
X45137500Y-127870621D02*
X45137500Y-90637900D01*
X44833950Y-90334350D02*
X44833950Y-85184000D01*
X41297500Y-78865000D02*
X41297500Y-70932600D01*
X42432500Y-80000000D02*
X41297500Y-78865000D01*
X51388100Y-60842000D02*
X118514500Y-60842000D01*
%TO.N,RAM-CS*%
X95500000Y-98192500D02*
X95500000Y-64755450D01*
X98412450Y-61843000D02*
X98833950Y-61843000D01*
X95192500Y-98500000D02*
X95500000Y-98192500D01*
X95500000Y-64755450D02*
X95654450Y-64601000D01*
X96873500Y-63956050D02*
X96873500Y-63381950D01*
X96228550Y-64601000D02*
X96873500Y-63956050D01*
X96873500Y-63381950D02*
X98412450Y-61843000D01*
X95654450Y-64601000D02*
X96228550Y-64601000D01*
%TO.N,RAM-A2*%
X123780000Y-75797000D02*
X130380443Y-75797000D01*
X149741443Y-50436000D02*
X149500000Y-50436000D01*
X156361000Y-45639000D02*
X231183250Y-45639000D01*
X241787000Y-67006344D02*
X230755280Y-78038064D01*
X231183250Y-45639000D02*
X241787000Y-56242750D01*
X123256250Y-75598000D02*
X123581000Y-75598000D01*
X130380443Y-75797000D02*
X152492500Y-53684943D01*
X149500000Y-50436000D02*
X149480007Y-50455993D01*
X123581000Y-75598000D02*
X123780000Y-75797000D01*
X241787000Y-56242750D02*
X241787000Y-67006344D01*
X152492500Y-53684943D02*
X152492500Y-53187057D01*
X152492500Y-53187057D02*
X149741443Y-50436000D01*
X153000000Y-49000000D02*
X156361000Y-45639000D01*
X230755280Y-78038064D02*
X229499236Y-78038064D01*
%TO.N,RAM-A4*%
X242589000Y-67338544D02*
X230883910Y-79043634D01*
X152112015Y-46887985D02*
X154163000Y-44837000D01*
X153294500Y-52854857D02*
X148875643Y-48436000D01*
X242589000Y-55910550D02*
X242589000Y-67338544D01*
X230883910Y-79043634D02*
X230192139Y-79043634D01*
X231515450Y-44837000D02*
X242589000Y-55910550D01*
X130712643Y-76599000D02*
X153294500Y-54017143D01*
X153294500Y-54017143D02*
X153294500Y-52854857D01*
X119880430Y-76599000D02*
X130712643Y-76599000D01*
X119838215Y-76556785D02*
X119880430Y-76599000D01*
X148875643Y-48436000D02*
X148500000Y-48436000D01*
X154163000Y-44837000D02*
X231515450Y-44837000D01*
%TO.N,RAM-A8*%
X244193000Y-55246150D02*
X232179850Y-43233000D01*
X244193000Y-86917343D02*
X244193000Y-55246150D01*
X230674343Y-100436000D02*
X244193000Y-86917343D01*
X232179850Y-43233000D02*
X139267000Y-43233000D01*
X136285265Y-46537165D02*
X136281196Y-46541234D01*
X136285265Y-46214735D02*
X136285265Y-46537165D01*
X230391500Y-100436000D02*
X230674343Y-100436000D01*
X139267000Y-43233000D02*
X136285265Y-46214735D01*
%TO.N,Z80-WAIT*%
X132532950Y-139002000D02*
X132333950Y-139201000D01*
X245583950Y-106934000D02*
X245583950Y-128348950D01*
X245583950Y-128348950D02*
X234930900Y-139002000D01*
X234930900Y-139002000D02*
X132532950Y-139002000D01*
%TO.N,Z80-RESET*%
X235097000Y-139403000D02*
X133000000Y-139403000D01*
X245984950Y-109015050D02*
X245984950Y-128515050D01*
X247000000Y-100100050D02*
X247000000Y-108000000D01*
X131333950Y-139201000D02*
X131934950Y-139802000D01*
X131934950Y-139802000D02*
X132601000Y-139802000D01*
X245984950Y-128515050D02*
X235097000Y-139403000D01*
X245583950Y-98684000D02*
X247000000Y-100100050D01*
X247000000Y-108000000D02*
X245984950Y-109015050D01*
X132601000Y-139802000D02*
X133000000Y-139403000D01*
%TO.N,RP2040-DVDD*%
X185054000Y-50227916D02*
X185054000Y-50272084D01*
X189000000Y-50000000D02*
X185281916Y-50000000D01*
X185281916Y-50000000D02*
X185054000Y-50227916D01*
%TO.N,RP2040-RWRAM-GPIO5-DIR*%
X184742720Y-70257290D02*
X187000010Y-68000000D01*
X184742710Y-70257290D02*
X184742720Y-70257290D01*
%TO.N,FLASH-DO-RP2040-QSPI_SD1*%
X189390500Y-52935000D02*
X192891500Y-56436000D01*
X182600000Y-53043762D02*
X182708762Y-52935000D01*
X182708762Y-52935000D02*
X189390500Y-52935000D01*
%TO.N,FLASH-DI-RP2040-QSPI_SD0*%
X190000000Y-48936000D02*
X185541557Y-48936000D01*
X185541557Y-48936000D02*
X184391500Y-50086057D01*
X184391500Y-50086057D02*
X184391500Y-51436000D01*
X184391500Y-51436000D02*
X184291500Y-51436000D01*
%TO.N,FLASH-CS-RP2040-QSPI_SS*%
X182000000Y-52500000D02*
X182064000Y-52436000D01*
X182064000Y-52436000D02*
X184891500Y-52436000D01*
X190436000Y-50936000D02*
X190500000Y-51000000D01*
X184891500Y-52436000D02*
X186391500Y-50936000D01*
X186391500Y-50936000D02*
X190436000Y-50936000D01*
%TO.N,USB-C-CC2*%
X65026000Y-42811000D02*
X65225000Y-43010000D01*
X64000000Y-41924000D02*
X64435000Y-42359000D01*
X65026000Y-42740346D02*
X65026000Y-42811000D01*
X64644654Y-42359000D02*
X65026000Y-42740346D01*
X64435000Y-42359000D02*
X64644654Y-42359000D01*
%TO.N,Net-(USB_C1-SHIELD)*%
X62175000Y-43380000D02*
X61620000Y-43380000D01*
X70825000Y-40000000D02*
X62175000Y-40000000D01*
X70825000Y-43380000D02*
X70825000Y-40000000D01*
X61620000Y-43380000D02*
X61374000Y-43626000D01*
X62175000Y-40000000D02*
X62175000Y-43380000D01*
X61374000Y-43626000D02*
X58391500Y-43626000D01*
%TO.N,RP2040-RPBOOTMODE*%
X190190950Y-47184000D02*
X175223500Y-47184000D01*
X175223500Y-47184000D02*
X168471500Y-53936000D01*
%TO.N,RP2040_XIN*%
X184250000Y-63859743D02*
X181239743Y-66870000D01*
X181239743Y-66870000D02*
X173500000Y-66870000D01*
%TO.N,RP2040_XOUT*%
X182000000Y-67500000D02*
X177750000Y-67500000D01*
X185000000Y-64500000D02*
X182000000Y-67500000D01*
X177750000Y-67500000D02*
X173500000Y-71750000D01*
%TO.N,CLOCK_FLASH*%
X184834274Y-53565726D02*
X184697758Y-53702242D01*
X184697758Y-53702242D02*
X184659714Y-53702242D01*
X221250000Y-58250000D02*
X221000000Y-58250000D01*
X193105557Y-57500000D02*
X189171283Y-53565726D01*
X221000000Y-58250000D02*
X220250000Y-57500000D01*
X189171283Y-53565726D02*
X184834274Y-53565726D01*
X220250000Y-57500000D02*
X193105557Y-57500000D01*
X184493472Y-53536000D02*
X184350000Y-53536000D01*
X184659714Y-53702242D02*
X184493472Y-53536000D01*
%TO.N,USB-RP2040-DP*%
X161577446Y-41181058D02*
X161225389Y-40829001D01*
X96766800Y-45599000D02*
X90918950Y-45599000D01*
X87333950Y-49184000D02*
X70333950Y-49184000D01*
X66925000Y-45775050D02*
X66925000Y-44360000D01*
X161577446Y-41182471D02*
X161577446Y-41181058D01*
X70333950Y-49184000D02*
X66925000Y-45775050D01*
X132978257Y-43198000D02*
X99167800Y-43198000D01*
X160328504Y-41228000D02*
X134948257Y-41228000D01*
X66075000Y-43439346D02*
X66925000Y-44289346D01*
X161824975Y-41430000D02*
X161577446Y-41182471D01*
X99167800Y-43198000D02*
X96766800Y-45599000D01*
X162833950Y-50061175D02*
X162833950Y-47184000D01*
X168371775Y-55599000D02*
X162833950Y-50061175D01*
X160727503Y-40829001D02*
X160328504Y-41228000D01*
X66075000Y-43010000D02*
X66075000Y-43439346D01*
X134948257Y-41228000D02*
X132978257Y-43198000D01*
X182000000Y-54500000D02*
X180901000Y-55599000D01*
X186082523Y-54500000D02*
X182000000Y-54500000D01*
X186415797Y-54166726D02*
X186082523Y-54500000D01*
X161225389Y-40829001D02*
X160727503Y-40829001D01*
X66925000Y-44289346D02*
X66925000Y-44360000D01*
X90918950Y-45599000D02*
X87333950Y-49184000D01*
X180901000Y-55599000D02*
X168371775Y-55599000D01*
X186655000Y-54166726D02*
X186415797Y-54166726D01*
%TO.N,RP2040-SH-GPIO3-SER*%
X186650900Y-77349100D02*
X186650900Y-122588600D01*
X186650900Y-122588600D02*
X185820500Y-123419000D01*
%TO.N,USB-RP2040-DM*%
X168205675Y-56000000D02*
X186670000Y-56000000D01*
X133144357Y-43599000D02*
X99333900Y-43599000D01*
X96932900Y-46000000D02*
X91085050Y-46000000D01*
X99333900Y-43599000D02*
X96932900Y-46000000D01*
X66075000Y-45492150D02*
X66075000Y-44360000D01*
X160976446Y-41430001D02*
X160777447Y-41629000D01*
X87500050Y-49585000D02*
X70167850Y-49585000D01*
X161833950Y-47184000D02*
X161833950Y-49628275D01*
X70167850Y-49585000D02*
X66075000Y-45492150D01*
X186670000Y-56000000D02*
X186854000Y-56184000D01*
X161833950Y-49628275D02*
X168205675Y-56000000D01*
X135114357Y-41629000D02*
X133144357Y-43599000D01*
X160777447Y-41629000D02*
X135114357Y-41629000D01*
X91085050Y-46000000D02*
X87500050Y-49585000D01*
%TO.N,FLASH-HOLD-RESRT-RP2040-QSPI_SD3*%
X221851000Y-57101000D02*
X221750000Y-57000000D01*
X185039000Y-56785000D02*
X189965057Y-56785000D01*
X190351057Y-56399000D02*
X191437457Y-56399000D01*
X193873457Y-58835000D02*
X220985057Y-58835000D01*
X221851000Y-58498943D02*
X221851000Y-57101000D01*
X189965057Y-56785000D02*
X190351057Y-56399000D01*
X220985057Y-58835000D02*
X221001057Y-58851000D01*
X184854000Y-56600000D02*
X185039000Y-56785000D01*
X191437457Y-56399000D02*
X193873457Y-58835000D01*
X221498943Y-58851000D02*
X221851000Y-58498943D01*
X221001057Y-58851000D02*
X221498943Y-58851000D01*
%TO.N,RP2040-SH-GPIO4-RCLK*%
X189470900Y-76020000D02*
X189470900Y-97903000D01*
X189470900Y-97903000D02*
X190291900Y-98724000D01*
X190571900Y-74919000D02*
X189470900Y-76020000D01*
%TO.N,FLASH-WP-RP2040-QSPI_SD2*%
X182948428Y-47948428D02*
X183100110Y-47796746D01*
X209011206Y-47796746D02*
X217982230Y-56767770D01*
X183100110Y-47796746D02*
X209011206Y-47796746D01*
%TO.N,RP2040-SWD-PIN*%
X187500000Y-66000000D02*
X187500000Y-64400000D01*
X186500000Y-67000000D02*
X187500000Y-66000000D01*
%TO.N,RP2040-RWRAM-GPIO8-PL*%
X219039000Y-131539000D02*
X221240500Y-131539000D01*
X219500000Y-120000000D02*
X218000000Y-121500000D01*
X218000000Y-130500000D02*
X219039000Y-131539000D01*
X237999000Y-103399000D02*
X239600000Y-103399000D01*
X218000000Y-121500000D02*
X218000000Y-130500000D01*
%TO.N,Net-(ShiftRegisterOut1-SER)*%
X201500000Y-82038000D02*
X201500000Y-81000000D01*
X198191900Y-77691900D02*
X198191900Y-74919000D01*
X201500000Y-81000000D02*
X198191900Y-77691900D01*
%TO.N,RP2040-SWCLK-PIN*%
X186727044Y-64431260D02*
X186693784Y-64398000D01*
X186727044Y-65772956D02*
X186727044Y-64431260D01*
%TO.N,CLOCK_Z80*%
X119389500Y-98358000D02*
X108747500Y-109000000D01*
X108747500Y-109000000D02*
X101150000Y-109000000D01*
%TO.N,CLOCK_BUS*%
X202500000Y-84500000D02*
X193000000Y-94000000D01*
X195250000Y-117750000D02*
X193440500Y-119559500D01*
X202500000Y-80500000D02*
X202500000Y-84500000D01*
X198000000Y-127500000D02*
X197521500Y-127500000D01*
X195250000Y-117750000D02*
X199012900Y-113987100D01*
X193440500Y-119559500D02*
X193440500Y-123419000D01*
X197521500Y-127500000D02*
X193440500Y-123419000D01*
X199012900Y-113987100D02*
X199012900Y-104905000D01*
X199000000Y-77000000D02*
X202500000Y-80500000D01*
X199012900Y-104905000D02*
X192831900Y-98724000D01*
%TO.N,Net-(O2--)*%
X94750000Y-107250000D02*
X90000000Y-102500000D01*
X98850000Y-107250000D02*
X94750000Y-107250000D01*
%TO.N,Z80_MANUAL_CLOCK*%
X97000000Y-110750000D02*
X98850000Y-110750000D01*
X96500000Y-111250000D02*
X97000000Y-110750000D01*
X101420000Y-122805000D02*
X96500000Y-117885000D01*
X96500000Y-117885000D02*
X96500000Y-111250000D01*
%TD*%
M02*
