%TF.GenerationSoftware,KiCad,Pcbnew,9.0.6*%
%TF.CreationDate,2025-12-05T10:13:41+01:00*%
%TF.ProjectId,Z80DevBoard,5a383044-6576-4426-9f61-72642e6b6963,rev?*%
%TF.SameCoordinates,Original*%
%TF.FileFunction,Copper,L2,Bot*%
%TF.FilePolarity,Positive*%
%FSLAX46Y46*%
G04 Gerber Fmt 4.6, Leading zero omitted, Abs format (unit mm)*
G04 Created by KiCad (PCBNEW 9.0.6) date 2025-12-05 10:13:41*
%MOMM*%
%LPD*%
G01*
G04 APERTURE LIST*
G04 Aperture macros list*
%AMRoundRect*
0 Rectangle with rounded corners*
0 $1 Rounding radius*
0 $2 $3 $4 $5 $6 $7 $8 $9 X,Y pos of 4 corners*
0 Add a 4 corners polygon primitive as box body*
4,1,4,$2,$3,$4,$5,$6,$7,$8,$9,$2,$3,0*
0 Add four circle primitives for the rounded corners*
1,1,$1+$1,$2,$3*
1,1,$1+$1,$4,$5*
1,1,$1+$1,$6,$7*
1,1,$1+$1,$8,$9*
0 Add four rect primitives between the rounded corners*
20,1,$1+$1,$2,$3,$4,$5,0*
20,1,$1+$1,$4,$5,$6,$7,0*
20,1,$1+$1,$6,$7,$8,$9,0*
20,1,$1+$1,$8,$9,$2,$3,0*%
G04 Aperture macros list end*
%TA.AperFunction,ComponentPad*%
%ADD10C,1.600000*%
%TD*%
%TA.AperFunction,ComponentPad*%
%ADD11RoundRect,0.250000X0.550000X-0.550000X0.550000X0.550000X-0.550000X0.550000X-0.550000X-0.550000X0*%
%TD*%
%TA.AperFunction,ComponentPad*%
%ADD12C,2.000000*%
%TD*%
%TA.AperFunction,ComponentPad*%
%ADD13C,1.500000*%
%TD*%
%TA.AperFunction,HeatsinkPad*%
%ADD14O,0.950000X1.950000*%
%TD*%
%TA.AperFunction,HeatsinkPad*%
%ADD15O,0.950000X2.150000*%
%TD*%
%TA.AperFunction,ComponentPad*%
%ADD16RoundRect,0.250000X-0.550000X-0.550000X0.550000X-0.550000X0.550000X0.550000X-0.550000X0.550000X0*%
%TD*%
%TA.AperFunction,ViaPad*%
%ADD17C,0.600000*%
%TD*%
%TA.AperFunction,Conductor*%
%ADD18C,0.200000*%
%TD*%
G04 APERTURE END LIST*
D10*
%TO.P,R8,1*%
%TO.N,Z80-MREQ*%
X110669500Y-131283000D03*
%TO.P,R8,2*%
%TO.N,Net-(D51-A)*%
X100509500Y-131283000D03*
%TD*%
%TO.P,R11,1*%
%TO.N,Z80-BUSACK*%
X143349500Y-133783000D03*
%TO.P,R11,2*%
%TO.N,Net-(D1-A)*%
X153509500Y-133783000D03*
%TD*%
%TO.P,R12,1*%
%TO.N,GND*%
X52741500Y-53746000D03*
%TO.P,R12,2*%
%TO.N,USB-C-CC1*%
X52741500Y-43586000D03*
%TD*%
%TO.P,R27,1*%
%TO.N,Z80-D5*%
X79592500Y-110500000D03*
%TO.P,R27,2*%
%TO.N,Net-(D33-K)*%
X69432500Y-110500000D03*
%TD*%
D11*
%TO.P,ShiftRegisterIn2,1,~{PL}*%
%TO.N,RP2040-RWRAM-GPIO8-PL*%
X221240500Y-131539000D03*
D10*
%TO.P,ShiftRegisterIn2,2,CP*%
%TO.N,CLOCK*%
X223780500Y-131539000D03*
%TO.P,ShiftRegisterIn2,3,D4*%
%TO.N,Net-(D59-K)*%
X226320500Y-131539000D03*
%TO.P,ShiftRegisterIn2,4,D5*%
%TO.N,Net-(D63-K)*%
X228860500Y-131539000D03*
%TO.P,ShiftRegisterIn2,5,D6*%
%TO.N,Net-(D60-K)*%
X231400500Y-131539000D03*
%TO.P,ShiftRegisterIn2,6,D7*%
%TO.N,Net-(D64-K)*%
X233940500Y-131539000D03*
%TO.P,ShiftRegisterIn2,7,~{Q7}*%
%TO.N,unconnected-(ShiftRegisterIn2-~{Q7}-Pad7)*%
X236480500Y-131539000D03*
%TO.P,ShiftRegisterIn2,8,GND*%
%TO.N,GND*%
X239020500Y-131539000D03*
%TO.P,ShiftRegisterIn2,9,Q7*%
%TO.N,RP2040-RWRAM-GPIO7-Q7*%
X239020500Y-123919000D03*
%TO.P,ShiftRegisterIn2,10,DS*%
%TO.N,RP2040-RWRAM-GPIO6-DS*%
X236480500Y-123919000D03*
%TO.P,ShiftRegisterIn2,11,D0*%
%TO.N,Net-(D56-K)*%
X233940500Y-123919000D03*
%TO.P,ShiftRegisterIn2,12,D1*%
%TO.N,Net-(D61-K)*%
X231400500Y-123919000D03*
%TO.P,ShiftRegisterIn2,13,D2*%
%TO.N,Net-(D58-K)*%
X228860500Y-123919000D03*
%TO.P,ShiftRegisterIn2,14,D3*%
%TO.N,Net-(D62-K)*%
X226320500Y-123919000D03*
%TO.P,ShiftRegisterIn2,15,~{CE}*%
%TO.N,GND*%
X223780500Y-123919000D03*
%TO.P,ShiftRegisterIn2,16,VCC*%
%TO.N,Vdd_3v3*%
X221240500Y-123919000D03*
%TD*%
%TO.P,R15,1*%
%TO.N,FLASH-WP*%
X210304000Y-58031000D03*
%TO.P,R15,2*%
%TO.N,Vdd_3v3*%
X200144000Y-58031000D03*
%TD*%
%TO.P,R40,1*%
%TO.N,Net-(D8-A)*%
X151672500Y-110000000D03*
%TO.P,R40,2*%
%TO.N,Z80-A0*%
X141512500Y-110000000D03*
%TD*%
%TO.P,R44,1*%
%TO.N,Net-(D26-A)*%
X151592500Y-103000000D03*
%TO.P,R44,2*%
%TO.N,Z80-A2*%
X141432500Y-103000000D03*
%TD*%
%TO.P,R46,1*%
%TO.N,Net-(D16-A)*%
X102092500Y-87000000D03*
%TO.P,R46,2*%
%TO.N,Z80-A12*%
X112252500Y-87000000D03*
%TD*%
%TO.P,R6,1*%
%TO.N,Z80-RESET*%
X143429500Y-123283000D03*
%TO.P,R6,2*%
%TO.N,Vcc*%
X153589500Y-123283000D03*
%TD*%
%TO.P,R25,1*%
%TO.N,Z80-D0*%
X79752500Y-68000000D03*
%TO.P,R25,2*%
%TO.N,Net-(D31-K)*%
X69592500Y-68000000D03*
%TD*%
%TO.P,R17,1*%
%TO.N,RP2040-Z80BOOTMODE*%
X168551500Y-59436000D03*
%TO.P,R17,2*%
%TO.N,Vdd_3v3*%
X158391500Y-59436000D03*
%TD*%
%TO.P,R26,1*%
%TO.N,Z80-D1*%
X79752500Y-76500000D03*
%TO.P,R26,2*%
%TO.N,Net-(D35-K)*%
X69592500Y-76500000D03*
%TD*%
%TO.P,R21,1*%
%TO.N,Z80-WR*%
X143432500Y-137500000D03*
%TO.P,R21,2*%
%TO.N,Net-(D55-A)*%
X153592500Y-137500000D03*
%TD*%
%TO.P,R16,1*%
%TO.N,FLASH-HOLD{slash}RESET*%
X229724000Y-57031000D03*
%TO.P,R16,2*%
%TO.N,Vdd_3v3*%
X239884000Y-57031000D03*
%TD*%
%TO.P,R9,1*%
%TO.N,Z80-M1*%
X143429500Y-119783000D03*
%TO.P,R9,2*%
%TO.N,Net-(D52-A)*%
X153589500Y-119783000D03*
%TD*%
%TO.P,R35,1*%
%TO.N,Net-(D43-A)*%
X52592500Y-97000000D03*
%TO.P,R35,2*%
%TO.N,RAM-Q3*%
X42432500Y-97000000D03*
%TD*%
%TO.P,R43,1*%
%TO.N,Net-(D14-A)*%
X102092500Y-83500000D03*
%TO.P,R43,2*%
%TO.N,Z80-A11*%
X112252500Y-83500000D03*
%TD*%
D12*
%TO.P,SW1,1,1*%
%TO.N,GND*%
X245583950Y-102434000D03*
X252083950Y-102434000D03*
%TO.P,SW1,2,2*%
%TO.N,Z80-WAIT*%
X245583950Y-106934000D03*
X252083950Y-106934000D03*
%TD*%
D10*
%TO.P,R36,1*%
%TO.N,Z80-D3*%
X79752500Y-93500000D03*
%TO.P,R36,2*%
%TO.N,Net-(D43-K)*%
X69592500Y-93500000D03*
%TD*%
%TO.P,R10,1*%
%TO.N,Z80-RFSH*%
X143429500Y-116283000D03*
%TO.P,R10,2*%
%TO.N,Net-(D53-A)*%
X153589500Y-116283000D03*
%TD*%
D11*
%TO.P,ShiftRegisterOut3,1,QB*%
%TO.N,Net-(D5-A)*%
X180411900Y-82539000D03*
D10*
%TO.P,ShiftRegisterOut3,2,QC*%
%TO.N,Net-(D7-A)*%
X182951900Y-82539000D03*
%TO.P,ShiftRegisterOut3,3,QD*%
%TO.N,Net-(D9-A)*%
X185491900Y-82539000D03*
%TO.P,ShiftRegisterOut3,4,QE*%
%TO.N,Net-(D11-A)*%
X188031900Y-82539000D03*
%TO.P,ShiftRegisterOut3,5,QF*%
%TO.N,Net-(D13-A)*%
X190571900Y-82539000D03*
%TO.P,ShiftRegisterOut3,6,QG*%
%TO.N,Net-(D15-A)*%
X193111900Y-82539000D03*
%TO.P,ShiftRegisterOut3,7,QH*%
%TO.N,Net-(D17-A)*%
X195651900Y-82539000D03*
%TO.P,ShiftRegisterOut3,8,GND*%
%TO.N,GND*%
X198191900Y-82539000D03*
%TO.P,ShiftRegisterOut3,9,QH'*%
%TO.N,Net-(ShiftRegisterOut1-SER)*%
X198191900Y-74919000D03*
%TO.P,ShiftRegisterOut3,10,~{SRCLR}*%
%TO.N,Vdd_3v3*%
X195651900Y-74919000D03*
%TO.P,ShiftRegisterOut3,11,SRCLK*%
%TO.N,CLOCK*%
X193111900Y-74919000D03*
%TO.P,ShiftRegisterOut3,12,RCLK*%
%TO.N,RP2040-SH-GPIO4-RCLK*%
X190571900Y-74919000D03*
%TO.P,ShiftRegisterOut3,13,~{OE}*%
%TO.N,GND*%
X188031900Y-74919000D03*
%TO.P,ShiftRegisterOut3,14,SER*%
%TO.N,RP2040-SH-GPIO2-SER*%
X185491900Y-74919000D03*
%TO.P,ShiftRegisterOut3,15,QA*%
%TO.N,Net-(D3-A)*%
X182951900Y-74919000D03*
%TO.P,ShiftRegisterOut3,16,VCC*%
%TO.N,Vdd_3v3*%
X180411900Y-74919000D03*
%TD*%
%TO.P,R2,1*%
%TO.N,Vcc*%
X100429500Y-120783000D03*
%TO.P,R2,2*%
%TO.N,Z80-INT*%
X110589500Y-120783000D03*
%TD*%
D13*
%TO.P,O1,1,-*%
%TO.N,CLOCK*%
X77213950Y-136684000D03*
%TO.P,O1,2,+*%
%TO.N,Vdd_3v3*%
X72333950Y-136684000D03*
%TD*%
D10*
%TO.P,R4,1*%
%TO.N,Z80-HALT*%
X110589500Y-127783000D03*
%TO.P,R4,2*%
%TO.N,Net-(D45-A)*%
X100429500Y-127783000D03*
%TD*%
D12*
%TO.P,SW2,1,1*%
%TO.N,GND*%
X245583950Y-94184000D03*
X252083950Y-94184000D03*
%TO.P,SW2,2,2*%
%TO.N,Z80-RESET*%
X245583950Y-98684000D03*
X252083950Y-98684000D03*
%TD*%
D10*
%TO.P,R41,1*%
%TO.N,Net-(D22-A)*%
X151592500Y-106500000D03*
%TO.P,R41,2*%
%TO.N,Z80-A1*%
X141432500Y-106500000D03*
%TD*%
%TO.P,R37,1*%
%TO.N,Z80-D7*%
X79752500Y-127500000D03*
%TO.P,R37,2*%
%TO.N,Net-(D41-K)*%
X69592500Y-127500000D03*
%TD*%
%TO.P,R31,1*%
%TO.N,Net-(D37-A)*%
X52592500Y-122500000D03*
%TO.P,R31,2*%
%TO.N,RAM-Q6*%
X42432500Y-122500000D03*
%TD*%
%TO.P,R30,1*%
%TO.N,Net-(D39-A)*%
X52592500Y-88500000D03*
%TO.P,R30,2*%
%TO.N,RAM-Q2*%
X42432500Y-88500000D03*
%TD*%
%TO.P,R28,1*%
%TO.N,Net-(D33-A)*%
X52592500Y-114000000D03*
%TO.P,R28,2*%
%TO.N,RAM-Q5*%
X42432500Y-114000000D03*
%TD*%
%TO.P,R24,1*%
%TO.N,Z80-D4*%
X79752500Y-102000000D03*
%TO.P,R24,2*%
%TO.N,Net-(D47-K)*%
X69592500Y-102000000D03*
%TD*%
%TO.P,R48,1*%
%TO.N,Net-(D6-A)*%
X151592500Y-82000000D03*
%TO.P,R48,2*%
%TO.N,Z80-A8*%
X141432500Y-82000000D03*
%TD*%
D14*
%TO.P,USB_C1,S1,SHIELD*%
%TO.N,Net-(USB_C1-SHIELD)*%
X62441500Y-40561000D03*
D15*
X62441500Y-43761000D03*
D14*
X71341500Y-40561000D03*
D15*
X71341500Y-43761000D03*
%TD*%
D10*
%TO.P,R23,1*%
%TO.N,Net-(D47-A)*%
X52592500Y-105500000D03*
%TO.P,R23,2*%
%TO.N,RAM-Q4*%
X42432500Y-105500000D03*
%TD*%
%TO.P,R5,1*%
%TO.N,Z80-WAIT*%
X143349500Y-130283000D03*
%TO.P,R5,2*%
%TO.N,Vcc*%
X153509500Y-130283000D03*
%TD*%
D12*
%TO.P,SW3,1,1*%
%TO.N,GND*%
X247833950Y-41184000D03*
X254333950Y-41184000D03*
%TO.P,SW3,2,2*%
%TO.N,RP2040-Z80BOOTMODE*%
X247833950Y-45684000D03*
X254333950Y-45684000D03*
%TD*%
D10*
%TO.P,R42,1*%
%TO.N,Net-(D2-A)*%
X151592500Y-89000000D03*
%TO.P,R42,2*%
%TO.N,Z80-A6*%
X141432500Y-89000000D03*
%TD*%
%TO.P,R52,1*%
%TO.N,Net-(D20-A)*%
X102092500Y-94000000D03*
%TO.P,R52,2*%
%TO.N,Z80-A14*%
X112252500Y-94000000D03*
%TD*%
%TO.P,R38,1*%
%TO.N,Net-(D12-A)*%
X151592500Y-75000000D03*
%TO.P,R38,2*%
%TO.N,Z80-A10*%
X141432500Y-75000000D03*
%TD*%
%TO.P,R7,1*%
%TO.N,Z80-IORQ*%
X110589500Y-134783000D03*
%TO.P,R7,2*%
%TO.N,Net-(D50-A)*%
X100429500Y-134783000D03*
%TD*%
%TO.P,R13,1*%
%TO.N,USB-C-CC2*%
X46741500Y-43586000D03*
%TO.P,R13,2*%
%TO.N,GND*%
X46741500Y-53746000D03*
%TD*%
%TO.P,R32,1*%
%TO.N,Z80-D2*%
X79752500Y-85000000D03*
%TO.P,R32,2*%
%TO.N,Net-(D39-K)*%
X69592500Y-85000000D03*
%TD*%
%TO.P,R45,1*%
%TO.N,Net-(D4-A)*%
X151592500Y-85500000D03*
%TO.P,R45,2*%
%TO.N,Z80-A7*%
X141432500Y-85500000D03*
%TD*%
%TO.P,R49,1*%
%TO.N,Net-(D18-A)*%
X102092500Y-90500000D03*
%TO.P,R49,2*%
%TO.N,Z80-A13*%
X112252500Y-90500000D03*
%TD*%
%TO.P,R33,1*%
%TO.N,Z80-D6*%
X79752500Y-119000000D03*
%TO.P,R33,2*%
%TO.N,Net-(D37-K)*%
X69592500Y-119000000D03*
%TD*%
%TO.P,R22,1*%
%TO.N,Net-(D31-A)*%
X52592500Y-71500000D03*
%TO.P,R22,2*%
%TO.N,RAM-Q0*%
X42432500Y-71500000D03*
%TD*%
%TO.P,R14,1*%
%TO.N,GND*%
X58391500Y-53786000D03*
%TO.P,R14,2*%
%TO.N,Net-(USB_C1-SHIELD)*%
X58391500Y-43626000D03*
%TD*%
%TO.P,R3,1*%
%TO.N,Z80-NMI*%
X110589500Y-124283000D03*
%TO.P,R3,2*%
%TO.N,Vcc*%
X100429500Y-124283000D03*
%TD*%
D11*
%TO.P,ShiftRegisterOut2,1,QB*%
%TO.N,Net-(D61-A)*%
X180740500Y-131039000D03*
D10*
%TO.P,ShiftRegisterOut2,2,QC*%
%TO.N,Net-(D58-A)*%
X183280500Y-131039000D03*
%TO.P,ShiftRegisterOut2,3,QD*%
%TO.N,Net-(D62-A)*%
X185820500Y-131039000D03*
%TO.P,ShiftRegisterOut2,4,QE*%
%TO.N,Net-(D59-A)*%
X188360500Y-131039000D03*
%TO.P,ShiftRegisterOut2,5,QF*%
%TO.N,Net-(D63-A)*%
X190900500Y-131039000D03*
%TO.P,ShiftRegisterOut2,6,QG*%
%TO.N,Net-(D60-A)*%
X193440500Y-131039000D03*
%TO.P,ShiftRegisterOut2,7,QH*%
%TO.N,Net-(D64-A)*%
X195980500Y-131039000D03*
%TO.P,ShiftRegisterOut2,8,GND*%
%TO.N,GND*%
X198520500Y-131039000D03*
%TO.P,ShiftRegisterOut2,9,QH'*%
%TO.N,unconnected-(ShiftRegisterOut2-QH'-Pad9)*%
X198520500Y-123419000D03*
%TO.P,ShiftRegisterOut2,10,~{SRCLR}*%
%TO.N,Vdd_3v3*%
X195980500Y-123419000D03*
%TO.P,ShiftRegisterOut2,11,SRCLK*%
%TO.N,CLOCK*%
X193440500Y-123419000D03*
%TO.P,ShiftRegisterOut2,12,RCLK*%
%TO.N,RP2040-SH-GPIO3-RCLK*%
X190900500Y-123419000D03*
%TO.P,ShiftRegisterOut2,13,~{OE}*%
%TO.N,GND*%
X188360500Y-123419000D03*
%TO.P,ShiftRegisterOut2,14,SER*%
%TO.N,RP2040-SH-GPIO3-SER*%
X185820500Y-123419000D03*
%TO.P,ShiftRegisterOut2,15,QA*%
%TO.N,Net-(D56-A)*%
X183280500Y-123419000D03*
%TO.P,ShiftRegisterOut2,16,VCC*%
%TO.N,Vdd_3v3*%
X180740500Y-123419000D03*
%TD*%
%TO.P,R29,1*%
%TO.N,Net-(D35-A)*%
X52592500Y-80000000D03*
%TO.P,R29,2*%
%TO.N,RAM-Q1*%
X42432500Y-80000000D03*
%TD*%
D11*
%TO.P,ShiftRegisterOut1,1,QB*%
%TO.N,Net-(D27-A)*%
X180131900Y-106344000D03*
D10*
%TO.P,ShiftRegisterOut1,2,QC*%
%TO.N,Net-(D21-A)*%
X182671900Y-106344000D03*
%TO.P,ShiftRegisterOut1,3,QD*%
%TO.N,Net-(D29-A)*%
X185211900Y-106344000D03*
%TO.P,ShiftRegisterOut1,4,QE*%
%TO.N,Net-(D23-A)*%
X187751900Y-106344000D03*
%TO.P,ShiftRegisterOut1,5,QF*%
%TO.N,Net-(D46-A)*%
X190291900Y-106344000D03*
%TO.P,ShiftRegisterOut1,6,QG*%
%TO.N,Net-(D25-A)*%
X192831900Y-106344000D03*
%TO.P,ShiftRegisterOut1,7,QH*%
%TO.N,Net-(D54-A)*%
X195371900Y-106344000D03*
%TO.P,ShiftRegisterOut1,8,GND*%
%TO.N,GND*%
X197911900Y-106344000D03*
%TO.P,ShiftRegisterOut1,9,QH'*%
%TO.N,unconnected-(ShiftRegisterOut1-QH'-Pad9)*%
X197911900Y-98724000D03*
%TO.P,ShiftRegisterOut1,10,~{SRCLR}*%
%TO.N,Vdd_3v3*%
X195371900Y-98724000D03*
%TO.P,ShiftRegisterOut1,11,SRCLK*%
%TO.N,CLOCK*%
X192831900Y-98724000D03*
%TO.P,ShiftRegisterOut1,12,RCLK*%
%TO.N,RP2040-SH-GPIO4-RCLK*%
X190291900Y-98724000D03*
%TO.P,ShiftRegisterOut1,13,~{OE}*%
%TO.N,GND*%
X187751900Y-98724000D03*
%TO.P,ShiftRegisterOut1,14,SER*%
%TO.N,Net-(ShiftRegisterOut1-SER)*%
X185211900Y-98724000D03*
%TO.P,ShiftRegisterOut1,15,QA*%
%TO.N,Net-(D19-A)*%
X182671900Y-98724000D03*
%TO.P,ShiftRegisterOut1,16,VCC*%
%TO.N,Vdd_3v3*%
X180131900Y-98724000D03*
%TD*%
D12*
%TO.P,SW4,1,1*%
%TO.N,GND*%
X247833950Y-49734000D03*
X254333950Y-49734000D03*
%TO.P,SW4,2,2*%
%TO.N,RP2040-RPBOOTMODE*%
X247833950Y-54234000D03*
X254333950Y-54234000D03*
%TD*%
D11*
%TO.P,RAM1,1,A14*%
%TO.N,RAM-A14*%
X93232500Y-63500000D03*
D10*
%TO.P,RAM1,2,A12*%
%TO.N,RAM-A12*%
X95772500Y-63500000D03*
%TO.P,RAM1,3,A7*%
%TO.N,RAM-A7*%
X98312500Y-63500000D03*
%TO.P,RAM1,4,A6*%
%TO.N,RAM-A6*%
X100852500Y-63500000D03*
%TO.P,RAM1,5,A5*%
%TO.N,RAM-A5*%
X103392500Y-63500000D03*
%TO.P,RAM1,6,A4*%
%TO.N,RAM-A4*%
X105932500Y-63500000D03*
%TO.P,RAM1,7,A3*%
%TO.N,RAM-A3*%
X108472500Y-63500000D03*
%TO.P,RAM1,8,A2*%
%TO.N,RAM-A2*%
X111012500Y-63500000D03*
%TO.P,RAM1,9,A1*%
%TO.N,RAM-A1*%
X113552500Y-63500000D03*
%TO.P,RAM1,10,A0*%
%TO.N,RAM-A0*%
X116092500Y-63500000D03*
%TO.P,RAM1,11,Q0*%
%TO.N,RAM-Q0*%
X118632500Y-63500000D03*
%TO.P,RAM1,12,Q1*%
%TO.N,RAM-Q1*%
X121172500Y-63500000D03*
%TO.P,RAM1,13,Q2*%
%TO.N,RAM-Q2*%
X123712500Y-63500000D03*
%TO.P,RAM1,14,GND*%
%TO.N,GND*%
X126252500Y-63500000D03*
%TO.P,RAM1,15,Q3*%
%TO.N,RAM-Q3*%
X126252500Y-48260000D03*
%TO.P,RAM1,16,Q4*%
%TO.N,RAM-Q4*%
X123712500Y-48260000D03*
%TO.P,RAM1,17,Q5*%
%TO.N,RAM-Q5*%
X121172500Y-48260000D03*
%TO.P,RAM1,18,Q6*%
%TO.N,RAM-Q6*%
X118632500Y-48260000D03*
%TO.P,RAM1,19,Q7*%
%TO.N,RAM-Q7*%
X116092500Y-48260000D03*
%TO.P,RAM1,20,~{CS}*%
%TO.N,RAM-CS*%
X113552500Y-48260000D03*
%TO.P,RAM1,21,A10*%
%TO.N,RAM-A10*%
X111012500Y-48260000D03*
%TO.P,RAM1,22,~{OE}*%
%TO.N,RAM-OE*%
X108472500Y-48260000D03*
%TO.P,RAM1,23,A11*%
%TO.N,RAM-A11*%
X105932500Y-48260000D03*
%TO.P,RAM1,24,A9*%
%TO.N,RAM-A9*%
X103392500Y-48260000D03*
%TO.P,RAM1,25,A8*%
%TO.N,RAM-A8*%
X100852500Y-48260000D03*
%TO.P,RAM1,26,A13*%
%TO.N,RAM-A13*%
X98312500Y-48260000D03*
%TO.P,RAM1,27,~{WE}*%
%TO.N,RAM-WE*%
X95772500Y-48260000D03*
%TO.P,RAM1,28,VCC*%
%TO.N,Vcc*%
X93232500Y-48260000D03*
%TD*%
%TO.P,R51,1*%
%TO.N,Net-(D24-A)*%
X151592500Y-78500000D03*
%TO.P,R51,2*%
%TO.N,Z80-A9*%
X141432500Y-78500000D03*
%TD*%
%TO.P,R20,1*%
%TO.N,Z80-RD*%
X143432500Y-141000000D03*
%TO.P,R20,2*%
%TO.N,Net-(D49-A)*%
X153592500Y-141000000D03*
%TD*%
%TO.P,R39,1*%
%TO.N,Net-(D10-A)*%
X151592500Y-92500000D03*
%TO.P,R39,2*%
%TO.N,Z80-A5*%
X141432500Y-92500000D03*
%TD*%
%TO.P,R47,1*%
%TO.N,Net-(D28-A)*%
X151592500Y-99500000D03*
%TO.P,R47,2*%
%TO.N,Z80-A3*%
X141432500Y-99500000D03*
%TD*%
%TO.P,R50,1*%
%TO.N,Net-(D30-A)*%
X151592500Y-96000000D03*
%TO.P,R50,2*%
%TO.N,Z80-A4*%
X141432500Y-96000000D03*
%TD*%
D16*
%TO.P,Z80,1,A_{11}*%
%TO.N,Z80-A11*%
X119389500Y-85658000D03*
D10*
%TO.P,Z80,2,A_{12}*%
%TO.N,Z80-A12*%
X119389500Y-88198000D03*
%TO.P,Z80,3,A_{13}*%
%TO.N,Z80-A13*%
X119389500Y-90738000D03*
%TO.P,Z80,4,A_{14}*%
%TO.N,Z80-A14*%
X119389500Y-93278000D03*
%TO.P,Z80,5,A_{15}*%
%TO.N,Z80-A15*%
X119389500Y-95818000D03*
%TO.P,Z80,6,CLK*%
%TO.N,CLOCK*%
X119389500Y-98358000D03*
%TO.P,Z80,7,D_{4}*%
%TO.N,Z80-D4*%
X119389500Y-100898000D03*
%TO.P,Z80,8,D_{3}*%
%TO.N,Z80-D3*%
X119389500Y-103438000D03*
%TO.P,Z80,9,D_{5}*%
%TO.N,Z80-D5*%
X119389500Y-105978000D03*
%TO.P,Z80,10,D_{6}*%
%TO.N,Z80-D6*%
X119389500Y-108518000D03*
%TO.P,Z80,11,V_{CC}*%
%TO.N,Vcc*%
X119389500Y-111058000D03*
%TO.P,Z80,12,D_{2}*%
%TO.N,Z80-D2*%
X119389500Y-113598000D03*
%TO.P,Z80,13,D_{7}*%
%TO.N,Z80-D7*%
X119389500Y-116138000D03*
%TO.P,Z80,14,D_{0}*%
%TO.N,Z80-D0*%
X119389500Y-118678000D03*
%TO.P,Z80,15,D_{1}*%
%TO.N,Z80-D1*%
X119389500Y-121218000D03*
%TO.P,Z80,16,~{INT}*%
%TO.N,Z80-INT*%
X119389500Y-123758000D03*
%TO.P,Z80,17,~{NMI}*%
%TO.N,Z80-NMI*%
X119389500Y-126298000D03*
%TO.P,Z80,18,~{HALT}*%
%TO.N,Z80-HALT*%
X119389500Y-128838000D03*
%TO.P,Z80,19,~{MREQ}*%
%TO.N,Z80-MREQ*%
X119389500Y-131378000D03*
%TO.P,Z80,20,~{IORQ}*%
%TO.N,Z80-IORQ*%
X119389500Y-133918000D03*
%TO.P,Z80,21,~{RD}*%
%TO.N,Z80-RD*%
X134629500Y-133918000D03*
%TO.P,Z80,22,~{WR}*%
%TO.N,Z80-WR*%
X134629500Y-131378000D03*
%TO.P,Z80,23,~{BUSACK}*%
%TO.N,Z80-BUSACK*%
X134629500Y-128838000D03*
%TO.P,Z80,24,~{WAIT}*%
%TO.N,Z80-WAIT*%
X134629500Y-126298000D03*
%TO.P,Z80,25,~{BUSREQ}*%
%TO.N,Z80-BUSREQ*%
X134629500Y-123758000D03*
%TO.P,Z80,26,~{RESET}*%
%TO.N,Z80-RESET*%
X134629500Y-121218000D03*
%TO.P,Z80,27,~{M1}*%
%TO.N,Z80-M1*%
X134629500Y-118678000D03*
%TO.P,Z80,28,~{RFSH}*%
%TO.N,Z80-RFSH*%
X134629500Y-116138000D03*
%TO.P,Z80,29,GND*%
%TO.N,GND*%
X134629500Y-113598000D03*
%TO.P,Z80,30,A_{0}*%
%TO.N,Z80-A0*%
X134629500Y-111058000D03*
%TO.P,Z80,31,A_{1}*%
%TO.N,Z80-A1*%
X134629500Y-108518000D03*
%TO.P,Z80,32,A_{2}*%
%TO.N,Z80-A2*%
X134629500Y-105978000D03*
%TO.P,Z80,33,A_{3}*%
%TO.N,Z80-A3*%
X134629500Y-103438000D03*
%TO.P,Z80,34,A_{4}*%
%TO.N,Z80-A4*%
X134629500Y-100898000D03*
%TO.P,Z80,35,A_{5}*%
%TO.N,Z80-A5*%
X134629500Y-98358000D03*
%TO.P,Z80,36,A_{6}*%
%TO.N,Z80-A6*%
X134629500Y-95818000D03*
%TO.P,Z80,37,A_{7}*%
%TO.N,Z80-A7*%
X134629500Y-93278000D03*
%TO.P,Z80,38,A_{8}*%
%TO.N,Z80-A8*%
X134629500Y-90738000D03*
%TO.P,Z80,39,A_{9}*%
%TO.N,Z80-A9*%
X134629500Y-88198000D03*
%TO.P,Z80,40,A_{10}*%
%TO.N,Z80-A10*%
X134629500Y-85658000D03*
%TD*%
%TO.P,R1,1*%
%TO.N,Vcc*%
X153589500Y-126783000D03*
%TO.P,R1,2*%
%TO.N,Z80-BUSREQ*%
X143429500Y-126783000D03*
%TD*%
%TO.P,R18,1*%
%TO.N,RP2040-RPBOOTMODE*%
X168471500Y-53936000D03*
%TO.P,R18,2*%
%TO.N,Vdd_3v3*%
X158311500Y-53936000D03*
%TD*%
%TO.P,R34,1*%
%TO.N,Net-(D41-A)*%
X52592500Y-131000000D03*
%TO.P,R34,2*%
%TO.N,RAM-Q7*%
X42432500Y-131000000D03*
%TD*%
%TO.P,R19,1*%
%TO.N,Z80-A15*%
X112252500Y-98500000D03*
%TO.P,R19,2*%
%TO.N,Net-(D57-A)*%
X102092500Y-98500000D03*
%TD*%
D17*
%TO.N,RAM-A14*%
X78551455Y-85497490D03*
X230891500Y-104736003D03*
%TO.N,RAM-A9*%
X134891500Y-46600000D03*
X135891500Y-42836000D03*
X229891500Y-101436000D03*
X134891500Y-44036000D03*
%TO.N,RAM-Q6*%
X50333950Y-131684000D03*
X50333950Y-130184000D03*
X50333950Y-134184000D03*
%TO.N,RAM-Q5*%
X49333950Y-131684000D03*
X49333950Y-129999000D03*
X49333950Y-134184000D03*
%TO.N,RAM-A10*%
X133092500Y-47100000D03*
X230457187Y-102001687D03*
X133391500Y-42836000D03*
X133391500Y-44036000D03*
%TO.N,RAM-A7*%
X120422185Y-79405315D03*
X230391500Y-81436000D03*
X143891500Y-43436000D03*
X142891500Y-45436000D03*
%TO.N,RAM-A5*%
X103891500Y-65436000D03*
X229908039Y-80026152D03*
X150391500Y-44436000D03*
X144891500Y-47436000D03*
X116891500Y-76936000D03*
%TO.N,RAM-A12*%
X78391500Y-106436000D03*
X225391500Y-103436000D03*
%TO.N,RAM-Q4*%
X48333950Y-129584000D03*
X48333950Y-131684000D03*
X48333950Y-134184000D03*
%TO.N,Vcc*%
X219333950Y-99553000D03*
X178333950Y-96684000D03*
X180333950Y-96684000D03*
%TO.N,RAM-A11*%
X225391500Y-102602687D03*
X90333950Y-82400000D03*
X97333950Y-61843000D03*
%TO.N,RAM-Q7*%
X51333950Y-134184000D03*
X51333950Y-131684000D03*
%TO.N,RAM-A6*%
X143891500Y-46436000D03*
X130982361Y-77744912D03*
X145391500Y-43836000D03*
X230518273Y-80543471D03*
%TO.N,RAM-Q0*%
X44333950Y-134184000D03*
X46198382Y-127579708D03*
X44552035Y-131853145D03*
%TO.N,RAM-A0*%
X228549437Y-76778067D03*
X157391500Y-49936000D03*
X124891500Y-68436000D03*
X121391500Y-66436000D03*
X151891500Y-53436000D03*
%TO.N,RAM-A13*%
X98918265Y-45962765D03*
X94333950Y-61843000D03*
X230891500Y-103936000D03*
X97891500Y-42836000D03*
X97891500Y-44936000D03*
X83833950Y-86184000D03*
%TO.N,RAM-A1*%
X154391500Y-48936000D03*
X228918468Y-77487870D03*
X150391500Y-51936000D03*
X121325735Y-72001765D03*
%TO.N,GND*%
X167500000Y-70500000D03*
X186391500Y-72836000D03*
X187751900Y-96084000D03*
X169500000Y-68000000D03*
X210891500Y-90436000D03*
X165586250Y-86413750D03*
X189391500Y-120936000D03*
X186891500Y-60936000D03*
X220891500Y-83436000D03*
X229391500Y-100103000D03*
X188891500Y-67436000D03*
X68491500Y-44684000D03*
X67291500Y-44684000D03*
X221391500Y-107436000D03*
%TO.N,RAM-Q3*%
X47333950Y-134184000D03*
X47333950Y-131684000D03*
X47333950Y-129183000D03*
%TO.N,RAM-A3*%
X229290172Y-78810266D03*
X147391500Y-49436000D03*
X119650000Y-74677500D03*
X152391500Y-46436000D03*
%TO.N,RAM-Q2*%
X46333950Y-134184000D03*
X46333950Y-131684000D03*
X46333950Y-128782000D03*
%TO.N,RAM-Q1*%
X45598382Y-128331503D03*
X45333950Y-134184000D03*
X45333950Y-131684000D03*
%TO.N,RAM-CS*%
X98833950Y-61843000D03*
X93333950Y-98500000D03*
%TO.N,RAM-A2*%
X121920000Y-73937000D03*
X148391500Y-50436000D03*
X153391500Y-47436000D03*
X229499236Y-78038064D03*
%TO.N,RAM-A4*%
X230192139Y-79043634D03*
X119270715Y-76556785D03*
X145891500Y-48436000D03*
X150891500Y-45436000D03*
%TO.N,RAM-A8*%
X136285265Y-46542235D03*
X136391500Y-44036000D03*
X138891500Y-42836000D03*
X230391500Y-100436000D03*
%TO.N,CLOCK*%
X194500000Y-64036000D03*
X193000000Y-94000000D03*
X196000000Y-141500000D03*
X184500000Y-53900000D03*
X221500000Y-58000000D03*
X199000000Y-77000000D03*
X92833950Y-117184000D03*
X193000000Y-73218000D03*
X212500000Y-89836000D03*
X193500000Y-119500000D03*
X201500000Y-131000000D03*
X109333950Y-102684000D03*
X198000000Y-127500000D03*
%TO.N,Z80-WAIT*%
X132951057Y-136926232D03*
X132333950Y-138001000D03*
X132333950Y-139201000D03*
%TO.N,Z80-RESET*%
X131333950Y-139201000D03*
X131333950Y-138001000D03*
X130643214Y-136993263D03*
%TO.N,Vdd_3v3*%
X84833950Y-54936000D03*
X76163725Y-46013775D03*
X79333950Y-46184000D03*
X216891500Y-123936000D03*
X87891500Y-44436000D03*
%TO.N,RP2040-DVDD*%
X185054000Y-50272084D03*
X187933950Y-50000000D03*
X187500000Y-63400000D03*
X191269935Y-56230065D03*
%TO.N,RP2040-RWRAM-GPIO5-DIR*%
X242000000Y-104500000D03*
X241500000Y-109500000D03*
X237250000Y-68250000D03*
X179485421Y-65000000D03*
X202500000Y-73500000D03*
%TO.N,USB-C-VBUS*%
X64583950Y-42434000D03*
X69083950Y-42434000D03*
%TO.N,FLASH-DO-RP2040-QSPI_SD1*%
X183482206Y-53041202D03*
X192891500Y-56436000D03*
%TO.N,FLASH-DI-RP2040-QSPI_SD0*%
X184291500Y-51436000D03*
X188891500Y-48936000D03*
%TO.N,FLASH-CS-RP2040-QSPI_SS*%
X188391500Y-50936000D03*
X182891500Y-52436000D03*
%TO.N,RP2040-RPBOOTMODE*%
X190333950Y-47041000D03*
%TO.N,RP2040-RWRAM-GPIO7-Q7*%
X180694558Y-63923890D03*
X239020500Y-107520500D03*
X225500000Y-66000000D03*
X229500000Y-64000000D03*
X239500000Y-104500000D03*
%TO.N,USB-RP2040-DP*%
X162833950Y-47184000D03*
X66333950Y-44584000D03*
X186655000Y-54166726D03*
X92333950Y-44184000D03*
X161333950Y-41184000D03*
X94833950Y-41084000D03*
%TO.N,USB-RP2040-DM*%
X160333950Y-41282000D03*
X66460237Y-39465409D03*
X186854000Y-56184000D03*
X161833950Y-47184000D03*
X66833950Y-42784000D03*
%TO.N,RP2040-SH-GPIO4-RCLK*%
X178500000Y-70000000D03*
X180977750Y-69522250D03*
%TO.N,RP2040-RWRAM-GPIO8-PL*%
X225500000Y-63500000D03*
X218500000Y-120000000D03*
X229500000Y-62000000D03*
X235000000Y-105500000D03*
X241000000Y-104500000D03*
X181200000Y-63274835D03*
%TO.N,RP2040-RWRAM-GPIO6-DS*%
X226000000Y-68000000D03*
X229500000Y-65500000D03*
X180085421Y-64442499D03*
X238500000Y-104000000D03*
X237000000Y-107000000D03*
%TO.N,Net-(ShiftRegisterOut1-SER)*%
X201500000Y-82038000D03*
%TD*%
D18*
%TO.N,RAM-A14*%
X73642557Y-83399000D02*
X76452965Y-83399000D01*
X240522500Y-114367003D02*
X240522500Y-132161150D01*
X230891500Y-104736003D02*
X240522500Y-114367003D01*
X106136450Y-138601000D02*
X73290500Y-105755050D01*
X234082650Y-138601000D02*
X106136450Y-138601000D01*
X240522500Y-132161150D02*
X234082650Y-138601000D01*
X76452965Y-83399000D02*
X78551455Y-85497490D01*
X73290500Y-83751057D02*
X73642557Y-83399000D01*
X73290500Y-105755050D02*
X73290500Y-83751057D01*
%TO.N,RAM-A9*%
X136043500Y-42684000D02*
X135891500Y-42836000D01*
X143793200Y-42434000D02*
X143476457Y-42434000D01*
X232197950Y-42684000D02*
X151190743Y-42684000D01*
X230241443Y-101436000D02*
X244594000Y-87083443D01*
X151139743Y-42633000D02*
X146172643Y-42633000D01*
X143476457Y-42434000D02*
X143276457Y-42634000D01*
X145439857Y-42233000D02*
X143994200Y-42233000D01*
X138290500Y-42684000D02*
X136043500Y-42684000D01*
X145639857Y-42433000D02*
X145439857Y-42233000D01*
X134891500Y-44036000D02*
X134891500Y-46600000D01*
X244594000Y-87083443D02*
X244594000Y-55080050D01*
X229891500Y-101436000D02*
X230241443Y-101436000D01*
X146172643Y-42633000D02*
X145972643Y-42433000D01*
X145972643Y-42433000D02*
X145639857Y-42433000D01*
X143994200Y-42233000D02*
X143793200Y-42434000D01*
X151190743Y-42684000D02*
X151139743Y-42633000D01*
X143276457Y-42634000D02*
X139492500Y-42634000D01*
X244594000Y-55080050D02*
X232197950Y-42684000D01*
X139492500Y-42587057D02*
X139140443Y-42235000D01*
X138642557Y-42235000D02*
X138290500Y-42587057D01*
X138290500Y-42587057D02*
X138290500Y-42684000D01*
X139140443Y-42235000D02*
X138642557Y-42235000D01*
X139492500Y-42634000D02*
X139492500Y-42587057D01*
%TO.N,RAM-Q6*%
X50333950Y-134184000D02*
X50333950Y-131684000D01*
X39292500Y-119360000D02*
X39292500Y-70102100D01*
X42432500Y-122500000D02*
X39292500Y-119360000D01*
X50557600Y-58837000D02*
X108055500Y-58837000D01*
X42432500Y-122500000D02*
X42432500Y-128282550D01*
X42432500Y-128282550D02*
X44333950Y-130184000D01*
X39292500Y-70102100D02*
X50557600Y-58837000D01*
X44333950Y-130184000D02*
X44333950Y-130599000D01*
X49918950Y-130599000D02*
X50333950Y-130184000D01*
X44333950Y-130599000D02*
X49918950Y-130599000D01*
X108055500Y-58837000D02*
X118632500Y-48260000D01*
%TO.N,RAM-Q5*%
X43333950Y-123155600D02*
X43333950Y-128616900D01*
X49148950Y-130184000D02*
X49333950Y-129999000D01*
X42432500Y-114000000D02*
X39693500Y-111261000D01*
X43533500Y-122043950D02*
X43533500Y-122956050D01*
X50723700Y-59238000D02*
X110194500Y-59238000D01*
X39693500Y-70268200D02*
X50723700Y-59238000D01*
X43333950Y-121844400D02*
X43533500Y-122043950D01*
X44901050Y-130184000D02*
X49148950Y-130184000D01*
X43333950Y-128616900D02*
X44901050Y-130184000D01*
X42432500Y-114000000D02*
X43333950Y-114901450D01*
X43533500Y-122956050D02*
X43333950Y-123155600D01*
X49333950Y-134184000D02*
X49333950Y-131684000D01*
X39693500Y-111261000D02*
X39693500Y-70268200D01*
X43333950Y-114901450D02*
X43333950Y-121844400D01*
X110194500Y-59238000D02*
X121172500Y-48260000D01*
%TO.N,RAM-A10*%
X143627100Y-42033000D02*
X143310357Y-42033000D01*
X145605957Y-41832000D02*
X143828100Y-41832000D01*
X145805957Y-42032000D02*
X145605957Y-41832000D01*
X151305843Y-42232000D02*
X146338743Y-42232000D01*
X133543500Y-42684000D02*
X133391500Y-42836000D01*
X135290500Y-42587057D02*
X135290500Y-42684000D01*
X143110357Y-42233000D02*
X139705543Y-42233000D01*
X230457187Y-102001687D02*
X230457187Y-101787356D01*
X244995000Y-54913950D02*
X232364050Y-42283000D01*
X230457187Y-101787356D02*
X244995000Y-87249543D01*
X151356843Y-42283000D02*
X151305843Y-42232000D01*
X136188443Y-42283000D02*
X136140443Y-42235000D01*
X133092500Y-47100000D02*
X133092500Y-47000000D01*
X143828100Y-41832000D02*
X143627100Y-42033000D01*
X143310357Y-42033000D02*
X143110357Y-42233000D01*
X146138743Y-42032000D02*
X145805957Y-42032000D01*
X138476457Y-41834000D02*
X138027457Y-42283000D01*
X132891500Y-46799000D02*
X132891500Y-44536000D01*
X138027457Y-42283000D02*
X136188443Y-42283000D01*
X133092500Y-47000000D02*
X132891500Y-46799000D01*
X132891500Y-44536000D02*
X133391500Y-44036000D01*
X139705543Y-42233000D02*
X139306543Y-41834000D01*
X232364050Y-42283000D02*
X151356843Y-42283000D01*
X139306543Y-41834000D02*
X138476457Y-41834000D01*
X136140443Y-42235000D02*
X135642557Y-42235000D01*
X135290500Y-42684000D02*
X133543500Y-42684000D01*
X244995000Y-87249543D02*
X244995000Y-54913950D01*
X135642557Y-42235000D02*
X135290500Y-42587057D01*
X146338743Y-42232000D02*
X146138743Y-42032000D01*
%TO.N,RAM-A7*%
X144326400Y-43035000D02*
X144091500Y-43269900D01*
X145307657Y-43235000D02*
X145107657Y-43035000D01*
X231119273Y-80792414D02*
X231119273Y-80509571D01*
X231914750Y-43535000D02*
X150907543Y-43535000D01*
X147576943Y-45436000D02*
X142891500Y-45436000D01*
X120422185Y-79405315D02*
X120853005Y-79836135D01*
X132692386Y-77135114D02*
X132692386Y-76386944D01*
X150807543Y-43435000D02*
X145840443Y-43435000D01*
X128491365Y-79836135D02*
X129347500Y-78980000D01*
X243792000Y-67836844D02*
X243792000Y-55412250D01*
X154497500Y-54515443D02*
X154497500Y-52356557D01*
X230475687Y-81436000D02*
X231119273Y-80792414D01*
X144091500Y-43518843D02*
X144032921Y-43577421D01*
X231119273Y-80509571D02*
X243792000Y-67836844D01*
X144091500Y-43269900D02*
X144091500Y-43518843D01*
X145840443Y-43435000D02*
X145640443Y-43235000D01*
X145107657Y-43035000D02*
X144326400Y-43035000D01*
X120853005Y-79836135D02*
X128491365Y-79836135D01*
X129347500Y-78980000D02*
X130847500Y-78980000D01*
X230391500Y-81436000D02*
X230475687Y-81436000D01*
X132692386Y-76386944D02*
X132659193Y-76353751D01*
X145640443Y-43235000D02*
X145307657Y-43235000D01*
X150907543Y-43535000D02*
X150807543Y-43435000D01*
X144032921Y-43577421D02*
X143891500Y-43436000D01*
X154497500Y-52356557D02*
X147576943Y-45436000D01*
X132659193Y-76353751D02*
X154497500Y-54515443D01*
X243792000Y-55412250D02*
X231914750Y-43535000D01*
X130847500Y-78980000D02*
X132692386Y-77135114D01*
%TO.N,RAM-A5*%
X242990000Y-67504644D02*
X242990000Y-55744450D01*
X230552173Y-79942471D02*
X242990000Y-67504644D01*
X153695500Y-52688757D02*
X148442743Y-47436000D01*
X153695500Y-54183243D02*
X153695500Y-52688757D01*
X116891500Y-76936000D02*
X118534500Y-78579000D01*
X242990000Y-55744450D02*
X231681550Y-44436000D01*
X230269330Y-79942471D02*
X230552173Y-79942471D01*
X103891500Y-65436000D02*
X103891500Y-63999000D01*
X129299743Y-78579000D02*
X153695500Y-54183243D01*
X118534500Y-78579000D02*
X129299743Y-78579000D01*
X229908039Y-80026152D02*
X230185649Y-80026152D01*
X103891500Y-63999000D02*
X103392500Y-63500000D01*
X148442743Y-47436000D02*
X144891500Y-47436000D01*
X231681550Y-44436000D02*
X150391500Y-44436000D01*
X230185649Y-80026152D02*
X230269330Y-79942471D01*
%TO.N,RAM-A12*%
X240121500Y-131995050D02*
X235831550Y-136285000D01*
X240121500Y-118166000D02*
X240121500Y-131995050D01*
X78391500Y-107302050D02*
X78391500Y-106436000D01*
X107374450Y-136285000D02*
X78391500Y-107302050D01*
X225391500Y-103436000D02*
X240121500Y-118166000D01*
X235831550Y-136285000D02*
X107374450Y-136285000D01*
%TO.N,RAM-Q4*%
X48333950Y-134184000D02*
X48333950Y-131684000D01*
X45067150Y-129783000D02*
X48134950Y-129783000D01*
X43934500Y-121877850D02*
X43934500Y-123122150D01*
X43833950Y-128549800D02*
X45067150Y-129783000D01*
X42432500Y-105500000D02*
X40094500Y-103162000D01*
X42432500Y-105500000D02*
X43833950Y-106901450D01*
X48134950Y-129783000D02*
X48333950Y-129584000D01*
X110563600Y-59436000D02*
X112536500Y-59436000D01*
X43934500Y-123122150D02*
X43833950Y-123222700D01*
X112536500Y-59436000D02*
X123712500Y-48260000D01*
X43833950Y-106901450D02*
X43833950Y-121777300D01*
X43833950Y-121777300D02*
X43934500Y-121877850D01*
X110360600Y-59639000D02*
X110563600Y-59436000D01*
X40094500Y-103162000D02*
X40094500Y-70434300D01*
X50889800Y-59639000D02*
X110360600Y-59639000D01*
X40094500Y-70434300D02*
X50889800Y-59639000D01*
X43833950Y-123222700D02*
X43833950Y-128549800D01*
%TO.N,Vcc*%
X178333950Y-96684000D02*
X178333950Y-114684000D01*
X153589500Y-123283000D02*
X153589500Y-126783000D01*
X125767500Y-117436000D02*
X119389500Y-111058000D01*
X110154500Y-111058000D02*
X100429500Y-120783000D01*
X219333950Y-99553000D02*
X216464950Y-96684000D01*
X216464950Y-96684000D02*
X180333950Y-96684000D01*
X94734500Y-46758000D02*
X93232500Y-48260000D01*
X110154500Y-81155050D02*
X127754500Y-63555050D01*
X126874650Y-46758000D02*
X94734500Y-46758000D01*
X119389500Y-111058000D02*
X110154500Y-111058000D01*
X110154500Y-111058000D02*
X110154500Y-81155050D01*
X153509500Y-127214000D02*
X153509500Y-130283000D01*
X100429500Y-124283000D02*
X100429500Y-120783000D01*
X153589500Y-123283000D02*
X147742500Y-117436000D01*
X169734950Y-123283000D02*
X153589500Y-123283000D01*
X147742500Y-117436000D02*
X125767500Y-117436000D01*
X153589500Y-126783000D02*
X153589500Y-127134000D01*
X153589500Y-127134000D02*
X153509500Y-127214000D01*
X178333950Y-114684000D02*
X169734950Y-123283000D01*
X127754500Y-63555050D02*
X127754500Y-47637850D01*
X127754500Y-47637850D02*
X126874650Y-46758000D01*
%TO.N,RAM-A11*%
X78714700Y-94019250D02*
X73891500Y-98842450D01*
X90333950Y-82400000D02*
X80271750Y-92462200D01*
X79296450Y-92399000D02*
X78651500Y-93043950D01*
X78651500Y-93956050D02*
X78714700Y-94019250D01*
X78651500Y-93043950D02*
X78651500Y-93956050D01*
X94540456Y-78193494D02*
X94540456Y-63174994D01*
X73891500Y-99687950D02*
X110087550Y-135884000D01*
X95872450Y-61843000D02*
X97333950Y-61843000D01*
X110087550Y-135884000D02*
X205793443Y-135884000D01*
X73891500Y-98842450D02*
X73891500Y-99687950D01*
X80208550Y-92399000D02*
X79296450Y-92399000D01*
X217492500Y-124184943D02*
X217492500Y-111520431D01*
X208574756Y-102602687D02*
X225391500Y-102602687D01*
X94540456Y-63174994D02*
X95872450Y-61843000D01*
X80271750Y-92462200D02*
X80208550Y-92399000D01*
X90333950Y-82400000D02*
X94540456Y-78193494D01*
X205793443Y-135884000D02*
X217492500Y-124184943D01*
X217492500Y-111520431D02*
X208574756Y-102602687D01*
%TO.N,RAM-Q7*%
X51333950Y-134184000D02*
X51333950Y-131684000D01*
X50649950Y-131000000D02*
X51333950Y-131684000D01*
X105916500Y-58436000D02*
X116092500Y-48260000D01*
X42432500Y-131000000D02*
X40955500Y-131000000D01*
X38891500Y-69936000D02*
X50391500Y-58436000D01*
X50391500Y-58436000D02*
X105916500Y-58436000D01*
X42432500Y-131000000D02*
X50649950Y-131000000D01*
X38891500Y-128936000D02*
X38891500Y-69936000D01*
X40955500Y-131000000D02*
X39214320Y-129258820D01*
X39214320Y-129258820D02*
X38891500Y-128936000D01*
%TO.N,RAM-A6*%
X148009843Y-46436000D02*
X143891500Y-46436000D01*
X154096500Y-54349343D02*
X154096500Y-52522657D01*
X231748650Y-43936000D02*
X150741443Y-43936000D01*
X243391000Y-67670744D02*
X243391000Y-55578350D01*
X130982361Y-77744912D02*
X132091386Y-76635887D01*
X132091386Y-76635887D02*
X132091386Y-76354457D01*
X230518273Y-80543471D02*
X230718273Y-80543471D01*
X132091386Y-76354457D02*
X154096500Y-54349343D01*
X150741443Y-43936000D02*
X150641443Y-43836000D01*
X243391000Y-55578350D02*
X231748650Y-43936000D01*
X154096500Y-52522657D02*
X148009843Y-46436000D01*
X230718273Y-80343471D02*
X243391000Y-67670744D01*
X230718273Y-80543471D02*
X230718273Y-80343471D01*
X150641443Y-43836000D02*
X145391500Y-43836000D01*
%TO.N,RAM-Q0*%
X45538500Y-90471800D02*
X45333950Y-90267250D01*
X42432500Y-70364700D02*
X51554200Y-61243000D01*
X42432500Y-71500000D02*
X42432500Y-70364700D01*
X45538500Y-126919826D02*
X45538500Y-90471800D01*
X116375500Y-61243000D02*
X118632500Y-63500000D01*
X51554200Y-61243000D02*
X116375500Y-61243000D01*
X44333950Y-134184000D02*
X44333950Y-132071230D01*
X44333950Y-132071230D02*
X44552035Y-131853145D01*
X45333950Y-90267250D02*
X45333950Y-74401450D01*
X45333950Y-74401450D02*
X42432500Y-71500000D01*
X46198382Y-127579708D02*
X45538500Y-126919826D01*
%TO.N,RAM-A0*%
X228549437Y-76778067D02*
X230881077Y-76778067D01*
X139891500Y-53436000D02*
X124891500Y-68436000D01*
X240985000Y-56574950D02*
X230851050Y-46441000D01*
X160886500Y-46441000D02*
X157391500Y-49936000D01*
X230881077Y-76778067D02*
X240985000Y-66674144D01*
X151891500Y-53436000D02*
X139891500Y-53436000D01*
X240985000Y-66674144D02*
X240985000Y-56574950D01*
X116092500Y-65137000D02*
X116092500Y-63500000D01*
X121391500Y-66436000D02*
X117391500Y-66436000D01*
X117391500Y-66436000D02*
X116092500Y-65137000D01*
X230851050Y-46441000D02*
X160886500Y-46441000D01*
%TO.N,RAM-A13*%
X245396000Y-54747850D02*
X232530150Y-41882000D01*
X231058187Y-102250630D02*
X231058187Y-101753456D01*
X98444500Y-42283000D02*
X97891500Y-42836000D01*
X146504843Y-41831000D02*
X146304843Y-41631000D01*
X142944257Y-41832000D02*
X139871643Y-41832000D01*
X135476457Y-41834000D02*
X135027457Y-42283000D01*
X143461000Y-41632000D02*
X143144257Y-41632000D01*
X138310357Y-41433000D02*
X137861357Y-41882000D01*
X133094557Y-42283000D02*
X98444500Y-42283000D01*
X231058187Y-101753456D02*
X245396000Y-87415643D01*
X146304843Y-41631000D02*
X145972057Y-41631000D01*
X232530150Y-41882000D02*
X151522943Y-41882000D01*
X245396000Y-87415643D02*
X245396000Y-54747850D01*
X133688443Y-42283000D02*
X133640443Y-42235000D01*
X133142557Y-42235000D02*
X133094557Y-42283000D01*
X139871643Y-41832000D02*
X139472643Y-41433000D01*
X135027457Y-42283000D02*
X133688443Y-42283000D01*
X230891500Y-102417317D02*
X231058187Y-102250630D01*
X145772057Y-41431000D02*
X143662000Y-41431000D01*
X143144257Y-41632000D02*
X142944257Y-41832000D01*
X230891500Y-103936000D02*
X230891500Y-102417317D01*
X133640443Y-42235000D02*
X133142557Y-42235000D01*
X83833950Y-86184000D02*
X83833950Y-71012390D01*
X93003340Y-61843000D02*
X94333950Y-61843000D01*
X83833950Y-71012390D02*
X93003340Y-61843000D01*
X143662000Y-41431000D02*
X143461000Y-41632000D01*
X139472643Y-41433000D02*
X138310357Y-41433000D01*
X136306543Y-41834000D02*
X135476457Y-41834000D01*
X136354543Y-41882000D02*
X136306543Y-41834000D01*
X151471943Y-41831000D02*
X146504843Y-41831000D01*
X137861357Y-41882000D02*
X136354543Y-41882000D01*
X97891500Y-44936000D02*
X98918265Y-45962765D01*
X145972057Y-41631000D02*
X145772057Y-41431000D01*
X151522943Y-41882000D02*
X151471943Y-41831000D01*
%TO.N,RAM-A1*%
X120891500Y-71567530D02*
X120891500Y-71436000D01*
X241386000Y-66840244D02*
X241386000Y-56408850D01*
X229748179Y-77437064D02*
X229798985Y-77487870D01*
X241386000Y-56408850D02*
X231017150Y-46040000D01*
X230738374Y-77487870D02*
X241386000Y-66840244D01*
X120891500Y-71436000D02*
X140391500Y-51936000D01*
X231017150Y-46040000D02*
X157287500Y-46040000D01*
X229798985Y-77487870D02*
X230738374Y-77487870D01*
X157287500Y-46040000D02*
X154391500Y-48936000D01*
X121325735Y-72001765D02*
X120891500Y-71567530D01*
X229250293Y-77437064D02*
X229748179Y-77437064D01*
X228918468Y-77487870D02*
X229199487Y-77487870D01*
X229199487Y-77487870D02*
X229250293Y-77437064D01*
X140391500Y-51936000D02*
X150391500Y-51936000D01*
%TO.N,GND*%
X189132900Y-76020000D02*
X191672900Y-76020000D01*
X167500000Y-84500000D02*
X165586250Y-86413750D01*
X187751900Y-96084000D02*
X187751900Y-94575600D01*
X94978450Y-47159000D02*
X94333500Y-47803950D01*
X127353500Y-47803950D02*
X126708550Y-47159000D01*
X189461500Y-124520000D02*
X192001500Y-124520000D01*
X237919500Y-130438000D02*
X230299500Y-130438000D01*
X197911900Y-112415600D02*
X189391500Y-120936000D01*
X84241500Y-53786000D02*
X58391500Y-53786000D01*
X197911900Y-106344000D02*
X197911900Y-112415600D01*
X188360500Y-123419000D02*
X189461500Y-124520000D01*
X58351500Y-53746000D02*
X58391500Y-53786000D01*
X186391500Y-61436000D02*
X186391500Y-67436000D01*
X167500000Y-70500000D02*
X167500000Y-84500000D01*
X187751900Y-94575600D02*
X198191900Y-84135600D01*
X201251057Y-82639000D02*
X201151057Y-82539000D01*
X84391500Y-53936000D02*
X84241500Y-53786000D01*
X223780500Y-109825000D02*
X221391500Y-107436000D01*
X186391500Y-72417000D02*
X186391500Y-72836000D01*
X52741500Y-53746000D02*
X58351500Y-53746000D01*
X191392900Y-99825000D02*
X197911900Y-106344000D01*
X229391500Y-100103000D02*
X229391500Y-91936000D01*
X127353500Y-62399000D02*
X127353500Y-47803950D01*
X67291500Y-44684000D02*
X68491500Y-44684000D01*
X201748943Y-82639000D02*
X201251057Y-82639000D01*
X192001500Y-124520000D02*
X198520500Y-131039000D01*
X94333500Y-47803950D02*
X94333500Y-48716050D01*
X230299500Y-130438000D02*
X223780500Y-123919000D01*
X187751900Y-98724000D02*
X188852900Y-99825000D01*
X188031900Y-74919000D02*
X189132900Y-76020000D01*
X94333500Y-48716050D02*
X89113550Y-53936000D01*
X186391500Y-67436000D02*
X170064000Y-67436000D01*
X201848943Y-82539000D02*
X201748943Y-82639000D01*
X188891500Y-67436000D02*
X186391500Y-67436000D01*
X239020500Y-131539000D02*
X237919500Y-130438000D01*
X52741500Y-53746000D02*
X46741500Y-53746000D01*
X188852900Y-99825000D02*
X191392900Y-99825000D01*
X89113550Y-53936000D02*
X84391500Y-53936000D01*
X201151057Y-82539000D02*
X198191900Y-82539000D01*
X186891500Y-60936000D02*
X186391500Y-61436000D01*
X223780500Y-123919000D02*
X223780500Y-109825000D01*
X170064000Y-67436000D02*
X169500000Y-68000000D01*
X186391500Y-67436000D02*
X186391500Y-72417000D01*
X126708550Y-47159000D02*
X94978450Y-47159000D01*
X210891500Y-90436000D02*
X202994500Y-82539000D01*
X198191900Y-84135600D02*
X198191900Y-82539000D01*
X191672900Y-76020000D02*
X198191900Y-82539000D01*
X202994500Y-82539000D02*
X201848943Y-82539000D01*
X229391500Y-91936000D02*
X220891500Y-83436000D01*
X126252500Y-63500000D02*
X127353500Y-62399000D01*
%TO.N,RAM-Q3*%
X45233250Y-129382000D02*
X44333950Y-128482700D01*
X110526700Y-60040000D02*
X110729700Y-59837000D01*
X44333950Y-128482700D02*
X44333950Y-123289800D01*
X40495500Y-95063000D02*
X40495500Y-70600400D01*
X110729700Y-59837000D02*
X114675500Y-59837000D01*
X42432500Y-97000000D02*
X40495500Y-95063000D01*
X44333950Y-98901450D02*
X42432500Y-97000000D01*
X44333950Y-121710200D02*
X44333950Y-98901450D01*
X40495500Y-70600400D02*
X51055900Y-60040000D01*
X44335500Y-121711750D02*
X44333950Y-121710200D01*
X44335500Y-123288250D02*
X44335500Y-121711750D01*
X47333950Y-134184000D02*
X47333950Y-131684000D01*
X47333950Y-129183000D02*
X47134950Y-129382000D01*
X114675500Y-59837000D02*
X126252500Y-48260000D01*
X47134950Y-129382000D02*
X45233250Y-129382000D01*
X51055900Y-60040000D02*
X110526700Y-60040000D01*
X44333950Y-123289800D02*
X44335500Y-123288250D01*
%TO.N,RAM-A3*%
X119650000Y-74677500D02*
X120852000Y-74677500D01*
X132207543Y-74537000D02*
X152893500Y-53851043D01*
X242188000Y-67172444D02*
X242188000Y-56076650D01*
X231349350Y-45238000D02*
X153589500Y-45238000D01*
X229576977Y-78810266D02*
X229591139Y-78796104D01*
X149308543Y-49436000D02*
X147391500Y-49436000D01*
X230917810Y-78442634D02*
X242188000Y-67172444D01*
X152893500Y-53020957D02*
X149308543Y-49436000D01*
X120852000Y-74677500D02*
X120992500Y-74537000D01*
X229591139Y-78794691D02*
X229943196Y-78442634D01*
X152893500Y-53851043D02*
X152893500Y-53020957D01*
X242188000Y-56076650D02*
X231349350Y-45238000D01*
X229943196Y-78442634D02*
X230917810Y-78442634D01*
X229290172Y-78810266D02*
X229576977Y-78810266D01*
X229591139Y-78796104D02*
X229591139Y-78794691D01*
X120992500Y-74537000D02*
X132207543Y-74537000D01*
X153589500Y-45238000D02*
X152391500Y-46436000D01*
%TO.N,RAM-Q2*%
X110697800Y-60436000D02*
X120648500Y-60436000D01*
X51222000Y-60441000D02*
X110692800Y-60441000D01*
X44736500Y-128182450D02*
X44736500Y-90804000D01*
X44734950Y-128316600D02*
X44734950Y-128184000D01*
X44736500Y-90804000D02*
X42432500Y-88500000D01*
X42432500Y-88500000D02*
X40896500Y-86964000D01*
X44734950Y-128184000D02*
X44736500Y-128182450D01*
X40896500Y-70766500D02*
X51222000Y-60441000D01*
X40896500Y-86964000D02*
X40896500Y-70766500D01*
X110692800Y-60441000D02*
X110697800Y-60436000D01*
X45399350Y-128981000D02*
X44734950Y-128316600D01*
X120648500Y-60436000D02*
X123712500Y-63500000D01*
X46134950Y-128981000D02*
X45399350Y-128981000D01*
X46333950Y-128782000D02*
X46134950Y-128981000D01*
X46333950Y-134184000D02*
X46333950Y-131684000D01*
%TO.N,RAM-Q1*%
X118514500Y-60842000D02*
X121172500Y-63500000D01*
X41297500Y-70932600D02*
X51388100Y-60842000D01*
X44833950Y-85184000D02*
X42432500Y-82782550D01*
X42432500Y-82782550D02*
X42432500Y-80000000D01*
X45137500Y-90637900D02*
X44833950Y-90334350D01*
X45598382Y-128331503D02*
X45137500Y-127870621D01*
X45137500Y-127870621D02*
X45137500Y-90637900D01*
X44833950Y-90334350D02*
X44833950Y-85184000D01*
X41297500Y-78865000D02*
X41297500Y-70932600D01*
X42432500Y-80000000D02*
X41297500Y-78865000D01*
X51388100Y-60842000D02*
X118514500Y-60842000D01*
X45333950Y-134184000D02*
X45333950Y-131684000D01*
%TO.N,RAM-CS*%
X98412450Y-61843000D02*
X98833950Y-61843000D01*
X97211500Y-90806450D02*
X97211500Y-63043950D01*
X93333950Y-94684000D02*
X97211500Y-90806450D01*
X97211500Y-63043950D02*
X98412450Y-61843000D01*
X93333950Y-98500000D02*
X93333950Y-94684000D01*
%TO.N,RAM-A2*%
X241787000Y-67006344D02*
X241787000Y-56242750D01*
X241787000Y-56242750D02*
X231183250Y-45639000D01*
X149741443Y-50436000D02*
X148391500Y-50436000D01*
X152492500Y-53187057D02*
X149741443Y-50436000D01*
X152492500Y-53684943D02*
X152492500Y-53187057D01*
X231183250Y-45639000D02*
X155188500Y-45639000D01*
X121921000Y-73936000D02*
X132241443Y-73936000D01*
X230755280Y-78038064D02*
X241787000Y-67006344D01*
X132241443Y-73936000D02*
X152492500Y-53684943D01*
X229499236Y-78038064D02*
X230755280Y-78038064D01*
X155188500Y-45639000D02*
X153391500Y-47436000D01*
X121920000Y-73937000D02*
X121921000Y-73936000D01*
%TO.N,RAM-A4*%
X153294500Y-54017143D02*
X153294500Y-52854857D01*
X231515450Y-44837000D02*
X151490500Y-44837000D01*
X119891500Y-75936000D02*
X131375643Y-75936000D01*
X242589000Y-55910550D02*
X231515450Y-44837000D01*
X131375643Y-75936000D02*
X153294500Y-54017143D01*
X230192139Y-79043634D02*
X230883910Y-79043634D01*
X230883910Y-79043634D02*
X242589000Y-67338544D01*
X151490500Y-44837000D02*
X150891500Y-45436000D01*
X119270715Y-76556785D02*
X119891500Y-75936000D01*
X153294500Y-52854857D02*
X148875643Y-48436000D01*
X242589000Y-67338544D02*
X242589000Y-55910550D01*
X148875643Y-48436000D02*
X145891500Y-48436000D01*
%TO.N,RAM-A8*%
X150973643Y-43034000D02*
X151073643Y-43134000D01*
X143442557Y-43035000D02*
X143642557Y-42835000D01*
X136285265Y-46542235D02*
X136285265Y-44142235D01*
X143642557Y-42835000D02*
X143959300Y-42835000D01*
X144160300Y-42634000D02*
X145273757Y-42634000D01*
X139090500Y-43035000D02*
X143442557Y-43035000D01*
X232080850Y-43134000D02*
X244193000Y-55246150D01*
X145273757Y-42634000D02*
X145473757Y-42834000D01*
X244193000Y-55246150D02*
X244193000Y-86917343D01*
X151073643Y-43134000D02*
X232080850Y-43134000D01*
X244193000Y-86917343D02*
X230674343Y-100436000D01*
X146006543Y-43034000D02*
X150973643Y-43034000D01*
X145473757Y-42834000D02*
X145806543Y-42834000D01*
X143959300Y-42835000D02*
X144160300Y-42634000D01*
X145806543Y-42834000D02*
X146006543Y-43034000D01*
X230674343Y-100436000D02*
X230391500Y-100436000D01*
X136285265Y-44142235D02*
X136391500Y-44036000D01*
X138891500Y-42836000D02*
X139090500Y-43035000D01*
%TO.N,CLOCK*%
X208336000Y-94000000D02*
X193000000Y-94000000D01*
X189454126Y-53565726D02*
X190444200Y-54555800D01*
X211836000Y-89836000D02*
X199000000Y-77000000D01*
X107333950Y-102684000D02*
X109333950Y-102684000D01*
X92833950Y-117184000D02*
X107333950Y-102684000D01*
X212500000Y-89836000D02*
X211836000Y-89836000D01*
X198000000Y-127500000D02*
X197521500Y-127500000D01*
X193105557Y-57500000D02*
X194500000Y-57500000D01*
X193500000Y-119500000D02*
X199012900Y-113987100D01*
X201500000Y-131000000D02*
X198000000Y-127500000D01*
X195399000Y-142101000D02*
X196000000Y-141500000D01*
X212500000Y-89836000D02*
X208336000Y-94000000D01*
X192290500Y-56402100D02*
X192290500Y-56500000D01*
X192290500Y-56500000D02*
X192290500Y-56684943D01*
X184834274Y-53565726D02*
X189454126Y-53565726D01*
X190444200Y-54555800D02*
X192290500Y-56402100D01*
X184500000Y-53900000D02*
X184834274Y-53565726D01*
X192290500Y-56684943D02*
X193105557Y-57500000D01*
X82630950Y-142101000D02*
X195399000Y-142101000D01*
X220000000Y-56500000D02*
X221500000Y-58000000D01*
X194500000Y-57500000D02*
X194500000Y-71718000D01*
X197521500Y-127500000D02*
X193440500Y-123419000D01*
X199012900Y-113987100D02*
X199012900Y-104905000D01*
X77213950Y-136684000D02*
X82630950Y-142101000D01*
X194500000Y-57500000D02*
X195500000Y-56500000D01*
X194500000Y-71718000D02*
X193000000Y-73218000D01*
X199012900Y-104905000D02*
X192831900Y-98724000D01*
X195500000Y-56500000D02*
X220000000Y-56500000D01*
%TO.N,Z80-WAIT*%
X132333950Y-138001000D02*
X132333950Y-137543339D01*
X132333950Y-137543339D02*
X132951057Y-136926232D01*
X245583950Y-127666800D02*
X234049750Y-139201000D01*
X234049750Y-139201000D02*
X132333950Y-139201000D01*
X245583950Y-106934000D02*
X245583950Y-127666800D01*
%TO.N,Z80-RESET*%
X245833950Y-105633000D02*
X246122842Y-105633000D01*
X246122842Y-103735000D02*
X245833950Y-103735000D01*
X245583950Y-98684000D02*
X245833950Y-98934000D01*
X131333950Y-138001000D02*
X131333950Y-137683999D01*
X246884950Y-101895108D02*
X246884950Y-102972892D01*
X245833950Y-101133000D02*
X246122842Y-101133000D01*
X246884950Y-107472892D02*
X246122842Y-108235000D01*
X246884950Y-102972892D02*
X246122842Y-103735000D01*
X233918850Y-139899000D02*
X132031950Y-139899000D01*
X246122842Y-101133000D02*
X246884950Y-101895108D01*
X246122842Y-108235000D02*
X245984950Y-108235000D01*
X246884950Y-106395108D02*
X246884950Y-107472892D01*
X245833950Y-103735000D02*
X245833950Y-105633000D01*
X245984950Y-108235000D02*
X245984950Y-127832900D01*
X245833950Y-98934000D02*
X245833950Y-101133000D01*
X245984950Y-127832900D02*
X233918850Y-139899000D01*
X132031950Y-139899000D02*
X131333950Y-139201000D01*
X131333950Y-137683999D02*
X130643214Y-136993263D01*
X246122842Y-105633000D02*
X246884950Y-106395108D01*
%TO.N,Vdd_3v3*%
X180411900Y-74919000D02*
X179310900Y-76020000D01*
X173874500Y-74919000D02*
X158391500Y-59436000D01*
X72333950Y-136684000D02*
X45984007Y-136684000D01*
X194879500Y-122318000D02*
X181841500Y-122318000D01*
X87891500Y-44436000D02*
X88891500Y-43436000D01*
X84833950Y-54936000D02*
X84833950Y-58035000D01*
X179030900Y-121709400D02*
X180740500Y-123419000D01*
X38490500Y-129190493D02*
X38490500Y-69769900D01*
X144790500Y-44084943D02*
X145142557Y-44437000D01*
X214391500Y-121436000D02*
X197963500Y-121436000D01*
X180411900Y-74919000D02*
X173874500Y-74919000D01*
X195980500Y-123419000D02*
X194879500Y-122318000D01*
X143642557Y-44037000D02*
X144140443Y-44037000D01*
X239884000Y-57031000D02*
X226488100Y-70426900D01*
X216891500Y-123936000D02*
X214391500Y-121436000D01*
X143290500Y-43684943D02*
X143642557Y-44037000D01*
X194270900Y-97623000D02*
X181232900Y-97623000D01*
X50225400Y-58035000D02*
X84833950Y-58035000D01*
X144492500Y-43436000D02*
X144941557Y-43436000D01*
X195651900Y-74919000D02*
X194550900Y-73818000D01*
X38490500Y-69769900D02*
X50225400Y-58035000D01*
X194550900Y-73818000D02*
X181512900Y-73818000D01*
X200144000Y-70426900D02*
X195651900Y-74919000D01*
X181232900Y-97623000D02*
X180131900Y-98724000D01*
X195371900Y-98724000D02*
X194270900Y-97623000D01*
X76333950Y-46184000D02*
X76163725Y-46013775D01*
X88891500Y-43436000D02*
X143290500Y-43436000D01*
X181512900Y-73818000D02*
X180411900Y-74919000D01*
X144140443Y-44037000D02*
X144492500Y-43684943D01*
X79333950Y-46184000D02*
X76333950Y-46184000D01*
X158311500Y-53936000D02*
X158311500Y-59356000D01*
X145840443Y-44237000D02*
X148612500Y-44237000D01*
X181841500Y-122318000D02*
X180740500Y-123419000D01*
X144492500Y-43684943D02*
X144492500Y-43436000D01*
X179310900Y-76020000D02*
X179310900Y-97903000D01*
X226488100Y-70426900D02*
X200144000Y-70426900D01*
X144941557Y-43436000D02*
X144790500Y-43587057D01*
X144790500Y-43587057D02*
X144790500Y-44084943D01*
X200144000Y-58031000D02*
X200144000Y-70426900D01*
X145142557Y-44437000D02*
X145640443Y-44437000D01*
X197963500Y-121436000D02*
X195980500Y-123419000D01*
X180131900Y-98724000D02*
X179030900Y-99825000D01*
X148612500Y-44237000D02*
X158311500Y-53936000D01*
X145640443Y-44437000D02*
X145840443Y-44237000D01*
X158311500Y-59356000D02*
X158391500Y-59436000D01*
X45984007Y-136684000D02*
X38490500Y-129190493D01*
X179310900Y-97903000D02*
X180131900Y-98724000D01*
X143290500Y-43436000D02*
X143290500Y-43684943D01*
X179030900Y-99825000D02*
X179030900Y-121709400D01*
%TO.N,RP2040-DVDD*%
X190500000Y-63000000D02*
X190500000Y-57000000D01*
X187900000Y-63000000D02*
X190500000Y-63000000D01*
X187500000Y-63400000D02*
X187900000Y-63000000D01*
X185281916Y-50272084D02*
X185554000Y-50000000D01*
X185054000Y-50272084D02*
X185281916Y-50272084D01*
X185554000Y-50000000D02*
X187933950Y-50000000D01*
X190500000Y-57000000D02*
X191269935Y-56230065D01*
%TO.N,RP2040-RWRAM-GPIO5-DIR*%
X241500000Y-109500000D02*
X241500000Y-108500000D01*
X232000000Y-73500000D02*
X202500000Y-73500000D01*
X237250000Y-68250000D02*
X232000000Y-73500000D01*
X242000000Y-108000000D02*
X242000000Y-104500000D01*
X241500000Y-108500000D02*
X242000000Y-108000000D01*
%TO.N,USB-C-VBUS*%
X69083950Y-42434000D02*
X68833950Y-42184000D01*
X64833950Y-42184000D02*
X64583950Y-42434000D01*
X68833950Y-42184000D02*
X64833950Y-42184000D01*
%TO.N,FLASH-DO-RP2040-QSPI_SD1*%
X188955500Y-52500000D02*
X185394600Y-52500000D01*
X185057600Y-52837000D02*
X184663000Y-52837000D01*
X184564000Y-52936000D02*
X183391500Y-52936000D01*
X184663000Y-52837000D02*
X184564000Y-52936000D01*
X183391500Y-52936000D02*
X183391500Y-52950496D01*
X183391500Y-52950496D02*
X183482206Y-53041202D01*
X192891500Y-56436000D02*
X188955500Y-52500000D01*
X185394600Y-52500000D02*
X185057600Y-52837000D01*
%TO.N,FLASH-DI-RP2040-QSPI_SD0*%
X188891500Y-48936000D02*
X185541557Y-48936000D01*
X184391500Y-51436000D02*
X184291500Y-51436000D01*
X184391500Y-50086057D02*
X184391500Y-51436000D01*
X185541557Y-48936000D02*
X184391500Y-50086057D01*
%TO.N,FLASH-CS-RP2040-QSPI_SS*%
X186391500Y-50936000D02*
X188391500Y-50936000D01*
X182891500Y-52436000D02*
X184891500Y-52436000D01*
X184891500Y-52436000D02*
X186391500Y-50936000D01*
%TO.N,Net-(USB_C1-SHIELD)*%
X71341500Y-40561000D02*
X71341500Y-43761000D01*
X62441500Y-43761000D02*
X62441500Y-40561000D01*
X58526500Y-43761000D02*
X58391500Y-43626000D01*
X71341500Y-43761000D02*
X62441500Y-43761000D01*
X62441500Y-43761000D02*
X58526500Y-43761000D01*
%TO.N,RP2040-RPBOOTMODE*%
X190333950Y-47041000D02*
X190190950Y-47184000D01*
X175223500Y-47184000D02*
X168471500Y-53936000D01*
X190190950Y-47184000D02*
X175223500Y-47184000D01*
%TO.N,RP2040-RWRAM-GPIO7-Q7*%
X225500000Y-66000000D02*
X227500000Y-64000000D01*
X227500000Y-64000000D02*
X229500000Y-64000000D01*
X239500000Y-106000000D02*
X239500000Y-104500000D01*
X239020500Y-107520500D02*
X239020500Y-106479500D01*
X239020500Y-106479500D02*
X239500000Y-106000000D01*
%TO.N,USB-RP2040-DP*%
X180517950Y-54500000D02*
X179734950Y-55283000D01*
X87333950Y-49184000D02*
X92333950Y-44184000D01*
X160934950Y-41033057D02*
X160934950Y-41184000D01*
X143128800Y-40830000D02*
X143329800Y-40629000D01*
X139804843Y-40631000D02*
X140203843Y-41030000D01*
X186082523Y-54500000D02*
X180517950Y-54500000D01*
X137529157Y-41080000D02*
X137978157Y-40631000D01*
X179734950Y-55283000D02*
X168261450Y-55283000D01*
X143329800Y-40629000D02*
X146104257Y-40629000D01*
X94833950Y-41084000D02*
X94933950Y-41184000D01*
X186415797Y-54166726D02*
X186082523Y-54500000D01*
X136638743Y-41032000D02*
X136686743Y-41080000D01*
X142612057Y-41030000D02*
X142812057Y-40830000D01*
X186655000Y-54166726D02*
X186415797Y-54166726D01*
X135144257Y-41032000D02*
X136638743Y-41032000D01*
X146837043Y-41029000D02*
X151804143Y-41029000D01*
X160582893Y-40681000D02*
X160934950Y-41033057D01*
X137978157Y-40631000D02*
X139804843Y-40631000D01*
X151855143Y-41080000D02*
X159732950Y-41080000D01*
X66333950Y-44584000D02*
X66333950Y-45184000D01*
X142812057Y-40830000D02*
X143128800Y-40830000D01*
X94933950Y-41184000D02*
X134992257Y-41184000D01*
X136686743Y-41080000D02*
X137529157Y-41080000D01*
X146637043Y-40829000D02*
X146837043Y-41029000D01*
X151804143Y-41029000D02*
X151855143Y-41080000D01*
X168261450Y-55283000D02*
X162833950Y-49855500D01*
X159732950Y-41080000D02*
X159732950Y-41033057D01*
X162833950Y-49855500D02*
X162833950Y-47184000D01*
X70333950Y-49184000D02*
X76333950Y-49184000D01*
X76333950Y-49184000D02*
X87333950Y-49184000D01*
X160085007Y-40681000D02*
X160582893Y-40681000D01*
X159732950Y-41033057D02*
X160085007Y-40681000D01*
X146104257Y-40629000D02*
X146304257Y-40829000D01*
X140203843Y-41030000D02*
X142612057Y-41030000D01*
X134992257Y-41184000D02*
X135144257Y-41032000D01*
X146304257Y-40829000D02*
X146637043Y-40829000D01*
X66333950Y-45184000D02*
X70333950Y-49184000D01*
X160934950Y-41184000D02*
X161333950Y-41184000D01*
%TO.N,USB-RP2040-DM*%
X161833950Y-49184000D02*
X161833950Y-47184000D01*
X142778157Y-41431000D02*
X142978157Y-41231000D01*
X84833950Y-41684000D02*
X135059357Y-41684000D01*
X182333950Y-55684000D02*
X168095350Y-55684000D01*
X143294900Y-41231000D02*
X143495900Y-41030000D01*
X145938157Y-41030000D02*
X146138157Y-41230000D01*
X66833950Y-42784000D02*
X67084950Y-43035000D01*
X146670943Y-41430000D02*
X151638043Y-41430000D01*
X69332893Y-43035000D02*
X70333950Y-42033943D01*
X63982950Y-42682943D02*
X63982950Y-41942696D01*
X146470943Y-41230000D02*
X146670943Y-41430000D01*
X136520643Y-41481000D02*
X137695257Y-41481000D01*
X64335007Y-43035000D02*
X63982950Y-42682943D01*
X139638743Y-41032000D02*
X140037743Y-41431000D01*
X67084950Y-43035000D02*
X69332893Y-43035000D01*
X137695257Y-41481000D02*
X138144257Y-41032000D01*
X142978157Y-41231000D02*
X143294900Y-41231000D01*
X143495900Y-41030000D02*
X145938157Y-41030000D01*
X82434950Y-39285000D02*
X84833950Y-41684000D01*
X160134950Y-41481000D02*
X160333950Y-41282000D01*
X146138157Y-41230000D02*
X146470943Y-41230000D01*
X186854000Y-56184000D02*
X182833950Y-56184000D01*
X71020070Y-39285000D02*
X82434950Y-39285000D01*
X140037743Y-41431000D02*
X142778157Y-41431000D01*
X70333950Y-42033943D02*
X70333950Y-39971120D01*
X182833950Y-56184000D02*
X182333950Y-55684000D01*
X66833950Y-42784000D02*
X66582950Y-43035000D01*
X151638043Y-41430000D02*
X151689043Y-41481000D01*
X70333950Y-39971120D02*
X71020070Y-39285000D01*
X66582950Y-43035000D02*
X64335007Y-43035000D01*
X151689043Y-41481000D02*
X160134950Y-41481000D01*
X135059357Y-41684000D02*
X135310357Y-41433000D01*
X136472643Y-41433000D02*
X136520643Y-41481000D01*
X168095350Y-55684000D02*
X162432950Y-50021600D01*
X63982950Y-41942696D02*
X66460237Y-39465409D01*
X162432950Y-50021600D02*
X162432950Y-49783000D01*
X135310357Y-41433000D02*
X136472643Y-41433000D01*
X138144257Y-41032000D02*
X139638743Y-41032000D01*
X162432950Y-49783000D02*
X161833950Y-49184000D01*
%TO.N,RP2040-SH-GPIO4-RCLK*%
X178977750Y-69522250D02*
X180977750Y-69522250D01*
X178500000Y-70000000D02*
X178977750Y-69522250D01*
%TO.N,RP2040-RWRAM-GPIO8-PL*%
X237101000Y-103399000D02*
X235000000Y-105500000D01*
X241000000Y-104500000D02*
X239899000Y-103399000D01*
X225500000Y-63500000D02*
X227000000Y-62000000D01*
X239899000Y-103399000D02*
X237101000Y-103399000D01*
X227000000Y-62000000D02*
X229500000Y-62000000D01*
X218500000Y-131539000D02*
X221240500Y-131539000D01*
X218500000Y-120000000D02*
X218500000Y-131539000D01*
%TO.N,RP2040-RWRAM-GPIO6-DS*%
X238500000Y-104000000D02*
X237000000Y-105500000D01*
X237000000Y-105500000D02*
X237000000Y-107000000D01*
X228500000Y-65500000D02*
X229500000Y-65500000D01*
X226000000Y-68000000D02*
X228500000Y-65500000D01*
%TO.N,Net-(ShiftRegisterOut1-SER)*%
X201500000Y-82038000D02*
X201500000Y-81000000D01*
X198191900Y-77691900D02*
X198191900Y-74919000D01*
X201500000Y-81000000D02*
X198191900Y-77691900D01*
%TD*%
M02*
