%TF.GenerationSoftware,KiCad,Pcbnew,9.0.6*%
%TF.CreationDate,2026-03-04T11:30:59+01:00*%
%TF.ProjectId,Z80DevBoard,5a383044-6576-4426-9f61-72642e6b6963,rev?*%
%TF.SameCoordinates,Original*%
%TF.FileFunction,Soldermask,Top*%
%TF.FilePolarity,Negative*%
%FSLAX46Y46*%
G04 Gerber Fmt 4.6, Leading zero omitted, Abs format (unit mm)*
G04 Created by KiCad (PCBNEW 9.0.6) date 2026-03-04 11:30:59*
%MOMM*%
%LPD*%
G01*
G04 APERTURE LIST*
G04 Aperture macros list*
%AMRoundRect*
0 Rectangle with rounded corners*
0 $1 Rounding radius*
0 $2 $3 $4 $5 $6 $7 $8 $9 X,Y pos of 4 corners*
0 Add a 4 corners polygon primitive as box body*
4,1,4,$2,$3,$4,$5,$6,$7,$8,$9,$2,$3,0*
0 Add four circle primitives for the rounded corners*
1,1,$1+$1,$2,$3*
1,1,$1+$1,$4,$5*
1,1,$1+$1,$6,$7*
1,1,$1+$1,$8,$9*
0 Add four rect primitives between the rounded corners*
20,1,$1+$1,$2,$3,$4,$5,0*
20,1,$1+$1,$4,$5,$6,$7,0*
20,1,$1+$1,$6,$7,$8,$9,0*
20,1,$1+$1,$8,$9,$2,$3,0*%
G04 Aperture macros list end*
%ADD10C,1.600000*%
%ADD11RoundRect,0.250000X-0.350000X-0.350000X0.350000X-0.350000X0.350000X0.350000X-0.350000X0.350000X0*%
%ADD12C,1.200000*%
%ADD13RoundRect,0.100000X-0.637500X-0.100000X0.637500X-0.100000X0.637500X0.100000X-0.637500X0.100000X0*%
%ADD14RoundRect,0.250000X0.550000X-0.550000X0.550000X0.550000X-0.550000X0.550000X-0.550000X-0.550000X0*%
%ADD15RoundRect,0.250000X0.350000X0.350000X-0.350000X0.350000X-0.350000X-0.350000X0.350000X-0.350000X0*%
%ADD16RoundRect,0.150000X0.200000X-0.150000X0.200000X0.150000X-0.200000X0.150000X-0.200000X-0.150000X0*%
%ADD17R,2.200000X2.200000*%
%ADD18R,1.250000X2.200000*%
%ADD19R,2.200000X1.250000*%
%ADD20RoundRect,0.375000X-0.625000X-0.375000X0.625000X-0.375000X0.625000X0.375000X-0.625000X0.375000X0*%
%ADD21RoundRect,0.500000X-0.500000X-1.400000X0.500000X-1.400000X0.500000X1.400000X-0.500000X1.400000X0*%
%ADD22RoundRect,0.147500X0.147500X0.172500X-0.147500X0.172500X-0.147500X-0.172500X0.147500X-0.172500X0*%
%ADD23C,2.000000*%
%ADD24RoundRect,0.250000X-0.550000X-0.550000X0.550000X-0.550000X0.550000X0.550000X-0.550000X0.550000X0*%
%ADD25C,0.700000*%
%ADD26O,0.900000X2.400000*%
%ADD27O,0.900000X1.700000*%
%ADD28RoundRect,0.050000X-0.387500X-0.050000X0.387500X-0.050000X0.387500X0.050000X-0.387500X0.050000X0*%
%ADD29RoundRect,0.050000X-0.050000X-0.387500X0.050000X-0.387500X0.050000X0.387500X-0.050000X0.387500X0*%
%ADD30R,3.200000X3.200000*%
%ADD31C,1.500000*%
%ADD32RoundRect,0.250001X-0.499999X-0.549999X0.499999X-0.549999X0.499999X0.549999X-0.499999X0.549999X0*%
%ADD33RoundRect,0.162500X-0.650000X-0.162500X0.650000X-0.162500X0.650000X0.162500X-0.650000X0.162500X0*%
%ADD34O,2.200000X3.500000*%
%ADD35R,1.500000X2.500000*%
%ADD36O,1.500000X2.500000*%
%ADD37R,0.850000X0.850000*%
%ADD38C,0.850000*%
G04 APERTURE END LIST*
D10*
%TO.C,R69*%
X149500000Y-95580000D03*
X149500000Y-85420000D03*
%TD*%
D11*
%TO.C,C8*%
X167000000Y-69000000D03*
D12*
X168500000Y-69000000D03*
%TD*%
D10*
%TO.C,R8*%
X111160000Y-136500000D03*
X101000000Y-136500000D03*
%TD*%
D13*
%TO.C,DataBus2*%
X246637500Y-124614000D03*
X246637500Y-125264000D03*
X246637500Y-125914000D03*
X246637500Y-126564000D03*
X246637500Y-127214000D03*
X246637500Y-127864000D03*
X246637500Y-128514000D03*
X246637500Y-129164000D03*
X246637500Y-129814000D03*
X246637500Y-130464000D03*
X252362500Y-130464000D03*
X252362500Y-129814000D03*
X252362500Y-129164000D03*
X252362500Y-128514000D03*
X252362500Y-127864000D03*
X252362500Y-127214000D03*
X252362500Y-126564000D03*
X252362500Y-125914000D03*
X252362500Y-125264000D03*
X252362500Y-124614000D03*
%TD*%
D10*
%TO.C,R11*%
X143349500Y-133783000D03*
X153509500Y-133783000D03*
%TD*%
%TO.C,R12*%
X52741500Y-53746000D03*
X52741500Y-43586000D03*
%TD*%
%TO.C,R27*%
X48000000Y-108000000D03*
X48000000Y-97840000D03*
%TD*%
%TO.C,R15*%
X197840000Y-62000000D03*
X208000000Y-62000000D03*
%TD*%
D14*
%TO.C,ShiftRegisterIn2*%
X221240500Y-131539000D03*
D10*
X223780500Y-131539000D03*
X226320500Y-131539000D03*
X228860500Y-131539000D03*
X231400500Y-131539000D03*
X233940500Y-131539000D03*
X236480500Y-131539000D03*
X239020500Y-131539000D03*
X239020500Y-123919000D03*
X236480500Y-123919000D03*
X233940500Y-123919000D03*
X231400500Y-123919000D03*
X228860500Y-123919000D03*
X226320500Y-123919000D03*
X223780500Y-123919000D03*
X221240500Y-123919000D03*
%TD*%
D15*
%TO.C,C6*%
X211500000Y-52000000D03*
D12*
X210000000Y-52000000D03*
%TD*%
D11*
%TO.C,C9*%
X87000000Y-95000000D03*
D12*
X88500000Y-95000000D03*
%TD*%
D10*
%TO.C,R65*%
X169500000Y-95660000D03*
X169500000Y-85500000D03*
%TD*%
D16*
%TO.C,D60*%
X216000000Y-125600000D03*
X216000000Y-127000000D03*
%TD*%
%TO.C,D62*%
X208500000Y-125600000D03*
X208500000Y-127000000D03*
%TD*%
D17*
%TO.C,D52*%
X165909500Y-119000000D03*
D18*
X163634500Y-119000000D03*
%TD*%
D17*
%TO.C,D45*%
X91100000Y-132500000D03*
D18*
X93375000Y-132500000D03*
%TD*%
D17*
%TO.C,D66*%
X214500000Y-77500000D03*
D19*
X214500000Y-79775000D03*
%TD*%
D10*
%TO.C,R58*%
X204500000Y-95660000D03*
X204500000Y-85500000D03*
%TD*%
%TO.C,R62*%
X184500000Y-95580000D03*
X184500000Y-85420000D03*
%TD*%
D20*
%TO.C,LDO1*%
X77091500Y-42786000D03*
X77091500Y-45086000D03*
D21*
X83391500Y-45086000D03*
D20*
X77091500Y-47386000D03*
%TD*%
D10*
%TO.C,R56*%
X214500000Y-95660000D03*
X214500000Y-85500000D03*
%TD*%
D16*
%TO.C,D5*%
X203418600Y-103030500D03*
X203418600Y-104430500D03*
%TD*%
%TO.C,D23*%
X211000000Y-114100000D03*
X211000000Y-115500000D03*
%TD*%
%TO.C,D59*%
X211000000Y-125600000D03*
X211000000Y-127000000D03*
%TD*%
D22*
%TO.C,F1*%
X74726500Y-39586000D03*
X73756500Y-39586000D03*
%TD*%
D17*
%TO.C,D73*%
X179500000Y-77500000D03*
D19*
X179500000Y-79775000D03*
%TD*%
D10*
%TO.C,R63*%
X179500000Y-95660000D03*
X179500000Y-85500000D03*
%TD*%
D17*
%TO.C,D67*%
X209500000Y-77500000D03*
D19*
X209500000Y-79775000D03*
%TD*%
D10*
%TO.C,R55*%
X219500000Y-95660000D03*
X219500000Y-85500000D03*
%TD*%
%TO.C,R6*%
X143429500Y-123283000D03*
X153589500Y-123283000D03*
%TD*%
%TO.C,R25*%
X63000000Y-95000000D03*
X63000000Y-84840000D03*
%TD*%
D16*
%TO.C,D29*%
X208500000Y-114100000D03*
X208500000Y-115500000D03*
%TD*%
D17*
%TO.C,D55*%
X165909500Y-129783000D03*
D18*
X163634500Y-129783000D03*
%TD*%
D14*
%TO.C,LedMatrixAddress2*%
X145460000Y-109000000D03*
D10*
X148000000Y-109000000D03*
X150540000Y-109000000D03*
X153080000Y-109000000D03*
X155620000Y-109000000D03*
X158160000Y-109000000D03*
X160700000Y-109000000D03*
X163240000Y-109000000D03*
X165780000Y-109000000D03*
X168320000Y-109000000D03*
X168320000Y-101380000D03*
X165780000Y-101380000D03*
X163240000Y-101380000D03*
X160700000Y-101380000D03*
X158160000Y-101380000D03*
X155620000Y-101380000D03*
X153080000Y-101380000D03*
X150540000Y-101380000D03*
X148000000Y-101380000D03*
X145460000Y-101380000D03*
%TD*%
D17*
%TO.C,D69*%
X199500000Y-77500000D03*
D19*
X199500000Y-79775000D03*
%TD*%
D10*
%TO.C,R17*%
X179740000Y-52000000D03*
X169580000Y-52000000D03*
%TD*%
%TO.C,R26*%
X58000000Y-108000000D03*
X58000000Y-97840000D03*
%TD*%
%TO.C,R21*%
X143432500Y-137000000D03*
X153592500Y-137000000D03*
%TD*%
%TO.C,R70*%
X144500000Y-95580000D03*
X144500000Y-85420000D03*
%TD*%
D17*
%TO.C,D36*%
X58000000Y-67625000D03*
D19*
X58000000Y-69900000D03*
%TD*%
D17*
%TO.C,D74*%
X174500000Y-77500000D03*
D19*
X174500000Y-79775000D03*
%TD*%
D17*
%TO.C,D1*%
X165909500Y-126283000D03*
D18*
X163634500Y-126283000D03*
%TD*%
D13*
%TO.C,DataBus3*%
X223956100Y-101733500D03*
X223956100Y-102383500D03*
X223956100Y-103033500D03*
X223956100Y-103683500D03*
X223956100Y-104333500D03*
X223956100Y-104983500D03*
X223956100Y-105633500D03*
X223956100Y-106283500D03*
X223956100Y-106933500D03*
X223956100Y-107583500D03*
X229681100Y-107583500D03*
X229681100Y-106933500D03*
X229681100Y-106283500D03*
X229681100Y-105633500D03*
X229681100Y-104983500D03*
X229681100Y-104333500D03*
X229681100Y-103683500D03*
X229681100Y-103033500D03*
X229681100Y-102383500D03*
X229681100Y-101733500D03*
%TD*%
D10*
%TO.C,R64*%
X174500000Y-95660000D03*
X174500000Y-85500000D03*
%TD*%
D17*
%TO.C,D72*%
X184500000Y-77420000D03*
D19*
X184500000Y-79695000D03*
%TD*%
D16*
%TO.C,D15*%
X215668600Y-103030500D03*
X215668600Y-104430500D03*
%TD*%
D17*
%TO.C,D51*%
X91100000Y-136500000D03*
D18*
X93375000Y-136500000D03*
%TD*%
D10*
%TO.C,R9*%
X143429500Y-119783000D03*
X153589500Y-119783000D03*
%TD*%
D11*
%TO.C,C1*%
X74391500Y-54936000D03*
D12*
X75891500Y-54936000D03*
%TD*%
D10*
%TO.C,R35*%
X78000000Y-108000000D03*
X78000000Y-97840000D03*
%TD*%
%TO.C,R66*%
X164500000Y-95660000D03*
X164500000Y-85500000D03*
%TD*%
D17*
%TO.C,D70*%
X194500000Y-77420000D03*
D19*
X194500000Y-79695000D03*
%TD*%
D13*
%TO.C,DataBus1*%
X224237500Y-113103000D03*
X224237500Y-113753000D03*
X224237500Y-114403000D03*
X224237500Y-115053000D03*
X224237500Y-115703000D03*
X224237500Y-116353000D03*
X224237500Y-117003000D03*
X224237500Y-117653000D03*
X224237500Y-118303000D03*
X224237500Y-118953000D03*
X229962500Y-118953000D03*
X229962500Y-118303000D03*
X229962500Y-117653000D03*
X229962500Y-117003000D03*
X229962500Y-116353000D03*
X229962500Y-115703000D03*
X229962500Y-115053000D03*
X229962500Y-114403000D03*
X229962500Y-113753000D03*
X229962500Y-113103000D03*
%TD*%
D23*
%TO.C,SW1*%
X247750000Y-115000000D03*
X254250000Y-115000000D03*
X247750000Y-119500000D03*
X254250000Y-119500000D03*
%TD*%
D10*
%TO.C,R36*%
X83000000Y-108000000D03*
X83000000Y-97840000D03*
%TD*%
D16*
%TO.C,D61*%
X203500000Y-125600000D03*
X203500000Y-127000000D03*
%TD*%
D17*
%TO.C,D77*%
X159500000Y-77500000D03*
D19*
X159500000Y-79775000D03*
%TD*%
D17*
%TO.C,D33*%
X48000000Y-77000000D03*
D19*
X48000000Y-79275000D03*
%TD*%
D10*
%TO.C,R10*%
X143429500Y-116283000D03*
X153589500Y-116283000D03*
%TD*%
D15*
%TO.C,C5*%
X206650000Y-52000000D03*
D12*
X205150000Y-52000000D03*
%TD*%
D16*
%TO.C,D3*%
X200968600Y-103030500D03*
X200968600Y-104430500D03*
%TD*%
D14*
%TO.C,ShiftRegisterOut3*%
X179230500Y-108769500D03*
D10*
X181770500Y-108769500D03*
X184310500Y-108769500D03*
X186850500Y-108769500D03*
X189390500Y-108769500D03*
X191930500Y-108769500D03*
X194470500Y-108769500D03*
X197010500Y-108769500D03*
X197010500Y-101149500D03*
X194470500Y-101149500D03*
X191930500Y-101149500D03*
X189390500Y-101149500D03*
X186850500Y-101149500D03*
X184310500Y-101149500D03*
X181770500Y-101149500D03*
X179230500Y-101149500D03*
%TD*%
D16*
%TO.C,D56*%
X201000000Y-125600000D03*
X201000000Y-127000000D03*
%TD*%
D10*
%TO.C,R2*%
X100920000Y-126000000D03*
X111080000Y-126000000D03*
%TD*%
%TO.C,R53*%
X71340000Y-135000000D03*
X81500000Y-135000000D03*
%TD*%
D11*
%TO.C,C2*%
X80391500Y-54936000D03*
D12*
X81891500Y-54936000D03*
%TD*%
D10*
%TO.C,R4*%
X111080000Y-133000000D03*
X100920000Y-133000000D03*
%TD*%
D17*
%TO.C,D38*%
X68000000Y-67625000D03*
D19*
X68000000Y-69900000D03*
%TD*%
D23*
%TO.C,SW2*%
X247750000Y-106750000D03*
X254250000Y-106750000D03*
X247750000Y-111250000D03*
X254250000Y-111250000D03*
%TD*%
D17*
%TO.C,D41*%
X58000000Y-77000000D03*
D19*
X58000000Y-79275000D03*
%TD*%
D10*
%TO.C,R37*%
X73000000Y-108000000D03*
X73000000Y-97840000D03*
%TD*%
%TO.C,R68*%
X154500000Y-95660000D03*
X154500000Y-85500000D03*
%TD*%
D17*
%TO.C,D50*%
X91100000Y-140500000D03*
D18*
X93375000Y-140500000D03*
%TD*%
D10*
%TO.C,R16*%
X71420000Y-140000000D03*
X81580000Y-140000000D03*
%TD*%
D14*
%TO.C,RAM2*%
X131520000Y-63500000D03*
D10*
X134060000Y-63500000D03*
X136600000Y-63500000D03*
X139140000Y-63500000D03*
X141680000Y-63500000D03*
X144220000Y-63500000D03*
X146760000Y-63500000D03*
X149300000Y-63500000D03*
X151840000Y-63500000D03*
X154380000Y-63500000D03*
X156920000Y-63500000D03*
X159460000Y-63500000D03*
X162000000Y-63500000D03*
X164540000Y-63500000D03*
X164540000Y-48260000D03*
X162000000Y-48260000D03*
X159460000Y-48260000D03*
X156920000Y-48260000D03*
X154380000Y-48260000D03*
X151840000Y-48260000D03*
X149300000Y-48260000D03*
X146760000Y-48260000D03*
X144220000Y-48260000D03*
X141680000Y-48260000D03*
X139140000Y-48260000D03*
X136600000Y-48260000D03*
X134060000Y-48260000D03*
X131520000Y-48260000D03*
%TD*%
D24*
%TO.C,U3*%
X82380000Y-113760000D03*
D10*
X82380000Y-116300000D03*
X82380000Y-118840000D03*
X82380000Y-121380000D03*
X82380000Y-123920000D03*
X82380000Y-126460000D03*
X82380000Y-129000000D03*
X90000000Y-129000000D03*
X90000000Y-126460000D03*
X90000000Y-123920000D03*
X90000000Y-121380000D03*
X90000000Y-118840000D03*
X90000000Y-116300000D03*
X90000000Y-113760000D03*
%TD*%
%TO.C,R31*%
X58000000Y-95000000D03*
X58000000Y-84840000D03*
%TD*%
D17*
%TO.C,D40*%
X83000000Y-67625000D03*
D19*
X83000000Y-69900000D03*
%TD*%
D17*
%TO.C,D43*%
X63000000Y-77000000D03*
D19*
X63000000Y-79275000D03*
%TD*%
D17*
%TO.C,D39*%
X68000000Y-77000000D03*
D19*
X68000000Y-79275000D03*
%TD*%
D16*
%TO.C,D25*%
X216000000Y-114100000D03*
X216000000Y-115500000D03*
%TD*%
D10*
%TO.C,R30*%
X78000000Y-95000000D03*
X78000000Y-84840000D03*
%TD*%
%TO.C,R60*%
X194500000Y-95580000D03*
X194500000Y-85420000D03*
%TD*%
D15*
%TO.C,C4*%
X201800000Y-52000000D03*
D12*
X200300000Y-52000000D03*
%TD*%
D10*
%TO.C,R28*%
X53000000Y-108000000D03*
X53000000Y-97840000D03*
%TD*%
D11*
%TO.C,C11*%
X160000000Y-69000000D03*
D12*
X161500000Y-69000000D03*
%TD*%
D10*
%TO.C,R24*%
X73000000Y-95000000D03*
X73000000Y-84840000D03*
%TD*%
D25*
%TO.C,USB_C1*%
X69475000Y-44360000D03*
X68625000Y-44360000D03*
X67775000Y-44360000D03*
X66925000Y-44360000D03*
X66075000Y-44360000D03*
X65225000Y-44360000D03*
X64375000Y-44360000D03*
X63525000Y-44360000D03*
X63525000Y-43010000D03*
X64375000Y-43010000D03*
X65225000Y-43010000D03*
X66075000Y-43010000D03*
X66925000Y-43010000D03*
X67775000Y-43010000D03*
X68625000Y-43010000D03*
X69475000Y-43010000D03*
D26*
X70825000Y-43380000D03*
D27*
X70825000Y-40000000D03*
D26*
X62175000Y-43380000D03*
D27*
X62175000Y-40000000D03*
%TD*%
D10*
%TO.C,R23*%
X83000000Y-95000000D03*
X83000000Y-84840000D03*
%TD*%
%TO.C,R5*%
X143340000Y-130283000D03*
X153500000Y-130283000D03*
%TD*%
D16*
%TO.C,D19*%
X201100000Y-114100000D03*
X201100000Y-115500000D03*
%TD*%
D17*
%TO.C,D76*%
X164500000Y-77500000D03*
D19*
X164500000Y-79775000D03*
%TD*%
D16*
%TO.C,D21*%
X206000000Y-114100000D03*
X206000000Y-115500000D03*
%TD*%
D17*
%TO.C,D49*%
X165909500Y-133283000D03*
D18*
X163634500Y-133283000D03*
%TD*%
D23*
%TO.C,SW3*%
X247750000Y-89750000D03*
X254250000Y-89750000D03*
X247750000Y-94250000D03*
X254250000Y-94250000D03*
%TD*%
D17*
%TO.C,D78*%
X154500000Y-77500000D03*
D19*
X154500000Y-79775000D03*
%TD*%
D14*
%TO.C,LedMatrixWrite1*%
X54000000Y-130000000D03*
D10*
X56540000Y-130000000D03*
X59080000Y-130000000D03*
X61620000Y-130000000D03*
X64160000Y-130000000D03*
X66700000Y-130000000D03*
X69240000Y-130000000D03*
X71780000Y-130000000D03*
X74320000Y-130000000D03*
X76860000Y-130000000D03*
X76860000Y-122380000D03*
X74320000Y-122380000D03*
X71780000Y-122380000D03*
X69240000Y-122380000D03*
X66700000Y-122380000D03*
X64160000Y-122380000D03*
X61620000Y-122380000D03*
X59080000Y-122380000D03*
X56540000Y-122380000D03*
X54000000Y-122380000D03*
%TD*%
D16*
%TO.C,D17*%
X218168600Y-103030500D03*
X218168600Y-104430500D03*
%TD*%
D17*
%TO.C,D35*%
X53000000Y-77000000D03*
D19*
X53000000Y-79275000D03*
%TD*%
D14*
%TO.C,LedMatrixRead1*%
X54000000Y-119620000D03*
D10*
X56540000Y-119620000D03*
X59080000Y-119620000D03*
X61620000Y-119620000D03*
X64160000Y-119620000D03*
X66700000Y-119620000D03*
X69240000Y-119620000D03*
X71780000Y-119620000D03*
X74320000Y-119620000D03*
X76860000Y-119620000D03*
X76860000Y-112000000D03*
X74320000Y-112000000D03*
X71780000Y-112000000D03*
X69240000Y-112000000D03*
X66700000Y-112000000D03*
X64160000Y-112000000D03*
X61620000Y-112000000D03*
X59080000Y-112000000D03*
X56540000Y-112000000D03*
X54000000Y-112000000D03*
%TD*%
%TO.C,R7*%
X111080000Y-140000000D03*
X100920000Y-140000000D03*
%TD*%
D17*
%TO.C,D53*%
X165909500Y-115500000D03*
D18*
X163634500Y-115500000D03*
%TD*%
D10*
%TO.C,R13*%
X46741500Y-43586000D03*
X46741500Y-53746000D03*
%TD*%
%TO.C,R32*%
X48000000Y-95000000D03*
X48000000Y-84840000D03*
%TD*%
D16*
%TO.C,D9*%
X208318600Y-103030500D03*
X208318600Y-104430500D03*
%TD*%
D24*
%TO.C,LedMatrixAddress1*%
X224000000Y-69640000D03*
D10*
X224000000Y-72180000D03*
X224000000Y-74720000D03*
X224000000Y-77260000D03*
X224000000Y-79800000D03*
X224000000Y-82340000D03*
X224000000Y-84880000D03*
X224000000Y-87420000D03*
X224000000Y-89960000D03*
X224000000Y-92500000D03*
X231620000Y-92500000D03*
X231620000Y-89960000D03*
X231620000Y-87420000D03*
X231620000Y-84880000D03*
X231620000Y-82340000D03*
X231620000Y-79800000D03*
X231620000Y-77260000D03*
X231620000Y-74720000D03*
X231620000Y-72180000D03*
X231620000Y-69640000D03*
%TD*%
D17*
%TO.C,D37*%
X73000000Y-77000000D03*
D19*
X73000000Y-79275000D03*
%TD*%
D16*
%TO.C,D63*%
X213500000Y-125600000D03*
X213500000Y-127000000D03*
%TD*%
D10*
%TO.C,R33*%
X53000000Y-95000000D03*
X53000000Y-84840000D03*
%TD*%
%TO.C,R22*%
X68000000Y-95000000D03*
X68000000Y-84840000D03*
%TD*%
%TO.C,R59*%
X199500000Y-95660000D03*
X199500000Y-85500000D03*
%TD*%
%TO.C,R14*%
X58391500Y-53786000D03*
X58391500Y-43626000D03*
%TD*%
D16*
%TO.C,D58*%
X206000000Y-125600000D03*
X206000000Y-127000000D03*
%TD*%
D10*
%TO.C,R3*%
X111080000Y-129500000D03*
X100920000Y-129500000D03*
%TD*%
D16*
%TO.C,D27*%
X203500000Y-114100000D03*
X203500000Y-115500000D03*
%TD*%
D17*
%TO.C,D80*%
X144500000Y-77420000D03*
D19*
X144500000Y-79695000D03*
%TD*%
D14*
%TO.C,ShiftRegisterOut2*%
X179220000Y-131620000D03*
D10*
X181760000Y-131620000D03*
X184300000Y-131620000D03*
X186840000Y-131620000D03*
X189380000Y-131620000D03*
X191920000Y-131620000D03*
X194460000Y-131620000D03*
X197000000Y-131620000D03*
X197000000Y-124000000D03*
X194460000Y-124000000D03*
X191920000Y-124000000D03*
X189380000Y-124000000D03*
X186840000Y-124000000D03*
X184300000Y-124000000D03*
X181760000Y-124000000D03*
X179220000Y-124000000D03*
%TD*%
%TO.C,R29*%
X63000000Y-108000000D03*
X63000000Y-97840000D03*
%TD*%
D17*
%TO.C,D47*%
X78000000Y-77000000D03*
D19*
X78000000Y-79275000D03*
%TD*%
D14*
%TO.C,ShiftRegisterOut1*%
X179231900Y-119944000D03*
D10*
X181771900Y-119944000D03*
X184311900Y-119944000D03*
X186851900Y-119944000D03*
X189391900Y-119944000D03*
X191931900Y-119944000D03*
X194471900Y-119944000D03*
X197011900Y-119944000D03*
X197011900Y-112324000D03*
X194471900Y-112324000D03*
X191931900Y-112324000D03*
X189391900Y-112324000D03*
X186851900Y-112324000D03*
X184311900Y-112324000D03*
X181771900Y-112324000D03*
X179231900Y-112324000D03*
%TD*%
D23*
%TO.C,SW4*%
X247750000Y-98300000D03*
X254250000Y-98300000D03*
X247750000Y-102800000D03*
X254250000Y-102800000D03*
%TD*%
D14*
%TO.C,RAM1*%
X91600000Y-63500000D03*
D10*
X94140000Y-63500000D03*
X96680000Y-63500000D03*
X99220000Y-63500000D03*
X101760000Y-63500000D03*
X104300000Y-63500000D03*
X106840000Y-63500000D03*
X109380000Y-63500000D03*
X111920000Y-63500000D03*
X114460000Y-63500000D03*
X117000000Y-63500000D03*
X119540000Y-63500000D03*
X122080000Y-63500000D03*
X124620000Y-63500000D03*
X124620000Y-48260000D03*
X122080000Y-48260000D03*
X119540000Y-48260000D03*
X117000000Y-48260000D03*
X114460000Y-48260000D03*
X111920000Y-48260000D03*
X109380000Y-48260000D03*
X106840000Y-48260000D03*
X104300000Y-48260000D03*
X101760000Y-48260000D03*
X99220000Y-48260000D03*
X96680000Y-48260000D03*
X94140000Y-48260000D03*
X91600000Y-48260000D03*
%TD*%
D28*
%TO.C,RP2040_1*%
X182016500Y-56136000D03*
X182016500Y-56536000D03*
X182016500Y-56936000D03*
X182016500Y-57336000D03*
X182016500Y-57736000D03*
X182016500Y-58136000D03*
X182016500Y-58536000D03*
X182016500Y-58936000D03*
X182016500Y-59336000D03*
X182016500Y-59736000D03*
X182016500Y-60136000D03*
X182016500Y-60536000D03*
X182016500Y-60936000D03*
X182016500Y-61336000D03*
D29*
X182854000Y-62173500D03*
X183254000Y-62173500D03*
X183654000Y-62173500D03*
X184054000Y-62173500D03*
X184454000Y-62173500D03*
X184854000Y-62173500D03*
X185254000Y-62173500D03*
X185654000Y-62173500D03*
X186054000Y-62173500D03*
X186454000Y-62173500D03*
X186854000Y-62173500D03*
X187254000Y-62173500D03*
X187654000Y-62173500D03*
X188054000Y-62173500D03*
D28*
X188891500Y-61336000D03*
X188891500Y-60936000D03*
X188891500Y-60536000D03*
X188891500Y-60136000D03*
X188891500Y-59736000D03*
X188891500Y-59336000D03*
X188891500Y-58936000D03*
X188891500Y-58536000D03*
X188891500Y-58136000D03*
X188891500Y-57736000D03*
X188891500Y-57336000D03*
X188891500Y-56936000D03*
X188891500Y-56536000D03*
X188891500Y-56136000D03*
D29*
X188054000Y-55298500D03*
X187654000Y-55298500D03*
X187254000Y-55298500D03*
X186854000Y-55298500D03*
X186454000Y-55298500D03*
X186054000Y-55298500D03*
X185654000Y-55298500D03*
X185254000Y-55298500D03*
X184854000Y-55298500D03*
X184454000Y-55298500D03*
X184054000Y-55298500D03*
X183654000Y-55298500D03*
X183254000Y-55298500D03*
X182854000Y-55298500D03*
D30*
X185454000Y-58736000D03*
%TD*%
D17*
%TO.C,D31*%
X83000000Y-77000000D03*
D19*
X83000000Y-79275000D03*
%TD*%
D17*
%TO.C,D44*%
X78000000Y-67625000D03*
D19*
X78000000Y-69900000D03*
%TD*%
D10*
%TO.C,R61*%
X189500000Y-95580000D03*
X189500000Y-85420000D03*
%TD*%
D14*
%TO.C,U1*%
X98880000Y-122805000D03*
D10*
X101420000Y-122805000D03*
X103960000Y-122805000D03*
X106500000Y-122805000D03*
X109040000Y-122805000D03*
X111580000Y-122805000D03*
X114120000Y-122805000D03*
X114120000Y-115185000D03*
X111580000Y-115185000D03*
X109040000Y-115185000D03*
X106500000Y-115185000D03*
X103960000Y-115185000D03*
X101420000Y-115185000D03*
X98880000Y-115185000D03*
%TD*%
D16*
%TO.C,D13*%
X213218600Y-103030500D03*
X213218600Y-104430500D03*
%TD*%
D17*
%TO.C,D42*%
X73000000Y-67625000D03*
D19*
X73000000Y-69900000D03*
%TD*%
D17*
%TO.C,D71*%
X189500000Y-77420000D03*
D19*
X189500000Y-79695000D03*
%TD*%
D17*
%TO.C,D34*%
X48000000Y-67625000D03*
D19*
X48000000Y-69900000D03*
%TD*%
D10*
%TO.C,R57*%
X209500000Y-95660000D03*
X209500000Y-85500000D03*
%TD*%
D15*
%TO.C,C3*%
X196950000Y-52000000D03*
D12*
X195450000Y-52000000D03*
%TD*%
D14*
%TO.C,U2*%
X91760000Y-76620000D03*
D10*
X94300000Y-76620000D03*
X96840000Y-76620000D03*
X99380000Y-76620000D03*
X101920000Y-76620000D03*
X104460000Y-76620000D03*
X107000000Y-76620000D03*
X107000000Y-69000000D03*
X104460000Y-69000000D03*
X101920000Y-69000000D03*
X99380000Y-69000000D03*
X96840000Y-69000000D03*
X94300000Y-69000000D03*
X91760000Y-69000000D03*
%TD*%
D16*
%TO.C,D64*%
X218500000Y-125600000D03*
X218500000Y-127000000D03*
%TD*%
D10*
%TO.C,R67*%
X159500000Y-95660000D03*
X159500000Y-85500000D03*
%TD*%
%TO.C,R54*%
X89500000Y-110160000D03*
X89500000Y-100000000D03*
%TD*%
D16*
%TO.C,D54*%
X218500000Y-114100000D03*
X218500000Y-115500000D03*
%TD*%
D17*
%TO.C,D48*%
X53000000Y-67625000D03*
D19*
X53000000Y-69900000D03*
%TD*%
D11*
%TO.C,C13*%
X93500000Y-126000000D03*
D12*
X95000000Y-126000000D03*
%TD*%
D10*
%TO.C,R20*%
X143432500Y-140500000D03*
X153592500Y-140500000D03*
%TD*%
D17*
%TO.C,D75*%
X169500000Y-77500000D03*
D19*
X169500000Y-79775000D03*
%TD*%
D31*
%TO.C,Y1*%
X173500000Y-63120000D03*
X173500000Y-68000000D03*
%TD*%
D32*
%TO.C,Y2*%
X171960000Y-124000000D03*
X174500000Y-124000000D03*
X174500000Y-121800000D03*
X171960000Y-121800000D03*
%TD*%
D15*
%TO.C,C10*%
X216366050Y-52066000D03*
D12*
X214866050Y-52066000D03*
%TD*%
D11*
%TO.C,C7*%
X234500000Y-59000000D03*
D12*
X236000000Y-59000000D03*
%TD*%
D24*
%TO.C,Z80*%
X119389500Y-85658000D03*
D10*
X119389500Y-88198000D03*
X119389500Y-90738000D03*
X119389500Y-93278000D03*
X119389500Y-95818000D03*
X119389500Y-98358000D03*
X119389500Y-100898000D03*
X119389500Y-103438000D03*
X119389500Y-105978000D03*
X119389500Y-108518000D03*
X119389500Y-111058000D03*
X119389500Y-113598000D03*
X119389500Y-116138000D03*
X119389500Y-118678000D03*
X119389500Y-121218000D03*
X119389500Y-123758000D03*
X119389500Y-126298000D03*
X119389500Y-128838000D03*
X119389500Y-131378000D03*
X119389500Y-133918000D03*
X134629500Y-133918000D03*
X134629500Y-131378000D03*
X134629500Y-128838000D03*
X134629500Y-126298000D03*
X134629500Y-123758000D03*
X134629500Y-121218000D03*
X134629500Y-118678000D03*
X134629500Y-116138000D03*
X134629500Y-113598000D03*
X134629500Y-111058000D03*
X134629500Y-108518000D03*
X134629500Y-105978000D03*
X134629500Y-103438000D03*
X134629500Y-100898000D03*
X134629500Y-98358000D03*
X134629500Y-95818000D03*
X134629500Y-93278000D03*
X134629500Y-90738000D03*
X134629500Y-88198000D03*
X134629500Y-85658000D03*
%TD*%
D16*
%TO.C,D11*%
X210768600Y-103030500D03*
X210768600Y-104430500D03*
%TD*%
D10*
%TO.C,R1*%
X153589500Y-126783000D03*
X143429500Y-126783000D03*
%TD*%
%TO.C,R18*%
X179660000Y-48436000D03*
X169500000Y-48436000D03*
%TD*%
D16*
%TO.C,D46*%
X213500000Y-114100000D03*
X213500000Y-115500000D03*
%TD*%
D33*
%TO.C,Flash1*%
X224000000Y-57460000D03*
X224000000Y-58730000D03*
X224000000Y-60000000D03*
X224000000Y-61270000D03*
X231175000Y-61270000D03*
X231175000Y-60000000D03*
X231175000Y-58730000D03*
X231175000Y-57460000D03*
%TD*%
D17*
%TO.C,D32*%
X63000000Y-67625000D03*
D19*
X63000000Y-69900000D03*
%TD*%
D34*
%TO.C,SW5*%
X97400000Y-93797500D03*
X105600000Y-93797500D03*
D35*
X99500000Y-93797500D03*
D36*
X101500000Y-93797500D03*
X103500000Y-93797500D03*
%TD*%
D37*
%TO.C,J1*%
X254000000Y-66000000D03*
D38*
X254000000Y-67000000D03*
%TD*%
D17*
%TO.C,D68*%
X204500000Y-77500000D03*
D19*
X204500000Y-79775000D03*
%TD*%
D16*
%TO.C,D7*%
X205868600Y-103030500D03*
X205868600Y-104430500D03*
%TD*%
D10*
%TO.C,R34*%
X68000000Y-108000000D03*
X68000000Y-97840000D03*
%TD*%
D17*
%TO.C,D79*%
X149500000Y-77420000D03*
D19*
X149500000Y-79695000D03*
%TD*%
D23*
%TO.C,SW6*%
X60000000Y-136000000D03*
X66500000Y-136000000D03*
X60000000Y-140500000D03*
X66500000Y-140500000D03*
%TD*%
D17*
%TO.C,D65*%
X219500000Y-77500000D03*
D19*
X219500000Y-79775000D03*
%TD*%
M02*
